<?xml version="1.0" encoding="utf-8"?>
<!-- Generator: Adobe Illustrator 25.0.1, SVG Export Plug-In . SVG Version: 6.00 Build 0)  -->
<svg version="1.1" id="图层_1" xmlns="http://www.w3.org/2000/svg" xmlns:xlink="http://www.w3.org/1999/xlink" x="0px" y="0px"
	 viewBox="0 0 19.8227615 19.8227615" style="enable-background:new 0 0 19.8227615 19.8227615;" xml:space="preserve">
<style type="text/css">
	.st0{fill:#326DE6;}
	.st1{fill:#FFFFFF;}
</style>
<g>
	<path class="st0" d="M7.2392173,16.8809929c-0.3441782,0-0.6692357-0.1529675-0.8891277-0.4302216l-3.346179-4.158824
		c-0.2198918-0.2772541-0.3059363-0.6309929-0.2198918-0.975172l1.1950641-5.1913576
		c0.076484-0.3441787,0.3059366-0.6214333,0.621433-0.7744017l4.8376193-2.3136439
		c0.1529684-0.076484,0.325058-0.1147261,0.4971466-0.1147261s0.3441782,0.0382421,0.4971466,0.1147261l4.8376198,2.3040833
		c0.3154964,0.1529684,0.5449486,0.430223,0.6214323,0.7744017l1.1950655,5.1913576
		c0.0764828,0.3441792,0,0.6979179-0.2198925,0.975172l-3.34618,4.158823
		c-0.2198915,0.2676945-0.5449495,0.4302235-0.8891268,0.4302235L7.2392173,16.8809929L7.2392173,16.8809929z"/>
	<path class="st1" d="M9.9257212,3.1616588c0.1338472,0,0.2676945,0.0286815,0.3919811,0.0860445l4.8376198,2.3040836
		c0.2485723,0.1242867,0.4397831,0.3537388,0.4971457,0.6214333l1.1950645,5.1913581
		c0.0669231,0.2772551,0,0.5640697-0.1816502,0.7839613l-3.346179,4.158824
		c-0.1720886,0.2198906-0.439784,0.3441772-0.7170382,0.3441772H7.2392173c-0.2772546,0-0.5449491-0.1242867-0.7170382-0.3441772
		l-3.3461792-4.158824c-0.1720893-0.2198915-0.239013-0.5067062-0.1816499-0.7839613L4.189414,6.1732202
		C4.2563376,5.8959651,4.4379873,5.666513,4.6865606,5.5517869L9.5241795,3.238143
		C9.6484661,3.1903403,9.7918739,3.1616588,9.9257212,3.1616588L9.9257212,3.1616588z M9.9257212,2.7123148L9.9257212,2.7123148
		c-0.2007704,0-0.4015417,0.0478024-0.5927515,0.133847L4.4953504,5.1598058
		C4.1129298,5.3414555,3.8452356,5.6760736,3.7496305,6.0871754L2.5545664,11.278533
		c-0.0956049,0.4111032,0,0.8317652,0.2676945,1.1663837l3.346179,4.1588221
		c0.2581344,0.325058,0.650115,0.5067081,1.0612168,0.5067081h5.3634477c0.4111013,0,0.8030834-0.1816502,1.0612164-0.5067081
		l3.346179-4.1588221c0.2676945-0.325058,0.3633003-0.7552805,0.2676945-1.1663837l-1.1950626-5.1913576
		c-0.0956059-0.4111018-0.3633003-0.7457199-0.7457209-0.9273696L10.508913,2.8461618
		C10.3272619,2.7601173,10.1264915,2.7123148,9.9257212,2.7123148L9.9257212,2.7123148L9.9257212,2.7123148z"/>
	<path class="st1" d="M14.7729006,10.953476L14.7729006,10.953476L14.7729006,10.953476
		C14.76334,10.953476,14.76334,10.953476,14.7729006,10.953476H14.76334c-0.0095606,0-0.0191212,0-0.0191212-0.0095606
		c-0.0191202,0-0.0382414-0.0095606-0.0573626-0.0095606c-0.0669241-0.0095596-0.1242867-0.0191202-0.1816502-0.0191202
		c-0.0286808,0-0.0573626,0-0.0956049-0.0095606h-0.0095606c-0.2007704-0.0191212-0.3632994-0.0382423-0.5162678-0.0860453
		c-0.0669231-0.0286808-0.0860443-0.0669231-0.1051655-0.1051655c0-0.0095596-0.0095606-0.0095596-0.0095606-0.0191202l0,0
		l-0.1242867-0.0382423c0.0573635-0.439784,0.0382423-0.8986883-0.0669231-1.348033
		c-0.1051655-0.4493437-0.2868156-0.8700066-0.5353889-1.2524261l0.0956049-0.0860453V7.9514751
		c0-0.0478024,0.0095615-0.0956049,0.0478029-0.1434073c0.1147261-0.1051655,0.2581339-0.1912103,0.4302235-0.2963762l0,0
		c0.0286808-0.0191212,0.0573626-0.0286813,0.0860443-0.0478024c0.0573626-0.0286818,0.1051655-0.057363,0.162528-0.0956049
		c0.0095606-0.0095606,0.0286818-0.0191212,0.0478029-0.0382423c0.0095606-0.0095601,0.0191212-0.0095601,0.0191212-0.0191207l0,0
		c0.1338472-0.1147261,0.162529-0.3059368,0.0669231-0.430223c-0.047802-0.0669236-0.1338472-0.105166-0.2198915-0.105166
		c-0.0764837,0-0.1434078,0.0286818-0.210331,0.0764842l0,0l0,0c-0.0095606,0.0095606-0.0095606,0.0095606-0.0191212,0.0191212
		c-0.0191212,0.0095606-0.0286818,0.0286813-0.047802,0.0382419c-0.0478029,0.0478024-0.0860453,0.0860443-0.1242867,0.1338472
		c-0.0191212,0.0191207-0.0382423,0.0478024-0.0669241,0.0669236l0,0c-0.1338463,0.1434078-0.2581339,0.2581339-0.3824205,0.3441782
		c-0.0286818,0.0191212-0.0573635,0.0286818-0.0860443,0.0286818c-0.0191212,0-0.0382423,0-0.0573635-0.0095606H12.765193l0,0
		l-0.1147261,0.0764837c-0.1242867-0.1338468-0.2581329-0.2485728-0.3919802-0.3632989
		c-0.5736313-0.4493442-1.2715492-0.7265992-1.998148-0.7935228l-0.0095606-0.1242867
		c-0.0095606-0.0095606-0.0095606-0.0095606-0.0191212-0.0191207c-0.0286808-0.0286818-0.0669231-0.057363-0.0764837-0.1242867
		c-0.0095606-0.1529684,0.0095606-0.3250575,0.0286818-0.5162678V5.5995893c0-0.0286818,0.0095606-0.0669236,0.0191212-0.0956049
		c0.0095606-0.057363,0.0191202-0.1147261,0.0286808-0.1816502v-0.057363V5.23629l0,0l0,0
		c0-0.1720891-0.1338463-0.3154969-0.2963753-0.3154969c-0.0764837,0-0.1529684,0.0382419-0.210331,0.0956049
		C9.6675873,5.073761,9.6389055,5.1502452,9.6389055,5.23629l0,0l0,0v0.0191212v0.057363
		c0,0.0669236,0.0095606,0.1242867,0.0286818,0.1816497c0.0095606,0.0286813,0.0095606,0.057363,0.0191212,0.0956049v0.0095606
		c0.0191212,0.1912103,0.0478029,0.3632994,0.0286818,0.5162678C9.7058296,6.1827807,9.6675873,6.211462,9.6389055,6.2401438
		C9.6293449,6.2497044,9.6293449,6.2497044,9.6197844,6.2592645l0,0L9.6102238,6.3835516
		C9.4381351,6.4026723,9.2660465,6.4217935,9.0939569,6.4600353C8.3577976,6.6225638,7.7076821,6.9954238,7.2009754,7.5308127
		L7.10537,7.4638891H7.0862494c-0.0191212,0-0.0382423,0.0095606-0.057363,0.0095606
		c-0.0286818,0-0.057363-0.0095606-0.0860448-0.0286818C6.8185549,7.3587236,6.6942682,7.234437,6.560421,7.0910292l0,0
		C6.5413003,7.071908,6.5221791,7.0432267,6.4934978,7.0241055C6.4552555,6.9763031,6.4170132,6.9380612,6.3692107,6.8902583
		C6.3596501,6.8806982,6.340529,6.8711376,6.3214083,6.8520164C6.3118477,6.8424559,6.3022871,6.8424559,6.3022871,6.8328953l0,0
		c-0.057363-0.0478024-0.1338472-0.0764837-0.210331-0.0764837c-0.0860448,0-0.1720896,0.0382419-0.219892,0.1051655
		C5.7764592,6.9858637,5.8051405,7.177074,5.9389877,7.2918l0,0l0,0c0.0095606,0,0.0095606,0.0095606,0.0191212,0.0095606
		c0.0191207,0.0095606,0.0286813,0.0286813,0.0478024,0.0382419c0.057363,0.0382423,0.1051655,0.0669236,0.1625285,0.0956049
		c0.0286818,0.0095606,0.057363,0.0286818,0.0860448,0.0478029l0,0c0.1720896,0.105166,0.3154969,0.1912103,0.430223,0.2963758
		c0.0478024,0.0478024,0.0478024,0.0956049,0.0478024,0.1434078v0.0191207l0,0L6.828115,8.0279589
		C6.8089943,8.0566416,6.7898731,8.0757618,6.7803125,8.1044436C6.3022871,8.859724,6.1206374,9.7488518,6.2449241,10.6284189
		l-0.1242867,0.0382423c0,0.0095606-0.0095606,0.0095606-0.0095606,0.0191212
		c-0.0191207,0.0382414-0.0478024,0.0764837-0.1051655,0.1051655c-0.1434078,0.047802-0.3154969,0.0669231-0.5162678,0.0860443
		H5.480083c-0.0286813,0-0.0669231,0-0.0956049,0.0095606c-0.057363,0-0.1147261,0.0095606-0.1816497,0.0191212
		c-0.0191212,0-0.0382419,0.0095606-0.057363,0.0095606c-0.0095606,0-0.0191212,0-0.0286818,0.0095606l0,0l0,0
		c-0.1720891,0.0382414-0.2772546,0.2007704-0.2485733,0.3537378c0.0286818,0.1338472,0.1529684,0.2198915,0.3059363,0.2198915
		c0.0286818,0,0.0478029,0,0.0764842-0.0095606l0,0l0,0c0.0095606,0,0.0191212,0,0.0191212-0.0095596
		c0.0191207,0,0.0382419-0.0095606,0.057363-0.0095606c0.0669236-0.0191212,0.1147261-0.0382423,0.1720891-0.0669241
		c0.0286818-0.0095606,0.057363-0.0286818,0.0860448-0.0382414h0.0095601
		c0.1816502-0.0669241,0.3441787-0.1242867,0.4971471-0.1434078h0.0191207c0.057363,0,0.0956054,0.0286818,0.1242867,0.047802
		c0.0095606,0,0.0095606,0.0095606,0.0191212,0.0095606l0,0l0.1338468-0.0191202
		c0.2294526,0.7074776,0.6692362,1.3384714,1.2524276,1.7973757c0.1338468,0.1051655,0.2676945,0.1912098,0.4111018,0.2772551
		l-0.057363,0.1242876c0,0.0095596,0.0095611,0.0095596,0.0095611,0.0191202
		c0.0191202,0.0382423,0.0382414,0.0860453,0.0191202,0.1529684c-0.0573626,0.1434078-0.1434073,0.2868147-0.2485733,0.4493437
		v0.0095606c-0.0191207,0.0286818-0.0382419,0.047802-0.057363,0.0764837
		c-0.0382419,0.0478029-0.0669231,0.0956049-0.1051655,0.1529694c-0.0095606,0.0095606-0.0191207,0.0286808-0.0286813,0.047802
		c0,0.0095606-0.0095606,0.0191212-0.0095606,0.0191212l0,0l0,0c-0.0764842,0.162529-0.0191212,0.3441782,0.1242867,0.4111013
		c0.0382419,0.0191212,0.0764837,0.0286818,0.1147261,0.0286818c0.1147261,0,0.2294521-0.0764837,0.2868156-0.1816492l0,0l0,0
		c0-0.0095606,0.0095606-0.0191212,0.0095606-0.0191212c0.0095606-0.0191212,0.0191202-0.0382423,0.0286808-0.0478029
		c0.0286818-0.0669231,0.0382423-0.1147261,0.0573635-0.1720886c0.0095606-0.0286818,0.0191212-0.0573635,0.0286818-0.0860443l0,0
		c0.0669231-0.1912117,0.1147261-0.3441792,0.2007704-0.4780264c0.0382423-0.0573626,0.0860443-0.0669231,0.1242867-0.0860443
		c0.0095606,0,0.0095606,0,0.0191212-0.0095606l0,0l0.0669231-0.1242867
		c0.4206629,0.162529,0.8795671,0.2485733,1.3384724,0.2485733c0.2772541,0,0.5640707-0.0286818,0.8317642-0.0956049
		c0.1720896-0.0382423,0.3346176-0.0860453,0.4971476-0.1434078l0.0573626,0.1051655c0.0095606,0,0.0095606,0,0.0191212,0.0095606
		c0.047802,0.0095606,0.0860443,0.0286818,0.1242867,0.0860443c0.0764837,0.1338472,0.1338472,0.2963753,0.2007704,0.4780264
		v0.0095606c0.0095606,0.0286808,0.0191212,0.0573626,0.0286818,0.0860443
		c0.0191212,0.0573626,0.0286808,0.1147261,0.0573626,0.1720886c0.0095606,0.0191212,0.0191212,0.0286818,0.0286818,0.0478029
		c0,0.0095606,0.0095606,0.0191212,0.0095606,0.0191212l0,0l0,0c0.0573626,0.1147261,0.1720886,0.1816492,0.2868147,0.1816492
		c0.0382423,0,0.0764847-0.0095606,0.114727-0.0286818c0.0669241-0.0382414,0.1242867-0.0956049,0.1434078-0.1720886
		s0.0191212-0.162529-0.0191212-0.2390127l0,0l0,0c0-0.0095606-0.0095606-0.0095606-0.0095606-0.0191212
		c-0.0095606-0.0191212-0.0191212-0.0382414-0.0286818-0.047802c-0.0286808-0.0573645-0.0669231-0.1051664-0.1051664-0.1529694
		c-0.0191202-0.0286818-0.0382414-0.047802-0.0573626-0.0764837v-0.0095606
		c-0.1051655-0.162529-0.2007704-0.3059359-0.2485733-0.4493437c-0.0191212-0.0669231,0-0.1051655,0.0095606-0.1529684
		c0-0.0095606,0.0095606-0.0095606,0.0095606-0.0191202l0,0l-0.0478029-0.114727
		c0.5067081-0.2963762,0.9369307-0.7170382,1.2619877-1.2333059c0.1720896-0.2676945,0.3059368-0.5640697,0.4015417-0.860446
		l0.1147261,0.0191202c0.0095606,0,0.0095606-0.0095596,0.0191212-0.0095596
		c0.0382423-0.0191212,0.0669231-0.0478029,0.1242867-0.0478029h0.0191212
		c0.1529675,0.0191212,0.3154974,0.0764837,0.4971466,0.1434078h0.0095606
		c0.0286818,0.0095606,0.0573635,0.0286808,0.0860443,0.0382414c0.0573635,0.0286818,0.1051655,0.0478029,0.1720896,0.0669241
		c0.0191212,0,0.0382414,0.0095606,0.0573626,0.0095606c0.0095606,0,0.0191212,0,0.0286818,0.0095606l0,0
		c0.0286818,0.0095596,0.0478029,0.0095596,0.0764837,0.0095596c0.1434078,0,0.2676954-0.0956049,0.3059378-0.2198915
		C15.0501566,11.1542463,14.9449902,11.0012789,14.7729006,10.953476L14.7729006,10.953476z M10.346384,10.4850111
		l-0.4206629,0.2007713l-0.4206629-0.2007713l-0.1051655-0.4493437l0.2868156-0.3633003h0.4684649l0.2868156,0.3633003
		L10.346384,10.4850111L10.346384,10.4850111z M12.8416777,9.4907179c0.0764837,0.325057,0.0956049,0.650115,0.0669231,0.9656115
		l-1.4627581-0.4206619c-0.1338472-0.0382423-0.2103319-0.1720896-0.1816492-0.3059368
		c0.0095596-0.0382423,0.0286808-0.0764837,0.0573626-0.1051655l1.1568222-1.0420961
		C12.6409063,8.8501635,12.765193,9.1561003,12.8416777,9.4907179L12.8416777,9.4907179z M12.0194731,8.0088387L10.767046,8.8979654
		c-0.1051655,0.0669241-0.2485723,0.0478029-0.3346176-0.0573626c-0.0286808-0.0286818-0.0382414-0.0669231-0.047802-0.1051655
		L10.2985811,7.177074C10.9582567,7.2535582,11.5605688,7.5499334,12.0194731,8.0088387L12.0194731,8.0088387z M9.2469254,7.2248764
		c0.1051655-0.0191207,0.2007704-0.0382419,0.3059359-0.057363L9.4668169,8.6971951
		C9.4572563,8.8310423,9.3520908,8.9457684,9.208683,8.9457684c-0.0382423,0-0.0860453-0.0095606-0.1147261-0.0286818
		L7.8224087,8.0088387C8.2143898,7.6168575,8.7019758,7.3491631,9.2469254,7.2248764L9.2469254,7.2248764z M7.3635044,8.582469
		l1.137701,1.0134144c0.1051655,0.0860443,0.1147251,0.2485733,0.0286808,0.3537388
		c-0.0286808,0.0382423-0.0669231,0.0669241-0.1147261,0.0764847l-1.4818788,0.4302225
		C6.8759179,9.8062143,7.0193257,9.1465397,7.3635044,8.582469L7.3635044,8.582469z M7.10537,11.1733675l1.5201211-0.2581329
		c0.1242876-0.0095606,0.2390137,0.0764837,0.2676945,0.2007704c0.0095606,0.0573626,0.0095606,0.1051655-0.0095596,0.1529675l0,0
		l-0.5831919,1.4053965C7.7650452,12.3301897,7.3348222,11.8043623,7.10537,11.1733675L7.10537,11.1733675z M10.5949574,13.0759096
		c-0.2198915,0.0478029-0.439784,0.0764837-0.6692362,0.0764837c-0.3346176,0-0.6596746-0.0573626-0.9656115-0.1529675
		l0.7552805-1.3671532c0.0764837-0.0860443,0.2007704-0.1242876,0.3059359-0.0669231
		c0.0478029,0.0286808,0.0860443,0.0669231,0.1147261,0.1051655l0,0l0.7361593,1.3289108
		C10.7861671,13.0281067,10.6905622,13.0472279,10.5949574,13.0759096L10.5949574,13.0759096z M12.4592571,11.7469988
		c-0.2390127,0.3824205-0.5545101,0.6883574-0.9178095,0.9273701l-0.6023121-1.4436378
		c-0.0286818-0.1147261,0.0191212-0.2390127,0.1338472-0.2963762c0.0382414-0.0191202,0.0860443-0.0286808,0.1338463-0.0286808
		l1.5296831,0.2581329C12.6791487,11.3741379,12.5835438,11.5653496,12.4592571,11.7469988L12.4592571,11.7469988z"/>
</g>
</svg>
