<?xml version="1.0" encoding="utf-8"?>
<!-- Generator: Adobe Illustrator 25.0.1, SVG Export Plug-In . SVG Version: 6.00 Build 0)  -->
<svg version="1.1" id="图层_1" xmlns="http://www.w3.org/2000/svg" xmlns:xlink="http://www.w3.org/1999/xlink" x="0px" y="0px"
	 viewBox="0 0 19.8227615 19.8227615" style="enable-background:new 0 0 19.8227615 19.8227615;" xml:space="preserve">
<style type="text/css">
	.st0{fill:#FFFFFF;}
	.st1{fill:#00AEDE;}
</style>
<g>
	<path class="st0" d="M13.7112942,11.8528681V7.9706259l-3.3478107,1.9443245L13.7112942,11.8528681"/>
	<path class="st1" d="M13.4947014,7.5918183l-3.3536682-1.9391985V9.535655L13.4947014,7.5918183"/>
	<path class="st1" d="M9.705163,9.535533V5.6524978L6.3491144,7.5916963L9.705163,9.535533"/>
	<path class="st1" d="M9.488266,5.2799153L6.1353908,3.3294878v3.888772L9.488266,5.2799153"/>
	<path class="st0" d="M13.4947014,12.2259378l-3.3536682-1.9374895v3.8824244L13.4947014,12.2259378"/>
	<path class="st0" d="M9.705163,14.1709347v-3.8826084l-3.3560486,1.9377337L9.705163,14.1709347"/>
	<path class="st1" d="M17.5057755,9.9148893l-3.358551-1.9440804v3.8819971L17.5057755,9.9148893"/>
	<path class="st1" d="M5.6986666,7.2182598v-3.888772L2.320647,5.2799153L5.6986666,7.2182598"/>
	<path class="st0" d="M9.488266,14.5440664l-3.3528752-1.9434099v3.8874912L9.488266,14.5440664"/>
	<path class="st1" d="M5.6986666,16.4882069v-3.8874283l-3.3780196,1.943409L5.6986666,16.4882069"/>
	<path class="st0" d="M9.488266,9.9148893L6.1353908,7.970809v3.8819971L9.488266,9.9148893"/>
	<path class="st1" d="M13.7112942,7.2182598v-3.888772l-3.3478107,1.9504275L13.7112942,7.2182598"/>
	<path class="st0" d="M10.1411552,1.017646v3.8817534l3.3536692-1.9434094L10.1411552,1.017646"/>
	<path class="st0" d="M6.3490534,2.9559898l3.3560495,1.9434094V1.017646L6.3490534,2.9559898"/>
	<path class="st0" d="M13.4947014,16.8609123l-3.3536682-1.9370632v3.8811436L13.4947014,16.8609123"/>
	<path class="st0" d="M9.705163,18.8051147V14.923728l-3.3560486,1.9373064L9.705163,18.8051147"/>
	<path class="st1" d="M17.7231007,14.1709347v-3.8826084l-3.3498859,1.9377337L17.7231007,14.1709347"/>
	<path class="st1" d="M5.6986666,11.8528681V7.9645228L2.320647,9.9149504L5.6986666,11.8528681"/>
	<path class="st1" d="M5.4825625,12.2259378l-3.3829017-1.9374895v3.8824244L5.4825625,12.2259378"/>
	<path class="st1" d="M17.7231007,9.535533V5.6524978l-3.3498859,1.9391985L17.7231007,9.535533"/>
	<path class="st1" d="M17.5057755,5.2799153l-3.358551-1.9504275v3.888772L17.5057755,5.2799153"/>
	<path class="st1" d="M17.5057755,14.5440664l-3.358551-1.9434099v3.8874912L17.5057755,14.5440664"/>
	<path class="st0" d="M13.7112942,16.4882069v-3.8874283l-3.3478107,1.943409L13.7112942,16.4882069"/>
	<path class="st1" d="M5.4825625,7.5918183L2.0996609,5.6526198V9.535655L5.4825625,7.5918183"/>
</g>
</svg>
