<?xml version="1.0" encoding="utf-8"?>
<!-- Generator: Adobe Illustrator 25.0.1, SVG Export Plug-In . SVG Version: 6.00 Build 0)  -->
<svg version="1.1" id="图层_1" xmlns="http://www.w3.org/2000/svg" xmlns:xlink="http://www.w3.org/1999/xlink" x="0px" y="0px"
	 viewBox="0 0 36.8503952 29.7637787" style="enable-background:new 0 0 36.8503952 29.7637787;" xml:space="preserve">
<style type="text/css">
	.st0{opacity:0.15;}
	.st1{fill:#2A8B92;}
	.st2{opacity:0.1;}
</style>
<g>
	<g class="st0">
		<ellipse class="st1" cx="18.3970566" cy="12.5518675" rx="7.8451576" ry="2.0985737"/>
	</g>
	<g>
		<g>
			<g>
				<path class="st1" d="M18.4250469,15.2929688c-4.1235352,0-8.5615234-0.8134766-8.5615234-2.5991211
					s4.4379883-2.5986328,8.5615234-2.5986328s8.5620117,0.8129883,8.5620117,2.5986328
					S22.5485821,15.2929688,18.4250469,15.2929688z M18.4250469,11.0952148c-4.9887695,0-7.5615234,1.1206055-7.5615234,1.5986328
					s2.5727539,1.5991211,7.5615234,1.5991211s7.5620117-1.1210938,7.5620117-1.5991211
					S23.4138165,11.0952148,18.4250469,11.0952148z"/>
			</g>
			<g>
				<path class="st1" d="M18.4250469,20.0683594c-4.1235352,0-8.5615234-0.8134766-8.5615234-2.5986328v-4.8354492
					c0-0.2763672,0.2236328-0.5,0.5-0.5s0.5,0.2236328,0.5,0.5v4.8354492c0,0.4785156,2.5727539,1.5986328,7.5615234,1.5986328
					s7.5620117-1.1201172,7.5620117-1.5986328v-4.8354492c0-0.2763672,0.2236328-0.5,0.5-0.5s0.5,0.2236328,0.5,0.5v4.8354492
					C26.9870586,19.2548828,22.5485821,20.0683594,18.4250469,20.0683594z"/>
			</g>
			<g>
				<path class="st1" d="M18.4250469,24.7255859c-4.1235352,0-8.5615234-0.8134766-8.5615234-2.5996094v-4.8349609
					c0-0.2763672,0.2236328-0.5,0.5-0.5s0.5,0.2236328,0.5,0.5v4.8349609c0,0.4785156,2.5727539,1.5996094,7.5615234,1.5996094
					s7.5620117-1.1210938,7.5620117-1.5996094v-4.8349609c0-0.2763672,0.2236328-0.5,0.5-0.5s0.5,0.2236328,0.5,0.5v4.8349609
					C26.9870586,23.9121094,22.5485821,24.7255859,18.4250469,24.7255859z"/>
			</g>
			<g>
				<path class="st1" d="M18.4250469,29.3818359c-4.1235352,0-8.5615234-0.8134766-8.5615234-2.5986328v-4.8359375
					c0-0.2763672,0.2236328-0.5,0.5-0.5s0.5,0.2236328,0.5,0.5v4.8359375c0,0.4785156,2.5727539,1.5986328,7.5615234,1.5986328
					s7.5620117-1.1201172,7.5620117-1.5986328v-4.8359375c0-0.2763672,0.2236328-0.5,0.5-0.5s0.5,0.2236328,0.5,0.5v4.8359375
					C26.9870586,28.5683594,22.5485821,29.3818359,18.4250469,29.3818359z"/>
			</g>
		</g>
		<g>
			<g>
				<g>
					<path class="st1" d="M29.1940899,9.7041016c-1.265625,0-2.2949219-1.0297852-2.2949219-2.2954102
						s1.0292969-2.2954102,2.2949219-2.2954102s2.2958984,1.0297852,2.2958984,2.2954102S30.4597149,9.7041016,29.1940899,9.7041016
						z M29.1940899,6.1132812c-0.7138672,0-1.2949219,0.5810547-1.2949219,1.2954102s0.5810547,1.2954102,1.2949219,1.2954102
						c0.7148438,0,1.2958984-0.5810547,1.2958984-1.2954102S29.9089336,6.1132812,29.1940899,6.1132812z"/>
				</g>
				<g>
					<g>
						<path class="st1" d="M29.1940899,17.0693359c-0.2763672,0-0.5-0.2236328-0.5-0.5v-1.0004883
							c0-0.2763672,0.2236328-0.5,0.5-0.5s0.5,0.2236328,0.5,0.5v1.0004883
							C29.6940899,16.8457031,29.4704571,17.0693359,29.1940899,17.0693359z"/>
					</g>
					<g>
						<path class="st1" d="M29.1979961,14.0097656c-0.2792969,0-0.5-0.2197266-0.5-0.5v-1.5400391
							c0-0.2797852,0.2207031-0.5,0.5-0.5c0.2705078,0,0.5,0.2202148,0.5,0.5v1.5400391
							C29.6979961,13.7900391,29.468504,14.0097656,29.1979961,14.0097656z"/>
					</g>
					<g>
						<path class="st1" d="M29.1940899,10.9291992c-0.2763672,0-0.5-0.2236328-0.5-0.5v-1c0-0.2763672,0.2236328-0.5,0.5-0.5
							s0.5,0.2236328,0.5,0.5v1C29.6940899,10.7055664,29.4704571,10.9291992,29.1940899,10.9291992z"/>
					</g>
				</g>
			</g>
			<g>
				<g>
					<path class="st1" d="M7.656004,9.7041016c-1.265625,0-2.2954102-1.0297852-2.2954102-2.2954102
						S6.390379,5.1132812,7.656004,5.1132812s2.2954102,1.0297852,2.2954102,2.2954102S8.921629,9.7041016,7.656004,9.7041016z
						 M7.656004,6.1132812c-0.7143555,0-1.2954102,0.5810547-1.2954102,1.2954102S6.9416485,8.7041016,7.656004,8.7041016
						s1.2954102-0.5810547,1.2954102-1.2954102S8.3703594,6.1132812,7.656004,6.1132812z"/>
				</g>
				<g>
					<g>
						<path class="st1" d="M7.656004,17.0693359c-0.2763672,0-0.5-0.2236328-0.5-0.5v-1.0004883c0-0.2763672,0.2236328-0.5,0.5-0.5
							s0.5,0.2236328,0.5,0.5v1.0004883C8.156004,16.8457031,7.9323711,17.0693359,7.656004,17.0693359z"/>
					</g>
					<g>
						<path class="st1" d="M7.6584454,14.0097656c-0.2802734,0-0.5-0.2197266-0.5-0.5v-1.5400391c0-0.2797852,0.2197266-0.5,0.5-0.5
							c0.2700195,0,0.5,0.2202148,0.5,0.5v1.5400391C8.1584454,13.7900391,7.9284649,14.0097656,7.6584454,14.0097656z"/>
					</g>
					<g>
						<path class="st1" d="M7.656004,10.9291992c-0.2763672,0-0.5-0.2236328-0.5-0.5v-1c0-0.2763672,0.2236328-0.5,0.5-0.5
							s0.5,0.2236328,0.5,0.5v1C8.156004,10.7055664,7.9323711,10.9291992,7.656004,10.9291992z"/>
					</g>
				</g>
			</g>
		</g>
		<g>
			<g>
				<g>
					<path class="st1" d="M33.7331543,16.4980469c-1.265625,0-2.2949238-1.0292969-2.2949238-2.2949219
						s1.0292988-2.2954102,2.2949238-2.2954102s2.2949219,1.0297852,2.2949219,2.2954102
						S34.9987793,16.4980469,33.7331543,16.4980469z M33.7331543,12.9077148c-0.7138672,0-1.2949219,0.5810547-1.2949219,1.2954102
						s0.5810547,1.2954102,1.2949219,1.2954102s1.2949219-0.5810547,1.2949219-1.2954102
						S34.4470215,12.9077148,33.7331543,12.9077148z"/>
				</g>
				<g>
					<g>
						<path class="st1" d="M33.7331543,23.8632812c-0.2763672,0-0.5-0.2236328-0.5-0.5v-1c0-0.2763672,0.2236328-0.5,0.5-0.5
							s0.5,0.2236328,0.5,0.5v1C34.2331543,23.6396484,34.0095215,23.8632812,33.7331543,23.8632812z"/>
					</g>
					<g>
						<path class="st1" d="M33.7282715,20.0595703c-0.2695312,0-0.4902344-0.2197266-0.4902344-0.5v-2.3398438
							c0-0.2695312,0.2207031-0.5,0.4902344-0.5c0.2802734,0,0.5,0.2304688,0.5,0.5v2.3398438
							C34.2282715,19.8398438,34.0085449,20.0595703,33.7282715,20.0595703z"/>
					</g>
					<g>
						<path class="st1" d="M33.7331543,17.7236328c-0.2763672,0-0.5-0.2236328-0.5-0.5v-1c0-0.2763672,0.2236328-0.5,0.5-0.5
							s0.5,0.2236328,0.5,0.5v1C34.2331543,17.5,34.0095215,17.7236328,33.7331543,17.7236328z"/>
					</g>
				</g>
			</g>
			<g>
				<g>
					<path class="st1" d="M3.11743,16.4980469c-1.265625,0-2.2954102-1.0292969-2.2954102-2.2949219
						S1.851805,11.9077148,3.11743,11.9077148S5.4123516,12.9375,5.4123516,14.203125S4.3830547,16.4980469,3.11743,16.4980469z
						 M3.11743,12.9077148c-0.7143555,0-1.2954102,0.5810547-1.2954102,1.2954102s0.5810547,1.2954102,1.2954102,1.2954102
						c0.7138672,0,1.2949216-0.5810547,1.2949216-1.2954102S3.8312972,12.9077148,3.11743,12.9077148z"/>
				</g>
				<g>
					<g>
						<path class="st1" d="M3.11743,23.8632812c-0.2763672,0-0.5-0.2236328-0.5-0.5v-1c0-0.2763672,0.2236328-0.5,0.5-0.5
							s0.5,0.2236328,0.5,0.5v1C3.61743,23.6396484,3.3937972,23.8632812,3.11743,23.8632812z"/>
					</g>
					<g>
						<path class="st1" d="M3.1184065,20.0595703c-0.2802734,0-0.5-0.2294922-0.5-0.5v-2.3398438c0-0.2695312,0.2197266-0.5,0.5-0.5
							c0.2700195,0,0.5,0.2304688,0.5,0.5v2.3398438C3.6184065,19.8300781,3.3884261,20.0595703,3.1184065,20.0595703z"/>
					</g>
					<g>
						<path class="st1" d="M3.11743,17.7236328c-0.2763672,0-0.5-0.2236328-0.5-0.5v-1c0-0.2763672,0.2236328-0.5,0.5-0.5
							s0.5,0.2236328,0.5,0.5v1C3.61743,17.5,3.3937972,17.7236328,3.11743,17.7236328z"/>
					</g>
				</g>
			</g>
		</g>
		<g>
			<g>
				<path class="st1" d="M18.4250469,4.9726562c-1.265625,0-2.2949219-1.0297852-2.2949219-2.2954102
					s1.0292969-2.2954102,2.2949219-2.2954102c1.2661133,0,2.2954102,1.0297852,2.2954102,2.2954102
					S19.6911602,4.9726562,18.4250469,4.9726562z M18.4250469,1.3818359c-0.7138672,0-1.2949219,0.5810547-1.2949219,1.2954102
					s0.5810547,1.2954102,1.2949219,1.2954102c0.7143555,0,1.2954102-0.5810547,1.2954102-1.2954102
					S19.1394024,1.3818359,18.4250469,1.3818359z"/>
			</g>
			<g>
				<g>
					<path class="st1" d="M18.4250469,12.3374023c-0.2763672,0-0.5-0.2236328-0.5-0.5v-1c0-0.2763672,0.2236328-0.5,0.5-0.5
						s0.5,0.2236328,0.5,0.5v1C18.9250469,12.1137695,18.7014141,12.3374023,18.4250469,12.3374023z"/>
				</g>
				<g>
					<path class="st1" d="M18.4250469,9.4101562c-0.2763672,0-0.5-0.2236328-0.5-0.5v-1.284668c0-0.2763672,0.2236328-0.5,0.5-0.5
						s0.5,0.2236328,0.5,0.5v1.284668C18.9250469,9.1865234,18.7014141,9.4101562,18.4250469,9.4101562z"/>
				</g>
				<g>
					<path class="st1" d="M18.4250469,6.1977539c-0.2763672,0-0.5-0.2236328-0.5-0.5v-1c0-0.2763672,0.2236328-0.5,0.5-0.5
						s0.5,0.2236328,0.5,0.5v1C18.9250469,5.9741211,18.7014141,6.1977539,18.4250469,6.1977539z"/>
				</g>
			</g>
		</g>
	</g>
	<g class="st2">
		<path class="st1" d="M26.4868221,27.0372696c-2.0078106,1.1420841-2.2255344,1.8387909-8.5000629,1.8387909
			c-3.0140181,0-5.8981791-0.5986633-7.6231594-1.8387909c0-4.9065857,0,0.4237137,0-4.482872
			c1.6377802,0.6836853,4.4516373,1.6151123,8.0474682,1.6175537c3.6106911,0.0024414,6.4355755-0.9328918,8.0757542-1.6175537
			C26.4868221,27.4609833,26.4868221,22.1306839,26.4868221,27.0372696z"/>
	</g>
	<g class="st2">
		<path class="st1" d="M26.4868221,17.8441467c-2.0078106,1.1420841-2.2255344,1.8387928-8.5000629,1.8387928
			c-3.0140181,0-5.8981791-0.5986633-7.6231594-1.8387928c0-4.9065847,0,0.4237137,0-4.4828711
			c1.6377802,0.6836853,4.4516373,1.6151123,8.0474682,1.6175537c3.6106911,0.0024414,6.4355755-0.9328918,8.0757542-1.6175537
			C26.4868221,18.2678604,26.4868221,12.937562,26.4868221,17.8441467z"/>
	</g>
</g>
</svg>
