<?xml version="1.0" encoding="utf-8"?>
<!-- Generator: Adobe Illustrator 28.2.0, SVG Export Plug-In . SVG Version: 6.00 Build 0)  -->
<svg version="1.1" id="图层_1" xmlns="http://www.w3.org/2000/svg" xmlns:xlink="http://www.w3.org/1999/xlink" x="0px" y="0px"
	 viewBox="0 0 30.1928329 29.7999992" style="enable-background:new 0 0 30.1928329 29.7999992;" xml:space="preserve">
<style type="text/css">
	.st0{fill:#2A8B92;}
</style>
<g>
	<path class="st0" d="M28.0966606,21.8003902h-4.5c-0.8818359,0-1.5996094,0.7177734-1.5996094,1.5996094v4.5
		c0,0.8818359,0.7177734,1.5996094,1.5996094,1.5996094h4.5c0.8818359,0,1.5996094-0.7177734,1.5996094-1.5996094v-4.5
		C29.69627,22.5181637,28.9784966,21.8003902,28.0966606,21.8003902z M28.4970512,27.8999996
		c0,0.2207031-0.1796875,0.4003906-0.4003906,0.4003906h-4.5c-0.2207031,0-0.4003906-0.1796875-0.4003906-0.4003906v-4.5
		c0-0.2207031,0.1796875-0.4003906,0.4003906-0.4003906h4.5c0.2207031,0,0.4003906,0.1796875,0.4003906,0.4003906V27.8999996z"/>
	<path class="st0" d="M22.7939262,17.046484c0.21875-0.2490234,0.1953125-0.6279297-0.0537109-0.8466797l-0.7954102-0.7001953
		h1.7700195c3.2910156,0,5.9716797-2.6767578,5.9746094-5.9667969c0.0029297-1.5976562-0.6181641-3.0996094-1.7460938-4.2294922
		c-1.1289062-1.1303711-2.6308594-1.7529297-4.2285156-1.7529297H8.1967583V1.9004879
		c0-0.8823242-0.7177734-1.6000977-1.6000977-1.6000977h-4.5c-0.8823241,0-1.6000975,0.7177734-1.6000975,1.6000977v4.5
		c0,0.8823242,0.7177734,1.6000977,1.6000975,1.6000977h4.5c0.8823242,0,1.6000977-0.7177734,1.6000977-1.6000977V4.7505856
		h15.5180664c1.2773438,0,2.4765625,0.4975586,3.3789062,1.4003906c0.9023438,0.9033203,1.3974609,2.1035156,1.3964844,3.3803711
		c-0.0029297,2.6293945-2.1455078,4.769043-4.7753906,4.769043h-1.7697754l0.795166-0.699707
		c0.2490234-0.21875,0.2724609-0.5981445,0.0537109-0.8466797c-0.21875-0.2490234-0.5966797-0.2724609-0.8466797-0.0537109
		l-1.6762695,1.4750977c-0.2070312,0.1826172-0.3261719,0.4462891-0.3266602,0.7226562
		c-0.0004883,0.2773438,0.1181641,0.5419922,0.3271484,0.7275391l1.6757812,1.4746094
		c0.1142578,0.1005859,0.2558594,0.1494141,0.3964844,0.1494141C22.5097466,17.249609,22.6757622,17.1812496,22.7939262,17.046484z
		 M6.996563,6.4004879c0,0.2207031-0.1791992,0.3999023-0.3999023,0.3999023h-4.5
		c-0.220703,0-0.3999022-0.1791992-0.3999022-0.3999023v-4.5c0-0.2207031,0.1791992-0.3999023,0.3999022-0.3999023h4.5
		c0.2207031,0,0.3999023,0.1791992,0.3999023,0.3999023V6.4004879z"/>
	<path class="st0" d="M18.9960747,23.4498043c-0.2485352-0.2197266-0.6274414-0.1962891-0.8466797,0.0537109
		c-0.2192383,0.2490234-0.1948242,0.6279297,0.0537109,0.8466797l0.795166,0.7001953H6.4784966
		c-1.2768555,0-2.4770508-0.4980469-3.3789062-1.4013672s-1.3979491-2.1025391-1.395996-3.3789062
		c0.0029297-2.6308594,2.1450195-4.7705078,4.7749023-4.7705078h4.7680664v1.6503906
		c0,0.8818359,0.7177734,1.5996094,1.6000977,1.5996094h4.5c0.8823242,0,1.6000977-0.7177734,1.6000977-1.5996094v-4.4995117
		c0-0.8823242-0.7177734-1.6000977-1.6000977-1.6000977h-4.5c-0.8823242,0-1.6000977,0.7177734-1.6000977,1.6000977v1.6499023
		H6.4784966c-3.2910156,0-5.9711914,2.6767578-5.9750977,5.9677734c-0.0019531,1.5966797,0.6181641,3.0986328,1.7470703,4.2285156
		c1.1289062,1.1308594,2.6303711,1.7529297,4.2280273,1.7529297h12.5197754l-0.795166,0.7001953
		c-0.2485352,0.21875-0.2729492,0.5976562-0.0537109,0.8466797c0.1186523,0.1347656,0.2841797,0.203125,0.4501953,0.203125
		c0.1411133,0,0.2822266-0.0488281,0.3964844-0.1494141l1.6767578-1.4755859
		c0.2080078-0.1835938,0.3261719-0.4482422,0.3261719-0.7265625c0-0.2763672-0.1201172-0.5400391-0.3271484-0.7226562
		L18.9960747,23.4498043z M12.4467583,12.6504879c0-0.2207031,0.1791992-0.3999023,0.3999023-0.3999023h4.5
		c0.2207031,0,0.3999023,0.1791992,0.3999023,0.3999023v4.4995117c0,0.2207031-0.1791992,0.4003906-0.3999023,0.4003906h-4.5
		c-0.2207031,0-0.3999023-0.1796875-0.3999023-0.4003906V12.6504879z"/>
</g>
</svg>
