<?xml version="1.0" encoding="utf-8"?>
<!-- Generator: Adobe Illustrator 28.2.0, SVG Export Plug-In . SVG Version: 6.00 Build 0)  -->
<svg version="1.1" id="图层_1" xmlns="http://www.w3.org/2000/svg" xmlns:xlink="http://www.w3.org/1999/xlink" x="0px" y="0px"
	 viewBox="0 0 42.0152397 29.7999992" style="enable-background:new 0 0 42.0152397 29.7999992;" xml:space="preserve">
<style type="text/css">
	.st0{fill:#075C5D;}
	.st1{fill:#2B858B;}
</style>
<g>
	<g>
		<g>
			<g>
				<path class="st0" d="M11.4552164,17.2668476l1.1671982-0.8710575c0.2488737,0.488102,0.6125383,0.708519,0.9569101,0.708519
					c0.555625,0,0.8527298-0.277813,0.8527298-1.2057838v-4.5752249h1.7131767v4.7088251
					c0,1.3977451-0.7369747,2.546133-2.3353615,2.546133C12.699585,18.5782585,11.9722557,18.1475525,11.4552164,17.2668476z"/>
			</g>
			<g>
				<path class="st0" d="M17.4156456,14.8456345c0-2.3353605,1.3205738-3.6564169,3.2633324-3.6564169
					s3.2642956,1.3307018,3.2642956,3.6564169c0,2.3353615-1.3215389,3.7326241-3.2642956,3.7326241
					S17.4156456,17.1809959,17.4156456,14.8456345z M22.2011585,14.8456345c0-1.3784513-0.5835991-2.1916313-1.5221806-2.1916313
					c-0.9376183,0-1.5115719,0.81318-1.5115719,2.1916313c0,1.3876152,0.5739536,2.2586746,1.5115719,2.2586746
					C21.6175594,17.1043091,22.2011585,16.2332497,22.2011585,14.8456345z"/>
			</g>
			<g>
				<path class="st0" d="M25.2599888,11.3233004h2.4887371c1.4739494,0,2.650795,0.3926029,2.650795,1.7609262
					c0,0.6318302-0.3540173,1.3210564-0.9279709,1.5409908v0.0385857c0.7176819,0.1914778,1.2636604,0.7273283,1.2636604,1.6745911
					c0,1.4551392-1.2347221,2.1057816-2.785841,2.1057816h-2.6893806V11.3233004z M27.6821671,14.1467628
					c0.7273293,0,1.0524082-0.3159151,1.0524082-0.8040161c0-0.5069113-0.3347263-0.7176828-1.0524082-0.7176828h-0.7089996
					v1.521699H27.6821671z M27.8249321,17.1327648c0.8237915,0,1.2443676-0.2966232,1.2443676-0.9091606
					c0-0.5835991-0.4109306-0.81318-1.2443676-0.81318h-0.8517647v1.7223406H27.8249321z"/>
			</g>
		</g>
	</g>
	<g>
		<path class="st1" d="M33.9465866,22.9734859h-1.2460938c-0.9130878,0-1.6552753,0.7421875-1.6552753,1.6542969v1.2460938
			c0,0.9121094,0.7421875,1.6542969,1.6552753,1.6542969H34.34655c-0.0447388,0.1292725-0.1109009,0.2497559-0.2163696,0.3408203
			l-0.6679688,0.5771484c-0.25,0.2167969-0.2783203,0.5957031-0.0615234,0.8466797
			c0.1191406,0.1367188,0.2861328,0.2070312,0.4541016,0.2070312c0.1396484,0,0.2792969-0.0478516,0.3925781-0.1455078
			l0.6679688-0.5771484c0.4355469-0.3769531,0.6855469-0.9248047,0.6855469-1.5009766v-0.8359375v-0.1552734v-1.6572266
			C35.6008835,23.7156734,34.858696,22.9734859,33.9465866,22.9734859z"/>
		<path class="st1" d="M39.858696,22.9734859h-1.2460938c-0.9121094,0-1.6542969,0.7421875-1.6542969,1.6542969v1.2460938
			c0,0.9121094,0.7421875,1.6542969,1.6542969,1.6542969h1.6469116c-0.0448608,0.1289673-0.1112061,0.2492065-0.2172241,0.3408203
			l-0.6669922,0.5771484c-0.2509766,0.2167969-0.2783203,0.5957031-0.0615234,0.8466797
			c0.1191406,0.1367188,0.2861328,0.2070312,0.4541016,0.2070312c0.1396484,0,0.2792969-0.0478516,0.3925781-0.1455078
			l0.6660156-0.5771484c0.4375-0.3769531,0.6875-0.9238281,0.6875-1.5009766v-0.8359375v-0.1552734v-1.6572266
			C41.5139694,23.7156734,40.7717819,22.9734859,39.858696,22.9734859z"/>
		<path class="st1" d="M7.767386,6.681982c0.1137695,0.0976562,0.2534184,0.1459961,0.3920903,0.1459961
			c0.168457,0,0.3359375-0.0703125,0.4545898-0.2075195C8.8303747,6.369482,8.803031,5.9905758,8.5525427,5.7737789
			L7.8845735,5.1966305C7.7790437,5.105444,7.7131257,4.9855099,7.66857,4.8567867h1.6456914
			c0.9130859,0,1.6557617-0.7426758,1.6557617-1.6557617V1.9554195c0-0.9125977-0.7426758-1.6552734-1.6557617-1.6552734H8.068656
			c-0.9125981,0-1.6552739,0.7426758-1.6552739,1.6552734v1.6572266v0.1552734V4.603857
			c0,0.5771484,0.2504883,1.1240234,0.6865234,1.5009766L7.767386,6.681982z"/>
		<path class="st1" d="M5.057425,1.9554195c0-0.9125977-0.7426758-1.6552734-1.6552734-1.6552734H2.1565461
			c-0.9125977,0-1.6552734,0.7426758-1.6552734,1.6552734v1.6572266v0.1552734V4.603857
			c0,0.5766602,0.25,1.1235352,0.6865234,1.5009766L1.8557649,6.681982
			c0.1132812,0.0976562,0.2529297,0.1459961,0.3916016,0.1459961c0.168457,0,0.3359375-0.0703125,0.4545898-0.2080078
			C2.9182649,6.369482,2.8909211,5.9905758,2.6399446,5.7737789L1.9724641,5.1971188
			C1.8669343,5.1059322,1.8008943,4.985754,1.7563996,4.8567867h1.645752c0.9125977,0,1.6552734-0.7426758,1.6552734-1.6557617
			V1.9554195z"/>
		<path class="st1" d="M36.9592819,5.829443c0-1.7431641-1.4179688-3.1611328-3.1611328-3.1611328H13.5720739
			c-0.331543,0-0.6000977,0.2685547-0.6000977,0.6000977s0.2685547,0.6000977,0.6000977,0.6000977h20.2260742
			c1.0820312,0,1.9619141,0.8793945,1.9619141,1.9609375v14.7446289c0,0.3310547,0.2685547,0.5996094,0.5996094,0.5996094
			s0.5996094-0.2685547,0.5996094-0.5996094V5.829443z"/>
		<path class="st1" d="M28.4431667,26.5037594H8.2166052c-1.0815434,0-1.9614263-0.8798828-1.9614263-1.9609375V9.7977047
			c0-0.331543-0.2685547-0.6000977-0.6000977-0.6000977S5.0549836,9.4661617,5.0549836,9.7977047v14.7451172
			c0,1.7431641,1.418457,3.1601562,3.1616216,3.1601562h20.2265625c0.331543,0,0.6000977-0.2685547,0.6000977-0.5996094
			S28.7747097,26.5037594,28.4431667,26.5037594z"/>
	</g>
</g>
</svg>
