<?xml version="1.0" encoding="utf-8"?>
<!-- Generator: Adobe Illustrator 28.2.0, SVG Export Plug-In . SVG Version: 6.00 Build 0)  -->
<svg version="1.1" id="图层_1" xmlns="http://www.w3.org/2000/svg" xmlns:xlink="http://www.w3.org/1999/xlink" x="0px" y="0px"
	 viewBox="0 0 51.3458977 29.7999992" style="enable-background:new 0 0 51.3458977 29.7999992;" xml:space="preserve">
<style type="text/css">
	.st0{fill:#2A8B92;}
</style>
<g>
	<path class="st0" d="M14.2369137,7.9998531h4.5c0.8818359,0,1.5996094-0.7177734,1.5996094-1.5996094V4.7503414h0.8730469
		c0.3310547,0,0.5996094-0.2685547,0.5996094-0.6000977s-0.2685547-0.6000977-0.5996094-0.6000977h-0.8730469V1.9002438
		c0-0.8823242-0.7177734-1.6000977-1.5996094-1.6000977h-4.5c-0.8818359,0-1.5996094,0.7177734-1.5996094,1.6000977v4.5
		C12.6373043,7.2820797,13.3550777,7.9998531,14.2369137,7.9998531z M13.8365231,1.9002438
		c0-0.2207031,0.1796875-0.3999023,0.4003906-0.3999023h4.5c0.2207031,0,0.4003906,0.1791992,0.4003906,0.3999023v4.5
		c0,0.2207031-0.1796875,0.4003906-0.4003906,0.4003906h-4.5c-0.2207031,0-0.4003906-0.1796875-0.4003906-0.4003906V1.9002438z"/>
	<path class="st0" d="M34.209568,4.7503414h1c0.3310547,0,0.5996094-0.2685547,0.5996094-0.6000977
		s-0.2685547-0.6000977-0.5996094-0.6000977h-1c-0.3310547,0-0.5996094,0.2685547-0.5996094,0.6000977
		S33.8785133,4.7503414,34.209568,4.7503414z"/>
	<path class="st0" d="M23.0093746,4.7503414h1c0.3310547,0,0.5996094-0.2685547,0.5996094-0.6000977
		s-0.2685547-0.6000977-0.5996094-0.6000977h-1c-0.3310547,0-0.5996094,0.2685547-0.5996094,0.6000977
		S22.6783199,4.7503414,23.0093746,4.7503414z"/>
	<path class="st0" d="M25.8091793,4.7503414h1c0.3310547,0,0.5996094-0.2685547,0.5996094-0.6000977
		s-0.2685547-0.6000977-0.5996094-0.6000977h-1c-0.3310547,0-0.5996094,0.2685547-0.5996094,0.6000977
		S25.4781246,4.7503414,25.8091793,4.7503414z"/>
	<path class="st0" d="M31.4097652,4.7503414h0.9999981c0.3310547,0,0.5996094-0.2685547,0.5996094-0.6000977
		s-0.2685547-0.6000977-0.5996094-0.6000977h-0.9999981c-0.3310547,0-0.5996094,0.2685547-0.5996094,0.6000977
		S31.0787106,4.7503414,31.4097652,4.7503414z"/>
	<path class="st0" d="M28.6099606,4.7503414h1c0.3310547,0,0.5996094-0.2685547,0.5996094-0.6000977
		s-0.2685547-0.6000977-0.5996094-0.6000977h-1c-0.3310547,0-0.5996094,0.2685547-0.5996094,0.6000977
		S28.2789059,4.7503414,28.6099606,4.7503414z"/>
	<path class="st0" d="M26.8091793,25.0506344h-1c-0.3310547,0-0.5996094,0.2685547-0.5996094,0.5996094
		s0.2685547,0.5996094,0.5996094,0.5996094h1c0.3310547,0,0.5996094-0.2685547,0.5996094-0.5996094
		S27.140234,25.0506344,26.8091793,25.0506344z"/>
	<path class="st0" d="M29.6099606,25.0506344h-1c-0.3310547,0-0.5996094,0.2685547-0.5996094,0.5996094
		s0.2685547,0.5996094,0.5996094,0.5996094h1c0.3310547,0,0.5996094-0.2685547,0.5996094-0.5996094
		S29.9410152,25.0506344,29.6099606,25.0506344z"/>
	<path class="st0" d="M35.209568,25.0506344h-1c-0.3310547,0-0.5996094,0.2685547-0.5996094,0.5996094
		s0.2685547,0.5996094,0.5996094,0.5996094h1c0.3310547,0,0.5996094-0.2685547,0.5996094-0.5996094
		S35.5406227,25.0506344,35.209568,25.0506344z"/>
	<path class="st0" d="M24.0093746,25.0506344h-1c-0.3310547,0-0.5996094,0.2685547-0.5996094,0.5996094
		s0.2685547,0.5996094,0.5996094,0.5996094h1c0.3310547,0,0.5996094-0.2685547,0.5996094-0.5996094
		S24.3404293,25.0506344,24.0093746,25.0506344z"/>
	<path class="st0" d="M21.2095699,25.0506344h-0.8730469v-1.6503906c0-0.8818359-0.7177734-1.5996094-1.5996094-1.5996094h-4.5
		c-0.8818359,0-1.5996094,0.7177734-1.5996094,1.5996094v4.5c0,0.8818359,0.7177734,1.5996094,1.5996094,1.5996094h4.5
		c0.8818359,0,1.5996094-0.7177734,1.5996094-1.5996094v-1.6503906h0.8730469c0.3310547,0,0.5996094-0.2685547,0.5996094-0.5996094
		S21.5406246,25.0506344,21.2095699,25.0506344z M19.1373043,27.9002438c0,0.2207031-0.1796875,0.4003906-0.4003906,0.4003906h-4.5
		c-0.2207031,0-0.4003906-0.1796875-0.4003906-0.4003906v-4.5c0-0.2207031,0.1796875-0.4003906,0.4003906-0.4003906h4.5
		c0.2207031,0,0.4003906,0.1796875,0.4003906,0.4003906V27.9002438z"/>
	<path class="st0" d="M32.4097633,25.0506344h-0.9999981c-0.3310547,0-0.5996094,0.2685547-0.5996094,0.5996094
		s0.2685547,0.5996094,0.5996094,0.5996094h0.9999981c0.3310547,0,0.5996094-0.2685547,0.5996094-0.5996094
		S32.740818,25.0506344,32.4097633,25.0506344z"/>
	<path class="st0" d="M36.7066383,1.9500484c-0.2490234-0.2192383-0.6279297-0.1948242-0.8466797,0.0537109
		c-0.21875,0.2490234-0.1953125,0.6279297,0.0537109,0.8466797l0.8544312,0.7521362
		c-0.2104492,0.0931396-0.3583374,0.3024292-0.3583374,0.5476685s0.1478882,0.4545288,0.3583374,0.5476685l-0.8544312,0.7521362
		c-0.2490234,0.21875-0.2724609,0.5976562-0.0537109,0.8466797c0.1181641,0.1347656,0.2841797,0.203125,0.4501953,0.203125
		c0.140625,0,0.2822266-0.0488281,0.3964844-0.1494141l1.6767578-1.4760742
		c0.2070312-0.1831055,0.3261719-0.4472656,0.3261719-0.7241211s-0.1191406-0.5410156-0.3271484-0.7250977L36.7066383,1.9500484z"/>
	<path class="st0" d="M32.8951149,14.3006344h-0.9999981c-0.3310547,0-0.5996094,0.2685547-0.5996094,0.5996094
		s0.2685547,0.5996094,0.5996094,0.5996094h0.9999981c0.3310547,0,0.5996094-0.2685547,0.5996094-0.5996094
		S33.2261696,14.3006344,32.8951149,14.3006344z"/>
	<path class="st0" d="M30.0953121,14.3006344h-0.5722656v-1.6503906c0-0.8818359-0.7177734-1.5996094-1.5996094-1.5996094h-4.5
		c-0.8818359,0-1.5996094,0.7177734-1.5996094,1.5996094v1.6503906h-0.1865234
		c-0.3310547,0-0.5996094,0.2685547-0.5996094,0.5996094s0.2685547,0.5996094,0.5996094,0.5996094h0.1865234v1.6503906
		c0,0.8818359,0.7177734,1.5996094,1.5996094,1.5996094h4.5c0.8818359,0,1.5996094-0.7177734,1.5996094-1.5996094v-1.6503906
		h0.5722656c0.3310547,0,0.5996094-0.2685547,0.5996094-0.5996094S30.4263668,14.3006344,30.0953121,14.3006344z
		 M28.3238277,17.1502438c0,0.2207031-0.1796875,0.4003906-0.4003906,0.4003906h-4.5
		c-0.2207031,0-0.4003906-0.1796875-0.4003906-0.4003906v-4.5c0-0.2207031,0.1796875-0.4003906,0.4003906-0.4003906h4.5
		c0.2207031,0,0.4003906,0.1796875,0.4003906,0.4003906V17.1502438z"/>
	<path class="st0" d="M34.0953102,14.9002438c0,0.3310547,0.2685547,0.5996094,0.5996094,0.5996094h1
		c0.3310547,0,0.5996094-0.2685547,0.5996094-0.5996094s-0.2685547-0.5996094-0.5996094-0.5996094h-1
		C34.3638649,14.3006344,34.0953102,14.5691891,34.0953102,14.9002438z"/>
	<path class="st0" d="M19.8365231,14.3006344h-1c-0.3310547,0-0.5996094,0.2685547-0.5996094,0.5996094
		s0.2685547,0.5996094,0.5996094,0.5996094h1c0.3310547,0,0.5996094-0.2685547,0.5996094-0.5996094
		S20.1675777,14.3006344,19.8365231,14.3006344z"/>
	<path class="st0" d="M16.0367184,14.3006344c-0.3310547,0-0.5996094,0.2685547-0.5996094,0.5996094
		s0.2685547,0.5996094,0.5996094,0.5996094h1c0.3310547,0,0.5996094-0.2685547,0.5996094-0.5996094
		s-0.2685547-0.5996094-0.5996094-0.5996094H16.0367184z"/>
	<path class="st0" d="M13.2369137,15.4998531h1c0.3310547,0,0.5996094-0.2685547,0.5996094-0.5996094
		s-0.2685547-0.5996094-0.5996094-0.5996094h-1c-0.3310547,0-0.5996094,0.2685547-0.5996094,0.5996094
		S12.905859,15.4998531,13.2369137,15.4998531z"/>
	<path class="st0" d="M36.7066383,12.7000484c-0.2490234-0.2197266-0.6279297-0.1953125-0.8466797,0.0537109
		s-0.1953125,0.6279297,0.0537109,0.8466797l1.09729,0.9659424c-0.0668335,0.0967407-0.1148682,0.2074585-0.1148682,0.3338623
		s0.0480347,0.2371216,0.1148682,0.3338623l-1.09729,0.9659424c-0.2490234,0.21875-0.2724609,0.5976562-0.0537109,0.8466797
		c0.1181641,0.1347656,0.2841797,0.203125,0.4501953,0.203125c0.140625,0,0.2822266-0.0488281,0.3964844-0.1494141
		l1.6757812-1.4755859c0.2080078-0.1826172,0.3271484-0.4462891,0.3271484-0.7226562
		c0.0009766-0.2773438-0.1181641-0.5419922-0.3271484-0.7275391L36.7066383,12.7000484z"/>
	<path class="st0" d="M36.7066383,23.4500484c-0.2490234-0.21875-0.6279297-0.1953125-0.8466797,0.0537109
		s-0.1953125,0.6279297,0.0537109,0.8466797l0.8547363,0.7524414c-0.2106323,0.0930176-0.3586426,0.3023682-0.3586426,0.5473633
		s0.1480103,0.4543457,0.3586426,0.5473633l-0.8547363,0.7524414c-0.2490234,0.21875-0.2724609,0.5976562-0.0537109,0.8466797
		c0.1181641,0.1347656,0.2841797,0.203125,0.4501953,0.203125c0.140625,0,0.2822266-0.0488281,0.3964844-0.1494141
		l1.6757812-1.4755859c0.2080078-0.1826172,0.3271484-0.4462891,0.3271484-0.7226562
		c0.0009766-0.2773438-0.1181641-0.5419922-0.3271484-0.7275391L36.7066383,23.4500484z"/>
	<path class="st0" d="M44.0679665,22.5193844h-2.0888672c-0.6621094,0-1.2001953,0.5380859-1.2001953,1.2001953v2.0888672
		c0,0.6611328,0.5380859,1.1992188,1.2001953,1.1992188h2.0888672v0.3007812c0,0.2197266-0.0957031,0.4287109-0.2617188,0.5722656
		l-0.6542969,0.5654297c-0.25,0.2167969-0.2783203,0.5957031-0.0615234,0.8466797
		c0.1191406,0.1367188,0.2861328,0.2070312,0.4541016,0.2070312c0.1396484,0,0.2792969-0.0478516,0.3925781-0.1455078
		l0.6542969-0.5654297c0.4296875-0.3720703,0.6757812-0.9121094,0.6757812-1.4804688v-1.5v-0.03125v-2.0576172
		C45.2671852,23.0574703,44.7290993,22.5193844,44.0679665,22.5193844z"/>
	<path class="st0" d="M49.8619118,22.5193844h-2.0888672c-0.6621094,0-1.2001953,0.5380859-1.2001953,1.2001953v2.0888672
		c0,0.6611328,0.5380859,1.1992188,1.2001953,1.1992188h2.0888672v0.3007812c0,0.2197266-0.0957031,0.4287109-0.2617188,0.5722656
		l-0.6542969,0.5654297c-0.25,0.2167969-0.2783203,0.5957031-0.0615234,0.8466797
		c0.1191406,0.1367188,0.2861328,0.2070312,0.4541016,0.2070312c0.1396484,0,0.2792969-0.0478516,0.3925781-0.1455078
		l0.6542969-0.5654297c0.4296875-0.3720703,0.6757812-0.9121094,0.6757812-1.4804688v-1.5v-0.03125v-2.0576172
		C51.0611305,23.0574703,50.5230446,22.5193844,49.8619118,22.5193844z"/>
	<path class="st0" d="M9.3677731,0.3001461H7.2789059c-0.6611328,0-1.1992188,0.5385742-1.1992188,1.2001953v2.0581055v0.0307617
		v1.5004883c0,0.5688477,0.2460938,1.1083984,0.6757812,1.4794922l0.6542969,0.5664062
		c0.1132812,0.0976562,0.2529297,0.1455078,0.3925781,0.1455078c0.1679688,0,0.3349609-0.0703125,0.4541016-0.2070312
		c0.2167969-0.2509766,0.1894531-0.6298828-0.0615234-0.8461914L7.5406246,5.6614742
		C7.374609,5.5184078,7.2789059,5.3099117,7.2789059,5.0896969v-0.300293h2.0888672
		c0.6621094,0,1.2001953-0.5385742,1.2001953-1.2001953V1.5003414C10.5679684,0.8387203,10.0298824,0.3001461,9.3677731,0.3001461z
		 M9.3677731,4.1891842L9.3677731,4.1891842v0.0001221V4.1891842z"/>
	<path class="st0" d="M3.5738277,0.3001461H1.4849604c-0.661621,0-1.2001953,0.5385742-1.2001953,1.2001953v2.0581055v0.0307617
		v1.5004883c0,0.5688477,0.2470703,1.1083984,0.6767578,1.4794922l0.6542968,0.5664062
		c0.1132812,0.0976562,0.253418,0.1455078,0.39209,0.1455078c0.168457,0,0.3354492-0.0703125,0.4541016-0.2070312
		c0.2167969-0.2509766,0.1894531-0.6298828-0.0610352-0.8461914L1.7461909,5.6614742
		C1.5801753,5.5179195,1.4849604,5.3094234,1.4849604,5.0896969v-0.300293h2.0888672
		c0.6611328,0,1.1992188-0.5385742,1.1992188-1.2001953V1.5003414C4.7730465,0.8387203,4.2349606,0.3001461,3.5738277,0.3001461z
		 M3.5738277,4.1891842L3.5738277,4.1891842v0.0001221V4.1891842z"/>
</g>
</svg>
