<?xml version="1.0" encoding="utf-8"?>
<!-- Generator: Adobe Illustrator 25.4.1, SVG Export Plug-In . SVG Version: 6.00 Build 0)  -->
<svg version="1.1" id="图层_1" xmlns="http://www.w3.org/2000/svg" xmlns:xlink="http://www.w3.org/1999/xlink" x="0px" y="0px"
	 viewBox="0 0 40.9889755 29.7637787" style="enable-background:new 0 0 40.9889755 29.7637787;" xml:space="preserve">
<style type="text/css">
	.st0{fill:#2B858B;}
</style>
<g>
	<g>
		<g>
			<g>
				<g>
					<path class="st0" d="M32.4659271,26.5329285h1.0620422c0.4696579,0,0.8503952-0.3807354,0.8503952-0.8503952v-1.0620403
						c0-0.7827663-0.6345596-1.4173241-1.4173241-1.4173241h-0.4951134c-0.7827644,0-1.4173222,0.6345577-1.4173222,1.4173241
						v0.4951115C31.048605,25.8983707,31.6831627,26.5329285,32.4659271,26.5329285z"/>
					<path class="st0" d="M33.5276909,27.1323776h-1.0615234c-1.1123047,0-2.0175781-0.9042969-2.0175781-2.0166016v-0.4951172
						c0-1.1123047,0.9052734-2.0175781,2.0175781-2.0175781h0.4951172c1.1123047,0,2.0166016,0.9052734,2.0166016,2.0175781
						v1.0615234C34.9778862,26.481987,34.3274956,27.1323776,33.5276909,27.1323776z M32.4661674,23.8022995
						c-0.4511719,0-0.8183594,0.3671875-0.8183594,0.8183594v0.4951172c0,0.4501953,0.3671875,0.8173828,0.8183594,0.8173828
						h1.0615234c0.1376953,0,0.2509766-0.1132812,0.2509766-0.2509766v-1.0615234
						c0-0.4511719-0.3671875-0.8183594-0.8173828-0.8183594H32.4661674z"/>
				</g>
				<g>
					<path class="st0" d="M33.2405815,29.6548386c-0.1679688,0-0.3359375-0.0703125-0.4541016-0.2080078
						c-0.2167969-0.25-0.1884766-0.6289062,0.0625-0.8457031l0.6630859-0.5722656
						c0.1689453-0.1464844,0.2666016-0.359375,0.2666016-0.5839844v-1.5507812c0-0.3310547,0.2685547-0.5996094,0.5996094-0.5996094
						s0.5996094,0.2685547,0.5996094,0.5996094v1.5507812c0,0.5732422-0.2480469,1.1171875-0.6816406,1.4921875
						l-0.6640625,0.5722656C33.5189018,29.606987,33.3792534,29.6548386,33.2405815,29.6548386z"/>
				</g>
			</g>
			<g>
				<g>
					<path class="st0" d="M38.331665,26.5329285h1.0620422c0.4696579,0,0.8503952-0.3807354,0.8503952-0.8503952v-1.0620403
						c0-0.7827663-0.6345596-1.4173241-1.4173241-1.4173241H38.331665c-0.7827644,0-1.4173241,0.6345577-1.4173241,1.4173241
						v0.4951115C36.914341,25.8983707,37.5489006,26.5329285,38.331665,26.5329285z"/>
					<path class="st0" d="M39.3939018,27.1323776h-1.0625c-1.1123047,0-2.0166016-0.9042969-2.0166016-2.0166016v-0.4951172
						c0-1.1123047,0.9042969-2.0175781,2.0166016-2.0175781h0.4951172c1.1123047,0,2.0175781,0.9052734,2.0175781,2.0175781
						v1.0615234C40.8440971,26.481987,40.1937065,27.1323776,39.3939018,27.1323776z M38.3314018,23.8022995
						c-0.4501953,0-0.8173828,0.3671875-0.8173828,0.8183594v0.4951172c0,0.4501953,0.3671875,0.8173828,0.8173828,0.8173828h1.0625
						c0.1376953,0,0.2509766-0.1132812,0.2509766-0.2509766v-1.0615234c0-0.4511719-0.3671875-0.8183594-0.8183594-0.8183594
						H38.3314018z"/>
				</g>
				<g>
					<path class="st0" d="M39.1067924,29.6548386c-0.1679688,0-0.3349609-0.0703125-0.4541016-0.2070312
						c-0.2167969-0.2509766-0.1884766-0.6298828,0.0615234-0.8466797l0.6621094-0.5722656
						c0.1708984-0.1474609,0.2685547-0.3603516,0.2685547-0.5839844v-1.5507812
						c0-0.3310547,0.2685547-0.5996094,0.5996094-0.5996094s0.5996094,0.2685547,0.5996094,0.5996094v1.5507812
						c0,0.5732422-0.2490234,1.1171875-0.6826172,1.4921875l-0.6621094,0.5722656
						C39.3860893,29.606987,39.2464409,29.6548386,39.1067924,29.6548386z"/>
				</g>
			</g>
		</g>
		<g>
			<g>
				<g>
					<path class="st0" d="M8.5231714,4.0389614H7.4611301c-0.4696593,0-0.8503938-0.3807342-0.8503938-0.8503938V2.1265264
						c0-0.7827657,0.6345572-1.4173229,1.4173226-1.4173229h0.4951124c0.7827663,0,1.4173231,0.6345571,1.4173231,1.4173229
						v0.4951122C9.9404945,3.4044044,9.3059378,4.0389614,8.5231714,4.0389614z"/>
					<path class="st0" d="M8.5232964,4.639214H7.4612851c-0.7998047,0-1.4506836-0.6508789-1.4506836-1.4506836V2.1265187
						c0-1.1123047,0.9052734-2.0175781,2.0175776-2.0175781h0.4951172c1.1123047,0,2.0170898,0.9052735,2.0170898,2.0175781
						v0.4951172C10.5403862,3.7339406,9.635601,4.639214,8.5232964,4.639214z M8.0281792,1.3091359
						c-0.4506831,0-0.8173823,0.3666992-0.8173823,0.8173828v1.0620117c0,0.1381836,0.1123047,0.2504883,0.2504883,0.2504883
						h1.0620112c0.4506836,0,0.8168945-0.3666992,0.8168945-0.8173828V2.1265187
						c0-0.4506836-0.3662109-0.8173828-0.8168945-0.8173828H8.0281792z"/>
				</g>
				<g>
					<path class="st0" d="M7.7474179,7.161675c-0.1386719,0-0.2783203-0.0483398-0.3920898-0.1459961L6.6932187,6.4434133
						c-0.4335938-0.375-0.6826172-0.9189453-0.6826172-1.4926758v-1.550293c0-0.331543,0.2685547-0.6000977,0.6000977-0.6000977
						s0.6000977,0.2685547,0.6000977,0.6000977v1.550293c0,0.2246094,0.097168,0.4379883,0.2670898,0.5844727l0.6625972,0.5722656
						c0.2504883,0.2167969,0.277832,0.5957031,0.0615234,0.8466797C8.0833549,7.0913625,7.915875,7.161675,7.7474179,7.161675z"/>
				</g>
			</g>
			<g>
				<g>
					<path class="st0" d="M2.657434,4.0389614H1.5953925c-0.4696594,0-0.8503937-0.3807342-0.8503937-0.8503938V2.1265264
						c0-0.7827657,0.634557-1.4173229,1.4173228-1.4173229H2.657434c0.7827656,0,1.4173226,0.6345571,1.4173226,1.4173229v0.4951122
						C4.0747566,3.4044044,3.4401996,4.0389614,2.657434,4.0389614z"/>
					<path class="st0" d="M2.6575742,4.639214H1.5955625c-0.7998047,0-1.4506836-0.6508789-1.4506836-1.4506836V2.1265187
						c0-1.1123047,0.9052735-2.0175781,2.0175781-2.0175781h0.4951172c1.1123047,0,2.0170898,0.9052735,2.0170898,2.0175781
						v0.4951172C4.674664,3.7339406,3.7698789,4.639214,2.6575742,4.639214z M2.162457,1.3091359
						c-0.4506836,0-0.8173828,0.3666992-0.8173828,0.8173828v1.0620117c0,0.1381836,0.1123047,0.2504883,0.2504883,0.2504883
						h1.0620117c0.4506836,0,0.8168945-0.3666992,0.8168945-0.8173828V2.1265187
						c0-0.4506836-0.3662109-0.8173828-0.8168945-0.8173828H2.162457z"/>
				</g>
				<g>
					<path class="st0" d="M1.8816953,7.161675c-0.1386719,0-0.2783203-0.0483398-0.3920898-0.1459961L0.827496,6.4434133
						c-0.4335938-0.375-0.6826172-0.9189453-0.6826172-1.4926758v-1.550293c0-0.331543,0.2685547-0.6000977,0.6000977-0.6000977
						s0.6000977,0.2685547,0.6000977,0.6000977v1.550293c0,0.2246094,0.097168,0.4379883,0.2670898,0.5844727l0.6625977,0.5722656
						C2.52525,6.3242726,2.5525937,6.7031789,2.3362851,6.9541554C2.2176328,7.0913625,2.0501523,7.161675,1.8816953,7.161675z"/>
				</g>
			</g>
		</g>
	</g>
	<g>
		<g>
			<g>
				
					<rect x="25.7327633" y="3.4369702" transform="matrix(-1.836970e-16 1 -1 -1.836970e-16 34.4637794 -22.2957916)" class="st0" width="5.2940478" height="5.2940478"/>
				<path class="st0" d="M31.0267143,9.3311081H25.732769c-0.3310547,0-0.5996094-0.2685547-0.5996094-0.6000977V3.4370656
					c0-0.331543,0.2685547-0.6000977,0.5996094-0.6000977h5.2939453c0.3310547,0,0.5996094,0.2685547,0.5996094,0.6000977v5.2939448
					C31.6263237,9.0625534,31.357769,9.3311081,31.0267143,9.3311081z M26.3323784,8.1309128h4.0947266V4.0371633h-4.0947266
					V8.1309128z"/>
			</g>
			<g>
				
					<rect x="9.9622889" y="21.0338459" transform="matrix(-1.836970e-16 1 -1 -1.836970e-16 36.2901802 11.071557)" class="st0" width="5.2940478" height="5.2940478"/>
				<path class="st0" d="M15.2562065,26.9272995H9.9622612c-0.331543,0-0.6000977-0.2685547-0.6000977-0.5996094v-5.2939453
					c0-0.3310547,0.2685547-0.5996094,0.6000977-0.5996094h5.2939453c0.331543,0,0.6000977,0.2685547,0.6000977,0.5996094v5.2939453
					C15.8563042,26.6587448,15.5877495,26.9272995,15.2562065,26.9272995z M10.5623589,25.7280807h4.09375v-4.0947266h-4.09375
					V25.7280807z"/>
			</g>
		</g>
		<g>
			
				<rect x="17.8475266" y="12.2354078" transform="matrix(-1.836970e-16 1 -1 -1.836970e-16 35.3769798 -5.6121178)" class="st0" width="5.2940478" height="5.2940478"/>
			<path class="st0" d="M23.1419487,18.1294479h-5.2944336c-0.331543,0-0.6000977-0.2685547-0.6000977-0.5996094V12.235405
				c0-0.331543,0.2685547-0.6000977,0.6000977-0.6000977h5.2944336c0.3310547,0,0.5996094,0.2685547,0.5996094,0.6000977v5.2944336
				C23.7415581,17.8608932,23.4730034,18.1294479,23.1419487,18.1294479z M18.4476128,16.9302292h4.0947266v-4.0947266h-4.0947266
				V16.9302292z"/>
		</g>
		<g>
			<g>
				<path class="st0" d="M24.4290581,26.7036667c-2.7216797,0-4.9355469-2.2148438-4.9355469-4.9365234v-4.9902344
					c0-0.5527344,0.4477539-1,1-1s1,0.4472656,1,1v4.9902344c0,1.6191406,1.3164062,2.9365234,2.9355469,2.9365234
					s2.9365234-1.3173828,2.9365234-2.9365234V6.1196828c0-0.5522461,0.4472656-1,1-1s1,0.4477539,1,1v15.6474609
					C29.3655815,24.4888229,27.1507378,26.7036667,24.4290581,26.7036667z"/>
			</g>
			<g>
				<path class="st0" d="M12.6277885,24.6450729c-0.5522461,0-1-0.4472656-1-1V7.9976125
					c0-2.7216797,2.2143555-4.9360352,4.9360352-4.9360352s4.9365234,2.2143555,4.9365234,4.9360352v4.9907222
					c0,0.5522461-0.4482422,1-1.0004883,1s-1-0.4477539-1-1V7.9976125c0-1.6191406-1.3168945-2.9360352-2.9360352-2.9360352
					s-2.9360352,1.3168945-2.9360352,2.9360352v15.6474609C13.6277885,24.1978073,13.1800346,24.6450729,12.6277885,24.6450729z"/>
			</g>
		</g>
	</g>
</g>
</svg>
