<?xml version="1.0" encoding="utf-8"?>
<!-- Generator: Adobe Illustrator 25.4.1, SVG Export Plug-In . SVG Version: 6.00 Build 0)  -->
<svg version="1.1" id="图层_1" xmlns="http://www.w3.org/2000/svg" xmlns:xlink="http://www.w3.org/1999/xlink" x="0px" y="0px"
	 viewBox="0 0 27.6094494 29.7637787" style="enable-background:new 0 0 27.6094494 29.7637787;" xml:space="preserve">
<style type="text/css">
	.st0{fill:#2B858B;}
</style>
<g>
	<g>
		<g>
			
				<rect x="20.2918968" y="0.7092035" transform="matrix(-1.836970e-16 1 -1 -1.836970e-16 27.5568657 -19.5826931)" class="st0" width="6.5557647" height="6.5557647"/>
			<path class="st0" d="M26.8472042,7.8652883h-6.5556641c-0.3310547,0-0.5996094-0.2685547-0.5996094-0.6000977V0.7090382
				c0-0.331543,0.2685547-0.6000977,0.5996094-0.6000977h6.5556641c0.3310547,0,0.5996094,0.2685547,0.5996094,0.6000977v6.5561523
				C27.4468136,7.5967336,27.1782589,7.8652883,26.8472042,7.8652883z M20.8911495,6.6650929h5.3564453v-5.355957h-5.3564453
				V6.6650929z"/>
		</g>
		<g>
			
				<rect x="0.7628871" y="22.4998951" transform="matrix(-1.836970e-16 1 -1 -1.836970e-16 29.8185482 21.737009)" class="st0" width="6.5557647" height="6.5557647"/>
			<path class="st0" d="M7.3188844,29.6548386H0.7627322c-0.331543,0-0.6000977-0.2685547-0.6000977-0.5996094v-6.5556641
				c0-0.3310547,0.2685547-0.5996094,0.6000977-0.5996094h6.5561523c0.331543,0,0.6000977,0.2685547,0.6000977,0.5996094v6.5556641
				C7.918982,29.3862839,7.6504273,29.6548386,7.3188844,29.6548386z M1.3628299,28.4556198h5.355957v-5.3564453h-5.355957
				V28.4556198z"/>
		</g>
	</g>
	<g>
		
			<rect x="10.5273924" y="11.6045494" transform="matrix(-1.836970e-16 1 -1 -1.836970e-16 28.687706 1.0771576)" class="st0" width="6.5557647" height="6.5557647"/>
		<path class="st0" d="M17.0835323,18.7603073h-6.5561514c-0.331543,0-0.6000977-0.2685547-0.6000977-0.5996094v-6.5561523
			c0-0.331543,0.2685547-0.6000977,0.6000977-0.6000977h6.5561514c0.3310547,0,0.5996094,0.2685547,0.5996094,0.6000977v6.5561523
			C17.6831417,18.4917526,17.414587,18.7603073,17.0835323,18.7603073z M11.1274786,17.5610886h5.3564444v-5.3564453h-5.3564444
			V17.5610886z"/>
	</g>
	<g>
		<g>
			<path class="st0" d="M18.6782589,29.2827682c-3.2392569,0-5.8745108-2.6357422-5.8745108-5.875v-6.1796875
				c0-0.5527344,0.4477539-1,1-1s1.0004883,0.4472656,1.0004883,1v6.1796875c0,2.1367188,1.7373037,3.875,3.8740225,3.875
				c2.1357422,0,3.8740234-1.7382812,3.8740234-3.875V4.0317922c0-0.5522461,0.4472656-1,1-1s1,0.4477539,1,1v19.3759766
				C24.5522823,26.6470261,21.9175167,29.2827682,18.6782589,29.2827682z"/>
		</g>
		<g>
			<path class="st0" d="M4.0635133,26.7329636c-0.5522459,0-0.9999998-0.4472656-0.9999998-1V6.3564992
				c0-3.2387695,2.6352537-5.8740234,5.8740234-5.8740234s5.8735352,2.6352539,5.8735352,5.8740234v6.1801753
				c0,0.5522461-0.4472656,1-0.9995117,1s-1-0.4477539-1-1V6.3564992c0-2.1362305-1.737793-3.8740234-3.8740234-3.8740234
				s-3.8740239,1.737793-3.8740239,3.8740234v19.3764648C5.0635133,26.2856979,4.6157594,26.7329636,4.0635133,26.7329636z"/>
		</g>
	</g>
</g>
</svg>
