<?xml version="1.0" encoding="utf-8"?>
<!-- Generator: Adobe Illustrator 28.2.0, SVG Export Plug-In . SVG Version: 6.00 Build 0)  -->
<svg version="1.1" id="图层_1" xmlns="http://www.w3.org/2000/svg" xmlns:xlink="http://www.w3.org/1999/xlink" x="0px" y="0px"
	 viewBox="0 0 26.9831619 29.7999992" style="enable-background:new 0 0 26.9831619 29.7999992;" xml:space="preserve">
<style type="text/css">
	.st0{fill:#2A8B92;}
</style>
<g>
	<path class="st0" d="M2.0552988,8.0003414h4.5c0.8823242,0,1.6000977-0.7177734,1.6000977-1.6000977V4.7503414h0.8725586
		c0.331543,0,0.6000977-0.2685547,0.6000977-0.6000977S9.359498,3.5501461,9.0279551,3.5501461H8.1553965V1.9002438
		c0-0.8823242-0.7177734-1.6000977-1.6000977-1.6000977h-4.5c-0.8823241,0-1.6000977,0.7177734-1.6000977,1.6000977v4.5
		C0.4552012,7.282568,1.1729747,8.0003414,2.0552988,8.0003414z M1.6553966,1.9002438
		c0-0.2207031,0.1791992-0.3999023,0.3999022-0.3999023h4.5c0.2207031,0,0.3999023,0.1791992,0.3999023,0.3999023v4.5
		c0,0.2207031-0.1791992,0.3999023-0.3999023,0.3999023h-4.5c-0.220703,0-0.3999022-0.1791992-0.3999022-0.3999023V1.9002438z"/>
	<path class="st0" d="M13.6275644,4.7503414h1c0.3310547,0,0.5996094-0.2685547,0.5996094-0.6000977
		s-0.2685547-0.6000977-0.5996094-0.6000977h-1c-0.3310547,0-0.5996094,0.2685547-0.5996094,0.6000977
		S13.2965097,4.7503414,13.6275644,4.7503414z"/>
	<path class="st0" d="M10.8277597,4.7503414h1c0.331543,0,0.6000977-0.2685547,0.6000977-0.6000977
		s-0.2685547-0.6000977-0.6000977-0.6000977h-1c-0.331543,0-0.6000977,0.2685547-0.6000977,0.6000977
		S10.4962168,4.7503414,10.8277597,4.7503414z"/>
	<path class="st0" d="M22.027956,4.7503414h1c0.3310547,0,0.5996094-0.2685547,0.5996094-0.6000977
		s-0.2685547-0.6000977-0.5996094-0.6000977h-1c-0.3310547,0-0.5996094,0.2685547-0.5996094,0.6000977
		S21.6969013,4.7503414,22.027956,4.7503414z"/>
	<path class="st0" d="M16.4283466,4.7503414h1c0.3310547,0,0.5996094-0.2685547,0.5996094-0.6000977
		s-0.2685547-0.6000977-0.5996094-0.6000977h-1c-0.3310547,0-0.5996103,0.2685547-0.5996103,0.6000977
		S16.0972919,4.7503414,16.4283466,4.7503414z"/>
	<path class="st0" d="M19.2281513,4.7503414h1c0.3310547,0,0.5996094-0.2685547,0.5996094-0.6000977
		s-0.2685547-0.6000977-0.5996094-0.6000977h-1c-0.3310547,0-0.5996094,0.2685547-0.5996094,0.6000977
		S18.8970966,4.7503414,19.2281513,4.7503414z"/>
	<path class="st0" d="M23.027956,25.0506344h-1c-0.3310547,0-0.5996094,0.2685547-0.5996094,0.5996094
		s0.2685547,0.5996094,0.5996094,0.5996094h1c0.3310547,0,0.5996094-0.2685547,0.5996094-0.5996094
		S23.3590107,25.0506344,23.027956,25.0506344z"/>
	<path class="st0" d="M11.8277597,25.0506344h-1c-0.331543,0-0.6000977,0.2685547-0.6000977,0.5996094
		s0.2685547,0.5996094,0.6000977,0.5996094h1c0.331543,0,0.6000977-0.2685547,0.6000977-0.5996094
		S12.1593027,25.0506344,11.8277597,25.0506344z"/>
	<path class="st0" d="M14.6275644,25.0506344h-1c-0.3310547,0-0.5996094,0.2685547-0.5996094,0.5996094
		s0.2685547,0.5996094,0.5996094,0.5996094h1c0.3310547,0,0.5996094-0.2685547,0.5996094-0.5996094
		S14.9586191,25.0506344,14.6275644,25.0506344z"/>
	<path class="st0" d="M9.0279551,25.0506344H8.1553965v-1.6503906c0-0.8818359-0.7177734-1.5996094-1.6000977-1.5996094h-4.5
		c-0.8823241,0-1.6000977,0.7177734-1.6000977,1.5996094v4.5c0,0.8818359,0.7177735,1.5996094,1.6000977,1.5996094h4.5
		c0.8823242,0,1.6000977-0.7177734,1.6000977-1.5996094v-1.6503906h0.8725586c0.331543,0,0.6000977-0.2685547,0.6000977-0.5996094
		S9.359498,25.0506344,9.0279551,25.0506344z M6.9552011,27.9002438c0,0.2207031-0.1791992,0.4003906-0.3999023,0.4003906h-4.5
		c-0.220703,0-0.3999022-0.1796875-0.3999022-0.4003906v-4.5c0-0.2207031,0.1791992-0.4003906,0.3999022-0.4003906h4.5
		c0.2207031,0,0.3999023,0.1796875,0.3999023,0.4003906V27.9002438z"/>
	<path class="st0" d="M20.2281513,25.0506344h-1c-0.3310547,0-0.5996094,0.2685547-0.5996094,0.5996094
		s0.2685547,0.5996094,0.5996094,0.5996094h1c0.3310547,0,0.5996094-0.2685547,0.5996094-0.5996094
		S20.559206,25.0506344,20.2281513,25.0506344z"/>
	<path class="st0" d="M17.4283466,25.0506344h-1c-0.3310547,0-0.5996103,0.2685547-0.5996103,0.5996094
		s0.2685556,0.5996094,0.5996103,0.5996094h1c0.3310547,0,0.5996094-0.2685547,0.5996094-0.5996094
		S17.7594013,25.0506344,17.4283466,25.0506344z"/>
	<path class="st0" d="M24.5864887,3.6025753c-0.2104492,0.0931396-0.3583374,0.3024292-0.3583374,0.5476685
		c0,0.2451782,0.1478271,0.4544067,0.3582153,0.5475464l-0.8543091,0.75177
		c-0.2490234,0.2192383-0.2724609,0.5981445-0.0537109,0.847168c0.1181641,0.1347656,0.2841797,0.2036133,0.4501953,0.2036133
		c0.140625,0,0.2822266-0.0493164,0.3964844-0.1494141l1.6767578-1.4760742
		c0.2070312-0.1831055,0.3261719-0.4472656,0.3261719-0.7246094c0-0.2768555-0.1191406-0.5410156-0.3271484-0.7250977
		l-1.6757812-1.4750977c-0.2490234-0.2192383-0.6279297-0.1948242-0.8466797,0.0537109
		c-0.21875,0.2490234-0.1953125,0.6279297,0.0537109,0.8466797L24.5864887,3.6025753z"/>
	<path class="st0" d="M20.7135029,14.3006344h-1c-0.3310547,0-0.5996094,0.2685547-0.5996094,0.5996094
		s0.2685547,0.5996094,0.5996094,0.5996094h1c0.3310547,0,0.5996094-0.2685547,0.5996094-0.5996094
		S21.0445576,14.3006344,20.7135029,14.3006344z"/>
	<path class="st0" d="M17.9136982,14.3006344h-0.5722656v-1.6503906c0-0.8818359-0.7177734-1.5996094-1.5996103-1.5996094h-4.5
		c-0.8823242,0-1.6000977,0.7177734-1.6000977,1.5996094v1.6503906H9.4552011c-0.331543,0-0.6000977,0.2685547-0.6000977,0.5996094
		s0.2685547,0.5996094,0.6000977,0.5996094h0.1865234v1.6503906c0,0.8818359,0.7177734,1.5996094,1.6000977,1.5996094h4.5
		c0.8818369,0,1.5996103-0.7177734,1.5996103-1.5996094v-1.6503906h0.5722656c0.3310547,0,0.5996094-0.2685547,0.5996094-0.5996094
		S18.2447529,14.3006344,17.9136982,14.3006344z M16.1422138,17.1502438c0,0.2207031-0.1796885,0.4003906-0.4003916,0.4003906h-4.5
		c-0.2207031,0-0.3999023-0.1796875-0.3999023-0.4003906v-4.5c0-0.2207031,0.1791992-0.4003906,0.3999023-0.4003906h4.5
		c0.2207031,0,0.4003916,0.1796875,0.4003916,0.4003906V17.1502438z"/>
	<path class="st0" d="M21.9136982,14.9002438c0,0.3310547,0.2685547,0.5996094,0.5996094,0.5996094h1
		c0.3310547,0,0.5996094-0.2685547,0.5996094-0.5996094s-0.2685547-0.5996094-0.5996094-0.5996094h-1
		C22.1822529,14.3006344,21.9136982,14.5691891,21.9136982,14.9002438z"/>
	<path class="st0" d="M1.0552989,15.4998531h0.9999999c0.331543,0,0.6000977-0.2685547,0.6000977-0.5996094
		s-0.2685547-0.5996094-0.6000977-0.5996094H1.0552989c-0.331543,0-0.6000977,0.2685547-0.6000977,0.5996094
		S0.7237559,15.4998531,1.0552989,15.4998531z"/>
	<path class="st0" d="M3.8551035,14.3006344c-0.331543,0-0.6000977,0.2685547-0.6000977,0.5996094
		s0.2685547,0.5996094,0.6000977,0.5996094h1c0.331543,0,0.6000977-0.2685547,0.6000977-0.5996094
		s-0.2685547-0.5996094-0.6000977-0.5996094H3.8551035z"/>
	<path class="st0" d="M7.6553965,14.3006344h-1c-0.331543,0-0.6000977,0.2685547-0.6000977,0.5996094
		s0.2685547,0.5996094,0.6000977,0.5996094h1c0.331543,0,0.6000977-0.2685547,0.6000977-0.5996094
		S7.9869394,14.3006344,7.6553965,14.3006344z"/>
	<path class="st0" d="M24.5250263,12.7000484c-0.2490234-0.2197266-0.6279297-0.1943359-0.8466797,0.0537109
		c-0.21875,0.2490234-0.1953125,0.6279297,0.0537109,0.8466797l1.09729,0.9659424
		c-0.0668335,0.0967407-0.1148682,0.2074585-0.1148682,0.3338623s0.0480347,0.2371216,0.1148682,0.3338623l-1.09729,0.9659424
		c-0.2490234,0.21875-0.2724609,0.5976562-0.0537109,0.8466797c0.1181641,0.1347656,0.2841797,0.203125,0.4501953,0.203125
		c0.140625,0,0.2822266-0.0488281,0.3964844-0.1494141l1.6777344-1.4755859
		c0.2070312-0.1845703,0.3261719-0.4492188,0.3251953-0.7265625c0-0.2763672-0.1191406-0.5400391-0.3271484-0.7226562
		L24.5250263,12.7000484z"/>
	<path class="st0" d="M24.5250263,23.4500484c-0.2490234-0.21875-0.6279297-0.1953125-0.8466797,0.0537109
		s-0.1953125,0.6279297,0.0537109,0.8466797l0.8547363,0.7524414c-0.2106323,0.0930176-0.3586426,0.3023682-0.3586426,0.5473633
		s0.1480103,0.4543457,0.3586426,0.5473633l-0.8547363,0.7524414c-0.2490234,0.21875-0.2724609,0.5976562-0.0537109,0.8466797
		c0.1181641,0.1347656,0.2841797,0.203125,0.4501953,0.203125c0.140625,0,0.2822266-0.0488281,0.3964844-0.1494141
		l1.6777344-1.4755859c0.2070312-0.1845703,0.3261719-0.4492188,0.3251953-0.7265625
		c0-0.2763672-0.1191406-0.5400391-0.3271484-0.7226562L24.5250263,23.4500484z"/>
</g>
</svg>
