<?xml version="1.0" encoding="utf-8"?>
<!-- Generator: Adobe Illustrator 28.2.0, SVG Export Plug-In . SVG Version: 6.00 Build 0)  -->
<svg version="1.1" id="图层_1" xmlns="http://www.w3.org/2000/svg" xmlns:xlink="http://www.w3.org/1999/xlink" x="0px" y="0px"
	 viewBox="0 0 42.0152397 29.7999992" style="enable-background:new 0 0 42.0152397 29.7999992;" xml:space="preserve">
<style type="text/css">
	.st0{fill:#2B858B;}
</style>
<g>
	<path class="st0" d="M33.3047409,22.3697262h-0.4541016c-1.1953144,0-2.1679707,0.9716797-2.1679707,2.1669922v0.4541016
		c0,1.1953125,0.9726562,2.1679688,2.1679707,2.1679688h1.0214844c0.0341187,0,0.06604-0.0079346,0.0996094-0.0100708v0.1604614
		c0,0.1757812-0.0761719,0.3427734-0.2089844,0.4580078l-0.6542969,0.5654297
		c-0.3134766,0.2705078-0.3476562,0.7441406-0.0771484,1.0576172c0.1484375,0.171875,0.3574219,0.2597656,0.5673828,0.2597656
		c0.1738281,0,0.3486328-0.0595703,0.4902344-0.1826172l0.6552734-0.5654297
		c0.4619141-0.4003906,0.7275391-0.9814453,0.7275391-1.5927734v-1.53125c0-0.026001-0.0122681-0.0479736-0.0148315-0.0733032
		c0.0045166-0.0489502,0.0148315-0.0963135,0.0148315-0.1464233v-1.0214844
		C35.4717331,23.3414059,34.5000534,22.3697262,33.3047409,22.3697262z"/>
	<path class="st0" d="M41.2656784,24.5367184c0-1.1953125-0.9716797-2.1669922-2.1669922-2.1669922h-0.4541016
		c-1.1953125,0-2.1679688,0.9716797-2.1679688,2.1669922v0.4541016c0,1.1953125,0.9726562,2.1679688,2.1679688,2.1679688h1.0214844
		c0.0341187,0,0.06604-0.0079346,0.0996094-0.0100708v0.1604614c0,0.1757812-0.0761719,0.3427734-0.2089844,0.4580078
		l-0.6542969,0.5654297c-0.3134766,0.2705078-0.3476562,0.7441406-0.0771484,1.0576172
		c0.1484375,0.171875,0.3574219,0.2597656,0.5673828,0.2597656c0.1738281,0,0.3486328-0.0595703,0.4902344-0.1826172
		l0.6552734-0.5654297c0.4619141-0.4003906,0.7275391-0.9814453,0.7275391-1.5927734v-1.53125
		c0-0.026001-0.0122681-0.0479736-0.0148315-0.0733032c0.0045166-0.0489502,0.0148315-0.0963135,0.0148315-0.1464233V24.5367184z"/>
	<path class="st0" d="M8.4165554,7.4312496c0.2104492,0,0.4194336-0.0878906,0.5678711-0.2592773
		c0.2705078-0.3134766,0.2363281-0.7871094-0.0771484-1.0581055L8.2534695,5.5484371
		C8.1201687,5.4332027,8.0439968,5.2662106,8.0439968,5.089941V4.9289303
		c0.0337524,0.0021362,0.0657959,0.0101318,0.1000977,0.0101318h1.0209961c1.1953125,0,2.1679688-0.972168,2.1679688-2.1669922
		V2.3174801c0-1.1953125-0.9726562-2.1674805-2.1679688-2.1674805H8.710989c-1.1948242,0-2.1669922,0.972168-2.1669922,2.1674805
		v1.0214844c0,0.0499878,0.0102539,0.097168,0.0147705,0.1460571C6.5562038,3.5102901,6.5439968,3.5322628,6.5439968,3.5582027
		V5.089941c0,0.6123047,0.265625,1.1928711,0.7285156,1.5932617L7.926321,7.2486324
		C8.0684109,7.371191,8.2427273,7.4312496,8.4165554,7.4312496z"/>
	<path class="st0" d="M3.3716335,0.1499996H2.9170437c-1.1953125,0-2.1674805,0.972168-2.1674805,2.1674805v1.0214844
		c0,0.0499878,0.0102539,0.097168,0.0147705,0.1460571C0.7617702,3.5102901,0.7495632,3.5322628,0.7495632,3.5582027V5.089941
		c0,0.6118164,0.265625,1.1923828,0.7290039,1.5932617L2.132864,7.2486324
		C2.2744656,7.371191,2.448782,7.4312496,2.6226101,7.4312496c0.2104492,0,0.4194336-0.0878906,0.5678711-0.2597656
		c0.2709961-0.3134766,0.2363281-0.7871094-0.0771484-1.0576172L2.4595242,5.5489254
		C2.3262234,5.4332027,2.2495632,5.2657223,2.2495632,5.089941V4.9288692
		c0.0339355,0.0021362,0.0661621,0.0101929,0.1005859,0.0101929h1.0214844c1.1948242,0,2.1669922-0.972168,2.1669922-2.1669922
		V2.3174801C5.5386257,1.1221676,4.5664577,0.1499996,3.3716335,0.1499996z"/>
	<path class="st0" d="M34.6689987,15.015234c0.0302734-1.9472656-0.7050781-3.7832031-2.0703125-5.1708984
		c-1.3652363-1.3867188-3.1884785-2.1503906-5.1347675-2.1503906c-0.2721558,0-0.5412598,0.0201416-0.8086548,0.0500488
		l0.4404907-0.6882324c0.2236328-0.3491211,0.1210938-0.8125-0.2275391-1.0361328
		c-0.3486328-0.2231445-0.8125-0.1206055-1.0361328,0.2275391l-1.4453125,2.2583008
		c-0.2226562,0.3486328-0.1210938,0.8125,0.2275391,1.0361328l2.2578125,1.4453125
		c0.125,0.0800781,0.265625,0.1181641,0.4033203,0.1181641c0.2470703,0,0.4892578-0.1220703,0.6328125-0.3457031
		c0.2236328-0.3486328,0.1210938-0.8125-0.2275391-1.0361328L26.9299831,9.24259
		c0.1779785-0.0166016,0.3532715-0.048645,0.5339355-0.048645c1.5410156,0,2.9853516,0.6044922,4.0664062,1.703125
		c1.0810566,1.0976562,1.6630878,2.5527344,1.6386738,4.0947266c-0.0234375,1.4951172-0.6826172,2.9628906-1.8095722,4.0273438
		c-1.1289062,1.0673828-2.6376953,1.6416016-4.1318359,1.5830078c-0.9042969-0.0380859-1.7939453-0.2929688-2.5742188-0.7373047
		c-1.2207031-0.6933594-2.1386719-1.9785156-2.5185547-3.5263672l-0.7753906-3.1474609
		c-0.6240234-2.5390625-2.4648438-4.5375977-4.8056641-5.2148438c-0.6484375-0.1870117-1.3222656-0.2822266-2.0019531-0.2822266
		c-2.1601562,0-4.1875,0.9570312-5.5625,2.625s-1.9228516,3.8623047-1.503418,6.0195312
		c0.5644531,2.9052734,2.9125977,5.1826172,5.8442383,5.6669922c0.6789551,0.1116333,1.362793,0.1235352,2.0332031,0.0483398
		l-0.4423828,0.690918c-0.2236328,0.3486328-0.1210938,0.8125,0.2275391,1.0361328
		c0.125,0.0800781,0.265625,0.1181641,0.4033203,0.1181641c0.2470703,0,0.4892578-0.1220703,0.6328125-0.3457031
		l1.4453125-2.2578125c0.2226562-0.3486328,0.1210938-0.8125-0.2275391-1.0361328l-2.2587891-1.4462891
		c-0.3496094-0.2236328-0.8125-0.1210938-1.0361328,0.2275391c-0.2226562,0.3486328-0.1210938,0.8125,0.2275391,1.0361328
		l0.7818604,0.5007324c-0.5089111,0.0500488-1.0279541,0.032959-1.5426025-0.0524902
		c-2.2792969-0.3769531-4.1777344-2.2158203-4.6162109-4.4726562c-0.3330078-1.7158203,0.0996094-3.4580078,1.1884766-4.7792969
		s2.6953125-2.0791016,4.4052734-2.0791016c0.5390625,0,1.0722656,0.0751953,1.5859375,0.2231445
		c1.8261719,0.5288086,3.2685547,2.1118164,3.7646484,4.1323242l0.7753906,3.1474609
		c0.4775391,1.9453125,1.6572266,3.5761719,3.234375,4.4716797c0.9853516,0.5625,2.1103516,0.8847656,3.2539062,0.9316406
		c0.0917969,0.0039062,0.1845703,0.0058594,0.2763672,0.0058594c1.8056641,0,3.5947266-0.71875,4.9472675-1.9960938
		C33.8086472,18.7691402,34.6397018,16.9117184,34.6689987,15.015234z"/>
	<path class="st0" d="M17.8115749,13.7730465c0.0419922-0.1533203,0.0205078-0.3173828-0.0595703-0.4550781l-0.7519531-1.3017578
		c-0.1660156-0.2861328-0.5341797-0.3867188-0.8193359-0.2197266l-0.2281494,0.1316528
		c-0.022644-0.0135498-0.0466309-0.0249634-0.0697021-0.0379028v-0.265625c0-0.3310547-0.2685547-0.5996094-0.5996094-0.5996094
		h-1.5029297c-0.3310547,0-0.5996094,0.2685547-0.5996094,0.5996094v0.2652588
		c-0.0231934,0.0130005-0.0472412,0.0244141-0.0700073,0.0380859L12.882864,11.796484
		c-0.2890625-0.1669922-0.6533203-0.0664062-0.8193359,0.2197266l-0.7519531,1.3017578
		c-0.0800781,0.1376953-0.1015625,0.3017578-0.0595703,0.4550781c0.0410156,0.1533203,0.1416016,0.2851562,0.2792969,0.3642578
		l0.2212524,0.1280518c-0.0002441,0.0149536-0.0044556,0.0288086-0.0044556,0.0438232s0.0042114,0.0288696,0.0044556,0.0438232
		l-0.2212524,0.1280518c-0.1376953,0.0791016-0.2382812,0.2109375-0.2792969,0.3642578
		c-0.0419922,0.1533203-0.0205078,0.3173828,0.0595703,0.4550781l0.7519531,1.3017578
		c0.1660156,0.2871094,0.5341797,0.3876953,0.8193359,0.2197266l0.2278442-0.1314697
		c0.0227661,0.0136719,0.046814,0.0250854,0.0700073,0.0380859v0.2652588c0,0.3310547,0.2685547,0.5996094,0.5996094,0.5996094
		h1.5029297c0.3310547,0,0.5996094-0.2685547,0.5996094-0.5996094v-0.265686
		c0.0230713-0.0129395,0.0470581-0.024292,0.0697021-0.0378418l0.2281494,0.1316528
		c0.2880859,0.1669922,0.6533203,0.0664062,0.8193359-0.2197266l0.7519531-1.3017578
		c0.0800781-0.1376953,0.1015625-0.3017578,0.0595703-0.4550781c-0.0410156-0.1533203-0.1416016-0.2851562-0.2792969-0.3642578
		l-0.2212524-0.1280518c0.0002441-0.0149536,0.0044556-0.0288086,0.0044556-0.0438232s-0.0042114-0.0288696-0.0044556-0.0438232
		l0.2212524-0.1280518C17.6699734,14.0582027,17.7705593,13.9263668,17.8115749,13.7730465z M14.7546291,15.8715572
		c-0.0736084,0.010498-0.1468506,0.022583-0.2233276,0.022583c-0.0761108,0-0.1490479-0.0120239-0.2223511-0.0224609
		c-0.4135132-0.05896-0.7729492-0.276062-1.0195312-0.5907593c-0.0875244-0.1117554-0.164856-0.2315674-0.2201538-0.3644409
		c-0.0780029-0.1871948-0.1219482-0.3921509-0.1219482-0.6072998c0-0.2104492,0.0431519-0.4105835,0.1179199-0.5944214
		c0.0559082-0.1376343,0.1339111-0.262207,0.2242432-0.3774414c0.246582-0.3145752,0.6060181-0.5316772,1.0194702-0.5906372
		c0.0733032-0.010437,0.1462402-0.0224609,0.2223511-0.0224609c0.0764771,0,0.1497192,0.012085,0.2233276,0.022583
		c0.4133301,0.059082,0.772522,0.2759399,1.019043,0.5901489c0.088623,0.1129761,0.1663208,0.234375,0.2219238,0.3688965
		c0.0770264,0.1862183,0.1206665,0.3896484,0.1206665,0.6033325c0,0.2106323-0.0431519,0.4110107-0.118103,0.5950317
		c-0.0559692,0.1375732-0.1340942,0.2619629-0.2244263,0.3771362
		C15.5272732,15.5956173,15.1680202,15.8124752,14.7546291,15.8715572z"/>
	<path class="st0" d="M24.2041531,16.0269527c-0.0419922,0.1533203-0.0205078,0.3173828,0.0595703,0.4550781l0.7519531,1.3017578
		c0.1660156,0.2871094,0.5341797,0.3876953,0.8193359,0.2197266l0.2282104-0.1316528
		c0.022644,0.0135498,0.0465698,0.0249023,0.0696411,0.0378418v0.265686c0,0.3310547,0.2685547,0.5996094,0.5996094,0.5996094
		h1.5029297c0.3310547,0,0.5996094-0.2685547,0.5996094-0.5996094v-0.2651367
		c0.0232544-0.0130005,0.0473022-0.0244751,0.0701294-0.038147l0.2277222,0.1314087
		c0.2890625,0.1669922,0.6542969,0.0664062,0.8193359-0.2197266l0.7519531-1.3017578
		c0.0800781-0.1376953,0.1015625-0.3017578,0.0595703-0.4550781c-0.0410156-0.1533203-0.1416016-0.2851562-0.2792969-0.3642578
		l-0.2202759-0.1275635c0.0002441-0.0151367,0.0044556-0.0291138,0.0044556-0.0443115s-0.0042114-0.0291748-0.0044556-0.0443115
		l0.2202759-0.1275635c0.1376953-0.0791016,0.2382812-0.2109375,0.2792969-0.3642578
		c0.0419922-0.1533203,0.0205078-0.3173828-0.0595703-0.4550781l-0.7519531-1.3017578
		c-0.1650391-0.2861328-0.5332031-0.3867188-0.8193359-0.2197266l-0.2276611,0.1314087
		c-0.0228271-0.0136719-0.046936-0.0251465-0.0701904-0.038147v-0.2641602c0-0.3310547-0.2685547-0.5996094-0.5996094-0.5996094
		h-1.5029297c-0.3310547,0-0.5996094,0.2685547-0.5996094,0.5996094v0.2647095
		c-0.0230713,0.0129395-0.0470581,0.024292-0.0697021,0.0378418l-0.2281494-0.1316528
		c-0.2890625-0.1669922-0.6542969-0.0664062-0.8193359,0.2197266l-0.7519531,1.3017578
		c-0.0800781,0.1376953-0.1015625,0.3017578-0.0595703,0.4550781c0.0410156,0.1533203,0.1416016,0.2851562,0.2792969,0.3642578
		l0.2212524,0.1280518c-0.0002441,0.0149536-0.0044556,0.0288086-0.0044556,0.0438232s0.0042114,0.0288696,0.0044556,0.0438232
		l-0.2212524,0.1280518C24.3457546,15.7417965,24.2451687,15.8736324,24.2041531,16.0269527z M27.2610989,13.928442
		c0.0736084-0.010498,0.1468506-0.022583,0.2233276-0.022583c0.0761108,0,0.1489868,0.0120239,0.22229,0.0224609
		c0.4135742,0.0588379,0.7730713,0.2756348,1.0197754,0.5898438c0.0878296,0.1118774,0.1652222,0.2317505,0.2207642,0.3647461
		c0.078125,0.1873779,0.1221313,0.3925171,0.1221313,0.6079102c0,0.2106323-0.0432129,0.4109497-0.118103,0.5949707
		c-0.0560303,0.1376343-0.1341553,0.262146-0.2245483,0.3773804c-0.2466431,0.3143311-0.6062012,0.53125-1.0198364,0.5901489
		c-0.0733643,0.010437-0.1463013,0.0224609-0.2224731,0.0224609c-0.0765381,0-0.1498413-0.0120239-0.2235107-0.022583
		c-0.4135132-0.059082-0.7727661-0.2762451-1.0192261-0.5905762c-0.0883179-0.1126099-0.1657104-0.2335205-0.2212524-0.3675537
		c-0.0772095-0.1864624-0.1209717-0.3901978-0.1209717-0.604248c0-0.2106323,0.0431519-0.4108887,0.118042-0.5949097
		c0.0559692-0.1374512,0.1340332-0.2618408,0.2243042-0.3770142C26.4882717,14.204565,26.8476467,13.9875851,27.2610989,13.928442z"
		/>
</g>
</svg>
