<?xml version="1.0" standalone="no"?>
<!DOCTYPE svg PUBLIC "-//W3C//DTD SVG 1.1//EN" "http://www.w3.org/Graphics/SVG/1.1/DTD/svg11.dtd" >
<svg xmlns="http://www.w3.org/2000/svg">
  <metadata>Created by iconfont</metadata>
  <defs>
  <font id="dy" horiz-adv-x="1024">
    <font-face
      font-family="dy"
      font-weight="400"
      font-stretch="normal"
      units-per-em="1024"
      ascent="896"
      descent="-128"
    />
      <missing-glyph />
      
      <glyph glyph-name="qiehuan" unicode="&#59146;" d="M635.5968 812.3904c119.04-11.9296 214.528-83.5584 234.9056-206.336h-68.9152l111.1552-165.376L1024 606.0032h-76.6976c-20.3776 165.376-145.6128 272.896-303.8208 288.2048-21.9136 1.7408-42.24-16.9984-42.24-40.9088 1.4848-20.48 15.5648-39.2192 34.3552-40.96zM463.4112 896H76.6976C54.8352 896 37.5808 877.2608 37.5808 853.3504v-368.384c0-23.8592 17.2544-42.6496 39.1168-42.6496h386.7136c21.9136 0 39.1168 18.7904 39.1168 42.6496V853.3504C502.528 877.2608 485.376 896 463.4112 896z m-37.5808-371.8144H114.3296V814.08h311.552v-289.9456h-0.0512z m-37.5808-566.272c-133.12 11.9808-234.8544 100.6592-239.5648 247.3472h73.5744l-111.104 165.376L0 205.312h73.5744c3.072-189.3376 136.192-312.064 306.8928-329.1648 21.9136-1.6896 42.2912 17.1008 42.2912 40.96a40.8064 40.8064 0 0 1-34.5088 40.9088z m560.5888 370.176h-386.7648c-22.016 0-39.168-18.8416-39.168-42.6496v-370.176c0-23.7568 17.152-42.496 39.168-42.496h386.6624c21.9136 0 39.0656 18.7392 39.0656 42.496v370.176c0.0512 23.808-18.688 42.6496-38.9632 42.6496z m-37.6832-371.8144h-311.5008v288.256h311.5008v-288.256z"  horiz-adv-x="1024" />
      
      <glyph glyph-name="chakanshouquanma" unicode="&#58993;" d="M502.964706 345.449412c86.979765 0 136.734118-39.333647 160.768-128.481883 3.794824-10.902588 12.047059-28.912941 28.973176-28.912941a30.840471 30.840471 0 0 1 9.818353 1.566118c10.962824 3.855059 19.696941 8.794353 24.094118 15.36 4.879059 6.505412 6.023529 14.215529 2.710588 23.491765v0.542117c-21.865412 88.003765-68.367059 144.323765-138.300235 168.357647l-10.420706 3.312941 8.192 7.107765c30.117647 25.118118 47.043765 62.343529 47.043765 102.219294 0 73.788235-59.632941 133.421176-133.421177 133.421177a133.601882 133.601882 0 0 1-133.360941-133.421177c0-39.333647 16.926118-76.498824 46.983529-102.219294l8.192-7.107765-10.36047-3.312941c-69.451294-23.491765-115.892706-79.811765-138.300235-167.273411 0-21.865412 7.649882-33.370353 25.660235-39.875765h6.625882c12.528941 0 26.202353 13.613176 32.768 27.286588C366.832941 306.055529 416.045176 345.449412 502.964706 345.449412z m0 232.387764c34.454588 0 67.824941-33.912471 67.824941-67.824941 0-34.454588-33.912471-67.764706-67.824941-67.764706-34.394353 0-67.764706 33.852235-67.764706 67.764706 0 34.454588 33.370353 67.824941 67.764706 67.824941zM810.526118 771.855059c-62.885647 1.204706-157.214118 13.251765-238.531765 64.331294a111.375059 111.375059 0 0 1-119.567059-1.807059c-78.667294-51.802353-173.477647-63.006118-237.628235-63.548235-51.621647-0.301176-100.954353-41.020235-100.954353-97.400471v-453.511529c0-11.565176 2.108235-23.732706 7.589647-35.418353 23.491765-49.995294 140.528941-269.251765 393.577412-269.251765 254.373647 0 366.411294 221.364706 388.21647 270.456471 4.999529 11.264 6.927059 22.768941 6.927059 33.731764V674.454588c0 55.838118-48.549647 96.376471-99.629176 97.400471z m38.671058-552.538353c0-3.855059-0.602353-6.686118-1.626352-8.794353-21.082353-47.465412-118.663529-234.315294-332.559059-234.315294-213.534118 0-315.632941 185.946353-338.522353 234.375529a21.985882 21.985882 0 0 0-1.807059 9.456941V673.430588c0 18.191059 17.347765 36.382118 40.417882 36.442353 68.969412 0.542118 177.754353 12.408471 270.757647 73.667765a50.416941 50.416941 0 0 0 53.609412 1.024c94.810353-59.452235 201.788235-72.282353 269.733647-73.547294 22.889412-0.421647 39.875765-18.492235 39.875765-36.562824v-455.137882h0.12047z"  horiz-adv-x="1024" />
      
      <glyph glyph-name="caidan" unicode="&#58903;" d="M382.3 730.4h-165c-47.5 0-86-38.4-86-86v-165c0-47.5 38.4-86 86-86h165c47.5 0 86.5 38.4 86 86v165c0 47.6-38.5 86-86 86z m43.3-251c0-11.2-4.3-21.9-12.3-29.9-8-8.5-19.2-12.8-31-12.8h-165c-24 0-43.2 19.2-43.2 43.2V645c0 24 19.2 43.2 43.2 43.2h165v-0.5c24 0 43.2-19.2 43.2-43.2v-165.1zM382.3 338.5h-165c-47.5 0-86-38.4-86-86v-165c0-47.5 38.4-86 86-86h165c47.5 0 86.5 38.4 86 86v165c0 47.6-38.5 86-86 86z m43.3-251c0-11.2-4.3-21.9-12.3-29.9-8-8.5-19.2-12.8-31-12.8h-165c-24 0-43.2 19.2-43.2 43.2V252.5c0 24 19.2 43.2 43.2 43.2h165c24 0 43.2-19.2 43.2-43.2v-165zM871.4 622.5L755 738.9c-16 16-37.9 25.1-60.9 25.1s-44.8-9.1-60.9-25.1L516.9 622.5c-33.6-33.6-33.6-88.1 0-121.7l116.4-116.4c16-16 37.9-25.1 60.9-25.1s44.8 8.5 60.9 25.1l116.4 116.4c33.5 33.6 33.5 88.1-0.1 121.7zM841 531.2L724.6 414.8c-7.5-8-18.2-12.3-30.4-12.3-11.7 0-22.4 4.8-30.4 12.8L547.3 531.8c-8 8-12.8 19.2-12.8 30.4 0 11.7 4.3 22.4 12.8 30.4L663.7 709c8 7.5 19.2 12.3 30.4 12.3 11.7 0 22.4-4.8 30.4-12.8L841 592.1c8-8 12.8-19.2 12.8-30.4 0-11.8-4.3-22.5-12.8-30.5zM776.4 338.5h-165c-47.5 0-86-38.4-86-86v-165c0-47.5 38.4-86 86-86h165c47.5 0 86.5 38.4 86 86v165c-0.1 47.6-38.5 86-86 86z m43.2-251c0-11.2-4.3-21.9-12.3-29.9-8-8.5-19.2-12.8-31-12.8h-165c-24 0-43.2 19.2-43.2 43.2V252.5c0 24 19.2 43.2 43.2 43.2h165c24 0 43.2-19.2 43.2-43.2v-165z"  horiz-adv-x="1024" />
      
      <glyph glyph-name="yonghushezhi" unicode="&#58995;" d="M780.8 204.8c-54.4 0-98.4-44-98.4-98.4 0-54.4 44-98.4 98.4-98.4 54.4 0 98.4 44 98.4 98.4 0 54.4-44 98.4-98.4 98.4z m0-156c-32 0-58.4 26.4-58.4 58.4s26.4 58.4 58.4 58.4 58.4-26.4 58.4-58.4c0-32.8-26.4-58.4-58.4-58.4zM992 180c-25.6 0-45.6 20.8-45.6 45.6 0 8.8 2.4 16.8 7.2 24 3.2 4.8 4 10.4 2.4 15.2-1.6 5.6-4.8 9.6-9.6 12.8L848 335.2c-4.8 2.4-10.4 3.2-15.2 2.4-4.8-1.6-9.6-4.8-12-9.6-8-14.4-23.2-23.2-40-23.2-16 0-31.2 8.8-40 23.2-5.6 9.6-17.6 12.8-27.2 7.2l-98.4-56.8c-4.8-2.4-8-7.2-9.6-12.8-1.6-5.6-0.8-11.2 2.4-15.2 4.8-7.2 7.2-16 7.2-24 0-25.6-20.8-45.6-45.6-45.6-11.2 0-20-8.8-20-20v-101.6c0-11.2 8.8-20 20-20 25.6 0 45.6-20.8 45.6-45.6 0-9.6-3.2-19.2-8.8-27.2-3.2-4.8-4.8-10.4-3.2-16s4.8-10.4 9.6-13.6l101.6-58.4c3.2-1.6 6.4-2.4 9.6-2.4 7.2 0 13.6 3.2 17.6 9.6 8 14.4 23.2 23.2 40 23.2 16 0 31.2-8.8 40-23.2 2.4-4.8 7.2-8 12-9.6 4.8-1.6 10.4-0.8 15.2 2.4l101.6 58.4c4.8 3.2 8.8 8 9.6 13.6s0 11.2-3.2 16c-5.6 8-8.8 17.6-8.8 27.2 0 25.6 20.8 45.6 45.6 45.6 11.2 0 20 8.8 20 20V160c-1.6 11.2-10.4 20-21.6 20z m-20-103.2c-37.6-8.8-65.6-43.2-65.6-83.2 0-11.2 2.4-21.6 5.6-31.2l-68.8-40c-16 16.8-38.4 27.2-62.4 27.2s-46.4-9.6-62.4-27.2l-68.8 40c4 9.6 5.6 20.8 5.6 31.2 0 40.8-28 74.4-65.6 83.2v66.4c37.6 8.8 65.6 43.2 65.6 83.2 0 8.8-1.6 17.6-4 26.4l67.2 39.2c16-16.8 38.4-27.2 62.4-27.2s46.4 9.6 62.4 27.2l67.2-39.2c-2.4-8.8-4-17.6-4-26.4 0-40.8 28-74.4 65.6-83.2v-66.4zM588 361.6c4 10.4-1.6 21.6-12 25.6-45.6 16.8-93.6 25.6-142.4 25.6-224.8 0-408-183.2-408-408 0-11.2 8.8-20 20-20s20 8.8 20 20c0 203.2 164.8 368 368 368 44 0 87.2-8 128.8-23.2 10.4-3.2 21.6 2.4 25.6 12zM442.4 452c120 0 217.6 97.6 217.6 217.6C660.8 790.4 563.2 888 442.4 888S224.8 790.4 224.8 670.4s97.6-218.4 217.6-218.4z m0 396c98.4 0 177.6-80 177.6-177.6 0-98.4-80-177.6-177.6-177.6s-177.6 80-177.6 177.6S344.8 848 442.4 848z"  horiz-adv-x="1024" />
      
      <glyph glyph-name="huifu" unicode="&#58992;" d="M922.3 36c-11.8 0-22.6 6.5-28.2 16.8-104 186.4-250.5 204-431 205.9v-168.8c0-12.9-7.5-24.7-19-30-4.2-2-8.7-2.9-13.4-2.9-8 0-15.6 2.9-21.5 8.3L80.4 359.2c-6.9 6.1-10.9 15-11.1 24.2-0.2 9.2 3.6 18.2 10.3 24.6L408.4 723c6 5.8 13.9 9 22.2 9 4.5 0 8.9-0.9 13-2.8 11.9-5.4 19.5-17.3 19.5-30.3V556c85-5.1 162.7-30.5 231.1-75.5 61.3-40.3 115-96.2 159.7-166.2C926.6 200.6 951.4 88 954 75.5v-0.1c3.2-15.7-5.3-31.5-20.2-37.4h-0.1c-3.7-1.3-7.5-2-11.4-2z m-524 126.9v129c0 18.2 14.6 33 32.4 33 117.5 0 212.8-6.3 295.9-37.2 35.6-13 68.8-31 99-53.7-8.5 16-17.5 31.4-26.8 45.9-90.3 140-214.1 211-368.1 211-8.8 0.1-17 3.6-23.1 9.8-6.1 6.2-9.4 14.5-9.3 23.3V622.6L150 384.9l248.3-222z"  horiz-adv-x="1024" />
      
      <glyph glyph-name="SubFilled" unicode="&#58988;" d="M512 832a448 448 0 1 0 0-896 448 448 0 0 0 0 896zM288 384a38.4 38.4 0 0 1 38.4-38.4h371.2a38.4 38.4 0 0 1 0 76.8H326.4A38.4 38.4 0 0 1 288 384z"  horiz-adv-x="1024" />
      
      <glyph glyph-name="AddFilled" unicode="&#58991;" d="M512 832a448 448 0 1 0 0-896 448 448 0 0 0 0 896z m-38.4-409.6H326.4a38.4 38.4 0 1 1 0-76.8h147.2v-147.2a38.4 38.4 0 0 1 76.8 0V345.6h147.2a38.4 38.4 0 0 1 0 76.8H550.4V569.6a38.4 38.4 0 1 1-76.8 0v-147.2z"  horiz-adv-x="1024" />
      
      <glyph glyph-name="user2" unicode="&#58990;" d="M283.083845 605.200938c0-126.207423 102.313224-228.5186 228.511437-228.5186 126.2064 0 228.514507 102.311177 228.514507 228.5186 0 126.202307-102.308107 228.51553-228.514507 228.51553C385.390929 833.716468 283.083845 731.403245 283.083845 605.200938L283.083845 605.200938zM647.796314 376.145102c-39.302121-25.200962-86.044702-39.814798-136.202055-39.814798-50.154283 0-96.894817 14.613836-136.197962 39.814798-171.106006-56.998155-294.485011-218.435964-294.485011-408.697239 0-11.157107 0.422625-22.218024 1.254573-33.164331l858.852706 0c0.831948 10.946306 1.255597 22.007223 1.255597 33.164331 0 190.261275-123.372865 351.698061-294.483988 408.697239L647.796314 376.145102zM647.796314 376.145102"  horiz-adv-x="1024" />
      
      <glyph glyph-name="upgrade" unicode="&#58989;" d="M822.469 502.631l-287.675 320a31.988 31.988 0 0 1-45.25 0l-287.993-320a32 32 0 0 1 22.625-54.625h95.992v-96a32 32 0 0 1 64 0v128a31.982 31.982 0 0 1-32 32h-50.742l210.744 242.75 210.425-242.75h-50.426a31.982 31.982 0 0 1-32-32v-224.012h-288a32 32 0 0 1 0-64h320a32.1 32.1 0 0 1 32 32c0 0.844-0.418 1.559-0.484 2.387 0.066 0.836 0.484 1.551 0.484 2.406V448.006h95.676a32 32 0 0 1 22.625 54.625zM608.169-0.005999999999971806h-192a32 32 0 0 1 0-64h192a32 32 0 0 1 0 64zM672.169 127.99400000000003h-320a32 32 0 0 1 0-64h320a32 32 0 0 1 0 64z"  horiz-adv-x="1024" />
      
      <glyph glyph-name="prompt" unicode="&#58986;" d="M890.708212 578.491267V824.423085c0 33.778256-27.489934 61.26819-61.26819 61.26819H353.692358c-33.778256 0-61.233827-27.489934-61.233827-61.26819V578.491267c0-33.778256 27.489934-61.233827 61.233827-61.233828h179.13128l44.190069-44.155705a20.583088 20.583088 0 0 1 29.173692 0l44.155706 44.155705h179.096917c33.812618 0 61.26819 27.489934 61.26819 61.233828z m-41.200538 0a20.067652 20.067652 0 0 0-20.067652-19.998927h-187.618797a20.651813 20.651813 0 0 1-14.604027-6.047785l-35.633826-35.633827-35.633827 35.633827a20.651813 20.651813 0 0 1-14.569665 6.047785h-187.687522a20.033289 20.033289 0 0 0-19.998926 19.998927V824.423085c0 11.030336 8.968591 20.033289 19.998926 20.033289h475.747664c11.064698 0 20.067652-9.002953 20.067652-20.033289V578.491267zM774.66633 797.723487H408.500414a20.61745 20.61745 0 1 1 0-41.2349h366.165916a20.61745 20.61745 0 1 1 0 41.2349zM774.66633 722.091807H408.500414a20.61745 20.61745 0 1 1 0-41.2349h366.165916a20.61745 20.61745 0 1 1 0 41.2349zM648.246997 646.425765h-239.746583a20.61745 20.61745 0 1 1 0-41.2349h239.746583a20.61745 20.61745 0 1 1 0 41.2349zM709.686999 378.605087c-44.086981 35.805639-101.815842 49.481881-158.548192 37.626846-72.64215-15.291276-130.439735-74.841344-143.87544-148.205104-12.198658-66.800539 11.064698-132.810742 62.230337-176.622824 17.249933-14.775839 27.146309-37.008323 27.146309-60.958928v-7.662819a20.61745 20.61745 0 0 1 41.234901 0v7.662819a121.058795 121.058795 0 0 1-41.578525 92.297453c-39.860404 34.12188-58.00376 85.665506-48.451008 137.862017 10.446175 57.075975 55.357854 103.430875 111.780943 115.251546a147.895843 147.895843 0 0 0 124.048325-29.276779 145.765373 145.765373 0 0 0 54.189532-113.636513 145.043762 145.043762 0 0 0-51.096914-110.303359c-26.355974-22.507383-41.5098-56.148189-41.5098-92.194365v-7.662819a20.61745 20.61745 0 0 1 41.2349 0v7.662819c0 23.984967 9.862014 46.148726 27.077585 60.855841a186.209938 186.209938 0 0 1 65.529129 141.641883 186.931549 186.931549 0 0 1-69.412082 145.662286zM565.021223 278.71353999999997l9.758927-82.126176a16.940672 16.940672 0 0 1 33.606444 0l9.758926 82.126176c3.333154 39.24188-56.457451 39.207518-53.124297 0zM591.583372 162.80910800000004a19.586578 19.586578 0 1 1 0-39.24188 19.586578 19.586578 0 0 1 0 39.24188zM656.52834-11.992508000000043h-129.889937a20.61745 20.61745 0 1 1 0-41.200538h129.889937a20.61745 20.61745 0 1 1 0 41.234901zM619.107668-76.45640200000003h-55.048592a20.61745 20.61745 0 1 1 0-41.2349h55.048592a20.61745 20.61745 0 1 1 0 41.2349zM581.858808 11.33957399999997h19.449128a20.61745 20.61745 0 1 1 0 41.2349h-19.449128a20.61745 20.61745 0 1 1 0-41.2349zM115.560808 492.791399a20.61745 20.61745 0 0 1 28.314632 6.872483c2.852081 4.742014 5.807248 9.38094 8.796779 13.985504a20.61745 20.61745 0 0 1-34.534229 22.541745c-3.230067-4.948188-6.39141-9.965101-9.484027-15.050738a20.61745 20.61745 0 0 1 6.872483-28.348994zM50.822015 295.00132599999995a20.61745 20.61745 0 0 1 23.641343 17.078121c1.786846 11.099061 3.951678 22.095034 6.425772 32.919196a20.61745 20.61745 0 0 1-40.204028 9.209128c-2.680269-11.683222-5.016913-23.572618-6.941208-35.565102a20.61745 20.61745 0 0 1 17.078121-23.641343zM73.604297 397.057705a20.651813 20.651813 0 0 1 26.459061 12.164295 512.000014 512.000014 0 0 0 12.714095 31.063625 20.61745 20.61745 0 0 1-37.729934 16.76886c-4.879463-10.995973-9.415302-22.163759-13.607517-33.503357a20.61745 20.61745 0 0 1 12.164295-26.459061zM65.25423 87.41796499999998a20.61745 20.61745 0 0 1 15.531812 24.672215 533.957598 533.957598 0 0 0-6.425772 32.953558 20.61745 20.61745 0 0 1-40.719464-6.563221c1.958658-12.026846 4.26094-23.847517 6.941209-35.53074a20.61745 20.61745 0 0 1 24.672215-15.531812zM48.073021 190.539578a20.61745 20.61745 0 0 1 19.930202 21.270337 534.095048 534.095048 0 0 0 0 33.606443 20.61745 20.61745 0 0 1-19.930202 21.235974 20.376913 20.376913 0 0 1-21.270336-19.964564 559.076525 559.076525 0 0 1 0-36.217988 20.61745 20.61745 0 0 1 20.583088-19.930202h0.687248zM112.502553 16.73447299999998a535.641357 535.641357 0 0 0-12.611007 31.13235 20.61745 20.61745 0 0 1-38.692081-14.294766c4.192215-11.339598 8.728054-22.541746 13.607517-33.537719a20.61745 20.61745 0 1 1 37.695571 16.700135zM143.87544-43.12485700000002a20.61745 20.61745 0 0 1-35.187115-21.510873c3.092618-5.051275 6.25396-10.102551 9.484027-15.050739a20.61745 20.61745 0 0 1 34.499867 22.61047c-3.023893 4.570201-5.944698 9.277853-8.796779 13.916779zM238.956248 32.74735899999996a20.61745 20.61745 0 0 1-36.011813-20.067651c2.886443-5.223087 5.910336-10.411812 9.037316-15.531813a20.548725 20.548725 0 0 1 28.348994-6.872483 20.61745 20.61745 0 0 1 6.872483 28.348994 456.161086 456.161086 0 0 0-8.24698 14.122953zM147.895843 260.19219799999996a20.651813 20.651813 0 0 1 19.071141-22.02631l1.511947-0.034362a20.61745 20.61745 0 0 1 20.548725 19.105504c0.687248 9.758926 1.718121 19.449128 3.12698 29.00188a20.61745 20.61745 0 0 1-40.788189 5.910336c-1.546309-10.5149-2.680269-21.167249-3.470604-31.957048zM214.284033 85.59675700000003c-3.436242 9.037316-6.597584 18.212081-9.415303 27.593021a20.583088 20.583088 0 1 1-39.516779-11.889397c3.12698-10.308725 6.597584-20.445638 10.411812-30.410739a20.61745 20.61745 0 1 1 38.485907 14.707115zM174.801615 146.624409a20.61745 20.61745 0 0 1 17.421746 23.366444 383.931285 383.931285 0 0 0-3.195705 28.933155 20.61745 20.61745 0 1 1-41.131813-2.955168c0.790336-10.721074 1.958658-21.442148 3.504966-31.957048a20.61745 20.61745 0 0 1 23.400806-17.387383zM179.096918 329.22629400000005a20.61745 20.61745 0 0 1 25.703087 13.779329c2.783356 9.346577 5.944698 18.555705 9.38094 27.627383a20.61745 20.61745 0 1 1-38.520269 14.63839c-3.814228-9.965101-7.25047-20.102014-10.37745-30.376377a20.61745 20.61745 0 0 1 13.813692-25.668725zM210.916516 415.819584a20.61745 20.61745 0 0 1 28.039732 7.972081c2.645906 4.742014 5.394899 9.449665 8.24698 14.088591a20.61745 20.61745 0 1 1-35.187115 21.510873c-3.12698-5.12-6.185235-10.308725-9.071678-15.566175a20.61745 20.61745 0 0 1 7.972081-28.00537zM336.339338 109.51299900000004a20.61745 20.61745 0 0 1-37.351947-17.353021c2.577181-5.601074 5.291812-10.995973 8.178255-16.425235a20.651813 20.651813 0 0 1 36.355437 19.517853 269.435712 269.435712 0 0 0-7.181745 14.260403zM289.02229 240.46817a20.61745 20.61745 0 0 1 22.713557 18.280806c1.099597 10.308725 2.748993 20.342551 4.948188 30.238927a20.61745 20.61745 0 0 1-40.272752 8.831141c-2.508456-11.339598-4.398389-22.88537-5.669799-34.637316a20.61745 20.61745 0 0 1 18.280806-22.713558zM316.718398 167.448034a274.452625 274.452625 0 0 0-4.948188 30.170202 20.961074 20.961074 0 0 1-22.713558 18.280806 20.61745 20.61745 0 0 1-18.315168-22.713558c1.271409-11.786309 3.195705-23.332081 5.704161-34.671678a20.651813 20.651813 0 0 1 40.272753 8.934228zM335.102291 389.223074a20.583088 20.583088 0 0 1-27.936645-8.453155 325.102828 325.102828 0 0 1-8.178255-16.390873 20.61745 20.61745 0 1 1 37.351947-17.387383c2.26792 4.845101 4.673289 9.621477 7.181745 14.294766a20.61745 20.61745 0 0 1-8.418792 27.936645zM944.244858 423.791665a20.61745 20.61745 0 1 1 36.046175 19.998927 389.154373 389.154373 0 0 1-9.10604 15.600537 20.61745 20.61745 0 1 1-35.152753-21.510873c2.817718-4.638926 5.566712-9.346577 8.212618-14.088591zM1004.069826 127.31273099999999a20.445638 20.445638 0 0 1-25.668726-13.779329c-2.817718-9.38094-5.944698-18.555705-9.38094-27.661746a20.548725 20.548725 0 0 1 19.242954-27.971007c8.315705 0 16.150336 5.085638 19.242953 13.332617 3.814228 9.965101 7.284832 20.102014 10.37745 30.41074a20.583088 20.583088 0 0 1-13.813691 25.668725zM1035.2709 196.34682699999996a20.61745 20.61745 0 0 1-19.071141 22.026309 20.823625 20.823625 0 0 1-22.060672-19.071141c-0.687248-9.758926-1.718121-19.449128-3.161342-29.00188a20.61745 20.61745 0 1 1 40.822551-5.979061c1.546309 10.583624 2.714631 21.235974 3.470604 32.025773zM968.917073 370.942268c3.436242-9.071678 6.563222-18.280806 9.415302-27.661746a20.61745 20.61745 0 0 1 39.482417 12.026846c-3.12698 10.274363-6.597584 20.376913-10.37745 30.307652a20.583088 20.583088 0 1 1-38.520269-14.672752zM990.943382 286.548172c1.408859-9.587114 2.474094-19.242954 3.195705-29.00188a20.61745 20.61745 0 0 1 20.548725-19.071142l1.580672 0.034363a20.61745 20.61745 0 0 1 19.002416 22.129396 451.556522 451.556522 0 0 1-3.504966 31.888323 20.823625 20.823625 0 0 1-23.366444 17.387383 20.61745 20.61745 0 0 1-17.456108-23.366443zM972.28459 40.71943999999996a20.686175 20.686175 0 0 1-28.039732-7.972081c-2.645906-4.776376-5.394899-9.449665-8.246981-14.122953a20.651813 20.651813 0 0 1 35.221478-21.476511c3.092618 5.154363 6.150873 10.308725 9.071678 15.531813a20.61745 20.61745 0 0 1-8.006443 28.039732zM1067.709022-36.321099000000004a20.651813 20.651813 0 0 1-28.348994-6.803758c-2.886443-4.707651-5.841611-9.415302-8.865504-14.088591a20.61745 20.61745 0 0 1 34.568592-22.438659c3.195705 4.948188 6.357047 9.965101 9.449665 14.982014a20.61745 20.61745 0 0 1-6.803759 28.348994zM1132.413453 161.468974a20.342551 20.342551 0 0 1-23.675705-17.009397c-1.821208-11.099061-3.98604-22.095034-6.460135-32.953558a20.61745 20.61745 0 1 1 40.204028-9.209128c2.680269 11.683222 4.98255 23.538256 6.941209 35.53074a20.583088 20.583088 0 0 1-17.009397 23.641343zM1156.39842 245.96615699999995c-0.343624 11.37396-10.102551 19.861477-21.201611 19.998927a20.61745 20.61745 0 0 1-19.998927-21.201612 538.287263 538.287263 0 0 0-0.034362-33.572081 20.61745 20.61745 0 0 1 19.895839-21.304699h0.687249a20.61745 20.61745 0 0 1 20.61745 19.930202 562.684579 562.684579 0 0 1 0 36.149263zM1109.631171 59.48131999999998a20.686175 20.686175 0 0 1-26.493424-12.129933c-3.882953-10.549262-8.10953-20.926712-12.714094-31.097988a20.61745 20.61745 0 1 1 37.661209-16.803222c4.913826 10.995973 9.484027 22.198121 13.710604 33.537719a20.61745 20.61745 0 0 1-12.164295 26.493424zM1102.415063 344.34575700000005c2.508456-10.789799 4.638926-21.717048 6.39141-32.816108a20.61745 20.61745 0 0 1 40.753826 6.528859c-1.958658 12.026846-4.26094 23.88188-7.009933 35.633826a20.61745 20.61745 0 0 1-40.135303-9.312215zM1070.66419 439.770189c4.501477-10.205638 8.762416-20.514363 12.611007-31.029262a20.651813 20.651813 0 0 1 38.726444 14.22604 537.703102 537.703102 0 0 1-13.710605 33.606444 20.61745 20.61745 0 0 1-37.661209-16.837584zM1039.325665 499.663882a20.61745 20.61745 0 0 1 35.221478 21.476511c-3.092618 5.051275-6.288322 10.068188-9.484027 15.016376a20.61745 20.61745 0 1 1-34.568592-22.473021c3.023893-4.638926 5.979061-9.277853 8.831141-14.019866zM884.213715 364.413409a325.893163 325.893163 0 0 1-8.24698 16.390872 20.61745 20.61745 0 0 1-36.286712-19.586577c2.542819-4.673289 4.913826-9.415302 7.147382-14.226041a20.61745 20.61745 0 1 1 37.38631 17.387383zM894.110091 216.03649199999995a20.857987 20.857987 0 0 1-22.679195-18.315168c-1.030873-10.24-2.748993-20.273826-4.913826-30.13584a20.651813 20.651813 0 0 1 40.272753-8.934229c2.508456 11.339598 4.398389 22.919732 5.669799 34.706042a20.61745 20.61745 0 0 1-18.315168 22.679195zM882.117608 313.694481a20.651813 20.651813 0 0 1-15.669263-24.603491c2.199195-9.862014 3.882953-19.930202 4.982551-30.170202a20.61745 20.61745 0 0 1 40.994363 4.501477 327.576922 327.576922 0 0 1-5.704161 34.602954 20.583088 20.583088 0 0 1-24.60349 15.669262zM874.179889 119.51246200000003a20.61745 20.61745 0 0 1-27.352484-9.965101c-2.233557-4.845101-4.604564-9.587114-7.147382-14.260403a20.61745 20.61745 0 0 1 36.321074-19.586577 326.442962 326.442962 0 0 1 8.212618 16.459597 20.61745 20.61745 0 0 1-9.999463 27.352484z"  horiz-adv-x="1183" />
      
      <glyph glyph-name="app-prompt" unicode="&#58987;" d="M533.201625 603.713281a20.61745 20.61745 0 0 1-29.13933 0l-52.505773-52.505773a20.61745 20.61745 0 1 1 29.173692-29.13933l37.901746 37.901746 37.901746-37.901746a20.583088 20.583088 0 0 1 29.173692 0 20.61745 20.61745 0 0 1 0 29.13933l-52.505773 52.505773zM798.926196 603.713281a20.61745 20.61745 0 0 1-29.208055 0l-52.47141-52.505773a20.61745 20.61745 0 1 1 29.173692-29.13933l37.901746 37.901746 37.901746-37.901746a20.583088 20.583088 0 0 1 29.173692 0 20.61745 20.61745 0 0 1 0 29.13933l-52.505773 52.505773zM693.536663 72.77957500000002a41.544162 41.544162 0 1 1-41.5098 41.5098 41.578525 41.578525 0 0 1 41.5098-41.5098zM65.013693 101.02548200000001a20.61745 20.61745 0 0 1 20.61745-20.61745h221.63759a20.61745 20.61745 0 1 1 0 41.2349h-221.63759a20.61745 20.61745 0 0 1-20.61745-20.61745zM307.268733 30.479439999999954h-221.63759a20.61745 20.61745 0 1 1 0-41.234901h221.63759a20.61745 20.61745 0 1 1 0 41.234901zM1244.606745 228.57877399999995h-117.485104V480.902002c0 34.12188-27.764833 61.852351-61.852351 61.852351h-71.748726V657.765363a77.899599 77.899599 0 0 1-77.796513 77.830874h-243.629536V770.130466h53.674095a20.61745 20.61745 0 1 1 0 41.234901H672.128877V865.0738249999999a20.61745 20.61745 0 1 1-41.2349 0v-53.708458h-53.674096a20.61745 20.61745 0 1 1 0-41.234901h53.674096v-34.534229h-243.629537a77.933962 77.933962 0 0 1-77.830875-77.830874v-115.045372H237.684839c-34.087518 0-61.852351-27.730471-61.852351-61.852351v-252.288866H58.347384c-26.355974 0-47.798122-21.442148-47.798122-47.76376v-250.708194c0-26.355974 21.442148-47.76376 47.798122-47.76376h276.205108c26.355974 0 47.76376 21.407786 47.76376 47.76376v250.708194c0 26.321611-21.407786 47.76376-47.76376 47.76376H217.067388V480.902002a20.61745 20.61745 0 0 0 20.617451 20.61745h71.714364v-115.011009a77.899599 77.899599 0 0 1 77.830875-77.830875h243.629536v-80.064432h-117.175842c-26.527786 0-48.107384-21.579598-48.107384-48.107383V-69.58391900000004c0-26.527786 21.579598-48.107384 48.107384-48.107383h275.586585c26.527786 0 48.107384 21.579598 48.107384 48.107383v250.089672c0 26.493424-21.579598 48.107384-48.107384 48.107383h-117.175842v80.064432h243.629536a77.899599 77.899599 0 0 1 77.796513 77.796512v115.01101h71.748726c11.37396 0 20.61745-9.24349 20.617451-20.61745v-252.288866h-117.450742c-26.390336 0-47.832485-21.442148-47.832484-47.76376v-250.708194c0-26.355974 21.442148-47.76376 47.832484-47.76376h276.170746c26.355974 0 47.76376 21.407786 47.763759 47.76376v250.708194c0 26.321611-21.407786 47.76376-47.763759 47.76376z m-903.491031-47.76376v-250.708194a6.563222 6.563222 0 0 0-6.563222-6.597584H58.347384a6.597584 6.597584 0 0 0-6.528859 6.597584v250.708194c0 3.608054 2.920805 6.563222 6.528859 6.563222h276.205108c3.608054 0 6.528859-2.955168 6.528859-6.563222z m448.154643-257.305778h-275.586585a6.872483 6.872483 0 0 0-6.872483 6.872483v34.877853l79.377183 88.105238 92.744164-97.176916a20.61745 20.61745 0 0 1 31.475974 1.924296l42.265773 57.041612 42.849934-75.356781c0.13745-0.274899 0.446711-0.343624 0.618523-0.618523v-8.762417a6.872483 6.872483 0 0 0-6.872483-6.872483z m6.872483 256.996517v-158.410743l-23.297719 40.891276a20.583088 20.583088 0 0 1-16.665772 10.411813 19.998927 19.998927 0 0 1-17.799732-8.315705l-46.49235-62.745774-91.197855 95.52752a20.583088 20.583088 0 0 1-30.238927-0.446712l-63.639196-70.580404v153.668729c0 3.779866 3.092618 6.872483 6.872483 6.872483h275.586585c3.779866 0 6.872483-3.092618 6.872483-6.872483z m156.177186 205.968327c0-20.170739-16.425235-36.595974-36.595975-36.595974h-528.493973a36.630337 36.630337 0 0 0-36.595975 36.595974V657.765363c0 20.170739 16.425235 36.561612 36.595975 36.561611h528.493973c20.170739 0 36.595974-16.390873 36.595975-36.561611v-271.291283z m298.84994-456.36726a6.597584 6.597584 0 0 0-6.563221-6.597584h-276.170746a6.631946 6.631946 0 0 0-6.631946 6.597584v250.708194c0 3.608054 2.98953 6.563222 6.631946 6.563222h276.170746c3.608054 0 6.563222-2.955168 6.563221-6.563222v-250.708194zM1020.90741 69.82440699999995a20.273826 20.273826 0 0 1-5.841611-14.432215c0-5.497987 2.061745-10.652349 5.841611-14.432215 3.779866-3.779866 9.277853-6.185235 14.432215-6.185235 5.497987 0 10.995973 2.405369 14.775839 6.185235 3.779866 3.779866 5.841611 8.934228 5.841611 14.432215a20.273826 20.273826 0 0 1-5.841611 14.432215 20.961074 20.961074 0 0 1-29.208054 0zM1106.126204 76.00964199999999a20.651813 20.651813 0 0 1 0-41.2349c11.339598 0 20.61745 9.277853 20.61745 20.61745s-9.277853 20.61745-20.61745 20.61745zM1163.167816 70.16803200000004c-4.12349-3.779866-6.185235-9.277853-6.185235-14.77584 0-5.497987 2.061745-10.652349 6.185235-14.432215 3.779866-3.779866 8.934228-6.185235 14.432216-6.185235s10.652349 2.405369 14.432215 6.185235c3.779866 3.779866 6.185235 8.934228 6.185235 14.432215a21.991947 21.991947 0 0 1-6.185235 14.77584 21.201611 21.201611 0 0 1-28.864431 0z"  horiz-adv-x="1302" />
      
      <glyph glyph-name="unorderedlist" unicode="&#58985;" d="M912 704H328c-4.4 0-8-3.6-8-8v-56c0-4.4 3.6-8 8-8h584c4.4 0 8 3.6 8 8v56c0 4.4-3.6 8-8 8z m0-284H328c-4.4 0-8-3.6-8-8v-56c0-4.4 3.6-8 8-8h584c4.4 0 8 3.6 8 8v56c0 4.4-3.6 8-8 8z m0-284H328c-4.4 0-8-3.6-8-8v-56c0-4.4 3.6-8 8-8h584c4.4 0 8 3.6 8 8v56c0 4.4-3.6 8-8 8zM104 668a56 56 0 1 1 112 0 56 56 0 1 1-112 0zM104 384a56 56 0 1 1 112 0 56 56 0 1 1-112 0zM104 100a56 56 0 1 1 112 0 56 56 0 1 1-112 0z"  horiz-adv-x="1024" />
      
      <glyph glyph-name="rotate-left" unicode="&#59649;" d="M672 478H144c-17.7 0-32-14.3-32-32v-414c0-17.7 14.3-32 32-32h528c17.7 0 32 14.3 32 32V446c0 17.7-14.3 32-32 32z m-44-402H188V402h440v-326zM819.3 567.5c-78.8 100.7-196 153.6-314.6 154.2l-0.2 64c0 6.5-7.6 10.1-12.6 6.1l-128-101c-4-3.1-3.9-9.1 0-12.3L492 577.4c5.1-4 12.7-0.4 12.6 6.1v63.9c12.9-0.1 25.9-0.9 38.8-2.5 42.1-5.2 82.1-18.2 119-38.7 38.1-21.2 71.2-49.7 98.4-84.3 27.1-34.7 46.7-73.7 58.1-115.8 11-40.7 14-82.7 8.9-124.8-0.7-5.4-1.4-10.8-2.4-16.1h74.9c14.8 103.6-11.3 213-81 302.3z"  horiz-adv-x="1024" />
      
      <glyph glyph-name="rotate-right" unicode="&#59650;" d="M480.5 644.8c13 1.6 25.9 2.4 38.8 2.5v-63.9c0-6.5 7.5-10.1 12.6-6.1L660 678.4c4 3.2 4 9.2 0 12.3l-128 101c-5.1 4-12.6 0.4-12.6-6.1l-0.2-64c-118.6-0.5-235.8-53.4-314.6-154.2-69.6-89.2-95.7-198.6-81.1-302.4h74.9c-0.9 5.3-1.7 10.7-2.4 16.1-5.1 42.1-2.1 84.1 8.9 124.8 11.4 42.2 31 81.1 58.1 115.8 27.2 34.7 60.3 63.2 98.4 84.3 37 20.6 76.9 33.6 119.1 38.8zM880 478H352c-17.7 0-32-14.3-32-32v-414c0-17.7 14.3-32 32-32h528c17.7 0 32 14.3 32 32V446c0 17.7-14.3 32-32 32z m-44-402H396V402h440v-326z"  horiz-adv-x="1024" />
      
      <glyph glyph-name="lock" unicode="&#58998;" d="M785.066667 480h-61.866667v121.6c0 108.8-91.733333 198.4-202.666667 198.4s-202.666667-89.6-202.666666-198.4v-121.6h-78.933334c-55.466667 0-100.266667-44.8-100.266666-100.266667v-311.466666c0-55.466667 44.8-100.266667 100.266666-100.266667h546.133334c55.466667 0 100.266667 44.8 100.266666 100.266667V379.733333c0 55.466667-44.8 100.266667-100.266666 100.266667z m-403.2 121.6c0 74.666667 61.866667 134.4 138.666666 134.4s138.666667-59.733333 138.666667-134.4v-121.6h-277.333333v121.6z m439.466666-533.333333c0-19.2-17.066667-36.266667-36.266666-36.266667H238.933333c-19.2 0-36.266667 17.066667-36.266666 36.266667V379.733333c0 19.2 17.066667 36.266667 36.266666 36.266667h546.133334c19.2 0 36.266667-17.066667 36.266666-36.266667v-311.466666zM512 352c-17.066667 0-32-14.933333-32-32v-106.666667c0-17.066667 14.933333-32 32-32s32 14.933333 32 32v106.666667c0 17.066667-14.933333 32-32 32z"  horiz-adv-x="1024" />
      
      <glyph glyph-name="unlock" unicode="&#59010;" d="M785.066667 480H381.866667v121.6c0 74.666667 61.866667 134.4 138.666666 134.4 59.733333 0 113.066667-36.266667 132.266667-91.733333 6.4-17.066667 23.466667-25.6 40.533333-19.2 17.066667 6.4 25.6 23.466667 19.2 40.533333-27.733333 81.066667-104.533333 134.4-192 134.4-110.933333 0-202.666667-89.6-202.666666-198.4v-121.6h-78.933334c-55.466667 0-100.266667-44.8-100.266666-100.266667v-311.466666c0-55.466667 44.8-100.266667 100.266666-100.266667h546.133334c55.466667 0 100.266667 44.8 100.266666 100.266667V379.733333c0 55.466667-44.8 100.266667-100.266666 100.266667z m36.266666-411.733333c0-19.2-17.066667-36.266667-36.266666-36.266667H238.933333c-19.2 0-36.266667 17.066667-36.266666 36.266667V379.733333c0 19.2 17.066667 36.266667 36.266666 36.266667h546.133334c19.2 0 36.266667-17.066667 36.266666-36.266667v-311.466666zM512 352c-17.066667 0-32-14.933333-32-32v-106.666667c0-17.066667 14.933333-32 32-32s32 14.933333 32 32v106.666667c0 17.066667-14.933333 32-32 32z"  horiz-adv-x="1024" />
      
      <glyph glyph-name="zoom-out" unicode="&#59270;" d="M320 407.990857H597.333333v58.684953H320v-58.684953zM458.678857 106.666667c80.749714 0 154.721524 28.94019 212.138667 77.043809l183.100952-183.100952 41.496381 41.447619-183.100952 183.100952a329.337905 329.337905 0 0 1 77.019428 212.187429c0 182.613333-148.041143 330.654476-330.678857 330.654476-182.613333 0-330.654476-148.041143-330.654476-330.678857 0-182.613333 148.041143-330.654476 330.678857-330.654476z m0 58.660571c-150.235429 0-272.018286 121.782857-272.018286 272.018286 0 150.186667 121.782857 271.993905 272.018286 271.993905 150.186667 0 271.993905-121.782857 271.993905-272.018286 0-150.186667-121.782857-271.993905-272.018286-271.993905z"  horiz-adv-x="1024" />
      
      <glyph glyph-name="zoom-in" unicode="&#59282;" d="M429.348571 407.990857h-109.348571v58.684953h109.32419v109.32419h58.684953v-109.32419H597.333333v-58.684953h-109.32419V298.666667h-58.684953v109.32419zM670.817524 183.686095a329.337905 329.337905 0 0 0-212.138667-77.019428c-182.613333 0-330.678857 148.041143-330.678857 330.678857 0 182.613333 148.041143 330.654476 330.678857 330.654476 182.613333 0 330.654476-148.041143 330.654476-330.678857 0-80.749714-28.94019-154.721524-77.043809-212.138667l183.100952-183.100952-41.447619-41.496381-183.100952 183.100952z m59.855238 253.659429c0 150.186667-121.782857 271.993905-272.018286 271.993905-150.186667 0-271.993905-121.782857-271.993905-272.018286 0-150.186667 121.782857-271.993905 272.018286-271.993905 150.186667 0 271.993905 121.782857 271.993905 272.018286z"  horiz-adv-x="1024" />
      
      <glyph glyph-name="shujufuwu" unicode="&#58983;" d="M914.122539 350.801004c-25.441313 0-47.304175-14.313802-58.676784-35.196267h-73.137647v2.058834l-0.147059 0.735298c0 0.392159 0.14706 0.784318 0.147059 1.225497V445.654453c0 0.294119-0.14706 0.490199-0.147059 0.735298 0 0.441179 0.14706 0.833338 0.147059 1.274516V452.370175h73.137647a66.814083 66.814083 0 0 1 125.735967 31.862915 66.814083 66.814083 0 1 1-125.784987 31.862916h-73.039607V573.694353c0 0.343139-0.245099 0.637258-0.245099 0.980398 0 0.588238 0.196079 1.127457 0.196079 1.715695 0 50.049287-60.147381 82.206322-138.137994 98.48092V727.371647a66.814083 66.814083 0 0 1-31.862915 125.784986c-37.059022 0-67.108202-30.04918-67.108203-67.108202 0-25.392293 14.313802-47.255155 35.196267-58.627765v-43.039446a718.925416 718.925416 0 0 1-136.814458 0V727.371647a66.814083 66.814083 0 0 1-31.862915 125.784986 66.814083 66.814083 0 1 1-31.862916-125.784986V674.920385c-77.990613-16.274597-138.187014-48.431632-138.187014-98.529939 0-0.539219 0.196079-1.078437 0.19608-1.666675 0-0.343139-0.196079-0.637258-0.19608-0.980398V516.096006H168.628353a66.814083 66.814083 0 0 1-125.784986-31.862916 66.814083 66.814083 0 1 1 125.784986-31.862915H241.66796v-4.754928c0-0.490199 0.14706-0.833338 0.14706-1.274516l-0.14706-0.735298v-126.030087c0-0.441179 0.14706-0.833338 0.14706-1.225496 0-0.294119-0.14706-0.490199-0.14706-0.735298v-2.058835H168.530314a66.814083 66.814083 0 0 1-125.735967-31.862916c0-37.059022 30.04918-67.157222 67.108202-67.157222 25.441313 0 47.304175 14.362822 58.676785 35.294307H241.66796v-60.294441c0-50.000268 60.196401-82.157302 138.187014-98.431899v-52.598321a66.814083 66.814083 0 0 1 31.862916-125.735967 66.814083 66.814083 0 1 1 31.862915 125.784987v42.990426a718.386198 718.386198 0 0 1 136.814458 0v-43.039446a66.814083 66.814083 0 0 1 31.862916-125.735967 66.814083 66.814083 0 1 1 31.862915 125.784987v52.549301c78.039633 16.274597 138.236034 48.382612 138.236034 98.480919v60.196401h73.039607a66.814083 66.814083 0 0 1 125.784987 31.862916c0 37.059022-30.000161 67.108202-67.059183 67.108202z m-402.109995 114.216297c75.294521 0 153.726313 11.764769 206.667773 36.372744v-16.666756l-0.09804-0.441179 0.09804-0.441179 0.04902-34.951167c-5.392186-13.921643-74.755302-48.872811-206.716793-48.872811-132.01051 0-201.422647 34.951167-206.618753 47.647314V501.390045c52.94146-24.607975 131.373252-36.372744 206.618753-36.372744zM305.393791 372.663866c52.94146-24.656995 131.373252-36.372744 206.618753-36.372744 75.294521 0 153.726313 11.764769 206.667773 36.372744l0.04902-51.814003c-5.392186-13.921643-74.755302-48.823791-206.716793-48.823791-132.01051 0-201.422647 34.902148-206.618753 47.598294v53.0395z m206.618753 251.324874c128.23598 0 197.403017-32.990373 206.128554-47.598294-8.725537-14.656941-77.941594-47.647314-206.128554-47.647313-132.01051 0-201.422647 34.951167-206.765812 46.421817 5.392186 13.921643 74.755302 48.823791 206.765812 48.82379z m0-479.953549c-132.01051 0-201.422647 34.902148-206.618753 47.549274v53.0395c52.94146-24.607975 131.373252-36.323724 206.618753-36.323724 75.294521 0 153.726313 11.764769 206.667773 36.372744l0.04902-51.814003c-5.392186-13.921643-74.755302-48.823791-206.716793-48.823791z"  horiz-adv-x="1024" />
      
      <glyph glyph-name="bushu" unicode="&#58885;" d="M732 551c-5 1.3-10-1.3-13.8-3.8L657.9 487 614 531l60.3 60.3c3.8 3.8 5 8.8 3.8 13.8-1.3 5-3.8 8.8-8.8 11.3-59 28.9-130.6 16.3-177-30.1-35.1-35.1-51.5-84.1-43.9-133.1l-18.8-17.6c-6.3-6.3-6.3-16.3 0-22.6 6.3-6.3 16.3-6.3 22.6 0l23.8 23.8c3.8 3.8 5 8.8 3.8 13.8-8.8 41.4 5 84.1 33.9 113 31.4 31.4 77.8 43.9 121.8 32.6l-54-54c-6.3-6.3-6.3-16.3 0-22.6l66.5-66.5c6.3-6.3 16.3-6.3 22.6 0l54 54c11.3-42.7 0-89.1-32.6-121.8-30.1-30.1-71.6-42.7-113-33.9-5 1.3-10 0-13.8-3.8L408.1 192c-23.9-23.8-64-23.8-89.1 0-25.1 23.9-23.8 64 0 89.1l67.8 66.5c6.3 6.3 6.3 16.3 0 22.6-6.3 6.3-16.3 6.3-22.6 0l-66.5-66.5c-36.4-37.7-36.4-96.7 0-133.1 18.8-18.8 42.7-27.6 66.5-27.6 23.8 0 47.7 8.8 66.5 27.6L580.1 320c49-7.5 97.9 8.8 133.1 43.9 46.4 46.4 59 118 30.1 178.3-1.3 5.1-6.3 8.8-11.3 8.8z m0 0M351.2 271.6c-6.3-6.3-9.9-15.3-9.9-24.3s3.6-17.1 9.9-24.3c6.3-6.3 15.3-9.9 24.3-9.9s17.1 3.6 24.3 9.9c6.3 6.3 9.9 14.4 9.9 24.3s-3.6 17.1-9.9 24.3c-6.3 6.3-15.3 9.9-24.3 9.9s-18-3.6-24.3-9.9z m35.1-23.4c0-2.7-0.9-5.4-3.6-8.1-4.5-4.5-11.7-4.5-16.2 0-1.8 1.8-3.6 4.5-3.6 8.1s0.9 5.4 3.6 8.1c1.8 1.8 4.5 3.6 8.1 3.6 3.6 0 5.4-0.9 8.1-3.6 2.7-2.7 3.6-5.4 3.6-8.1z m0 0M747 341.4c-8.8 2.5-17.6-2.5-18.8-11.3-25.1-90.4-104.2-154.4-197.1-160.7-8.8 0-15.1-7.5-15.1-16.3s7.5-15.1 15.1-15.1h1.3c106.7 7.5 197.1 80.3 226 183.3 2.5 8.8-2.6 17.6-11.4 20.1z m-450.6 47.7c0 99.2 66.5 185.8 161.9 212.1 8.8 2.5 13.8 11.3 11.3 18.8-2.5 8.8-11.3 13.8-18.8 11.3C341.6 601.3 265 502.1 265 389.1c0-8.8 7.5-16.3 16.3-16.3s15.1 7.5 15.1 16.3z m0 0M512-116c-275.7 0-500 224.3-500 500S236.3 884 512 884s500-224.3 500-500-224.3-500-500-500z m0 957.6C259.7 841.6 54.4 636.3 54.4 384S259.7-73.6 512-73.6 969.6 131.7 969.6 384 764.3 841.6 512 841.6z"  horiz-adv-x="1024" />
      
      <glyph glyph-name="check" unicode="&#59418;" d="M912 706h-69.9c-9.8 0-19.1-4.5-25.1-12.2L404.7 171.5 207 422c-6.1 7.7-15.3 12.2-25.1 12.2H112c-6.7 0-10.4-7.7-6.3-12.9l273.9-347c12.8-16.2 37.4-16.2 50.3 0l488.4 618.9c4.1 5.1 0.4 12.8-6.3 12.8z"  horiz-adv-x="1024" />
      
      <glyph glyph-name="close" unicode="&#58984;" d="M556.8 384L832 659.2c12.8 12.8 12.8 32 0 44.8-12.8 12.8-32 12.8-44.8 0L512 428.8l-275.2 277.333333c-12.8 12.8-32 12.8-44.8 0-12.8-12.8-12.8-32 0-44.8l275.2-277.333333-277.333333-275.2c-12.8-12.8-12.8-32 0-44.8 6.4-6.4 14.933333-8.533333 23.466666-8.533333s17.066667 2.133333 23.466667 8.533333L512 339.2 787.2 64c6.4-6.4 14.933333-8.533333 23.466667-8.533333s17.066667 2.133333 23.466666 8.533333c12.8 12.8 12.8 32 0 44.8L556.8 384z"  horiz-adv-x="1024" />
      
      <glyph glyph-name="Eye-Normal" unicode="&#59013;" d="M512 725.333333c169.216 0 322.986667-104.832 461.44-314.538666 9.685333-14.634667 10.666667-33.152 2.901333-48.597334l-2.901333-4.992-10.410667-15.530666C827.349333 142.336 676.949333 42.666667 512 42.666667c-169.045333 0-322.773333 104.661333-461.141333 314.026666a49.493333 49.493333 0 0 0-2.986667 49.493334l2.986667 5.12 10.410666 15.488C196.949333 625.834667 347.136 725.333333 512 725.333333z m0-42.666666c-144.768 0-279.381333-86.528-404.608-264.192l-10.666667-15.445334-10.24-15.274666a6.826667 6.826667 0 0 1 0-7.509334C217.6 181.76 359.168 85.333333 512 85.333333c144.853333 0 279.637333 86.656 404.906667 264.618667l10.666666 15.488 10.24 15.274667a5.973333 5.973333 0 0 1 0 6.570666C806.656 586.112 664.96 682.666667 512 682.666667z m0-109.696c103.04 0 186.282667-84.778667 186.282667-188.970667s-83.2-188.970667-186.282667-188.970667c-103.04 0-186.282667 84.778667-186.282667 188.970667S408.917333 572.970667 512 572.970667z m0-42.666667c-79.317333 0-143.616-65.493333-143.616-146.304s64.298667-146.304 143.616-146.304c79.317333 0 143.616 65.493333 143.616 146.304S591.317333 530.304 512 530.304z"  horiz-adv-x="1024" />
      
      <glyph glyph-name="Eye-Slash" unicode="&#59043;" d="M118.784 806.869333l2.986667-2.432 810.666666-810.666666a21.333333 21.333333 0 0 0-27.221333-32.64l-2.986667 2.432-810.666666 810.666666a21.333333 21.333333 0 0 0 27.221333 32.64z m88.789333-208.981333l30.208-30.165333c-44.544-39.424-88.021333-89.130667-130.389333-149.248l-10.666667-15.445334-10.24-15.274666a6.826667 6.826667 0 0 1 0-7.509334C217.6 181.76 359.168 85.333333 512 85.333333c57.301333 0 113.024 13.568 167.210667 40.96l31.573333-31.616C647.04 59.989333 580.778667 42.666667 512 42.666667c-169.045333 0-322.773333 104.661333-461.141333 314.026666a49.493333 49.493333 0 0 0-2.986667 49.493334l2.986667 5.12 10.410666 15.488c47.018667 68.992 95.786667 125.994667 146.304 171.093333zM512 725.333333c169.216 0 322.986667-104.832 461.44-314.538666 9.685333-14.634667 10.666667-33.152 2.901333-48.597334l-2.901333-4.992-10.410667-15.530666c-47.104-69.205333-96-126.421333-146.688-171.605334l-30.122666 30.208c44.672 39.509333 88.192 89.344 130.688 149.674667l10.666666 15.488 10.24 15.274667a5.973333 5.973333 0 0 1 0 6.570666C806.656 586.112 664.96 682.666667 512 682.666667c-57.301333 0-113.024-13.568-167.210667-40.96l-31.573333 31.573333C376.917333 708.053333 443.178667 725.333333 512 725.333333z m-169.344-262.528l32.938667-32.896c-4.693333-14.464-7.210667-29.866667-7.210667-45.909333 0-80.810667 64.298667-146.304 143.616-146.304 16.64 0 32.64 2.901333 47.488 8.192l32.597333-32.554667a183.381333 183.381333 0 0 0-80.085333-18.304c-103.04 0-186.282667 84.778667-186.282667 188.970667 0 28.117333 6.058667 54.826667 16.938667 78.805333zM512 573.013333c103.04 0 186.282667-84.778667 186.282667-188.970666 0-28.16-6.058667-54.826667-16.938667-78.848l-32.938667 32.896c4.693333 14.464 7.210667 29.866667 7.210667 45.952 0 80.810667-64.298667 146.304-143.616 146.304-16.64 0-32.682667-2.901333-47.573333-8.234667l-32.554667 32.554667A183.381333 183.381333 0 0 0 512 573.013333z"  horiz-adv-x="1024" />
      
      <glyph glyph-name="tishi1" unicode="&#58982;" d="M736.703264 472.591062a95.569009 95.569009 0 0 1-95.569009-95.569009v-396.42025a95.569009 95.569009 0 0 1 191.138018 0v396.42025a95.569009 95.569009 0 0 1-95.569009 95.569009zM736.703264 687.200829m-152.910415 0a152.910415 152.910415 0 1 1 305.82083 0 152.910415 152.910415 0 1 1-305.82083 0ZM106.578559 368.841346c0 173.132817 79.417847 332.331672 217.859113 436.807713a43.006054 43.006054 0 1 1-51.798403 68.637662C112.446496 753.430152 20.566451 569.21133 20.566451 368.841346c0-174.317873 69.536011-336.766074 195.763558-457.431506 8.333618-7.951342 19.018233-11.927012 29.702848-11.927012a43.006054 43.006054 0 0 1 29.721962 74.085096c-109.101581 104.304017-169.157146 244.656663-169.157146 395.273422zM1200.748145 874.286721a43.006054 43.006054 0 1 1-51.798403-68.637662C1287.410122 701.173018 1366.827969 541.974162 1366.827969 368.841346c0-150.616758-60.074679-290.969405-169.157146-395.254309a43.006054 43.006054 0 0 1 59.42481-62.177197c126.227547 120.665431 195.725331 283.113633 195.72533 457.431506 0 200.369985-91.860932 384.588807-252.053704 505.445375zM343.608816 373.830048c0 71.848781 23.548204 139.473412 68.140703 195.610648a47.784505 47.784505 0 0 1-74.849648 59.443923c-58.144185-73.205861-88.879179-161.416056-88.879178-255.054571 0-112.503838 47.039066-221.395167 129.018162-298.710495 9.25108-8.69678 21.025182-12.997385 32.799284-12.997385a47.784505 47.784505 0 0 1 32.799284 82.55251c-63.859212 60.208476-99.028607 141.57593-99.028607 229.174484zM1136.506657 628.865506a47.784505 47.784505 0 0 1-74.849648-59.443924 311.402059 311.402059 0 0 0 68.140703-195.591534c0-87.57944-35.169395-168.966008-99.009493-229.174484a47.784505 47.784505 0 1 1 65.56034-69.536011c83.183266 78.443043 129.018162 184.524643 129.018163 298.710495 0 93.657629-30.734993 181.829597-88.879179 255.035458z"  horiz-adv-x="1473" />
      
      <glyph glyph-name="jietu" unicode="&#59482;" d="M928.0608 896a32 32 0 0 0 31.488-26.24L960.0608 864V832h32a32 32 0 0 0 5.76-63.488L992.0608 768H960.0608v-662.144a169.856 169.856 0 0 0-159.104-169.536l-10.752-0.32H128.0608v-32a32 32 0 0 0-26.24-31.488L96.0608-128a32 32 0 0 0-31.488 26.24L64.0608-96V-64H32.0608a32 32 0 0 0-5.76 63.488L32.0608 0H64.0608V662.144a169.856 169.856 0 0 0 159.104 169.536L233.9168 832H896.0608V864a32 32 0 0 0 32 32zM896.0608 768H233.9168c-55.36 0-100.864-42.56-105.472-96.704L128.0608 662.144V0h662.144c55.36 0 100.864 42.56 105.472 96.704l0.384 9.152V768z m-240.32-290.176a32 32 0 0 0 9.984-10.752l203.008-355.2a32 32 0 0 0-27.84-47.872H183.8048a32 32 0 0 0-27.648 48.128l170.688 292.672a32 32 0 0 0 53.888 2.24l70.144-100.16a32 32 0 0 1 52.8 0.64l107.648 161.408a32 32 0 0 0 44.416 8.896z m-19.84-87.488L556.8608 271.936a96 96 0 0 0-158.528-1.792l-41.408 59.264L239.4208 128h546.304L635.9008 390.336zM288.0608 704a96 96 0 1 0 0-192 96 96 0 0 0 0 192z m0-64a32 32 0 1 1 0-64 32 32 0 0 1 0 64z"  horiz-adv-x="1024" />
      
      <glyph glyph-name="Opinion" unicode="&#58902;" d="M806.49446356 33.21142578000001H218.56652397a52.42862522 52.42862522 0 0 0-51.51945887 53.03473708V697.05480273a52.42862522 52.42862522 0 0 0 51.51945888 53.03473708h451.85595732a22.72917304 22.72917304 0 0 0 0-45.45834607H218.56652397a7.12180784 7.12180784 0 0 1-6.06111279-7.57639101v-610.80863987a7.12180784 7.12180784 0 0 1 6.0611128-7.57639102h587.92793958a7.12180784 7.12180784 0 0 1 6.06111282 7.57639102V574.01421314a22.72917304 22.72917304 0 0 0 45.45834535-1e-8v-487.76805027a52.42862522 52.42862522 0 0 0-51.51945817-53.03473708zM540.26008459 449.00376217H325.54516448a22.72917304 22.72917304 0 0 0 0 45.45834607h214.7149201a22.72917304 22.72917304 0 1 0 1e-8-45.45834607zM693.00012637 306.87066781H325.54516448a22.72917304 22.72917304 0 0 0 0 45.45834606h367.45496189a22.72917304 22.72917304 0 0 0 0-45.45834606zM609.05371482 464.15654419a22.72917304 22.72917304 0 0 0-16.06194909 38.79112213L858.16544969 768.12135026a22.72917304 22.72917304 0 0 0 32.12389746-32.12389817l-265.17368396-265.17368395a22.72917304 22.72917304 0 0 0-16.06194837-6.66722395z"  horiz-adv-x="1024" />
      
      <glyph glyph-name="gongzhonghao" unicode="&#58981;" d="M499.80416 529.53088c-28.91264 0-60.40064 20.13696-60.91776 52.14208 0 32.00512 31.49312 52.14208 60.91776 52.14208 30.96576 0 52.13184-21.6832 52.13184-52.14208 0-30.976-21.67808-52.14208-52.13184-52.14208zM268.52352 529.53088c-29.42464 0-60.91264 20.13696-60.91264 52.14208s31.488 52.14208 60.91264 52.14208c30.45888 0 52.14208-21.6832 52.14208-52.14208 0-30.976-21.6832-52.14208-52.14208-52.14208zM888.01792-22.85568c-4.13184 0-8.7808 1.03936-12.3904 3.10272l-81.57184 44.90752c-32.00512-7.74656-63.488-14.97088-95.50848-14.97088-125.96224 0-238.49984 66.59584-284.96384 167.26016-1.54624-0.51712-3.0976-0.51712-4.12672-0.51712a355.87584 355.87584 0 0 0-33.03936-1.55648c-37.1712 0-67.11296 6.1952-101.70368 13.42464l-10.32704 2.05824-107.38176-53.6832c-3.6096-2.06336-7.74144-2.5856-11.87328-2.5856-6.19008 0-12.3904 2.05824-17.03424 6.1952-7.74144 6.71744-10.84416 18.06336-7.74144 27.87328l26.84416 81.57696C63.57504 313.73824 19.69152 394.27584 19.69152 483.072c0 169.32864 160.03584 307.16928 356.20864 307.16928 172.43136 0 325.75488-107.38176 358.28224-249.86624 152.81152-16 271.03232-130.09408 271.03232-263.80288 0-70.21056-39.75168-140.928-111.50848-199.78752l19.61984-65.56672c3.09248-10.33216-0.51712-21.1712-8.77056-27.8784-4.66432-4.13184-10.85952-6.1952-16.5376-6.1952zM797.1584 78.848c4.13696 0 8.7808-1.03424 12.3904-3.0976l35.10784-19.0976-6.71744 21.6832a26.3168 26.3168 0 0 0 9.28256 28.39552c68.15232 51.10272 105.31328 110.99136 105.31328 169.32352 0 115.64032-116.66944 213.72928-254.51008 213.72928-140.42112 0-255.0272-96.02048-255.0272-213.72928s114.60608-213.72416 255.0272-213.72416c30.45376 0 61.95712 7.75168 92.92288 15.48288 2.08384 0.52224 4.1472 1.03424 6.21056 1.03424zM375.90016 737.58208c-167.7824 0-304.58368-114.60608-304.58368-255.0272 0-77.95712 40.7808-145.5872 121.3184-201.856 9.28768-6.71232 13.41952-18.59072 9.80992-29.42464l-13.41952-39.7568 59.37152 29.94688c3.6096 1.54624 7.74144 2.5856 11.35616 2.5856 1.54624 0 3.6096 0 5.16096-0.52224l18.5856-3.6096c32.00512-6.72256 59.3664-12.40064 91.89376-12.40064 6.71232 0 13.94176 0 20.64896 0.53248-3.61472 16-5.16096 32.52224-5.16096 48.00512 0 140.42112 128.03072 256.57344 288.58368 265.34912-33.0496 112.54272-161.0752 196.17792-303.5648 196.17792zM607.17568 306.00192c-22.7072 0-43.87328 21.1712-43.87328 43.8784s21.1712 43.8784 43.87328 43.8784c32.01536 0 52.1472-22.72256 52.1472-43.8784-0.00512-26.84928-26.83904-43.8784-52.1472-43.8784zM788.89984 306.00192c-22.72256 0-43.86816 21.1712-43.86816 43.8784s21.16096 43.8784 43.86816 43.8784c32.53248 0 52.6592-22.72256 52.6592-43.8784-0.51712-21.1712-20.64896-43.8784-52.6592-43.8784z"  horiz-adv-x="1024" />
      
      <glyph glyph-name="tingzhi" unicode="&#58978;" d="M436.130909 532.945455a46.545455 46.545455 0 0 1-46.545454-46.545455v-204.8a46.545455 46.545455 0 0 1 46.545454-46.545455h204.8a46.545455 46.545455 0 0 1 46.545455 46.545455V486.4a46.545455 46.545455 0 0 1-46.545455 46.545455h-204.8zM925.044364 214.016a46.359273 46.359273 0 0 1-63.581091-16.756364C793.506909 81.082182 673.792 11.636364 541.230545 11.636364c-205.358545 0-372.363636 167.005091-372.363636 372.363636s167.005091 372.363636 372.363636 372.363636c132.561455 0 252.276364-69.445818 320.232728-185.623272a46.545455 46.545455 0 1 1 80.337454 46.917818C856.994909 762.88 707.211636 849.454545 541.230545 849.454545c-256.558545 0-465.454545-208.802909-465.454545-465.454545s208.896-465.454545 465.454545-465.454545c166.074182 0 315.764364 86.574545 400.570182 231.796363a46.545455 46.545455 0 0 1-16.756363 63.674182z"  horiz-adv-x="1024" />
      
      <glyph glyph-name="qidong" unicode="&#58979;" d="M464.151273 582.935273a46.545455 46.545455 0 0 1-27.089455-42.263273v-313.530182a46.545455 46.545455 0 0 1 76.8-35.374545l183.389091 156.672a46.638545 46.638545 0 0 1 0 70.749091L513.861818 576.046545a46.08 46.08 0 0 1-49.710545 6.888728zM915.549091 213.829818a46.266182 46.266182 0 0 1-63.581091-16.756363c-67.956364-116.177455-187.764364-185.623273-320.232727-185.623273-205.451636 0-372.363636 167.005091-372.363637 372.363636s166.912 372.363636 372.363637 372.363637c132.561455 0 252.276364-69.352727 320.232727-185.623273a46.545455 46.545455 0 1 1 80.337455 46.917818A466.385455 466.385455 0 0 1 531.642182 849.268364c-256.558545 0-465.454545-208.802909-465.454546-465.454546s208.896-465.454545 465.454546-465.454545a466.571636 466.571636 0 0 1 400.663273 231.796363 46.545455 46.545455 0 0 1-16.756364 63.674182z"  horiz-adv-x="1024" />
      
      <glyph glyph-name="tiaoguo" unicode="&#58980;" d="M533.131636 206.010182m-139.636363 0a139.636364 139.636364 0 1 1 279.272727 0 139.636364 139.636364 0 1 1-279.272727 0ZM953.157818 337.082182v71.028363a293.888 293.888 0 0 1-293.422545 293.515637H408.948364A293.888 293.888 0 0 1 115.339636 408.203636v-70.376727c-55.202909-18.618182-95.325091-70.283636-95.325091-131.723636 0-76.986182 62.650182-139.636364 139.636364-139.636364s139.636364 62.650182 139.636364 139.636364c0 59.857455-38.074182 110.592-91.042909 130.327272L208.523636 337.454545v70.749091c0 110.498909 89.925818 200.424727 200.517819 200.424728h250.786909c110.405818 0 200.331636-89.925818 200.331636-200.424728v-71.028363c-53.992727-19.269818-93.090909-70.469818-93.090909-131.072 0-76.986182 62.650182-139.636364 139.636364-139.636364s139.636364 62.650182 139.636363 139.636364c0 60.602182-39.098182 111.802182-93.090909 131.072z"  horiz-adv-x="1066" />
      
      <glyph glyph-name="tableheader-set" unicode="&#59592;" d="M128 544h704v-64h64V768a32 32 0 0 1-32 32H96a32 32 0 0 1-32-32v-704a32 32 0 0 1 32-32h352v64H128z m704 192v-128h-192V736z m-256 0v-128h-192V736z m-256 0v-128H128V736z m635.52-496l-112 192a32 32 0 0 1-27.52 16h-224a32 32 0 0 1-27.52-16l-112-192a32 32 0 0 1 0-32l112-192a32 32 0 0 1 27.52-16h224a32 32 0 0 1 27.52 16l112 192a32 32 0 0 1 0 32zM797.76 64h-187.52l-93.12 160 93.12 160h187.52l93.12-160zM704 320a96 96 0 1 1 96-96 96 96 0 0 1-96 96z m0-128a32 32 0 1 0 32 32 32 32 0 0 0-32-32z"  horiz-adv-x="1024" />
      
      <glyph glyph-name="lishibanben" unicode="&#58975;" d="M961.180964 104.586461c-46.541717 0-85.726675-30.499896-99.724952-72.392549h-215.747167c-13.998277 41.892654-53.183235 72.392549-99.776041 72.392549s-85.726675-30.499896-99.724951-72.392549H230.409596a105.446875 105.446875 0 0 1-99.77604 72.392549A105.753407 105.753407 0 0 1 25.033415-1.01368a105.753407 105.753407 0 0 1 105.65123-105.651229c46.592805 0 85.777763 30.499896 99.77604 72.443638h215.747168c13.998277-41.892654 53.183235-72.443638 99.724951-72.443638s85.777763 30.499896 99.776041 72.443638h215.747167a105.395787 105.395787 0 0 1 99.724952-72.443638 105.753407 105.753407 0 0 1 105.702318 105.651229 105.753407 105.753407 0 0 1-105.702318 105.600141zM237.562001 286.768417H428.633374l93.747585-93.747585a33.207592 33.207592 0 0 1 47.001514 0l93.747585 93.747585h191.17355c39.542578 0 71.728398 32.185819 71.728398 71.677309v438.340208c0 39.49149-32.185819 71.62622-71.728398 71.626221H237.562001c-39.49149 0-71.677309-32.134731-71.677309-71.626221v-438.340208c0-39.49149 32.185819-71.677309 71.677309-71.677309z m-5.262126 510.017517c0 2.758785 2.452253 5.262126 5.211037 5.262126h616.843785c2.809873 0 5.262126-2.503342 5.262126-5.262126v-438.340208a5.415392 5.415392 0 0 0-5.262126-5.262126h-204.916384a33.207592 33.207592 0 0 1-23.500757-9.706834l-80.004752-80.004751-79.953662 80.004751a33.207592 33.207592 0 0 1-23.500757 9.706834H237.510912a5.415392 5.415392 0 0 0-5.211037 5.262126v438.340208zM584.964497 413.979037l126.801911 319.303765h-86.850624l-60.795437-162.972642a618.682974 618.682974 0 0 1-8.991594-27.076959 770.416123 770.416123 0 0 0-8.685063-27.332402l-17.472302 54.46045-60.131284 162.972641H380.099201l128.743278-319.354853h76.122018z"  horiz-adv-x="1098" />
      
      <glyph glyph-name="ziyunhang" unicode="&#58976;" d="M900.774351 287.880353a32.867779 32.867779 0 0 1-32.867779-32.867779v-144.749699a32.867779 32.867779 0 1 1 65.735558 0V255.012574a32.867779 32.867779 0 0 1-32.867779 32.867779zM1012.327593 287.880353a32.867779 32.867779 0 0 1-32.867779-32.867779v-144.749699a32.867779 32.867779 0 1 1 65.735558 0V255.012574a32.867779 32.867779 0 0 1-32.867779 32.867779zM956.58384 420.468973c-131.142438 0-237.896984-106.688811-237.896984-237.831249s106.754546-237.831249 237.896984-237.831248c131.076703 0 237.765513 106.688811 237.765513 237.831248s-106.688811 237.831249-237.765513 237.831249z m0-409.926939c-94.922146 0-172.161426 77.173545-172.161426 172.09569s77.239281 172.095691 172.161426 172.095691 172.029955-77.173545 172.029955-172.095691-77.173545-172.095691-172.029955-172.09569zM623.633239 215.505503H489.269758c-25.110983 0-32.210423 20.049345-33.788077 26.162753s-5.193109 27.08305 16.696832 39.309863l299.096789 166.836846c40.624575 22.678768 60.0823 68.233509 48.447106 113.328103a99.523635 99.523635 0 0 1-97.485832 75.332949H548.628967a32.867779 32.867779 0 1 1 0-65.735558h173.607609c25.110983 0 32.210423-20.049345 33.853812-26.162752s5.061638-27.148785-16.828303-39.375599l-299.096789-166.771111c-40.624575-22.744503-60.0823-68.299245-48.315635-113.328102s50.879322-75.332949 97.420097-75.33295h134.363481a32.867779 32.867779 0 1 1 0 65.735558zM436.023956 603.608238c0 23.007445-11.437987 44.371502-30.501299 57.058464L180.969991 811.464072a68.167774 68.167774 0 0 1-70.534254 3.615456 68.562187 68.562187 0 0 1-36.54897-60.739656v-301.529004c0-25.505397 14.001674-48.775784 36.286028-60.608185a68.36498 68.36498 0 0 1 70.797196 3.483985l224.486931 150.731635c19.063312 12.752698 30.567034 34.18249 30.567034 57.189935z"  horiz-adv-x="1268" />
      
      <glyph glyph-name="zitiaoshi" unicode="&#58977;" d="M935.942875 264.741436a32.867779 32.867779 0 0 1-32.867779-32.867779v-144.749698a32.867779 32.867779 0 1 1 65.735558 0v144.749698a32.867779 32.867779 0 0 1-32.867779 32.867779zM1047.364646 264.741436a32.867779 32.867779 0 0 1-32.867779-32.867779v-144.749698a32.867779 32.867779 0 1 1 65.735558 0v144.749698a32.867779 32.867779 0 0 1-32.867779 32.867779zM991.620893 397.330057c-131.142438 0-237.831249-106.688811-237.831249-237.831249s106.688811-237.831249 237.831249-237.831249 237.831249 106.688811 237.831248 237.831249-106.688811 237.831249-237.831248 237.831249z m0-409.92694c-94.85641 0-172.095691 77.173545-172.095691 172.095691s77.239281 172.095691 172.095691 172.095691 172.095691-77.173545 172.09569-172.095691-77.173545-172.095691-172.09569-172.095691zM427.412598 385.234714l23.862008-31.421596a26.294223 26.294223 0 0 1 41.939286 31.684539l-32.736308 43.253997V436.50845a130.485083 130.485083 0 0 1 123.319907 129.959198v28.332025A130.419347 130.419347 0 0 1 462.778328 724.430194l35.694408 47.19813a32.867779 32.867779 0 1 1-52.325504 39.638542l-26.885843-35.497202H305.14446v37.666475a32.867779 32.867779 0 1 1-65.735558 0v-37.600739h-11.503722a172.227162 172.227162 0 0 1-84.864606-23.007445l-48.184164 48.118428a32.867779 32.867779 0 0 1-46.475039-46.540775l44.305766-44.24003a172.687311 172.687311 0 0 1-39.178393-108.792349v-41.676344c0-43.714146 16.696832-83.221216 43.385469-113.853986l-43.911353-43.845617a26.294223 26.294223 0 1 1 37.206326-37.140591l46.803717 46.672246c26.557165-16.302418 57.518613-26.294223 90.912277-26.294223h18.077278v-37.600739a26.294223 26.294223 0 0 1 52.588446 0v37.666475h128.841694zM126.475214 521.635997H270.173143c26.294223 0 47.526808 21.364056 47.526809 47.65828v22.678767c0 26.294223-21.298321 47.592544-47.526809 47.592544H126.475214a108.529406 108.529406 0 0 0 101.429966 70.59999h166.836846V450.970272H227.90518a108.529406 108.529406 0 0 0-101.429966 70.534254zM658.801762 192.366587H524.372546c-25.110983 0-32.210423 20.049345-33.853812 26.162752s-5.061638 27.148785 16.828303 39.375599l299.031053 166.836847c40.756046 22.678768 60.148036 68.167774 48.381371 113.262366S803.945874 613.337101 757.339364 613.337101h-81.183414a32.867779 32.867779 0 1 1 0-65.735558h81.183414c25.110983 0 32.210423-20.049345 33.853812-26.162753s5.061638-27.08305-16.762567-39.309863L475.268084 315.292081a99.457899 99.457899 0 0 1-48.447106-113.262367 99.523635 99.523635 0 0 1 97.485833-75.398685h134.429216a32.867779 32.867779 0 1 1 0 65.735558z"  horiz-adv-x="1268" />
      
      <glyph glyph-name="datasource" unicode="&#58968;" d="M511.995248 622.194582c-44.317555 0-433.155933 3.46833-433.155933 122.595846C78.839315 863.966115 467.677692 867.434445 511.995248 867.434445s433.204104-3.46833 433.204104-122.644017c0-119.127516-388.886549-122.595846-433.204104-122.595846zM143.725997 744.790428c24.470998-23.266717 157.182808-59.973214 368.269251-59.973214s343.846425 36.706497 368.317422 59.973214c-24.470998 23.314888-157.230979 60.021385-368.317422 60.021385s-343.798253-36.706497-368.269251-60.021385zM511.995248-99.410832c-44.317555 0-433.155933 3.46833-433.155933 122.595847v240.567251a31.311316 31.311316 0 1 0 62.622633 0v-240.567251c12.524527-19.17216 147.982098-59.925042 370.5333-59.925043s358.056945 40.752882 371.352212 63.586058l-0.818912 236.906236a31.311316 31.311316 0 1 0 62.670804 0v-240.567251c0-119.127516-388.886549-122.595846-433.204104-122.595847zM511.995248 141.782647c-44.317555 0-433.155933 3.46833-433.155933 122.595846V504.849402a31.311316 31.311316 0 0 0 62.622633 0v-240.51908c12.524527-19.17216 147.982098-59.973214 370.5333-59.973214s358.056945 40.801054 371.352212 63.586058l-0.818912 236.906236a31.311316 31.311316 0 0 0 62.670804 0v-240.51908c0-119.127516-388.886549-122.595846-433.204104-122.595847zM511.995248 381.675501c-44.317555 0-433.155933 3.371988-433.155933 122.595846V744.790428a31.311316 31.311316 0 0 0 62.622633 0v-240.519081c12.524527-19.17216 147.982098-60.021385 370.5333-60.021385s358.056945 40.849225 371.352212 63.682401l-0.818912 236.858065a31.311316 31.311316 0 0 0 62.670804 0v-240.519081c0-119.175687-388.886549-122.595846-433.204104-122.595846z"  horiz-adv-x="1024" />
      
      <glyph glyph-name="wenjian1" unicode="&#58969;" d="M838.919768-91.02783H185.092415a91.368181 91.368181 0 0 0-91.298328 91.263401V659.301925a91.403108 91.403108 0 0 0 91.333255 91.263401H838.884841a91.403108 91.403108 0 0 0 91.333255-91.263401v-659.066354a91.368181 91.368181 0 0 0-91.298328-91.263401zM185.092415 680.711976a21.479905 21.479905 0 0 1-21.444978-21.410051v-659.066354c0-11.805216 9.639762-21.410052 21.444978-21.410052h653.827353a21.444978 21.444978 0 0 1 21.444978 21.410052V659.301925a21.479905 21.479905 0 0 1-21.479905 21.410051H185.127342zM864.486094 714.520998h-69.85335V767.74925a21.444978 21.444978 0 0 1-21.444978 21.410052H250.78949a21.444978 21.444978 0 0 1-21.410051-21.410052v-53.228252h-69.85335V767.74925a91.368181 91.368181 0 0 0 91.263401 91.263401H773.222692a91.368181 91.368181 0 0 0 91.298328-91.263401v-53.228252zM194.452764 714.486071V767.74925c0 31.119667 25.217059 56.336726 56.336726 56.336727H773.222692c31.119667 0 56.371653-25.217059 56.371653-56.336727v-53.263179M721.601067 509.641123H302.411116a34.926675 34.926675 0 1 0 0 69.85335h419.189951a34.926675 34.926675 0 1 0 0-69.85335zM721.601067 367.105363H302.411116a34.926675 34.926675 0 1 0 0 69.85335h419.189951a34.926675 34.926675 0 1 0 0-69.85335zM721.601067 224.534677H302.411116a34.926675 34.926675 0 1 0 0 69.853349h419.189951a34.926675 34.926675 0 1 0 0-69.853349zM721.601067 81.998917H302.411116a34.926675 34.926675 0 1 0 0 69.853349h419.189951a34.926675 34.926675 0 1 0 0-69.853349z"  horiz-adv-x="1024" />
      
      <glyph glyph-name="shujukushu" unicode="&#58970;" d="M513.647581 644.056758c-46.612575 0-455.161234 3.289356-455.161234 117.668004S467.008263 879.419509 513.620838 879.419509s455.187977-3.262613 455.187977-117.668005-408.628887-117.668004-455.187977-117.668004z m-400.606069 117.668004c19.522192-24.175426 162.729501-64.182548 400.606069-64.182548s381.083877 40.007121 400.632811 64.182548c-19.548934 24.202169-162.782987 64.182548-400.632811 64.182547s-381.083877-39.980379-400.606069-64.182547zM85.202332 761.724762a428.445249 90.925276 0 1 1 856.890497 0 428.445249 90.925276 0 1 1-856.890497 0ZM513.647581 392.247229c-46.612575 0-455.161234 3.289356-455.161234 117.668004V763.195612h53.485456v-253.253636c11.606344-21.608124 156.231018-64.20929 401.675778-64.209291s390.096176 42.601166 402.130404 66.428937l-0.427884 251.03399h53.485457v-253.253636c0-114.405391-408.628887-117.694747-455.187977-117.694747zM513.647581-111.425314c-46.612575 0-455.161234 3.289356-455.161234 117.668004v253.307121h53.485456v-253.307121c11.606344-21.581382 156.257761-64.182548 401.675778-64.182548s390.096176 42.601166 402.130404 66.428937l-0.427884 251.060732h53.485457v-253.307121c0-114.378649-408.628887-117.668004-455.187977-117.668004zM513.647581 140.410957c-46.612575 0-455.161234 3.289356-455.161234 117.668004v253.280379h53.485456v-253.253636c11.606344-21.608124 156.257761-64.20929 401.675778-64.20929s390.096176 42.601166 402.130404 66.428936l-0.427884 251.03399h53.485457v-253.253636c0-114.405391-408.628887-117.694747-455.187977-117.694747zM942.092829 237.032434c-123.390948-42.788365-272.40143-69.878749-428.445248-69.878749-129.595261 0-302.032372 26.475301-428.445249 69.878749v239.427646a1604.24278 1604.24278 0 0 1 392.101881-57.898007 1606.088028 1606.088028 0 0 1 464.788616 57.898007v-239.427646z"  horiz-adv-x="1027" />
      
      <glyph glyph-name="wenjianxitongshu" unicode="&#58971;" d="M901.443882 303.247429h-53.485456V688.075288a26.395073 26.395073 0 0 1-26.36833 26.341587H205.731808a26.395073 26.395073 0 0 1-26.341587-26.36833v-384.827858h-53.485457V688.075288A79.907272 79.907272 0 0 0 205.731808 767.902332h615.885031a79.907272 79.907272 0 0 0 79.827043-79.853787v-384.827858zM821.830781 733.858839h-53.485457V784.028197a26.395073 26.395073 0 0 1-26.341587 26.36833H285.34491a26.395073 26.395073 0 0 1-26.36833-26.36833v-50.169358h-53.485456V784.028197A79.907272 79.907272 0 0 0 285.34491 863.908726h456.658827a79.907272 79.907272 0 0 0 79.827044-79.853786v-50.169358zM232.233852 733.885582V784.028197c0 29.336773 23.774285 53.111058 53.084315 53.111058h456.68557c29.31003 0 53.084315-23.801028 53.084315-53.111058v-50.142615M711.089143 553.265195H408.281232a26.742728 26.742728 0 1 0 0 53.485457H711.089143a26.742728 26.742728 0 1 0 0-53.485457zM711.089143 390.58918H316.232761a26.742728 26.742728 0 1 0 0 53.485456H711.089143a26.742728 26.742728 0 1 0 0-53.485456zM955.33048-95.861047H71.964682a59.449085 59.449085 0 0 0-59.368857 59.368857V278.349949c0 32.759842 26.609015 59.422342 59.368857 59.422342h157.380955c23.159203 0 44.339443-13.612049 54.020311-34.658575l27.999637-61.16062a5.8834 5.8834 0 0 1 5.375288-3.476554h393.840158c2.299875 0 4.41255 1.337136 5.375289 3.476554l28.026379 61.16062a59.582798 59.582798 0 0 0 54.020311 34.658575h157.32747c32.759842 0 59.422342-26.6625 59.422342-59.422342v-314.788653c0-32.759842-26.6625-59.395599-59.422342-59.3956zM71.964682 284.260092c-3.262613 0-5.8834-2.674273-5.883401-5.936885v-314.788654c0-3.262613 2.620787-5.910143 5.883401-5.910143h883.365798a5.910143 5.910143 0 0 1 5.936885 5.8834V278.349949c0 3.262613-2.674273 5.936886-5.936885 5.936886H798.00301a5.936886 5.936886 0 0 1-5.348546-3.476555l-28.053122-61.160619a59.582798 59.582798 0 0 0-54.020311-34.658576H316.767616c-23.185945 0-44.392929 13.638791-54.020311 34.712061l-27.999637 61.107134a5.936886 5.936886 0 0 1-5.375288 3.476555H71.937939zM768.318581 291.935255l-28.053121-61.187362a32.652871 32.652871 0 0 0-29.684429-19.040822H316.740873c-12.756281 0-24.362625 7.434478-29.684428 19.040822l-28.02638 61.187362a32.652871 32.652871 0 0 1-29.684428 19.067565H71.964682c-18.051342 0-32.679614-14.628272-32.679614-32.679613v-314.761911c0-18.051342 14.628272-32.679614 32.679614-32.679614h883.365798c18.024599 0 32.652871 14.628272 32.652871 32.652871V278.323207c0 18.051342-14.628272 32.679614-32.652871 32.679613H798.00301c-12.783024 0-24.389368-7.461221-29.684429-19.067565z"  horiz-adv-x="1027" />
      
      <glyph glyph-name="jilushu" unicode="&#58972;" d="M313.531746 442.416587c-142.538741 0-258.495211-115.983212-258.495211-258.521954s115.983212-258.495211 258.495211-258.495211c142.538741 0 258.521954 115.95647 258.521953 258.495211s-115.95647 258.521954-258.521953 258.521954zM983.731257 827.324674H43.590647a26.742728 26.742728 0 1 0 0 53.485456h940.14061a26.742728 26.742728 0 1 0 0-53.485456zM983.731257 592.282836H43.590647a26.742728 26.742728 0 1 0 0 53.485456h940.14061a26.742728 26.742728 0 1 0 0-53.485456zM983.731257 357.240998h-241.647292a26.742728 26.742728 0 1 0 0 53.485456h241.647292a26.742728 26.742728 0 1 0 0-53.485456zM983.731257 122.225902h-241.647292a26.742728 26.742728 0 1 0 0 53.485456h241.647292a26.742728 26.742728 0 1 0 0-53.485456zM983.731257-112.815936H641.023195a26.742728 26.742728 0 1 0 0 53.485456h342.708062a26.742728 26.742728 0 1 0 0-53.485456zM313.531746-112.815936C149.946477-112.815936 16.847919 20.309365 16.847919 183.894633c0 163.612011 133.098558 296.737312 296.683827 296.737312 163.612011 0 296.737312-133.125301 296.737312-296.737312 0-163.585268-133.125301-296.710569-296.737312-296.710569z m0 539.935682c-134.088039 0-243.19837-109.110331-243.198371-243.225113 0-134.114782 109.110331-243.225113 243.198371-243.225113 134.141525 0 243.251856 109.110331 243.251855 243.225113 0 134.141525-109.110331 243.251856-243.251855 243.251856zM429.301016 157.151905h-115.76927a26.742728 26.742728 0 1 0 0 53.485456h115.796013a26.742728 26.742728 0 1 0 0-53.485456zM313.531746 157.151905a26.742728 26.742728 0 0 0-26.742729 26.742728v130.156858a26.742728 26.742728 0 1 0 53.485457 0v-130.156858a26.742728 26.742728 0 0 0-26.742728-26.742728z"  horiz-adv-x="1027" />
      
      <glyph glyph-name="zijieshu" unicode="&#58973;" d="M458.049449 443.085155a26.742728 26.742728 0 0 0-26.742728 26.742728V671.92268a26.742728 26.742728 0 0 0 53.485456 0v-202.094797a26.742728 26.742728 0 0 0-26.742728-26.742728zM820.921528 443.085155a26.742728 26.742728 0 0 0-26.742728 26.742728V671.92268a26.742728 26.742728 0 1 0 53.485456 0v-202.094797a26.742728 26.742728 0 0 0-26.742728-26.742728zM287.216901 436.132046h-26.207874a81.45835 81.45835 0 0 0-81.378122 81.351379V624.293881A81.45835 81.45835 0 0 0 261.009027 705.672003h26.234617a81.45835 81.45835 0 0 0 81.351379-81.351379v-106.837199a81.45835 81.45835 0 0 0-81.351379-81.351379z m-26.207874 216.054501c-15.377069 0-27.892666-12.515597-27.892665-27.865923v-106.837199c0-15.377069 12.515597-27.865923 27.865923-27.865923h26.234616c15.377069 0 27.865923 12.488854 27.865923 27.865923V624.293881c0 15.350326-12.488854 27.865923-27.865923 27.865923h-26.207874zM651.131946 436.132046h-26.261359a81.431607 81.431607 0 0 0-81.351379 81.351379V624.293881a81.431607 81.431607 0 0 0 81.351379 81.35138h26.261359a81.431607 81.431607 0 0 0 81.35138-81.35138v-106.837199a81.431607 81.431607 0 0 0-81.35138-81.351379z m-26.261359 216.054501c-15.350326 0-27.865923-12.515597-27.865922-27.865923v-106.837199c0-15.377069 12.515597-27.865923 27.865922-27.865923h26.261359c15.350326 0 27.865923 12.488854 27.865923 27.865923V624.293881c0 15.350326-12.515597 27.865923-27.865923 27.865923h-26.261359zM567.373722 69.328786a26.742728 26.742728 0 0 0-26.742729 26.742728v202.068054a26.742728 26.742728 0 1 0 53.485457 0v-202.068054a26.742728 26.742728 0 0 0-26.742728-26.742728zM206.373634 69.328786a26.742728 26.742728 0 0 0-26.742729 26.742728v202.068054a26.742728 26.742728 0 1 0 53.485457 0v-202.068054a26.742728 26.742728 0 0 0-26.742728-26.742728zM766.286134 62.348934h-26.207874a81.431607 81.431607 0 0 0-81.351379 81.351379v106.837199a81.431607 81.431607 0 0 0 81.351379 81.351379h26.207874a81.45835 81.45835 0 0 0 81.378122-81.351379v-106.837199a81.45835 81.45835 0 0 0-81.378122-81.351379z m-26.207874 216.081243c-15.350326 0-27.865923-12.54234-27.865922-27.892665v-106.837199c0-15.350326 12.515597-27.865923 27.865922-27.865923h26.207874c15.377069 0 27.892666 12.515597 27.892666 27.865923v106.837199c0 15.350326-12.515597 27.865923-27.892666 27.865923h-26.207874zM398.653849 62.348934h-26.207873a81.431607 81.431607 0 0 0-81.378122 81.351379v106.837199a81.431607 81.431607 0 0 0 81.351379 81.351379h26.234616a81.431607 81.431607 0 0 0 81.35138-81.351379v-106.837199a81.431607 81.431607 0 0 0-81.35138-81.351379z m-26.207873 216.081243c-15.377069 0-27.892666-12.54234-27.892666-27.892665v-106.837199c0-15.350326 12.515597-27.865923 27.865923-27.865923h26.234616c15.377069 0 27.865923 12.515597 27.865923 27.865923v106.837199c0 15.350326-12.488854 27.865923-27.865923 27.865923h-26.207873zM287.216901 462.848031h-26.207874a54.608651 54.608651 0 0 0-54.635393 54.635394V624.293881c0 30.165797 24.469596 54.635394 54.608651 54.635394h26.234616c30.165797 0 54.608651-24.469596 54.608651-54.635394v-106.810456a54.608651 54.608651 0 0 0-54.608651-54.635394zM651.105204 462.848031h-26.207874a54.608651 54.608651 0 0 0-54.635394 54.635394V624.293881c0 30.165797 24.442854 54.635394 54.608651 54.635394h26.234617c30.165797 0 54.608651-24.469596 54.608651-54.635394v-106.810456a54.608651 54.608651 0 0 0-54.608651-54.635394zM740.07826 305.146163h26.207874c30.19254 0 54.635394-24.469596 54.635394-54.608651v-106.837199a54.608651 54.608651 0 0 0-54.608651-54.608651h-26.234617a54.608651 54.608651 0 0 0-54.608651 54.608651v106.837199c0 30.139055 24.442854 54.608651 54.608651 54.608651zM372.419233 305.146163h26.234616c30.165797 0 54.608651-24.469596 54.608651-54.608651v-106.837199a54.608651 54.608651 0 0 0-54.608651-54.608651h-26.207873a54.608651 54.608651 0 0 0-54.635394 54.608651v106.837199c0 30.139055 24.469596 54.608651 54.608651 54.608651zM906.578486-112.815936H120.716675A104.029213 104.029213 0 0 0 16.847919-8.920437V776.941374A104.00247 104.00247 0 0 0 120.716675 880.81013H906.578486a104.00247 104.00247 0 0 0 103.868757-103.868756v-785.861811a104.00247 104.00247 0 0 0-103.868757-103.895499zM120.716675 827.324674c-27.785695 0-50.410043-22.597605-50.410043-50.3833v-785.861811c0-27.812437 22.624348-50.410043 50.410043-50.410043H906.578486c27.812437 0 50.3833 22.624348 50.3833 50.410043V776.941374c0 27.785695-22.597605 50.3833-50.3833 50.3833H120.716675z"  horiz-adv-x="1027" />
      
      <glyph glyph-name="liufuwushu" unicode="&#58974;" d="M121.305015 678.742076c-55.170248 0-100.017804 44.874298-100.017803 100.017804S66.134767 878.804426 121.305015 878.804426s100.044546-44.874298 100.044546-100.017804-44.901041-100.044546-100.044546-100.044546z m0 146.576893c-25.673019 0-46.532347-20.886071-46.532347-46.532347s20.859328-46.55909 46.532347-46.55909 46.55909 20.859328 46.55909 46.532348-20.886071 46.55909-46.55909 46.559089zM121.305015 778.75988m-73.301818 0a73.301818 73.301818 0 1 1 146.603636 0 73.301818 73.301818 0 1 1-146.603636 0ZM642.574273 642.02431c-55.170248 0-100.017804 44.874298-100.017803 100.044546s44.847555 100.017804 100.017803 100.017804 100.017804-44.874298 100.017804-100.017804-44.874298-100.044546-100.017804-100.044546z m0 146.576894a46.585833 46.585833 0 0 1 0-93.091437 46.585833 46.585833 0 0 1 0 93.091437zM905.990146 452.284654c-55.170248 0-100.017804 44.901041-100.017803 100.044546s44.847555 100.017804 100.017803 100.017803 100.017804-44.847555 100.017804-100.017803-44.874298-100.044546-100.017804-100.044546z m0 146.576893a46.585833 46.585833 0 0 1 0-93.091437c25.673019 0 46.532347 20.886071 46.532347 46.55909s-20.859328 46.532347-46.532347 46.532347zM832.688328 525.613214h-228.463127a153.636974 153.636974 0 0 0-134.569408 79.506131l-52.282034 95.043656a100.124774 100.124774 0 0 1-87.716148 51.880893h-135.050778v53.485456h135.050778a153.583488 153.583488 0 0 0 134.569408-79.586359l52.282034-95.016913a100.151517 100.151517 0 0 1 87.716148-51.85415h228.463127v-53.485456zM979.291964 715.326128h-263.415873a26.742728 26.742728 0 1 0 0 53.485457h263.415873a26.742728 26.742728 0 1 0 0-53.485457zM121.305015-110.810232c-55.170248 0-100.017804 44.874298-100.017803 100.017804s44.847555 100.071289 100.017803 100.071289 100.044546-44.901041 100.044546-100.044546-44.901041-100.017804-100.044546-100.017804z m0 146.603636a46.585833 46.585833 0 1 1 46.55909-46.559089c0 25.673019-20.886071 46.532347-46.55909 46.532347zM121.305015-10.765685m-73.301818 0a73.301818 73.301818 0 1 1 146.603636 0 73.301818 73.301818 0 1 1-146.603636 0ZM642.574273-74.119209c-55.170248 0-100.017804 44.927783-100.017803 100.071289s44.847555 100.017804 100.017803 100.017804 100.017804-44.874298 100.017804-100.017804-44.874298-100.071289-100.017804-100.071289z m0 146.603637a46.585833 46.585833 0 0 1 0-93.11818 46.585833 46.585833 0 0 1 0 93.091437zM905.990146 115.647191c-55.170248 0-100.017804 44.874298-100.017803 100.017803s44.847555 100.017804 100.017803 100.017804 100.017804-44.847555 100.017804-100.017804-44.874298-100.017804-100.017804-100.017803z m0 146.55015a46.585833 46.585833 0 0 1 0-93.064694c25.673019 0 46.532347 20.859328 46.532347 46.532347s-20.859328 46.532347-46.532347 46.532347zM329.657611-37.508414h-135.050778v53.485457h135.050778a100.124774 100.124774 0 0 1 87.716148 51.880893l52.282034 95.016913a153.583488 153.583488 0 0 0 134.569408 79.532874h228.463127v-53.485457h-228.463127a100.124774 100.124774 0 0 1-87.716148-51.880893l-52.282034-95.016913a153.583488 153.583488 0 0 0-134.569408-79.532874zM979.291964-0.790648h-263.415873a26.742728 26.742728 0 1 0 0 53.485457h263.415873a26.742728 26.742728 0 1 0 0-53.485457zM121.305015 283.965922c-55.170248 0-100.017804 44.874298-100.017803 100.017804s44.847555 100.071289 100.017803 100.071289 100.044546-44.927783 100.044546-100.071289-44.901041-100.017804-100.044546-100.017804z m0 146.603636a46.585833 46.585833 0 1 1 46.55909-46.55909c0 25.673019-20.886071 46.532347-46.55909 46.532348zM471.260356 283.965922c-55.170248 0-100.044546 44.874298-100.044546 100.017804s44.874298 100.071289 100.017804 100.071289 100.044546-44.927783 100.044546-100.071289-44.874298-100.017804-100.017804-100.017804z m0 146.603636c-25.673019 0-46.55909-20.912813-46.559089-46.585832s20.859328-46.532347 46.532347-46.532347a46.585833 46.585833 0 0 1 0 93.118179zM471.260356 384.010468m-73.301818 0a73.301818 73.301818 0 1 1 146.603637 0 73.301818 73.301818 0 1 1-146.603637 0ZM194.606833 410.726454h203.351705v-53.485456H194.606833z"  horiz-adv-x="1027" />
      
      <glyph glyph-name="moxing" unicode="&#58965;" d="M512.007118-82.580803c-10.579252 0-21.158504 2.691213-30.624151 8.16644l-351.110523 202.768995a61.2019 61.2019 0 0 0-30.57775 52.89626v405.53799c0 21.715307 11.739258 42.038606 30.62415 52.89626L481.382967 842.407737c18.838492 10.904054 42.270607 10.950454 61.155501 0l351.156923-202.768995c18.838492-10.811253 30.53135-31.088153 30.53135-52.89626v-405.53799c0-21.761707-11.692857-42.038606-30.53135-52.89626l-351.203324-202.768995a60.784298 60.784298 0 0 0-30.531349-8.16644zM169.295036 186.076516l342.712082-197.850571 342.665682 197.850571V581.870458L512.007118 779.674629 169.295036 581.870458v-395.701142zM503.794277 667.942881L304.087697 552.731115a16.425681 16.425681 0 0 1 0-28.48974l199.70658-115.211765c5.104025-2.923214 11.321656-2.923214 16.425681 0l199.66018 115.211765a16.425681 16.425681 0 0 1 0 28.48974l-199.66018 115.211766a16.425681 16.425681 0 0 1-16.425681 0zM540.357657 351.864529v-219.705078c0-12.24966 13.270465-19.905698 23.849717-13.780868l180.357685 104.075711a15.915278 15.915278 0 0 1 7.934439 13.780868V455.94024a15.915278 15.915278 0 0 1-23.849717 13.780868l-180.311285-104.075711a15.915278 15.915278 0 0 1-7.980839-13.780868zM483.656579 351.864529v-219.705078a15.915278 15.915278 0 0 0-23.896118-13.780868l-180.311285 104.075711a15.915278 15.915278 0 0 0-7.934439 13.780868V455.94024c0 12.24966 13.224065 19.905698 23.849717 13.780868l180.311285-104.075711a15.915278 15.915278 0 0 0 7.98084-13.780868z"  horiz-adv-x="1024" />
      
      <glyph glyph-name="ziyuanku1" unicode="&#58966;" d="M512.007118 156.983573a227.314716 227.314716 0 0 0-227.036315 227.036314c0 125.187814 101.8021 227.036314 227.036315 227.036314s227.036314-101.8485 227.036314-227.036314a227.314716 227.314716 0 0 0-227.036314-227.036314z m0 384.472287a157.621574 157.621574 0 0 1-157.435973-157.435973c0-86.768426 70.621147-157.435973 157.435973-157.435973s157.435973 70.621147 157.435973 157.435973a157.621574 157.621574 0 0 1-157.435973 157.435973zM511.867917 666.504474a34.70737 34.70737 0 0 0-24.592121 10.20805L395.217745 768.677775a34.800171 34.800171 0 1 0 49.184241 49.184241l67.465931-67.41953 67.465931 67.41953a34.800171 34.800171 0 1 0 49.184242-49.184241l-92.058052-92.058052a34.70737 34.70737 0 0 0-24.592121-10.20805zM102.664309 257.022464a34.800171 34.800171 0 0 0-24.592121 59.392291l67.465931 67.465931L78.072188 451.300217a34.800171 34.800171 0 1 0 49.184241 49.230642l92.058052-92.058052a34.800171 34.800171 0 0 0 0-49.184241L127.34923 267.230514a34.70737 34.70737 0 0 0-24.592121-10.20805zM604.15797-60.123093a34.70737 34.70737 0 0 0-24.592121 10.20805l-67.419531 67.465931-67.465931-67.465931a34.800171 34.800171 0 1 0-49.184241 49.184242l92.011652 92.104452a35.820976 35.820976 0 0 0 49.184241 0l92.104452-92.104452a34.800171 34.800171 0 0 0-24.592121-59.392292zM921.303527 257.300865a34.70737 34.70737 0 0 0-24.592121 10.20805l-92.058052 92.011652a34.800171 34.800171 0 0 0 0 49.184241l92.058052 92.058052a34.800171 34.800171 0 1 0 49.184241-49.184241l-67.419531-67.465931 67.465932-67.419531a34.800171 34.800171 0 0 0-24.592121-59.392292zM824.002249-3.514815h-107.184526a34.800171 34.800171 0 0 0 0 69.600342h107.184526c3.248016 0 5.939229 2.644813 5.939229 5.939229v107.184526a34.800171 34.800171 0 0 0 69.600342 0v-107.184526a75.632371 75.632371 0 0 0-75.539571-75.539571zM307.242913-3.514815H200.011986a75.632371 75.632371 0 0 0-75.53957 75.539571v107.184526a34.800171 34.800171 0 0 0 69.600341 0v-107.184526c0-3.248016 2.691213-5.939229 5.939229-5.939229h107.184527a34.800171 34.800171 0 0 0 0-69.600342zM159.272587 554.030322a34.800171 34.800171 0 0 0-34.800171 34.80017V696.015018c0 41.621004 33.872166 75.539571 75.53957 75.539571h107.184527a34.800171 34.800171 0 0 0 0-69.600341h-107.184527a5.939229 5.939229 0 0 1-5.939229-5.93923v-107.184526a34.800171 34.800171 0 0 0-34.80017-34.80017zM864.741649 554.030322a34.800171 34.800171 0 0 0-34.800171 34.80017V696.015018a5.939229 5.939229 0 0 1-5.939229 5.93923h-107.184526a34.800171 34.800171 0 0 0 0 69.600341h107.184526c41.667405 0 75.539571-33.872166 75.539571-75.539571v-107.184526a34.800171 34.800171 0 0 0-34.800171-34.80017zM602.348361 353.859739H421.665874a30.160148 30.160148 0 0 0 0 60.320296h180.682487a30.160148 30.160148 0 0 0 0-60.320296zM512.007118 263.518496a30.160148 30.160148 0 0 0-30.160148 30.160148V474.361131a30.160148 30.160148 0 0 0 60.320296 0v-180.682487a30.160148 30.160148 0 0 0-30.160148-30.160148z"  horiz-adv-x="1024" />
      
      <glyph glyph-name="huanjing" unicode="&#58967;" d="M512.007118 576.673633c-74.286765 0-134.746261 60.459497-134.746262 134.746261s60.459497 134.746261 134.746262 134.746261 134.746261-60.459497 134.746261-134.746261-60.459497-134.746261-134.746261-134.746261z m0 199.892181c-35.913776 0-65.14592-29.232143-65.14592-65.14592s29.232143-65.14592 65.14592-65.14592c35.913776 0 65.14592 29.232143 65.14592 65.14592s-29.232143 65.14592-65.14592 65.14592zM206.183217 55.599075a134.885462 134.885462 0 0 0-134.792662 134.699861A134.885462 134.885462 0 0 0 206.229617 325.091598a134.885462 134.885462 0 0 0 134.699861-134.792662c0-74.240364-60.413097-134.699861-134.699861-134.699861z m0 199.892181c-35.960176 0-65.19232-29.232143-65.19232-65.19232a65.19232 65.19232 0 0 1 130.291839 0c0 35.960176-29.232143 65.19232-65.099519 65.19232zM817.877419 55.599075a134.885462 134.885462 0 0 0-134.746261 134.699861c0 74.333165 60.459497 134.792662 134.746261 134.792662s134.699861-60.459497 134.699861-134.792662c0-74.240364-60.413097-134.699861-134.699861-134.699861z m0 199.892181c-35.913776 0-65.14592-29.232143-65.14592-65.19232 0-35.867376 29.232143-65.09952 65.14592-65.099519 35.913776 0 65.09952 29.232143 65.09952 65.099519 0 35.960176-29.232143 65.19232-65.09952 65.19232zM512.007118 21.773309m-99.946091 0a99.946091 99.946091 0 1 1 199.892181 0 99.946091 99.946091 0 1 1-199.892181 0ZM817.877419 542.894267m-99.946091 0a99.946091 99.946091 0 1 1 199.892182 0 99.946091 99.946091 0 1 1-199.892182 0ZM206.136817 542.894267m-99.946091 0a99.946091 99.946091 0 1 1 199.892181 0 99.946091 99.946091 0 1 1-199.892181 0ZM765.677163 244.540803a34.800171 34.800171 0 0 0-30.067348 17.168084l-203.047396 345.913698a34.800171 34.800171 0 0 0 60.041894 35.264173l203.047397-345.960098a34.800171 34.800171 0 0 0-29.974547-52.432258zM717.931328 155.498766H306.082907a34.800171 34.800171 0 0 0 0 69.600341h411.848421a34.800171 34.800171 0 0 0 0-69.600341zM258.151472 244.0768a34.800171 34.800171 0 0 0-29.974547 52.432258l203.232997 346.284899a34.800171 34.800171 0 0 0 59.995495-35.171372l-203.232998-346.3313a34.800171 34.800171 0 0 0-30.020947-17.168084zM512.007118 332.422834a34.800171 34.800171 0 0 0-17.353685 64.960319l305.870301 175.856863a34.800171 34.800171 0 0 0 34.70737-60.320296l-305.870301-175.856863a34.892971 34.892971 0 0 0-17.353685-4.640023zM512.656721 332.422834a34.892971 34.892971 0 0 0-17.307285 4.640023L189.525535 512.87332a34.800171 34.800171 0 0 0 34.70737 60.320296l305.823901-175.856864a34.800171 34.800171 0 0 0-17.400085-64.960318zM512.007118-12.841261a34.800171 34.800171 0 0 0-34.800171 34.800171v345.217694a34.800171 34.800171 0 0 0 69.600342 0v-345.217694a34.800171 34.800171 0 0 0-34.800171-34.800171z"  horiz-adv-x="1024" />
      
      <glyph glyph-name="space" unicode="&#58964;" d="M663.41897 377.146549v78.458582l-151.427697 87.436561-151.414533-87.423397v-78.458582l113.396347 65.452361v-354.38004l38.03135-21.971036 38.018186 21.957871V442.625238zM231.765124 222.204012l175.426019-101.28529v78.063656l-108.512432 62.648389V507.919629l213.325726 123.164177 213.312562-123.151013V261.617602l-108.512432-62.661552v-78.050493l175.426019 101.285291v323.575832l-280.226149 161.787916-280.239313-161.787916zM512.004437 876.806609L85.221342 630.399268v-492.81468l426.783095-246.394176 423.492047 244.511697 3.291048 1.882479V630.399268L512.004437 876.806609z m413.618903-731.613118l-413.618903-238.798437-413.618903 238.798437V622.80353l413.618903 238.798437 413.618903-238.798437v-477.596875z"  horiz-adv-x="1024" />
      
      <glyph glyph-name="chongzhimima" unicode="&#59009;" d="M948.622222 590.222222c-14.222222 7.111111-31.288889 1.422222-38.4-12.8l-21.333333-42.666666c-12.8 32.711111-28.444444 64-48.355556 92.444444C759.466667 742.4 628.622222 810.666667 489.244444 810.666667c-234.666667 0-426.666667-192-426.666666-426.666667s192-426.666667 426.666666-426.666667c187.733333 0 355.555556 125.155556 409.6 304.355556 4.266667 15.644444-4.266667 31.288889-18.488888 35.555555-15.644444 4.266667-31.288889-4.266667-35.555556-18.488888-46.933333-156.444444-192-264.533333-355.555556-264.533334-203.377778 0-369.777778 166.4-369.777777 369.777778s166.4 369.777778 369.777777 369.777778c120.888889 0 234.666667-59.733333 302.933334-157.866667 15.644444-22.755556 28.444444-46.933333 39.822222-72.533333L796.444444 540.444444c-14.222222 7.111111-31.288889 1.422222-38.4-12.8s-1.422222-31.288889 12.8-38.4l100.977778-51.2c4.266667-1.422222 8.533333-2.844444 12.8-2.844444 9.955556 0 19.911111 5.688889 25.6 15.644444l51.2 100.977778c7.111111 14.222222 1.422222 31.288889-12.8 38.4zM496.355556 585.955556c-71.111111 0-129.422222-58.311111-129.422223-129.422223v-19.911111H341.333333c-12.8 0-24.177778-11.377778-24.177777-24.177778v-190.577777c0-12.8 11.377778-24.177778 24.177777-24.177778h310.044445c12.8 0 24.177778 11.377778 24.177778 24.177778V413.866667c0 12.8-11.377778 24.177778-24.177778 24.177777H625.777778v19.911112c-1.422222 69.688889-59.733333 128-129.422222 128z m-72.533334-129.422223c0 39.822222 32.711111 72.533333 72.533334 72.533334s72.533333-32.711111 72.533333-72.533334v-19.911111H423.822222v19.911111z m86.755556-155.022222v-42.666667c0-8.533333-7.111111-15.644444-15.644445-15.644444s-15.644444 7.111111-15.644444 15.644444v42.666667c-18.488889 7.111111-31.288889 24.177778-31.288889 44.088889 0 25.6 21.333333 46.933333 46.933333 46.933333 25.6 0 46.933333-21.333333 46.933334-46.933333 0-19.911111-12.8-36.977778-31.288889-44.088889z"  horiz-adv-x="1024" />
      
      <glyph glyph-name="upload" unicode="&#58963;" d="M810.666667 59.264 213.333333 59.264C189.76 59.264 170.666667 78.464 170.666667 102.144L170.666667 316.522667 256 316.522667 256 145.024 768 145.024 768 316.522667 853.333333 316.522667 853.333333 102.144C853.333333 78.464 834.24 59.264 810.666667 59.264ZM652.672 540.544 544.362667 540.544 544.362667 282.474667 458.304 282.474667 458.304 540.544 350.016 540.544C342.336 540.544 338.496 549.802667 343.936 555.221333L495.253333 706.496C498.624 709.845333 504.064 709.845333 507.413333 706.496L658.752 555.221333C664.170667 549.802667 660.330667 540.544 652.672 540.544Z"  horiz-adv-x="1024" />
      
      <glyph glyph-name="zhuanhuandaofenzu" unicode="&#58961;" d="M921.292047 571.971623h-193.153039a51.612809 51.612809 0 0 0-51.546977 51.612809V816.671639c0 28.439711 23.107265 51.546977 51.546977 51.546976h193.153039c28.373879 0 51.546977-23.107265 51.546976-51.546976v-193.087207a51.612809 51.612809 0 0 0-51.546976-51.612809z m-178.867351 65.832665h164.581662v164.581662h-164.581662v-164.581662zM419.120478 562.491719a32.916332 32.916332 0 0 0-23.304763 56.221096l101.382304 101.382304L395.815715 821.609089a32.916332 32.916332 0 0 0 46.543694 46.543694l124.555402-124.687068a32.916332 32.916332 0 0 0 0-46.543694L442.425242 572.169121a33.245496 33.245496 0 0 0-23.238931-9.677402zM295.88173-100.245719H102.728691a51.678642 51.678642 0 0 0-51.546977 51.61281v193.021373c0 28.439711 23.107265 51.612809 51.546977 51.61281h193.153039c28.373879 0 51.546977-23.173098 51.546976-51.61281v-193.021373a51.678642 51.678642 0 0 0-51.546976-51.61281z m-178.867351 65.832665h164.581662v164.581663h-164.581662v-164.581663z m178.867351 164.581663h0.658326-0.658326zM603.781104-109.725622a32.784667 32.784667 0 0 0-23.238931 9.611569l-124.621235 124.687067a32.916332 32.916332 0 0 0 0 46.543694l124.621235 124.7529a32.916332 32.916332 0 1 0 46.543694-46.543694l-101.382304-101.448137 101.382304-101.382304a32.916332 32.916332 0 0 0-23.304763-56.221095zM771.851897 14.961445H501.213812a32.916332 32.916332 0 1 0 0 65.832665h270.638085c74.522577 0 135.154461 60.566052 135.154461 135.154461 0 74.522577-60.631884 135.154461-135.154461 135.154461H252.16884A201.184624 201.184624 0 0 0 51.115881 552.090158a201.184624 201.184624 0 0 0 200.987126 200.921294h269.518931a32.916332 32.916332 0 1 0 0-65.832665H252.16884c-74.522577 0-135.154461-60.566052-135.154461-135.088629s60.566052-135.154461 135.154461-135.154461h519.683057c110.862208 0 200.987126-90.190751 200.987126-200.987126s-90.190751-200.987126-200.987126-200.987126z"  horiz-adv-x="1024" />
      
      <glyph glyph-name="zhuanhuandaomoxing" unicode="&#58962;" d="M631.466922 561.109233a39.894595 39.894595 0 0 0-13.364031 2.369976L279.920491 685.598803a39.499599 39.499599 0 0 0 0 74.259246L618.168724 881.977642a39.960428 39.960428 0 0 0 26.793895 0l338.182399-122.119593a39.499599 39.499599 0 0 0 0-74.259246L644.896786 563.479209a39.894595 39.894595 0 0 0-13.429864-2.369976z m-221.856081 161.619193l221.856081-80.118353 221.856081 80.118353-221.856081 80.118353-221.856081-80.118353zM631.071926 136.949373a39.894595 39.894595 0 0 0-13.429863 2.304143L279.459663 261.37311a39.499599 39.499599 0 0 0-26.069736 37.195456V722.728426a39.499599 39.499599 0 1 0 78.999198 0v-396.444308l298.682801-107.899738 298.616968 107.899738V722.728426a39.499599 39.499599 0 1 0 78.999198 0v-424.15986a39.499599 39.499599 0 0 0-26.069735-37.195456l-338.1824-122.119594a39.894595 39.894595 0 0 0-13.364031-2.304143zM631.071926 145.836783a39.499599 39.499599 0 0 0-39.499599 39.499599V592.906411a39.499599 39.499599 0 1 0 78.999198 0v-407.504196a39.499599 39.499599 0 0 0-39.499599-39.499599zM418.695749-116.308889a39.433766 39.433766 0 0 0-26.003903 69.321796L460.828655 12.328138l-68.202641 59.315231a39.499599 39.499599 0 0 0 51.87614 59.644395l102.435626-89.137428a39.499599 39.499599 0 0 0 0-59.644395L444.567986-106.631487a39.499599 39.499599 0 0 0-25.93807-9.677402zM843.448103-116.308889a39.499599 39.499599 0 0 0-25.93807 9.677402l-102.369794 89.137428a39.499599 39.499599 0 0 0 0 59.644395l102.369794 89.137428a39.499599 39.499599 0 1 0 51.87614-59.644395l-68.136808-59.315231 68.136808-59.315231a39.499599 39.499599 0 0 0-25.93807-69.321796zM512.112301-26.776465c-1.053323 0-2.106645 0-3.094136 0.131666-246.345832 19.091473-494.79831 103.291451-494.798309 248.320812 0 89.532424 95.194034 164.449997 268.136444 210.927858A39.499599 39.499599 0 0 0 302.830259 356.172147c-144.831863-38.841272-209.677038-95.58903-209.677038-134.561967 0-65.832665 161.290029-149.374317 421.855717-169.584945a39.499599 39.499599 0 0 0-2.96247-78.867532zM750.031552-26.776465a39.499599 39.499599 0 0 0-3.028303 78.867533c260.565688 20.210628 421.987382 103.75228 421.987383 169.584945 0 38.972938-64.845175 95.654862-209.611206 134.561967a39.499599 39.499599 0 0 0 20.539792 76.300059c172.810745-46.412029 267.938946-121.329602 267.938946-210.862026 0-145.029361-248.452478-229.229339-494.732477-248.320812a33.047998 33.047998 0 0 0-3.094135-0.131666z"  horiz-adv-x="1262" />
      
      <glyph glyph-name="move" unicode="&#58884;" d="M840.704 640h-36.992c-82.624 0-82.496 128-140.864 128H311.232C245.44 768 192 714.56 192 648.704V512h64V648.704C256 679.168 280.832 704 311.232 704h339.456c3.968-6.144 9.024-15.36 12.672-22.208C684.8 642.24 720.704 576 803.712 576h36.992C869.12 576 896 544.896 896 512v-392.768c0-30.4-24.832-55.232-55.296-55.232H311.232c-30.4 0-55.232 24.832-55.232 55.232V192h-64v-72.768C192 53.376 245.44 0 311.232 0H840.64C906.56 0 960 53.376 960 119.232V512c0 65.856-53.44 128-119.296 128zM497.344 202.176L630.4 332.032c0.128 0.128 0.192 0.32 0.32 0.512 2.816 2.816 5.184 9.536 6.784 13.248 1.344 3.456 1.856 0.64 2.112 4.096 0 0.768 0.384 1.408 0.384 2.112 0 0.512-0.256 0.896-0.256 1.344-0.192 3.84-0.896 5.76-2.24 9.344-1.344 3.264-3.52 6.016-5.76 8.64-0.512 0.64-0.768 1.536-1.344 2.112L497.344 506.368c-12.8 12.864-33.6 6.976-46.4-5.888-12.864-12.8-12.864-33.6 0-46.464l76.864-70.976-429.632-0.064c-18.752 0-33.984-12.8-33.92-30.912-0.064-18.112 15.168-29.696 33.984-29.696h429.632l-76.864-79.552c-12.864-12.864-12.864-33.6 0-46.528 6.4-6.4 14.72-3.776 23.168-3.776s16.832 3.328 23.168 9.664z"  horiz-adv-x="1024" />
      
      <glyph glyph-name="png" unicode="&#58948;" d="M350.554406 669.149422m-47.222246 0a47.222246 47.222246 0 1 1 94.444491 0 47.222246 47.222246 0 1 1-94.444491 0ZM624.697922 581.243939L412.551276 338.275589l-125.690348 143.239633-131.345707-134.297097v-403.121042c0-19.882121 16.100099-35.999893 35.98222-35.999893h640.999569a35.98222 35.98222 0 0 1 35.999893 35.98222V347.200452L624.697922 581.261612z"  horiz-adv-x="1024" />
      
      <glyph glyph-name="ppt" unicode="&#58949;" d="M662.20996 180.021154v47.222501c46.477005 0 92.837526 0.232967 139.198048 0 7.967487 0.442638 16.773656 0 23.529712 4.799129 5.358251 8.619795 3.960447 19.196517 4.449678 28.794776-0.465935 88.714003 0.349451 177.404709-0.465935 266.048821a16.237831 16.237831 0 0 1-17.938493 18.404429c-49.622066 0.535825-99.244131-0.279561-148.819603 0v42.679635h-26.465102c-71.521005-12.463758-143.042011-25.346858-214.516423-38.020287v-332.164981c70.728916-12.720022 141.504426-24.764439 212.233342-37.764023h28.794776z m-0.046593 99.477099h111.311844v18.986846h-111.311844v23.995647h111.311844v18.707286h-111.265251v27.9095c18.404428-5.824186 39.324905-5.684406 55.725813 5.591218 17.775416 10.809689 27.024224 31.357418 28.561808 51.858553h-61.03747c0 20.640916 0.232967 41.281831-0.396045 61.852857a917.89173 917.89173 0 0 1-22.807512-4.79913l-0.093187 47.432172h153.036314v-289.485346h-153.036314v37.973693z m-104.76546 88.667409c-10.530128-5.521328-22.621139-4.799129-34.036544-4.356491v-55.67922l-27.606642 2.329675c-0.698902 50.717013-0.815386 101.434025-0.232967 152.174334 25.183781-1.234727 55.679219 10.180677 76.786069-9.109027 19.988607-24.880923 14.676949-70.519245-14.909916-85.359271zM694.708918 498.441057c0-20.82729 0-41.514799-0.046593-62.388682 20.407948 0 40.769303-0.232967 61.107361 0a66.04627 66.04627 0 0 1-61.037471 62.388682zM523.058506 436.960948c-0.13978-15.981567-0.232967-31.869946 0.722199-47.758326 9.272104 1.164837 21.223334 0.326154 26.511695 9.924413 4.659349 9.924413 4.426381 21.433005-0.629012 31.147747-6.150341 8.806169-17.472558 7.058914-26.604882 6.686166zM1161.109742-105.224185h-1071.650243c-38.532815 0-69.890233 31.334121-69.890234 69.890233v838.682799c0 38.532815 31.357418 69.890233 69.890234 69.890234h1071.650243c38.532815 0 69.890233-31.357418 69.890233-69.890234v-838.682799c0-38.556112-31.357418-69.890233-69.890233-69.890233z m-1071.650243 931.869777c-12.836506 0-23.296744-10.483535-23.296745-23.296745v-838.682799c0-12.859803 10.460238-23.296744 23.296745-23.296744h1071.650243c12.836506 0 23.296744 10.436941 23.296744 23.296744v838.682799c0 12.813209-10.460238 23.296744-23.296744 23.296745h-1071.650243z"  horiz-adv-x="1250" />
      
      <glyph glyph-name="word" unicode="&#58950;" d="M666.252552 294.040079a12.229713 12.229713 0 0 1-13.608207 13.784937c-37.608136 0.70692-75.26929 0-112.948118 0.318114v28.84233h-21.083884c-53.97333-9.843859-107.999679-19.263566-161.990683-28.913022v-252.264346c53.725908-9.631783 107.451816-18.804068 161.177725-28.683273h21.896842v28.31214h105.70219c6.008819 0.371133 12.653865 0 17.796707 3.65831 4.117808 6.521336 3.057428 14.580222 3.428561 21.861496-0.35346 70.90406 0.247422 142.073216-0.35346 213.083314z m-191.964084-161.089359c-5.867435-3.145793-14.580222 0-21.64942-0.35346-4.89542 23.893891-10.32103 47.628725-14.50953 71.575634-4.117808-23.293009-9.472726-46.373942-14.173743-69.472548-6.786431 0.35346-13.572861 0.759939-20.394637 1.23711-5.832089 31.705355-12.724557 63.251653-18.203186 95.0277 6.008819 0.300441 12.052983 0.547863 18.203186 0.759939 3.65831-22.957222 7.776118-45.808406 10.957258-68.818647 4.877747 23.59345 9.932224 47.133881 15.022046 70.72733 6.698066 0.406479 13.360785 0.689247 20.076524 1.06038 4.701017-24.353389 9.472726-48.636085 14.580222-72.918782 3.976424 25.042635 8.377 49.979233 12.636192 74.951177 7.051525 0.265095 14.085378 0.653901 21.11923 1.095726-7.988194-34.92184-14.951355-70.161795-23.664142-104.871559z m181.607709-66.309082h-116.19995v28.824657h91.563793v14.580222h-91.563793V127.931589h91.563793v14.580222h-91.563793v17.849726h91.563793V174.941758h-91.563793V193.144944h91.563793v14.032359h-91.563793v18.238532h91.563793v14.209089h-91.563793v18.044129h91.563793v14.403492h-91.563793v25.219366h116.19995v-230.667946zM856.838142 680.742907l-151.157135-0.070692a32.995484 32.995484 0 0 0-32.924792 32.871773l-0.053019 132.017281c0 1.661262 1.94403 2.544911 3.181139 1.449186l182.438339-162.361816a2.226798 2.226798 0 0 0-1.484532-3.888059zM823.878005-109.593479H199.349668a66.803925 66.803925 0 0 0-66.733234 66.733233V810.851505a66.803925 66.803925 0 0 0 66.733234 66.733233h450.608382c12.583173 0 24.883579-5.089823 33.790768-13.97934l192.105468-170.933218c9.79084-9.720148 14.756952-21.737785 14.756952-34.497689v-701.034737a66.803925 66.803925 0 0 0-66.733233-66.733233zM199.349668 842.238746c-17.301863 0-31.387241-14.067705-31.387241-31.387241v-853.711751c0-17.301863 14.085378-31.387241 31.387241-31.387241h624.528337c17.319536 0 31.387241 14.085378 31.387241 31.387241V658.174491a12.477135 12.477135 0 0 1-3.622964 8.783479L659.501468 837.891189c-3.057428 3.022082-6.273914 4.347557-9.543418 4.347557H199.349668zM705.663334 662.999219a50.633134 50.633134 0 0 0-50.562442 50.544769l-0.070692 132.017281c0 7.705426 4.54196 14.721606 11.558139 17.885072a19.634699 19.634699 0 0 0 21.030866-3.234158l182.456011-162.361815c6.203222-5.531648 8.323981-14.138397 5.372591-21.949862-2.969063-7.776118-10.250338-12.830595-18.591992-12.830595l-151.174808-0.070692h-0.017673z m140.889125 8.447692l0.035346-0.035346-0.035346 0.035346z m-156.158594 138.980442l0.053019-96.865692c0-8.394673 6.821777-15.21645 15.21645-15.21645l110.615282 0.053019-125.884751 112.046796zM735.689754 572.81392H287.555591a17.672996 17.672996 0 0 0 0 35.345992h448.134163a17.672996 17.672996 0 0 0 0-35.345992zM537.151316 707.535169H287.555591a17.672996 17.672996 0 0 0 0 35.345993h249.595725a17.672996 17.672996 0 0 0 0-35.345993zM735.689754 438.092671H287.555591a17.672996 17.672996 0 0 0 0 35.345992h448.134163a17.672996 17.672996 0 0 0 0-35.345992z"  horiz-adv-x="1024" />
      
      </font>
</defs>
</svg>
