<?xml version="1.0" encoding="utf-8"?>
<!-- Generator: Adobe Illustrator 25.0.1, SVG Export Plug-In . SVG Version: 6.00 Build 0)  -->
<svg version="1.1" id="图层_1" xmlns="http://www.w3.org/2000/svg" xmlns:xlink="http://www.w3.org/1999/xlink" x="0px" y="0px"
	 viewBox="0 0 19.8227615 19.8227615" style="enable-background:new 0 0 19.8227615 19.8227615;" xml:space="preserve">
<style type="text/css">
	.st0{fill:none;}
	.st1{fill:#CCCC00;}
	.st2{fill:#FFFFCC;}
	.st3{fill:#FFFF00;}
</style>
<g>
	<path class="st0" d="M12.8423195,12.4663782l0.0719252-0.0546808L12.8423195,12.4663782z"/>
	<path class="st0" d="M12.6407795,12.0521393L12.6407795,12.0521393L12.6407795,12.0521393z"/>
	<path class="st1" d="M14.3882103,12.2947359c0.2939005-0.1187105,0.5799742-0.3625288,0.6363182-0.667304
		c0.0406599-0.1531334,0.0578718-0.2797384,0.0985594-0.4329376c-0.0766001-0.0203581-0.1531649-0.040657-0.2282057-0.0359821
		c-0.0625753,0.2047625-0.0579033,0.2797403-0.1001186,0.4079027c-0.0594597,0.2547684-0.3736525,0.4501381-0.7300243,0.3718777
		c-0.1266022-0.0171814-0.2032032-0.0375414-0.2547684-0.0594597c0.0312376,0.0985174,0.1109533,0.1688833,0.2375555,0.1860638
		c0.1516104,0.015686,0.2532091,0.0344257,0.4501495-0.0280447c-0.1219311,0.0577965-0.193821,0.1125383-0.2688618,0.1172142
		C14.3335295,12.2228107,14.3616514,12.2713223,14.3882103,12.2947359z"/>
	<path class="st1" d="M13.9509964,10.1125984c-0.0969248,0.0563011-0.2673063,0.1421852-0.3392277,0.196929
		c-0.1203756,0.0827694-0.1703815,0.0858841-0.2110691,0.2390823c-0.0422153,0.1281614-0.0828714,0.2813587-0.1251183,0.409523
		C13.4522972,10.5705271,13.6148844,10.3595343,13.9509964,10.1125984L13.9509964,10.1125984L13.9509964,10.1125984z"/>
	<path class="st1" d="M13.2505789,10.959691L13.2505789,10.959691c-0.0015602-0.0250359-0.0015602-0.0250359-0.0031195-0.0500689
		C13.2490187,10.9346552,13.2490187,10.9346552,13.2505789,10.959691z"/>
	<path class="st1" d="M16.8309078,6.3680778c0.3626747-0.2234588,0.6440773-0.5422554,0.7957897-0.9283032
		c-0.0969276,0.0562391-0.1954117,0.0875053-0.2642212,0.1921935C17.2248917,5.841404,17.1107502,6.0242472,16.89501,6.1883507
		c-0.1203709,0.0828323-0.2423019,0.1406279-0.3657894,0.1734538c-0.0984554,0.0312028-0.1750526,0.0109062-0.2454224,0.090559
		C16.5104485,6.4633737,16.6354961,6.4555831,16.8309078,6.3680778z"/>
	<path class="st1" d="M17.651701,5.4382167L17.651701,5.4382167L17.651701,5.4382167L17.651701,5.4382167z"/>
	<path class="st1" d="M17.9158192,5.6477571c-0.0296783-0.0734825-0.1359558-0.1673245-0.2156677-0.2376275
		c0.2202663,0.7143369,0.435833,1.3536992,0.4575729,2.1055374c0.0357628,0.9768963-0.0879784,2.2147951-0.9524708,2.8461142
		c-0.9114151,0.6844425-2.0274124,0.5029068-3.1199322,0.2948399c0.0515614,0.0218563,0.103159,0.0437737,0.1531649,0.040658
		c0.970624,0.2659245,2.1412992,0.5193224,3.083951-0.0666027c0.723793-0.4718904,1.0912857-1.4237728,1.136795-2.3053322
		C18.4874992,7.5703902,18.2626629,6.3793406,17.9158192,5.6477571z"/>
	<path class="st1" d="M15.1271448,6.4240236c0.0312338,0.0984554,0.0405846,0.2485356,0.1234159,0.368907
		c0.0234432-0.0265908,0.0734806-0.0297084,0.0969276-0.0562382c-0.0265627-0.0234766-0.0281191-0.0484481-0.0547123-0.0719237l0,0
		l0,0l0,0c-0.0546818-0.0719242-0.0593567-0.1469646-0.0640278-0.2219429
		c-0.0046749-0.0750403,0.0172119-0.1266041,0.0390959-0.1782308l-0.0250034,0.0015578
		c-0.0734491,0.0297065-0.1984959,0.037497-0.2750959,0.017139l0,0l-0.0250034,0.0015578
		C14.9989824,6.3818088,15.0490198,6.3786917,15.1271448,6.4240236z"/>
	<path class="st1" d="M15.8929348,7.0291066c0,0,0.0250025-0.0015578,0.0265589,0.0234137l0,0
		c0.0250025-0.0015574,0.0750399-0.0046749,0.1000433-0.0062327c-0.0312338-0.0984545-0.0359097-0.1734958-0.0671434-0.2719498
		c-0.2266502-0.0110116-0.4267368,0.0014539-0.6252337,0.0389533c0.1750536-0.0109062,0.3266592,0.0047174,0.4782686,0.0204034
		C15.883584,6.8790245,15.8882599,6.9540658,15.8929348,7.0291066z"/>
	<path class="st1" d="M14.034915,4.6090903c0.1359529,0.167263,0.2922668,0.2579565,0.0327206,0.5251908
		c0.2704544-0.0921502,0.3955011-0.0999408,0.622118-0.0889592c0.4032898,0.0250745,0.8392687,0.5753412,0.8907633,0.998992l0,0
		c0.0250025-0.0015574,0.0750399-0.0046749,0.1000433-0.0062327c0.0500059-0.0031152,0.1015987,0.0187392,0.1266022,0.0171814
		c0.0515661,0.0219188,0.1281624,0.0422153,0.2047319,0.0625758c-0.1406288-0.2423029-0.278141-0.4345984-0.4422121-0.6503091
		c-0.1625156-0.1907401-0.2922373-0.2579889-0.5251188-0.3690124C14.993,5.0766296,14.9414043,5.0547428,14.8898411,5.032856
		c-0.1516075-0.0156546-0.3532543-0.028223-0.5017443,0.0061593c0.1219292-0.0578279,0.2204142-0.0890646,0.3204584-0.0952978
		c-0.3141546-0.2063904-0.6048317-0.4393449-0.9205132-0.6707416c-0.1859903-0.164145-0.3703909-0.3032887-0.5767117-0.3908668
		C13.525485,4.088501,13.8161631,4.3214555,14.034915,4.6090903z"/>
	<path class="st1" d="M16.021244,6.26792l0.0234737-0.0265946c-0.0265942-0.0234737-0.0297089-0.0734801-0.0562677-0.0968943
		c-0.0250025,0.0015578-0.0500059,0.0031157-0.0750093,0.0046735C15.965003,6.1709609,15.9931211,6.2194095,16.021244,6.26792z"/>
	<path class="st1" d="M12.8260479,7.7725067c-0.0531216-0.0468907-0.1062784-0.093842-0.1609554-0.1657047
		c-0.0296783-0.073483-0.0593567-0.1469665-0.0640316-0.2220063c-0.1188116,0.1078658-0.2626619,0.2172275-0.4095964,0.2765827l0,0
		c-0.0250025,0.0015578-0.0500059,0.0031157-0.0750093,0.004673c0.101572,0.0188036,0.2250595-0.0140214,0.3235474-0.0452261
		c0.112505,0.1937919,0.168746,0.2907515,0.3750648,0.3782978c0.0218868-0.0515647,0.0672493-0.1297216,0.0891371-0.1812863
		C12.8792009,7.8193946,12.8526068,7.7959204,12.8260479,7.7725067z"/>
	<path class="st1" d="M13.6358595,7.069262c0.0281181,0.0484486,0.0577965,0.1219316,0.0609121,0.1719375
		c0.0484819-0.028089,0.1234903-0.0327621,0.1719685-0.060914c-0.0625029-0.19697-0.1703062-0.3157854-0.3297338-0.4564538
		c0.0469227-0.0531235,0.0688066-0.1047502,0.0906935-0.1563139c0,0,0,0-0.0250025,0.0015578
		c-0.0703659,0.0797148-0.192297,0.1375122-0.2876339,0.2187829C13.446785,6.8551092,13.5514727,6.9239187,13.6358595,7.069262z"/>
	<path class="st1" d="M14.1657238,7.1115818C14.1657238,7.1115818,14.167284,7.1366172,14.1657238,7.1115818
		C14.167284,7.1366172,14.167284,7.1366172,14.1657238,7.1115818C14.167284,7.1366172,14.1657238,7.1115818,14.1657238,7.1115818z"
		/>
	<path class="st1" d="M12.7994137,8.1507616c-0.0438061,0.1031303-0.0360155,0.2281771-0.0282249,0.3532238
		c0.261178-0.6439323,0.8161173-1.0049019,1.3960953-1.3673682C13.6514406,7.3193555,13.1465073,7.6772089,12.7994137,8.1507616z"/>
	<path class="st1" d="M12.421627,5.7138572c-0.508049,0.3078485-0.6362867,0.6673017-0.7129583,1.0486746
		c0.0093498,0.1500821,0.0452595,0.3235769,0.1061716,0.4955134C11.7274408,6.6609626,12.0151777,6.0404449,12.421627,5.7138572z"/>
	<path d="M16.8871479,6.4650373c0.4642754-0.20472,0.6659927-0.5938835,0.7629967-1.0517926l0,0l-0.0015602-0.0250349
		c0,0,0.0015602,0.0250349-0.0234432,0.0265927c-0.1767139,0.3876057-0.433115,0.7048445-0.7957897,0.9283032
		c-0.1938553,0.1124773-0.3204613,0.0952344-0.5220737,0.0827265c-0.025034,0.0015597-0.025034,0.0015597-0.0500374,0.0031176
		C16.4870052,6.4899669,16.6432858,6.5806298,16.8871479,6.4650373z"/>
	<path d="M14.167284,7.1366172c-0.1000433,0.0062327-0.1985006,0.0374355-0.2969847,0.0687027
		c-0.048481,0.028089-0.0984869,0.0312047-0.1719685,0.0609131c-0.0031157-0.050005-0.032793-0.1234889-0.0609112-0.1719365
		c-0.0828323-0.1203713-0.1890793-0.2142153-0.3172417-0.2564311c0.0968971-0.0562377,0.2172689-0.1390681,0.2876348-0.2187839
		c0,0,0.0250025-0.0015574,0.023447-0.0265293c-0.2673063,0.1421857-0.568965,0.135848-0.7847052,0.2999525
		c-0.192297,0.1375122-0.4409056,0.5797963-0.6285276,0.7923503l0,0c0.146966-0.0593562,0.290781-0.1687794,0.4095964-0.2765827
		c0.0046749,0.0750408,0.0343494,0.1484609,0.0640278,0.2219439c0.0296783,0.073482,0.0828314,0.1203713,0.1609554,0.1657043
		c-0.0265589-0.0234137-0.0265589-0.0234137-0.0531206-0.0468907c-0.0577974-0.1219311-0.0155821-0.250093,0.0813465-0.3063331
		c0.1219311-0.057796,0.2500935-0.0155811,0.3063297,0.0813165c0,0,0.0015602,0.0250335,0.0265627,0.0234756
		c-0.0953369,0.0812726-0.1891499,0.1875176-0.282958,0.2938256l0,0c-0.0468912,0.0531216-0.0688095,0.1046863-0.089138,0.1812859
		c-0.0218868,0.0515623-0.0437746,0.1031275-0.0656624,0.1546917l0.023447-0.0265303
		C13.1465073,7.6772089,13.6514406,7.3193555,14.167284,7.1366172L14.167284,7.1366172
		C14.1907272,7.110024,14.167284,7.1366172,14.167284,7.1366172L14.167284,7.1366172z"/>
	<path d="M13.6102085,10.2844925c0.0969286-0.0562382,0.2673063-0.1421852,0.3392315-0.196866l0,0
		c-0.0984879,0.0312052-0.2719812,0.0671444-0.3454618,0.0968542c-0.2469778,0.065588-0.2688656,0.1171513-0.3032904,0.3703594
		c-0.0188036,0.101573-0.0360165,0.2281771-0.0282259,0.3532238l0.0015602,0.025034c0,0,0,0,0.0015593,0.0250349
		l-0.0015593-0.0250349c0.0422468-0.1281643,0.0829029-0.2813597,0.1251183-0.4095221
		C13.4413872,10.3954115,13.4898376,10.3673248,13.6102085,10.2844925z"/>
	<path d="M15.2927761,6.6647687L15.2927761,6.6647687c0.0015593,0.0250354,0.0281496,0.0484471,0.0547123,0.0719237
		C15.3209257,6.7132158,15.2943354,6.6898041,15.2927761,6.6647687L15.2927761,6.6647687z"/>
	<path d="M12.421627,5.7138572c0.0234432-0.0265913,0.0484467-0.0281491,0.0969286-0.0562382
		c-0.8128557,0.2515059-0.9410925,0.6109591-0.7833242,1.1283903c0,0,0,0-0.0015593-0.0250354
		C11.7853403,6.3811588,11.913578,6.0217056,12.421627,5.7138572z"/>
	<path class="st2" d="M12.9307671,7.8413143c0.0688057-0.1047502,0.1625872-0.2109933,0.282958-0.2938256
		c0,0-0.0015593-0.0250335-0.0265627-0.0234756c-0.0577965-0.1219311-0.2094021-0.1375546-0.3063297-0.0813165
		C12.7589016,7.500494,12.743248,7.652133,12.7994862,7.7490296c0.0015593,0.0250344,0.0265617,0.0234771,0.0531206,0.0468907
		C12.8526068,7.7959204,12.8792009,7.8193946,12.9307671,7.8413143L12.9307671,7.8413143z"/>
	<path class="st2" d="M15.3474884,6.7366924c0.098484-0.0312672,0.171937-0.0609121,0.2454176-0.0906224
		c-0.0015593-0.0250335,0.0234442-0.0265913,0.0218887-0.0515628c-0.0062351-0.1000752-0.0609131-0.1719375-0.1609564-0.1657047
		s-0.1719685,0.060914-0.1657381,0.1609263c0.0015602,0.0250344,0.0031157,0.0500064,0.0297098,0.0734801l0,0
		C15.2943354,6.6898041,15.3209257,6.7132158,15.3474884,6.7366924z"/>
	<path class="st0" d="M15.1271448,6.4240236c0.0312338,0.0984554,0.0405846,0.2485356,0.1234159,0.368907
		c0.0234432-0.0265908,0.0734806-0.0297084,0.0969276-0.0562382c0.098484-0.0312672,0.171937-0.0609121,0.2454176-0.0906224
		c-0.0015593-0.0250335,0.0234442-0.0265913,0.0218887-0.0515628c-0.0062351-0.1000752-0.0609131-0.1719375-0.1609564-0.1657047
		s-0.1719685,0.060914-0.1657381,0.1609263c0.0015602,0.0250344,0.0031157,0.0500064,0.0297098,0.0734801
		c-0.0797157-0.0703645-0.0843906-0.1454048-0.0890617-0.2203832c-0.0046749-0.0750403,0.0172119-0.1266041,0.0390959-0.1782308
		l-0.0250034,0.0015578c-0.0734491,0.0297065-0.1984959,0.037497-0.2750959,0.017139l0,0l-0.0250034,0.0015578
		C14.9989824,6.3818088,15.0490198,6.3786917,15.1271448,6.4240236z"/>
	<path class="st0" d="M14.034915,4.6090903c0.1359529,0.167263,0.2922668,0.2579565,0.0327206,0.5251908
		c0.2704544-0.0921502,0.3955011-0.0999408,0.622118-0.0889592c0.4032898,0.0250745,0.8392687,0.5753412,0.8907633,0.998992l0,0
		c0.0250025-0.0015574,0.0750399-0.0046749,0.1000433-0.0062327c0.0500059-0.0031152,0.1015987,0.0187392,0.1266022,0.0171814
		c0.0515661,0.0219188,0.1281624,0.0422153,0.2047319,0.0625758c-0.1406288-0.2423029-0.278141-0.4345984-0.4422121-0.6503091
		c-0.1625156-0.1907401-0.2922373-0.2579889-0.5251188-0.3690124C14.993,5.0766296,14.9414043,5.0547428,14.8898411,5.032856
		c-0.1516075-0.0156546-0.3532543-0.028223-0.5017443,0.0061593c0.1219292-0.0578279,0.2204142-0.0890646,0.3204584-0.0952978
		c-0.3141546-0.2063904-0.6048317-0.4393449-0.9205132-0.6707416c-0.1859903-0.164145-0.3703909-0.3032887-0.5767117-0.3908668
		C13.525485,4.088501,13.8161631,4.3214555,14.034915,4.6090903z"/>
	<path class="st0" d="M14.3882103,12.2947359c0.2939005-0.1187105,0.5799742-0.3625288,0.6363182-0.667304
		c0.0406599-0.1531334,0.0578718-0.2797384,0.0985594-0.4329376c-0.0766001-0.0203581-0.1531649-0.040657-0.2282057-0.0359821
		c-0.0625753,0.2047625-0.0579033,0.2797403-0.1001186,0.4079027c-0.0594597,0.2547684-0.3736525,0.4501381-0.7300243,0.3718777
		c-0.1266022-0.0171814-0.2032032-0.0375414-0.2547684-0.0594597c0.0312376,0.0985174,0.1109533,0.1688833,0.2375555,0.1860638
		c0.1516104,0.015686,0.2532091,0.0344257,0.4501495-0.0280447c-0.1219311,0.0577965-0.193821,0.1125383-0.2688618,0.1172142
		C14.3335295,12.2228107,14.3616514,12.2713223,14.3882103,12.2947359z"/>
	<path class="st0" d="M15.8929348,7.0291066c0,0,0.0250025-0.0015578,0.0265589,0.0234137l0,0
		c0.0250025-0.0015574,0.0750399-0.0046749,0.1000433-0.0062327c-0.0312338-0.0984545-0.0359097-0.1734958-0.0671434-0.2719498
		c-0.2266502-0.0110116-0.4267368,0.0014539-0.6252337,0.0389533c0.1750536-0.0109062,0.3266592,0.0047174,0.4782686,0.0204034
		C15.883584,6.8790245,15.8882599,6.9540658,15.8929348,7.0291066z"/>
	<path class="st0" d="M12.421627,5.7138572c0.0234432-0.0265913,0.0484467-0.0281491,0.0969286-0.0562382
		c-0.8128557,0.2515059-0.9410925,0.6109591-0.7833242,1.1283903c0,0,0,0-0.0015593-0.0250354
		c0.0093498,0.1500821,0.0452585,0.3235774,0.1062021,0.495512C11.7274408,6.6609626,12.0151777,6.0404449,12.421627,5.7138572z"/>
	<path class="st0" d="M16.8871479,6.4650373c0.4642754-0.20472,0.6659927-0.5938835,0.7629967-1.0517926l0,0l0,0
		l-0.0015602-0.0250349c0,0,0.0015602,0.0250349-0.0234432,0.0265927c-0.0969276,0.0562391-0.1954155,0.0874438-0.2642212,0.192194
		c-0.1375847,0.2094355-0.2517242,0.3922787-0.4674683,0.5563207c-0.1203728,0.0828314-0.2423038,0.1406279-0.3657913,0.1734519
		c-0.0984516,0.0312662-0.1750507,0.0109062-0.2454166,0.0906229c-0.0250034,0.0015578-0.0250034,0.0015578-0.0500069,0.0031152
		C16.4870052,6.4899669,16.6432858,6.5806298,16.8871479,6.4650373z"/>
	<path class="st0" d="M12.6407795,12.0521393L12.6407795,12.0521393L12.6407795,12.0521393z"/>
	<path class="st0" d="M16.021244,6.26792l0.0234737-0.0265946c-0.0265942-0.0234737-0.0297089-0.0734801-0.0562677-0.0968943
		c-0.0250025,0.0015578-0.0500059,0.0031157-0.0750093,0.0046735C15.965003,6.1709609,15.9931211,6.2194095,16.021244,6.26792z"/>
	<rect x="11.2052622" y="15.2045422" class="st0" width="0" height="0"/>
	<path class="st0" d="M2.8455379,9.574295L2.8439782,9.549262L2.8455379,9.574295z"/>
	<path class="st0" d="M12.8423195,12.4663782l0.0719252-0.0546808L12.8423195,12.4663782z"/>
	<path class="st0" d="M13.6039782,10.1844807c-0.2469778,0.065588-0.2688656,0.1171513-0.3032904,0.3703594
		c-0.0188036,0.101573-0.0360165,0.2281771-0.0282259,0.3532238c0.0015602,0.025034,0.0015602,0.025034,0.0031195,0.0500689l0,0
		c0,0,0,0,0.0015564,0.024972l-0.0015564-0.024972c0.2032747-0.3641911,0.3658619-0.5751848,0.7019768-0.8220587l0,0
		C13.8509521,10.1188316,13.679019,10.1798058,13.6039782,10.1844807z"/>
	<path class="st0" d="M17.9158192,5.6477571c-0.0296783-0.0734825-0.1359558-0.1673245-0.2156677-0.2376275
		c0.2202663,0.7143369,0.435833,1.3536992,0.4575729,2.1055374c0.0357628,0.9768963-0.0879784,2.2147951-0.9524708,2.8461142
		c-0.9114151,0.6844425-2.0274124,0.5029068-3.1199322,0.2948399c0.0515614,0.0218563,0.103159,0.0437737,0.1531649,0.040658
		c0.970624,0.2659245,2.1412992,0.5193224,3.083951-0.0666027c0.723793-0.4718904,1.0912857-1.4237728,1.136795-2.3053322
		C18.4874992,7.5703902,18.2626629,6.3793406,17.9158192,5.6477571z"/>
	<path class="st0" d="M14.1657238,7.1115818C14.1657238,7.1115818,14.167284,7.1366172,14.1657238,7.1115818
		c-0.1000433,0.0062327-0.1984959,0.037499-0.3219872,0.0702615c-0.0625029-0.19697-0.1703367-0.3157835-0.3297329-0.4564538
		c0.0469217-0.0531235,0.0688057-0.1047502,0.0906935-0.1563139c0,0,0,0-0.0250034,0.0015578
		c0,0,0.0250034-0.0015578,0.023448-0.0265298c-0.2673063,0.1421857-0.5689974,0.135849-0.7847061,0.2999525
		c-0.192296,0.1375122-0.4409056,0.5797977-0.6285267,0.7923503c-0.0250034,0.0015578-0.0500069,0.0031157-0.0750093,0.0046735
		c0.1015682,0.0187407,0.2250586-0.0140214,0.3235426-0.0452895c0.1125097,0.1938548,0.1687469,0.2907519,0.3750687,0.3783612
		c-0.0218878,0.0515633-0.0437756,0.1031265-0.0656939,0.1546936l0.0234785-0.0265312
		c-0.043807,0.1031284-0.0360165,0.2281752-0.0282259,0.3532219C13.0073633,7.8616109,13.5623026,7.5006413,14.1657238,7.1115818
		C14.167284,7.1366172,14.167284,7.1366172,14.1657238,7.1115818C14.1907272,7.110024,14.167284,7.1366172,14.1657238,7.1115818
		C14.167284,7.1366172,14.1657238,7.1115818,14.1657238,7.1115818z"/>
	<path class="st3" d="M2.6081288,8.5848293c-0.0031154-0.050005,0.0203593-0.0765991,0.0172439-0.126606
		c0.020328-0.0765972,0.0391002-0.1781673,0.1079059-0.282918C2.3956072,8.3972073,1.8062112,9.0113869,2.2093983,9.4381962
		C2.1328735,9.0161676,2.2736044,8.8567352,2.6081288,8.5848293z"/>
	<path class="st3" d="M17.2068138,10.3868151c0.8644924-0.63132,0.9866734-1.8942518,0.952467-2.8461766
		c-0.02174-0.7518377-0.2623367-1.3895774-0.4575748-2.1055369c-0.1047192-0.0688081-0.2578831-0.1094656-0.3516922-0.0031581
		c-0.1641464,0.1859589-0.2986145,0.4454007-0.4877968,0.6329184c-0.2610741,0.2421989-0.7409306,0.1968255-0.637846,0.6422687
		c0.0952663,0.3204603,0.1186371,0.6956005,0.0638847,1.0254068c-0.056345,0.3047752-0.104866,0.7345953-0.2424812,0.9440327
		c0.0391312-0.1781712,0.0860939-0.6330242,0.0924301-0.9346843c-0.0109043-0.1750522-0.0218105-0.3501048-0.0593109-0.5486326
		c-0.0250034,0.0015578-0.0750103,0.0046735-0.1000128,0.0062313c-0.1250467,0.0077906-0.3142271,0.1953082-0.3814774,0.3250299
		c-0.1297941,0.3344831-0.1376591,0.6111059-0.2940121,0.9221745c0.1297932-0.3344822,0.0094938-0.6533842,0.1377316-1.0128374
		c0.0422468-0.1281643,0.1360235-0.2344699,0.2814302-0.318861c-0.0750408,0.0046754-0.1485214,0.0343838-0.246974,0.06565
		c-0.4689531,0.1296163-0.420578,0.5031986-0.6738625,0.8704443c0.2439346-0.5173259,0.0736313-0.8330488,0.6645117-1.0205259
		c0.1719379-0.0609117,0.3219872-0.07026,0.4517088-0.0030098c-0.0046749-0.0750408-0.0093498-0.1500821-0.0640316-0.2220063
		c-0.1516056-0.0156236-0.328249-0.0297508-0.4782982-0.0204024C15.3256006,6.7882557,15.25212,6.817966,15.2021132,6.8210816
		c0.0250034-0.0015578,0.0484476-0.028151,0.0734501-0.0297084c-0.0812407-0.0953383-0.0921497-0.2704539-0.1234159-0.3689075
		c-0.078124-0.045332-0.1031275-0.0437741-0.1594-0.1407318c0,0,0,0,0.0250034-0.0015578
		c0.1234913-0.0327621,0.2954597-0.0936766,0.4158316-0.1765075l0,0c0.0484457-0.0281501,0.0969276-0.0562391,0.1469345-0.0593548
		l0,0c-0.0514946-0.4236507-0.4624701-0.9754748-0.8907633-0.998992c-0.2266169-0.0109816-0.3266602-0.0047488-0.622118,0.0889592
		c0.2595463-0.2672343,0.1032324-0.3579278-0.0327206-0.5251908c-0.2187519-0.2876348-0.5078726-0.4955864-0.8235846-0.7269812
		c-0.492322-0.2454917-0.9737072-0.3159325-1.4723368-0.259768c-0.515872,0.1827726-1.1317577,0.3717754-1.1506014,0.8750777
		c-0.0219593,0.4532952,0.0686312,0.6987152,0.373332,1.1567607c-0.373477-0.3533278-0.6079159-0.4893541-0.9346094-0.494132
		C9.681653,5.2569013,9.3362226,5.3537545,8.9892006,5.4255738c-0.1735258,0.035912-0.2970152,0.068706-0.3954678,0.0999713
		c-0.559721,0.6876006-0.878696,1.2096014-1.2570987,1.9863687C7.047338,8.1073971,6.7314787,8.6794043,6.4171791,9.2764454
		C6.2827106,9.5358877,6.2717328,9.7625666,6.237308,10.0157757c0.2156372,0.2376289,0.3500304,0.3798571,0.4406519,0.6252756
		c0.2470498-0.4673195,0.5753746-0.8392401,0.899024-1.2861996c-0.2705278,0.4938507-0.5175776,0.9611692-0.7130651,1.450346
		c-0.1313491,0.3095102-0.1970434,0.4642038-0.1767869,0.7893372c0.2953839,0.3079939,0.5063462,0.470582,0.7611146,0.5300426
		c0.2797713,0.0579014,0.5548987,0.040761,0.7956424-0.1249027c0.6299801-0.3656435,1.2021637-0.853219,1.899291-0.9468517
		c0.334631-0.6735773,0.1831684-1.4926653-0.0136251-2.2335968c-0.1389961-0.6190004-0.1466837-1.145781-0.0355873-1.7803631
		c0.0031157,0.0500064,0.0062351,0.1000748,0.0109062,0.1750531c0,0,0,0-0.0015554-0.024972
		c0.2889709,1.0113215,0.6482801,1.9429927,0.8387671,2.9855819c0.1171122,0.6706266,0.1623678,0.9941406-0.1519318,1.5911818
		c-0.3766956-0.0016003-0.598671,0.0624294-0.9425764,0.1842556c-1.2255354,0.4780807-1.9884286,1.1281385-2.8667235,0.3292646
		c-0.2078466-0.1125822-0.4219594-0.3252382-0.687634-0.5597506c0.0156569-0.151576,0.0329003-0.278183,0.0501132-0.4047871
		c-0.1656313-0.2407446-0.3312936-0.4814882-0.4734812-0.7488251c-0.1406279-0.2423029-0.1484184-0.3673496-0.1389651-0.6190023
		C5.430831,9.5638924,5.4168057,9.3387699,5.6372967,8.8480368C5.768681,8.5385866,5.9000301,8.2290764,6.0829492,7.9415474
		C5.2497935,8.2695875,4.7135949,8.5289888,4.1335454,9.2931871c-0.8567736,1.1580982-0.6507056,2.4507809-0.3461535,3.7121964
		c0.2577813,0.511198,0.5625117,0.9692106,0.8640993,1.3772802c-0.0438781,0.5048618-0.0955157,0.884675-0.2237849,1.2441311
		c-0.0828714,0.2813587,0.1765685,0.4157963,0.4579,0.4987316c0.3782554,0.0266342,0.8784423-0.004528,0.8847485-0.3061848
		c0.0172124-0.1266041-0.0140252-0.2251215-0.0483747-0.3735819c0.3173118-0.1453018,0.5768585-0.4125357,0.7863364-0.676651
		c0.2627335-0.6189594,0.2112432-1.0425491,0.2707429-1.6990471c0.0062346,0.1000748,0.0374999,0.1985273,0.043735,0.2986021
		c0.0593524,0.146903,0.098381,0.3704672,0.1624398,0.5924082c0.6252332-0.0389528,1.298913-0.1060553,1.8570032-0.4169579
		c0.1594725-0.2609997,0.2970562-0.4704351,0.4831219-0.7079592c-0.0875816,0.2062569-0.1297979,0.3344193-0.1689253,0.5126524
		c0.0077906,0.1250467-0.0094213,0.2516508-0.0016308,0.3766975c0.009346,0.1500187-0.0078659,0.2766228,0.0280428,0.4501181
		c0.0046749,0.0750408,0.0359135,0.1735573,0.0405846,0.2485352c-0.054678-0.0718622-0.1343937-0.1422272-0.1890745-0.2141533
		c-0.2876654,0.2187862-0.4314842,0.3281469-0.7222338,0.4969244c-0.2423019,0.1406279-0.0157595,0.5533104,0.1248684,0.7956133
		c0.2109938,0.1625872,0.4454346,0.298645,0.6877365,0.1580172c0.2188559-0.1140985,0.2360687-0.2407026,0.3470936-0.4735527
		c0.2782125,0.0328674,0.4579401,0.0970011,0.6721239-0.0920744c0.3095531-0.2703495,0.569068-0.5375824,0.8520269-0.8314066
		c0.1641779-0.1859617,0.2313967-0.3156815,0.3189745-0.5220003c0.1923723-0.5391827,0.3488312-1.2519217,0.4114466-1.8584146
		c-0.1968651-0.3392-0.3281422-0.4314213-0.4015207-0.8034458l0,0l0,0l0,0c0,0,0.0250034-0.0015574,0.0265589,0.0234137
		c0.4188404,0.2751703,0.778327,0.4034367,1.2378263,0.5254736c0.1844311,0.1391106,0.3438311,0.2798433,0.5282297,0.4189558
		c0.2641191,0.2095404,0.503231,0.4205761,0.8533678,0.3987617c0.0750408-0.0046749,0.1734972-0.0358782,0.2469788-0.065588
		c-0.0031157-0.0500059-0.0312347-0.0984545-0.109395-0.1438475c-0.0734491,0.029707-0.1500492,0.0093479-0.2500925,0.0155811
		c-0.4814148-0.0704088-0.3421688-0.6565428-0.263937-1.0128813c0.0609837-0.2297955,0.0219593-0.4532976-0.0420685-0.6752396
		c0.1297178,0.0671873,0.2609997,0.1594715,0.4141645,0.2001286C15.1794004,10.8897228,16.2938385,11.0462236,17.2068138,10.3868151
		z M16.2572403,6.4289498c0.0250034-0.0015578,0.0250034-0.0015578,0.0500374-0.0031176
		c0.0953369-0.0812726,0.148489-0.0343828,0.2454185-0.0906224c0.1219311-0.057796,0.2454185-0.090621,0.3657894-0.1734524
		c0.2157116-0.1640396,0.3298531-0.3468833,0.4674683-0.5563207c0.0687752-0.1047482,0.167263-0.1359529,0.2641907-0.1921921
		c0,0-0.0015602-0.0250349,0.0234432-0.0265927l0.0015602,0.0250354l0,0l0,0
		c-0.0970039,0.4579086-0.2987232,0.8470721-0.7629967,1.0517921C16.6432858,6.5806298,16.4870052,6.4899669,16.2572403,6.4289498z
		 M8.9418106,7.8889685C8.9027815,7.6654043,8.8653164,7.4669375,8.8262882,7.2433739
		C8.5449295,7.1605024,8.5355082,7.4121532,8.4494858,7.643445C8.2336702,8.209219,7.985065,8.6515675,7.539484,9.1563234
		c0.2251616-0.4157553,0.376874-0.8018026,0.501996-1.2112632C8.115037,7.5136809,8.330924,6.546175,8.6138821,6.2523503
		c0.1876221-0.212553,0.237628-0.2156682,0.5112-0.257781c0.3235426-0.0452886,0.6455612-0.1155519,0.9691048-0.16084
		c-0.0484467,0.0281491-0.0734501,0.029707-0.0968933,0.0562997c0.14849-0.0343833,0.2735367-0.0421743,0.4220276-0.0765557
		C9.420435,6.3025641,9.0233002,6.7791715,8.9418106,7.8889685z M11.7086687,6.7625318L11.7086687,6.7625318
		c-0.1312056-0.4939537-0.0029688-0.8534069,0.7848835-1.1033554c-0.0234785,0.0265317-0.0484819,0.0280895-0.0969286,0.0562382
		c-0.4049206,0.351624-0.6676264,0.97052-0.6067867,1.5441885C11.7539282,7.0861087,11.7180185,6.9126139,11.7086687,6.7625318z
		 M13.2490187,10.9346552l0.0015602,0.0250359C13.2505789,10.959691,13.2505789,10.959691,13.2490187,10.9346552
		C13.2505789,10.959691,13.2505789,10.959691,13.2490187,10.9346552L13.2490187,10.9346552
		c0.0172129-0.1266041,0.0094223-0.2516508,0.0281944-0.35322c0.0344563-0.253211,0.0547838-0.3298092,0.303318-0.3704243
		c0.0984879-0.0312052,0.2719803-0.0671463,0.3454618-0.0968552l0,0
		C13.6148844,10.3595343,13.4522972,10.5705271,13.2490187,10.9346552z M14.1422815,7.1381745
		c-0.5799789,0.3624668-1.1349182,0.7234364-1.3960962,1.3673682c-0.0077906-0.1250467,0.0094223-0.2516508,0.0282249-0.3532228
		l-0.0234785,0.0265312c0.0219193-0.0515661,0.043807-0.1031303,0.0656948-0.1546936
		c-0.2063227-0.0876093-0.2625589-0.1845069-0.3750687-0.3783603c-0.1234875,0.032825-0.2219753,0.0640297-0.3235426,0.0452886
		c0.0250025-0.0015574,0.0500059-0.0031152,0.0750084-0.004673c0.1891813-0.1875186,0.4377871-0.6298661,0.6285276-0.7923508
		c0.2157087-0.1641026,0.5173998-0.1577663,0.7847052-0.299952c0,0-0.0250034,0.0015574-0.023447,0.0265293
		c0,0,0,0,0.0250034-0.0015578c-0.021884,0.0516267-0.0437717,0.1031904-0.0906944,0.1563134
		c0.1844349,0.1391735,0.2656746,0.2345119,0.3297338,0.4564543C13.9672279,7.1490808,14.0672407,7.1428499,14.1422815,7.1381745
		C14.167284,7.1366172,14.1657238,7.1115818,14.1422815,7.1381745C14.1657238,7.1115818,14.167284,7.1366172,14.1422815,7.1381745
		c0.0250025-0.0015574,0.0250025-0.0015574,0.0250025-0.0015574S14.167284,7.1366172,14.1422815,7.1381745z"/>
	<path class="st3" d="M3.8747199,14.004199c-0.300024-0.3829727-0.4453273-0.7003174-0.5968611-1.117672
		c-0.1407347,0.1593685-0.3048775,0.3453903-0.445581,0.5047569c-0.1172562,0.1328373-0.1422591,0.1343946-0.1047904,0.3329239
		c0.0405843,0.2485352,0.2062154,0.4892807,0.445327,0.7003164c0.1750529-0.0109053,0.3516967,0.0032196,0.5533123,0.0157909
		C3.7918169,14.2855587,3.8355923,14.1824312,3.8747199,14.004199z"/>
	<path class="st2" d="M4.2085857,9.2885122c0.5800495-0.7641983,1.0912142-1.0220404,1.9494038-1.3516397
		c0.045331-0.0781569,0.0906935-0.1563139,0.1610274-0.2360277c0.2783189-0.3688049,0.5331588-0.7110772,0.7895589-1.0283165
		C5.9690585,6.9192553,5.2609224,7.2395687,4.5277076,7.963109C3.9836426,8.4991331,3.6490152,9.1727734,3.4441056,9.9136
		c-0.1470058,0.4610872-0.1424062,0.9377975-0.0206535,1.683404c0.079644,0.4720974,0.2592964,0.9379015,0.490546,1.425622
		C3.5578492,11.739295,3.3517811,10.4466124,4.2085857,9.2885122z"/>
	<path class="st2" d="M7.3366342,7.5119138c0.3784027-0.7767673,0.6973777-1.298768,1.2836595-1.9629235
		c-0.1719685,0.060914-0.2923403,0.1437454-0.4814901,0.3312621C7.5759687,6.5178771,7.0912914,7.2008657,6.5784607,7.8353438
		C6.2751703,8.2057047,6.1469364,8.5652218,5.971777,8.9777985C5.7966208,9.3904381,5.8560085,9.5374031,6.1263547,9.8468933
		c0.0531254,0.0469532,0.081244,0.0954008,0.1343966,0.1422892c0.0328655-0.2782421,0.0454068-0.479825,0.1799068-0.7392683
		C6.7314787,8.6794043,7.047338,8.1073971,7.3366342,7.5119138z"/>
	<path class="st2" d="M10.9883165,5.6776223c-0.3047323-0.4580417-0.3953228-0.7034621-0.3733616-1.1567268
		c0.0173159-0.5283384,0.6332006-0.7173412,1.1505995-0.875108c-0.4720659,0.0796421-0.9879074,0.2624118-1.5709982,0.5749028
		C9.6114645,4.5331826,9.4019547,4.7972999,9.0564194,5.2958541l0,0c0.3751402-0.0233717,0.748723-0.0717459,1.1473398-0.1216803
		c-0.0500383,0.0031176-0.0984859,0.0312362-0.1234894,0.0327935C10.3803692,5.188271,10.6148081,5.3242965,10.9883165,5.6776223z"
		/>
	<path class="st1" d="M9.2860374,6.1602731c-0.228281,0.3656878-0.3924551,0.5517111-0.4144182,1.0049448
		C8.7685356,6.7197747,8.7638607,6.6447344,8.942132,6.2821002C8.8936853,6.3102493,8.8467636,6.3633738,8.749835,6.4196129
		C8.4903202,6.6868448,8.1728334,7.6356125,8.0445957,7.9950657C8.0430365,7.9700322,8.0414801,7.9450603,8.0664835,7.9435024
		C7.9413614,8.3529625,7.7912397,8.7640419,7.564518,9.1547632C7.9835052,8.6265316,8.2336702,8.209219,8.4745197,7.6418858
		C8.5605106,7.4105954,8.5699644,7.1589427,8.8512917,7.241816c0.0390282,0.2235637,0.0764933,0.4220304,0.1155214,0.6455946
		c0.081522-1.1097989,0.4786253-1.5864038,1.452508-2.0739374c-0.1484909,0.0343814-0.2735376,0.0421724-0.4220276,0.0765557
		C9.7534313,6.0056214,9.5080128,6.0962443,9.2860374,6.1602731z"/>
	<path class="st1" d="M9.9226179,11.9452887c0.3423462-0.1468611,0.5658798-0.1858559,0.9425764-0.1842556
		c0.2892647-0.5954819,0.2690125-0.9205532,0.1519308-1.5911827c-0.1889277-1.0175543-0.5748301-1.9726992-0.8387976-2.985579
		c0,0,0,0,0.0015554,0.0249715c0.0593157,0.548696,0.1404848,1.0457668,0.2982502,1.5631351
		c0.2295866,0.8644209,0.2998085,1.5881691,0.0057611,2.5102825c-0.7737236,0.0733356-1.3959436,0.5640287-2.0743752,0.9577599
		c-0.3157835,0.1703377-0.5893235,0.2124491-0.9441357,0.1592226c-0.1266026-0.0171814-0.2547646-0.0593977-0.3594837-0.1282053
		C7.9591918,13.0718699,8.698638,12.4483414,9.9226179,11.9452887z"/>
	<path class="st1" d="M12.5641069,12.4335117c-0.0797863,0.3313665-0.1611338,0.6376991-0.2643681,0.9955959
		c-0.0797873,0.3313656-0.5692148,1.3409834-0.8552895,1.5848017c0.0531216,0.0468903,0.1797285,0.0641346,0.3798151,0.0516682
		c0.1500502-0.0093479,0.7017984-0.0186539,0.8518486-0.0280018c0.3001308-0.0186987,0.4236212-0.0514612,0.4268084-0.4031878
		c0.0140972-0.1766109-0.0124655-0.2000866-0.0968523-0.3454304c-0.0171413-0.2751274-0.0592813-0.5486355-0.0764217-0.8237638
		c-0.0155821-0.2500935-0.0749378-0.3970575-0.1905622-0.6409187
		C12.6546974,12.6789322,12.6219044,12.5554428,12.5641069,12.4335117z"/>
	<path class="st1" d="M11.4603205,13.6571369c-0.0859861,0.2313519-0.1532364,0.3610735-0.318943,0.5219984
		c-0.257987,0.2922678-0.5425053,0.561058-0.8520575,0.8314075c-0.2141533,0.1890755-0.3939123,0.1249428-0.6721239,0.0920753
		c-0.111022,0.2329121-0.1282349,0.3595171-0.3470936,0.4735518c-0.2423029,0.1406279-0.4767437,0.004571-0.687706-0.1580181
		c0.0281191,0.0484486,0.0812445,0.0954018,0.0843601,0.1454077c0.3031435,0.4330416,0.65944,0.9129725,1.1690483,0.6301584
		c0.168849-0.1109829,0.2563953-0.3173008,0.3470926-0.4735518c0.143815-0.1094236,0.9020643-0.8345242,1.0224361-0.9173555
		c0.1688213-0.110919,0.752058-1.2268429,0.8115177-1.4816113c0.1392155-0.586133,0.3362627-1.0502748,0.3473473-1.6786261
		c-0.4110842-0.1501837-0.6236019-0.3377447-0.9439898-0.6441793c0.0984125,0.3704643,0.2031317,0.4392719,0.401556,0.8035059
		C11.8091516,12.4052143,11.6526928,13.1179543,11.4603205,13.6571369z"/>
	<path class="st1" d="M11.4718027,11.0202484C11.4718027,11.0202484,11.4968061,11.0186901,11.4718027,11.0202484
		C11.4968061,11.0186901,11.4718027,11.0202484,11.4718027,11.0202484L11.4718027,11.0202484z"/>
	<path class="st1" d="M8.9657249,13.5112896c-0.5580864,0.3109646-1.2317705,0.378005-1.8570037,0.4169579
		c0.0015597,0.025034,0.0031195,0.0500689,0.0296783,0.0734835c0.6580272,0.0845356,1.3317103,0.0174952,1.9741874-0.1480637
		c-0.0031185-0.0500689,0.0187683-0.1016331,0.0406561-0.1531973c0.0406561-0.1531963,0.1063509-0.3078899,0.1454506-0.4860582
		c0.0015554,0.024972,0.0031157,0.0500059,0.0046711,0.0749779c0.0406914-0.1531353,0.0813465-0.3063316,0.1689253-0.5126524
		C9.2877836,13.0392962,9.1251965,13.2502899,8.9657249,13.5112896z"/>
	<path class="st1" d="M6.6333632,14.7613182c-0.2094779,0.2641153-0.4690247,0.5313492-0.7863364,0.676651
		c0.0343494,0.1484604,0.0405841,0.2485352,0.0483747,0.3735819c-0.0297537,0.328187-0.5064931,0.3328199-0.8847489,0.3061857
		c0.1281624,0.0422153,0.254765,0.0593967,0.3313336,0.0797577c0.2547688,0.0594597,1.195714,0.2519016,1.2755013-0.0794659
		c0.0375404-0.2032022,0.0297499-0.328249,0.0157285-0.5533085c0.1547966-0.3360405,0.2017183-0.389163,0.2892962-0.5954838
		c0.1125813-0.2078772,0.1063504-0.3078899,0.1157722-0.5595407c-0.0202565-0.3251343-0.0545344-0.8753271-0.0685596-1.1004486l0,0
		c-0.0062308-0.1000128-0.0374651-0.1984673-0.0436997-0.298542C6.8430467,13.6937351,6.8960967,14.1423588,6.6333632,14.7613182z"
		/>
	<path class="st1" d="M5.9448924,10.5611906c0.1421876,0.2673368,0.3078184,0.5080814,0.4734492,0.748827
		c0.0187998-0.101635,0.0625749-0.2047634,0.1047907-0.3329258c-0.1499782-0.3923826-0.335937-0.556529-0.6609645-0.9379444
		c-0.0265937-0.0234756-0.0547123-0.0719233-0.081275-0.0953999C5.796474,10.193841,5.8058243,10.3439217,5.9448924,10.5611906z"/>
	<path class="st1" d="M3.2997463,12.8349628L3.276299,12.8614922c0.1780968,0.4408321,0.32184,0.7331419,0.5968649,1.1177349
		c-0.0391314,0.1781693-0.0594592,0.2547684-0.1751597,0.4125776c-0.2016118-0.0125084-0.3782554-0.0266342-0.5533082-0.015728l0,0
		c0.2125216,0.1876221,0.9470732,0.6941881,1.1987979,0.3019085c0.0453625-0.0781574,0.0641346-0.1797285,0.0829067-0.2812977l0,0
		c-0.4109774-0.5518551-0.8031828-1.2052813-1.0468669-1.8930912C3.3622899,12.6302023,3.3185146,12.7333307,3.2997463,12.8349628z"
		/>
	<path class="st1" d="M2.8207536,8.3707199c0.0015595,0.025034,0.0031154,0.0500059-0.020328,0.0765972
		C2.8019853,8.472352,2.8051007,8.5223589,2.8082161,8.5723639c0.0750406-0.0046749,0.1266065,0.0172443,0.179728,0.0641356
		C2.9551504,8.51301,2.9239125,8.4144936,2.8207536,8.3707199z"/>
	<path class="st1" d="M3.1908967,9.8791752c0.0406873-0.1531982,0.0829029-0.2813606,0.1251497-0.409524
		c-0.0938089,0.106307-0.2141843,0.1890755-0.3611147,0.2484932C2.589138,9.8915348,2.5813475,9.7664881,2.41101,9.4507046
		c0.2845497-0.2687922,0.1923721-0.5391827,0.2221532-0.8674345c-0.3361154,0.2468739-0.476815,0.4063025-0.4237649,0.8549261
		c0.0015559,0.024972,0.0265589,0.0234137,0.0281186,0.0484476C2.298429,9.6585817,2.331254,9.7820692,2.4156137,9.9274769
		c0.1421835,0.2672749,0.4876494,0.1704826,0.756511,0.0532684C3.1690092,9.9307384,3.1674495,9.9057055,3.1908967,9.8791752z"/>
	<path d="M9.0161591,3.4404826C8.5972452,3.5670125,8.5268803,3.6467292,8.4283209,4.0796652
		C8.6097116,3.7671008,8.7285252,3.6592665,9.0161591,3.4404826z"/>
	<path d="M1.0731436,8.9315252C1.1263717,8.576746,1.192031,8.4219904,1.3999805,8.1328402
		C1.063869,8.379776,1.0200936,8.4829035,1.0731436,8.9315252z"/>
	<path d="M1.3121839,9.5442934C1.337334,8.7393351,1.4671274,8.4048519,1.9799584,7.7703738
		C1.3108468,8.314188,1.1498154,8.5501528,1.3121839,9.5442934z"/>
	<path d="M9.688283,3.3484082C8.8754578,3.5998809,8.6347141,3.765543,8.4203835,4.7580214
		C8.7253046,4.0109634,8.9848518,3.7437289,9.688283,3.3484082z"/>
	<path d="M8.7263918,6.4462037c0.0703659-0.0797148,0.1188154-0.1078019,0.192297-0.1375122
		C8.7388573,6.6462922,8.770092,6.7447467,8.848176,7.1918087c0.0219593-0.4532948,0.1861372-0.639257,0.4144182-1.0049429
		c0.246974-0.0656495,0.4658022-0.1796846,0.7112207-0.2703052c0.0234785-0.0265317,0.0734854-0.0296469,0.0969276-0.0562401
		C9.7472,5.9056101,9.4251823,5.9758725,9.1016035,6.021101C8.8280668,6.0632734,8.7780609,6.0663886,8.5904388,6.2789426
		C8.3324795,6.5711465,8.115037,7.5136809,8.018033,7.9715896C8.0195923,7.996623,8.0211525,8.0216589,7.9961495,8.0232162
		C8.1743889,7.660584,8.4653168,6.6884027,8.7263918,6.4462037z"/>
	<g>
		<path class="st0" d="M3.2763178,12.8614702L3.252831,12.8880787c-0.140727,0.1593819-0.304857,0.3453665-0.4455421,0.5047464
			c-0.1157191,0.1578665-0.1407664,0.1594267-0.1048112,0.3329458c0.0655921,0.2469797,0.2062423,0.4892836,0.4453535,0.7003088
			c0.2125087,0.1876221,0.9470637,0.6941967,1.1987917,0.3018923c0.0453396-0.0780897,0.0641112-0.1797113,0.0828848-0.281291
			c-0.4109588-0.551837-0.8047464-1.230298-1.0484178-1.9181118C3.3622766,12.6301937,3.3184974,12.7333307,3.2763178,12.8614702z"
			/>
		<path class="st0" d="M16.046278,6.2663336c0,0-0.0015583-0.0250053,0.023447-0.0265632
			c-0.02812-0.0484529-0.0547276-0.0719395-0.056284-0.0969028c-0.0250053,0.0015578-0.0500107,0.0031157-0.075016,0.0046735
			C15.9899912,6.1693888,16.0181122,6.2178416,16.046278,6.2663336z"/>
		<path class="st0" d="M18.5357914,8.3456879c0.0267563-0.7799692-0.1731014-1.9726033-0.5449543-2.7025943
			c-0.0296822-0.0735002-0.1109314-0.16889-0.2156658-0.2376299c-0.1312637-0.0923162-0.2578487-0.1095324-0.3516788-0.0032344
			c-0.1641312,0.1859426-0.2970638,0.4704356-0.4878025,0.6329336c-0.2610779,0.2422295-0.7409382,0.1968184-0.6378746,0.6423254
			c0.0703087,0.3219938,0.1186867,0.6956005,0.0638809,1.0253468c-0.0563164,0.304822-0.104847,0.7346296-0.2424545,0.9440641
			c0.0391006-0.178237,0.0861168-0.6330109,0.0924225-0.9347167c0.0156574-0.1515903-0.0218124-0.3501177-0.0592842-0.5486445
			c-0.0250053,0.0015578-0.075058,0.0046763-0.1000633,0.0062342c-0.150032,0.009347-0.3392124,0.1968503-0.3814306,0.3250351
			c-0.1563387,0.3110538-0.137641,0.6111603-0.2940655,0.9221773c0.1282606-0.3594675,0.0345449-0.6549425,0.1378012-1.0128517
			c0.0421772-0.1281819,0.1610165-0.2359538,0.2813673-0.3188009c-0.0749741,0.0046706-0.1484766,0.0343108-0.2469797,0.0655918
			c-0.4423494,0.1530714-0.420537,0.5031886-0.6738224,0.8704872c0.2439413-0.5172887,0.0720491-0.85814,0.6644726-1.0205612
			c0.196969-0.0624766,0.3220377-0.0702686,0.4517384-0.0030417c0.0015612,0.0250473,0.0265656,0.0234895,0.0265656,0.0234895
			c0.0250053-0.0015578,0.075058-0.0046763,0.1000633-0.0062342c-0.0312386-0.0985055-0.0374699-0.1985269-0.0671902-0.2719827
			c-0.2266102-0.0110264-0.4266949,0.0014391-0.6252193,0.0389519c-0.0500107,0.0031157-0.1235113,0.0327973-0.17348,0.0359106
			c0.0249634-0.0015554,0.0484114-0.0281186,0.0734587-0.0296788c0.0234442-0.0266051,0.0719004-0.0546846,0.0969057-0.0562425
			c0.0734978-0.0297236,0.1719637-0.0609183,0.2454195-0.0906396c0.0250473-0.0015602,0.0234861-0.0266075,0.0219316-0.0515709
			c0.0202894-0.0765715-0.0609579-0.1719198-0.1610212-0.1656857c-0.0765352-0.0203762-0.1719227,0.0609159-0.1656904,0.1609378
			c0.0015574,0.0250053,0.0281181,0.0484109,0.0296783,0.0734582c-0.0546837-0.0719004-0.0593605-0.1469584-0.0640316-0.2219329
			c-0.0046759-0.075058,0.0172138-0.1266265,0.0391006-0.1782374l-0.0250053,0.0015583
			c-0.0734978,0.0297232-0.1985245,0.0375128-0.2751017,0.017139c0.1235142-0.0327554,0.2938757-0.1187186,0.4157867-0.1765189
			c0.0484943-0.0281234,0.0969477-0.0562449,0.1469584-0.0593605c0.0250473-0.0015607,0.075016-0.0046735,0.1000214-0.0062313
			c0.0500526-0.0031185,0.075058-0.0046763,0.126627,0.0172133s0.1281433,0.0422215,0.2047586,0.0625505
			c-0.1406498-0.2423038-0.2781429-0.4345994-0.4421959-0.650301c-0.1625814-0.1907325-0.292285-0.2580013-0.5251226-0.3690071
			c-0.0516109-0.0218873-0.103179-0.043777-0.154748-0.0656667c-0.1766376-0.0140977-0.3532362-0.0282397-0.50175,0.0061574
			c0.1219091-0.0578418,0.2204142-0.0890813,0.3204365-0.0953131c-0.3141279-0.2063513-0.6048107-0.4393077-0.9204979-0.6707067
			c-0.1844301-0.1391664-0.3938618-0.2767332-0.5751343-0.3658915c-0.4938831-0.2705019-0.9753008-0.3409185-1.4723768-0.2597451
			c-0.4720707,0.0796156-0.9878759,0.2624078-1.5709915,0.5749059C9.6349211,4.5066237,9.4269695,4.7957482,9.0814495,5.2942634
			c0.375123-0.0233707,0.7487316-0.0717072,1.1473026-0.1216412C10.2037468,5.17418,10.1552935,5.202301,10.1052828,5.2054167
			C9.7597942,5.3022065,9.4143534,5.3990774,9.0673094,5.4709039C8.8938322,5.506856,8.7703638,5.5396509,8.671855,5.5708485
			c-0.17348,0.0359106-0.2938719,0.1187606-0.4814939,0.3312693C7.6259866,6.5147614,7.1428571,7.2227116,6.6300516,7.857245
			C6.3267522,8.2276173,6.1984911,8.5870848,6.0233374,8.9997206c-0.1516671,0.3860273-0.117312,0.534544,0.1545968,0.8690796
			c0.0531263,0.046896,0.1062531,0.093791,0.1343765,0.1422853c0.190661,0.2391882,0.3250771,0.3814287,0.4406381,0.6252956
			c0.2486544-0.442318,0.5754008-0.8392534,0.8990316-1.2861996c-0.270504,0.4938412-0.4925113,0.9596014-0.7130046,1.4503269
			c-0.1313748,0.3094978-0.1970439,0.4642038-0.1767859,0.7893581c0.2953143,0.3079758,0.4813409,0.4721031,0.7610765,0.5300245
			c0.2797771,0.0579185,0.5533175,0.0157318,0.7956214-0.124918c0.6034508-0.3890305,1.202178-0.8532,1.8993387-0.9468384
			c0.3096104-0.6719952,0.1581678-1.4911098-0.0136452-2.2336054c-0.1374178-0.5940228-0.1466913-1.1457834-0.0356112-1.7803493
			c0.0046768,0.075058,0.0077896,0.1250272,0.0109053,0.1750379c0.0827761,0.5221205,0.1655102,1.0442438,0.2982492,1.5631676
			c0.2280579,0.8394432,0.3248129,1.5866146,0.0057793,2.5102634c-0.7752934,0.0483017-1.3959522,0.5640421-2.0743761,0.9577436
			c-0.2892408,0.193779-0.5893474,0.2124767-0.9441414,0.1592312c-0.1266241-0.0171719-0.2297611-0.0609512-0.3595037-0.1281748
			c-0.2078352-0.112606-0.421946-0.3252726-0.6876235-0.5597878c0.0156608-0.1515484,0.0329161-0.2781773,0.0501323-0.4047623
			c0.0172133-0.126627,0.0609899-0.2298059,0.1047692-0.332943c-0.1499581-0.3923807-0.3359427-0.5565109-0.6609778-0.9379416
			C5.884059,9.9875193,5.8574982,9.9641132,5.8308907,9.9406271C5.5308609,9.5576382,5.5183949,9.3575525,5.7373281,8.8417797
			c0.1313801-0.3094139,0.2627521-0.6189547,0.4456582-0.906477c0.0453768-0.0781765,0.1157193-0.157866,0.1610537-0.2360401
			C6.6223364,7.3304901,6.8771801,6.9881968,7.133584,6.6709514C5.9940763,6.9177036,5.2859335,7.2379909,4.5527081,7.9615221
			C4.0102239,8.5225973,3.674053,9.1711864,3.4691434,9.9120502c-0.1220274,0.4595308-0.142436,0.9377909-0.0206757,1.6834049
			c0.0796156,0.4720697,0.2608523,0.9629116,0.4905398,1.4255905c0.2578137,0.5112152,0.5625169,0.9692211,0.8641045,1.3772154
			c-0.0438952,0.5048676-0.0955381,0.8847055-0.2237549,1.2442122c-0.1063719,0.3078985,0.1765184,0.4157867,0.4578514,0.4986687
			c0.103179,0.0437775,0.2297664,0.0610352,0.331388,0.0798054c0.2547669,0.0593929,1.1956735,0.2518406,1.2754426-0.0794621
			c0.0625505-0.2047577,0.0532007-0.3548317,0.0157294-0.553359c0.1298223-0.3344202,0.1767144-0.3875885,0.2893205-0.5954237
			c0.1360064-0.2344799,0.1313324-0.3094959,0.1157513-0.5595913c-0.0202522-0.3250704-0.0810966-0.8987627-0.0685568-1.1004047
			c0.0609183,0.1719637,0.0984311,0.3704882,0.1624627,0.5924206c0.0265241,0.0234919,0.0280819,0.0484972,0.0296373,0.0734615
			c0.6580577,0.0845556,1.3317742,0.0175219,1.9742055-0.148057c0.0218878-0.05161,0.0187721-0.1016207,0.0406618-0.1531897
			c0.0391474-0.1781559,0.1047716-0.332902,0.1454773-0.4860525c0.0015545,0.0249634,0.0031157,0.0500107,0.0046711,0.074975
			c0.0077887,0.1250267-0.0094242,0.2516537-0.0016356,0.3766804c-0.0141363,0.1766815-0.0063448,0.3017511,0.0280476,0.450181
			c0.0046759,0.075058,0.0359125,0.173521,0.0405865,0.248538c-0.0547266-0.0718985-0.1343718-0.1422014-0.1891003-0.2141409
			c-0.2876415,0.2187815-0.4314423,0.3281507-0.7222404,0.4969244c-0.2423038,0.1406507-0.0407381,0.5548763,0.124918,0.7956219
			c0.0296783,0.0734587,0.0577993,0.121912,0.0843601,0.1453171c0.3031483,0.4330425,0.660984,0.9380264,1.1690807,0.6301594
			c0.1688089-0.1108856,0.2563648-0.3172016,0.3470755-0.4735518c0.1438036-0.1093264,0.9020319-0.8344574,1.0224266-0.9172659
			c0.168848-0.1109295,0.7536287-1.2018747,0.8115082-1.4816084c0.1376829-0.6111622,0.3362846-1.0503616,0.3473434-1.6786957
			c-0.4110756-0.1501064-0.6220684-0.3127203-0.9439487-0.6441851c0.0249634-0.0015554,0.0249634-0.0015554,0.0249634-0.0015554
			c0.41887,0.2752171,0.7798948,0.428484,1.2894316,0.5473118c0.1844292,0.1391659,0.3438559,0.279933,0.5282383,0.4190178
			c0.2391167,0.2111092,0.5032339,0.4205761,0.8533506,0.3987637c0.075016-0.004674,0.173522-0.0359135,0.2469807-0.0655928
			c0.2938719-0.1187601,0.5549526-0.3609476,0.6363192-0.6672888c0.0406609-0.1531897,0.0578737-0.2798166,0.0985403-0.4329224
			c-0.075016,0.004673-0.1515932-0.0157003-0.2282114-0.0360718c-0.0891113,0.1813536-0.0594349,0.2547693-0.1000957,0.4079599
			c-0.0344296,0.253211-0.3752365,0.4251432-0.7300301,0.3718977c-0.1266289-0.0172558-0.2031593-0.0375481-0.2547722-0.0594769
			c0.0312366,0.098464,0.1109295,0.168848,0.2375565,0.1860619c0.1515903,0.0156584,0.2516537,0.0094242,0.4235754-0.0514917
			c-0.121911,0.0577993-0.1953697,0.0874786-0.2688675,0.1172028c-0.0734606,0.0296364-0.1484766,0.0343103-0.2500954,0.0155811
			c-0.4814205-0.0704584-0.3421373-0.6566191-0.2639265-1.0129261c0.0609932-0.229764,0.0219641-0.4532967-0.0420704-0.675271
			c0.1547089,0.065711,0.2844486,0.1328936,0.4141521,0.2001619c0.051568,0.0218897,0.1016207,0.0187712,0.1531868,0.0406189
			c0.995636,0.2643862,2.1428614,0.5444307,3.0839586-0.0665808C18.0478058,10.1837606,18.4137287,9.2069025,18.5357914,8.3456879z"
			/>
		<path class="st0" d="M12.5640926,12.433485c-0.0797644,0.3313856-0.1861353,0.6392841-0.2643471,0.9955912
			c-0.0798063,0.3313875-0.5442381,1.3394442-0.8552818,1.5848293c0.0531263,0.046895,0.178153,0.0391054,0.379796,0.0516453
			c0.1515903,0.0156584,0.7017927-0.0186205,0.8518667-0.0279703c0.300107-0.0186968,0.4236183-0.0514946,0.4268074-0.4032116
			c0.014101-0.1765957-0.0124655-0.2000847-0.0968704-0.3454409c-0.0171394-0.2751017-0.0592813-0.5486031-0.0764227-0.8237457
			c-0.0155821-0.2500963-0.0749426-0.3970547-0.2139902-0.6143141C12.6562481,12.7039127,12.6218958,12.555438,12.5640926,12.433485
			z"/>
		<path class="st0" d="M3.1643186,9.8556919c0.0422606-0.1281872,0.082927-0.2812939,0.1251457-0.4094782
			C3.1690664,9.5289803,3.0753233,9.635314,2.928323,9.6946774c-0.365773,0.1734447-0.373565,0.0483761-0.5438521-0.2673883
			C2.6705513,9.1834593,2.576838,8.8880262,2.6065521,8.5598011C2.6034362,8.5097904,2.6269283,8.4832668,2.6238074,8.4331722
			c0.0203342-0.0765324,0.064111-0.1797113,0.1079321-0.2828512C2.4190512,8.3706636,1.8296664,8.9847813,2.2078307,9.4131489
			c0.0015604,0.0250473,0.0015604,0.0250473,0.0281212,0.0484533C2.2968729,9.6336079,2.331265,9.7820377,2.414073,9.9024334
			c0.1437242,0.2923174,0.4891706,0.1955299,0.7299163,0.0298738C3.1424289,9.9072599,3.165879,9.8807392,3.1643186,9.8556919z"/>
		<path class="st0" d="M2.8457401,8.3691406C2.8222952,8.3957453,2.8238504,8.4207087,2.8254108,8.445756
			C2.801966,8.4723616,2.8050792,8.5223303,2.8081949,8.572341C2.881695,8.5426598,2.9348242,8.5895967,2.9879508,8.6364918
			C2.9801588,8.5114222,2.9489193,8.4129171,2.8457401,8.3691406z"/>
		<path class="st0" d="M17.6292744,10.9236374c-0.0320435,0.0222206-0.0664616,0.0434551-0.0931873,0.0612659
			C17.5669155,10.966795,17.59799,10.9438772,17.6292744,10.9236374z"/>
		<path d="M12.84231,12.4663563l0.0250053-0.0015574l0.0595961-0.0240641
			c-0.0033646-0.0101337-0.009264-0.0184288-0.0126591-0.0290651L12.84231,12.4663563z"/>
		<path d="M18.7423077,7.7264524C18.7140484,7.2482419,18.61273,6.5229001,18.2633648,5.684155
			c-0.0481567-0.1082764-0.0997314-0.2104492-0.1630859-0.2989502c-0.0281372-0.0485229-0.0562134-0.0969849-0.1077881-0.1188965
			c-0.1062622-0.09375-0.2360229-0.1610107-0.3891602-0.2017212c-0.1531982-0.0406494-0.3048096-0.0562744-0.4501953,0.0280762
			c0,0-0.0234375,0.0266113-0.046875,0.0531616c-0.0703735,0.0797119-0.1391602,0.1843872-0.2079468,0.2891235
			c-0.0672607,0.1296997-0.1360474,0.234375-0.2314453,0.3156738c-0.09375,0.1063232-0.2407227,0.1656494-0.3626099,0.2234497
			c-0.0578613-0.1219482-0.140686-0.2423096-0.2234497-0.3626709c-0.0844116-0.1453857-0.1922607-0.2642212-0.3250732-0.3814087
			c-0.1062622-0.0938721-0.1859741-0.1641846-0.2906494-0.2329712c-0.1047363-0.0688477-0.2078857-0.1125488-0.3126221-0.1813965
			c-0.2859497-0.1578979-0.5501099-0.3674316-0.8407593-0.6003418c-0.1313477-0.0922852-0.2625732-0.1845093-0.3688965-0.2783203
			c-0.6563721-0.4612427-1.2471924-0.6754761-1.8755493-0.6865845c-0.6282959-0.0110474-1.2677002,0.2045288-1.9976807,0.576355
			c-0.3657837,0.1734619-0.628418,0.390686-0.8410645,0.6047363C9.0158672,4.6455808,8.831419,4.908154,8.6250591,5.222302
			c-0.125061,0.0077515-0.2235718,0.0390015-0.345459,0.0968628C8.1576519,5.376904,8.0372906,5.4597898,7.8950176,5.5941892
			c-0.093811,0.1062622-0.1876221,0.2125244-0.282959,0.2937622C7.5182476,5.9942136,7.4478741,6.0739255,7.354063,6.1802487
			C6.6600933,6.3238645,6.0925884,6.4847531,5.6049175,6.7160153C5.0921612,6.9488034,4.6591167,7.251965,4.2104473,7.706677
			C4.0212994,7.894238,3.8821392,8.0786247,3.744566,8.2880974c-0.1376343,0.2093506-0.25177,0.3922729-0.3377686,0.6235962
			C3.3129864,9.0178947,3.2191753,9.124218,3.1253643,9.2304802s-0.1891479,0.1875-0.3126221,0.2203369
			C2.7392559,9.4804802,2.7158184,9.5070305,2.7158184,9.5070305L2.7142315,9.4820671
			C2.878355,9.296032,2.8893414,9.0694084,2.8988628,8.8177605c0.0265503,0.0234985,0.0531006,0.046875,0.0546875,0.0719604
			c0.0265503,0.0233765,0.0546265,0.0718994,0.0812378,0.0953369l0.1343994,0.1422729l0.0391235-0.1782227
			c0.015625-0.1516113,0.0281982-0.3532715-0.0077515-0.5267334C3.1677837,8.2989006,3.1115093,8.2020378,3.006773,8.1331902
			C3.0052471,8.1081657,3.0286846,8.0816154,3.0270977,8.056591C3.0255718,8.0315666,3.0458965,7.955029,3.0662212,7.8784299
			l0.0407104-0.1531982L2.9584942,7.7595944C2.7598858,7.79707,2.3503399,8.0736198,2.0689068,8.3924675
			c-0.0922241,0.1312866-0.1844482,0.2625732-0.251709,0.392334c-0.0657349,0.1546631-0.0829468,0.28125-0.048584,0.4298096
			C1.8014507,9.3380852,1.859251,9.4600334,1.9920635,9.5772209c0.0297241,0.0735474,0.0593872,0.1469727,0.0640869,0.2219849
			c0.0297241,0.0734863,0.0593872,0.1469727,0.0875244,0.1954346c0.1109009,0.1688232,0.2437744,0.2860107,0.421936,0.3251343
			c0.1281128,0.0422974,0.2781982,0.032959,0.4251709-0.0264893c-0.0157471,0.1516113-0.0297852,0.3282471-0.0189209,0.5032959
			c0.015564,0.2501221,0.031189,0.5001831,0.0748901,0.7988281c0.0046387,0.0749512,0.0343628,0.1484375,0.0390625,0.2235107
			c0.0046997,0.0750122,0.0327759,0.1234741,0.0374756,0.1985474c-0.0203247,0.0765381-0.0407104,0.1530762-0.0610352,0.2296753
			c-0.0437622,0.1032104-0.0609741,0.2297974-0.1047974,0.3329468c-0.093811,0.1062012-0.1641235,0.1859741-0.2579346,0.2922363
			c-0.0703735,0.0796509-0.1641235,0.1859741-0.2344971,0.265686c0,0-0.0234985,0.0265503-0.046936,0.0531616
			c-0.1641846,0.1859131-0.1876221,0.2125244-0.1204834,0.4844971c0.0359497,0.1734619,0.1218872,0.3438721,0.2078247,0.5142822
			c0.0843506,0.1453247,0.2202759,0.3126831,0.3782349,0.4284058c0.1859131,0.1641235,0.500061,0.3704834,0.8079224,0.4768677
			c0.1797485,0.0640869,0.3564453,0.0782471,0.5299072,0.0422363c0.0015259,0.0250854-0.0219116,0.0515747-0.0203247,0.0766602
			C4.1808453,15.2906609,4.1604595,15.36726,4.1151714,15.445385c-0.1720581,0.4626465,0.0435791,0.7002563,0.4030762,0.8285522
			c0.1797485,0.0640259,0.3829346,0.1016846,0.5610962,0.1408081c0.0500488-0.0031128,0.0765991,0.0202637,0.1265869,0.0171509
			c0.2282104,0.0360107,0.611145,0.1377563,0.9628296,0.1408691c0.37677,0.001709,0.722168-0.0952148,0.7753906-0.4499512
			c0.0172119-0.1265869,0.0344849-0.2532349,0.0532227-0.3548584c-0.0062256-0.1000366-0.0124512-0.2000732-0.0186768-0.3001099
			c0.0844116-0.2563477,0.1313477-0.3094482,0.1986084-0.4391479c0.0234375-0.0266113,0.0218506-0.0515747,0.046875-0.0531616
			c0.0672607-0.1296997,0.1110229-0.2329102,0.1297607-0.3344727c0.0187988-0.1016235-0.0124512-0.2000732-0.046814-0.3486328
			c-0.0015259-0.0249634-0.0015259-0.0249634-0.0046387-0.0749512c0.2266235,0.0109253,0.4533081,0.0219727,0.6533203,0.0095215
			c0.1000977-0.0062256,0.2250977-0.0140381,0.3251343-0.0202637c-0.0234375,0.0264893-0.0484619,0.0280762-0.0969238,0.0562134
			c-0.0250244,0.0015869-0.0234375,0.0266113-0.0484619,0.0281982c-0.2907715,0.1687012-0.2736206,0.4438477-0.1798706,0.7392578
			c0.0921021,0.2704468,0.2827759,0.5095825,0.3937378,0.6784668c0.2468872,0.3360596,0.4641113,0.5986938,0.7501221,0.7565918
			c0.2860107,0.157959,0.5861816,0.1392822,0.9738159-0.0857544c0.1938477-0.1124878,0.2610474-0.2422485,0.3267212-0.3969727
			c0.0219116-0.0515747,0.0438232-0.1030884,0.0907593-0.15625c0.0718994-0.0546265,0.2860718-0.2437744,0.4752197-0.4312744
			c0.0718994-0.0546875,0.1422729-0.1344604,0.2141724-0.1891479c0.0531616,0.046936,0.1296997,0.0672607,0.2062988,0.0875854
			c0.1016235,0.0187988,0.2266846,0.0109863,0.3782349,0.0266724c0.1000977-0.0062256,0.4752197-0.0296021,0.7003174-0.0436401
			c0.0750122-0.0046387,0.125061-0.0077515,0.1750488-0.0109253c0.2501221-0.015564,0.4251099-0.0264282,0.5689697-0.1358643
			c0.1438599-0.109375,0.2344971-0.265686,0.2423706-0.5422974c-0.0077515-0.125061-0.0124512-0.2000732-0.0171509-0.2751465
			c-0.0296631-0.0734863-0.0593872-0.1469727-0.1140137-0.218811c-0.0078125-0.125061-0.015564-0.2501221-0.0233765-0.3751221
			c-0.0078125-0.125061-0.015564-0.2501221-0.0233765-0.3751831c-0.0093384-0.1500854-0.0421143-0.2735596-0.0749512-0.3970337
			c-0.0515747-0.0219116-0.0828247-0.1203613-0.1671753-0.2657471c-0.0501709-0.0864258-0.0767212-0.15625-0.1044922-0.2398071
			l-0.0596313,0.0240479l-0.0250244,0.0015869l0.0719604-0.0546875c0.003418,0.0106201,0.0092773,0.0189209,0.0126953,0.0290527
			l0.013855-0.0056152c-0.0578003-0.1219482-0.1171875-0.2688599-0.2000122-0.3892212
			c-0.0015259-0.0250854-0.0031128-0.0500488,0.0187988-0.1016235c0.0531006,0.046936,0.1046753,0.0687866,0.1328735,0.1172485
			l0.2124634,0.1876221c0.1594238,0.140686,0.2922974,0.2579956,0.4735718,0.3471069
			c0.1812744,0.0891724,0.3594971,0.1282349,0.6095581,0.1126709c0.2501221-0.015564,0.517395-0.1577759,0.7331543-0.3218994
			c0.2157593-0.1640015,0.3768311-0.4000244,0.4112549-0.6532593c0.0203247-0.0765991,0.0406494-0.1531372,0.062561-0.2047729
			c0.0218506-0.0515747,0.0187378-0.1015625,0.0390625-0.1781616c0.3532715,0.0281982,0.7299805,0.0298462,1.1035156-0.0185547
			c0.338501-0.0454712,0.6705933-0.1637573,0.9559326-0.3249512c0.0144653-0.0081177,0.0278931-0.013855,0.0425415-0.0224609
			c0.0267334-0.0177612,0.0611572-0.0390015,0.0932007-0.0612183c0.1484375-0.0960693,0.3001709-0.211731,0.4431763-0.3644409
			C18.8601055,9.7182121,18.789793,8.5293083,18.7423077,7.7264524z M2.8254375,8.4457512
			C2.8238506,8.4207268,2.8223248,8.3957634,2.8457623,8.3691521c0.1031494,0.0437622,0.1343994,0.1422729,0.1422119,0.267334
			C2.9348125,8.5896111,2.881712,8.542675,2.8081646,8.5723381C2.8050518,8.5223503,2.801939,8.4723625,2.8254375,8.4457512z
			 M2.4140606,9.9024162C2.3312359,9.7820549,2.2968731,9.6336174,2.23596,9.4616203
			C2.2094097,9.4381828,2.2094097,9.4381828,2.2078228,9.4131584C1.829649,8.9847527,2.4190655,8.3706779,2.7317486,8.150341
			C2.6879253,8.2534904,2.6441631,8.3566399,2.6237774,8.4331779c0.0031738,0.0501099-0.0203247,0.0765991-0.0172119,0.1266479
			c-0.0297241,0.328186,0.0639648,0.6236572-0.2221069,0.8674927c0.1702881,0.3157349,0.1781006,0.4407959,0.5438843,0.267334
			c0.1469727-0.0593262,0.2407227-0.1656494,0.361145-0.2484131c-0.0422363,0.1281738-0.0828857,0.28125-0.1251831,0.4094238
			C3.1658916,9.8807487,3.1424541,9.907238,3.14398,9.9323235C2.9032574,10.0979729,2.5577984,10.1947746,2.4140606,9.9024162z
			 M4.3466167,14.7279778c-0.251709,0.3922729-0.9862671-0.1142578-1.1987915-0.3018799
			c-0.2391357-0.2110596-0.3797607-0.4533691-0.4453735-0.7003174c-0.0359497-0.1735229-0.0108643-0.1751099,0.1048584-0.3329468
			c0.140686-0.1593628,0.3048096-0.3453979,0.4454956-0.5047607l0.0234985-0.0266113
			c0.0421753-0.1281128,0.0859985-0.2312622,0.1047974-0.3328857c0.2436523,0.6878052,0.6374512,1.366272,1.0484009,1.9180908
			C4.4107037,14.5482903,4.3919659,14.6498528,4.3466167,14.7279778z M12.9296246,13.4651604
			c0.0171509,0.2751465,0.0593262,0.548645,0.076416,0.8237915c0.0844116,0.1453247,0.1110229,0.1688232,0.0969238,0.3453979
			c-0.0032349,0.3517456-0.126709,0.3845215-0.4268188,0.4032593c-0.1500854,0.0093384-0.7003174,0.0435791-0.8518677,0.0279541
			c-0.2016602-0.0125732-0.3266602-0.0047607-0.3798218-0.0516357c0.3110352-0.2454224,0.7755127-1.253479,0.8552856-1.5848389
			c0.078186-0.3563232,0.1845703-0.6642456,0.2643433-0.9956055c0.0578003,0.1219482,0.0921631,0.2704468,0.1515503,0.4173584
			C12.8546734,13.0681267,12.9140606,13.2150993,12.9296246,13.4651604z M17.3240337,10.6556511
			c-0.9411011,0.6110229-2.0883789,0.3309326-3.0839844,0.0665894c-0.0515747-0.0218506-0.1016235-0.0187378-0.1531982-0.0406494
			c-0.1296997-0.0672607-0.2594604-0.1344604-0.4141235-0.2001343c0.0640259,0.2219849,0.1030273,0.4454956,0.0420532,0.6752319
			c-0.078186,0.3563232-0.2174683,0.9425049,0.263916,1.0129395c0.1016235,0.0187378,0.1766357,0.0140381,0.2501221-0.015564
			c0.0734863-0.0297241,0.1469116-0.0593872,0.2688599-0.1171875c-0.171936,0.0609131-0.2719727,0.0671387-0.423584,0.0514526
			c-0.1266479-0.0172119-0.2062988-0.0875854-0.2375488-0.1860352c0.0515747,0.0219116,0.1281128,0.0422363,0.2547607,0.0594482
			c0.3547974,0.0532837,0.6956177-0.1186523,0.7300415-0.3718872c0.0406494-0.1531982,0.0109863-0.2266235,0.1000977-0.407959
			c0.0765991,0.0203857,0.1531982,0.0407715,0.2282104,0.0360718c-0.0406494,0.1531372-0.0578613,0.2797241-0.0985718,0.4329224
			c-0.0813599,0.3063354-0.3424072,0.5485229-0.6362915,0.6672974c-0.0734863,0.0296631-0.1719971,0.0609131-0.2470093,0.0656128
			c-0.3500977,0.0217896-0.6141968-0.1876831-0.8533325-0.3988037c-0.1843872-0.1390991-0.343811-0.2798462-0.5282593-0.4190063
			c-0.5095215-0.1188354-0.8705444-0.2720947-1.2894287-0.5473022c0,0,0,0-0.0249634,0.0015259
			c0.3218994,0.3314819,0.5328979,0.4940796,0.9439697,0.6442261c-0.0110474,0.6282959-0.2096558,1.0675049-0.3473511,1.6786499
			c-0.0578613,0.2797852-0.6426392,1.3707275-0.8115234,1.4816284c-0.1203613,0.0828247-0.8786011,0.8079224-1.0223999,0.9172974
			c-0.0906982,0.156311-0.1782837,0.3626709-0.3471069,0.4735107c-0.5080566,0.3078613-0.8659058-0.1970825-1.1690674-0.630127
			c-0.0265503-0.0234375-0.0546875-0.0718994-0.0843506-0.1453247c-0.1656494-0.2407227-0.3671875-0.6549683-0.124939-0.7956543
			c0.2908325-0.1687622,0.4346313-0.2781372,0.72229-0.4968872c0.0546875,0.0718994,0.1343384,0.1422119,0.1890869,0.2141113
			c-0.0046997-0.0750122-0.0359497-0.1734619-0.0405884-0.2485352c-0.0344238-0.1484375-0.0421753-0.2734985-0.0280762-0.4501953
			c-0.0077515-0.125,0.0094604-0.2516479,0.0016479-0.3766479c-0.0015259-0.0249634-0.0031128-0.0499878-0.0046387-0.0749512
			c-0.0407104,0.1531372-0.1063843,0.3078613-0.1455078,0.4860229c-0.0219116,0.0515747-0.0187988,0.1015625-0.0406494,0.1531982
			c-0.6424561,0.1655884-1.3161621,0.232605-1.9741821,0.1480713c-0.0015869-0.0249634-0.0031128-0.0499878-0.0296631-0.0734863
			c-0.0640259-0.2219238-0.1015625-0.4204712-0.1624756-0.5924072c-0.0125122,0.2016602,0.0483398,0.7753296,0.0685425,1.1004028
			c0.015625,0.250061,0.0202637,0.3251343-0.1157227,0.5595703c-0.1126099,0.2078247-0.1594849,0.2610474-0.2893066,0.595459
			c0.0374756,0.1984863,0.046814,0.3485718-0.0157471,0.5533447c-0.0797729,0.3312988-1.0206909,0.138855-1.2754517,0.0794678
			c-0.1016235-0.0187988-0.2282104-0.0360107-0.3313599-0.079834c-0.2813721-0.0828857-0.56427-0.1907349-0.4578857-0.4986572
			c0.1282349-0.3594971,0.1798706-0.7393188,0.2237549-1.2442017c-0.3015747-0.40802-0.6062622-0.8660278-0.8640747-1.3771973
			c-0.2296753-0.4627075-0.4109497-0.9535522-0.4905396-1.4255981c-0.1217651-0.7456055-0.1013794-1.223877,0.0206299-1.6834106
			c0.2049561-0.7408447,0.5411377-1.3894653,1.0836182-1.950561C5.2859478,7.237988,5.9940777,6.9176755,7.133604,6.6709714
			C6.8771954,6.9881711,6.6223125,7.3305173,6.3440533,7.6992917c-0.0453491,0.078125-0.1156616,0.1578369-0.1610718,0.2360229
			c-0.1829224,0.2875361-0.31427,0.5970454-0.4456787,0.9064937C5.5183697,9.3575554,5.5308819,9.5576286,5.8308697,9.9406242
			c0.0266113,0.0234985,0.0531616,0.046875,0.0812988,0.0953979c0.3250732,0.3814087,0.5110474,0.5455322,0.6610107,0.9379272
			c-0.0438232,0.1031494-0.0875854,0.2062988-0.1047974,0.3329468C6.45117,11.4334831,6.433897,11.5601311,6.418272,11.7116814
			c0.265686,0.2344971,0.4797974,0.4471436,0.6876221,0.5597534c0.1297607,0.0672607,0.2328491,0.1110229,0.3594971,0.1281738
			c0.3547974,0.0532837,0.6549072,0.0345459,0.9441528-0.1592407c0.6784058-0.3936768,1.2990723-0.9094238,2.0743408-0.9577026
			c0.3190308-0.923645,0.22229-1.6708374-0.0057373-2.5102539c-0.1327515-0.5189209-0.2155151-1.0410762-0.2982788-1.5631709
			c-0.0031128-0.0500488-0.0062256-0.0999756-0.0109253-0.1750488c-0.1110229,0.6345825-0.1018066,1.1863399,0.0356445,1.780334
			c0.171814,0.7424927,0.3232422,1.5615845,0.0136108,2.2335815c-0.6971436,0.093689-1.2958374,0.5578613-1.899292,0.9468384
			c-0.2423096,0.140686-0.5158691,0.1828613-0.7956543,0.124939c-0.2797241-0.0579224-0.4657593-0.2220459-0.7610474-0.5300293
			c-0.0202637-0.3251343,0.0454102-0.4798584,0.1767578-0.7893677c0.22052-0.4907227,0.4425049-0.9564819,0.7130127-1.4503174
			C7.3283672,9.7971306,7.001585,10.1940422,6.7529278,10.636364c-0.1155396-0.2438354-0.249939-0.3861084-0.4406128-0.6253052
			C6.2841778,9.9625969,6.2310772,9.9157219,6.1779156,9.8687859C5.906004,9.5342522,5.8716412,9.3857536,6.0233135,8.9997063
			C6.1984844,8.5871086,6.3267803,8.2276115,6.630064,7.8572507c0.5128174-0.6345215,0.9959106-1.3424683,1.5603027-1.9551392
			c0.1876221-0.2125244,0.3079834-0.2953491,0.4815063-0.3312378c0.0985107-0.03125,0.2219849-0.0640259,0.3954468-0.0999756
			c0.3470459-0.0718384,0.6925049-0.1687012,1.0379639-0.2655029c0.0499878-0.0031128,0.0984497-0.031189,0.1234741-0.0327759
			C9.8301983,5.2225461,9.4566021,5.2708859,9.081419,5.2942624C9.427,4.7957273,9.6349468,4.5066037,10.2195415,4.2191281
			c0.5831299-0.3125,1.098938-0.4953003,1.5709839-0.5748901c0.4970703-0.0811768,0.9785156-0.0107422,1.4724121,0.2597046
			c0.1812744,0.0891724,0.390686,0.2267456,0.5751343,0.3659058c0.3156738,0.2314453,0.6063843,0.4643555,0.9204712,0.6707153
			c-0.1000366,0.0062256-0.1985474,0.0374756-0.3204346,0.0953369c0.1484985-0.0344238,0.3251343-0.0202637,0.50177-0.0061646
			c0.0515747,0.0218506,0.1031494,0.0437622,0.1547241,0.0656738c0.2328491,0.1109619,0.3625488,0.1782837,0.5251465,0.3690186
			c0.1640625,0.2156982,0.3015137,0.407959,0.4421997,0.6502686c-0.0766602-0.0203247-0.1531982-0.0406494-0.2047729-0.062561
			c-0.0515747-0.0218506-0.0765991-0.0203247-0.1266479-0.0172119c-0.0249634,0.0015869-0.0749512,0.0046997-0.0999756,0.0062256
			c-0.0500488,0.0031128-0.0985107,0.03125-0.1469727,0.0593872c-0.1219482,0.0578003-0.2922974,0.1437378-0.4157715,0.1765137
			c0.0765381,0.0203857,0.2015991,0.0125732,0.2750854-0.0171509l0.0250244-0.0015259
			c-0.0219116,0.0515747-0.0438232,0.1031494-0.0391235,0.1782227c0.0046387,0.0749512,0.0093384,0.1500244,0.0640259,0.2219238
			c-0.0015869-0.0250244-0.0281372-0.0484619-0.0296631-0.0734863c-0.0062256-0.0999756,0.0891113-0.1812744,0.1656494-0.1608887
			c0.1000977-0.0062256,0.1813354,0.0891113,0.1610718,0.1656494c0.0015259,0.0249634,0.0031128,0.0500488-0.0219727,0.0515747
			c-0.0734253,0.0297241-0.171936,0.0609131-0.2454224,0.0906372c-0.0249634,0.0015869-0.0734253,0.0296631-0.0968628,0.0562744
			c-0.0250854,0.0015259-0.0485229,0.0281372-0.0734863,0.0296631c0.0499878-0.0031128,0.1234741-0.0327759,0.1734619-0.0358887
			c0.1985474-0.0375366,0.3986206-0.0499878,0.6252441-0.0390015c0.0297241,0.0734863,0.0359497,0.1735229,0.0671997,0.2720337
			c-0.0250244,0.0015259-0.0750732,0.0046387-0.1000977,0.0062256c0,0-0.0249634,0.0015259-0.0265503-0.0234985
			c-0.1296997-0.0672607-0.2547607-0.0594482-0.4517212,0.0030518c-0.5924072,0.1624146-0.4205322,0.5032349-0.6644897,1.0205684
			c0.2532959-0.3673091,0.2315063-0.7174678,0.6738281-0.8704829c0.0985107-0.031311,0.1719971-0.0609741,0.2470093-0.0656128
			c-0.1203613,0.0828247-0.2391968,0.1906128-0.2813721,0.3187866c-0.1032715,0.3579102-0.0095825,0.6533809-0.1378174,1.0128779
			c0.1564331-0.3110352,0.1376953-0.6111445,0.2940674-0.9221797c0.0422363-0.1281738,0.2313843-0.3157349,0.3814087-0.3250732
			c0.0250244-0.0015259,0.0750732-0.0046387,0.1000977-0.0062256c0.0374756,0.1985474,0.0748901,0.3970947,0.0592651,0.548645
			c-0.0062866,0.3016963-0.0533447,0.7564692-0.0924072,0.9347529c0.1375732-0.2094727,0.1860962-0.6392822,0.2424316-0.9440913
			c0.0548096-0.3297729,0.0064087-0.7033691-0.0639038-1.0253296c-0.1030273-0.4454956,0.3768311-0.4000854,0.6378784-0.642334
			c0.1907349-0.1624756,0.3236694-0.4470215,0.487854-0.6329346c0.093811-0.1063232,0.2203979-0.0891113,0.3516235,0.0032349
			c0.1047363,0.0687256,0.1860352,0.1641235,0.2156982,0.2376099c0.3718262,0.7299805,0.5717163,1.9226685,0.5449219,2.7026362
			C18.4137554,9.2069206,18.0477886,10.1837883,17.3240337,10.6556511z M16.0697002,6.239758
			c-0.0249634,0.0015869-0.0234375,0.0265503-0.0234375,0.0265503c-0.0281372-0.0484619-0.0562744-0.0969238-0.1078491-0.1187744
			c0.0250244-0.0015259,0.0500488-0.0031128,0.0750122-0.0046387C16.0150127,6.1678586,16.0416241,6.1912961,16.0697002,6.239758z"
			/>
		<path d="M17.536087,10.9849033c-0.0146427,0.0086069-0.0280781,0.0143223-0.0425816,0.0224581
			c0.0085297-0.0048208,0.0189114-0.0075703,0.0273514-0.0124683C17.5252399,10.9923487,17.5317287,10.9878244,17.536087,10.9849033
			z"/>
	</g>
</g>
</svg>
