<?xml version="1.0" encoding="utf-8"?>
<!-- Generator: Adobe Illustrator 25.0.1, SVG Export Plug-In . SVG Version: 6.00 Build 0)  -->
<svg version="1.1" id="图层_1" xmlns="http://www.w3.org/2000/svg" xmlns:xlink="http://www.w3.org/1999/xlink" x="0px" y="0px"
	 viewBox="0 0 18.9741802 21.0269566" style="enable-background:new 0 0 18.9741802 21.0269566;" xml:space="preserve">
<style type="text/css">
	.st0{fill:#2A8B92;}
	.st1{opacity:0.2;}
</style>
<g>
	<g>
		<path class="st0" d="M12.5243826,17.318409c-0.1533203,0-0.3066406-0.0585938-0.4238281-0.1757812
			c-0.234375-0.2333984-0.234375-0.6132812,0-0.8476562l4.39746-4.3984365c1.0175781-1.0185547,1.0175781-2.675293,0-3.6933594
			c-0.9863272-0.9873047-2.7060537-0.9863281-3.694335,0l-4.8950195,4.8955078
			c-1.4863281,1.4863281-3.9042969,1.4853516-5.390625,0.0009766c-0.7197267-0.7207031-1.1166993-1.6777344-1.1166993-2.6958008
			c0-1.0185547,0.3969727-1.9755859,1.1166993-2.6953125L4.1332693,6.092824c0.2338867-0.2333984,0.6147461-0.2348633,0.8486328,0
			c0.234375,0.234375,0.234375,0.6142578,0,0.8486328L3.3666677,8.5571795
			C2.8730154,9.0503435,2.601531,9.7061052,2.601531,10.4038591c0,0.6972656,0.2714844,1.3535156,0.7651367,1.847168
			c1.0175781,1.0175781,2.6748047,1.0185547,3.6933594-0.0009766l4.8959961-4.8955078
			c1.4375-1.4399414,3.9472656-1.440918,5.390624,0c1.4853516,1.4863281,1.4853516,3.9038086-0.0009766,5.3896484
			l-4.39746,4.3984365C12.8319998,17.2598152,12.6777029,17.318409,12.5243826,17.318409z"/>
	</g>
	<g>
		<path class="st0" d="M4.9985037,10.5610857c-0.331543,0-0.6000977-0.2685547-0.6000977-0.6000977V6.6768084h-3.284668
			c-0.3315429,0-0.6000976-0.2685547-0.6000976-0.6000977S0.782195,5.476613,1.1137379,5.476613h3.8847656
			c0.331543,0,0.6000977,0.2685547,0.6000977,0.6000977V9.960988C5.5986013,10.292531,5.3300467,10.5610857,4.9985037,10.5610857z"
			/>
	</g>
	<g>
		<path class="st0" d="M7.5541677,8.0059099c-0.3310547,0-0.6000977-0.2685547-0.6000977-0.6000977l-0.0004883-3.284668H3.6694021
			c-0.331543,0-0.6000977-0.2685547-0.6000977-0.6000977S3.3378592,2.920949,3.6694021,2.920949h3.8842773
			c0.331543,0,0.6000977,0.2685547,0.6000977,0.6000977l0.0004883,3.8847656
			C8.1542654,7.736867,7.8857107,8.0059099,7.5541677,8.0059099z"/>
	</g>
	<g>
		<path class="st0" d="M10.1093435,5.4507341c-0.331543,0-0.6000977-0.2685547-0.6000977-0.6000977v-3.284668h-3.284668
			c-0.331543,0-0.6000977-0.2685547-0.6000977-0.6000977s0.2685547-0.6000977,0.6000977-0.6000977h3.8847656
			c0.3310547,0,0.5996094,0.2685547,0.5996094,0.6000977v3.8847656C10.7089529,5.1821795,10.4403982,5.4507341,10.1093435,5.4507341
			z"/>
	</g>
	<g>
		<path class="st0" d="M11.139617,20.6611824c-0.6835938,0-1.3256836-0.2666016-1.8085938-0.75
			c-0.9970703-0.9970703-0.9970703-2.6191406,0-3.6162109c0.9658203-0.9667959,2.6523438-0.9667959,3.6171875,0
			c0.9980469,0.9970703,0.9980469,2.6191406,0,3.6162109C12.4657888,20.3945808,11.8232107,20.6611824,11.139617,20.6611824z
			 M11.139617,16.7451668c-0.3623047,0-0.7041016,0.1416016-0.9599609,0.3974609
			c-0.5292969,0.5302734-0.5292969,1.390625,0,1.9208984c0.5126953,0.5126953,1.4082031,0.5107422,1.9208984,0
			c0.5292969-0.5302734,0.5292969-1.390625,0-1.9208984C11.8437185,16.8867683,11.5028982,16.7451668,11.139617,16.7451668z"/>
	</g>
	<g class="st1">
		<circle class="st0" cx="11.1396341" cy="18.1030045" r="1.95796"/>
	</g>
</g>
</svg>
