<?xml version="1.0" encoding="utf-8"?>
<!-- Generator: Adobe Illustrator 25.0.1, SVG Export Plug-In . SVG Version: 6.00 Build 0)  -->
<svg version="1.1" id="图层_1" xmlns="http://www.w3.org/2000/svg" xmlns:xlink="http://www.w3.org/1999/xlink" x="0px" y="0px"
	 viewBox="0 0 20.9991779 16.3528137" style="enable-background:new 0 0 20.9991779 16.3528137;" xml:space="preserve">
<style type="text/css">
	.st0{fill:#2A8B92;}
	.st1{opacity:0.2;}
</style>
<g>
	<g>
		<path class="st0" d="M1.8935709,6.5106354c-0.331543,0-0.6000977-0.2685547-0.6000977-0.6000977V1.8162994
			c0-0.7548828,0.6142578-1.3691406,1.3691406-1.3691406h14.8305655c0.7548828,0,1.3691406,0.6142578,1.3691406,1.3691406v3.5605469
			c0,0.331543-0.2685547,0.6000977-0.5996094,0.6000977s-0.5996094-0.2685547-0.5996094-0.6000977V1.8162994
			c0-0.0932617-0.0761719-0.1689453-0.1699219-0.1689453H2.6626139c-0.0932617,0-0.1689453,0.0756836-0.1689453,0.1689453v4.0942383
			C2.4936686,6.2420807,2.2251139,6.5106354,1.8935709,6.5106354z"/>
	</g>
	<g>
		<path class="st0" d="M11.0146646,13.5667877H2.6626139c-0.7548828,0-1.3691406-0.6142578-1.3691406-1.3691406v-1.4169922
			c0-0.3310547,0.2685547-0.5996094,0.6000977-0.5996094s0.6000977,0.2685547,0.6000977,0.5996094v1.4169922
			c0,0.09375,0.0756836,0.1699219,0.1689453,0.1699219h8.3520508c0.3310547,0,0.5996094,0.2685547,0.5996094,0.5996094
			S11.3457193,13.5667877,11.0146646,13.5667877z"/>
	</g>
	<g>
		<path class="st0" d="M14.4082193,15.9056549H5.7475748c-0.331543,0-0.6000977-0.2685547-0.6000977-0.5996094
			s0.2685547-0.5996094,0.6000977-0.5996094h8.6606445c0.3310547,0,0.5996094,0.2685547,0.5996094,0.5996094
			S14.739274,15.9056549,14.4082193,15.9056549z"/>
	</g>
	<g>
		<g>
			<path class="st0" d="M16.0634918,13.9261627c-0.8701162,0-1.7402334-0.3310547-2.4023428-0.9941406
				c-1.3251953-1.3242188-1.3251953-3.4799805,0-4.8051758c1.3242188-1.3251953,3.4804678-1.3251953,4.8046865,0
				c1.3251953,1.3251953,1.3251953,3.480957,0,4.8051758C17.8037262,13.595108,16.933609,13.9261627,16.0634918,13.9261627z
				 M16.0634918,8.332901c-0.562499,0-1.1259756,0.2138672-1.5546865,0.6425781
				c-0.8564453,0.8569336-0.8564453,2.2514648,0,3.1088867c0.8574219,0.8554688,2.2519522,0.8554688,3.109374,0
				c0.8564453-0.8574219,0.8564453-2.2519531,0-3.1088867C17.1894684,8.5467682,16.6259918,8.332901,16.0634918,8.332901z"/>
		</g>
		<g class="st1">
			<circle class="st0" cx="16.0638351" cy="10.5295839" r="2.7979772"/>
		</g>
		<g>
			<path class="st0" d="M19.9521637,15.016983c-0.1533203,0-0.3066406-0.0585938-0.4238281-0.1748047l-1.9101562-1.9091797
				c-0.234375-0.234375-0.234375-0.6142578-0.0009766-0.8486328c0.234375-0.234375,0.6142578-0.2333984,0.8486328-0.0009766
				l1.9101562,1.9091797c0.234375,0.234375,0.234375,0.6142578,0.0009766,0.8486328
				C20.2597809,14.9583893,20.105484,15.016983,19.9521637,15.016983z"/>
		</g>
	</g>
	<g>
		<path class="st0" d="M3.7695475,8.945694h-2.722168c-0.331543,0-0.6000977-0.2685547-0.6000977-0.6000977
			s0.2685547-0.6000977,0.6000977-0.6000977h2.3881836l2.4257812-3.9077148
			C5.9536295,3.6893463,6.105485,3.5882721,6.2783365,3.5614166c0.1733398-0.0273438,0.3481445,0.0229492,0.4814453,0.1357422
			l3.1313477,2.6625977l0.8754883-1.0966797c0.1132812-0.1430664,0.2861328-0.2260742,0.46875-0.2260742h1.8408203
			c0.3310547,0,0.5996094,0.2685547,0.5996094,0.6000977s-0.2685547,0.6000977-0.5996094,0.6000977h-1.5517578l-1.0810547,1.3549805
			c-0.1015625,0.1269531-0.25,0.2075195-0.4111328,0.2231445c-0.1621094,0.0180664-0.3232422-0.034668-0.4467773-0.1401367
			L6.5131998,5.0628815L4.2793131,8.6620026C4.1699381,8.8382721,3.977067,8.945694,3.7695475,8.945694z"/>
	</g>
</g>
</svg>
