<?xml version="1.0" encoding="utf-8"?>
<!-- Generator: Adobe Illustrator 25.0.1, SVG Export Plug-In . SVG Version: 6.00 Build 0)  -->
<svg version="1.1" id="图层_1" xmlns="http://www.w3.org/2000/svg" xmlns:xlink="http://www.w3.org/1999/xlink" x="0px" y="0px"
	 viewBox="0 0 20.9991779 21.0269566" style="enable-background:new 0 0 20.9991779 21.0269566;" xml:space="preserve">
<style type="text/css">
	.st0{fill:#2A8B92;}
	.st1{opacity:0.05;}
	.st2{opacity:0.2;}
	.st3{opacity:0.3;}
</style>
<g>
	<g>
		<g>
			<path class="st0" d="M1.2509246,11.3953142c-0.1245117,0-0.2504883-0.0385742-0.3579102-0.1191406
				c-0.265625-0.1977539-0.3208008-0.5737305-0.1225586-0.8393555l3.4609375-4.6435547
				c0.1977539-0.265625,0.5742188-0.3212891,0.8393555-0.1225586c0.265625,0.1977539,0.3208008,0.5737305,0.1225586,0.8393555
				L1.7323699,11.153615C1.6146941,11.3118181,1.4340301,11.3953142,1.2509246,11.3953142z"/>
		</g>
		<g>
			<path class="st0" d="M19.7479954,11.3953142c-0.1826172,0-0.3632812-0.0834961-0.4814453-0.2416992l-3.4609375-4.6435547
				c-0.1972656-0.265625-0.1425781-0.6416016,0.1230469-0.8393555c0.2646484-0.1992188,0.640625-0.1445312,0.8398438,0.1225586
				l3.4609375,4.6435547c0.1972656,0.265625,0.1425781,0.6416016-0.1230469,0.8393555
				C19.9989719,11.35674,19.8729954,11.3953142,19.7479954,11.3953142z"/>
		</g>
	</g>
	<g>
		<path class="st0" d="M18.6142063,20.2795906H2.3852019c-0.9560547,0-1.7338867-0.7773438-1.7338867-1.7333984v-7.7509756
			c0-0.331543,0.2685547-0.6000977,0.6000977-0.6000977h4.2636719c1.0463867,0,1.9697266,0.6464844,2.4101562,1.6875
			c0.438477,1.0366211,1.4487309,1.706543,2.5742192,1.706543s2.1362305-0.6699219,2.574707-1.706543
			c0.4404297-1.0410156,1.3642578-1.6875,2.4101562-1.6875h4.2636719c0.3310547,0,0.5996094,0.2685547,0.5996094,0.6000977
			v7.7509756C20.3476048,19.5022469,19.570261,20.2795906,18.6142063,20.2795906z M1.8515105,11.3953142v7.150878
			c0,0.2939453,0.2392578,0.5341797,0.5336914,0.5341797h16.2290039c0.2939453,0,0.5341797-0.2402344,0.5341797-0.5341797v-7.150878
			h-3.6640625c-0.5556641,0-1.0556641,0.3657227-1.3046875,0.9545898c-0.6269531,1.4814453-2.0722656,2.4384766-3.6801758,2.4384766
			c-1.6083984,0-3.0527349-0.9570312-3.679688-2.4384766c-0.2490234-0.5888672-0.7490234-0.9545898-1.3046875-0.9545898H1.8515105z"
			/>
	</g>
	<g class="st1">
		<path class="st0" d="M15.4839811,10.7953167c-0.8372288,0-1.531189,0.5499592-1.857337,1.3210487
			c-0.5152245,1.2181091-1.721386,2.0728111-3.1270866,2.0728111c-1.4058838,0-2.6119542-0.854702-3.1271214-2.0728111
			c-0.3261108-0.7710867-1.0200529-1.3210487-1.857264-1.3210487H1.251266v7.7508984
			c0,0.6262131,0.5076456,1.1338596,1.1338582,1.1338596h16.2288647c0.6262131,0,1.1338596-0.5076466,1.1338596-1.1338596
			v-7.7508984H15.4839811z"/>
	</g>
	<g>
		<path class="st0" d="M16.2694798,11.3953142c-0.3310547,0-0.5996094-0.2685547-0.5996094-0.6000977V4.1834002
			c0-0.1381836-0.1132812-0.2504883-0.2509766-0.2504883H5.5800261c-0.1381836,0-0.2504883,0.1123047-0.2504883,0.2504883v6.6118164
			c0,0.331543-0.2685547,0.6000977-0.6000977,0.6000977s-0.6000977-0.2685547-0.6000977-0.6000977V4.1834002
			c0-0.7998047,0.6508789-1.4506836,1.4506836-1.4506836h9.8388672c0.7998047,0,1.4501953,0.6508789,1.4501953,1.4506836v6.6118164
			C16.8690891,11.1267595,16.6005344,11.3953142,16.2694798,11.3953142z"/>
	</g>
	<g>
		<path class="st0" d="M14.8690891,3.8142595c-0.3310547,0-0.5996094-0.2685547-0.5996094-0.6000977V1.9915056L6.7733855,1.9475603
			L6.7294402,3.2141619c0,0.331543-0.2685547,0.6000977-0.6000977,0.6000977S5.5292449,3.5457048,5.5292449,3.2141619V1.9915056
			c0-0.6860352,0.5581055-1.2441406,1.2441406-1.2441406h7.4521489c0.6855469,0,1.2431641,0.5581055,1.2431641,1.2441406v1.2226562
			C15.4686985,3.5457048,15.2001438,3.8142595,14.8690891,3.8142595z"/>
	</g>
	<g class="st2">
		<path class="st0" d="M6.1295605,3.2143359V1.9912968c0-0.355702,0.2883534-0.6440555,0.6440554-0.6440555h7.4518824
			c0.3557024,0,0.6440554,0.2883534,0.6440554,0.6440555v1.2230392"/>
	</g>
	<g>
		<path class="st0" d="M13.2597141,6.5740252h-5.52002c-0.331543,0-0.6000977-0.2685547-0.6000977-0.6000977
			s0.2685547-0.6000977,0.6000977-0.6000977h5.52002c0.3310547,0,0.5996094,0.2685547,0.5996094,0.6000977
			S13.5907688,6.5740252,13.2597141,6.5740252z"/>
	</g>
	<g>
		<path class="st0" d="M13.2597141,9.2668962h-5.52002c-0.331543,0-0.6000977-0.2685547-0.6000977-0.6000977
			s0.2685547-0.6000977,0.6000977-0.6000977h5.52002c0.3310547,0,0.5996094,0.2685547,0.5996094,0.6000977
			S13.5907688,9.2668962,13.2597141,9.2668962z"/>
	</g>
	<g class="st3">
		<polygon class="st0" points="4.3757343,7.3856573 4.7295308,10.3534441 1.4830265,10.4844217 		"/>
	</g>
	<g class="st3">
		<polygon class="st0" points="16.6233788,7.3856573 16.2695827,10.3534441 19.5160885,10.4844217 		"/>
	</g>
</g>
</svg>
