<?xml version="1.0" encoding="utf-8"?>
<!-- Generator: Adobe Illustrator 25.0.1, SVG Export Plug-In . SVG Version: 6.00 Build 0)  -->
<svg version="1.1" id="图层_1" xmlns="http://www.w3.org/2000/svg" xmlns:xlink="http://www.w3.org/1999/xlink" x="0px" y="0px"
	 viewBox="0 0 17.249218 21.0269566" style="enable-background:new 0 0 17.249218 21.0269566;" xml:space="preserve">
<style type="text/css">
	.st0{opacity:0.2;}
	.st1{fill:#2A8B92;}
</style>
<g>
	<g>
		<g class="st0">
			<path class="st1" d="M11.8661146,1.3045305v2.9868112c0,0.3199787,0.2593937,0.5793724,0.5793724,0.5793724h3.4049282"/>
		</g>
		<g>
			<path class="st1" d="M15.8501949,5.3704119h-3.4042969c-0.5957031,0-1.0800781-0.484375-1.0800781-1.0791016V1.3049822
				c0-0.2763672,0.2236328-0.5,0.5-0.5s0.5,0.2236328,0.5,0.5v2.9863281c0,0.0439453,0.0361328,0.0791016,0.0800781,0.0791016
				h3.4042969c0.2763672,0,0.5,0.2236328,0.5,0.5S16.1265621,5.3704119,15.8501949,5.3704119z"/>
		</g>
		<g>
			<path class="st1" d="M15.108984,20.488575H2.140234c-0.8369141,0-1.5185547-0.6816406-1.5185547-1.5185547v-6.5634756
				c0-0.2763672,0.2236328-0.5,0.5-0.5s0.5,0.2236328,0.5,0.5v6.5634756c0,0.2861328,0.2324219,0.5185547,0.5185547,0.5185547
				h12.96875c0.2861328,0,0.5185547-0.2324219,0.5185547-0.5185547V5.2278337l-4.1298828-3.6894531H2.140234
				c-0.2861328,0-0.5185547,0.2333984-0.5185547,0.5195312v3.2597656c0,0.2763672-0.2236328,0.5-0.5,0.5s-0.5-0.2236328-0.5-0.5
				V2.0579119c0-0.8378906,0.6816406-1.5195312,1.5185547-1.5195312h9.3574219c0.2998047,0,0.5820312,0.1171875,0.7949219,0.3300781
				l3.984375,3.5429688c0.2333984,0.2324219,0.3505859,0.515625,0.3505859,0.8164062v13.7421865
				C16.6275387,19.8069344,15.9458981,20.488575,15.108984,20.488575z"/>
		</g>
	</g>
	<g>
		<g>
			<path class="st1" d="M1.1849746,10.3074732l3.4677629,0.0000019c0.0602098,0,0.1090198,0.0489607,0.1090198,0.1093569
				l-0.0000005,0.6295185c0,0.4091072,0.470654,0.6376724,0.7905788,0.3839321l2.8415146-2.2536812
				c0.2434254-0.1930676,0.2434254-0.5634565,0.000001-0.7565241L5.5595021,6.1720738
				c-0.322823-0.2560401-0.7977419-0.0254045-0.7977424,0.3874092v0.6203823c0,0.0603957-0.04881,0.1093564-0.1090202,0.1093564
				L1.1849766,7.2892194c-0.1806304,0-0.3270605,0.1468816-0.3270606,0.3280687L0.8579144,9.9794044
				C0.8579143,10.1605911,1.0043441,10.3074732,1.1849746,10.3074732z"/>
		</g>
	</g>
	<g>
		<g>
			<path class="st1" d="M8.2193356,4.5081072H3.5201168c-0.2763672,0-0.5-0.2236328-0.5-0.5s0.2236328-0.5,0.5-0.5h4.6992188
				c0.2763672,0,0.5,0.2236328,0.5,0.5S8.4957027,4.5081072,8.2193356,4.5081072z"/>
		</g>
		<g>
			<path class="st1" d="M13.7154293,7.7327166h-2.9599609c-0.2763672,0-0.5-0.2236328-0.5-0.5s0.2236328-0.5,0.5-0.5h2.9599609
				c0.2763672,0,0.5,0.2236328,0.5,0.5S13.9917965,7.7327166,13.7154293,7.7327166z"/>
		</g>
		<g>
			<path class="st1" d="M13.7154293,10.9573259h-2.9599609c-0.2763672,0-0.5-0.2236328-0.5-0.5s0.2236328-0.5,0.5-0.5h2.9599609
				c0.2763672,0,0.5,0.2236328,0.5,0.5S13.9917965,10.9573259,13.7154293,10.9573259z"/>
		</g>
		<g>
			<path class="st1" d="M13.7154293,14.1819353H7.4634762c-0.2763672,0-0.5-0.2236328-0.5-0.5s0.2236328-0.5,0.5-0.5h6.2519531
				c0.2763672,0,0.5,0.2236328,0.5,0.5S13.9917965,14.1819353,13.7154293,14.1819353z"/>
		</g>
		<g>
			<path class="st1" d="M13.7154293,17.4065437H3.5201168c-0.2763672,0-0.5-0.2236328-0.5-0.5s0.2236328-0.5,0.5-0.5h10.1953125
				c0.2763672,0,0.5,0.2236328,0.5,0.5S13.9917965,17.4065437,13.7154293,17.4065437z"/>
		</g>
	</g>
</g>
</svg>
