<?xml version="1.0" encoding="utf-8"?>
<!-- Generator: Adobe Illustrator 25.0.1, SVG Export Plug-In . SVG Version: 6.00 Build 0)  -->
<svg version="1.1" id="图层_1" xmlns="http://www.w3.org/2000/svg" xmlns:xlink="http://www.w3.org/1999/xlink" x="0px" y="0px"
	 viewBox="0 0 38.414093 38.2907829" style="enable-background:new 0 0 38.414093 38.2907829;" xml:space="preserve">
<style type="text/css">
	.st0{fill:#ACB76D;}
	.st1{opacity:0.2;}
</style>
<g>
	<g>
		<g>
			<path class="st0" d="M4.5357795,8.1241817c-2.0625002,0-3.7402344-1.6777349-3.7402344-3.7402349
				s1.6777343-3.7412107,3.7402344-3.7412107s3.7412105,1.6787109,3.7412105,3.7412107S6.5982795,8.1241817,4.5357795,8.1241817z
				 M4.5357795,2.6427362c-0.9599612,0-1.7402346,0.78125-1.7402346,1.7412107s0.7802734,1.7402344,1.7402346,1.7402344
				s1.7412109-0.7802734,1.7412109-1.7402344S5.4957404,2.6427362,4.5357795,2.6427362z"/>
		</g>
		<g class="st1">
			<circle class="st0" cx="4.5361228" cy="4.3837485" r="2.7406888"/>
		</g>
		<g>
			<path class="st0" d="M24.0279675,9.4972286c-2.0625,0-3.7402344-1.6787114-3.7402344-3.7412114
				s1.6777344-3.7402341,3.7402344-3.7402341s3.7402344,1.6777344,3.7402344,3.7402341S26.0904675,9.4972286,24.0279675,9.4972286z
				 M24.0279675,4.0157828c-0.9599609,0-1.7402344,0.7802734-1.7402344,1.7402344s0.7802734,1.7412109,1.7402344,1.7412109
				s1.7402344-0.78125,1.7402344-1.7412109S24.9879284,4.0157828,24.0279675,4.0157828z"/>
		</g>
		<g>
			<path class="st0" d="M33.8775749,16.5919552c-2.0624981,0-3.7402325-1.6787109-3.7402325-3.7412109
				s1.6777344-3.7402344,3.7402325-3.7402344s3.7412109,1.6777344,3.7412109,3.7402344S35.9400749,16.5919552,33.8775749,16.5919552
				z M33.8775749,11.1105099c-0.9599609,0-1.7402344,0.7802734-1.7402344,1.7402344s0.7802734,1.7412109,1.7402344,1.7412109
				s1.7412109-0.78125,1.7412109-1.7412109S34.8375359,11.1105099,33.8775749,11.1105099z"/>
		</g>
		<g>
			<path class="st0" d="M31.1373425,13.8507442h-8.5429688c-2.09375,0-4.0224609-1.1396484-5.0322266-2.9736328L15.6070681,7.3234
				c-0.6582031-1.1962891-1.9150391-1.9394531-3.2802734-1.9394531H7.2769904V3.3839471h5.0498042
				c2.0947266,0,4.0224619,1.1396482,5.0322275,2.9746091l1.9550781,3.5537114
				c0.6582031,1.1953125,1.9150391,1.9384766,3.2802734,1.9384766h8.5429688V13.8507442z"/>
		</g>
		<g>
			<path class="st0" d="M36.6187859,6.7560172h-9.850584c-0.5527344,0-1-0.4472656-1-1s0.4472656-1,1-1h9.850584
				c0.5527344,0,1,0.4472656,1,1S37.1715202,6.7560172,36.6187859,6.7560172z"/>
		</g>
	</g>
	<g>
		<g>
			<path class="st0" d="M4.5357795,37.6476173c-2.0625002,0-3.7402344-1.6777344-3.7402344-3.7402344
				s1.6777343-3.741209,3.7402344-3.741209s3.7412105,1.6787109,3.7412105,3.741209S6.5982795,37.6476173,4.5357795,37.6476173z
				 M4.5357795,32.166172c-0.9599612,0-1.7402346,0.78125-1.7402346,1.7412109s0.7802734,1.7402344,1.7402346,1.7402344
				s1.7412109-0.7802734,1.7412109-1.7402344S5.4957404,32.166172,4.5357795,32.166172z"/>
		</g>
		<g class="st1">
			<circle class="st0" cx="4.5361228" cy="33.907032" r="2.7406888"/>
		</g>
		<g>
			<path class="st0" d="M24.0279675,36.275547c-2.0625,0-3.7402344-1.6787109-3.7402344-3.7412109
				s1.6777344-3.7402325,3.7402344-3.7402325s3.7402344,1.6777344,3.7402344,3.7402325S26.0904675,36.275547,24.0279675,36.275547z
				 M24.0279675,30.7941036c-0.9599609,0-1.7402344,0.7802734-1.7402344,1.7402325
				c0,0.9599609,0.7802734,1.7412109,1.7402344,1.7412109s1.7402344-0.78125,1.7402344-1.7412109
				C25.7682018,31.5743771,24.9879284,30.7941036,24.0279675,30.7941036z"/>
		</g>
		<g>
			<path class="st0" d="M33.8775749,29.1808224c-2.0624981,0-3.7402325-1.6787109-3.7402325-3.7412109
				s1.6777344-3.7402344,3.7402325-3.7402344s3.7412109,1.6777344,3.7412109,3.7402344S35.9400749,29.1808224,33.8775749,29.1808224
				z M33.8775749,23.6993771c-0.9599609,0-1.7402344,0.7802734-1.7402344,1.7402344s0.7802734,1.7412109,1.7402344,1.7412109
				s1.7412109-0.78125,1.7412109-1.7412109S34.8375359,23.6993771,33.8775749,23.6993771z"/>
		</g>
		<g>
			<path class="st0" d="M12.3267946,34.907383H7.2769904v-2h5.0498042c1.3652344,0,2.6220703-0.7431641,3.2802734-1.9394512
				l1.9550791-3.5537109c1.0097656-1.8349609,2.9375-2.9746094,5.0322266-2.9746094h8.5429688v2h-8.5429688
				c-1.3652344,0-2.6220703,0.7431641-3.2802734,1.9394531l-1.9550781,3.5537109
				C16.3492565,33.7677345,14.4215212,34.907383,12.3267946,34.907383z"/>
		</g>
		<g>
			<path class="st0" d="M36.6187859,33.5343361h-9.850584c-0.5527344,0-1-0.4472656-1-1
				c0-0.5527325,0.4472656-0.9999981,1-0.9999981h9.850584c0.5527344,0,1,0.4472656,1,0.9999981
				C37.6187859,33.0870705,37.1715202,33.5343361,36.6187859,33.5343361z"/>
		</g>
	</g>
	<g>
		<g>
			<path class="st0" d="M4.5357795,22.8859005c-2.0625002,0-3.7402344-1.6777344-3.7402344-3.7402344
				s1.6777343-3.7412109,3.7402344-3.7412109s3.7412105,1.6787109,3.7412105,3.7412109S6.5982795,22.8859005,4.5357795,22.8859005z
				 M4.5357795,17.4044552c-0.9599612,0-1.7402346,0.78125-1.7402346,1.7412109s0.7802734,1.7402344,1.7402346,1.7402344
				s1.7412109-0.7802734,1.7412109-1.7402344S5.4957404,17.4044552,4.5357795,17.4044552z"/>
		</g>
		<g>
			<path class="st0" d="M17.6217175,22.8859005c-2.062501,0-3.7412119-1.6777344-3.7412119-3.7402344
				s1.6787109-3.7412109,3.7412119-3.7412109s3.7402344,1.6787109,3.7402344,3.7412109S19.6842175,22.8859005,17.6217175,22.8859005
				z M17.6217175,17.4044552c-0.9599609,0-1.7412119,0.78125-1.7412119,1.7412109s0.781251,1.7402344,1.7412119,1.7402344
				s1.7402344-0.7802734,1.7402344-1.7402344S18.5816784,17.4044552,17.6217175,17.4044552z"/>
		</g>
		<g class="st1">
			<circle class="st0" cx="17.6215839" cy="19.1453915" r="2.7406888"/>
		</g>
		<g>
			<rect x="7.2769904" y="18.1456661" class="st0" width="7.6035156" height="2"/>
		</g>
	</g>
</g>
</svg>
