<?xml version="1.0" encoding="utf-8"?>
<!-- Generator: Adobe Illustrator 25.0.1, SVG Export Plug-In . SVG Version: 6.00 Build 0)  -->
<svg version="1.1" id="图层_1" xmlns="http://www.w3.org/2000/svg" xmlns:xlink="http://www.w3.org/1999/xlink" x="0px" y="0px"
	 viewBox="0 0 26.2597313 21.9198875" style="enable-background:new 0 0 26.2597313 21.9198875;" xml:space="preserve">
<style type="text/css">
	.st0{fill:#989626;}
</style>
<g>
	<g>
		<g>
			<g>
				<g>
					<path class="st0" d="M24.6907234,14.2767296H1.5691415c-0.3588867,0-0.6499023-0.2910156-0.6499023-0.6499023
						s0.2910156-0.6499023,0.6499023-0.6499023h23.121582c0.3588867,0,0.6499023,0.2910156,0.6499023,0.6499023
						S25.0496101,14.2767296,24.6907234,14.2767296z"/>
				</g>
			</g>
			<g>
				<g>
					<path class="st0" d="M9.794239,18.9134483c-0.0756836,0-0.1523438-0.0131836-0.2270508-0.0415039
						c-0.3364258-0.125-0.5073242-0.4995117-0.3818359-0.8359375l0.8984375-2.4111328
						c0.125-0.3374023,0.5009766-0.5087891,0.8359375-0.3818359c0.3364258,0.125,0.5073242,0.4995117,0.3818359,0.8359375
						l-0.8984375,2.4111328C10.3059578,18.7518272,10.0579109,18.9134483,9.794239,18.9134483z"/>
				</g>
				<g>
					<path class="st0" d="M16.4656258,18.9134483c-0.2636719,0-0.5117188-0.1616211-0.6088867-0.4233398l-0.8984375-2.4111328
						c-0.1254883-0.3364258,0.0454102-0.7109375,0.3818359-0.8359375c0.3349609-0.1269531,0.7104492,0.0444336,0.8359375,0.3818359
						l0.8984375,2.4111328c0.1254883,0.3364258-0.0454102,0.7109375-0.3818359,0.8359375
						C16.6179695,18.9002647,16.5413094,18.9134483,16.4656258,18.9134483z"/>
				</g>
			</g>
			<g>
				<path class="st0" d="M19.5144539,21.0648155H6.7449226c-0.8823242,0-1.5996094-0.7172852-1.5996094-1.5996094v-0.2524414
					c0-0.8823242,0.7172852-1.5996094,1.5996094-1.5996094h12.7695312c0.8823242,0,1.6000977,0.7172852,1.6000977,1.5996094
					v0.2524414C21.1145515,20.3475304,20.3967781,21.0648155,19.5144539,21.0648155z M6.7449226,18.9129601
					c-0.1650391,0-0.2998047,0.1347656-0.2998047,0.2998047v0.2524414c0,0.1650391,0.1347656,0.2998047,0.2998047,0.2998047
					h12.7695312c0.1655273,0,0.300293-0.1347656,0.300293-0.2998047v-0.2524414c0-0.1650391-0.1347656-0.2998047-0.300293-0.2998047
					H6.7449226z"/>
			</g>
			<g>
				<path class="st0" d="M23.8645515,16.5018272H2.3948252c-0.8134767,0-1.4755861-0.6621094-1.4755861-1.4755859V2.3309288
					c0-0.8139647,0.6621094-1.4760742,1.4755861-1.4760742h21.4697266c0.8139648,0,1.4760742,0.6621094,1.4760742,1.4760742
					v12.6953125C25.3406258,15.8397179,24.6785164,16.5018272,23.8645515,16.5018272z M2.3948252,2.1546593
					c-0.0966797,0-0.1757812,0.0791016-0.1757812,0.1762695v12.6953125c0,0.0966797,0.0791016,0.1757812,0.1757812,0.1757812
					h21.4697266c0.097168,0,0.1762695-0.0791016,0.1762695-0.1757812V2.3309288c0-0.097168-0.0791016-0.1762695-0.1762695-0.1762695
					H2.3948252z"/>
			</g>
		</g>
	</g>
	<g>
		<g>
			<g>
				<path class="st0" d="M8.3264656,9.1238976H4.3347664c-0.3588865,0-0.6499021-0.2910156-0.6499021-0.6499023V4.482296
					c0-0.3588867,0.2910156-0.6499023,0.6499021-0.6499023h3.9916992c0.3588867,0,0.6499023,0.2910156,0.6499023,0.6499023
					v3.9916992C8.976368,8.8328819,8.6853523,9.1238976,8.3264656,9.1238976z M4.9846687,7.8240929h2.6918945V5.1321983H4.9846687
					V7.8240929z"/>
			</g>
			<g>
				<path class="st0" d="M7.6897469,11.4183311H4.9719734c-0.3588867,0-0.6499023-0.2910156-0.6499023-0.6499023
					s0.2910156-0.6499023,0.6499023-0.6499023h2.7177734c0.3588867,0,0.6499023,0.2910156,0.6499023,0.6499023
					S8.0486336,11.4183311,7.6897469,11.4183311z"/>
			</g>
		</g>
		<g>
			<g>
				<path class="st0" d="M15.125782,9.1238976h-3.9916992c-0.3588867,0-0.6499023-0.2910156-0.6499023-0.6499023V4.482296
					c0-0.3588867,0.2910156-0.6499023,0.6499023-0.6499023h3.9916992c0.3588867,0,0.6499023,0.2910156,0.6499023,0.6499023
					v3.9916992C15.7756844,8.8328819,15.4846687,9.1238976,15.125782,9.1238976z M11.7839851,7.8240929h2.6918945V5.1321983
					h-2.6918945V7.8240929z"/>
			</g>
			<g>
				<path class="st0" d="M14.488575,11.4183311h-2.7177734c-0.3588867,0-0.6499023-0.2910156-0.6499023-0.6499023
					s0.2910156-0.6499023,0.6499023-0.6499023h2.7177734c0.3588867,0,0.6499023,0.2910156,0.6499023,0.6499023
					S14.8474617,11.4183311,14.488575,11.4183311z"/>
			</g>
		</g>
		<g>
			<g>
				<path class="st0" d="M21.9246101,9.1238976h-3.9916992c-0.3588867,0-0.6499023-0.2910156-0.6499023-0.6499023V4.482296
					c0-0.3588867,0.2910156-0.6499023,0.6499023-0.6499023h3.9916992c0.3588867,0,0.6499023,0.2910156,0.6499023,0.6499023
					v3.9916992C22.5745125,8.8328819,22.2834969,9.1238976,21.9246101,9.1238976z M18.5828133,7.8240929h2.6918945V5.1321983
					h-2.6918945V7.8240929z"/>
			</g>
			<g>
				<path class="st0" d="M21.2878914,11.4183311H18.570118c-0.3588867,0-0.6499023-0.2910156-0.6499023-0.6499023
					s0.2910156-0.6499023,0.6499023-0.6499023h2.7177734c0.3588867,0,0.6499023,0.2910156,0.6499023,0.6499023
					S21.6467781,11.4183311,21.2878914,11.4183311z"/>
			</g>
		</g>
	</g>
</g>
</svg>
