<?xml version="1.0" encoding="utf-8"?>
<!-- Generator: Adobe Illustrator 25.0.1, SVG Export Plug-In . SVG Version: 6.00 Build 0)  -->
<svg version="1.1" id="图层_1" xmlns="http://www.w3.org/2000/svg" xmlns:xlink="http://www.w3.org/1999/xlink" x="0px" y="0px"
	 viewBox="0 0 38.414093 38.2907829" style="enable-background:new 0 0 38.414093 38.2907829;" xml:space="preserve">
<style type="text/css">
	.st0{fill:#2A8B92;}
	.st1{opacity:0.15;}
</style>
<g>
	<g>
		<path class="st0" d="M19.2066784,9.4210567c-1.7421875,0-17.0205078-0.1230469-17.0205078-4.4003911
			s15.2783213-4.4003906,17.0205078-4.4003906s17.0214825,0.1230469,17.0214825,4.4003906
			S20.9488659,9.4210567,19.2066784,9.4210567z M4.2262092,5.0206656c0.7304688,0.9042969,6.085937,2.4003906,14.9804688,2.4003906
			s14.2499981-1.4960938,14.9814434-2.4003906c-0.7314453-0.9042969-6.0869122-2.4003904-14.9814434-2.4003904
			S4.9566779,4.1163688,4.2262092,5.0206656z"/>
	</g>
	<g class="st1">
		<ellipse class="st0" cx="19.2070465" cy="5.0205579" rx="16.0212231" ry="3.4004228"/>
	</g>
	<g>
		<path class="st0" d="M19.2066784,18.8370724c-1.7421875,0-17.0205078-0.1230469-17.0205078-4.4003906V4.9659781h2.0000002
			v9.4707031c0.4345703,0.8076172,5.842773,2.4003906,15.0205078,2.4003906c9.1787109,0,14.5869122-1.5927734,15.0371075-2.484375
			l-0.015625-9.3867188h2v9.4707031C36.2281609,18.7140255,20.9488659,18.8370724,19.2066784,18.8370724z"/>
	</g>
	<g>
		<path class="st0" d="M19.2066784,37.6710548c-1.7421875,0-17.0205078-0.1230469-17.0205078-4.4003906v-9.4716778h2.0000002
			v9.4716778c0.4345703,0.8076172,5.8437495,2.4003906,15.0205078,2.4003906s14.5869122-1.5927734,15.0371075-2.484375
			l-0.015625-9.3876934h2v9.4716778C36.2281609,37.548008,20.9488659,37.6710548,19.2066784,37.6710548z"/>
	</g>
	<g>
		<path class="st0" d="M19.2066784,28.2540646c-1.7421875,0-17.0205078-0.1230469-17.0205078-4.4003906v-9.4707031h2.0000002
			v9.4707031c0.4345703,0.8076172,5.8437495,2.4003906,15.0205078,2.4003906s14.5869122-1.5927734,15.0371075-2.484375
			l-0.015625-9.3867188h2v9.4707031C36.2281609,28.1310177,20.9488659,28.2540646,19.2066784,28.2540646z"/>
	</g>
	<g class="st1">
		<path class="st0" d="M35.2282562,24.6412468c-4.6143932,1.5991516-10.186203,2.6128368-16.0212116,2.6128368
			c-4.8457861,0-11.294323-0.989687-16.0212097-2.6128368c0-3.3366776,0-5.6170502,0-8.9537277
			c3.7608137,1.0422897,8.7511559,2.0320702,14.662652,2.1659145c7.1855431,0.1627045,13.1595402-0.9975109,17.3797703-2.1659145
			C35.2282562,19.0241966,35.2282562,21.3045692,35.2282562,24.6412468z"/>
	</g>
</g>
</svg>
