<?xml version="1.0" encoding="utf-8"?>
<!-- Generator: Adobe Illustrator 25.0.1, SVG Export Plug-In . SVG Version: 6.00 Build 0)  -->
<svg version="1.1" id="图层_1" xmlns="http://www.w3.org/2000/svg" xmlns:xlink="http://www.w3.org/1999/xlink" x="0px" y="0px"
	 viewBox="0 0 38.414093 38.2907829" style="enable-background:new 0 0 38.414093 38.2907829;" xml:space="preserve">
<style type="text/css">
	.st0{fill:#8A8BB9;}
	.st1{opacity:0.2;}
	.st2{opacity:0.15;}
</style>
<g>
	<g>
		<path class="st0" d="M33.707653,22.1651974H31.707655V7.7755485c0-0.5429688-0.4423828-0.9853516-0.9853516-0.9853516H7.693006
			c-0.5429688,0-0.9853516,0.4423828-0.9853516,0.9853516v14.3896484h-2V7.7755485
			c0-1.6464844,1.3388672-2.9853516,2.9853516-2.9853516h23.0292969c1.6464825,0,2.9853497,1.3388672,2.9853497,2.9853516
			V22.1651974z"/>
	</g>
	<g>
		<path class="st0" d="M30.7310925,6.0626578h-2V4.1866813c0-0.5429685-0.4423828-0.9853513-0.9853516-0.9853513H10.6695681
			c-0.5429688,0-0.9853516,0.4423828-0.9853516,0.9853513v1.8759766H7.684217V4.1866813
			c0-1.6464841,1.3388667-2.9853513,2.9853511-2.9853513h17.0761719c1.6464844,0,2.9853516,1.3388672,2.9853516,2.9853513V6.0626578
			z"/>
	</g>
	<g class="st1">
		<path class="st0" d="M8.6839371,6.062345V4.1866565c0-1.0963788,0.8887911-1.9851696,1.9851694-1.9851696h17.0769043
			c1.0963783,0,1.9851685,0.8887908,1.9851685,1.9851696V6.062345"/>
	</g>
	<g>
		<g>
			<path class="st0" d="M26.5904675,12.815588H15.2672243c-0.5527344,0-1-0.4472656-1-1s0.4472656-1,1-1h11.3232431
				c0.5527344,0,1,0.4472656,1,1S27.1432018,12.815588,26.5904675,12.815588z"/>
		</g>
		<g>
			<path class="st0" d="M26.5904675,18.8985958h-14.765626c-0.5527344,0-1-0.4472656-1-1s0.4472656-1,1-1h14.765626
				c0.5527344,0,1,0.4472656,1,1S27.1432018,18.8985958,26.5904675,18.8985958z"/>
		</g>
	</g>
	<g>
		<path class="st0" d="M35.723278,37.0890236H2.6910527c-1.2246093,0-2.2207031-0.9960938-2.2207031-2.2207031V23.096838
			c0-1.2246094,0.9960938-2.2216797,2.2207031-2.2216797h5.8847656c0.8662109,0,1.6582031,0.5087891,2.0195312,1.2958984
			l1.0478516,2.2871094c0.0361328,0.0800781,0.1152344,0.1298828,0.2011719,0.1298828h14.7265635
			c0.0859375,0,0.1650391-0.0507812,0.2011719-0.1298828l1.0478516-2.2871094
			c0.3613281-0.7871094,1.1533203-1.2958984,2.0195312-1.2958984h5.8837872c1.2246094,0,2.2216797,0.9970703,2.2216797,2.2216797
			v11.7714825C37.9449577,36.0929298,36.9478874,37.0890236,35.723278,37.0890236z M2.6910527,22.8751583
			c-0.1220703,0-0.2207031,0.0996094-0.2207031,0.2216797v11.7714825c0,0.1220703,0.0986328,0.2207031,0.2207031,0.2207031
			H35.723278c0.1220703,0,0.2216797-0.0986328,0.2216797-0.2207031V23.096838c0-0.1220703-0.0996094-0.2216797-0.2216797-0.2216797
			h-5.8837872c-0.0859375,0-0.1650391,0.0507812-0.2011719,0.1298828l-1.0478516,2.2871094
			c-0.3613281,0.7871094-1.1533203,1.2958984-2.0195312,1.2958984H11.8443727c-0.8671875,0-1.6601562-0.5097656-2.0205078-1.2978516
			l-1.046875-2.2851562c-0.0361328-0.0791016-0.1152344-0.1298828-0.2011719-0.1298828H2.6910527z"/>
	</g>
	<g class="st2">
		<path class="st0" d="M28.7291374,22.5882435l-1.0477772,2.2872849c-0.1989441,0.4342918-0.6327972,0.7127552-1.1104851,0.7127552
			H11.844243c-0.4776888,0-0.911541-0.2784634-1.1104851-0.7127552l-1.0477781-2.2872849
			c-0.1989431-0.4342899-0.6327953-0.7127552-1.1104841-0.7127552H2.6915262c-0.6745911,0-1.2214549,0.5468655-1.2214549,1.2214565
			v11.770895c0,0.6745911,0.5468638,1.2214546,1.2214549,1.2214546h33.0320663c0.6745911,0,1.2214546-0.5468636,1.2214546-1.2214546
			v-11.770895c0-0.6745911-0.5468636-1.2214565-1.2214546-1.2214565h-5.8839684
			C29.3619347,21.8754883,28.9280815,22.1539536,28.7291374,22.5882435z"/>
	</g>
</g>
</svg>
