<?xml version="1.0" encoding="utf-8"?>
<!-- Generator: Adobe Illustrator 25.0.1, SVG Export Plug-In . SVG Version: 6.00 Build 0)  -->
<svg version="1.1" id="图层_1" xmlns="http://www.w3.org/2000/svg" xmlns:xlink="http://www.w3.org/1999/xlink" x="0px" y="0px"
	 viewBox="0 0 25.6416512 29.3185654" style="enable-background:new 0 0 25.6416512 29.3185654;" xml:space="preserve">
<style type="text/css">
	.st0{fill:#2A8B92;}
	.st1{opacity:0.15;}
</style>
<g>
	<g>
		<path class="st0" d="M22.1812878,28.2599163H3.4605839c-1.4414062,0-2.6132812-1.171875-2.6132812-2.6132812V6.7774949
			c0-1.4414062,1.1728513-2.6132812,2.6142578-2.6132812h18.71875c1.4414062,0,2.6142578,1.171875,2.6142578,2.6132812v18.8691406
			C24.794569,27.0880413,23.622694,28.2599163,22.1812878,28.2599163z M3.4615605,6.1642137
			c-0.3388672,0-0.6142578,0.2753906-0.6142578,0.6132812v18.8691406c0,0.3378906,0.2753906,0.6132812,0.6132812,0.6132812
			h18.7207031c0.3378906,0,0.6132812-0.2753906,0.6132812-0.6132812V6.7774949c0-0.3378906-0.2753906-0.6132812-0.6142578-0.6132812
			H3.4615605z"/>
	</g>
	<g>
		<g>
			<path class="st0" d="M22.9127331,5.1964402h-2V3.6720264c0-0.3378906-0.2753906-0.6132812-0.6132812-0.6132812H5.3424201
				c-0.3378906,0-0.6132812,0.2753906-0.6132812,0.6132812v1.5244138H2.7291386V3.6720264
				c0-1.4414062,1.171875-2.6132812,2.6132815-2.6132812h14.9570312c1.4414062,0,2.6132812,1.171875,2.6132812,2.6132812V5.1964402z
				"/>
		</g>
		<g class="st1">
			<path class="st0" d="M3.7287712,5.1968379v-1.524631c0-0.8911786,0.7224426-1.6136215,1.6136212-1.6136215h14.9568653
				c0.8911781,0,1.6136227,0.7224429,1.6136227,1.6136215v1.524631"/>
		</g>
	</g>
	<g>
		<g>
			<path class="st0" d="M18.8219128,11.0616751H6.8199592c-0.5527344,0-1-0.4472656-1-1s0.4472656-1,1-1h12.0019531
				c0.5527344,0,1,0.4472656,1,1S19.3746471,11.0616751,18.8219128,11.0616751z"/>
		</g>
		<g>
			<path class="st0" d="M18.8219128,15.1427298H6.8199592c-0.5527344,0-1-0.4472656-1-1s0.4472656-1,1-1h12.0019531
				c0.5527344,0,1,0.4472656,1,1S19.3746471,15.1427298,18.8219128,15.1427298z"/>
		</g>
		<g>
			<path class="st0" d="M18.8219128,19.2247601H6.8199592c-0.5527344,0-1-0.4472656-1-1s0.4472656-1,1-1h12.0019531
				c0.5527344,0,1,0.4472656,1,1S19.3746471,19.2247601,18.8219128,19.2247601z"/>
		</g>
		<g>
			<path class="st0" d="M18.8219128,23.3058147H6.8199592c-0.5527344,0-1-0.4472656-1-1s0.4472656-1,1-1h12.0019531
				c0.5527344,0,1,0.4472656,1,1S19.3746471,23.3058147,18.8219128,23.3058147z"/>
		</g>
	</g>
</g>
</svg>
