<?xml version="1.0" encoding="utf-8"?>
<!-- Generator: Adobe Illustrator 25.4.1, SVG Export Plug-In . SVG Version: 6.00 Build 0)  -->
<svg version="1.1" id="图层_1" xmlns="http://www.w3.org/2000/svg" xmlns:xlink="http://www.w3.org/1999/xlink" x="0px" y="0px"
	 viewBox="0 0 28.3464565 28.3464565" style="enable-background:new 0 0 28.3464565 28.3464565;" xml:space="preserve">
<style type="text/css">
	.st0{fill:#A33639;}
</style>
<g>
	<path class="st0" d="M27.940094,6.6360765c0.1062088-1.302618-1.083683-2.1543303-2.1763783-2.5268278
		c-2.9025879-1.0270665-6.0651951-1.0553722-9.0900249-0.6700981V0.7086613h-1.8727627
		C10.0037823,1.5636296,5.1973715,2.3807724,0.3969696,3.21996V25.132761
		c4.7751026,0.8391876,9.5567141,1.6345367,14.3258018,2.5050335h1.9509211v-3.37253
		c3.0153122,0.4288635,6.1433506,0.3131294,9.0494423-0.6513081c1.1052208-0.3692436,2.3266773-1.2146912,2.216959-2.5330925
		C27.9526176,16.2646828,27.9526176,11.4487524,27.940094,6.6360765z M9.8940611,19.1582489
		c-0.192749-0.7837639-0.3931618-1.5656242-0.6012068-2.3454647c-0.9607563-0.0051079-1.9212732-0.0321693-2.8807917-0.0811615
		c-0.1844602,0.7408485-0.372335,1.4808464-0.5636334,2.2199612c-0.6114278-0.0468369-1.2230821-0.0906792-1.834938-0.1315136
		c0.9145894-3.2971296,1.8662524-6.5819826,2.7743268-9.8793612v0.000001
		c0.7297177-0.0531073,1.4559269-0.1032066,2.1886501-0.1595716c1.0491095,3.5070505,2.0448618,7.0328884,3.0814447,10.5429449
		C11.3344593,19.2769871,10.6112547,19.2238808,9.8940611,19.1582489z M16.673439,4.3910637
		c2.7961235-0.3852739,5.7082272-0.3727493,8.4264412,0.4571695c0.7482548,0.2788105,1.7502689,0.6137333,1.9193592,1.506278
		c-0.1252518,0.7297168-0.8860321,1.0583782-1.4874897,1.3214064c-2.8399601,0.9581757-5.9116364,1.0488586-8.8583107,0.6042147
		V4.3910637z M16.673439,14.2859554c2.1356106,0.2719011,4.2974072,0.2666798,6.4316788-0.0155306h0.0000038
		c1.3745117-0.2034082,2.8026333-0.5010071,3.9108601-1.393301c-0.0626259,1.3431997,0.0971966,2.6989241-0.0876751,4.0331068
		c-0.5481033,0.6700993-1.4371395,0.9080753-2.2357445,1.1367855c-2.6207676,0.6227493-5.3575191,0.6385345-8.0191231,0.3001041
		V14.2859554z M26.9220428,21.9265671c-0.8860302,0.9644375-2.2918568,1.1427956-3.5103054,1.3902931
		c-2.2368031,0.3402214-4.5115547,0.3486614-6.7508202,0.025053c0.0217934-1.3494644,0.0125256-2.6959209,0.0125256-4.0453854
		c2.1314583,0.2714844,4.2890797,0.2660961,6.4191532-0.0160313l0,0c1.3777695-0.2004051,2.8086452-0.5010071,3.9233856-1.3932991
		C26.9500999,19.2303963,27.119442,20.5926361,26.9220428,21.9265671z M26.9222946,11.9091768
		c-0.5603771,0.6670923-1.4496651,0.9050684-2.251276,1.1335287c-2.6147575,0.616991-5.3422394,0.6327734-7.9975796,0.291337
		V9.2758846c2.1293831,0.2698917,4.2845821,0.2656832,6.4128933-0.0125265
		c1.3777714-0.2034082,2.814909-0.5010071,3.9299011-1.3965569C26.9475956,9.2132587,27.1226978,10.5752459,26.9222946,11.9091768z"
		/>
	<path class="st0" d="M6.8036017,15.0407228c0.6888819,0.006012,1.3777699,0.0092678,2.0699086,0.0125246
		c-0.356966-1.4654455-0.7920914-2.9121037-1.0739064-4.3963366C7.5896802,12.1441498,7.1199875,13.5750275,6.8036017,15.0407228z"
		/>
</g>
</svg>
