<?xml version="1.0" encoding="utf-8"?>
<!-- Generator: Adobe Illustrator 25.4.1, SVG Export Plug-In . SVG Version: 6.00 Build 0)  -->
<svg version="1.1" id="图层_1" xmlns="http://www.w3.org/2000/svg" xmlns:xlink="http://www.w3.org/1999/xlink" x="0px" y="0px"
	 viewBox="0 0 41.1737099 31.1811028" style="enable-background:new 0 0 41.1737099 31.1811028;" xml:space="preserve">
<style type="text/css">
	.st0{fill:#D9F4F2;}
	.st1{fill:#2A8B92;}
	.st2{fill:#EBF7F6;}
	.st3{fill:#156FDB;}
</style>
<g>
	<g>
		<path class="st0" d="M35.4163589,10.6296625v-6.654284c0-0.6300094-0.5107231-1.1407328-1.1407318-1.1407328H6.8980823
			c-0.6300092,0-1.1407328,0.5107234-1.1407328,1.1407328v6.654284"/>
		<path class="st1" d="M35.4159737,11.229558c-0.3310547,0-0.5996094-0.2685547-0.5996094-0.6000977V3.975163
			c0-0.2983398-0.2431641-0.5405273-0.5410156-0.5405273H6.8979077c-0.2983398,0-0.5405273,0.2421875-0.5405273,0.5405273v6.6542974
			c0,0.331543-0.2685547,0.6000977-0.6000977,0.6000977s-0.6000977-0.2685547-0.6000977-0.6000977V3.975163
			c0-0.9599609,0.7807617-1.7407227,1.7407227-1.7407227h27.3774414c0.9599609,0,1.7402344,0.7807617,1.7402344,1.7407227v6.6542974
			C36.015583,10.9610033,35.7470284,11.229558,35.4159737,11.229558z"/>
	</g>
	<g>
		<path class="st2" d="M34.4996796,28.3464565H6.6740294c-0.5354056,0-0.9987655-0.3723583-1.1139984-0.8952179
			L2.2794292,12.2328606c-0.1568923-0.7118807,0.3850338-1.3862476,1.1139989-1.3862476h34.3868523
			c0.7289658,0,1.2708893,0.674367,1.1139984,1.3862476L35.613678,27.4512386
			C35.4984436,27.9740982,35.0350838,28.3464565,34.4996796,28.3464565z"/>
		<path class="st1" d="M34.499958,28.9458656H6.6737866c-0.8105469,0-1.5253906-0.5742188-1.699707-1.3652344L1.6928298,12.3594408
			c-0.1137695-0.5151367,0.0117188-1.0493164,0.34375-1.4624023s0.8266602-0.6503906,1.3569336-0.6503906h34.3867188
			c0.5302734,0,1.0244141,0.2368164,1.3564453,0.6494141c0.3320312,0.4135742,0.4580078,0.9472656,0.34375,1.465332
			l-3.2802734,15.2163076C36.0214424,28.3843422,35.3232002,28.9458656,34.499958,28.9458656z M3.3935134,11.4468431
			c-0.1645508,0-0.3183594,0.0737305-0.4213867,0.2021484c-0.1035156,0.128418-0.1420898,0.2939453-0.1069336,0.4550781
			l3.2812498,15.2216787c0.0537109,0.2421875,0.2758789,0.4208984,0.5273438,0.4208984H34.499958
			c0.2558594,0,0.4726562-0.1748047,0.5273438-0.4238281l3.2802734-15.2163076
			c0.0361328-0.1635742-0.0029297-0.3295898-0.1064453-0.4580078c-0.0605469-0.0751953-0.1953125-0.2016602-0.4208984-0.2016602
			H3.3935134z"/>
	</g>
</g>
<g>
	<g>
		<path class="st3" d="M27.9985943,25.2599258h-3.4398575l-5.32024-9.863555l-4.8979959,9.1485567h1.9760866l3.5355663-6.6545181
			l0.4053516,0.7375126l-3.5243034,6.6151123h-3.5580873l6.0633821-11.3216915l5.7368507,10.6404781h1.8634911l-4.8416996-9.1710806
			l-0.6192856,1.131608l-0.4053516-0.7262545l1.0415268-1.8691206L27.9985943,25.2599258z"/>
	</g>
	<g>
		<path class="st3" d="M23.1720467,23.1656094h-4.1435928l0.365942-0.6981049h3.4060783L23.1720467,23.1656094z"/>
	</g>
</g>
</svg>
