<?xml version="1.0" encoding="utf-8"?>
<!-- Generator: Adobe Illustrator 25.0.1, SVG Export Plug-In . SVG Version: 6.00 Build 0)  -->
<svg version="1.1" id="图层_1" xmlns="http://www.w3.org/2000/svg" xmlns:xlink="http://www.w3.org/1999/xlink" x="0px" y="0px"
	 viewBox="0 0 28.3465004 25.5897961" style="enable-background:new 0 0 28.3465004 25.5897961;" xml:space="preserve">
<style type="text/css">
	.st0{fill:#1A2781;}
	.st1{fill:#DE1A1B;}
	.st2{fill:#2B858B;}
	.st3{enable-background:new    ;}
	.st4{fill:#FFFFFF;}
</style>
<g>
	<path class="st0" d="M27.4275169,3.52666c-1.6825523-3.2926559-6.7018185-3.9680758-12.0783129-2.4715109
		c-0.3291512,0.7808498-0.7132912,2.0089478-0.653223,3.5125928c0.03335,0.8348765,0.09515,2.0030217,0.8803864,3.0979762
		c0.2204437,0.3073835,0.4434137,0.5330343,0.6057882,0.6815186c0.1501141,0.1134157,0.3928375,0.2826786,0.7139702,0.4435282
		c0.9841824,0.4929628,1.7108765,0.4091005,2.6053219,0.6039667c0.0000763,0.0000257,1.1475201,0.2500219,2.0895386,0.9321308
		c1.6691246,1.2086267,1.7615814,3.7226715,1.7597599,4.5359478C27.3702068,11.107583,29.0425911,6.6872644,27.4275169,3.52666z"/>
	<path class="st0" d="M0.9658782,18.1982574c1.7430575,3.1336823,6.5685811,3.9680805,11.9450731,2.4715176
		c0.3453331-0.711359,1.6651449-3.6091385,0.4468679-5.8129368c-0.1088781-0.1969452-0.2425823-0.4388247-0.4969797-0.7058601
		c-1.1195459-1.1751842-2.5285912-0.6882582-4.7060661-1.5491123c-0.6793814-0.26861-1.2415414-0.4908352-1.7668915-0.9668131
		C4.8472414,10.2392292,4.943871,7.8578849,5.0426388,6.8621078C1.023177,10.6173315-0.7594393,15.0964699,0.9658782,18.1982574z"/>
	<path class="st1" d="M20.9616508,11.2228851c-1.6632614-1.8123131-4.0412159-1.0418835-5.7049122-2.6768045
		c-0.9576035-0.9410367-1.9754286-2.8368979-1.1393871-7.1105804c-0.7572527,0.2570267-1.3822889,0.5593382-2.1466532,0.9067035
		c-0.8807631,3.4114728-0.3639088,5.2651739,0.5425215,6.3245883c1.7009039,1.9880056,4.6257668,1.0097952,6.4097137,3.0037794
		c1.2898407,1.441699,1.3136368,3.689764,0.8725452,5.931056c0.8443069-0.5368996,1.6346035-1.1091976,2.3681431-1.7062969
		C22.2864456,14.3762131,22.1481361,12.5157051,20.9616508,11.2228851z"/>
	<path class="st1" d="M15.6451387,13.0764837c-1.7252102-1.8311224-4.4515944-0.8216534-6.1855707-2.66257
		C8.0023146,8.8668175,8.1675053,6.2870512,8.6211386,4.1686921C7.7338295,4.7393117,6.9064651,5.3484221,6.1438084,5.9846683
		c-0.3504872,1.9441648-0.2760568,3.836431,0.8239131,5.0673699c1.7746644,1.9859982,4.9080462,0.784174,6.6955438,2.7665653
		c0.9175692,1.0176058,1.4781189,2.8717175,0.5578766,6.4592266c0.7416553-0.2496891,1.48979-0.5415783,2.2387257-0.8780479
		C17.2309208,15.7210293,16.4996758,13.9834747,15.6451387,13.0764837z"/>
	<path class="st1" d="M18.4237633,12.1666489c-1.7211876-1.8628235-4.431736-0.8874865-6.2053776-2.7362919
		c-0.8803816-0.917696-1.7268076-2.738625-0.9038401-6.7790031c-0.4160309,0.2032852-0.8316011,0.4183681-1.245471,0.6485758
		c-0.3558817,0.1979537-0.70152,0.4038453-1.0414219,0.6137297c-0.4032631,2.0916197-0.4277229,4.3801031,0.892045,5.8416204
		c1.7708273,1.9610424,4.5956287,0.9207554,6.3457155,2.7219076c0.9575596,0.9855003,1.6199703,2.8524742,0.7681217,6.6561594
		c0.4781475-0.2290707,0.9558468-0.4748154,1.4313774-0.7393208c0.2976971-0.1655903,0.5877666-0.3370419,0.8742466-0.5110626
		C19.6939716,15.9965391,19.787859,13.6429586,18.4237633,12.1666489z"/>
</g>
<g>
	<path class="st2" d="M27.5380592,25.2772617h-9.6377945c-0.3131065,0-0.5669289-0.2538223-0.5669289-0.5669289v-4.5354328
		c0-0.3131065,0.2538223-0.5669289,0.5669289-0.5669289h9.6377945c0.3131065,0,0.5669289,0.2538223,0.5669289,0.5669289v4.5354328
		C28.1049881,25.0234394,27.8511658,25.2772617,27.5380592,25.2772617z"/>
	<g class="st3">
		<path class="st4" d="M18.655302,20.9640999h0.6191406l0.3916016,1.4384766
			c0.0927734,0.328125,0.1523438,0.6240234,0.2480469,0.9560547h0.0205078
			c0.0917969-0.3320312,0.1601562-0.6279297,0.2519531-0.9560547l0.3837891-1.4384766h0.5996094l-0.9082031,2.9580078h-0.703125
			L18.655302,20.9640999z"/>
		<path class="st4" d="M21.6426067,23.1867561c0-0.3798828,0.2324219-0.6240234,0.5078125-0.7714844v-0.0205078
			c-0.2275391-0.1640625-0.3916016-0.3876953-0.3916016-0.703125c0-0.4755859,0.3759766-0.7802734,0.8916016-0.7802734
			c0.5234375,0,0.859375,0.3164062,0.859375,0.7880859c0,0.2919922-0.1835938,0.5351562-0.3798828,0.6757812v0.0195312
			c0.2714844,0.1484375,0.4960938,0.3876953,0.4960938,0.7919922c0,0.4472656-0.3964844,0.7910156-0.9960938,0.7910156
			C22.0664349,23.9777718,21.6426067,23.6506233,21.6426067,23.1867561z M23.0781536,23.1662483
			c0-0.3076172-0.2724609-0.4355469-0.65625-0.5917969c-0.1591797,0.1279297-0.2714844,0.328125-0.2714844,0.5478516
			c0,0.2685547,0.2197266,0.4404297,0.4960938,0.4404297C22.8935833,23.5627327,23.0781536,23.4221077,23.0781536,23.1662483z
			 M23.030302,21.7355843c0-0.2402344-0.1445312-0.4121094-0.3925781-0.4121094c-0.1992188,0-0.359375,0.1318359-0.359375,0.3681641
			c0,0.2792969,0.2275391,0.4150391,0.5400391,0.5390625C22.9619427,22.0793343,23.030302,21.9113655,23.030302,21.7355843z"/>
		<path class="st4" d="M23.8884926,23.5939827c0-0.2158203,0.15625-0.3837891,0.3632812-0.3837891
			c0.2119141,0,0.3681641,0.1679688,0.3681641,0.3837891s-0.15625,0.3837891-0.3681641,0.3837891
			C24.0447426,23.9777718,23.8884926,23.809803,23.8884926,23.5939827z"/>
		<path class="st4" d="M24.7800941,22.4308968c0-1.0234375,0.4003906-1.5234375,1.0039062-1.5234375
			c0.5996094,0,0.9990234,0.5039062,0.9990234,1.5234375s-0.3994141,1.546875-0.9990234,1.546875
			C25.1804848,23.9777718,24.7800941,23.450428,24.7800941,22.4308968z M26.2273598,22.4308968
			c0-0.8271484-0.1914062-1.0673828-0.4433594-1.0673828c-0.2558594,0-0.4482422,0.2402344-0.4482422,1.0673828
			c0,0.8320312,0.1923828,1.0878906,0.4482422,1.0878906C26.0359535,23.5187874,26.2273598,23.262928,26.2273598,22.4308968z"/>
	</g>
</g>
</svg>
