<?xml version="1.0" encoding="utf-8"?>
<!-- Generator: Adobe Illustrator 25.0.1, SVG Export Plug-In . SVG Version: 6.00 Build 0)  -->
<svg version="1.1" id="图层_1" xmlns="http://www.w3.org/2000/svg" xmlns:xlink="http://www.w3.org/1999/xlink" x="0px" y="0px"
	 viewBox="0 0 28.3465004 4.7181187" style="enable-background:new 0 0 28.3465004 4.7181187;" xml:space="preserve">
<style type="text/css">
	.st0{fill:#CA312E;}
</style>
<g>
	<path class="st0" d="M1.5073034,1.2595491h3.2498035l0.5587649-0.967593H1.4137093
		c-0.6812112,0-1.2334414,0.5522282-1.2334414,1.2334394V3.192723c0,0.6812112,0.5522301,1.2334397,1.2334414,1.2334397h3.3550596
		c0.3021574,0,0.5471029-0.2449455,0.5471029-0.5471029V2.4223676c0-0.3021576-0.2449455-0.5471029-0.5471029-0.5471029H2.3989894
		V2.842854h1.949291v0.6157193H1.5073034c-0.1985159,0-0.3594443-0.1609302-0.3594443-0.3594444V1.6189934
		C1.1478591,1.4204793,1.3087875,1.2595491,1.5073034,1.2595491z"/>
	<path class="st0" d="M10.7377729,2.3202584c0.2652645-0.1910369,0.4381437-0.5023327,0.4381437-0.8541915V1.4126027
		c0-0.6189148-0.50173-1.1206465-1.1206465-1.1206465H6.0942755v1.9078789v0.3184485v1.9078791h4.0119257
		c0.6361017,0,1.1517639-0.5156636,1.1517639-1.1517651V3.1948957C11.2579651,2.8173089,11.0476427,2.4888525,10.7377729,2.3202584z
		 M10.3268471,1.574649c0,0.1737157-0.1408262,0.3145436-0.3145437,0.3145436H7.0692658V1.2601017h2.9430375
		C10.1860209,1.2601017,10.3268471,1.4009296,10.3268471,1.574649z M10.280983,3.3150988
		c-0.0488405,0.0896406-0.1453171,0.1429183-0.2473974,0.1429183H7.0692658v-0.629091h2.9430375
		C10.2410736,2.8289261,10.4128017,3.0731547,10.280983,3.3150988z"/>
	<path class="st0" d="M14.7423429,0.2919561h-0.7339058c-0.1222677,0-0.2352438,0.065253-0.2963381,0.1711661l-2.2860403,3.9630406
		h1.1502714l0.5581074-0.9681456h2.5015364l0.5581083,0.9681456h1.1502705l-2.2739859-3.9446778
		C15.0027657,0.3642161,14.8777027,0.2919561,14.7423429,0.2919561z M13.6761656,2.5182836l0.7090406-1.2299678l0.7090406,1.2299678
		H13.6761656z"/>
	<path class="st0" d="M18.6067543,1.2601017h3.1940498l0.5499706-0.9681455h-3.8236866
		c-0.6241798,0-1.1301785,0.5059986-1.1301785,1.1301806v0.2908165c0,0.6241784,0.5059986,1.1301768,1.1301785,1.1301768h0.5982971
		h1.4969158h0.518631c0.1269245,0,0.2298222,0.1028969,0.2298222,0.2298231v0.155241
		c0,0.1269259-0.1028976,0.2298229-0.2298222,0.2298229h-3.7440224l0.5360012,0.9681456h3.2876873
		c0.6241779,0,1.1301765-0.5059988,1.1301765-1.1301808V3.0051653c0-0.6241782-0.5059986-1.1301769-1.1301765-1.1301769h-0.5982971
		h-1.4969158h-0.518631c-0.1269264,0-0.2298241-0.1028967-0.2298241-0.2298229v-0.155241
		C18.3769302,1.3629984,18.4798279,1.2601017,18.6067543,1.2601017z"/>
	<path class="st0" d="M24.0425415,3.1421521v-0.299022h3.554018l0.5696735-0.9681417h-4.1236916V1.5759667
		c0-0.1744474,0.1414185-0.315865,0.3158646-0.315865h3.2395096l0.5637283-0.9681455h-3.8174267
		c-0.7078609,0-1.2816963,0.5738349-1.2816963,1.2816961v0.3013362v0.9681417v0.3013363
		c0,0.7078612,0.5738354,1.2816963,1.2816963,1.2816963h3.2246437l0.5881958-0.9681456h-3.7986507
		C24.18396,3.4580171,24.0425415,3.3165994,24.0425415,3.1421521z"/>
</g>
</svg>
