<?xml version="1.0" encoding="utf-8"?>
<!-- Generator: Adobe Illustrator 25.0.1, SVG Export Plug-In . SVG Version: 6.00 Build 0)  -->
<svg version="1.1" id="图层_1" xmlns="http://www.w3.org/2000/svg" xmlns:xlink="http://www.w3.org/1999/xlink" x="0px" y="0px"
	 viewBox="0 0 28.3464565 28.3464565" style="enable-background:new 0 0 28.3464565 28.3464565;" xml:space="preserve">
<style type="text/css">
	.st0{fill:#EA4335;}
	.st1{fill:#4285F4;}
	.st2{fill:#34A853;}
	.st3{fill:#FBBC05;}
</style>
<g>
	<path class="st0" d="M18.3838406,9.5810843l2.2176342-2.2176347l0.1477909-0.9337726
		C16.7081337,2.7550781,10.284236,3.1717379,6.6413279,7.2990723c-1.0119023,1.1463375-1.7626081,2.5754976-2.1629243,4.0512972
		l0.7942548-0.1119137l4.4351711-0.7313719l0.3424158-0.3501892c1.9728804-2.1667113,5.308651-2.4582038,7.5865784-0.6146755
		L18.3838406,9.5810843z"/>
	<path class="st1" d="M23.7605667,11.2851543c-0.5097389-1.8771114-1.556221-3.564579-3.0112934-4.8554173l-3.1124401,3.112442
		c1.3142567,1.0738878,2.0629692,2.6916962,2.03088,4.3885317v0.5524902c1.5298119,0,2.7701244,1.2402134,2.7701244,2.7700262
		c0,1.529911-1.2403126,2.7390327-2.7701244,2.7390327h-5.547924l-0.5447168,0.5913544v3.3225155l0.5447168,0.5212994h5.547924
		c3.9792461,0.0309925,7.2302094-3.1385517,7.2612019-7.1177979C26.947649,14.8976679,25.758461,12.6364841,23.7605667,11.2851543"
		/>
	<path class="st2" d="M8.5795984,24.4274788h5.5401506v-4.4352684H8.5795984
		c-0.3947353-0.0001011-0.7770143-0.0849075-1.1359735-0.2489395L6.6576414,19.984436l-2.2331815,2.2176361l-0.1945276,0.7547894
		C5.4823041,23.9024925,7.0103226,24.4342556,8.5795984,24.4274788"/>
	<path class="st3" d="M8.5795984,10.0401878c-3.9793458,0.0237179-7.185863,3.2689009-7.1621447,7.248148
		c0.0132543,2.2221203,1.0510671,4.3138885,2.8124788,5.6685066l3.2136927-3.2135925
		c-1.3942809-0.6299229-2.0138397-2.270752-1.3839169-3.6649323c0.6298232-1.3941813,2.2707515-2.0137396,3.6648326-1.3839169
		c0.6143761,0.2775402,1.1063766,0.76964,1.3839169,1.3839169l3.2136917-3.2135925
		C12.9547758,11.0772028,10.8301191,10.0321159,8.5795984,10.0401878"/>
</g>
</svg>
