<?xml version="1.0" encoding="utf-8"?>
<!-- Generator: Adobe Illustrator 25.4.1, SVG Export Plug-In . SVG Version: 6.00 Build 0)  -->
<svg version="1.1" id="图层_1" xmlns="http://www.w3.org/2000/svg" xmlns:xlink="http://www.w3.org/1999/xlink" x="0px" y="0px"
	 viewBox="0 0 41.2000008 31.2000008" style="enable-background:new 0 0 41.2000008 31.2000008;" xml:space="preserve">
<style type="text/css">
	.st0{fill:#D9F4F2;}
	.st1{fill:#2A8B92;}
	.st2{fill:#EBF7F6;}
	.st3{fill:none;}
	.st4{fill:#CCCC00;}
	.st5{fill:#FFFFCC;}
	.st6{fill:#FFFF00;}
</style>
<g>
	<path class="st0" d="M35.4000015,10.6000004V4c0-0.5999999-0.5-1.0999999-1.0999985-1.0999999H6.9000001
		C6.3000002,2.8,5.8000002,3.3,5.8000002,4v6.6999998"/>
	<path class="st1" d="M35.4000015,11.1999998c-0.2999992,0-0.5999985-0.3000002-0.5999985-0.6000004V4c0-0.3-0.2000008-0.5-0.5-0.5
		H6.9000001c-0.3000002-0.0999999-0.5,0.2-0.5,0.5v6.6999998c0,0.3000002-0.3000002,0.6000004-0.5999999,0.6000004
		S5.1999998,11,5.1999998,10.6000004V4c0-1,0.8000002-1.7,1.6999998-1.7h27.3999996C35.2000008,2.2,36,3,36,4v6.6999998
		C36,11,35.7000008,11.1999998,35.4000015,11.1999998z"/>
</g>
<g>
	<path class="st2" d="M34.5,28.2999992H6.6999998c-0.5,0-1-0.3999996-1.0999999-0.8999996L2.3,12.1999998
		C2.0999999,11.5,2.7,10.8000002,3.4000001,10.8000002h34.4000015c0.7000008,0,1.2999992,0.6999998,1.0999985,1.3999996
		l-3.2999992,15.1999998C35.5,28,35,28.2999992,34.5,28.2999992z"/>
	<path class="st1" d="M34.5,28.8999996H6.6999998c-0.8000002,0-1.5-0.6000004-1.6999998-1.3999996L1.7,12.3999996
		c-0.1-0.5,0-1,0.3-1.5s0.8-0.6999998,1.4000001-0.6999998h34.4000015c0.5,0,1,0.1999998,1.4000015,0.6000004
		c0.2999992,0.3999996,0.5,0.8999996,0.2999992,1.5L36.2000046,27.5C36,28.3999996,35.2999992,28.8999996,34.5,28.8999996z
		 M3.4000001,11.3999996c-0.2,0-0.3,0.1000004-0.4000001,0.1999998c-0.0999999,0.1000004-0.0999999,0.3000002-0.0999999,0.5
		l3.2999997,15.1999998C6.2999997,27.5,6.5,27.6999989,6.6999998,27.6999989H34.5c0.2999992,0,0.5-0.2000008,0.5-0.3999996
		l3.2999992-15.1999998c0-0.1999998,0-0.3000002-0.0999985-0.5C38.1000023,11.499999,38,11.3999996,37.7999992,11.3999996H3.4000001
		z"/>
</g>
<g>
	<g>
		<path class="st3" d="M23.5714512,19.8783512L23.5714512,19.8783512L23.5714512,19.8783512z"/>
	</g>
	<g>
		<path class="st3" d="M23.2910156,19.6913948L23.2910156,19.6913948L23.2910156,19.6913948z"/>
	</g>
	<g>
		<path class="st4" d="M24.5062389,19.3174801c0.1869583-0.1869583,0.2804356-0.3739147,0.1869583-0.6543522
			c0-0.0934792-0.0934792-0.1869583-0.0934792-0.2804356c-0.0934792,0-0.0934792,0-0.1869583,0.0934792
			c0,0.1869583,0.0934792,0.1869583,0.0934792,0.2804356c0,0.1869583-0.0934792,0.3739147-0.3739147,0.4673939
			c-0.0934792,0-0.1869583,0-0.1869583,0c0.0934792,0.0934792,0.0934792,0.0934792,0.1869583,0
			c0.0934792,0,0.1869583-0.0934792,0.2804356-0.1869583c-0.0934792,0.0934792-0.0934792,0.0934792-0.0934792,0.1869583
			C24.5062389,19.3174801,24.5062389,19.3174801,24.5062389,19.3174801z"/>
	</g>
	<g>
		<path class="st4" d="M23.5714512,18.0087757c0,0.0934792-0.0934792,0.1869583-0.1869583,0.2804356
			c-0.0934772,0.0934792-0.0934772,0.0934792-0.0934772,0.1869583s0,0.1869583,0.0934772,0.2804356
			C23.3844948,18.4761696,23.3844948,18.2892132,23.5714512,18.0087757L23.5714512,18.0087757L23.5714512,18.0087757z"/>
	</g>
	<g>
		<path class="st4" d="M23.3844948,18.8500862L23.3844948,18.8500862
			C23.3844948,18.7566071,23.3844948,18.7566071,23.3844948,18.8500862
			C23.3844948,18.7566071,23.3844948,18.7566071,23.3844948,18.8500862z"/>
	</g>
	<g>
		<path class="st4" d="M24.2258034,14.7370224c0.1869583-0.2804365,0.2804356-0.560873,0.1869583-0.8413086
			c0,0.0934792-0.0934792,0.0934792-0.0934792,0.1869574c0,0.1869574,0,0.3739147-0.0934792,0.4673939
			s-0.0934792,0.1869574-0.1869583,0.1869574c-0.0934792,0.0934792-0.0934792,0.0934792-0.0934792,0.0934792
			C24.0388451,14.8305006,24.1323242,14.8305006,24.2258034,14.7370224z"/>
	</g>
	<g>
		<path class="st4" d="M24.4127617,13.8022346L24.4127617,13.8022346L24.4127617,13.8022346L24.4127617,13.8022346z"/>
	</g>
	<g>
		<path class="st4" d="M24.6931973,13.8957129l-0.1869583-0.0934792c0.3739147,0.3739147,0.7478294,0.7478304,0.9347878,1.2152243
			c0.3739147,0.6543503,0.6543522,1.4956589,0.2804356,2.1500111c-0.3739147,0.7478275-1.1217461,0.9347858-1.9630547,1.2152214
			h0.0934792c0.7478294-0.1869583,1.5891399-0.3739147,1.9630547-1.028265c0.2804356-0.560873,0.2804356-1.3087025,0-1.8695755
			C25.627985,14.9239798,25.1605911,14.2696285,24.6931973,13.8957129z"/>
	</g>
	<g>
		<path class="st4" d="M23.1040592,15.2978935c0.0934772,0.0934792,0.0934772,0.1869574,0.1869564,0.1869574c0,0,0,0,0-0.0934792
			c0,0,0,0-0.0934792,0l0,0l0,0l0,0C23.2910156,15.3913727,23.1975365,15.2978935,23.1040592,15.2978935
			c0-0.0934792,0-0.0934792,0-0.1869574l0,0c0,0-0.0934792,0.0934792-0.1869583,0.0934792l0,0l0,0
			C23.0105801,15.2978935,23.0105801,15.2978935,23.1040592,15.2978935z"/>
	</g>
	<g>
		<path class="st4" d="M23.8518887,15.3913727L23.8518887,15.3913727L23.8518887,15.3913727L23.8518887,15.3913727
			c0-0.0934792,0-0.0934792,0-0.1869574c-0.1869583,0.0934792-0.2804356,0.0934792-0.3739147,0.1869574
			c0.0934792-0.0934792,0.1869583-0.0934792,0.2804356-0.1869574
			C23.7584095,15.2978935,23.7584095,15.3913727,23.8518887,15.3913727z"/>
	</g>
	<g>
		<path class="st4" d="M21.7953568,14.4565859c0.1869583,0.0934792,0.2804356,0.0934792,0.1869583,0.3739147
			c0.1869583-0.1869574,0.1869583-0.1869574,0.3739147-0.2804365c0.2804356-0.0934792,0.7478294,0.0934792,0.9347858,0.3739147l0,0
			h0.0934792h0.0934792c0,0,0.0934792,0,0.1869583,0c-0.1869583-0.0934792-0.2804356-0.1869574-0.4673939-0.2804365
			s-0.2804356-0.0934792-0.467392-0.0934792h-0.0934792c-0.0934792,0-0.2804356,0.0934792-0.2804356,0.1869574
			c0.0934792-0.0934792,0.0934792-0.0934792,0.1869583-0.1869574c-0.2804356,0-0.560873-0.0934792-0.8413086-0.0934792
			c-0.1869583,0-0.3739147-0.0934792-0.4673939-0.0934792C21.3279629,14.2696285,21.6084003,14.3631067,21.7953568,14.4565859z"/>
	</g>
	<g>
		<path class="st4" d="M23.6649303,14.9239798L23.6649303,14.9239798
			C23.6649303,14.8305006,23.5714512,14.8305006,23.6649303,14.9239798c-0.0934792-0.0934792-0.0934792-0.0934792-0.0934792,0
			C23.5714512,14.8305006,23.5714512,14.8305006,23.6649303,14.9239798z"/>
	</g>
	<g>
		<path class="st4" d="M22.0757942,16.8870335c-0.0934792,0-0.0934792,0-0.1869583-0.0934792l-0.0934792-0.0934792
			c0,0.0934792-0.0934792,0.1869583-0.1869583,0.2804356l0,0c0,0,0,0-0.0934792,0
			c0.0934792,0,0.1869583-0.0934792,0.1869583-0.0934792c0.0934792,0.0934792,0.1869583,0.0934792,0.3739147,0.0934792
			C22.1692715,16.9805126,22.1692715,16.8870335,22.0757942,16.8870335L22.0757942,16.8870335z"/>
	</g>
	<g>
		<path class="st4" d="M22.3562298,16.1392021l0.0934792,0.0934792l0.0934792-0.0934792
			c-0.0934792-0.0934792-0.1869583-0.1869583-0.3739147-0.1869583c0-0.0934792,0-0.0934792,0-0.0934792l0,0
			c0,0.0934792-0.0934792,0.1869583-0.0934792,0.1869583C22.1692715,16.1392021,22.2627506,16.1392021,22.3562298,16.1392021z"/>
	</g>
	<g>
		<path class="st4" d="M22.7301445,16.0457249L22.7301445,16.0457249L22.7301445,16.0457249L22.7301445,16.0457249z"/>
	</g>
	<g>
		<path class="st4" d="M22.1692715,17.167469c0,0.0934792,0.0934792,0.1869583,0.0934792,0.2804356
			c0-0.4673939,0.1869583-0.9347878,0.4673939-1.3087025C22.4497089,16.3261604,22.2627506,16.7000751,22.1692715,17.167469z"/>
	</g>
	<g>
		<path class="st4" d="M21.1410065,15.6718092c-0.1869583,0.3739157-0.1869583,0.6543512-0.0934792,0.9347868
			c0.0934792,0.0934792,0.0934792,0.1869583,0.1869583,0.2804356
			C21.0475273,16.5131187,20.9540482,16.0457249,21.1410065,15.6718092z"/>
	</g>
	<g>
		<path d="M24.2258034,14.7370224c0.1869583-0.2804365,0.2804356-0.560873,0.1869583-0.9347878l0,0l0,0l0,0
			C24.4127617,14.1761494,24.3192825,14.4565859,24.2258034,14.7370224
			c-0.1869583,0.0934792-0.2804356,0.0934792-0.3739147,0.1869574l0,0
			C24.0388451,14.9239798,24.1323242,14.9239798,24.2258034,14.7370224z"/>
	</g>
	<g>
		<path d="M22.7301445,16.0457249c-0.0934792,0-0.0934792,0.0934792-0.1869583,0.0934792l-0.0934792,0.0934792l-0.0934792-0.0934792
			c-0.0934792-0.0934792-0.1869583-0.0934792-0.2804356-0.0934792c0-0.0934792,0.0934792-0.1869583,0.0934792-0.1869583l0,0
			c-0.0934792,0.1869583-0.2804356,0.2804356-0.3739147,0.4673939s-0.0934792,0.560873-0.1869583,0.7478294l0,0
			c0.0934792-0.0934792,0.0934792-0.1869583,0.1869583-0.2804356c0.0934792,0,0.0934792,0,0.1869583,0
			c0,0,0.0934792,0.0934792,0.1869583,0.0934792c0,0,0,0-0.0934792,0c-0.0934792-0.0934792-0.0934792-0.1869583,0-0.1869583
			c0.0934792-0.0934792,0.1869583-0.0934792,0.1869583,0l0,0c0,0.0934792-0.0934792,0.1869583-0.0934792,0.2804356l0,0
			c0,0.0934792,0,0.0934792,0,0.1869583v0.0934792l0,0C22.2627506,16.7000751,22.4497089,16.3261604,22.7301445,16.0457249
			L22.7301445,16.0457249L22.7301445,16.0457249L22.7301445,16.0457249z"/>
	</g>
	<g>
		<path d="M23.3844948,18.2892132c0-0.0934792,0.0934792-0.1869583,0.1869583-0.2804356l0,0
			C23.4779739,18.1022549,23.3844948,18.1022549,23.3844948,18.2892132
			c-0.1869583,0.0934792-0.1869583,0.0934792-0.0934792,0.2804356c0,0.0934792,0.0934792,0.1869583,0.0934792,0.2804356l0,0l0,0l0,0
			c0-0.0934792,0-0.1869583-0.0934792-0.2804356C23.2910156,18.3826923,23.2910156,18.3826923,23.3844948,18.2892132z"/>
	</g>
	<g>
		<path d="M23.2910156,15.3913727L23.2910156,15.3913727L23.2910156,15.3913727L23.2910156,15.3913727L23.2910156,15.3913727z"/>
	</g>
	<g>
		<path d="M21.1410065,15.6718092L21.1410065,15.6718092c-0.3739147,0.3739157-0.3739147,0.6543512-0.0934792,0.9347868l0,0
			C20.9540482,16.3261604,20.9540482,16.0457249,21.1410065,15.6718092z"/>
	</g>
	<g>
		<path class="st5" d="M22.1692715,16.8870335c0-0.0934792,0-0.1869583,0.0934792-0.2804356l0,0
			c-0.0934792-0.0934792-0.1869583,0-0.1869583,0c-0.0934792,0.0934792,0,0.1869583,0,0.1869583
			C22.0757942,16.8870335,22.0757942,16.8870335,22.1692715,16.8870335
			C22.0757942,16.8870335,22.0757942,16.8870335,22.1692715,16.8870335L22.1692715,16.8870335z"/>
	</g>
	<g>
		<path class="st5" d="M23.3844948,15.3913727c0.0934792-0.0934792,0.0934792-0.0934792,0.0934792-0.0934792l0,0
			c0-0.0934792-0.0934792-0.0934792-0.1869583-0.0934792C23.2910156,15.2044153,23.1975365,15.2978935,23.3844948,15.3913727
			C23.2910156,15.3913727,23.2910156,15.3913727,23.3844948,15.3913727L23.3844948,15.3913727
			C23.2910156,15.3913727,23.2910156,15.3913727,23.3844948,15.3913727z"/>
	</g>
	<g>
		<path class="st3" d="M23.1040592,15.2978935c0.0934772,0.0934792,0.0934772,0.1869574,0.1869564,0.1869574c0,0,0,0,0-0.0934792
			c0.0934792-0.0934792,0.0934792-0.0934792,0.0934792-0.0934792l0,0c0-0.0934792-0.0934792-0.0934792-0.1869583-0.0934792
			c-0.0934772,0-0.0934772,0.0934792-0.0934772,0.1869574l0,0C23.2910156,15.3913727,23.1975365,15.2978935,23.1040592,15.2978935
			c0-0.0934792,0-0.0934792,0-0.1869574l0,0c0,0-0.0934792,0.0934792-0.1869583,0.0934792l0,0l0,0
			C23.0105801,15.2978935,23.0105801,15.2978935,23.1040592,15.2978935z"/>
	</g>
	<g>
		<path class="st3" d="M21.7953568,14.4565859c0.1869583,0.0934792,0.2804356,0.0934792,0.1869583,0.3739147
			c0.1869583-0.1869574,0.1869583-0.1869574,0.3739147-0.2804365c0.2804356-0.0934792,0.7478294,0.0934792,0.9347858,0.3739147l0,0
			h0.0934792h0.0934792c0,0,0.0934792,0,0.1869583,0c-0.1869583-0.0934792-0.2804356-0.1869574-0.4673939-0.2804365
			s-0.2804356-0.0934792-0.467392-0.0934792h-0.0934792c-0.0934792,0-0.2804356,0.0934792-0.2804356,0.1869574
			c0.0934792-0.0934792,0.0934792-0.0934792,0.1869583-0.1869574c-0.2804356,0-0.560873-0.0934792-0.8413086-0.0934792
			c-0.1869583,0-0.3739147-0.0934792-0.4673939-0.0934792C21.3279629,14.2696285,21.6084003,14.3631067,21.7953568,14.4565859z"/>
	</g>
	<g>
		<path class="st3" d="M24.5062389,19.3174801c0.1869583-0.1869583,0.2804356-0.3739147,0.1869583-0.6543522
			c0-0.0934792-0.0934792-0.1869583-0.0934792-0.2804356c-0.0934792,0-0.0934792,0-0.1869583,0.0934792
			c0,0.1869583,0.0934792,0.1869583,0.0934792,0.2804356c0,0.1869583-0.0934792,0.3739147-0.3739147,0.4673939
			c-0.0934792,0-0.1869583,0-0.1869583,0c0.0934792,0.0934792,0.0934792,0.0934792,0.1869583,0
			c0.0934792,0,0.1869583-0.0934792,0.2804356-0.1869583c-0.0934792,0.0934792-0.0934792,0.0934792-0.0934792,0.1869583
			C24.5062389,19.3174801,24.5062389,19.3174801,24.5062389,19.3174801z"/>
	</g>
	<g>
		<path class="st3" d="M23.8518887,15.3913727L23.8518887,15.3913727L23.8518887,15.3913727L23.8518887,15.3913727
			c0-0.0934792,0-0.0934792,0-0.1869574c-0.1869583,0.0934792-0.2804356,0.0934792-0.3739147,0.1869574
			c0.0934792-0.0934792,0.1869583-0.0934792,0.2804356-0.1869574
			C23.7584095,15.2978935,23.7584095,15.3913727,23.8518887,15.3913727z"/>
	</g>
	<g>
		<path class="st3" d="M21.1410065,15.6718092L21.1410065,15.6718092c-0.3739147,0.3739157-0.3739147,0.6543512-0.0934792,0.9347868
			l0,0c0.0934792,0.0934792,0.0934792,0.1869583,0.1869583,0.2804356
			C21.0475273,16.5131187,20.9540482,16.0457249,21.1410065,15.6718092z"/>
	</g>
	<g>
		<path class="st3" d="M24.2258034,14.7370224c0.1869583-0.2804365,0.2804356-0.560873,0.1869583-0.9347878l0,0l0,0l0,0l0,0
			c0,0.0934792-0.0934792,0.0934792-0.0934792,0.1869574c0,0.1869574,0,0.3739147-0.0934792,0.4673939
			s-0.0934792,0.1869574-0.1869583,0.1869574c-0.0934792,0.0934792-0.0934792,0.0934792-0.0934792,0.0934792l0,0
			C24.0388451,14.9239798,24.1323242,14.9239798,24.2258034,14.7370224z"/>
	</g>
	<g>
		<path class="st3" d="M23.2910156,19.6913948L23.2910156,19.6913948L23.2910156,19.6913948z"/>
	</g>
	<g>
		<path class="st3" d="M23.6649303,14.9239798L23.6649303,14.9239798
			C23.6649303,14.8305006,23.5714512,14.8305006,23.6649303,14.9239798c-0.0934792-0.0934792-0.0934792-0.0934792-0.0934792,0
			C23.5714512,14.8305006,23.5714512,14.8305006,23.6649303,14.9239798z"/>
	</g>
	<g>
		<path class="st3" d="M23.3844948,22.2153187L23.3844948,22.2153187L23.3844948,22.2153187z"/>
	</g>
	<g>
		<path class="st3" d="M16.1866341,21.2805309L16.1866341,21.2805309L16.1866341,21.2805309z"/>
	</g>
	<g>
		<path class="st3" d="M23.5714512,19.8783512L23.5714512,19.8783512L23.5714512,19.8783512z"/>
	</g>
	<g>
		<path class="st3" d="M23.3844948,18.195734c-0.0934792,0.0934792-0.0934792,0.1869583-0.0934792,0.3739147
			c0,0.0934792,0.0934792,0.1869583,0.0934792,0.2804356l0,0l0,0l0,0l0,0c0-0.2804356,0.0934792-0.4673939,0.1869583-0.7478294l0,0
			C23.4779739,18.1022549,23.3844948,18.195734,23.3844948,18.195734z"/>
	</g>
	<g>
		<path class="st3" d="M24.6931973,13.8957129l-0.1869583-0.0934792c0.3739147,0.3739147,0.7478294,0.7478304,0.9347878,1.2152243
			c0.3739147,0.6543503,0.6543522,1.4956589,0.2804356,2.1500111c-0.3739147,0.7478275-1.1217461,0.9347858-1.9630547,1.2152214
			h0.0934792c0.7478294-0.1869583,1.5891399-0.3739147,1.9630547-1.028265c0.2804356-0.560873,0.2804356-1.3087025,0-1.8695755
			C25.627985,14.9239798,25.1605911,14.2696285,24.6931973,13.8957129z"/>
	</g>
	<g>
		<path class="st3" d="M22.7301445,16.0457249L22.7301445,16.0457249c-0.0934792,0-0.0934792,0.0934792-0.1869583,0.1869583
			c-0.0934792-0.0934792-0.1869583-0.1869583-0.3739147-0.1869583c0-0.0934792,0-0.0934792,0-0.0934792l0,0l0,0
			c-0.0934792,0.1869583-0.2804356,0.2804356-0.3739147,0.4673939s-0.0934792,0.560873-0.1869583,0.7478294c0,0,0,0-0.0934792,0
			c0.0934792,0,0.1869583-0.0934792,0.1869583-0.0934792c0.0934792,0.0934792,0.1869583,0.0934792,0.3739147,0.0934792v0.0934792
			l0,0c0,0.0934792,0.0934792,0.1869564,0.0934792,0.2804356C22.1692715,16.8870335,22.4497089,16.5131187,22.7301445,16.0457249
			L22.7301445,16.0457249L22.7301445,16.0457249L22.7301445,16.0457249z"/>
	</g>
	<g>
		<path class="st6" d="M15.7192392,20.7196617C15.7192392,20.6261826,15.7192392,20.6261826,15.7192392,20.7196617
			c0-0.1869583-0.0934792-0.1869583-0.0934792-0.2804356c-0.1869564,0.2804356-0.3739138,0.8413067,0.0934792,1.028265
			C15.5322819,21.0935745,15.625761,21.0000954,15.7192392,20.7196617z"/>
	</g>
	<g>
		<g>
			<path class="st6" d="M20.1127396,17.3544273L20.1127396,17.3544273L20.1127396,17.3544273L20.1127396,17.3544273z"/>
		</g>
		<g>
			<path class="st6" d="M23.8518887,14.9239798L23.8518887,14.9239798L23.8518887,14.9239798z"/>
		</g>
		<g>
			<path class="st6" d="M24.0388451,14.7370224c0.0934792-0.0934792,0.0934792-0.0934792,0.1869583-0.1869574
				c0.0934792-0.1869574,0.0934792-0.3739147,0.0934792-0.4673939s0.0934792-0.1869574,0.0934792-0.1869574l0,0
				c-0.0934792,0-0.1869583,0-0.1869583,0.0934792c0,0.1869574-0.0934792,0.3739147-0.0934792,0.560873
				c-0.0934792,0.1869574-0.2804356,0.2804356-0.2804356,0.4673929l0,0
				C23.9453678,14.8305006,23.9453678,14.8305006,24.0388451,14.7370224z"/>
		</g>
		<g>
			<path class="st6" d="M24.4127617,13.8022346L24.4127617,13.8022346L24.4127617,13.8022346L24.4127617,13.8022346
				L24.4127617,13.8022346z"/>
		</g>
		<g>
			<path class="st6" d="M25.4410267,15.017458c-0.2804356-0.4673929-0.6543522-0.8413076-0.9347878-1.2152233l0,0
				c0.0934792,0.2804365,0.0934792,0.6543512-0.1869583,0.9347878c-0.1869564,0.1869574-0.2804356,0.1869574-0.467392,0.1869574
				c0,0.0934782,0,0.0934782,0.0934792,0.1869564c0.1869583,0.1869574,0.2804356,0.3739147,0.3739147,0.6543512
				c0.0934792,0.1869583,0.1869583,0.4673939,0.1869583,0.6543522c0-0.0934792-0.1869583-0.4673939-0.2804356-0.6543512
				c-0.0934792-0.0934792-0.0934792-0.1869574-0.1869583-0.3739147h-0.0934792
				c-0.0934792,0-0.0934792,0.1869574-0.1869583,0.3739147c0,0.2804365,0.0934792,0.4673948,0.0934792,0.6543512
				c0-0.2804356-0.1869583-0.4673939-0.2804356-0.6543512c0-0.0934792,0-0.1869574,0.0934792-0.2804365
				c-0.0934792,0-0.0934792,0.0934792-0.0934792,0.0934792c-0.2804356,0.2804356-0.0934792,0.4673939-0.1869583,0.7478294
				c0-0.3739147-0.1869583-0.560873,0.0934792-0.8413086c0.0934792-0.0934792,0.1869583-0.1869574,0.2804356-0.1869574
				c0-0.0934792-0.0934792-0.0934792-0.0934792-0.0934792c-0.0934792,0-0.1869583,0.0934792-0.2804356,0.1869574
				l-0.0934792,0.0934792l0,0c-0.0934792,0-0.1869564-0.1869574-0.1869564-0.1869574c-0.0934792,0-0.0934792,0-0.1869583,0l0,0
				c0.0934792-0.0934792,0.1869583-0.1869574,0.1869583-0.2804365c0,0,0-0.0934782,0.0934772-0.0934782
				c-0.1869564-0.2804365-0.6543503-0.4673939-0.9347858-0.3739147c-0.1869583,0.0934792-0.1869583,0.0934792-0.3739147,0.2804365
				c0.0934792-0.2804365-0.0934792-0.2804365-0.1869583-0.3739147c-0.1869583-0.0934792-0.4673939-0.1869574-0.7478294-0.1869574
				c-0.3739147,0-0.7478294,0.0934792-1.0282669,0.2804365c-0.2804337,0.2804356-0.6543503,0.5608721-0.467392,0.9347868
				c0.0934792,0.2804365,0.2804356,0.4673948,0.6543503,0.6543512c-0.3739147-0.0934792-0.5608711-0.0934792-0.7478275,0
				c-0.1869583,0.1869583-0.3739147,0.3739147-0.560873,0.4673939c-0.0934792,0.0934792-0.1869583,0.0934792-0.1869583,0.1869583
				c-0.0934792,0.6543503-0.1869583,1.028265-0.1869583,1.6826153c0,0.4673939,0,0.9347878,0,1.4021816
				c0,0.1869583,0.0934792,0.3739147,0.0934792,0.560873c0.1869583,0.0934792,0.3739147,0.0934792,0.4673939,0.2804356
				c0-0.3739147,0.0934792-0.7478294,0.1869583-1.1217461c0,0.3739147,0,0.7478294,0,1.1217461
				c0,0.2804337,0,0.3739128,0.0934792,0.5608711c0.2804356,0.0934792,0.467392,0.1869583,0.6543503,0.0934792
				s0.3739147-0.1869583,0.4673939-0.3739147c0.2804356-0.467392,0.4673939-0.9347858,0.9347878-1.2152214
				c0-0.560873-0.3739147-1.0282669-0.7478294-1.4021816c-0.2804356-0.3739147-0.4673939-0.6543522-0.560873-1.1217442
				c0,0,0,0.0934772,0.0934792,0.0934772c0.4673939,0.560873,1.0282669,1.0282669,1.4956608,1.6826172
				c0.2804356,0.3739147,0.4673939,0.560873,0.3739147,1.0282669c-0.2804356,0.0934792-0.3739147,0.1869583-0.560873,0.4673939
				c-0.6543522,0.7478275-0.9347878,1.4021797-1.7760963,1.1217442c-0.1869564,0-0.3739128-0.0934792-0.6543503-0.0934792
				c0-0.0934792-0.0934792-0.1869583-0.0934792-0.2804356c-0.1869583-0.0934792-0.3739147-0.1869583-0.560873-0.3739147
				c-0.1869583-0.0934792-0.1869583-0.1869583-0.2804356-0.3739147c-0.2804356-0.1869564-0.3739147-0.2804337-0.3739147-0.6543503
				c0-0.2804356,0-0.4673939,0-0.7478294c-0.4673939,0.4673939-0.6543522,0.8413086-0.8413086,1.4956589
				c-0.1869583,1.0282669,0.3739147,1.7760963,0.9347878,2.5239277c0.3739147,0.2804356,0.6543522,0.4673939,1.0282669,0.6543503
				c0.0934792,0.3739147,0.1869583,0.560873,0.2804356,0.8413086c0,0.1869583,0.2804356,0.1869583,0.467392,0.1869583
				c0.2804356-0.0934792,0.560873-0.2804356,0.4673939-0.4673939c0-0.0934792-0.0934792-0.1869583-0.1869583-0.1869583
				c0.1869583-0.1869583,0.2804356-0.4673939,0.2804356-0.6543503c0-0.4673939-0.1869583-0.7478294-0.3739147-1.2152233
				c0,0.0934792,0.0934792,0.0934792,0.0934792,0.1869583c0.0934792,0.0934792,0.1869583,0.1869583,0.2804356,0.3739147
				c0.3739147-0.1869583,0.8413086-0.4673939,1.0282669-0.8413086c0-0.1869583,0-0.3739147,0.0934792-0.6543522
				c0,0.1869583,0,0.2804356,0.0934792,0.3739147c0,0.0934792,0.0934792,0.1869583,0.0934792,0.2804356
				c0.0934792,0.0934792,0.0934792,0.1869583,0.1869583,0.2804356c0,0.0934792,0.0934792,0.0934792,0.0934792,0.1869583
				c-0.0934792,0-0.0934792-0.0934792-0.1869583-0.0934792c-0.0934792,0.1869583-0.1869583,0.3739147-0.2804356,0.560873
				c-0.0934792,0.1869583,0.1869583,0.3739147,0.3739147,0.4673939c0.1869583,0,0.3739147,0.0934792,0.4673939-0.0934792
				s0.0934792-0.1869583,0.0934792-0.3739147c0.1869583-0.0934792,0.2804356-0.0934792,0.3739147-0.2804356
				c0.0934792-0.2804356,0.1869564-0.560873,0.2804356-0.8413086c0-0.1869583,0.0934772-0.2804356,0-0.4673939
				c-0.0934792-0.3739147-0.1869583-0.9347878-0.3739147-1.3087006c-0.2804356-0.1869583-0.3739147-0.1869583-0.560873-0.3739147
				l0,0c0.3739147,0,0.6543522,0,0.9347878-0.0934792c0.1869564,0,0.2804337,0.0934792,0.467392,0.0934792
				c0.2804356,0.0934792,0.4673939,0.0934792,0.6543522,0c0.0934792,0,0.0934792-0.0934792,0.0934792-0.0934792
				l-0.0934792-0.0934792c0,0-0.0934792,0.0934792-0.1869583,0.0934792
				c-0.3739147,0.0934792-0.4673939-0.2804356-0.4673939-0.560873c0-0.1869583-0.0934792-0.2804356-0.2804356-0.4673939
				c0.0934792,0,0.1869583,0,0.3739147,0c0.8413086-0.2804356,1.5891399-0.560873,1.9630547-1.3087025
				C26.0953789,16.5131187,25.7214642,15.6718092,25.4410267,15.017458z M19.6453476,18.195734
				c-0.0934792-0.0934792-0.1869583-0.2804356-0.2804356-0.3739147c-0.1869583,0-0.0934792,0.1869583-0.0934792,0.3739147
				c0,0.4673939,0,0.8413086-0.0934792,1.3087025c0-0.3739147,0-0.6543522-0.0934792-0.9347878
				s-0.2804356-1.028265-0.1869583-1.3087006c0.0934792-0.1869583,0.0934792-0.1869583,0.2804356-0.3739147
				c0.1869583-0.0934792,0.3739147-0.2804356,0.560873-0.3739147c0,0,0,0,0,0.0934792
				c0.0934772-0.0934792,0.1869564-0.0934792,0.2804337-0.1869583
				C19.3649101,17.0739899,19.2714329,17.4479046,19.6453476,18.195734z M21.0475273,16.606596
				c-0.2804356-0.2804356-0.2804356-0.560873,0.1869583-0.9347878c0,0,0,0,0,0.0934792
				c-0.1869583,0.3739147-0.0934792,0.8413086,0.0934792,1.2152233
				C21.1410065,16.7935543,21.0475273,16.7000751,21.0475273,16.606596z M22.2627506,17.3544273
				c0-0.0934792-0.0934792-0.1869583-0.0934792-0.2804356l0,0v-0.0934792c-0.1869583,0-0.1869583,0-0.3739147-0.0934792
				c-0.0934792,0.0934792-0.0934792,0.0934792-0.1869583,0.0934792c0,0,0,0,0.0934792,0
				c0.0934792-0.1869583,0.0934792-0.560873,0.1869583-0.7478294c0.0934792-0.1869583,0.2804356-0.2804356,0.3739147-0.4673939l0,0
				l0,0v0.0934792c0.1869583,0,0.2804356,0.0934792,0.3739147,0.1869583
				c0.0934792-0.0934792,0.0934792-0.0934792,0.1869583-0.1869583
				C22.4497089,16.5131187,22.1692715,16.8870335,22.2627506,17.3544273z M23.3844948,18.7566071
				c0-0.0934792-0.0934792-0.1869583-0.0934792-0.2804356c-0.0934792-0.1869583-0.0934792-0.1869583,0.0934792-0.3739147
				c0.0934792-0.0934792,0.1869583-0.0934792,0.1869583-0.1869583
				C23.3844948,18.2892132,23.3844948,18.4761696,23.3844948,18.7566071z"/>
		</g>
	</g>
	<g>
		<path class="st6" d="M18.3366451,23.8044586c-0.2804356-0.1869583-0.4673939-0.2804356-0.7478294-0.560873
			c0,0.1869583-0.0934792,0.2804356-0.0934792,0.4673939c0,0.0934792-0.0934792,0.0934792,0,0.2804356
			c0.0934792,0.1869583,0.2804356,0.2804356,0.4673939,0.2804356c0.0934792-0.0934792,0.1869583-0.0934792,0.3739147-0.1869583
			C18.3366451,23.9914169,18.3366451,23.8979378,18.3366451,23.8044586z"/>
	</g>
	<g>
		<path class="st5" d="M17.0279408,20.6261826c0.0934792-0.6543522,0.3739147-1.0282669,0.8413086-1.4956608
			c0-0.0934792,0-0.0934792,0-0.1869583c0.0934792-0.3739147,0.0934792-0.6543522,0.1869583-0.9347878
			c-0.6543522,0.560873-1.0282669,0.9347878-1.2152233,1.6826172c-0.1869583,0.560873-0.1869583,1.0282669-0.0934792,1.589138
			c0.0934792,0.3739147,0.1869583,0.6543522,0.560873,1.1217461c0.1869583,0.2804356,0.4673939,0.560873,0.7478294,0.7478294
			C17.4018574,22.402277,16.8409843,21.6544476,17.0279408,20.6261826z"/>
	</g>
	<g>
		<path class="st5" d="M18.4301224,18.4761696c0-0.6543522,0-1.028265,0.1869583-1.6826153
			c-0.0934792,0.0934792-0.1869583,0.1869583-0.1869583,0.3739147c-0.1869583,0.5608711-0.2804356,1.2152214-0.3739147,1.7760944
			c-0.0934792,0.3739147,0,0.6543522,0,0.9347878s0.0934792,0.3739147,0.3739147,0.4673939
			c0.0934792,0,0.0934792,0,0.0934792,0.0934792c-0.0934792-0.1869583-0.0934792-0.2804356-0.0934792-0.560873
			C18.4301224,19.4109573,18.4301224,18.9435635,18.4301224,18.4761696z"/>
	</g>
	<g>
		<path class="st5" d="M20.2062187,16.1392021c-0.3739147-0.1869583-0.4673939-0.2804365-0.6543503-0.6543512
			c-0.1869583-0.3739147,0.1869564-0.6543503,0.467392-0.9347868c-0.2804356,0.1869574-0.5608711,0.4673939-0.8413067,0.8413076
			c-0.2804356,0.3739147-0.2804356,0.6543512-0.3739147,1.028266l0,0c0.2804356-0.0934792,0.4673939-0.2804356,0.6543522-0.4673939
			L19.364912,16.045723C19.6453476,16.0457249,19.8323021,16.0457249,20.2062187,16.1392021z"/>
	</g>
	<g>
		<path class="st4" d="M19.2714329,16.9805126c0,0.2804356-0.0934792,0.467392,0.0934792,0.7478275
			c-0.2804375-0.1869564-0.2804375-0.2804356-0.2804375-0.5608711c0,0,0,0.0934792-0.0934792,0.1869583
			c-0.0934792,0.2804337,0,0.9347858,0.0934792,1.2152214l0,0c0.0934792,0.2804356,0.0934792,0.6543522,0.0934792,0.9347878
			c0.0934792-0.4673939,0.0934792-0.8413086,0.0934792-1.3087025c0-0.1869583-0.0934792-0.3739147,0.0934792-0.3739147
			c0.0934792,0.0934792,0.1869564,0.2804356,0.2804356,0.3739147c-0.2804356-0.7478294-0.1869583-1.2152214,0.2804337-1.7760944
			c-0.0934792,0.0934792-0.1869564,0.0934792-0.2804337,0.1869583
			C19.5518684,16.7000751,19.3649101,16.8870335,19.2714329,16.9805126z"/>
	</g>
	<g>
		<path class="st4" d="M21.5149212,20.5327034c0.1869583-0.1869583,0.2804356-0.2804356,0.560873-0.4673939
			c0-0.4673939-0.0934792-0.6543522-0.3739147-1.0282669c-0.4673939-0.560873-1.0282669-1.1217461-1.4956608-1.6826153l0,0
			c0.1869583,0.3739128,0.4673939,0.6543503,0.6543522,0.9347858c0.4673939,0.4673939,0.7478294,0.9347878,0.8413086,1.5891399
			c-0.4673939,0.2804356-0.7478294,0.8413086-1.0282669,1.3087006c-0.1869583,0.1869583-0.2804356,0.2804356-0.560873,0.3739147
			c-0.0934792,0-0.1869583,0-0.2804356,0C20.6736126,21.841404,20.9540482,21.1870537,21.5149212,20.5327034z"/>
	</g>
	<g>
		<path class="st4" d="M23.3844948,19.9718304c0.0934792,0.2804356,0.0934792,0.4673939,0.1869583,0.7478294
			s0.0934792,1.028265,0,1.3087006c0.0934792,0,0.0934792,0,0.2804356-0.0934792
			c0.0934792-0.0934792,0.4673939-0.2804356,0.560873-0.2804356c0.1869583-0.0934792,0.2804356-0.1869583,0.1869583-0.3739147
			c-0.0934792-0.0934792-0.0934792-0.0934792-0.1869583-0.1869583c-0.0934792-0.1869564-0.1869583-0.3739128-0.2804356-0.467392
			c-0.0934792-0.1869583-0.1869583-0.1869583-0.3739147-0.3739147
			C23.5714512,20.0653095,23.4779739,20.0653095,23.3844948,19.9718304z"/>
	</g>
	<g>
		<path class="st4" d="M23.1040592,21.0935745c0,0.1869583,0,0.2804356,0,0.4673939
			c-0.0934792,0.2804356-0.1869583,0.560873-0.2804356,0.8413086c-0.0934792,0.1869583-0.1869583,0.1869583-0.3739147,0.2804356
			c0,0.1869583,0,0.2804356-0.0934792,0.3739147c-0.0934792,0.1869583-0.2804356,0.1869583-0.4673939,0.0934792
			c0,0,0.0934792,0,0.0934792,0.0934792c0.3739147,0.1869583,0.7478294,0.3739147,0.9347878,0
			c0.0934772-0.0934792,0.0934772-0.2804356,0.0934772-0.3739147c0.0934792-0.0934792,0.2804356-0.8413086,0.3739147-0.9347878
			s0.0934792-1.028265,0.0934792-1.2152214c-0.0934792-0.4673939-0.0934792-0.7478294-0.2804356-1.2152233
			c-0.2804356,0-0.467392,0-0.8413067-0.0934792c0.1869583,0.1869583,0.2804356,0.1869583,0.5608711,0.3739147
			C22.9171028,20.1587887,23.0105801,20.7196617,23.1040592,21.0935745z"/>
	</g>
	<g>
		<path class="st4" d="M22.2627506,19.4109573L22.2627506,19.4109573L22.2627506,19.4109573L22.2627506,19.4109573z"/>
	</g>
	<g>
		<path class="st4" d="M21.421442,21.841404c-0.2804356,0.3739147-0.6543522,0.6543522-1.0282669,0.8413086l0,0
			c0.4673939-0.1869583,0.8413086-0.3739147,1.2152233-0.7478294V21.841404c0-0.0934792,0-0.1869583-0.0934792-0.3739147
			c0,0,0,0,0,0.0934792c0-0.0934792,0-0.1869583-0.0934792-0.3739147
			C21.5149212,21.3740101,21.421442,21.5609684,21.421442,21.841404z"/>
	</g>
	<g>
		<path class="st4" d="M20.299696,23.3370647c-0.0934792,0.2804356-0.0934792,0.4673939-0.2804356,0.6543522
			c0.0934792,0.0934792,0.0934792,0.1869564,0.1869583,0.1869564c0.0934792,0.1869583-0.1869583,0.3739147-0.4673939,0.4673939
			c0.0934792,0,0.1869583,0,0.2804356-0.0934792c0.1869583,0,0.8413086-0.1869583,0.8413086-0.467392
			c0-0.1869583-0.0934792-0.1869583-0.1869583-0.3739147c0-0.2804356,0-0.2804356,0-0.4673939s0-0.1869583-0.0934792-0.3739147
			c-0.0934792-0.1869583-0.2804356-0.560873-0.3739147-0.6543522l0,0c0-0.0934792-0.0934792-0.0934792-0.0934792-0.1869583
			C20.1127396,22.5892353,20.299696,22.8696709,20.299696,23.3370647z"/>
	</g>
	<g>
		<path class="st4" d="M18.5236015,20.9066181c0.1869583,0.0934772,0.3739147,0.1869564,0.560873,0.3739128
			c0-0.0934792,0-0.1869583,0-0.2804356c-0.1869583-0.1869564-0.3739147-0.2804337-0.7478294-0.3739128H18.243166
			C18.3366451,20.7196617,18.3366451,20.813139,18.5236015,20.9066181z"/>
	</g>
	<g>
		<path class="st4" d="M17.5888138,23.2435856L17.5888138,23.2435856c0.2804356,0.2804356,0.4673939,0.3739147,0.7478294,0.560873
			c0,0.0934792,0,0.1869583,0,0.2804356c-0.0934792,0.0934792-0.2804356,0.0934792-0.3739147,0.1869583l0,0
			c0.1869583,0.0934772,0.8413086,0.1869564,0.8413086-0.1869583c0-0.0934792,0-0.0934792,0-0.1869583l0,0
			c-0.4673939-0.1869583-0.9347878-0.560873-1.3087025-0.8413086
			C17.4953346,23.0566292,17.4953346,23.1501064,17.5888138,23.2435856z"/>
	</g>
	<g>
		<path class="st4" d="M15.8127184,20.4392242C15.8127184,20.5327034,15.8127184,20.5327034,15.8127184,20.4392242
			c0,0.0934792,0,0.0934792,0.0934792,0.0934792s0.0934792,0,0.0934792,0
			C15.9061975,20.5327034,15.9061975,20.4392242,15.8127184,20.4392242z"/>
	</g>
	<g>
		<path class="st4" d="M16.5605469,21.3740101c0-0.0934792,0-0.1869583-0.0934792-0.2804356
			c0,0.0934792-0.0934772,0.1869583-0.1869564,0.2804356c-0.1869564,0.1869583-0.1869564,0.1869583-0.4673939,0
			c0.0934792-0.2804356-0.0934792-0.3739147-0.0934792-0.6543503c-0.0934782,0.2804356-0.1869564,0.3739128,0,0.6543503l0,0
			c0.0934792,0.0934792,0.1869574,0.1869583,0.2804365,0.1869583
			C16.1866341,21.7479248,16.3735905,21.5609684,16.5605469,21.3740101L16.5605469,21.3740101z"/>
	</g>
	<g>
		<path d="M18.243166,15.2978935c-0.1869583,0.1869574-0.2804356,0.2804365-0.1869583,0.560873
			C18.0562077,15.6718092,18.1496868,15.57833,18.243166,15.2978935z"/>
	</g>
	<g>
		<path d="M14.8779316,21.3740101c-0.0934792-0.2804356-0.0934792-0.3739147,0-0.6543503
			C14.6909742,21.0935745,14.6909742,21.0935745,14.8779316,21.3740101z"/>
	</g>
	<g>
		<path d="M15.2518463,21.7479248c-0.2804365-0.560873-0.2804365-0.7478294-0.0934792-1.4021797
			C14.7844524,20.9066181,14.7844524,21.0935745,15.2518463,21.7479248z"/>
	</g>
	<g>
		<path d="M18.6170807,15.017458c-0.4673939,0.4673939-0.560873,0.560873-0.3739147,1.3087025
			C18.243166,15.7652874,18.3366451,15.4848518,18.6170807,15.017458z"/>
	</g>
	<g>
		<path d="M18.9909954,17.3544273c0-0.0934792,0-0.0934792,0.0934792-0.1869583c0,0.2804356,0,0.3739147,0.2804356,0.5608711
			c-0.0934792-0.2804356-0.0934792-0.467392-0.0934792-0.7478275c0.0934792-0.0934792,0.2804356-0.2804356,0.3739147-0.3739147
			c0,0,0,0,0-0.0934792c-0.1869583,0.0934792-0.3739147,0.2804356-0.560873,0.3739147s-0.1869583,0.0934792-0.2804356,0.3739147
			c-0.0934792,0.2804356,0.0934792,0.9347858,0.1869583,1.3087006l0,0
			C18.9909954,18.2892132,18.8975163,17.5413837,18.9909954,17.3544273z"/>
	</g>
	<g>
		<g>
			<path class="st3" d="M17.5888138,23.2435856L17.5888138,23.2435856c0,0.1869583-0.0934792,0.3739147-0.0934792,0.4673939
				s0,0.1869583,0,0.2804356c0.0934792,0.0934792,0.2804356,0.2804356,0.4673939,0.2804356
				c0.1869583,0.0934792,0.8413086,0.1869564,0.8413086-0.1869583c0-0.0934792,0-0.0934792,0-0.1869583
				c-0.4673939-0.1869583-0.9347878-0.560873-1.3087025-0.9347878
				C17.4953346,23.0566292,17.4953346,23.1501064,17.5888138,23.2435856z"/>
		</g>
		<g>
			<path class="st3" d="M23.6649303,14.9239798C23.6649303,14.9239798,23.6649303,14.8305006,23.6649303,14.9239798
				C23.6649303,14.8305006,23.5714512,14.8305006,23.6649303,14.9239798c-0.0934792-0.0934792-0.0934792-0.0934792-0.0934792,0
				C23.5714512,14.8305006,23.6649303,14.8305006,23.6649303,14.9239798z"/>
		</g>
		<g>
			<path class="st3" d="M25.9084206,15.3913727c-0.1869583-0.4673929-0.7478294-1.2152233-1.2152233-1.589138
				c0,0-0.0934792-0.0934792-0.1869583-0.0934792s-0.1869583,0-0.1869583,0.0934792c0,0.1869574,0,0.3739147-0.0934792,0.560873
				c-0.0934792,0.2804365-0.3739147,0.3739147-0.1869583,0.6543503c0.1869583,0.1869574,0.2804356,0.3739147,0.3739147,0.6543512
				c0.0934792,0.1869574,0.1869583,0.4673929,0.1869583,0.6543512c0-0.0934792-0.1869583-0.4673939-0.2804356-0.6543512
				c0-0.0934792-0.0934792-0.1869574-0.1869583-0.3739147h-0.0934792c-0.0934792,0.0934792-0.1869583,0.2804365-0.1869583,0.3739147
				c0,0.2804365,0.0934792,0.4673929,0.0934792,0.6543512c0-0.2804356-0.1869583-0.4673939-0.2804356-0.6543512
				c0-0.0934792,0-0.1869574,0.0934792-0.2804365c-0.0934792,0-0.0934792,0.0934792-0.0934792,0.0934792
				c-0.2804356,0.2804365-0.0934792,0.4673939-0.1869583,0.7478294c0-0.3739147-0.1869564-0.560873,0.0934792-0.8413086
				c0.0934792-0.0934792,0.1869583-0.1869574,0.2804356-0.1869574l0,0h0.0934792
				c-0.0934792-0.0934792-0.0934792-0.0934792-0.0934792-0.1869574c-0.1869583,0.0934792-0.2804356,0.0934792-0.3739147,0.1869574
				l-0.0934772,0.0934792l0,0v-0.0934792l0.0934772-0.0934792l0,0c0-0.0934782-0.0934772-0.0934782-0.1869564-0.0934782
				s-0.0934792,0.0934782-0.0934792,0.1869564l0,0c-0.0934792,0-0.0934792-0.0934782-0.0934792-0.0934782
				c0-0.0934792,0-0.0934792,0-0.0934792l0,0c0,0-0.0934792,0.0934792-0.1869583,0.0934792
				c0.0934792-0.0934792,0.1869583-0.1869574,0.1869583-0.2804365c0,0,0-0.0934792,0.0934792-0.0934792h0.0934792h0.0934792
				c0,0,0.0934772,0,0.1869564,0c-0.1869564-0.0934792-0.2804337-0.1869574-0.467392-0.2804365
				s-0.2804356-0.0934792-0.4673939-0.0934792h-0.0934792c-0.0934792,0.0934792-0.2804356,0.0934792-0.2804356,0.1869574
				c0.0934792-0.0934792,0.0934792-0.0934792,0.1869583-0.1869574c-0.2804356,0-0.560873-0.0934792-0.8413086-0.0934792
				c-0.1869583,0-0.3739147-0.0934792-0.4673939-0.0934792c-0.3739147,0-0.7478294,0.0934792-1.0282669,0.2804365
				c-0.2804356,0.1869574-0.5608711,0.4673939-0.8413067,0.8413086c-0.2804356,0.3739138-0.2804356,0.6543503-0.3739147,1.028265
				c0.2804356-0.0934792,0.4673939-0.2804356,0.6543522-0.4673939c0,0,0,0-0.0934792,0.0934792
				c-0.1869583,0.1869583-0.3739147,0.3739147-0.560873,0.4673939c-0.0934792,0.0934792-0.1869583,0.0934792-0.1869583,0.1869583
				c-0.0934792,0.0934792-0.1869583,0.1869583-0.1869583,0.3739147c-0.1869583,0.560873-0.2804356,1.2152214-0.3739147,1.7760944
				c-0.0934792,0.3739147,0,0.6543522,0,0.9347878s0.0934792,0.3739147,0.3739147,0.4673939
				c0.0934792,0,0.0934792,0,0.0934792,0.0934792c0.1869583,0.0934792,0.3739147,0.1869583,0.4673939,0.2804356
				c0-0.3739147,0.0934792-0.7478294,0.1869583-1.1217461c0,0.3739147,0,0.7478294,0,1.1217461
				c0,0.2804356,0,0.3739147,0.0934792,0.560873c0.2804356,0.0934792,0.467392,0.1869564,0.6543503,0.0934792
				c0.1869583-0.0934792,0.3739147-0.1869583,0.4673939-0.3739147c0.2804356-0.4673939,0.4673939-0.9347878,0.9347878-1.2152233
				c0-0.560873-0.3739147-1.0282669-0.7478294-1.4021816c-0.2804356-0.3739147-0.4673939-0.6543503-0.560873-1.1217442
				c0,0.0934792,0,0.0934792,0.0934792,0.0934792c0.1869583,0.2804356,0.4673939,0.6543503,0.6543522,0.9347858
				c0.3739147,0.4673939,0.7478294,0.9347878,0.8413086,1.5891399c-0.4673939,0.2804356-0.7478294,0.8413086-1.0282669,1.3087025
				c-0.0934792,0.1869564-0.2804356,0.2804337-0.560873,0.3739128c-0.0934792,0-0.1869583,0-0.2804356,0
				c-0.1869564,0-0.3739128-0.0934792-0.6543503-0.0934792c0-0.0934772-0.0934792-0.1869564-0.0934792-0.2804337
				c0-0.0934792,0-0.1869583,0-0.2804356c-0.1869583-0.1869583-0.3739147-0.2804356-0.7478294-0.3739147H18.243166
				c-0.2804356-0.1869583-0.3739147-0.2804356-0.3739147-0.6543522c0-0.2804356,0-0.4673939,0-0.7478294
				c0-0.0934792,0-0.0934792,0-0.1869583c0.0934792-0.3739147,0.0934792-0.6543522,0.1869583-0.9347878
				c-0.6543522,0.560873-1.0282669,0.9347878-1.2152233,1.6826172c-0.1869583,0.560873-0.1869583,1.0282669-0.0934792,1.589138
				c0.0934792,0.3739147,0.1869583,0.6543522,0.560873,1.1217461c0.1869583,0.2804356,0.4673939,0.560873,0.7478294,0.7478294
				c0.3739147,0.2804356,0.6543522,0.4673939,1.0282669,0.6543522c0.0934792,0.3739147,0.1869583,0.560873,0.2804356,0.8413067
				c0,0.1869583,0.2804356,0.1869583,0.467392,0.1869583c0.0934792,0,0.1869583,0,0.2804356-0.0934792
				c0.1869583,0,0.8413086-0.1869564,0.8413086-0.467392c0-0.1869583-0.0934792-0.2804356-0.1869583-0.3739147
				c0-0.2804356,0-0.2804356,0-0.4673939s0-0.2804356-0.0934792-0.3739147
				c-0.0934792-0.1869583-0.3739147-0.560873-0.3739147-0.6543522c0.0934792,0.0934792,0.1869583,0.1869583,0.2804356,0.3739147l0,0
				c0.4673939-0.1869583,0.8413086-0.3739147,1.2152233-0.7478294v-0.0934792c0-0.0934792,0-0.2804356-0.0934792-0.3739147
				c0,0,0,0,0,0.0934792s0.0934792,0.1869583,0.0934792,0.2804356c0.0934792,0.0934792,0.0934792,0.1869583,0.1869583,0.2804356
				c0,0.0934792,0.0934792,0.0934792,0.0934792,0.1869583c-0.0934792,0-0.0934792-0.0934792-0.1869583-0.0934792
				c-0.0934792,0.1869583-0.1869583,0.3739147-0.2804356,0.560873c-0.0934792,0.1869583,0.1869583,0.3739147,0.3739147,0.4673939
				l0.0934792,0.0934792c0.3739147,0.1869583,0.7478294,0.3739147,0.9347878,0
				c0.0934792-0.0934792,0.0934792-0.2804356,0.0934792-0.3739147c0.0934772-0.0934792,0.2804337-0.8413086,0.3739128-0.9347878
				s0.0934792-1.028265,0.0934792-1.2152214c-0.0934792-0.4673939-0.0934792-0.7478294-0.2804356-1.2152233
				c-0.2804356,0-0.467392,0-0.8413067-0.0934792l0,0c0.3739147,0,0.6543503,0,1.028265-0.0934792
				c0.1869583,0,0.2804356,0.0934792,0.4673939,0.0934792c0.1869583,0.0934792,0.4673939,0.0934792,0.6543522,0
				c0.0934792,0,0.0934792-0.0934792,0.0934792-0.0934792c0.1869583-0.1869583,0.2804356-0.3739147,0.1869583-0.6543522
				c0-0.0934792-0.0934792-0.1869583-0.0934792-0.2804356c-0.0934792,0-0.0934792,0-0.1869583,0.0934792
				c0,0.1869583,0,0.1869583,0.0934792,0.2804356c0.0934792,0.1869583-0.0934792,0.3739147-0.3739147,0.4673939
				c-0.0934792,0-0.1869583,0-0.1869583,0c0.0934792,0.0934792,0.0934792,0.0934792,0.1869583,0
				c0.0934792,0,0.1869583-0.0934792,0.2804356-0.1869583c-0.0934792,0.0934792-0.0934792,0.0934792-0.0934792,0.1869583
				c0,0-0.0934792,0.0934792-0.1869583,0.0934792c-0.3739147,0.0934792-0.4673939-0.2804356-0.4673939-0.560873
				c0-0.1869583-0.0934792-0.2804356-0.2804356-0.4673939c0.0934792,0,0.1869583,0,0.3739147,0h0.0934792
				c0.7478294-0.1869583,1.5891399-0.3739147,1.9630547-1.028265C26.188858,16.7935543,26.0953789,16.0457249,25.9084206,15.3913727
				z"/>
		</g>
		<g>
			<path class="st3" d="M23.3844948,19.9718304c0.0934792,0.2804356,0.0934792,0.4673939,0.1869583,0.7478294
				s0.0934792,1.028265,0,1.3087006c0.0934792,0,0.0934792,0,0.2804356-0.0934792
				c0.0934792,0,0.4673939-0.2804356,0.560873-0.2804356c0.1869583-0.0934792,0.2804356-0.1869583,0.1869583-0.3739147
				c-0.0934792-0.0934792-0.0934792-0.0934792-0.1869583-0.1869583c-0.0934792-0.1869564-0.1869583-0.3739128-0.2804356-0.467392
				c-0.0934792-0.1869583-0.1869583-0.1869583-0.3739147-0.3739147
				C23.5714512,20.1587887,23.4779739,20.0653095,23.3844948,19.9718304z"/>
		</g>
		<g>
			<path class="st3" d="M16.4670696,21.3740101c0-0.0934792,0-0.1869583-0.0934792-0.2804356
				c-0.0934772,0.0934792-0.0934772,0.1869583-0.1869564,0.2804356c-0.1869574,0.1869583-0.1869574,0.1869583-0.4673939,0
				c0.0934792-0.2804356-0.0934792-0.3739147-0.0934792-0.6543503v-0.0934792c0-0.0934792,0-0.0934792,0-0.1869583
				c-0.0934792,0.2804356-0.2804356,0.8413067,0.0934792,1.028265l0,0c0.0934792,0.0934792,0.1869574,0.1869583,0.2804365,0.1869583
				C16.1866341,21.7479248,16.3735905,21.5609684,16.4670696,21.3740101
				C16.4670696,21.3740101,16.5605469,21.3740101,16.4670696,21.3740101z"/>
		</g>
		<g>
			<path class="st3" d="M15.8127184,20.4392242C15.8127184,20.5327034,15.8127184,20.5327034,15.8127184,20.4392242
				c0,0.0934792,0,0.0934792,0,0.1869583h0.0934792C15.9996758,20.5327034,15.9061975,20.4392242,15.8127184,20.4392242z"/>
		</g>
		<g>
			<path class="st3" d="M26.188858,17.3544273C26.188858,17.3544273,26.188858,17.4479046,26.188858,17.3544273
				C26.188858,17.4479046,26.188858,17.3544273,26.188858,17.3544273z"/>
		</g>
		<g>
			<path d="M23.5714512,19.8783512L23.5714512,19.8783512L23.5714512,19.8783512
				C23.6649303,19.8783512,23.6649303,19.8783512,23.5714512,19.8783512L23.5714512,19.8783512z"/>
		</g>
		<g>
			<path d="M26.188858,17.3544273c0.0934792-0.0934792,0.0934792-0.1869583,0.1869564-0.3739147
				c0.2804356-0.8413086-0.1869564-1.4956608-0.467392-2.0565329c-0.1869583-0.2804356-0.4673939-0.7478294-0.9347878-1.1217442
				c-0.0934792-0.0934792-0.0934792-0.0934792-0.1869583-0.1869574h-0.0934792c-0.0934792,0-0.1869583,0-0.2804356,0
				c-0.0934792,0-0.1869583,0.0934792-0.2804356,0.1869574c0,0,0,0,0,0.0934792s0,0.1869574,0,0.2804365
				s0,0.1869574-0.0934792,0.2804365c0,0.0934792-0.0934792,0.1869574-0.1869583,0.2804365
				c-0.0934792-0.0934792-0.1869583-0.0934792-0.2804356-0.1869574c-0.0934792-0.0934792-0.1869583-0.0934792-0.3739147-0.1869574
				c-0.0934792,0-0.1869583,0-0.2804356-0.0934792c-0.0934772,0-0.1869564,0-0.2804337,0
				c-0.2804356,0-0.4673939-0.0934792-0.7478294-0.0934792c-0.0934792,0-0.1869583,0-0.3739147-0.0934792
				c-0.560873-0.0934792-1.0282669,0-1.4021816,0.1869574s-0.7478294,0.5608721-1.1217442,1.028266
				c-0.1869583,0.1869574-0.2804356,0.4673939-0.3739147,0.6543522s-0.0934792,0.4673939-0.0934792,0.7478294
				c-0.0934792,0-0.0934792,0.0934792-0.1869583,0.1869583s-0.0934792,0.1869583-0.1869583,0.2804356
				c0,0.0934792-0.0934792,0.1869564-0.0934792,0.2804337c0,0.0934792,0,0.1869583-0.0934792,0.2804356
				c-0.3739147,0.2804356-0.7478294,0.560873-0.9347878,0.9347878c-0.2804356,0.2804356-0.4673939,0.6543522-0.560873,1.1217461
				c-0.0934792,0.1869583-0.0934792,0.3739147-0.0934792,0.560873s0,0.3739147,0,0.467392
				c0,0.0934792-0.0934772,0.1869583-0.0934772,0.2804356c0,0.0934792-0.0934792,0.1869583-0.0934792,0.2804356v0.0934792l0,0
				c0-0.1869583,0-0.2804356-0.0934792-0.4673939h0.0934792h0.0934792l0.0934772,0.0934792v-0.0934792
				c0-0.0934772-0.0934772-0.2804337-0.1869564-0.3739128s-0.0934792-0.0934792-0.1869574-0.0934792c0,0,0,0,0-0.0934792v-0.0934792
				v-0.0934792l-0.0934792,0.0934792c-0.0934792,0.0934792-0.2804365,0.3739147-0.3739147,0.6543503
				c0,0.0934792,0,0.1869583,0,0.3739147c0,0.0934792,0,0.1869583,0.0934792,0.2804356
				c0.0934792,0.0934792,0.0934792,0.0934792,0.2804365,0.1869583l0.0934792,0.0934792l0.0934792,0.0934792
				c0.0934792,0.0934792,0.2804356,0.0934792,0.3739147,0.0934792s0.1869583-0.0934792,0.2804356-0.1869583
				c0,0.0934792,0.0934792,0.1869583,0.1869583,0.3739147c0.0934792,0.1869583,0.1869583,0.2804356,0.2804356,0.4673939
				c0,0.0934792,0.0934792,0.0934792,0.0934792,0.0934792c0,0.0934792,0.0934792,0.0934792,0.0934792,0.0934792
				c0,0.0934792,0,0.0934792,0,0.1869583s0,0.1869583,0,0.2804356c0,0.0934792,0,0.1869583-0.0934792,0.2804356
				c0,0.0934792,0,0.1869583-0.0934792,0.2804356c0,0,0,0,0,0.0934792c0,0.1869583-0.0934792,0.1869583,0.0934792,0.3739128
				c0.0934792,0.0934792,0.1869583,0.1869583,0.2804356,0.2804356c0.0934792,0.0934792,0.2804356,0.0934792,0.3739147,0.1869583
				c0.1869583,0,0.4673939,0.0934792,0.6543522,0.0934792c0.0934792,0,0.2804356-0.0934792,0.3739147-0.1869583c0,0,0,0,0,0.0934792
				s0,0.0934792,0,0.1869583c0,0.3739147,0.2804356,0.4673939,0.5608711,0.3739147
				c0.0934792,0,0.2804356-0.0934792,0.3739147-0.0934792h0.0934792c0.1869583-0.0934792,0.4673939-0.0934792,0.6543522-0.1869583
				c0.2804356-0.0934792,0.4673939-0.2804356,0.3739147-0.560873c0-0.0934772-0.0934792-0.1869564-0.0934792-0.2804337
				c0-0.0934792-0.0934792-0.0934792-0.0934792-0.1869583c0-0.1869583,0-0.2804356,0-0.3739147c0,0,0,0,0-0.0934792
				s0-0.1869583,0-0.2804356c0-0.0934792-0.0934792-0.0934792-0.1869583-0.1869583c0,0,0,0,0-0.0934792
				c0.1869583-0.0934792,0.2804356-0.0934792,0.4673939-0.1869583c0.0934792,0,0.1869583-0.0934792,0.1869583-0.0934792
				s0,0,0,0.0934792l0,0c-0.0934792,0.1869583,0,0.3739147,0.0934792,0.560873
				c0.1869583,0.1869583,0.3739147,0.2804356,0.4673939,0.2804356c0.2804356,0.0934792,0.4673939,0.2804356,0.7478294,0.2804356
				s0.467392-0.0934792,0.5608711-0.3739147c0.0934792-0.0934792,0.0934792-0.2804356,0.0934792-0.3739147v-0.0934792
				c0-0.0934792,0.0934792-0.2804356,0.1869583-0.4673939c0-0.0934792,0.0934792-0.0934792,0.0934792-0.1869583
				c0.0934792,0,0.0934792,0,0.1869583,0s0.1869583-0.0934792,0.2804356-0.0934792
				c0.0934792,0,0.2804356-0.1869583,0.4673939-0.2804356c0.0934792,0,0.0934792,0,0.0934792-0.0934792
				c0.1869583-0.0934792,0.2804356-0.1869583,0.2804356-0.2804356c0.0934792-0.0934792,0.0934792-0.2804356,0-0.467392
				c0-0.0934792-0.0934792-0.0934792-0.0934792-0.1869583c0,0-0.0934792-0.0934792-0.1869583-0.0934792
				c0-0.0934792-0.0934792-0.1869583-0.0934792-0.2804356c0-0.0934792-0.0934792-0.1869583-0.0934792-0.2804356
				c-0.0934792-0.0934792-0.0934792-0.1869583-0.1869583-0.1869583c0,0-0.0934792-0.0934792-0.1869583-0.0934792
				s-0.0934792-0.0934792-0.1869583-0.0934792l0,0l0,0v-0.0934792l0,0l0,0
				c-0.0934792-0.0934792-0.1869583-0.0934792-0.2804356-0.1869583c0,0,0,0,0-0.0934792c0.0934792,0,0.0934792,0,0.0934792,0
				l0.1869583,0.0934792c0.1869583,0,0.2804356,0.0934792,0.3739147,0.0934792c0.1869583,0,0.2804356,0,0.4673939-0.0934792
				s0.2804356-0.2804356,0.3739147-0.4673939s0.0934792-0.3739147,0.0934792-0.560873c0-0.0934792,0-0.0934792,0-0.1869583
				v-0.0934792c0.2804356-0.0934772,0.4673939-0.1869564,0.7478294-0.3739128
				c0.1869583-0.0934792,0.3739147-0.2804356,0.4673939-0.560873C26.0953789,17.4479046,26.0953789,17.4479046,26.188858,17.3544273
				C26.188858,17.4479046,26.188858,17.3544273,26.188858,17.3544273z M15.8127184,20.5327034L15.8127184,20.5327034
				c0.0934792-0.0934792,0.0934792,0,0.1869574,0.0934792C15.9061975,20.6261826,15.9061975,20.5327034,15.8127184,20.5327034
				C15.8127184,20.6261826,15.8127184,20.5327034,15.8127184,20.5327034z M15.9996758,21.5609684
				c-0.0934792-0.0934792-0.1869574-0.0934792-0.2804365-0.1869583l0,0
				c-0.3739138-0.1869583-0.1869574-0.7478275-0.0934792-1.028265c0,0.0934792,0,0.1869583,0,0.1869583v0.0934792
				c0.0934792,0.1869564,0.2804365,0.3739128,0.0934792,0.6543503c0.1869574,0.1869583,0.2804365,0.1869583,0.4673948,0
				c0.0934792-0.0934792,0.0934792-0.1869583,0.1869564-0.2804356c0,0.0934792,0,0.1869583,0.0934792,0.2804356c0,0,0,0,0,0.0934792
				C16.3735905,21.5609684,16.1866341,21.7479248,15.9996758,21.5609684z M18.804039,24.0848942
				c0,0.3739128-0.6543522,0.2804356-0.8413086,0.1869583c-0.1869583-0.0934792-0.3739147-0.1869583-0.4673939-0.2804356
				c-0.0934792-0.0934792-0.0934792-0.0934792,0-0.2804356c0-0.1869583,0.0934792-0.2804356,0.0934792-0.4673939l0,0
				c0-0.0934792,0-0.1869583,0-0.2804356c0.3739147,0.3739147,0.8413086,0.6543522,1.3087025,0.9347878
				C18.804039,23.9914169,18.804039,23.9914169,18.804039,24.0848942z M23.9453678,20.5327034
				c0.0934792,0.1869583,0.1869583,0.3739147,0.2804356,0.467392c0.0934792,0.0934792,0.0934792,0.0934792,0.1869583,0.1869583
				c0.0934792,0.1869583,0,0.2804356-0.1869583,0.3739147c-0.0934792,0.0934792-0.4673939,0.2804356-0.560873,0.2804356
				c-0.0934792,0.0934792-0.1869583,0.0934792-0.2804356,0.0934792c0.0934792-0.2804356,0.0934792-1.028265,0-1.3087006
				s-0.0934792-0.4673939-0.1869583-0.7478294c0.0934792,0.0934792,0.1869583,0.1869583,0.1869583,0.1869583
				C23.7584095,20.2522678,23.8518887,20.3457451,23.9453678,20.5327034z M23.9453678,18.2892132h-0.0934792
				c-0.0934792,0-0.1869583,0-0.3739147,0c0.0934792,0.0934792,0.1869583,0.2804356,0.2804356,0.4673939
				c0.0934792,0.2804356,0.1869583,0.6543522,0.4673939,0.560873c0.0934792,0,0.0934792-0.0934792,0.1869583-0.0934792
				c0,0,0.0934792-0.0934792,0.0934792-0.1869583c-0.0934792,0.0934792-0.1869583,0.0934792-0.2804356,0.1869583
				c-0.0934792,0-0.1869583,0-0.1869583,0s0.0934792,0,0.1869583,0c0.2804356-0.0934792,0.3739147-0.2804356,0.3739147-0.4673939
				c0-0.0934792-0.0934792-0.1869583-0.0934792-0.2804356c0.0934792,0,0.0934792,0,0.1869583-0.0934792
				c0,0.0934792,0.0934792,0.1869583,0.0934792,0.2804356c0,0.1869583,0,0.4673939-0.1869583,0.6543522l-0.0934792,0.0934792
				c-0.1869583,0.0934792-0.4673939,0.0934792-0.6543522,0c-0.1869583,0-0.2804356-0.0934792-0.4673939-0.0934792
				c-0.3739147,0.0934792-0.6543503,0.0934792-1.028265,0.0934792l0,0c0.2804356,0.0934792,0.4673939,0.1869583,0.8413067,0.0934792
				c0.1869583,0.3739147,0.1869583,0.7478294,0.2804356,1.2152233c0.0934792,0.1869564,0,1.1217442-0.0934792,1.2152214
				c-0.0934772,0.0934792-0.2804337,0.8413086-0.3739128,0.9347878c0,0.0934792,0,0.2804356-0.0934792,0.3739147
				c-0.1869583,0.3739147-0.6543522,0.1869583-0.9347878,0c0,0-0.0934792,0-0.0934792-0.0934792
				c-0.1869583-0.0934792-0.4673939-0.2804356-0.3739147-0.4673939s0.1869583-0.2804356,0.2804356-0.560873
				c0.0934792,0,0.0934792,0.0934792,0.1869583,0.0934792c0-0.0934792-0.0934792-0.0934792-0.0934792-0.1869583
				c-0.0934792-0.0934792-0.0934792-0.1869583-0.1869583-0.2804356c0-0.0934792-0.0934792-0.1869583-0.0934792-0.2804356
				c0,0,0,0,0-0.0934792c0,0.0934792,0,0.1869583,0.0934792,0.3739147v0.0934792
				c-0.3739147,0.2804356-0.7478294,0.560873-1.2152233,0.7478294l0,0
				c-0.0934792-0.0934792-0.1869583-0.2804356-0.2804356-0.3739147c0.0934792,0.0934792,0.2804356,0.4673939,0.3739147,0.6543522
				s0.0934792,0.1869583,0.0934792,0.3739147c0,0.1869583,0,0.1869583,0,0.4673939
				c0.0934792,0.0934792,0.1869583,0.1869583,0.1869583,0.3739147c0.0934792,0.2804356-0.6543522,0.3739128-0.8413086,0.467392
				c-0.0934792,0-0.1869583,0.0934792-0.2804356,0.0934792c-0.1869564,0-0.467392,0.0934792-0.467392-0.1869583
				c0-0.2804337-0.0934792-0.5608711-0.2804356-0.8413067c-0.2804356-0.1869583-0.6543522-0.3739147-1.0282669-0.6543522
				c-0.2804356-0.1869583-0.560873-0.4673939-0.7478294-0.7478294c-0.2804356-0.4673939-0.4673939-0.7478294-0.560873-1.1217461
				c-0.0934792-0.5608711-0.0934792-1.028265,0.0934792-1.589138c0.2804356-0.7478294,0.560873-1.1217461,1.2152233-1.6826172
				c-0.0934792,0.2804356-0.0934792,0.560873-0.1869583,0.9347878c0,0.0934792,0,0.0934792,0,0.1869583
				c0,0.2804356,0,0.4673939,0,0.7478294c0,0.3739147,0.0934792,0.560873,0.3739147,0.6543522h0.0934792
				c0.3739147,0.1869583,0.4673939,0.1869583,0.7478294,0.3739147c0,0.0934792,0,0.1869583,0,0.2804356
				s0.0934792,0.1869564,0.0934792,0.2804337c0.2804356,0.0934792,0.4673939,0.0934792,0.6543503,0.0934792
				c0.0934792,0,0.1869583,0,0.2804356,0c0.2804356-0.0934792,0.4673939-0.1869564,0.560873-0.3739128
				c0.2804356-0.4673939,0.560873-1.0282669,1.0282669-1.3087025c-0.0934792-0.6543522-0.3739147-1.1217461-0.8413086-1.5891399
				c-0.2804356-0.2804356-0.4673939-0.5608711-0.6543522-0.9347858c0,0,0-0.0934792-0.0934792-0.0934792
				c0.0934792,0.4673939,0.2804356,0.8413067,0.560873,1.1217442c0.3739147,0.4673939,0.7478294,0.9347878,0.7478294,1.4021816
				c-0.3739147,0.2804356-0.6543522,0.7478294-0.9347878,1.2152233c-0.0934792,0.1869583-0.2804356,0.2804356-0.4673939,0.3739147
				c-0.1869564,0.0934772-0.3739128,0-0.6543503-0.0934792c-0.0934792-0.1869583-0.0934792-0.2804356-0.0934792-0.560873
				c0-0.3739147,0-0.7478294,0-1.1217461c-0.0934792,0.3739147-0.1869583,0.7478294-0.1869583,1.1217461
				c-0.1869583-0.0934792-0.2804356-0.1869583-0.4673939-0.2804356c0,0-0.0934792,0-0.0934792-0.0934792
				c-0.2804356-0.0934792-0.3739147-0.1869583-0.3739147-0.4673939s-0.0934792-0.560873,0-0.9347878
				c0.0934792-0.560873,0.1869583-1.2152214,0.3739147-1.7760944c0.0934792-0.1869583,0.0934792-0.2804356,0.1869583-0.3739147
				s0.0934792-0.0934792,0.1869583-0.1869583c0.1869583-0.1869583,0.3739147-0.3739147,0.560873-0.4673939l0.0934792-0.0934792
				c-0.2804356,0.1869583-0.4673939,0.2804356-0.6543522,0.4673939c0.0934792-0.4673939,0.0934792-0.6543512,0.3739147-1.028266
				s0.560873-0.6543512,0.8413067-0.8413086c0.2804356-0.1869574,0.6543522-0.2804365,1.0282669-0.2804365
				c0.1869583,0,0.2804356,0,0.4673939,0.0934792c0.2804356,0.0934792,0.560873,0.0934792,0.8413086,0.0934792
				c-0.0934792,0-0.0934792,0.0934792-0.1869583,0.1869574c0.0934792-0.0934792,0.1869583-0.0934792,0.2804356-0.1869574h0.0934792
				c0.1869583,0,0.2804356,0,0.4673939,0.0934792s0.2804356,0.1869574,0.467392,0.2804365c-0.0934772,0-0.0934772,0-0.1869564,0
				h-0.0934792h-0.0934792l-0.0934792,0.0934792c-0.0934792,0.0934792-0.1869583,0.1869574-0.1869583,0.2804365
				c0.0934792,0,0.0934792-0.0934792,0.1869583-0.0934792l0,0v0.0934792c0,0.0934782,0.0934792,0.0934782,0.0934792,0.0934782l0,0
				c0-0.0934782,0-0.1869564,0.0934792-0.1869564s0.1869583,0,0.1869583,0.0934792l0,0l-0.0934792,0.0934782c0,0,0,0,0,0.0934792
				l0,0l0.0934792-0.0934792c0.0934772-0.0934782,0.2804337-0.1869564,0.3739128-0.1869564
				c0,0,0.0934792,0.0934782,0.0934792,0.1869564h-0.0934792l0,0c-0.0934792,0-0.1869564,0-0.2804356,0.1869574
				c-0.3739128,0.2804365-0.0934772,0.4673939-0.0934772,0.8413095c0-0.2804356-0.0934792-0.560873,0.1869564-0.7478304
				c0.0934792-0.0934792,0.0934792-0.0934792,0.0934792-0.0934792c-0.0934792,0.0934792-0.0934792,0.1869574-0.0934792,0.2804365
				c0.0934792,0.2804356,0.1869583,0.4673939,0.2804356,0.6543522c0-0.2804356-0.0934792-0.4673939-0.0934792-0.6543512
				c0-0.0934792,0.0934792-0.2804365,0.1869583-0.3739147h0.0934792c0.0934792,0.0934792,0.1869583,0.1869574,0.1869583,0.3739147
				c0.0934792,0.1869574,0.1869583,0.4673929,0.2804356,0.6543512c0-0.1869583-0.0934792-0.4673939-0.1869583-0.6543512
				s-0.1869583-0.4673939-0.3739147-0.6543512c-0.1869583-0.2804356,0.0934792-0.3739138,0.1869583-0.6543503
				c0.0934792-0.1869574,0.0934792-0.3739147,0.0934792-0.560873c0-0.0934792,0.0934792-0.0934792,0.1869583-0.0934792
				s0.1869583,0,0.1869583,0.0934792c0.4673939,0.3739147,1.0282669,1.0282669,1.2152233,1.589138
				c0.1869583,0.560873,0.2804356,1.3087025,0,1.8695755C25.4410267,18.0087757,24.6931973,18.195734,23.9453678,18.2892132z
				 M23.6649303,14.8305006C23.6649303,14.8305006,23.6649303,14.9239798,23.6649303,14.8305006h-0.0934792
				C23.5714512,14.8305006,23.5714512,14.8305006,23.6649303,14.8305006
				C23.5714512,14.8305006,23.6649303,14.8305006,23.6649303,14.8305006z"/>
		</g>
		<g>
			<path d="M26.0953789,17.4479046L26.0953789,17.4479046L26.0953789,17.4479046L26.0953789,17.4479046z"/>
		</g>
	</g>
</g>
</svg>
