<?xml version="1.0" encoding="utf-8"?>
<!-- Generator: Adobe Illustrator 25.4.1, SVG Export Plug-In . SVG Version: 6.00 Build 0)  -->
<svg version="1.1" id="图层_1" xmlns="http://www.w3.org/2000/svg" xmlns:xlink="http://www.w3.org/1999/xlink" x="0px" y="0px"
	 viewBox="0 0 28.3464565 28.3464565" style="enable-background:new 0 0 28.3464565 28.3464565;" xml:space="preserve">
<style type="text/css">
	.st0{fill:#FEF000;}
	.st1{fill:#333333;}
</style>
<g>
	<path class="st0" d="M27.5297585,15.0147381c-0.1631641-0.2203217-0.3855991-0.335887-0.6427479-0.335887
		c-0.2753677,0-0.5422153,0.1295948-0.7787495,0.2451601c-0.0603428,0.0291319-0.1198616,0.0583372-0.1771603,0.0831394
		c-0.068037,0.0303497-0.1371117,0.0605202-0.2083683,0.0799904c-0.0550461,0.0151386-0.1014652,0.0226908-0.1372185,0.0226908
		c-0.0409794,0-0.0928745,0-0.1598721-0.2019262c-0.2094078-0.6297579-0.468668-1.2777681-0.7722378-1.9281397
		c-0.1381474-0.2958746-0.3132324-0.5831947-0.482769-0.8618898c-0.3197823-0.5260744-0.6222038-1.0239105-0.6588879-1.5196352
		c-0.0388317-0.5251074,0.1802731-1.0877953,0.4114017-1.6829433c0.1188946-0.303462,0.2398643-0.6166582,0.3284435-0.9321089
		c0.0637417-0.2288404,0.1468449-0.6578174-0.0193634-0.9623523l-0.0357876-0.0659246
		c-0.5216007-0.9559102-1.0616341-1.9440665-1.6924286-2.8579588c-0.6438236-0.9331474-1.8113575-1.489464-3.123661-1.489464
		c-1.0401955,0-1.988554,0.3716054-2.5371761,0.9937394c-0.2743282,0.3100469-0.4806194,0.3466604-0.6125412,0.3466604
		c-0.1814194,0-0.4016342-0.0777357-0.6933203-0.2440867c-1.9810371-1.1285954-4.1585245-2.0737681-6.4741964-2.8092484
		C8.6698961,0.7692894,8.3242378,0.7086614,8.0056019,0.7086614c-0.6826191,0-1.2475252,0.2820236-1.7291842,0.8608521
		C6.153265,1.7175043,6.0063839,1.8504634,5.8508768,1.9907951C5.7244673,2.1041055,5.5980935,2.2186329,5.4825282,2.3407476
		C4.6194935,3.2555707,3.7338748,3.7351539,2.695899,3.8507192C2.2778385,3.8972101,1.7906677,4.1661344,1.5131537,4.5021291
		C0.1305938,6.1794896,0.1057556,7.776824,1.4352392,9.5299511c0.1372896,0.1814547,0.2766552,0.3629084,0.4267576,0.5335188
		c1.2528933,1.4236832,2.03057,2.6258259,2.5219998,3.8970442c0.1697507,0.439641,0.4666271,0.6534853,0.9063411,0.6534853
		c0.0409074,0,0.0841775-0.0020752,0.1295586-0.005476c0.9590235-0.0798111,1.9204807-0.1510687,2.896862-0.2234707
		l0.5864878-0.0431633c-0.0042953,0.0063705-0.0075874,0.0129919-0.0119543,0.0193624
		c-0.9871182,1.5457258-1.262485,3.3538265-0.863966,5.6900406c0.3542128,2.0792103,1.4094744,3.9759598,3.0500784,5.4827118
		c1.4906454,1.3683853,3.1701527,2.0619221,4.9934998,2.0619221l0.1035404-0.0010395
		c0.5182362,0.0610924,2.6020622,0.2460556,4.3931618-1.1567249c0.8032303-0.6291142,1.2686768-1.359045,1.5272923-1.8620358
		c-0.8068447,0.4099712-1.5229263,0.5519142-1.9875488,0.6067429c-1.4223232,0.1678543-2.463377-0.2473793-2.6799049-0.4125118
		c-0.0194683-0.0148544-0.2141304-0.0931988-0.4000587-0.2926903c-0.0603771-0.0647774-0.194767-0.1091957-0.2033558-0.137289
		c0.0128117-0.0550098-0.4497375-0.8560562-0.4497375-0.8560562c-0.2868538-0.8967495-0.4123325-1.1659241-0.4533119-1.5182762
		l0.2375717,0.0481033l0.5457954,0.0730476l0.3230381-0.0161419c-0.084177-0.0961323-0.1800919-0.0997829-0.2665253-0.1938381
		c-0.2062931-0.2256908-0.5105057-0.4924316-0.6703072-0.72682c-0.0378304-0.0550423,0.2967682-0.4771118,0.2837391-0.5895634
		c0.0876865-0.0225487,0.2938004,0.1789474,0.2492771,0.088829c-0.1932659-0.3911819,0.4091492-0.0414085,0.4199581-0.0403709
		c0.261301,0.1015358,0.3850975,0.5977268,0.5200977,0.7933521c0.4114399,0.5938969,0.9850407,0.9201202,1.8069916,1.0259876
		c0.2009583,0.0260181,0.3996277,0.0583,0.599514,0.0917645c0.3045006,0.0497818,0.6090698,0.0994606,0.9158249,0.1265163
		c0.4008102,0.0355034,0.7583141,0.0539703,1.0931263,0.0539703c1.8297558,0,3.1496105-0.5530586,4.1519413-1.7423172
		c1.1405487-1.3522472,1.5175571-2.9789295,1.7346592-4.3906212C27.9487858,16.0322418,27.8106384,15.3938951,27.5297585,15.0147381
		z"/>
	<g>
		<g>
			<path class="st1" d="M27.5297585,15.0148096c-0.1631298-0.2203579-0.3855267-0.3359947-0.6427135-0.3359947
				c-0.2753639,0-0.5422497,0.1296663-0.7787132,0.2451963c-0.0604477,0.0292034-0.1199322,0.0583372-0.1771603,0.0831032
				c-0.068037,0.030386-0.1371098,0.0605564-0.2084751,0.0799904c-0.0550098,0.0151749-0.101429,0.0227623-0.1372166,0.0227623
				c-0.0409813,0-0.0928764,0-0.1598034-0.2019978c-0.209404-0.6296854-0.4687023-1.2777672-0.7723083-1.9280672
				c-0.1381111-0.2958384-0.3131962-0.583231-0.4827671-0.8618546c-0.3197823-0.5260744-0.6221695-1.0239468-0.6588192-1.5197067
				c-0.038866-0.5250359,0.1803093-1.087759,0.4114399-1.6829081c0.1188221-0.3034611,0.2397919-0.6166573,0.3284435-0.9321442
				c0.0637417-0.2288766,0.1467724-0.6577816-0.0194702-0.9623523l-0.0356827-0.0658889
				c-0.5216007-0.9559102-1.0618134-1.9440665-1.6925354-2.8580303c-0.6437168-0.9331474-1.8113213-1.489464-3.1236248-1.489464
				c-1.0401955,0-1.9884815,0.3716769-2.5372105,0.9937751c-0.2743301,0.3100111-0.4806232,0.3466246-0.6124363,0.3466246
				c-0.1815262,0-0.4017401-0.0776999-0.6934271-0.2440867c-1.9810009-1.1285596-4.1584167-2.0736606-6.4741955-2.8092484
				C8.6698961,0.7692533,8.3242378,0.7087328,8.0056734,0.7087328c-0.6826191,0-1.2475967,0.2819162-1.7292557,0.8608162
				C6.1532292,1.717504,6.0063839,1.8504274,5.8508768,1.9907949C5.7244673,2.1041412,5.598165,2.2186687,5.4825282,2.3407476
				C4.6194935,3.2556064,3.7338748,3.7351897,2.695899,3.8506835C2.2778385,3.8972101,1.7906677,4.1662059,1.5132252,4.5020933
				C0.1305938,6.1794538,0.1057556,7.7768955,1.4353107,9.5299511c0.1372181,0.1814547,0.2765837,0.3629446,0.426686,0.5335541
				c1.2529291,1.4237194,2.0306416,2.6257906,2.5220714,3.8970442c0.1696792,0.439642,0.4665556,0.6534147,0.9061975,0.6534147
				c0.0409794,0,0.084178-0.0020761,0.1297021-0.0054045c0.958952-0.0798473,1.9203734-0.1511412,2.8967905-0.2235069
				l0.5864878-0.0431995c-0.0042953,0.006443-0.0076237,0.0130281-0.0119181,0.0194702
				c-0.9871898,1.5456543-1.262557,3.3537188-0.8640022,5.6899691c0.3541756,2.0792103,1.4095459,3.9759254,3.0500784,5.4827461
				c0.569272,0.5228539,1.7205944,1.4877834,3.5000639,1.8999386c0.4183826,0.0968819,3.6852388,0.8023357,5.8564272-1.1984215
				c0.4488773-0.41366,0.7349796-0.8361225,0.9021187-1.1178589c-0.4416828,0.1495667-1.2702541,0.3593292-2.2646351,0.1796989
				c-0.3958721-0.0714722-1.2872887-0.2325954-1.9410248-0.9278126c-0.0767345-0.0816383-0.1346779-0.1532879-0.1715775-0.2009602
				c-0.5744972-0.7422447-0.811676-1.3892155-0.8713379-1.5810509c-0.0270557-0.0870056-0.0664253-0.223362-0.1024656-0.3954048
				c0.2052526,0.0337124,0.4445086,0.0593758,0.7116079,0.0632763c0.3027458,0.0044003,0.571743-0.0201855,0.7978611-0.0546875
				c-0.845211-0.2593689-1.2906494-0.829607-1.1985626-1.2211475c0.012991-0.0552235,0.0758362-0.2734699,0.4488029-0.4510956
				c0.1158886,0.2336369,0.2985229,0.54669,0.5815125,0.8641472c1.6865597,1.8920975,5.3018303,2.1032219,7.6497841,0.5708084
				c0.5748558-0.3751831,0.9452076-0.756094,1.1550446-1.0048695c1.1405487-1.3522453,1.5175571-2.9789276,1.7346592-4.3906555
				C27.9487858,16.0322418,27.8106384,15.3938951,27.5297585,15.0148096z M23.500742,21.8860283
				c-0.4153881,0.0912457-1.0726452,0.2356911-1.8430023,0c-1.5552177-0.4758072-2.1319618-2.0603561-2.2116318-2.2905846
				c-0.238945-0.6903629-0.2222939-1.3030052-0.1845722-1.6623325c-0.3344193,0.6771584-0.4732704,1.2427826-0.5369415,1.6482849
				c-0.0471535,0.3004684-0.0617199,0.5678978-0.2420673,0.6579075c-0.2564373,0.1279926-0.6813221-0.185873-0.8972435-0.4118099
				c-0.38521-0.4030323-0.4786034-0.9167538-0.6030827-1.6014576c-0.0375252-0.2064266-0.0355091-0.2995586-0.0329075-0.3483372
				c0.0169754-0.3199787,0.1682491-0.4703426,0.0407124-0.8723316c-0.202652-0.6387901-0.8106155-0.9827023-0.9301529-1.0472202
				c-0.5499477-0.2967606-0.7792006-0.0844812-1.1955643-0.3900881c-0.3385801-0.2485695-0.6039934-0.6951094-0.6040592-1.1452265
				c-0.0000648-0.5209417,0.3552303-0.6962156,0.6326752-1.3364344c0.1538115-0.35497,0.3023548-0.8960085,0.2253513-1.6684465
				c-0.5626297,0.5812311-1.0973597,0.9134369-1.4775639,1.1082869c-0.3700571,0.1896458-0.6500387,0.278161-3.5081968,0.9401674
				c-0.5368109,0.1243496-0.7705526,0.1776152-1.1452274,0.2768602c-1.0184059,0.2697067-1.0145035,0.3321409-1.5478683,0.4278746
				c-0.8381901,0.1504297-0.7743244-0.0169744-1.6234403,0.1132936c-0.1221385,0.0187311-0.3338976,0.0545006-0.5663376-0.0377855
				c-0.183013-0.0726461-0.3232965-0.2026539-0.4782138-0.4152584c-0.299428-0.4109001-0.4145422-0.8020296-0.4655957-0.9564266
				c-0.1105623-0.3344822-0.3772118-0.6973858-0.9060881-1.4095354C1.8303283,9.3520679,1.1940116,9.2048254,0.895364,8.1053839
				C0.8394977,7.8997388,0.6126505,6.9877324,0.9960405,5.9660091c0.121228-0.3229713,0.4704739-1.2114997,1.4346396-1.711565
				c0.158884-0.0824013,1.0780447-0.5398676,2.0513155-0.226522c0.6051641,0.194849,0.7101336,0.5199671,1.4472566,0.9816608
				C6.6128507,5.4377179,7.27141,5.6271691,7.7299819,5.7203665C6.5443668,5.1498017,4.84659,4.192009,4.9853778,3.3986943
				c0.0523543-0.2992976,0.3236866-0.3325312,1.308794-1.2836249c0.7795925-0.752732,0.830451-0.9450448,1.1955657-1.0822719
				c0.4938869-0.1856141,0.9375648-0.0353148,1.9505739,0.3523676c2.0389585,0.7803077,3.3404684,1.3573114,3.4859552,1.4220876
				c1.3905449,0.6192775,1.7652845,0.8009892,2.2778368,1.1199932C15.3399,4.0117931,15.9458456,4.3925166,16.6890831,5.009583
				c1.3547077,1.1247406,2.2083759,2.2398562,2.5798645,2.7559857c0.4445915,0.617651,0.9728165,1.4527845,1.4518089,2.5042295
				l-0.2364712-0.5626955c-0.0610695-0.1415195-0.1248055-0.2834301-0.1912727-0.4256639
				c-0.8875523-1.8986101-2.082531-3.4574041-3.3744164-4.7327046c-0.0119667-0.152185-0.0069599-0.3865113,0.1102352-0.6214883
				c0.0536556-0.1075704,0.2673645-0.4889445,1.1452274-0.7299044c0.4486217-0.1231141,2.0042934-0.5500784,3.2846031,0.3398154
				c0.2114334,0.1469827,0.6401539,0.7859662,1.49753,2.0638678c0.7747154,1.1547227,0.8842354,1.393146,0.9060879,1.7366691
				c0.0337524,0.5299168-0.1870461,0.5862384-0.5327148,1.8975034c-0.2096767,0.7954617-0.3255081,1.2055817-0.2476578,1.7303619
				c0.1002216,0.6755981,0.4205265,1.1310482,0.5504684,1.3763666c0,0,1.276926,1.3559456,0.5177555,2.4340544l-0.9386711,0.0605497
				l0.9606533,0.7965012l-1.7394657,0.2057753l0.6336498,0.3207588l0.3554249,0.10536l-1.0483875,1.2427158l1.5749874-0.8089886
				l-0.1053581,1.4355526l0.0748558,0.2115612l1.1625938-2.5943041c0.144186,0.36271,0.3644619,0.7740641,0.6582336,0.7898684
				c0.4487514,0.0241299,0.7383575-0.8923664,1.0662727-0.8293457c0.2916222,0.0559978,0.3687572,0.8395557,0.3817635,0.9866676
				c0.0830517,0.9397793-0.0926113,2.6003551-1.3822193,3.8973122C24.832819,21.5731373,23.7353935,21.8344536,23.500742,21.8860283
				z M16.386467,27.261488c-1.2639189,0.3301258-2.3807249-0.2511711-2.7381659-0.4572067
				c0.1232443,0.0295258,1.570631,0.3590012,2.5494947-0.2353687c0.4761333-0.2890854,0.7060356-0.588253,0.7060356-0.5883179
				c0.3565311-0.4639702,0.4902458-0.7255478,0.4902458-0.7256126c0.0876045-0.1714363,0.1260414-0.2812824,0.2157269-0.2942257
				c0.1465912-0.0211353,0.3241425,0.2318554,0.3922329,0.4510937c0.1190834,0.3833237-0.0706291,0.7460976-0.1253891,0.8507442
				C17.5073071,26.9687576,16.6587734,27.190403,16.386467,27.261488z M10.1453075,14.6195021
				c-0.0012369-0.2509098,0.0156727-0.4592218,0.0314121-0.6028223c0.2488289-0.1276674,0.4581814-0.2051258,0.5938482-0.2502604
				c0.7364721-0.2450571,0.9990253-0.1023026,1.7991028-0.3567896c0.3294754-0.1047745,0.3679771-0.1553726,0.4510288-0.1177177
				c0.4536943,0.2057114-0.0907907,1.9657278-0.117651,3.0986633c-0.0308275,1.3020954,0.5918312,3.1270199,3.4712572,5.4127254
				c-2.9092121-1.3022251-4.7870102-3.1022396-5.4520073-4.373312
				C10.1520061,15.9576931,10.1453075,14.6195669,10.1453075,14.6195021z M7.9356952,16.9945297
				c0.4389615,0.7795753,1.3698545,2.1892624,3.0707288,3.3471699c1.936264,1.3181381,4.0135775,1.7442627,4.9207773,1.8232136
				c0.0867548,0.1880035,0.2440138,0.6709347,0.1580477,0.842905c-0.5871677,1.1745491-7.5276709-0.7474995-8.0914326-3.0061207
				C7.954699,19.844902,7.8509908,19.202055,7.8540316,18.3418121C7.8559647,17.7948723,7.8809724,17.3152084,7.9356952,16.9945297z
				 M15.7870188,23.5243816c0.3127794-0.0775547,0.6036139,0.1924896,0.5427065,0.5089321
				c-0.033205,0.1725292-0.0901241,0.3092213-0.1515694,0.4175568c-0.7585859,1.3377361-3.9538937,1.4341202-5.8049612-0.039217
				c-0.6260414-0.4983082-0.9826355-1.0840931-1.1767054-1.4708633c0.8305159,0.3684959,2.2399216,0.8638802,4.0399361,0.8825436
				C14.2360506,23.8336792,15.1013861,23.6943874,15.7870188,23.5243816z"/>
		</g>
		<path class="st1" d="M22.1345863,7.1568923c0.0429897-0.2690558,0.0817509-0.7697721-0.1367073-1.3173137
			C21.5360546,4.682189,20.3326855,4.337821,20.1739979,4.295157c0.3439751,0.2025886,1.0079975,0.6587548,1.4856262,1.5002618
			C21.9585972,6.3221493,22.0806065,6.8167515,22.1345863,7.1568923z M20.7287674,12.1702471
			c-0.2158546-0.0001955-0.7932491-0.0008459-1.2888908,0.4181843c-0.6704617,0.5667286-0.6450329,1.439127-0.6395702,1.5589247
			c0.0575562-0.1906223,0.3075581-0.9380865,1.0727119-1.3856678c1.0969696-0.6416492,2.2528629-0.0820761,2.3407288-0.0377207
			C22.0526505,12.5888214,21.5133038,12.1710272,20.7287674,12.1702471z M14.6310129,6.8815455
			c-1.0764179-0.0536547-1.9073896,0.3072972-2.3124361,0.5184708c0.295785-0.1216178,1.8458643-0.7246366,3.3889198,0.0383716
			c0.6142693,0.3037205,1.0238705,0.7233353,1.2710094,1.0319338c-0.3101597-0.1484776-0.7644405-0.3270035-1.3339643-0.4152575
			c-1.0009766-0.1551127-1.8530846,0.0466957-1.8498974,0.1006756c0.0035114,0.0602245,1.0639963-0.1910768,2.1770964,0.2139053
			c0.9282665,0.3377342,1.5640621,1.0120983,1.9871883,1.6107588c-0.0486469-0.2846003-0.3617973-1.9646873-1.7710743-2.7161837
			C15.5694246,6.9344201,14.9539194,6.8976746,14.6310129,6.8815455z M20.564085,14.0707245
			c-0.6936131,0.0092354-1.1104984,0.5194464-1.1686401,0.5930672c0.0713444-0.0372009,0.3742847-0.1848326,0.719759-0.0725803
			c0.1510143,0.0490379,0.2582607,0.1309185,0.323555,0.1912079c-0.1313725,0.0466957-0.3566608,0.1458759-0.5736217,0.3530178
			c-0.205513,0.1962805-0.3136044,0.4035511-0.3677158,0.5295267c0.3481407-0.211174,0.8081455-0.4008846,1.3090534-0.3236217
			c0.5777836,0.0891647,0.8707752,0.4812059,1.0590553,0.3530188c0.1992054-0.1356659,0.1142044-0.7401152-0.1910782-1.1289692
			C21.2865105,14.07131,20.6559811,14.0694895,20.564085,14.0707245z"/>
	</g>
</g>
<path class="st1" d="M12.0716457,20.6488934c0.3183527,0.0830307,1.0473461,0.2238369,1.8544197-0.079895
	c0.3335276-0.1255131,0.592845-0.2940063,0.7804708-0.4419613c-0.0487518,0.0917912-0.1288834,0.2230148-0.2538977,0.3573189
	c-0.0000286,0.0000286-0.2677259,0.2876186-0.7332125,0.466074c-0.4795799,0.1838722-1.4593058,0.2910748-2.713233,0.1696644
	C11.3613443,20.963026,11.7164946,20.8059616,12.0716457,20.6488934z"/>
</svg>
