<?xml version="1.0" encoding="utf-8"?>
<!-- Generator: Adobe Illustrator 25.4.1, SVG Export Plug-In . SVG Version: 6.00 Build 0)  -->
<svg version="1.1" id="图层_1" xmlns="http://www.w3.org/2000/svg" xmlns:xlink="http://www.w3.org/1999/xlink" x="0px" y="0px"
	 viewBox="0 0 28.3465004 28.3465004" style="enable-background:new 0 0 28.3465004 28.3465004;" xml:space="preserve">
<g>
	<g>
		<g>
			<path d="M10.317275,18.8387642c-2.5691528,0-4.659677-2.0900745-4.659677-4.6596775S7.7481222,9.518961,10.317275,9.518961
				s4.6596775,2.0905237,4.6596775,4.6601257S12.8864288,18.8387642,10.317275,18.8387642z M10.317275,11.4496422
				c-1.5050335,0-2.7289953,1.224411-2.7289953,2.7294445c0,1.5045853,1.2239618,2.7289963,2.7289953,2.7289963
				s2.7289963-1.224411,2.7289963-2.7289963C13.0462713,12.6740532,11.8223085,11.4496422,10.317275,11.4496422z"/>
		</g>
		<g>
			<g>
				<path d="M18.9891777,22.8693981c-2.0402355,0-3.7006226-1.6599369-3.7006226-3.7001724s1.660387-3.7001743,3.7006226-3.7001743
					s3.6997242,1.6599369,3.6997242,3.7001743S21.0294151,22.8693981,18.9891777,22.8693981z M18.9891777,17.3997326
					c-0.9761162,0-1.7699413,0.7938251-1.7699413,1.7694931s0.7938251,1.7694912,1.7699413,1.7694912
					c0.9752197,0,1.769043-0.7938232,1.769043-1.7694912S19.9643974,17.3997326,18.9891777,17.3997326z"/>
			</g>
			<g>
				<path d="M10.317275,27.830801c-2.0402365,0-3.7006221-1.6599369-3.7006221-3.7001743s1.6603856-3.7001724,3.7006221-3.7001724
					s3.6997242,1.6599369,3.6997242,3.7001724S12.3575115,27.830801,10.317275,27.830801z M10.317275,22.3611355
					c-0.9761162,0-1.7699404,0.7938251-1.7699404,1.7694912c0,0.975668,0.7938242,1.7694931,1.7699404,1.7694931
					c0.9752188,0,1.769043-0.7938251,1.769043-1.7694931C12.086318,23.1549606,11.2924938,22.3611355,10.317275,22.3611355z"/>
			</g>
			<g>
				<rect x="9.3519344" y="17.6637421" width="1.9306815" height="4.2403154"/>
			</g>
			<g>
				
					<rect x="14.0218248" y="14.8866844" transform="matrix(0.4999947 -0.8660285 0.8660285 0.4999947 -7.0933075 21.2950115)" width="1.7468203" height="3.807524"/>
			</g>
		</g>
		<g>
			<g>
				<path d="M18.9891777,12.8778973c-2.0402355,0-3.7006226-1.6599369-3.7006226-3.7001734s1.660387-3.7001729,3.7006226-3.7001729
					s3.6997242,1.6599369,3.6997242,3.7001729S21.0294151,12.8778973,18.9891777,12.8778973z M18.9891777,7.4082322
					c-0.9761162,0-1.7699413,0.7938247-1.7699413,1.7694917s0.7938251,1.7694921,1.7699413,1.7694921
					c0.9752197,0,1.769043-0.7938242,1.769043-1.7694921S19.9643974,7.4082322,18.9891777,7.4082322z"/>
			</g>
			<g>
				<path d="M10.317275,7.9164953c-2.0402365,0-3.7006221-1.6599369-3.7006221-3.7001734
					c0-2.0406854,1.6603856-3.7006223,3.7006221-3.7006223s3.6997242,1.6599369,3.6997242,3.7006223
					C14.0169992,6.2565584,12.3575115,7.9164953,10.317275,7.9164953z M10.317275,2.4463811
					c-0.9761162,0-1.7699404,0.7942734-1.7699404,1.7699409s0.7938242,1.7694921,1.7699404,1.7694921
					c0.9752188,0,1.769043-0.7938247,1.769043-1.7694921S11.2924938,2.4463811,10.317275,2.4463811z"/>
			</g>
			<g>
				<rect x="9.3519344" y="6.4428916" width="1.9306815" height="4.2403154"/>
			</g>
			<g>
				
					<rect x="12.9914732" y="10.6830931" transform="matrix(0.8662112 -0.499678 0.499678 0.8662112 -3.7817152 8.9889507)" width="3.807524" height="1.7468203"/>
			</g>
		</g>
	</g>
</g>
</svg>
