<?xml version="1.0" encoding="utf-8"?>
<!-- Generator: Adobe Illustrator 25.4.1, SVG Export Plug-In . SVG Version: 6.00 Build 0)  -->
<svg version="1.1" id="图层_1" xmlns="http://www.w3.org/2000/svg" xmlns:xlink="http://www.w3.org/1999/xlink" x="0px" y="0px"
	 viewBox="0 0 28.3464565 28.3464565" style="enable-background:new 0 0 28.3464565 28.3464565;" xml:space="preserve">
<style type="text/css">
	.st0{fill-rule:evenodd;clip-rule:evenodd;fill:#006694;}
</style>
<g>
	<path class="st0" d="M24.9160461,21.0205822c-1.3875713-0.0346107-2.4638577,0.104372-3.3663731,0.4860439
		c-0.2595005,0.1040497-0.6762924,0.1040497-0.7105808,0.4337044c0.1388073,0.1391487,0.1556263,0.3646908,0.2769794,0.5552979
		c0.2084007,0.3472137,0.572773,0.8151245,0.9025097,1.0584755c0.3646889,0.277319,0.7290554,0.5549583,1.1105766,0.7979717
		c0.6766376,0.4164658,1.4399967,0.6594982,2.0991573,1.0756283c0.3821812,0.2430305,0.7633629,0.5556335,1.1455402,0.8158016
		c0.1905918,0.1384888,0.3119335,0.3643665,0.5552788,0.4510784c0-0.0174751,0-0.0349503,0-0.0517654
		c-0.1216736-0.15662-0.1566219-0.3821774-0.2773209-0.5556183c-0.1740952-0.1734524-0.3472118-0.3300762-0.5209885-0.5035152
		c-0.5028591-0.6763134-1.1280499-1.2662201-1.8046818-1.7522621c-0.5552979-0.3815212-1.7697525-0.9021893-1.9952927-1.544199
		c0,0-0.0178127-0.0171528-0.0342903-0.0342884c0.3815041-0.0349655,0.8325977-0.1734562,1.1969662-0.277977
		c0.5902424-0.155983,1.1277313-0.1213551,1.7347889-0.277235c0.2779789-0.0700817,0.5552979-0.1566391,0.8332767-0.2431812
		c0-0.0522709,0-0.1040497,0-0.1563015c-0.3119488-0.3122692-0.5378246-0.7284145-0.8675671-1.0235291
		c-0.884716-0.7636986-1.8568001-1.5095711-2.8631744-2.1341209c-0.5378227-0.3472137-1.2319336-0.5727539-1.8040428-0.8677158
		c-0.2090435-0.1043701-0.5559425-0.1563015-0.6766357-0.3295879c-0.3129272-0.3819256-0.4863644-0.8847847-0.7119179-1.3361158
		c-0.502861-0.9543581-0.988905-2.0128508-1.4225063-3.0190573c-0.3122826-0.6768026-0.5035343-1.3534384-0.884716-1.9782238
		c-1.7875471-2.9497356-3.731061-4.7366252-6.7152576-6.4892931c-0.6420069-0.3642175-1.4053659-0.5204337-2.220829-0.7112613
		c-0.4339457-0.0174739-0.867547-0.0520165-1.301168-0.0694904C6.3157988,3.2184889,6.0384793,2.8888347,5.7954693,2.7325323
		c-0.9889045-0.624449-3.539495-1.9778187-4.2685499-0.1908445C1.0580153,3.6696703,2.2210298,4.7798414,2.6196873,5.3525949
		c0.2954481,0.3992476,0.67697,0.8500896,0.885695,1.30159c0.1206934,0.2947087,0.1556425,0.6072283,0.2773194,0.9192419
		c0.2773197,0.7636151,0.5378234,1.6136861,0.9021909,2.3252015c0.1905913,0.3645372,0.3989773,0.7462101,0.6420064,1.075799
		c0.1388268,0.191081,0.3821812,0.2776375,0.4336209,0.5899067c-0.2430291,0.3469772-0.2598448,0.8676472-0.3986764,1.3013363
		c-0.6251912,1.9606657-0.3821621,4.3897314,0.5028601,5.829896c0.2776585,0.433773,0.9371395,1.388216,1.8218555,1.0236797
		c0.7811532-0.3122654,0.607058-1.3011665,0.8325982-2.1687317c0.0524235-0.2082329,0.0174742-0.3470459,0.1213522-0.486042
		c0,0.017643,0,0.0349636,0,0.0349636c0.2433538,0.4857063,0.4863644,0.9544449,0.7119055,1.4399967
		c0.5378227,0.8502426,1.4749575,1.7352791,2.2557964,2.3250179c0.4164658,0.312603,0.7458696,0.8500042,1.2662191,1.041254
		c0-0.0174751,0-0.0349503,0-0.0521011c-0.0174751,0-0.0174751,0-0.0342903,0
		c-0.1048565-0.15588-0.2605038-0.2259617-0.3993311-0.3469772c-0.3122683-0.312418-0.659481-0.6941071-0.9025106-1.041153
		c-0.7283955-0.9717655-1.3700819-2.0473938-1.9428549-3.1581402c-0.2779732-0.537569-0.5209885-1.1276474-0.7465477-1.6656189
		c-0.1041985-0.2079983-0.1041985-0.5205021-0.2773151-0.6246185c-0.2604895,0.3816729-0.6416721,0.7115822-0.833262,1.180151
		c-0.3297381,0.7460403-0.363708,1.665535-0.4853806,2.6198273c-0.0699124,0.0174732-0.0349488,0-0.0699124,0.0347767
		c-0.5549588-0.1388111-0.7458749-0.7112598-0.9539504-1.1973019c-0.5199952-1.2319164-0.6073871-3.2099028-0.156292-4.6327457
		c0.1213431-0.3642826,0.6423507-1.509572,0.4342656-1.8562946c-0.1048613-0.3298254-0.4510808-0.5206699-0.6423454-0.780921
		c-0.2258558-0.3298244-0.4685512-0.7462091-0.6245322-1.1107454c-0.416132-0.9715109-0.6251912-2.0471401-1.0756278-3.018888
		C3.9558187,5.80369,3.5921104,5.33529,3.2966573,4.9189062C2.9669192,4.4504213,2.6032062,4.1205969,2.3427022,3.5653844
		C2.2559743,3.3745396,2.1343019,3.0623574,2.2734678,2.854039c0.033951-0.1387441,0.1041834-0.1908448,0.2423561-0.2255392
		c0.2255356-0.1908464,0.8682206,0.0519302,1.0937612,0.156049c0.6416819,0.2603347,1.1795051,0.5031958,1.717314,0.8676476
		c0.2430296,0.1735227,0.5035143,0.5030947,0.8154631,0.5899911c0.1216722,0,0.24301,0,0.364687,0
		c0.5552979,0.1215067,1.1795101,0.0346928,1.6998401,0.190845c0.9199848,0.294776,1.7522631,0.7287345,2.4988117,1.197135
		c2.2729321,1.4401484,4.146533,3.4877944,5.4134111,5.9341664c0.2080669,0.3989935,0.2947941,0.7635298,0.4860439,1.1796598
		c0.3640423,0.8503265,0.8157978,1.7179737,1.1798267,2.5509109c0.3643665,0.8153782,0.7115974,1.6483822,1.2319336,2.3251858
		c0.2605038,0.3640442,1.300848,0.5549583,1.7697372,0.7460556c0.3468933,0.1561337,0.884697,0.2947941,1.1969795,0.4857044
		c0.5902271,0.3643684,1.180151,0.7806854,1.7357674,1.1799984C23.9963856,20.2399158,24.8646069,20.6737061,24.9160461,21.0205822
		L24.9160461,21.0205822z"/>
	<path class="st0" d="M7.2179894,5.9426703c-0.2947941,0-0.5028553,0.0347118-0.7109404,0.0867276c0,0,0,0.0171514,0,0.0347095
		c0.0168157,0,0.0168157,0,0.0343046,0C6.6801662,6.3415127,6.9231954,6.5325098,7.0966325,6.775455
		c0.1388316,0.2775555,0.2605038,0.5551109,0.3993354,0.8329349c0.0168157-0.017405,0.0342898-0.0349631,0.0342898-0.0349631
		C7.7732682,7.400157,7.8949451,7.1223488,7.8949451,6.7060323C7.7907429,6.5845256,7.7732682,6.4631038,7.6865592,6.3415127
		C7.5826769,6.1682267,7.3571362,6.0814142,7.2179894,5.9426703L7.2179894,5.9426703z"/>
</g>
</svg>
