<?xml version="1.0" encoding="utf-8"?>
<!-- Generator: Adobe Illustrator 25.4.1, SVG Export Plug-In . SVG Version: 6.00 Build 0)  -->
<svg version="1.1" id="图层_1" xmlns="http://www.w3.org/2000/svg" xmlns:xlink="http://www.w3.org/1999/xlink" x="0px" y="0px"
	 viewBox="0 0 28.3464565 28.3464565" style="enable-background:new 0 0 28.3464565 28.3464565;" xml:space="preserve">
<style type="text/css">
	.st0{fill:#EA1B22;}
</style>
<path class="st0" d="M12.3808479,14.6870146h1.734251l-0.9170027-1.4753342l-1.6830425,2.6674519h-0.7659369l2.0470953-3.2042017
	c0.0889874-0.1294336,0.2373371-0.2076569,0.4018831-0.2076569c0.1591129,0,0.3074617,0.0755062,0.3937845,0.2022743
	l2.0551939,3.2095842h-0.7659359l-0.3613873-0.5960588h-1.7558308l-0.3830194-0.5960588H12.3808479z M20.3373756,15.2830219
	v-2.7834034h-0.6499844v3.0558538c0,0.0836058,0.0323448,0.164547,0.0943699,0.226572s0.1456318,0.0970879,0.2373371,0.0970879
	h2.9641495l0.3830204-0.5960588h-3.028944L20.3373756,15.2830219z M9.5839119,14.78405
	c0.6311731,0,1.1436262-0.5097361,1.1436262-1.1408567c0-0.6311731-0.5124531-1.1436262-1.1436262-1.1436262H6.7403293v3.3796158
	h0.6497803v-2.7834539H9.540802c0.3020792,0,0.5447989,0.2454872,0.5447989,0.5475664
	c0,0.3020277-0.2427197,0.5474644-0.5447989,0.5474644l-1.8324156-0.0026655l1.9402676,1.6910887h0.9440165L9.2872658,14.784153
	h0.2966967L9.5839119,14.78405z M2.7405615,15.8791323c-0.9329442,0.0000505-1.6900643-0.7551727-1.6900643-1.6883726
	c0-0.9332514,0.7571201-1.6910896,1.6900643-1.6910896h1.9643087c0.9331493,0,1.6897058,0.7578382,1.6897058,1.6910896
	c0,0.9332008-0.7565565,1.6883726-1.6897569,1.6883726H2.7405615L2.7405615,15.8791323z M4.6611962,15.2830734
	c0.6044145,0,1.0939541-0.4882069,1.0939541-1.0923653c0-0.6041069-0.4895396-1.0949793-1.0939541-1.0949793H2.7840307
	c-0.6042094,0-1.0940051,0.4908724-1.0940051,1.0950308c0,0.6041069,0.4897957,1.0923138,1.0939538,1.0923138h1.8771658H4.6611962z
	 M17.0037403,15.8791323c-0.9331493,0-1.6910887-0.7551727-1.6910887-1.6883726
	c0-0.9332523,0.7579412-1.6910896,1.6910887-1.6910896h2.3330784l-0.3803539,0.5960588h-1.9095631
	c-0.6041584,0-1.0950308,0.4908724-1.0950308,1.0950308c0,0.6041069,0.4908724,1.0923128,1.0950308,1.0923128h2.3437901
	l-0.3830204,0.5960588h-2.003933L17.0037403,15.8791323z M24.952219,15.2830734c-0.49897,0-0.9224339-0.334425-1.0518684-0.7956686
	h2.7780209l0.3829689-0.5960588h-3.1609898c0.1294346-0.4585266,0.5528984-0.7956171,1.0518684-0.7956171h1.9068985
	l0.385582-0.5961609h-2.3356934c-0.9331989,0-1.6910896,0.7578888-1.6910896,1.6910887
	c0,0.9332523,0.7578907,1.6884241,1.6910896,1.6884241h2.0039845l0.3829689-0.5960073h-2.343792H24.952219z"/>
</svg>
