<?xml version="1.0" encoding="utf-8"?>
<!-- Generator: Adobe Illustrator 25.0.1, SVG Export Plug-In . SVG Version: 6.00 Build 0)  -->
<svg version="1.1" id="图层_1" xmlns="http://www.w3.org/2000/svg" xmlns:xlink="http://www.w3.org/1999/xlink" x="0px" y="0px"
	 viewBox="0 0 28.3464565 28.3464565" style="enable-background:new 0 0 28.3464565 28.3464565;" xml:space="preserve">
<style type="text/css">
	.st0{fill:#FF6A00;}
</style>
<path class="st0" d="M26.9291325,10.5068855c-0.0085564-2.3415527-1.9080391-4.2381825-4.2524433-4.2381825h-6.6795588
	l0.6160479,2.4299684l5.7326698,1.246357c0.5317154,0.1236286,0.9155941,0.5868492,0.9383335,1.1322737
	c0.0028515,0.0142612,0.0028515,6.1633329,0,6.1775942c-0.0227394,0.5454235-0.4066181,1.008646-0.9383335,1.1322727
	l-5.7326698,1.2463589l-0.6160479,2.4328175h6.6795588c2.3415527,0,4.2438869-1.8966293,4.2524452-4.2381821v-7.3212776H26.9291325z
	 M6.003459,18.3928738c-0.5317144-0.1236286-0.9155927-0.5868511-0.9383326-1.1322746
	c-0.002852-0.0171108-0.002852-6.1633329,0-6.1775942c0.0228171-0.5533018,0.4164033-1.0124855,0.9383326-1.1322727
	l5.7326708-1.246357l0.6160488-2.4299684H5.6697664c-2.3415532,0-4.2438874,1.8937783-4.2524438,4.2381825v7.3269796
	c0.0085564,2.3415546,1.91089,4.238184,4.2524438,4.238184h6.6795588l-0.6160479-2.4328194L6.003459,18.3928738L6.003459,18.3928738
	z M11.7332773,13.8637791h4.8770475v0.6074915h-4.8770466L11.7332773,13.8637791z"/>
</svg>
