<?xml version="1.0" encoding="utf-8"?>
<!-- Generator: Adobe Illustrator 25.4.1, SVG Export Plug-In . SVG Version: 6.00 Build 0)  -->
<svg version="1.1" id="图层_1" xmlns="http://www.w3.org/2000/svg" xmlns:xlink="http://www.w3.org/1999/xlink" x="0px" y="0px"
	 viewBox="0 0 28.3464565 28.3464565" style="enable-background:new 0 0 28.3464565 28.3464565;" xml:space="preserve">
<style type="text/css">
	.st0{fill:#FFFFFF;}
	.st1{fill:#336791;}
</style>
<g>
	<path class="st0" d="M27.2084351,16.9706631c-0.0999146-0.4380493-0.3629761-0.7432861-0.7753296-0.9185181
		c-0.3430176-0.145752-0.6999512-0.1384888-1.0588379-0.0828247c-0.3736572,0.0579834-0.7460938,0.1239624-1.1199951,0.1801758
		c-0.1295776,0.0195312-0.2620239,0.0203247-0.3936768,0.0297241c0-0.0160522-0.0015259-0.0210571,0.0002441-0.024353
		c0.0113525-0.0209961,0.0231323-0.041748,0.0352173-0.0623779c0.8751831-1.4909058,1.5996704-3.0517578,2.1630249-4.6862793
		c0.5509644-1.5985107,0.9714966-3.225769,1.0461426-4.9256592c0.0228271-0.5189819-0.0030518-1.0354614-0.111084-1.5452271
		c-0.0952759-0.449707-0.2576294-0.8710327-0.5457153-1.2355347c-1.0932007-1.3829956-2.4972534-2.2868652-4.2053223-2.7171631
		c-0.9786987-0.246582-1.9734497-0.3158569-2.9790039-0.2510376c-0.8340454,0.0537109-1.6533813,0.1914673-2.4564819,0.4244385
		c-0.0362549,0.0105591-0.0774536,0.0127563-0.1151733,0.0084229c-0.3822632-0.0437012-0.7634888-0.098999-1.1466064-0.1325684
		c-0.5950928-0.052063-1.1912231-0.0559692-1.7854004,0.0188599c-0.8137207,0.102478-1.5820312,0.3440552-2.2946167,0.755249
		c-0.0223999,0.0128784-0.0582275,0.0162964-0.083252,0.0089111c-0.2624512-0.0777588-0.5224609-0.1638184-0.7859497-0.2376099
		c-0.854187-0.2390747-1.72229-0.4047241-2.6073608-0.473877C7.4437866,1.060812,6.8983154,1.0593472,6.3527832,1.1115322
		c-0.6113281,0.0585327-1.206665,0.18396-1.7803955,0.40625C3.6723022,1.8666592,2.9224243,2.4161587,2.343811,3.1919765
		C1.8154907,3.9002895,1.5006714,4.7021084,1.3192139,5.560812C1.2155151,6.0514736,1.1604004,6.5482388,1.1390381,7.0488491
		C1.1185913,7.5276699,1.1110229,8.0078335,1.1697998,8.4833584c0.0645142,0.5217896,0.145752,1.0422363,0.2412109,1.5593262
		c0.2744141,1.4863892,0.6335449,2.9529419,1.0726929,4.399353c0.3272095,1.0777588,0.6977539,2.1398926,1.1740112,3.1625366
		c0.3027344,0.6500244,0.6428223,1.2785034,1.0857544,1.8455811c0.3461914,0.4432373,0.7440796,0.8289795,1.2562866,1.0796509
		c0.4319458,0.2114258,0.8859253,0.2896729,1.3630981,0.2140503c0.4176025-0.0662231,0.7860107-0.2440186,1.119873-0.4989014
		c0.0357056-0.0272217,0.0712891-0.0546265,0.1043701-0.0799561c0.0103149,0.0057373,0.0150146,0.006958,0.0176392,0.0100098
		c0.2545166,0.2960815,0.5786133,0.4898682,0.9355469,0.6347656c0.4332886,0.1759644,0.8881226,0.2558594,1.350647,0.3007202
		c0.6604614,0.0641479,1.3071289,0.0006104,1.9371948-0.2119751c0.1064453-0.0358887,0.2105713-0.0785522,0.3353882-0.1254883
		c0,0.1143799-0.0042114,0.2181396,0.0006714,0.3214722c0.0333252,0.7041626,0.0588989,1.4088135,0.105835,2.1120605
		c0.045166,0.6763306,0.1555176,1.3415527,0.3886719,1.9837036c0.1351318,0.3722534,0.2615356,0.74646,0.4706421,1.0859985
		c0.2666626,0.4330444,0.6130981,0.782959,1.0645142,1.0231323c0.6091919,0.3240356,1.260376,0.388855,1.9334106,0.3051758
		c0.4433594-0.0551147,0.8759155-0.1624146,1.3016968-0.2953491c0.5690308-0.1776733,1.0897827-0.4445801,1.5358276-0.8464355
		c0.5414429-0.487793,0.9003906-1.0948486,1.1525269-1.7702637c0.3475952-0.9314575,0.4920654-1.904541,0.5726929-2.8885498
		c0.0392456-0.4790039,0.0535889-0.960022,0.0820312-1.4400024c0.0064087-0.1074219,0.0249023-0.2141113,0.0377808-0.3208618
		c0.0986328,0.0068359,0.187439,0.0158691,0.2763672,0.0185547c0.4732056,0.0145264,0.9431152-0.0203857,1.4116821-0.0873413
		c0.8853149-0.1265259,1.7062378-0.4189453,2.4472046-0.9260864c0.324585-0.222168,0.631958-0.4638672,0.8817139-0.7703247
		c0.2524414-0.3097534,0.4284058-0.649231,0.3905029-1.0668335C27.210022,17.1312466,27.2259521,17.0474453,27.2084351,16.9706631z
		 M22.3811035,18.5144863c-0.2932129,0.0058594-0.5863037-0.0090942-0.8720093-0.0878296
		c-0.1806641-0.0498047-0.1793823-0.0495605-0.180481-0.2373657c-0.0010376-0.1640625,0.0169678-0.3247681,0.0699463-0.480835
		c0.0653687-0.1925049,0.2029419-0.3088379,0.3915405-0.3703003c0.0948486-0.0308838,0.1903076-0.0602417,0.2866211-0.0858765
		c0.0214233-0.0056763,0.0532837-0.0002441,0.0710449,0.0128174c0.2734985,0.2012939,0.5873413,0.2955322,0.9170532,0.3452759
		c0.4063721,0.0613403,0.8151245,0.0620117,1.2218018,0.0134888c0.37854-0.045166,0.7546997-0.1104736,1.131897-0.166687
		c0.0101318-0.0015259,0.0206909-0.0001831,0.050293-0.0001831c-0.0794067,0.0645142-0.1442871,0.1210938-0.2129517,0.1724854
		c-0.5545654,0.414856-1.1720581,0.6789551-1.8578491,0.7871704C23.0605469,18.4698696,22.7220459,18.5077114,22.3811035,18.5144863
		z M20.5634155,18.3521328c-0.0106201,0.1624756-0.0253906,0.324707-0.0419922,0.4866943
		c-0.022644,0.2202759-0.0480957,0.4402466-0.0735474,0.6602783c-0.0323486,0.2802734-0.0653687,0.5605469-0.0990601,0.8406982
		c-0.0316162,0.2629395-0.0638428,0.5258179-0.0968628,0.7885742c-0.0357056,0.2842407-0.0716553,0.5684814-0.109375,0.852417
		c-0.0362549,0.2731934-0.0720825,0.5465088-0.1130981,0.8189697c-0.0803833,0.5338745-0.1399536,1.0718384-0.3118286,1.5879517
		c-0.1529541,0.4591675-0.3944702,0.8554688-0.7976685,1.138916c-0.2769165,0.1946411-0.5845337,0.3239136-0.9061279,0.4219971
		c-0.3012695,0.0919189-0.6064453,0.1691284-0.920105,0.2039795c-0.4069824,0.0452881-0.8071289,0.0270386-1.1868286-0.1505737
		c-0.3262329-0.1525879-0.5690918-0.3964233-0.7576904-0.6971436c-0.2588501-0.4126587-0.4259033-0.8579712-0.4673462-1.3468628
		c-0.0339355-0.4002686-0.0776978-0.7999268-0.1032104-1.2007446c-0.0263672-0.4143677-0.0412598-0.8297119-0.0516968-1.244873
		c-0.0131226-0.5198975-0.0239258-1.0400391-0.0224609-1.5599976c0.0018311-0.6310425,0.0229492-1.2619629,0.0245361-1.8930054
		c0.0006714-0.2509766-0.0818481-0.4871826-0.2028809-0.7068481c-0.227356-0.4127197-0.5690918-0.675293-1.0359497-0.7579346
		c-0.1130981-0.0200195-0.232666-0.0036621-0.3493042-0.0033569c-0.0164795,0.000061-0.0328979,0.0040283-0.0627441,0.0079346
		c0.0359497-0.1185303,0.0666504-0.2283936,0.1026001-0.3365479c0.1775513-0.5341797,0.3845215-1.0567627,0.6192017-1.5686035
		c0.2409668-0.5255737,0.4151001-1.072876,0.5028076-1.6448975c0.0354614-0.2313843,0.0601196-0.4657593,0.0689087-0.699585
		c0.0114136-0.3060913,0.0140991-0.6135864-0.0014648-0.9193115c-0.0157471-0.3097534-0.0454102-0.6200562-0.0922852-0.9265137
		c-0.0606079-0.3963623-0.1296997-0.7926025-0.2218018-1.1826172c-0.1162109-0.4918823-0.3693848-0.9031372-0.8018799-1.1863403
		c-0.2592773-0.1697998-0.5469971-0.2623291-0.8530273-0.2991943c-0.6029053-0.0725708-1.1796265,0.0477905-1.7461548,0.2406616
		c-0.3071289,0.1045532-0.6036377,0.2334595-0.8887939,0.3883667c-0.0170288,0.0092773-0.034729,0.017395-0.0524902,0.0253296
		C9.510376,8.491415,9.5054321,8.4893398,9.493042,8.4880581c0.0111084-0.1184082,0.0159912-0.237793,0.0345459-0.3550415
		c0.0570679-0.3598633,0.1065063-0.7216187,0.1821899-1.0776978c0.1872559-0.8814087,0.4874878-1.7211914,0.9765625-2.4844971
		c0.5551147-0.8664551,1.2971191-1.5037842,2.281189-1.838501c0.3630981-0.1234741,0.7364502-0.1987915,1.1188354-0.2329712
		c0.4894409-0.0437622,0.9771118-0.0290527,1.4645996,0.026062c1.3722534,0.1552734,2.5979004,0.6652832,3.6721802,1.5311279
		c0.9868164,0.7953491,1.7393188,1.7791748,2.2932129,2.9158325c0.1101685,0.2260742,0.1970825,0.4633789,0.2943115,0.6956787
		c0.0056763,0.0134888,0.0075073,0.0286255,0.0133057,0.0515747c-0.0982056-0.0072021-0.1905518-0.0159302-0.2831421-0.0204468
		c-0.5740356-0.027832-1.144104-0.0166016-1.6887207,0.1997681c-0.6793823,0.2698364-1.071228,0.7706909-1.1810303,1.4915771
		c-0.0731812,0.4804688-0.0117188,0.9526367,0.0994873,1.4207153c0.1819458,0.7653809,0.4820557,1.4868164,0.8360596,2.1853027
		c0.2927246,0.5775757,0.6096802,1.1427612,0.9127808,1.7150879c0.083313,0.1572876,0.1569214,0.3197632,0.232666,0.480896
		c0.2042847,0.4346313,0.4849854,0.8184204,0.7863159,1.1888428c0.0466309,0.057251,0.0906372,0.1166382,0.1414185,0.182251
		c-0.032959,0.0125732-0.0596313,0.0245361-0.0873413,0.0331421c-0.5913696,0.1834106-0.9108276,0.5973511-0.9987183,1.1968994
		C20.5668335,17.9773159,20.5755005,18.1660366,20.5634155,18.3521328z M13.7480469,18.2221889
		c-0.012085,0.0496826-0.0296631,0.1017456-0.0585938,0.1430664c-0.3639526,0.5195312-0.8353271,0.8983765-1.4471436,1.0881348
		c-0.3997803,0.1240234-0.8092651,0.1481934-1.2246094,0.1132202c-0.2713013-0.0227661-0.5385132-0.0680542-0.7977905-0.149353
		c-0.1290283-0.0404663-0.2510376-0.1035156-0.3762207-0.1563721c0.0012817-0.0129395,0.0025635-0.0258179,0.0038452-0.0387573
		c0.1690674-0.0447998,0.336853-0.0950928,0.5073853-0.1333008c0.3724976-0.083374,0.7462158-0.1602173,1.1039429-0.2984619
		c0.3227539-0.1248169,0.5853882-0.3275146,0.8002319-0.5969238c0.1586304-0.1989136,0.3190918-0.3964844,0.4841309-0.5900269
		c0.0643921-0.0754395,0.1401367-0.142334,0.2168579-0.2056885c0.0742188-0.0612183,0.1622925-0.0620117,0.2537231-0.0375977
		c0.2410889,0.0644531,0.3884277,0.2289429,0.4820557,0.4494629C13.75177,17.9413662,13.7828369,18.0790005,13.7480469,18.2221889z
		 M6.5501099,19.0828457c-0.2180786-0.133728-0.3964233-0.3111572-0.5585327-0.5062256
		C5.6486816,18.1639004,5.387146,17.7001553,5.1494751,17.22225c-0.4801025-0.9655151-0.8383789-1.9784546-1.1613159-3.0047607
		c-0.3793335-1.2054443-0.690918-2.428833-0.9487915-3.6654053C2.9211426,9.9853115,2.8224487,9.4143276,2.7230225,8.843832
		C2.618042,8.241415,2.6009521,7.6329556,2.6311646,7.0236416c0.0342407-0.6905518,0.1389771-1.3687744,0.388916-2.0183105
		C3.3295898,4.2009487,3.831604,3.5568447,4.5875244,3.1246548C5.0028076,2.887228,5.4501953,2.7376919,5.9177856,2.6465054
		C6.3866577,2.5551357,6.8612671,2.520956,7.3380127,2.5313931c0.4301758,0.0093994,0.8584595,0.0485229,1.284729,0.111084
		c0.7426758,0.1090088,1.4677734,0.2904663,2.1828613,0.5151978c0.0059814,0.0018921,0.0110474,0.0067139,0.0202637,0.0124512
		c-0.0036011,0.0066528-0.0057983,0.0145874-0.0108643,0.0196533c-0.6078491,0.6104126-1.0445557,1.3312378-1.3709717,2.1234131
		C9.1900024,5.9297085,9.0146484,6.5691738,8.890625,7.2232265C8.805603,7.6715908,8.7421875,8.123251,8.7206421,8.5792446
		C8.7053833,8.9027309,8.6841431,9.2278652,8.7008667,9.550436c0.0319214,0.6173706,0.0615234,1.2344971,0.0426636,1.852356
		c-0.0107422,0.3536987-0.0426636,0.7070312-0.072998,1.0598145c-0.0292358,0.3395386-0.0934448,0.6760864-0.0806274,1.019043
		c0.041687,1.1185913,0.4586792,2.0662842,1.2863159,2.8272095c0.0111694,0.0103149,0.022644,0.0203857,0.0337524,0.0307617
		c0.0031738,0.0029907,0.0056152,0.0066528,0.0146484,0.0175781c-0.1136475,0.1235962-0.2279663,0.2427979-0.3366089,0.3669434
		c-0.5734863,0.6547852-1.1454468,1.3109131-1.7180786,1.9664917c-0.1264038,0.1447144-0.2631836,0.2775269-0.425293,0.3831787
		C7.1477051,19.267416,6.8505249,19.2669888,6.5501099,19.0828457z M12.0664062,16.4286098
		c-0.4813843-0.024292-0.9279175-0.1595459-1.3300171-0.4266357c-0.7159424-0.4755859-1.144104-1.1448364-1.3175049-1.9820557
		c-0.0820923-0.3963013-0.0723877-0.7927856-0.0175781-1.192627c0.0412598-0.3008423,0.0661011-0.6046753,0.083374-0.90802
		c0.0201416-0.3537598,0.0366211-0.7086792,0.0317993-1.0627441C9.5103149,10.4066372,9.4827271,9.9569912,9.460022,9.5074673
		C9.4570312,9.4478359,9.4849243,9.420126,9.5244141,9.3913784c0.2616577-0.1905518,0.5481567-0.3358154,0.8447876-0.4623413
		c0.3326416-0.1419067,0.6755981-0.2514648,1.032959-0.3088989c0.3129883-0.050293,0.6273804-0.0649414,0.9372559,0.0233765
		c0.3575439,0.1019287,0.6005249,0.3357544,0.7134399,0.68396c0.0818481,0.2525635,0.1359253,0.5157471,0.1829834,0.77771
		c0.0587769,0.3265381,0.1068115,0.6556396,0.1421509,0.9854736c0.0300903,0.2806396,0.0355835,0.5639038,0.052002,0.8460083
		c0.0007324,0.8729248-0.1841431,1.703186-0.5502319,2.4941406c-0.2630005,0.5682373-0.489563,1.1507568-0.6766968,1.7483521
		c-0.0194092,0.0620728-0.0383911,0.1247559-0.0507812,0.1884155
		C12.1420898,16.4198208,12.1156616,16.4311123,12.0664062,16.4286098z M17.9697876,2.3684902
		c0.3676758-0.0474854,0.7349243-0.0982056,1.1030884-0.1415405c0.3809204-0.0447998,0.7641602-0.0505981,1.1468506-0.0369873
		c1.2139282,0.0430908,2.3632202,0.3200684,3.4085693,0.9622803c0.6299438,0.3869629,1.1676636,0.87677,1.6199341,1.4605713
		c0.1448975,0.1870117,0.2079468,0.4093628,0.2520752,0.6364746c0.0898438,0.4622192,0.0905151,0.928833,0.057373,1.3964844
		c-0.0965576,1.3607178-0.428772,2.6708984-0.8580322,3.9589844c-0.6182251,1.8552856-1.4475098,3.6118164-2.4862061,5.269043
		c-0.0125122,0.0200195-0.0255127,0.0397339-0.0435791,0.067688c-0.0355225-0.0445557-0.072937-0.081543-0.0967407-0.1257935
		c-0.0103149-0.0192261,0.0003052-0.0574341,0.0133057-0.0802612c0.1481934-0.2593994,0.270752-0.5299683,0.3591919-0.8153687
		c0.1156616-0.3731689,0.1750488-0.7553711,0.1934204-1.1459351c0.0184326-0.3925781-0.0111694-0.7818604-0.0530396-1.1710815
		c-0.0429077-0.399353-0.1002808-0.7976685-0.1263428-1.197998c-0.0194702-0.2983398-0.0186157-0.6009521,0.0082397-0.8985596
		c0.038147-0.4230957,0.1133423-0.8426514,0.163147-1.2648926c0.0289917-0.2456665,0.0407715-0.4934082,0.057312-0.7403564
		c0.0077515-0.1147461,0.0081787-0.2299805,0.0125122-0.3449707c0.007019-0.185791-0.043335-0.3618774-0.0983276-0.5354614
		c-0.2259521-0.7134399-0.5641479-1.3730469-0.9689331-2.0001831c-0.5134277-0.7956543-1.128418-1.5014648-1.8596802-2.1046143
		c-0.5415039-0.4466553-1.1316528-0.8154907-1.7703857-1.1066895c-0.0114746-0.005249-0.0228271-0.0109253-0.0342407-0.0163574
		C17.9694824,2.3847866,17.9696045,2.3766689,17.9697876,2.3684902z M21.737915,11.904501
		c0.0474243,0.4163208,0.0995483,0.8327026,0.1271973,1.2505493c0.0419312,0.6345825-0.0073853,1.2598877-0.2683716,1.852478
		c-0.007019,0.0158691-0.0144043,0.0315552-0.0220337,0.0471191c-0.0027466,0.0056763-0.0066528,0.0108032-0.0174561,0.0280762
		c-0.0344849-0.0664062-0.0684814-0.1222534-0.0935669-0.1818848c-0.1809082-0.4301147-0.4226074-0.8283081-0.645874-1.2362061
		c-0.3853149-0.7038574-0.7518921-1.4165649-1.0343628-2.1694336c-0.1512451-0.4030762-0.2782593-0.8132935-0.3414307-1.2404785
		c-0.043457-0.2938843-0.057312-0.5890503,0.0108643-0.8812256c0.0945435-0.4053345,0.3584595-0.6538086,0.7436523-0.786377
		c0.2382812-0.0819702,0.4852905-0.1170044,0.7352295-0.1286011c0.3111572-0.0145264,0.621582,0.0045776,0.9312134,0.0379028
		c0.0449829,0.0048218,0.0654297,0.0210571,0.0597534,0.0700073c-0.0372925,0.3233643-0.0719604,0.6470947-0.109314,0.970459
		c-0.0408936,0.3534546-0.0904541,0.7060547-0.1240234,1.0602417C21.6478882,11.0342617,21.6884155,11.4696255,21.737915,11.904501z
		"/>
	<path class="st0" d="M12.7827148,9.5262661C12.8276367,9.4367275,12.8135376,9.3464565,12.75,9.2704067
		c-0.0355835-0.0426025-0.0792847-0.081665-0.1265259-0.1106567c-0.2077026-0.1276245-0.4403076-0.1633911-0.6752319-0.1757812
		c-0.1557617,0.0079346-0.3086548,0.0149536-0.4393921,0.1066284c-0.0481567,0.0338135-0.1148071,0.0597534-0.109375,0.1357422
		c0.0045166,0.0640259,0.0004883,0.1361084,0.0288696,0.1893921c0.0502319,0.0942993,0.1112671,0.1882935,0.1872559,0.2624512
		c0.1872559,0.1824341,0.413147,0.2737427,0.6773071,0.2128296C12.5066528,9.8416958,12.6810303,9.7285976,12.7827148,9.5262661z"/>
	<path class="st0" d="M21.0077515,8.8285732c-0.1939697-0.0466309-0.3876953-0.0352173-0.5806885,0.0080566
		c-0.1345215,0.0302124-0.2637329,0.0736694-0.3739624,0.1599731c-0.1185303,0.0928345-0.1364136,0.1968384-0.0473022,0.3167114
		c0.1356201,0.182312,0.3215942,0.2719727,0.4938354,0.2803345c0.3182983-0.0001831,0.6270142-0.2157593,0.7174683-0.463562
		c0.0420532-0.1149902,0.0131836-0.1975098-0.0945435-0.2572632C21.0869751,8.8530483,21.0473022,8.8380947,21.0077515,8.8285732z"
		/>
</g>
<g>
	<g>
		<path class="st1" d="M12.8781538,16.5992146c0.0359907-0.1185722,0.0666676-0.2284279,0.102602-0.3365345
			c0.1775742-0.5342093,0.3845205-1.056778,0.6192122-1.5686035c0.2409954-0.5255785,0.415122-1.0729084,0.5028238-1.6448946
			c0.0354795-0.2314005,0.0601406-0.4658098,0.0688753-0.6996279c0.0114346-0.3060875,0.0141048-0.6135492-0.0014353-0.9193029
			c-0.0157423-0.3097172-0.0453987-0.6200428-0.0922785-0.9265347c-0.0606213-0.3963318-0.1297369-0.7925816-0.2218409-1.1825733
			c-0.1161766-0.4919157-0.3693628-0.9031582-0.8018484-1.1863775c-0.2592993-0.169806-0.5469828-0.2622991-0.8530245-0.2991524
			c-0.6029072-0.0726018-1.1796513,0.0477767-1.7461796,0.2406502c-0.3071136,0.104558-0.6036024,0.2334642-0.8887463,0.3883457
			c-0.0170689,0.0092697-0.0347834,0.0174084-0.052536,0.0253115c-0.0033751,0.001503-0.008357-0.0006018-0.0207233-0.0018854
			c0.011117-0.1183672,0.0159483-0.2377796,0.0345325-0.3550119C9.5846338,7.7731662,9.6340961,7.4114127,9.7097578,7.055336
			c0.1872902-0.881423,0.4874811-1.7211947,0.9765635-2.4845362c0.55513-0.8664248,1.2971458-1.5037601,2.2812176-1.83847
			c0.3630838-0.1234949,0.7364378-0.1987739,1.1188402-0.2329714c0.489418-0.0437686,0.9770803-0.0290766,1.4645691,0.0260813
			c1.3722773,0.1552684,2.5979204,0.6652794,3.6721792,1.5311036c0.9868469,0.795372,1.7393208,1.7791548,2.2932281,2.9158492
			c0.1101418,0.2260242,0.1970863,0.4633584,0.2943077,0.6956539c0.0056591,0.0135198,0.0075302,0.0286245,0.0133343,0.0515785
			C21.725769,7.712429,21.633419,7.7036958,21.5408611,7.6992059c-0.5740337-0.0278521-1.1441288-0.0166044-1.6887646,0.1997428
			c-0.6793461,0.2698593-1.0712299,0.7706881-1.1810188,1.4915733c-0.0731735,0.480463-0.0117283,0.9526186,0.0995197,1.4206915
			c0.181921,0.7654181,0.4820518,1.4868622,0.8360481,2.1853294c0.2927151,0.5775461,0.6096516,1.1427822,0.9127865,1.7151003
			c0.0832939,0.1572561,0.1568947,0.3197241,0.2326469,0.4808836c0.204298,0.4346294,0.4850101,0.81845,0.7863331,1.188817
			c0.0466061,0.0572853,0.0906162,0.116684,0.1413898,0.1822948c-0.0329266,0.0125809-0.0596275,0.0245209-0.0873623,0.033123
			c-0.5913391,0.1833858-0.91078,0.5973568-0.998682,1.196888c-0.0269299,0.1836796-0.0182686,0.3723831-0.0303707,0.5584946
			c-0.0105648,0.1624546-0.0253563,0.3247128-0.0419788,0.4866791c-0.0226059,0.2202816-0.0481014,0.4402752-0.0735092,0.6602612
			c-0.0323792,0.2803192-0.0654144,0.560564-0.0990925,0.8407326c-0.0316048,0.2629337-0.0638332,0.525795-0.0968533,0.7885551
			c-0.0357189,0.2842388-0.0716686,0.5684586-0.1093769,0.8524418c-0.036272,0.2731857-0.0721073,0.5464802-0.113121,0.8189774
			c-0.0803509,0.5338573-0.1399174,1.0718384-0.3118267,1.5879269c-0.1529541,0.4591789-0.3944473,0.8554783-0.7976685,1.1389294
			c-0.2768917,0.194643-0.5845318,0.3238983-0.9061279,0.4219933c-0.3012543,0.0918884-0.6064472,0.169138-0.9200687,0.2039928
			c-0.4070091,0.0452404-0.8071709,0.0270081-1.1868143-0.150568c-0.3262892-0.1526165-0.5691004-0.3964443-0.7577267-0.6971531
			c-0.2588453-0.4126549-0.4259052-0.8580055-0.4673347-1.3468742c-0.0339212-0.4003048-0.0776873-0.7999363-0.1032114-1.2007465
			c-0.0263929-0.4144039-0.0412397-0.8297424-0.0517187-1.2449093c-0.0131197-0.5198746-0.0239344-1.0400124-0.022439-1.5599995
			c0.0018158-0.6310043,0.0229187-1.2619534,0.024539-1.8929558c0.0006437-0.2509747-0.0818558-0.4872017-0.2028885-0.7068844
			c-0.2273769-0.4126987-0.5690889-0.6752701-1.035943-0.7579136c-0.1131039-0.0200233-0.2326956-0.0036602-0.3493013-0.0033379
			C12.9244604,16.5913372,12.9080057,16.5953083,12.8781538,16.5992146z"/>
		<path class="st1" d="M9.9246283,16.3571911c-0.1136684,0.1236153-0.2279453,0.2428265-0.3366299,0.3669338
			c-0.573451,0.6548233-1.1454535,1.310915-1.7180467,1.9664898c-0.1264157,0.1447372-0.2632298,0.2775345-0.4253244,0.383215
			c-0.2969198,0.1935844-0.5941305,0.1931629-0.8944983,0.0089912c-0.2181025-0.1337318-0.3964686-0.3111057-0.5585594-0.5061951
			c-0.3428884-0.4126987-0.6044197-0.8764439-0.8420825-1.3543949c-0.4801016-0.9655075-0.8384185-1.9784508-1.1613507-3.0047398
			c-0.3793004-1.2054224-0.6908832-2.4288073-0.9487791-3.6654377C2.9211593,9.9852867,2.8224413,9.4143038,2.7230096,8.8438177
			c-0.1049914-0.6023846-0.1220288-1.210834-0.0918405-1.820159c0.0342138-0.6905675,0.138943-1.3687859,0.3889163-2.018352
			c0.3095334-0.804337,0.8115232-1.4484468,1.5674362-1.880635c0.4152808-0.2374346,0.8626957-0.3869793,1.3302813-0.4781361
			c0.4688458-0.0914021,0.9434357-0.1255918,1.4201894-0.1151702c0.4302206,0.0094044,0.858458,0.0485632,1.284761,0.1111267
			c0.7426491,0.1089902,1.4677334,0.2904787,2.182826,0.5151978c0.0060015,0.0018859,0.0110865,0.0066862,0.0203104,0.0124409
			c-0.0035973,0.0066657-0.0058289,0.0145562-0.0108852,0.0196335c-0.6078691,0.6104062-1.0445757,1.3312275-1.3709593,2.1233981
			c-0.254034,0.6165671-0.4293919,1.25599-0.5534096,1.910078c-0.0850086,0.44835-0.1484346,0.8999953-0.1699677,1.35601
			c-0.0152721,0.3234606-0.0365276,0.6486177-0.019824,0.9711885c0.0319681,0.6173525,0.0615549,1.2345142,0.0427132,1.8523359
			c-0.0107861,0.3537207-0.0427008,0.707037-0.0730515,1.0598526c-0.0292063,0.3395061-0.0933962,0.6760712-0.0806179,1.0190058
			c0.0416822,1.1186361,0.4586954,2.0663052,1.2863111,2.8272562c0.0112076,0.0103054,0.0226421,0.0203648,0.0337734,0.0307503
			C9.9131269,16.3425827,9.9155827,16.3462753,9.9246283,16.3571911z"/>
		<path class="st1" d="M17.9697742,2.3685036c0.3676643-0.0474763,0.7349453-0.0981941,1.103096-0.1415327
			c0.380928-0.0448422,0.764183-0.0505943,1.1468258-0.037008c1.2139778,0.0431039,2.3632736,0.3200517,3.4086227,0.9622502
			c0.6299095,0.3869758,1.1676521,0.876801,1.6199226,1.4606214c0.1448593,0.1869955,0.2079296,0.4093356,0.2520733,0.6364412
			c0.0898476,0.462255,0.0905342,0.9288459,0.0573483,1.3965087c-0.0965576,1.3607121-0.4287643,2.6708794-0.8580036,3.9589939
			c-0.6182289,1.8552494-1.4474964,3.6117802-2.4861984,5.2690506c-0.012537,0.0200043-0.0255547,0.0397072-0.0435848,0.0676775
			c-0.0355625-0.0445576-0.072958-0.0815477-0.0967751-0.1258383c-0.0103226-0.0191908,0.00033-0.0574312,0.0133495-0.0802231
			c0.148159-0.2593956,0.2707481-0.5299931,0.3591919-0.8153791c0.1156521-0.3731747,0.1750526-0.7553596,0.1934013-1.1459131
			c0.0184479-0.3926077-0.0111561-0.7819014-0.0530243-1.1711273c-0.0429516-0.3993034-0.1002998-0.7976189-0.126379-1.1979942
			c-0.0194283-0.2983036-0.0186081-0.6009607,0.0082359-0.8985176c0.038168-0.4230909,0.1133804-0.8427038,0.1631947-1.2649317
			c0.0289803-0.245635,0.0407124-0.4933777,0.0573044-0.7403679c0.0077057-0.1147423,0.0081539-0.2299614,0.0125008-0.3449411
			c0.0070229-0.1858101-0.0433369-0.3618598-0.0983257-0.535449c-0.2259922-0.7134266-0.5641537-1.3730454-0.968914-2.0002069
			c-0.5134811-0.7956157-1.1284695-1.5014768-1.8596935-2.1046031c-0.5415001-0.4466388-1.1316891-0.8154936-1.7703838-1.1067023
			c-0.011507-0.0052469-0.0228367-0.0108912-0.0342464-0.01635C17.9694672,2.3848088,17.9696217,2.3766563,17.9697742,2.3685036z"/>
		<path class="st1" d="M13.4299803,11.9366655c0.000761,0.8729486-0.1841116,1.7031775-0.5502138,2.4941244
			c-0.2630367,0.5682764-0.4895496,1.1507444-0.6766768,1.7483959c-0.0194321,0.0620632-0.0383968,0.1247101-0.0507994,0.188406
			c-0.0101719,0.052248-0.036602,0.0635395-0.0858955,0.0610466c-0.4813948-0.024334-0.9278889-0.159565-1.3300171-0.4266758
			c-0.7159595-0.4755726-1.1441107-1.1448393-1.3174877-1.9820261c-0.0820742-0.3963118-0.0723696-0.7928238-0.0175648-1.1926231
			c0.0412464-0.3008928,0.0660973-0.6046906,0.0833502-0.908042c0.0201225-0.3537903,0.0366526-0.7086735,0.0318155-1.0627708
			C9.5103455,10.406621,9.4827394,9.9569769,9.4600391,9.5074482C9.4570284,9.4478455,9.484952,9.4201221,9.5244198,9.3913765
			C9.786068,9.2008018,10.0725746,9.055563,10.3692026,8.929019c0.3326302-0.1419029,0.6755962-0.2514696,1.0329571-0.3088913
			c0.3130035-0.0502958,0.627368-0.0649424,0.9372368,0.0233831c0.3575373,0.1019125,0.6005278,0.3357286,0.7134314,0.683938
			c0.0819063,0.2526054,0.1359348,0.5157967,0.1830425,0.7777462c0.0587177,0.3265133,0.1067867,0.6556129,0.1421328,0.9854517
			C13.4080772,11.3712873,13.4135971,11.6545591,13.4299803,11.9366655z M11.9482594,8.9839754
			c-0.1558075,0.0079002-0.3086767,0.0149431-0.439393,0.1066341c-0.0481977,0.0338097-0.1148129,0.0597277-0.1094093,0.1357565
			c0.00455,0.0640182,0.0004854,0.1360846,0.0288582,0.1893368c0.0502586,0.0943289,0.111268,0.1883459,0.1873112,0.2624512
			c0.1872253,0.182456,0.4131126,0.2737446,0.6772766,0.2128334c0.2137222-0.0492802,0.3881235-0.1623611,0.4897947-0.3647461
			c0.04496-0.0894966,0.0308609-0.1797924-0.03269-0.2558613c-0.0355721-0.0425797-0.07932-0.0816135-0.1265259-0.1106224
			C12.4157829,9.0321255,12.1831942,8.9963484,11.9482594,8.9839754z"/>
		<path class="st1" d="M21.5572262,15.0827522c-0.0344639-0.0664415-0.0684776-0.122282-0.093544-0.1818857
			c-0.180891-0.4301224-0.4226265-0.8283482-0.6458931-1.2362108c-0.3852997-0.7038717-0.7518997-1.416604-1.0343513-2.1694269
			c-0.1512508-0.4031305-0.2782555-0.8133144-0.3414116-1.2405119c-0.0434513-0.2939091-0.0573235-0.5890532,0.010849-0.8812332
			c0.0945683-0.405303,0.3584862-0.6538124,0.7436543-0.7863483c0.2383137-0.0820017,0.4852791-0.1170006,0.7352409-0.1286459
			c0.3111782-0.0144968,0.6215916,0.0046244,0.9311981,0.0379009c0.0449734,0.0048342,0.0654259,0.0210714,0.0597687,0.0700569
			c-0.0373249,0.32337-0.0719662,0.6470499-0.1093445,0.9704142c-0.0408592,0.3534842-0.0904064,0.7061014-0.1240253,1.0602484
			c-0.0415001,0.4371614-0.0009651,0.8725433,0.0485611,1.3074093c0.0474129,0.4163151,0.0995426,0.8326912,0.1271591,1.2505236
			c0.0419407,0.6345673-0.0073605,1.2598982-0.2683754,1.8524647c-0.0069885,0.0158672-0.0143929,0.0315599-0.0219841,0.0471487
			C21.5719624,15.0603323,21.5680733,15.0654631,21.5572262,15.0827522z M20.4996243,9.5936518
			c0.3183193-0.0001745,0.6270142-0.2157888,0.7175045-0.4635391c0.0419979-0.1149893,0.0131645-0.1975384-0.0945988-0.2573099
			c-0.0355778-0.0197325-0.075201-0.0346937-0.1148052-0.0442162c-0.1939392-0.046629-0.3876743-0.0352402-0.5806618,0.0080471
			c-0.1345482,0.03018-0.2637348,0.0736475-0.3739777,0.1599865c-0.118494,0.0928001-0.1363964,0.1968164-0.047266,0.3166656
			C20.1414127,9.495616,20.3273754,9.5853071,20.4996243,9.5936518z"/>
		<path class="st1" d="M9.8475332,19.2221184c0.1690502-0.0447998,0.3368731-0.0950871,0.5074043-0.1332741
			c0.3724508-0.0834045,0.7462187-0.1602287,1.1039295-0.2985039c0.3227558-0.1247616,0.5853682-0.3275089,0.80023-0.5969238
			c0.1586199-0.1988945,0.3191042-0.3964443,0.4841576-0.5899887c0.0643415-0.0754471,0.14011-0.1423569,0.216836-0.2056866
			c0.0742025-0.0612507,0.1623106-0.0620193,0.2536917-0.03759c0.2410965,0.0644569,0.3884726,0.2289047,0.4820662,0.4494362
			c0.0559349,0.1317978,0.0870094,0.2694263,0.0521774,0.41259c-0.0120897,0.0496922-0.0296631,0.1017857-0.0585871,0.1430779
			c-0.3639374,0.5195599-0.8353357,0.8983841-1.4471121,1.0881577c-0.3997803,0.1240139-0.8092966,0.1481514-1.2246017,0.1132183
			c-0.2713108-0.0228176-0.5385103-0.0680637-0.7977858-0.1493702c-0.1290627-0.0404739-0.2510433-0.1035271-0.3762264-0.1563663
			C9.844986,19.2479687,9.8462601,19.2350445,9.8475332,19.2221184z"/>
		<path class="st1" d="M25.4688168,17.4569798c-0.0794144,0.0645428-0.1442642,0.1210785-0.2129612,0.172472
			c-0.554533,0.4148636-1.17206,0.6789913-1.8578148,0.7871895c-0.3374767,0.0532494-0.6759987,0.0910854-1.0169086,0.0978622
			c-0.2932281,0.0058308-0.5863304-0.0091-0.8720169-0.0878315c-0.1807041-0.0498028-0.1793957-0.0495987-0.1805305-0.2373753
			c-0.0009918-0.1640701,0.0170097-0.3247776,0.069994-0.4808159c0.0653744-0.1925335,0.2029381-0.3088779,0.3915138-0.3703346
			c0.0948334-0.0309029,0.1902905-0.0602455,0.2866421-0.0858612c0.0213966-0.0056896,0.053297-0.0002441,0.0710011,0.0127869
			c0.2735233,0.2013378,0.5873947,0.295536,0.9170971,0.345314c0.4063416,0.0613461,0.8151245,0.062027,1.221777,0.0134964
			c0.3785477-0.0451756,0.7546921-0.1105042,1.1319294-0.1667118
			C25.4286728,17.4556599,25.4392262,17.4569798,25.4688168,17.4569798z"/>
	</g>
</g>
</svg>
