<?xml version="1.0" encoding="utf-8"?>
<!-- Generator: Adobe Illustrator 25.0.1, SVG Export Plug-In . SVG Version: 6.00 Build 0)  -->
<svg version="1.1" id="图层_1" xmlns="http://www.w3.org/2000/svg" xmlns:xlink="http://www.w3.org/1999/xlink" x="0px" y="0px"
	 viewBox="0 0 28.3464565 28.3464565" style="enable-background:new 0 0 28.3464565 28.3464565;" xml:space="preserve">
<style type="text/css">
	.st0{fill:#252F3E;}
	.st1{fill:#FF9900;}
</style>
<g>
	<path class="st0" d="M8.606801,12.085928c0,0.3139429,0.0339403,0.5684919,0.0933342,0.7551613
		c0.0678797,0.1866684,0.152729,0.3903084,0.2715187,0.6109171c0.0424252,0.0678787,0.0593948,0.1357594,0.0593948,0.1951542
		c0,0.0848494-0.050909,0.1696997-0.1612148,0.254549l-0.5345516,0.3563681
		c-0.0763645,0.05091-0.15273,0.0763645-0.2206087,0.0763645c-0.0848503,0-0.1696992-0.0424242-0.2545495-0.1187887
		c-0.1187892-0.1272755-0.2206087-0.2630348-0.3054585-0.3987932c-0.0848498-0.1442442-0.1696997-0.305459-0.2630339-0.5006123
		c-0.6618266,0.7806158-1.4933529,1.1709242-2.4945779,1.1709242c-0.7127366,0-1.2812293-0.20364-1.6969922-0.610918
		c-0.4157631-0.4072771-0.6278872-0.9503155-0.6278872-1.6291113c0-0.7212219,0.2545488-1.3066845,0.7721314-1.7479019
		c0.5175827-0.4412193,1.2048647-0.661828,2.0788152-0.661828c0.2884889,0,0.5854621,0.0254545,0.899406,0.0678806
		c0.3139434,0.0424242,0.6363716,0.1103039,0.9757705,0.1866684V9.4725599c0-0.6448574-0.1357598-1.0945597-0.3987937-1.3575935
		C6.5279856,7.8519325,6.0697975,7.7246585,5.4164562,7.7246585c-0.2969742,0-0.6024323,0.0339394-0.9163761,0.1103039
		C4.1861367,7.9113269,3.8806779,8.0046625,3.5837045,8.1234512C3.4479449,8.1828461,3.3461254,8.2167854,3.2867308,8.2337551
		C3.2273359,8.2507257,3.1849113,8.2592106,3.1509714,8.2592106c-0.1187897,0-0.178184-0.0848494-0.178184-0.2630343V7.5804138
		c0-0.1357594,0.0169697-0.2375789,0.0593944-0.2969732c0.0424247-0.0593953,0.1187897-0.1187897,0.2375789-0.1781845
		c0.2969737-0.1527295,0.653342-0.2800035,1.0691051-0.3818231c0.4157629-0.1103048,0.8569808-0.1612144,1.3236537-0.1612144
		c1.0097098,0,1.7479019,0.229094,2.2230597,0.6872816C8.352252,7.7076883,8.5898314,8.4034548,8.5898314,9.3368006v2.7491274
		H8.606801z M5.1619072,13.3756418c0.2800031,0,0.5684919-0.05091,0.8739505-0.15273
		c0.3054585-0.1018181,0.5769773-0.2884874,0.8060718-0.5430374c0.1357594-0.1612139,0.2375784-0.3393984,0.2884879-0.5430374
		c0.05091-0.203639,0.0848498-0.4497023,0.0848498-0.7381916v-0.3563681
		c-0.2460637-0.0593939-0.5090976-0.1103039-0.7806163-0.1442442s-0.5345526-0.050909-0.7975864-0.050909
		c-0.5684919,0-0.9842553,0.1103039-1.2642593,0.3393984c-0.2800031,0.2290926-0.4157624,0.5515223-0.4157624,0.97577
		c0,0.3987932,0.1018195,0.6957664,0.3139434,0.8994055C4.4746251,13.2738228,4.7715988,13.3756418,5.1619072,13.3756418z
		 M11.9753304,14.2920179c-0.152729,0-0.25455-0.0254555-0.3224287-0.0848494
		c-0.0678797-0.05091-0.1272755-0.1696997-0.1781836-0.3309145L9.480752,7.31738
		c-0.05091-0.1696992-0.0763645-0.2800035-0.0763645-0.3393984c0-0.1357589,0.0678797-0.2121243,0.2036381-0.2121243h0.8315268
		c0.1612139,0,0.2715187,0.0254555,0.3309145,0.0848498c0.0678787,0.05091,0.1187887,0.1696992,0.1696978,0.330914
		l1.4254732,5.617044l1.3236542-5.617044c0.0424252-0.1696992,0.0933342-0.280004,0.1612139-0.330914
		c0.0678806-0.0509095,0.1866693-0.0848498,0.3393993-0.0848498h0.6787958c0.1612139,0,0.2715197,0.0254555,0.3393984,0.0848498
		c0.0678797,0.05091,0.1272755,0.1696992,0.1612139,0.330914l1.3406229,5.6849227l1.4678993-5.6849227
		c0.0509109-0.1696992,0.1103039-0.280004,0.1696987-0.330914c0.0678806-0.0509095,0.1781845-0.0848498,0.3309135-0.0848498
		h0.7891026c0.1357594,0,0.2121239,0.0678802,0.2121239,0.2121243c0,0.0424247-0.0084858,0.0848498-0.0169697,0.1357594
		c-0.0084839,0.05091-0.0254555,0.1187897-0.0593948,0.2121239l-2.0448761,6.5588741
		c-0.0509109,0.1696997-0.1103039,0.2800035-0.1781826,0.3309145c-0.0678806,0.050909-0.1781845,0.0848484-0.3224297,0.0848484
		h-0.7297058c-0.1612148,0-0.2715187-0.0254545-0.3393993-0.0848484c-0.0678797-0.0593948-0.1272736-0.1697006-0.1612139-0.3393993
		l-1.3151693-5.4727993l-1.3066835,5.4643145c-0.0424252,0.1696997-0.0933342,0.2800035-0.1612139,0.3393993
		c-0.0678797,0.0593939-0.1866693,0.0848494-0.3393984,0.0848494H11.9753304z M22.8785019,14.5211115
		c-0.4412155,0-0.8824329-0.05091-1.3066826-0.152729c-0.4242477-0.10182-0.7551613-0.2121239-0.975771-0.3393984
		c-0.1357574-0.0763655-0.2290916-0.1612148-0.2630329-0.2375793c-0.0339394-0.0763655-0.050909-0.1612139-0.050909-0.2375793
		v-0.4327316c0-0.1781845,0.0678806-0.2630348,0.1951542-0.2630348c0.0509109,0,0.1018181,0.0084848,0.1527271,0.0254555
		c0.0509109,0.0169697,0.1272755,0.05091,0.2121239,0.0848494c0.2884903,0.1272745,0.6024342,0.2290936,0.9333477,0.2969732
		c0.3393993,0.0678806,0.670311,0.101819,1.0097103,0.101819c0.5345516,0,0.9503155-0.0933332,1.2388039-0.2800026
		c0.2884903-0.1866693,0.4412174-0.458189,0.4412174-0.8060722c0-0.2375784-0.0763645-0.4327326-0.2290936-0.5939465
		s-0.4412174-0.3054581-0.8569794-0.4412184l-1.23032-0.3818235c-0.6194038-0.1951532-1.0775909-0.4836426-1.3575954-0.8654661
		C20.5112,9.625289,20.3669567,9.2095261,20.3669567,8.7683077c0-0.3563681,0.0763645-0.670311,0.2290916-0.9418302
		c0.152729-0.2715187,0.356369-0.5090976,0.610918-0.6957669c0.254549-0.1951542,0.5430374-0.3393979,0.8824368-0.4412179
		c0.3393974-0.1018195,0.6957664-0.1442442,1.0691032-0.1442442c0.1866703,0,0.3818245,0.0084853,0.5684929,0.0339398
		c0.1951561,0.025455,0.3733387,0.0593948,0.5515232,0.0933347c0.1697006,0.0424247,0.3309155,0.0848494,0.4836426,0.1357594
		c0.1527309,0.0509095,0.2715187,0.1018195,0.356369,0.152729c0.1187897,0.0678797,0.20364,0.1357598,0.2545471,0.2121243
		c0.0509109,0.0678797,0.0763664,0.1612144,0.0763664,0.280004v0.3987927c0,0.1781845-0.0678806,0.2715187-0.1951542,0.2715187
		c-0.0678806,0-0.1781845-0.0339403-0.3224277-0.101819c-0.4836426-0.2206092-1.0266819-0.330914-1.6291142-0.330914
		c-0.4836426,0-0.8654652,0.0763645-1.1285,0.2375789c-0.2630329,0.1612139-0.3987923,0.4072781-0.3987923,0.7551622
		c0,0.2375774,0.0848484,0.4412174,0.254549,0.6024313c0.1696987,0.1612148,0.4836426,0.3224287,0.9333458,0.4666729
		l1.2048645,0.3818235c0.6109161,0.1951542,1.0521336,0.4666729,1.3151703,0.8145561
		c0.263031,0.3478832,0.3903084,0.7466764,0.3903084,1.1878939c0,0.3648539-0.0763683,0.6957674-0.2206116,0.9842567
		c-0.152729,0.2884884-0.356369,0.5430374-0.6194019,0.7466755c-0.2630329,0.2121239-0.5769768,0.3648529-0.9418297,0.4751577
		C23.7100296,14.4617167,23.3112373,14.5211115,22.8785019,14.5211115z"/>
	<path class="st1" d="M24.4821606,18.6448021C21.690609,20.706646,17.634798,21.8012085,14.14748,21.8012085
		c-4.8873377,0-9.2910318-1.8072987-12.617136-4.8109741c-0.2630337-0.2375774-0.0254549-0.5600071,0.2884887-0.3733387
		c3.5976236,2.0873013,8.0352583,3.3515606,12.6256218,3.3515606c3.0970097,0,6.4994793-0.6448574,9.6304302-1.9685116
		C24.5415573,17.7878208,24.9403496,18.3054047,24.4821606,18.6448021z M25.6446018,17.3211479
		c-0.356369-0.4581871-2.35882-0.2206097-3.2667122-0.1103039c-0.2715168,0.0339394-0.31394-0.20364-0.0678787-0.3818245
		c1.5951729-1.1200142,4.2170258-0.7975864,4.5224838-0.4242477c0.3054581,0.3818226-0.0848484,3.0036774-1.5782013,4.2594509
		c-0.2290936,0.1951542-0.4497032,0.0933342-0.3478851-0.1612148
		C25.2458076,19.6629982,26.0009689,17.7708511,25.6446018,17.3211479z"/>
</g>
</svg>
