<?xml version="1.0" encoding="utf-8"?>
<!-- Generator: Adobe Illustrator 25.4.1, SVG Export Plug-In . SVG Version: 6.00 Build 0)  -->
<svg version="1.1" id="图层_1" xmlns="http://www.w3.org/2000/svg" xmlns:xlink="http://www.w3.org/1999/xlink" x="0px" y="0px"
	 viewBox="0 0 41.1737099 31.1811028" style="enable-background:new 0 0 41.1737099 31.1811028;" xml:space="preserve">
<style type="text/css">
	.st0{fill:#D9F4F2;}
	.st1{fill:#2A8B92;}
	.st2{fill:#EBF7F6;}
</style>
<g>
	<g>
		<path class="st0" d="M35.4164467,10.6300907V3.975806c0-0.6300094-0.5107231-1.1407328-1.1407318-1.1407328H6.8981695
			c-0.6300092,0-1.1407328,0.5107234-1.1407328,1.1407328v6.6542845"/>
		<path class="st1" d="M35.4160995,11.2299557c-0.3310547,0-0.5996094-0.2685547-0.5996094-0.6000977V3.9760492
			c0-0.2983398-0.2431641-0.5410156-0.5410156-0.5410156H6.8980317c-0.2983398,0-0.5405273,0.2426758-0.5405273,0.5410156v6.6538086
			c0,0.331543-0.2685547,0.6000977-0.6000977,0.6000977S5.1573091,10.961401,5.1573091,10.629858V3.9760492
			c0-0.9599609,0.7807617-1.7412109,1.7407227-1.7412109h27.3774433c0.9599609,0,1.7402344,0.78125,1.7402344,1.7412109v6.6538086
			C36.0157089,10.961401,35.7471542,11.2299557,35.4160995,11.2299557z"/>
	</g>
	<g>
		<path class="st2" d="M34.4997673,28.3468838H6.6741171c-0.5354061,0-0.9987655-0.3723583-1.1139989-0.895216l-3.2806015-15.218379
			c-0.1568925-0.7118816,0.3850336-1.3862486,1.1139987-1.3862486h34.3868523c0.7289658,0,1.2708893,0.674367,1.1139984,1.3862486
			l-3.2806015,15.218379C35.4985313,27.9745255,35.0351715,28.3468838,34.4997673,28.3468838z"/>
		<path class="st1" d="M34.5000839,28.9462643H6.6739106c-0.8105469,0-1.5253906-0.5742188-1.699707-1.3652344L1.6929538,12.3598385
			c-0.1137695-0.5151367,0.0117188-1.0493164,0.34375-1.4624023s0.8266602-0.6503906,1.3569336-0.6503906h34.3867188
			c0.5292969,0,1.0244141,0.2368164,1.3564453,0.6499023s0.4580078,0.9472656,0.34375,1.4648438l-3.2802734,15.2163086
			C36.0215683,28.3847408,35.3233261,28.9462643,34.5000839,28.9462643z M3.3936374,11.4472408
			c-0.1645508,0-0.3183594,0.0737305-0.4213867,0.2021484c-0.1035156,0.128418-0.1420898,0.2939453-0.1069336,0.4550781
			l3.2812498,15.2216797c0.0537109,0.2421875,0.2758789,0.4208984,0.5273438,0.4208984h27.8261738
			c0.2558594,0,0.4726562-0.1748047,0.5273438-0.4238281l3.2802734-15.2163086
			c0.0361328-0.1630859-0.0029297-0.3291016-0.1064453-0.4580078c-0.1025391-0.1279297-0.2568359-0.2016602-0.4208984-0.2016602
			H3.3936374z"/>
	</g>
	<g>
		<g>
			<path class="st1" d="M11.2876806,20.4882565l1.4160156-0.0986328c0.0302734,0.2558594,0.0927734,0.4501953,0.1870117,0.5839844
				c0.1533203,0.2167969,0.3725586,0.3251953,0.6572266,0.3251953c0.2124023,0,0.3759766-0.0556641,0.4912109-0.1660156
				c0.1147461-0.1113281,0.1723633-0.2392578,0.1723633-0.3857422c0-0.1386719-0.0546875-0.2626953-0.1640625-0.3720703
				c-0.1098633-0.109375-0.3637695-0.2128906-0.762207-0.3105469c-0.652832-0.1630859-1.1181641-0.3789062-1.3964844-0.6494141
				c-0.2802734-0.2705078-0.4204102-0.6142578-0.4204102-1.0332031c0-0.2753906,0.0717773-0.5351562,0.215332-0.7792969
				c0.1430664-0.2446289,0.3588867-0.4365234,0.6469727-0.5766602s0.6826172-0.2099609,1.1845703-0.2099609
				c0.6152344,0,1.0844727,0.1274414,1.4077148,0.3813477c0.3227539,0.2543945,0.5151367,0.6591797,0.5766602,1.2138672
				l-1.402832,0.0917969c-0.0375977-0.2412109-0.1157227-0.4160156-0.2348633-0.5263672
				c-0.1196289-0.109375-0.2841797-0.1640625-0.4946289-0.1640625c-0.1733398,0-0.3032227,0.0410156-0.3911133,0.1220703
				c-0.0874023,0.0820312-0.1313477,0.1816406-0.1313477,0.2978516c0,0.0849609,0.0361328,0.1621094,0.1083984,0.2294922
				c0.0703125,0.0712891,0.2368164,0.1367188,0.4995117,0.1972656c0.6503906,0.15625,1.1162109,0.3134766,1.3979492,0.4726562
				c0.28125,0.1601562,0.4863281,0.3574219,0.6142578,0.59375s0.1923828,0.5,0.1923828,0.7919922
				c0,0.3427734-0.0854492,0.6591797-0.2563477,0.9492188c-0.1708984,0.2890625-0.409668,0.5087891-0.7163086,0.6591797
				c-0.3066406,0.1494141-0.6933594,0.2236328-1.159668,0.2236328c-0.8193359,0-1.3867188-0.1748047-1.7021484-0.5253906
				C11.5078955,21.473608,11.3291845,21.0282955,11.2876806,20.4882565z"/>
			<path class="st1" d="M16.4126797,16.9072018h3.6796875v1.1503906h-2.1850586v0.9335938h1.8662109v1.0810547h-1.8662109v2.1865234
				h-1.4946289V16.9072018z"/>
			<path class="st1" d="M20.5557461,16.9072018h4.5244141v1.3212891h-1.5185547v4.0302734h-1.487793v-4.0302734h-1.5180664
				V16.9072018z"/>
			<path class="st1" d="M25.7471523,16.9072018h2.4736328c0.5390625,0,0.9423828,0.1425781,1.2109375,0.4272461
				s0.4023438,0.6899414,0.4023438,1.215332c0,0.5400391-0.1464844,0.9628906-0.4384766,1.2666016
				c-0.2919922,0.3046875-0.7392578,0.4560547-1.3388672,0.4560547h-0.8144531v1.9863281h-1.4951172V16.9072018z
				 M27.2422695,19.1884518h0.3642578c0.2871094,0,0.4882812-0.0546875,0.6044922-0.1660156
				c0.1162109-0.1103516,0.1738281-0.2519531,0.1738281-0.4248047c0-0.1679688-0.0498047-0.3105469-0.1503906-0.4267578
				c-0.1015625-0.1171875-0.2910156-0.1757812-0.5683594-0.1757812h-0.4238281V19.1884518z"/>
		</g>
	</g>
</g>
</svg>
