<?xml version="1.0" encoding="utf-8"?>
<!-- Generator: Adobe Illustrator 25.0.1, SVG Export Plug-In . SVG Version: 6.00 Build 0)  -->
<svg version="1.1" id="图层_1" xmlns="http://www.w3.org/2000/svg" xmlns:xlink="http://www.w3.org/1999/xlink" x="0px" y="0px"
	 viewBox="0 0 25.8921452 25.5897961" style="enable-background:new 0 0 25.8921452 25.5897961;" xml:space="preserve">
<style type="text/css">
	.st0{fill:#014C7A;}
</style>
<g>
	<g>
		<path class="st0" d="M10.0050983,18.003828c0.132412,0.1332359,0.2246838,0.3785839,0.2782545,0.621376
			c0.0268707,0.1217804-0.0662909,0.2371445-0.191,0.2371445h-0.000001c-0.0886688,0-0.1664629-0.0595856-0.1884766-0.1454773
			c-0.0434933-0.1697044-0.107604-0.3496265-0.1939306-0.4213333c-0.1085739-0.0930176-0.2477179-0.1353226-0.4173498-0.1353226
			c-0.2544479,0-0.4445133,0.1057606-0.5734406,0.3255196c-0.1187096,0.1945286-0.1764431,0.4650879-0.1764431,0.8116722
			c0,0.3551655,0.0577335,0.6299706,0.1730375,0.8201675c0.1256027,0.20294,0.3223982,0.3086147,0.5869818,0.3086147
			c0.1731186,0,0.315587-0.0549622,0.4241619-0.1563892c0.0899887-0.0890408,0.1593122-0.2140942,0.2080097-0.3731041
			c0.0257483-0.0840759,0.0985985-0.1426964,0.1828804-0.1426964h0.000001c0.1282158,0,0.2212772,0.1302147,0.1839228,0.2587109
			c-0.0677385,0.2330132-0.1751871,0.4224033-0.3237715,0.5698662c-0.1865797,0.1860352-0.4105387,0.2790527-0.6717987,0.2790527
			c-0.4037275,0-0.7056913-0.160635-0.9024878-0.4734974c-0.1730375-0.2705574-0.2578535-0.6341324-0.2578535-1.0907249
			c0-0.4480972,0.0882215-0.815834,0.2679892-1.0948868c0.2036076-0.3212719,0.4987602-0.4776592,0.885622-0.4776592
			C9.584343,17.7248611,9.8219252,17.8177929,10.0050983,18.003828z"/>
		<path class="st0" d="M12.0592108,17.9204216l0.9074869,2.9412079h-0.4443598l-0.2309723-0.756712h-1.0628624l-0.2310572,0.756712
			h-0.4442749l0.9074869-2.9412079c0.0374632-0.1165371,0.145874-0.1955605,0.2682848-0.1955605h0.0619831
			C11.9133358,17.7248611,12.0217476,17.8038845,12.0592108,17.9204216z M12.1669178,19.6990395l-0.3980637-1.441473h-0.0142717
			l-0.4016314,1.441473H12.1669178z"/>
		<path class="st0" d="M14.8635225,17.9446201c0.1339035,0.1179008,0.2577753,0.4028683,0.3213205,0.677269
			c0.030757,0.1328163-0.0701694,0.2597008-0.2064991,0.2597008h-0.000001c-0.093092,0-0.175601-0.0605164-0.2022524-0.1497116
			c-0.0540161-0.1807785-0.1438007-0.3958244-0.2147255-0.4574928c-0.0924234-0.0845222-0.23454-0.1225796-0.4193859-0.1225796
			c-0.159956,0-0.2808361,0.0254002-0.3661232,0.0802765c-0.1066942,0.0634556-0.1563883,0.1691303-0.1563883,0.3128605
			c0,0.1268272,0.0568295,0.232502,0.1777096,0.3086147c0.0532627,0.0338078,0.1990318,0.0972652,0.4336567,0.1860352
			c0.3448019,0.1268253,0.565155,0.2282524,0.664629,0.2958717c0.220439,0.1564732,0.330615,0.3720684,0.330615,0.6510372
			c0,0.2705574-0.0888548,0.4861526-0.2665644,0.6426258c-0.1777105,0.1521416-0.430089,0.232502-0.7535686,0.232502
			c-0.3127766,0-0.5581055-0.0718651-0.7322474-0.2155972c-0.1695299-0.1411057-0.2783699-0.4504871-0.3248587-0.764679
			c-0.0188189-0.1271877,0.0799799-0.2415218,0.2085533-0.2415218l0,0c0.1012669,0,0.1883888,0.0719299,0.2065105,0.1715622
			c0.0359354,0.1975784,0.0953741,0.4091415,0.1799278,0.4837208c0.0995579,0.0845242,0.2523785,0.1310749,0.4621143,0.1310749
			c0.184845,0,0.3340979-0.0380573,0.4407072-0.1099224c0.1066933-0.0761127,0.1635237-0.1732922,0.1635237-0.3001194
			c0-0.1607208-0.0817194-0.2874622-0.2381077-0.3804798c-0.0497789-0.0296459-0.2133036-0.0972652-0.4941397-0.1986923
			c-0.3127766-0.1184158-0.5082397-0.2029381-0.5829086-0.2536526c-0.1954641-0.1394844-0.2914553-0.3424225-0.2914553-0.6087322
			c0-0.2663956,0.0924234-0.4777451,0.2843189-0.6299706c0.1777954-0.1478939,0.4017172-0.219759,0.6754179-0.219759
			C14.4618912,17.7248611,14.6964312,17.7967262,14.8635225,17.9446201z"/>
		<path class="st0" d="M17.4225636,18.003828c0.1376057,0.1321659,0.2153778,0.3746548,0.2622623,0.61553
			c0.0245228,0.1259995-0.0726376,0.2429924-0.2010002,0.2429924l0,0c-0.0960197,0-0.1789474-0.0667763-0.1994324-0.1605835
			c-0.0360699-0.165163-0.0832787-0.3366451-0.1710377-0.406229c-0.1137447-0.0930176-0.2595139-0.1353226-0.4372253-0.1353226
			c-0.2665634,0-0.4656811,0.1057606-0.6007481,0.3255196c-0.1243629,0.1945286-0.184845,0.4650879-0.184845,0.8116722
			c0,0.3551655,0.060482,0.6299706,0.1812782,0.8201675c0.1315823,0.20294,0.3377514,0.3086147,0.614933,0.3086147
			c0.1813641,0,0.330616-0.0549622,0.4443607-0.1563892c0.0953827-0.090086,0.1686039-0.2881222,0.2197056-0.4797974
			c0.0235691-0.0884037,0.1026764-0.1501713,0.19417-0.1501713l0,0c0.1318703,0,0.227684,0.1247444,0.1948872,0.2524719
			c-0.0704994,0.2745552-0.1852074,0.5381699-0.3457661,0.6902733c-0.1954632,0.1860352-0.430088,0.2790527-0.7037888,0.2790527
			c-0.4229527,0-0.7392979-0.160635-0.9454651-0.4734974c-0.1812773-0.2705574-0.270133-0.6341324-0.270133-1.0907249
			c0-0.4480972,0.0924234-0.815834,0.2807512-1.0948868c0.2133036-0.3212719,0.5225124-0.4776592,0.9277954-0.4776592
			C16.9817715,17.7248611,17.2306671,17.8177929,17.4225636,18.003828z"/>
	</g>
	<polygon class="st0" points="12.9681988,12.6619949 4.6673098,21.5501862 12.9013948,1.0608537 21.2248363,21.5501804 	"/>
	<g>
		<path class="st0" d="M12.9460726,25.3647404c-6.9310308,0-12.5698414-5.6388111-12.5698414-12.5698423
			S6.0150418,0.2250565,12.9460726,0.2250565S25.5159149,5.8638673,25.5159149,12.794898
			S19.8771038,25.3647404,12.9460726,25.3647404z M12.9460726,1.0079321c-6.4993281,0-11.7869663,5.2876377-11.7869663,11.7869663
			s5.2876377,11.7869654,11.7869663,11.7869654s11.7869654-5.2876377,11.7869654-11.7869654
			S19.4454002,1.0079321,12.9460726,1.0079321z"/>
	</g>
	<g>
		<path class="st0" d="M12.9461155,23.9171028c-6.1328654,0-11.1222525-4.9893856-11.1222525-11.1221666
			c0-6.1328645,4.9893875-11.1222525,11.1222525-11.1222525c6.1327801,0,11.1221676,4.9893875,11.1221676,11.1222525
			C24.0682831,18.9277172,19.0788956,23.9171028,12.9461155,23.9171028z M12.9461155,2.1076148
			c-5.8929739,0-10.6873217,4.7943487-10.6873217,10.6873217S7.0531416,23.482172,12.9461155,23.482172
			s10.6872368-4.7942619,10.6872368-10.6872358S18.8390884,2.1076148,12.9461155,2.1076148z"/>
	</g>
	<g>
		<path class="st0" d="M12.9460726,22.7822056c-5.5069723,0-9.9872694-4.4802971-9.9872694-9.9872694
			c0-5.5070572,4.4802971-9.9873543,9.9872694-9.9873543s9.9872694,4.4802971,9.9872694,9.9873543
			C22.933342,18.3019085,18.4530449,22.7822056,12.9460726,22.7822056z M12.9460726,3.0685403
			c-5.363071,0-9.7263107,4.3632402-9.7263107,9.7263956c0,5.3630705,4.3632402,9.7263117,9.7263107,9.7263117
			s9.7263117-4.3632412,9.7263117-9.7263117C22.6723843,7.4317803,18.3091431,3.0685403,12.9460726,3.0685403z"/>
	</g>
</g>
</svg>
