<?xml version="1.0" encoding="utf-8"?>
<!-- Generator: Adobe Illustrator 25.4.1, SVG Export Plug-In . SVG Version: 6.00 Build 0)  -->
<svg version="1.1" id="图层_1" xmlns="http://www.w3.org/2000/svg" xmlns:xlink="http://www.w3.org/1999/xlink" x="0px" y="0px"
	 viewBox="0 0 28.2999992 28.2999992" style="enable-background:new 0 0 28.2999992 28.2999992;" xml:space="preserve">
<style type="text/css">
	.st0{fill:#31BEF0;}
</style>
<g>
	<path class="st0" d="M12.3999996,10.6999998c0.3000002-0.3000002,0.5-0.6999998,0.5-1.1000004V3.8c0-0.8-0.6999998-1.5-1.5-1.5
		C10.6000004,2.3,10,3,10,3.8v3.3L7.0999999,5.4000001C6.4000001,5,5.5,5.1999998,5.0999999,5.9000001
		c-0.5,0.6999998-0.3000002,1.5999999,0.5,2C5.6999998,7.9000001,5.6999998,8,5.6999998,8l5,2.8999996
		C11.1999998,11.1999998,12,11.1000004,12.3999996,10.6999998L12.3999996,10.6999998z M10.3000002,14.1999998
		C10.3000002,13.5999994,10,13.0999994,9.5,12.8999996L4.5,10c-0.7-0.5-1.5999999-0.3000002-2,0.5
		c-0.5,0.6999998-0.3,1.6000004,0.5,2c0-0.1000004,0,0,0,0l2.9000001,1.6999998L3,15.8000002
		c-0.7,0.4000006-1,1.3000002-0.5999999,1.999999c0.4000001,0.7999992,1.3,1,2,0.6000004c0.0999999,0,0.0999999,0,0.0999999,0
		L9.5,15.5C10,15.1999998,10.3000002,14.6999998,10.3000002,14.1999998L10.3000002,14.1999998z M12.8999996,18.7000008V24.5
		c0,0.7999992-0.6999998,1.5-1.5,1.5s-1.5-0.7000008-1.5-1.5v-3.2999992L7.0999999,23c-0.6999998,0.5-1.5999999,0.2999992-2-0.5
		c-0.5-0.7000008-0.3000002-1.6000004,0.5-2c0.0999999,0,0.0999999-0.1000004,0.0999999-0.1000004l5-2.8999996
		c0.6999998-0.3999996,1.6999998-0.2000008,2.0999994,0.6000004C12.8000002,18.2999992,12.8999996,18.5,12.8999996,18.7000008
		L12.8999996,18.7000008L12.8999996,18.7000008z M15.5,18.8999996v5.6999989c0,0.7999992,0.7000008,1.5,1.5,1.5
		s1.5-0.7000008,1.5-1.5v-3.2999992l2.7999992,1.6000004c0.7000008,0.5,1.6000004,0.2999992,2-0.5
		c0.5-0.7000008,0.2999992-1.6000004-0.5-2c-0.1000004,0-0.1000004-0.1000004-0.1000004-0.1000004l-5-2.8999996
		C16.9999981,17,16.0999985,17.1999989,15.6999989,18C15.5,18.2999992,15.3999996,18.6000004,15.5,18.8999996L15.5,18.8999996
		L15.5,18.8999996z M18.1000004,14.1999998c0-0.6000004,0.2999992-1.1000004,0.7999992-1.3000002l5-2.8999996
		c0.7000008-0.5,1.6000004-0.3000002,2,0.5c0.5,0.6999998,0.2999992,1.6000004-0.5,2
		c-0.1000004,0-0.1000004,0.1000004-0.1000004,0.1000004l-2.8999996,1.6999998L25.2999992,16
		c0.7000008,0.3999996,1,1.2999992,0.6000004,2s-1.2999992,1-2,0.6000004c-0.1000004,0-0.1000004-0.1000004-0.1000004-0.1000004
		l-5-2.8999996C18.2999992,15.1999998,18,14.6999998,18.1000004,14.1999998L18.1000004,14.1999998z M15.5,9.5V3.8
		c0-0.8,0.7000008-1.5,1.5-1.5s1.5,0.7,1.5,1.5V7l2.7999992-1.5999999c0.7000008-0.5,1.6000004-0.3000002,2,0.5
		c0.5,0.6999998,0.2999992,1.5999999-0.5,2C22.6999989,7.9000001,22.6999989,8,22.6999989,8l-5,2.8999996
		c-0.7000008,0.3999996-1.6000004,0.1999998-2-0.6000004C15.5,10.1000004,15.3999996,9.8000002,15.5,9.5L15.5,9.5L15.5,9.5z
		 M14.8000002,11.6000004C14.6999998,11.5,14.6000004,11.4000006,14.4000006,11.4000006h-0.5
		c-0.1999998,0-0.3000002,0.1000004-0.3999996,0.1999998l-2,2C11.4000006,13.7000008,11.3000011,13.8000002,11.3000011,14v0.5
		c0,0.1999998,0.1000004,0.3000002,0.1999998,0.3999996l2,2C13.6000013,17,13.7000008,17.1000004,13.9000006,17.1000004h0.5
		c0.1999998,0,0.3000002-0.1000004,0.3999996-0.2000008l1.999999-2c0.1000004-0.1000004,0.1000004-0.3000002,0.1000004-0.3999996V14
		c0-0.1999998-0.1000004-0.3000002-0.2000008-0.3999996L14.8000002,11.6000004L14.8000002,11.6000004L14.8000002,11.6000004z
		 M14.5,13.3000002c-0.1000004-0.1000004-0.1999998-0.1000004-0.3000002-0.1000004l0,0
		c-0.1000004,0-0.1999998,0.1000004-0.3000002,0.1000004l-0.6000004,0.6000004
		c-0.1000004,0.1000004-0.1000004,0.1999998-0.1000004,0.3000002l0,0c0,0.1000004,0.1000004,0.1999998,0.1000004,0.3000002L14,15
		c0,0.1000004,0.1999998,0.1000004,0.3000002,0.1000004l0,0C14.4000006,15.1000004,14.5,15,14.6000004,15l0.6000004-0.6000004
		c0.1000004-0.1000004,0.1000004-0.1999998,0.1000004-0.3000002l0,0c0-0.1000004-0.1000004-0.1999998-0.1000004-0.3000002
		L14.5,13.3000002L14.5,13.3000002z"/>
</g>
</svg>
