<?xml version="1.0" encoding="utf-8"?>
<!-- Generator: Adobe Illustrator 25.4.1, SVG Export Plug-In . SVG Version: 6.00 Build 0)  -->
<svg version="1.1" id="图层_1" xmlns="http://www.w3.org/2000/svg" xmlns:xlink="http://www.w3.org/1999/xlink" x="0px" y="0px"
	 viewBox="0 0 28.3464565 28.3464565" style="enable-background:new 0 0 28.3464565 28.3464565;" xml:space="preserve">
<style type="text/css">
	.st0{fill:#CFD8DC;}
	.st1{fill:#B71C1C;}
</style>
<g>
	<path class="st0" d="M13.2426605,6.2868438c-1.0990791-1.6482825-1.3366632-3.8511539-1.3884878-4.7563972
		C9.0623903,2.1341665,6.2887778,3.2170932,6.4489622,4.0146494C6.4691534,4.114933,6.595686,4.2354074,6.805675,4.3525176
		L6.4772296,4.9400845c-0.4011335-0.2247963-0.6266031-0.4839182-0.68785-0.7935181
		C5.6083307,3.2440152,6.6306834,2.427614,8.9136467,1.6502489c1.5587683-0.5310313,3.1309977-0.8480346,3.197629-0.8608224
		l0.4018068-0.0807651V1.11989c0,0.0282679,0.017498,2.8860095,1.2895508,4.7940874L13.2426605,6.2868438z"/>
	<path class="st0" d="M14.364624,27.6377945h-0.1689339c-5.5135708,0-11.6497059-1.731739-12.3745728-4.6298656
		c-0.4421895-1.7701035,1.0041807-3.7259674,4.1822915-5.6542358l0.3499827,0.5747776
		c-2.8597612,1.7357788-4.2374802,3.4809818-3.8787484,4.9165821c0.6292953,2.5158348,6.4443893,4.0840263,11.5447111,4.1190243
		c0.606411-0.9065895,3.8646145-6.2323799,2.0049953-13.3753891l0.6508331-0.1696072
		c2.1194134,8.1384392-2.1658525,14.0242043-2.2089272,14.0827579L14.364624,27.6377945z"/>
	<path class="st0" d="M4.3901229,25.1515732c-0.3627701,0-0.5424728-0.0397091-0.5720873-0.0471134
		c-0.1184552-0.0289402-0.2113357-0.1198025-0.2436411-0.2369118c-0.032979-0.1171093,0.0006733-0.2429676,0.0868223-0.3284435
		c0.0484588-0.0484581,4.8438931-4.8512974,5.4913607-8.7347565l0.66362,0.1103783
		c-0.5566063,3.3409882-3.8464422,7.1497383-5.1528192,8.5523605c1.3050313-0.074707,4.6002517-0.6858311,10.9261837-4.2267113
		c-4.9367714-0.5411263-5.7175016-4.4932375-5.7255793-4.5356388l0.661602-0.1218204
		c0.0316334,0.1655693,0.8251505,4.0456638,6.2216129,4.0456638c0.002018,0,0.0033646,0,0.0053844,0l0,0
		c0.1527786,0,0.2853699,0.1023026,0.3244057,0.2490253c0.0403824,0.1467247-0.024229,0.3021965-0.1554737,0.3789253
		C9.3598747,24.6373672,5.6931343,25.1508999,4.3901229,25.1515732z"/>
	<path class="st0" d="M7.481411,26.7628403c-0.1393199,0-0.2658525-0.0861492-0.3149848-0.2187405
		C7.1132555,26.4020882,7.161715,26.24123,7.2855549,26.1523876c0.0228839-0.0168266,1.2202272-0.9005318,2.494298-2.8456268
		c-0.4899759-0.2167187-0.9860086-0.4697857-1.4780035-0.7652512c-0.5976615-0.3587322-1.049274-0.7437115-1.3864689-1.1381149
		c-1.7297211,0.4563236-3.3261795,0.6366978-4.7281294,0.5175705l0.0565357-0.6703491
		c1.2626295,0.1070137,2.6982305-0.0424023,4.2543068-0.430748c-1.0586972-1.8091393-0.0868225-3.6048183-0.0733619-3.6290493
		l0.5882397,0.3277721c-0.0450945,0.0821114-0.8513999,1.5951138,0.1675873,3.1182098
		c1.4813685-0.4253635,3.0616736-1.054657,4.6971688-1.872406c0.3762312-1.2350349,0.670352-2.6396751,0.8244791-4.2240181
		c0.0107689-0.1083603,0.0726881-0.2046061,0.166914-0.2591219c0.0942259-0.0545168,0.2093172-0.0592279,0.3082533-0.0141344
		c0.0215378,0.0100956,2.1968136,1.0035076,3.7717342,1.6516485c0.114418,0.0471134,0.1938381,0.1534548,0.206625,0.2766199
		c0.0134602,0.123167-0.0424023,0.2429695-0.1453781,0.3129654c-1.5405951,1.0499477-3.0710955,1.9605751-4.5618868,2.7204418
		c-0.472476,1.4975204-1.0573502,2.7439957-1.6550131,3.7629833c2.4916058,0.9308186,4.6540937,0.9449539,4.6816883,0.9449539
		c0.1534548,0,0.2873898,0.1036472,0.3257532,0.2523899c0.0383625,0.1487427-0.0282679,0.3042164-0.1622038,0.3789234
		c-3.0556164,1.6974144-7.9197001,2.1752758-8.1249771,2.1947956C7.5029478,26.762167,7.4921794,26.7628403,7.481411,26.7628403z
		 M10.4327059,23.5773239c-0.6999655,1.0862923-1.3878155,1.8663483-1.9020205,2.375843
		c1.3447399-0.1978741,3.7024107-0.6313152,5.6589479-1.43964C13.2527571,24.3984375,11.896574,24.1426811,10.4327059,23.5773239z
		 M7.6449604,21.197443c0.2645059,0.2638321,0.5942974,0.5216103,1.0028343,0.7672691
		c0.4953594,0.2974873,0.9981232,0.5498772,1.4941559,0.7639046c0.5074739-0.8507271,1.0102377-1.8717327,1.441658-3.0744629
		C10.2233887,20.3016224,8.9028778,20.8185215,7.6449604,21.197443z M13.3220797,15.0714045
		c-0.1379738,1.1899405-0.3506556,2.2755594-0.6144886,3.2642603c1.1172523-0.595644,2.2573872-1.2760906,3.4069452-2.0366306
		C15.0719929,15.8575182,13.9258003,15.3439865,13.3220797,15.0714045z"/>
	<path class="st0" d="M9.7697573,5.8311934c-0.0787458,0-0.1568184-0.0282679-0.2187395-0.0807652
		C8.4674187,4.8229742,7.1920013,2.935761,7.1381578,2.855669C7.0513353,2.7271178,7.064796,2.5554917,7.1691175,2.4410741
		C7.2727666,2.3259838,7.4437194,2.299062,7.5783277,2.3724239c0.0074034,0.0020189,0.6313148,0.2591219,4.8573537,0.9631248
		c0.1218204,0.0201914,0.2221041,0.1049948,0.2624865,0.2207582c0.0410557,0.1157634,0.0148067,0.2449877-0.0673046,0.3365216
		C11.4476528,5.2072821,9.9528236,5.786099,9.8895578,5.8096561C9.850523,5.8237896,9.8094673,5.8311934,9.7697573,5.8311934z
		 M8.2372389,3.2372842c0.4246893,0.5714138,1.0364866,1.3433943,1.5964584,1.8636565
		c0.3439255-0.1568189,1.1152325-0.5505495,1.8468304-1.2101319C9.9420567,3.5939972,8.881341,3.3826616,8.2372389,3.2372842z"/>
	<path class="st1" d="M12.4074144,15.1191902c-0.0457668,0-0.092206-0.0094233-0.1352816-0.0282679
		c-0.133935-0.059227-0.2147007-0.197875-0.1992207-0.3432522c0.1965284-1.8501968-2.6423683-2.5925627-2.6713085-2.5992928
		c-0.1171093-0.0296144-0.2099895-0.1204758-0.241622-0.2369108s0.0013466-0.241622,0.0868225-0.3270988
		c0.1393204-0.1393204,3.4587688-3.4311743,7.6235609-5.2389693c0.116436-0.0504785,0.2483521-0.0316329,0.3466167,0.0471125
		c0.0975914,0.0794191,0.1426849,0.2066245,0.1171093,0.3291187c-0.7982292,3.8659596-4.5161209,8.1061325-4.6736126,8.2844887
		C12.5938482,15.0794802,12.500968,15.1191902,12.4074144,15.1191902z M10.1271439,11.6765738
		c0.7968836,0.2995043,2.1927748,0.9927387,2.5461216,2.2587328c0.9752398-1.2168627,3.056963-4.0200872,3.8343277-6.6860123
		C13.5549536,8.6694164,11.0687313,10.8110409,10.1271439,11.6765738z"/>
	<path class="st1" d="M6.5088634,17.7844429l-0.3196959-0.5922775c1.2673407-0.6831398,2.7190957-1.9403839,3.9083619-3.4015608
		C9.0852728,14.48384,8.5057821,14.9583349,8.4876099,14.973814l-0.4300747-0.5182438
		c0.026248-0.0215368,1.1872482-0.9738932,3.1168642-2.1671982c0.529685-0.8520737,0.9368763-1.7283764,1.1461916-2.5683336
		c0.0356712-0.1426849,0.0666323-0.2806587,0.0915337-0.4139214C11.1165171,8.8437357,9.9211912,8.569808,9.1000786,8.4520254
		C8.9755669,8.4345264,8.8719168,8.3490496,8.8301897,8.231267c-0.041729-0.1177826-0.0141344-0.2496991,0.0699959-0.3412333
		c0.0572081-0.0619197,1.424159-1.5264616,3.1323433-2.330749c0.1325903-0.062593,0.2914276-0.0316329,0.3910379,0.0767274
		c0.0450935,0.0491319,0.969182,1.0869646,0.7342901,3.2339725c0.7773647,0.3028688,1.5782852,0.6710243,2.3495932,1.1091757
		c1.856926-0.8345737,3.9655704-1.5856895,6.2115173-2.0393209c0.1157627-0.0228839,0.2443123,0.0188451,0.3237324,0.1130714
		c0.0787468,0.0942259,0.1002827,0.224124,0.0558624,0.338541c-0.8749561,2.2425804-3.2211838,4.6379404-3.3207951,4.7388983
		c-0.0679779,0.0686493-0.1608582,0.1029749-0.2577763,0.0996103c-0.0962448-0.0053835-0.1850853-0.0511513-0.2456608-0.1265316
		c-0.753809-0.9476442-1.7391434-1.7324133-2.801878-2.3711319c-1.4638691,0.6757355-2.7601509,1.3985834-3.8255787,2.0521088
		C10.2873287,14.9065084,8.235219,16.854969,6.5088634,17.7844429z M16.2094364,10.4051952
		c0.868227,0.5599728,1.6765499,1.2182074,2.344883,1.9841318c0.5572777-0.604394,1.8946171-2.1322012,2.6531353-3.6492414
		C19.4238911,9.1506424,17.735899,9.7449408,16.2094364,10.4051952z M13.0508432,9.5477381
		c-0.0222111,0.1097059-0.0477848,0.2221041-0.0760536,0.3365211c-0.1413393,0.5646839-0.3661366,1.1448469-0.6541986,1.7236643
		c0.7376556-0.4213247,1.5540571-0.8561106,2.435071-1.2774363C14.1916513,10.0316563,13.6162004,9.7718611,13.0508432,9.5477381z
		 M9.8532152,7.8987818c0.7477512,0.1467237,1.6691475,0.3863268,2.6524639,0.7309246
		c0.1023026-1.2404189-0.2328739-2.0002847-0.4354591-2.3368063C11.1441116,6.7761455,10.3330946,7.4559193,9.8532152,7.8987818z"/>
	<path class="st1" d="M9.8545609,11.1482353c0,2.9479294-2.4566078,5.2901211-4.2267122,6.999649
		c-0.2961388,0.2894096-1.298974,0.3365211-1.298974,0.3365211c0.2490263-0.2557545,0.5317044-0.5249729,0.8345737-0.8143826
		c1.6826081-1.6287651,4.0180683-3.8565369,4.0180683-6.5217876c0-3.1565738-1.2720523-4.4017034-2.2748866-5.3978076
		C6.4624214,5.2994885,6.0855169,4.868741,5.8566818,4.3437672l0.2086439-0.0874958
		c0.2288346,0.100956,0.491322,0.2153735,0.6932344,0.3028693c0.16153,0.2355652,0.3769045,0.4643993,0.6259303,0.7134256
		C8.4142485,6.3023233,9.8545609,7.715714,9.8545609,11.1482353z"/>
	<path class="st1" d="M26.6032448,12.0191536c0,0-0.4071922,0.0578814-0.5216103,0.0713425
		c-5.8958588,0.6528521-11.9801693,2.3489218-15.4598036,3.7421207c-1.2585917,0.5047817-2.5642948,1.1172523-3.7555814,1.8037567
		c-0.0067306,0.0067291-0.0134611,0.0067291-0.0269217,0.0134602c-0.6999655,0.4038258-2.4027648,1.2383995-3.7825038,1.9720154
		c2.01913-2.147007,5.8016329-3.8026934,7.3092499-4.408432c3.4123297-1.3662786,9.2745361-3.015234,15.0425186-3.7219296
		c-0.6797733-0.7941914-2.3421917-2.4768-5.6131821-3.7286601c-1.9114437-0.7403479-4.8189898-1.1576347-7.3832855-1.5278077
		c-4.0786419-0.5855479-6.4006414-0.9759126-6.622746-2.0864344C5.7422657,3.9264808,5.7759175,3.7043767,5.8768744,3.4890027
		c0.2221041,0.3634434,0.538435,0.6191993,0.7470779,0.7672691c0.100956,0.0673046,0.1749911,0.107687,0.2019129,0.1211481
		l0.0067306,0.0067306c0.9557219,0.5047827,3.5334768,0.8749566,5.6804848,1.1845565
		c2.5979481,0.3769045,5.5391464,0.8009214,7.5246258,1.56146c4.623806,1.7835646,6.2189178,4.3343992,6.2862244,4.4420862
		C26.3845043,11.6732092,26.6032448,12.0191536,26.6032448,12.0191536z"/>
</g>
</svg>
