<?xml version="1.0" encoding="utf-8"?>
<!-- Generator: Adobe Illustrator 25.4.1, SVG Export Plug-In . SVG Version: 6.00 Build 0)  -->
<svg version="1.1" id="图层_1" xmlns="http://www.w3.org/2000/svg" xmlns:xlink="http://www.w3.org/1999/xlink" x="0px" y="0px"
	 viewBox="0 0 28.3464565 28.3464565" style="enable-background:new 0 0 28.3464565 28.3464565;" xml:space="preserve">
<style type="text/css">
	.st0{fill-rule:evenodd;clip-rule:evenodd;fill:#202467;}
</style>
<g>
	<path class="st0" d="M5.8443885,0.7086613h8.0284081C9.8856716,1.5278615,6.6635909,4.9141264,5.8443885,8.8465261V0.7086613z
		 M22.5020676,0.7086613V5.07831c-0.6008625-2.0756536-2.3481503-3.768786-4.4238071-4.3696489H22.5020676z"/>
	<path class="st0" d="M16.4945869,6.6933413V1.4731379c2.7306747,0.0547279,5.1335526,2.4889591,5.1888504,5.2202034H16.4945869z
		 M16.4945869,7.1533937h0.6550198c-0.2730675,0.1636138-0.4914074,0.3819509-0.6550198,0.6550207V7.1533937z
		 M16.4945869,10.8674517h0.6550198c-0.2695236-0.1603298-0.494688-0.3854961-0.6550198-0.6550207V10.8674517z
		 M18.6266766,7.1533937h3.0561886c-0.2189083,1.5289488-1.4725113,2.8395605-3.0561886,2.9490118V7.1533937z M18.1255798,7.8631425
		v2.2392669c-0.5050907,0-0.9754028-0.542716-0.9754028-1.046092C17.1496067,8.0735025,18.1255798,7.8631425,18.1255798,7.8631425z
		 M15.9889269,10.8674517H6.6635909c0-4.9157834,4.3559661-9.3943176,9.3253365-9.3943176V10.8674517z M22.5020676,10.8674517
		h-2.5670605c1.1469975-0.4366789,2.1303825-1.4747906,2.5670605-2.621788V10.8674517z M22.5020676,11.3041306v15.2769489
		C14.1732273,26.6511993,6.66359,19.5508766,6.66359,11.3041267h15.8384781V11.3041306z"/>
	<path class="st0" d="M5.8443885,13.6802158c2.0203562,10.8685379,12.270359,14.0740833,16.6035213,13.9543724H5.8443885V13.6802158
		z"/>
</g>
</svg>
