<?xml version="1.0" encoding="utf-8"?>
<!-- Generator: Adobe Illustrator 25.0.1, SVG Export Plug-In . SVG Version: 6.00 Build 0)  -->
<svg version="1.1" id="图层_1" xmlns="http://www.w3.org/2000/svg" xmlns:xlink="http://www.w3.org/1999/xlink" x="0px" y="0px"
	 viewBox="0 0 565.4196777 128.4977264" style="enable-background:new 0 0 565.4196777 128.4977264;" xml:space="preserve">
<style type="text/css">
	.st0{fill:#FFD21E;}
	.st1{fill:#74A5A5;}
	.st2{fill:#91826D;}
	.st3{fill:#FFFFFF;}
	.st4{fill:#A9D2D3;}
	.st5{fill:#2A8B92;}
</style>
<g>
	<g>
		<path class="st0" d="M47.0982132,62.0980339c0.0112991-0.006485,0.0237122-0.0102806,0.0351944-0.0163956
			c0.1113358-0.059742,0.2298965-0.102211,0.3512344-0.1325455c0.0316772-0.0077782,0.0631676-0.0157928,0.0952187-0.0214882
			c0.134861-0.0244522,0.271946-0.0363998,0.409584-0.0235748c0.005558,0.0005112,0.0109291,0.0027809,0.0163002,0.0033379
			c0.1013336,0.0106506,0.2021065,0.0297318,0.3006592,0.0608063c0.0311241,0.0099106,0.0585403,0.0272789,0.0889206,0.0390892
			c0.016674,0.0065269,0.0344582,0.0060196,0.0511284,0.0131493c0.822506,0.3541527,1.5473862,0.8163948,2.1870499,1.3666763
			c2.5632896-2.8120804,4.92799-5.8365936,7.0509453-9.0307922c0.3530846-0.5314789,0.7619286-1.0119209,1.2083778-1.447628
			c-0.1728363-0.475811-0.2949181-0.9329147-0.3795776-1.3746414l-3.3144722-4.9778214
			c-0.82658-0.8406601-1.4523506-1.8487854-1.8139572-2.9235992c-0.1787643-0.5312462-0.4764595-1.4454956-0.3582726-2.5430984
			l-0.0005531-0.0000458c0.0057411-0.0819702,0.0177841-0.1631584,0.0283432-0.2444801
			c0.0355682-0.2722244,0.0985527-0.5416222,0.2030334-0.8097687c-0.0920715-0.2187347-0.1654282-0.4430237-0.2189674-0.6714821
			c-0.4716415-2.0132866,0.5353699-4.3637238,2.1122093-4.9313278c1.8072891-0.6531868,3.6234703,1.0811157,4.4004021,1.8198853
			c0.0815086,0.0778046,5.7045555,5.3996353,15.2422829,12.3012695c3.3218842,2.4037895,5.4715118,3.2637177,7.0409393,3.8920822
			c1.8776855,0.7513695,3.2344437,1.2941475,4.6334457,3.6042023c2.1414795,3.5367241,3.4763794,5.3703194,4.5712051,6.7742729
			c0.4475555-0.3068657,0.928093-0.5786247,1.4508667-0.8037033c0.0166702-0.0071754,0.0344543-0.0066223,0.0511322-0.0131493
			c0.0303802-0.0118103,0.0577927-0.0291786,0.088913-0.0390892c0.1004105-0.0318642,0.2032242-0.0518684,0.3064041-0.062336
			c0.005188-0.0005112,0.0101929-0.001667,0.0151901-0.0021324c0.135231-0.0123634,0.2700958-0.00037,0.402359,0.023159
			c0.036499,0.0064354,0.0722504,0.0153732,0.1081848,0.0244522c0.1115265,0.0284348,0.2197113,0.0686798,0.322525,0.1219406
			c0.0211182,0.0109291,0.0437164,0.0179672,0.0642776,0.0299149c0.007782,0.0045395,0.0166702,0.0066719,0.0244522,0.0113487
			c6.7049026,4.0416679,15.1392822,6.0329094,22.4934769,6.9968987c0.1524658-1.6009674,0.2373047-3.2216644,0.2373047-4.8625565
			c0-27.9992599-22.6978073-50.697113-50.6970673-50.697113s-50.6970711,22.6978531-50.6970711,50.697113
			c0,1.9040833,0.1139288,3.780838,0.3184433,5.6304092c8.4264174-0.3532181,21.8082428-1.9012527,31.5343666-7.7647514
			C47.0739441,62.1077118,47.0867271,62.1045189,47.0982132,62.0980339z"/>
		<path class="st0" d="M90.9818268,100.155014c-0.270462-1.5434952-0.9129028-4.5193329-2.1851959-7.1120758
			c-0.6542969-1.3315659-1.1248322-2.6660995-1.3967743-3.9665527c-0.1774673-0.8457489-0.3690186-1.837204-0.5524139-2.9309158
			c-1.0262756-0.3893433-2.7059326-1.1450653-4.6182556-2.2427139c-1.6027756-0.9201736-2.7570572-1.9914703-3.728508-3.0406265
			c-0.506279-0.5102692-0.9942245-1.0637436-1.4616089-1.6594162l-0.1835861-0.2120132
			c-0.114296-0.1305542-0.24897-0.2851486-0.3949509-0.4545593c-0.1993256,0.311821-0.387352,0.609375-0.5542603,0.8761826
			c-1.090004,1.7398605-1.8095169,2.8891449-3.3166962,2.9298935c-1.2834091,0.0237122-2.2696686-0.8069382-3.3985825-1.7806091
			c-0.2930603-0.2526779-0.5709305-0.5223999-0.8328781-0.8069458c-1.1574326,2.0444107-2.6435013,3.7494431-4.4330025,5.082489
			c-2.9902878,2.2285461-6.7617722,3.413353-10.2479706,3.554512c-0.0474243,0.2373047-0.0941086,0.4660873-0.140049,0.6847229
			c-0.272686,1.2989655-0.7424774,2.6334991-1.3967781,3.9665527c-1.2715492,2.5912628-1.9151039,5.5678406-2.1855659,7.1113358
			c-0.1852493,1.0551758-0.5027657,2.0718231-0.9447708,3.0217819c-1.5449753,3.3212357-2.9980659,5.0790176-4.2047768,5.9840012
			c-0.0318642,0.0693741-0.0620613,0.1394501-0.1044807,0.2040482c-0.0259361,0.0393677-0.2000694,0.2971878-0.5298119,0.6926041
			c6.588192,3.1316757,13.9559097,4.8892746,21.7359962,4.8892746c10.3116913,0,19.8986969-3.0867538,27.9034882-8.375061
			c-0.6046524-0.8957214-1.2352371-2.0007782-1.8837967-3.3948669
			C91.4849625,102.2268372,91.1663361,101.2101898,90.9818268,100.155014z"/>
		<path class="st1" d="M47.1274834,90.2693939c-0.9657059,3.0007553-2.8732109,9.6701736-2.6674004,14.8362122
			c0.5236969-0.7452087,1.1283493-1.7704239,1.7978401-3.2099915c0.3301125-0.709137,0.5679741-1.4716187,0.7072792-2.2652283
			c0.2982521-1.7020645,1.0133133-4.9965286,2.4504738-7.924202c0.543148-1.107048,0.9303207-2.2014999,1.1507645-3.2529755
			c0.01371-0.0653,0.0296402-0.1459274,0.0439072-0.2152557c-0.8443642-0.1324081-1.6451988-0.3383102-2.3848953-0.6185455
			C47.8625488,88.3690186,47.4407387,89.2966461,47.1274834,90.2693939z"/>
		<path class="st2" d="M96.4761276,105.1056061c0.0053711-0.1383362,0.0035172-0.2816238,0.0061111-0.4219971
			c-0.0637283,0.0482101-0.1243057,0.1000366-0.1882095,0.1479721
			C96.3544159,104.9219818,96.4175873,105.0223846,96.4761276,105.1056061z"/>
		<path class="st1" d="M93.8079834,90.2686539c-0.3482666-1.0818558-0.8350983-2.1214752-1.2204208-2.906189
			c-0.0351944-0.0714569-0.0665054-0.1492615-0.1009598-0.2220688c-0.0657578-0.0061111-0.1435623-0.0155563-0.2132187-0.0227356
			c-0.7387772-0.0215836-1.4745789-0.0775757-2.203537-0.1846008c0.1081848,0.5831146,0.2108154,1.0958405,0.2999191,1.5208893
			c0.2208176,1.0522156,0.6083603,2.1466675,1.1507645,3.2514954c1.4382706,2.9306335,2.1525955,6.2236176,2.45047,7.9256897
			c0.1393127,0.793602,0.3771667,1.5553436,0.7076569,2.2644806c0.5946503,1.2788162,1.1344604,2.2169647,1.6153717,2.9359665
			c0.0639038-0.0479355,0.1244812-0.099762,0.1882095-0.1479721C96.5744934,99.5801392,94.7481232,93.1891022,93.8079834,90.2686539
			z"/>
		<path class="st3" d="M51.033268,85.9993591c0.4897995,0.0708084,0.9940491,0.1204605,1.5186729,0.1328201
			c0.5044327,0.0119019,1.0229454-0.009819,1.5481262-0.0513153c2.9074783-0.2298889,6.044857-1.264595,8.4649467-3.0695267
			c1.94067-1.4456787,3.4726753-3.4159851,4.553791-5.8560867l0.1139297-0.2572632
			c-0.0216751-0.6461487-0.0361252-1.289238-0.0505753-1.9233475c0.1961746,0.2425842,0.3897629,0.4796982,0.5839005,0.7195511
			l0.2260056-0.5099869l1.1352081,1.8324814c0.4260712,0.688385,0.9481049,1.3011856,1.5509033,1.8213654
			c0.7321014,0.6320724,1.4238205,1.2293091,1.8380356,1.2293091c0.0044479,0,0.0081558,0,0.0118561,0
			c0.2867661-0.0081482,0.7995377-0.8269501,1.4486465-1.8636017c0.2806549-0.4479294,0.6057663-0.9638519,0.9844131-1.5386276
			c-0.7024612-0.9450989-1.4816208-2.1023941-2.2315063-3.4775391c-0.5876083-1.0755539-0.8832626-1.7780228-1.1437225-2.3978653
			c-0.2897339-0.688385-0.5183334-1.2319031-1.0903778-2.1459198c-0.8821564-1.4093781-1.6346359-2.1896439-2.7739182-3.3711624
			l-0.688385-0.7172852c-0.4868317-0.5155487-3.2099915-3.4493332-5.4726219-6.7595444
			c-0.0774345,0.0007858-0.1696892,0.0242195-0.2926941,0.1137428c-0.2117386,0.1423607-0.4447823,0.437233-0.6691208,0.7186241
			c-0.9097557,1.1105232-1.9032478,2.1261024-2.9350815,3.0901375c0.8419533-1.1331215,1.629818-2.303154,2.3028297-3.5193138
			c0.1802444-0.2925072,0.2837982-0.6239624,0.5548172-0.9967308c0.1004066-0.1325455,0.2367477-0.26231,0.3971748-0.3788795
			c-0.3547516-0.5560226-0.69487-1.1156158-0.9977493-1.6723824c-0.1189308,0.1495895-0.2334137,0.3039017-0.3404884,0.4649773
			c-2.2302132,3.35532-4.7227364,6.5256233-7.424221,9.4715881c-0.3480835,0.3794403-0.7102432,0.7426224-1.0651817,1.1143188
			c-0.1752434,0.1834946-0.3488235,0.3685989-0.5259209,0.5501938c0.3041801,1.1461334,0.5827942,2.4639969,0.7485924,3.8566513
			c0.1669083,1.4039993,0.2122955,2.8769608,0.0455704,4.3199997c-0.009819,0.0863266-0.0135231,0.1734848-0.0250092,0.2595367
			c-0.0203781,0.2218781-0.5753822,5.8760452-2.211132,10.3416138c0.0075951,0.0028229,0.0155602,0.0056458,0.0233421,0.0084763
			C49.7263374,85.7483444,50.3587799,85.901825,51.033268,85.9993591z M72.6640472,74.6195145
			c-0.3805008,0.272644-0.8045425,0.447197-1.2400589,0.5746002c-0.4360733,0.1321259-0.8919754,0.1908035-1.3550949,0.2043304
			c-0.4610825,0.0016632-0.9397659-0.0551147-1.3880692-0.2431412c-0.442009-0.1751099-0.8723373-0.5030441-1.0325775-0.951622
			c0.40625,0.2365112,0.793602,0.3238602,1.1922607,0.381424c0.3979111,0.0490494,0.8054581,0.0693741,1.2215271,0.0550232
			C70.8962173,74.6410065,71.7418747,74.5661163,72.6640472,74.6195145z M68.7200928,73.0462418
			c0.2838058-0.2874146,0.5242538-0.5972366,0.7232132-0.9321671c0.4207001-0.6631927,0.6683807-1.4228058,0.9103165-2.3001022
			c0.1919174,0.4236679,0.2347107,0.8979034,0.1887665,1.3609314c-0.0435333,0.4665527-0.2069244,0.9243927-0.4523773,1.3352737
			c-0.2550888,0.4033356-0.5903854,0.7665176-1.0031204,1.0008087c-0.3958817,0.2562485-0.8577042,0.3837433-1.3132324,0.4082413
			C68.1145172,73.6000443,68.4449997,73.3480148,68.7200928,73.0462418z M59.7977676,76.4445877
			c1.3786201-0.4085159,2.6179352-1.0806961,3.6616287-1.9764175c1.0368347-0.9088287,1.8684235-2.0152283,2.4391708-3.3399429
			c0.5911331-1.3199005,0.9232788-2.8144913,1.110939-4.4462585c0.7509995,1.4850998,0.9314346,3.2512589,0.5957642,4.9651871
			c-0.1771011,0.8551483-0.4831314,1.704567-0.9406967,2.4784851c-0.4668274,0.7642899-1.0355453,1.4784317-1.7167053,2.064003
			c-1.3580551,1.1794739-3.0984688,1.890831-4.8444405,2.0185623c-1.7431946,0.1257858-3.5049095-0.3053818-4.8379631-1.2979965
			C56.9158478,76.9959793,58.4158096,76.8638077,59.7977676,76.4445877z"/>
		<path class="st3" d="M89.9800034,65.1551971c-0.2045135-0.2568054-0.4144058-0.5207825-0.6318893-0.7981491
			c-1.1535416-1.4711494-2.5490189-3.3653679-4.8277664-7.1282806c-1.0040512-1.6583481-1.7961731-1.9754944-3.5323257-2.6698074
			c-1.6791-0.6724548-3.9791489-1.5927734-7.5285187-4.1610641c-9.6729584-6.9994431-15.3949242-12.4176025-15.4512405-12.4713249
			c-1.5268211-1.4527245-2.0066185-1.3830681-2.0862732-1.3526878c-0.3019562,0.1087418-0.7172852,0.9079056-0.7183952,1.750927
			c0.3621597-0.0824356,0.7306213-0.0942459,1.1244583-0.0246391c0.56427,0.1098976,0.9997902,0.3819847,1.3330536,0.6384125
			c0.6654129,0.5284691,1.1098251,1.0647659,1.5762825,1.5769806c0.4579353,0.5145264,0.9027176,1.014698,1.3649139,1.496994
			l1.4527206,1.3789482l0.7296982,0.690979l0.7806358,0.6707382l3.1314507,2.6775894l3.1288528,2.6755028
			c0.5266647,0.4378815,1.0403595,0.8963737,1.5358963,1.3673668c0.1346817,0.1215706,0.2765808,0.2371674,0.412735,0.3576241
			c0.3734665,0.3302078,0.7463684,0.6612473,1.131691,0.9806175c1.4512329,1.2073135,2.9519348,2.361412,4.4674606,3.4972191
			c0.678009,0.5081863,1.352684,1.0208626,2.0382919,1.5189476c-0.5455551-0.34132-1.0824051-0.6968117-1.6244507-1.0441093
			c-1.768013-1.1331177-3.5215759-2.2905083-5.2310562-3.5229683c-0.5588913-0.4017601-1.1094513-0.817318-1.654274-1.2444115
			c-0.4897995-0.4046288-0.9901505-0.788372-1.5023651-1.1616478c-0.0424271-0.0308914-0.0818787-0.0654869-0.1244888-0.0961914
			l-3.3018799-2.4493599l-3.2990952-2.4472313l-0.8238029-0.6140556l-0.8130569-0.6677284l-1.6264839-1.3451385
			c-0.5207367-0.4729881-1.0223885-0.9644051-1.510334-1.4414673c-0.4846115-0.4714584-0.972187-0.9518585-1.4084473-1.2426529
			c-0.4557152-0.2930603-0.6226234-0.2499008-0.8941994-0.1313858c-0.0125961,0.0079193-0.0188942,0.0174141-0.0300102,0.0253792
			l-0.0418663,0.0812302c-0.0759506,0.1467171-0.1363411,0.3019562-0.1793175,0.4612694
			c-0.2011833,0.7398872,0.0281563,1.4216003,0.1959915,1.9191818c0.264164,0.7865639,0.7154312,1.497921,1.3408318,2.1147995
			l0.1478271,0.1796913l1.8052521,2.7383499c0.0937347-0.1995583,0.2061806-0.3964767,0.3484535-0.5845985
			c0.1552391-0.2003021,0.3308525-0.3887444,0.5353699-0.5524139c0.1652412-0.1356926,0.3806839-0.2826424,0.6381798-0.4007835
			c0.5075836-0.2435112,1.1998596-0.2939453,1.7557907-0.06007c0.549263,0.2260513,0.8906784,0.5686226,1.1616974,0.869606
			c0.5285149,0.6168327,0.8880844,1.2113914,1.2645111,1.789505c0.2912064,0.4550629,0.5827866,0.8940125,0.8784485,1.3312912
			c0.0802078,0.1185608,0.156723,0.2437401,0.2382278,0.3610039c0.1804352,0.2600899,0.3671646,0.51717,0.558342,0.7710991
			c0.3164062,0.4200058,0.6509628,0.8260727,0.9955292,1.2210693c0.3206635,0.3672562,0.6487427,0.7259903,0.9921875,1.0630035
			l0.0350189,0.034317c1.0462799,1.1807289,2.0992355,2.3559952,3.1657181,3.5153313
			c1.0729599,1.1458092,2.1399918,2.3261223,3.3079834,3.3222542c0.0828094,0.0702095,0.173027,0.1315231,0.2606506,0.1960373
			c0.5194397,0.3753166,1.1100082,0.6614799,1.7226257,0.8981819c0.3514175,0.1385651,0.7641525,0.2290115,1.1407623,0.4992447
			c0.3597565,0.2707405,0.6055832,0.6109962,0.8165817,0.9700546c0.4006882,0.731411,0.5733414,1.4963913,0.958847,2.1752853
			c0.1839523,0.3423386,0.4005051,0.6680984,0.6415176,0.9772339l0.1470871,0.1633911l0.6433716,0.7147827
			c-0.2074814-0.1655197-0.4032898-0.3459091-0.5929871-0.5329132l-0.0640945-0.057663l-0.2289658-0.205719
			c-0.2695389-0.2933426-0.5185089-0.6087265-0.7367325-0.9462509c-0.44664-0.6703644-0.7174759-1.4466095-1.1113129-2.0829353
			c-0.2009964-0.310524-0.4501572-0.6086388-0.7346954-0.7986565c-0.2780609-0.1857109-0.6587448-0.260643-1.0470276-0.3868904
			c-0.6554108-0.2157249-1.3078537-0.4926262-1.9030609-0.8789597c-0.1009598-0.0643768-0.2041473-0.1246262-0.3013992-0.1959953
			c-1.3071213-0.971817-2.4399185-2.073307-3.6025391-3.1562691c-1.1500244-1.0920448-2.2837448-2.1974258-3.4115448-3.3091011
			l0.0348282,0.0340385c-0.7537766-0.6466141-1.4427185-1.3423157-2.0912704-2.0747871
			c-0.2876968-0.3250656-0.5701981-0.6551819-0.8423309-0.9952049c-0.0187073-0.0232506-0.0351944-0.0471458-0.0537186-0.0704422
			c-0.2654648-0.333168-0.5148087-0.6705551-0.7674904-1.0076141c-0.1467171-0.1955299-0.3019562-0.3907356-0.4453354-0.5845528
			c-0.4062538-0.5468559-0.8104668-1.0987587-1.2067146-1.4970894c-0.1945114-0.1977081-0.3873558-0.3171463-0.4822006-0.3380775
			c-0.0868835-0.0192223-0.1359749-0.0044479-0.2421227,0.0529785c-0.0511284,0.031353-0.1209679,0.0809097-0.2141457,0.1697807
			c-0.0607605,0.0553436-0.1142998,0.1225891-0.1670952,0.1954384c-0.1029968,0.1493111-0.1789513,0.3576698-0.2291527,0.5916862
			c-0.0161171,0.0779419-0.0242691,0.1606102-0.0342712,0.2421188l0.0426064,0.0006027
			c-0.00037,0.0068092-0.0066681,0.6187325,0.0589104,1.2671471c0.0027771,0.0282516,0.005928,0.0564575,0.0088921,0.0848007
			c0.003521,0.0312119,0.0062981,0.062149,0.0100021,0.0933647c0.0253792,0.208683,0.0711365,0.4294052,0.1311569,0.6582336
			c0.0598373,0.2274399,0.137455,0.4649315,0.2280426,0.7091331c0.0307503,0.0791969,0.0615005,0.1583443,0.0941048,0.2362862
			c0.0183411,0.0457573,0.0400162,0.0932274,0.0592804,0.1394463c0.1393089,0.3355331,0.3006592,0.6815758,0.4840546,1.0377197
			c0.3688316,0.7161255,0.8128738,1.4630928,1.3071175,2.2178917c1.8839836,2.8771477,4.4230003,5.8175545,5.6934395,7.16362
			l0.6743088,0.7028351c0.2563858,0.265831,0.4992447,0.5186501,0.7354355,0.7697563
			c0.822319,0.8747025,1.5460892,1.7224426,2.329689,2.9737549c0.6691208,1.0699997,0.9558868,1.7502289,1.2589569,2.4708481
			c0.1500473,0.3567429,0.3106613,0.7309952,0.5229568,1.1738281c0.126152,0.2636108,0.273056,0.5543137,0.4531174,0.8887329
			c0.0242691,0.0449219,0.0418625,0.0812759,0.0672455,0.1278229c0.53759,0.985527,1.0866699,1.8456345,1.6079559,2.5892258
			c0.2449036,0.3490067,0.4801712,0.665184,0.7083969,0.9623642c0.2608261,0.3398438,0.51017,0.6517105,0.7376556,0.925087
			c0.3008499,0.3615189,0.5690918,0.6688004,0.7865677,0.9170303l0.1882172,0.2174835l0.3415985,0.394577
			c0.3299255,0.3835144,0.6561508,0.7602615,0.9934921,1.1292343c0.8934555,0.977005,1.8737869,1.8940277,3.2716751,2.6965256
			c1.1781845,0.6761169,2.2492981,1.2062073,3.0955124,1.5874939c0.7513733,0.3386841,1.3113785,0.5535202,1.6196289,0.6520767
			c0.0316772,0.0100937,0.0746613,0.0255203,0.1005936,0.0330658c0.4927597,0.1429214,0.9914474,0.256752,1.4932938,0.3533173
			c0.6048355,0.1163788,1.2157822,0.1912231,1.8302536,0.240036c0.0200119,0.0015717,0.0401993,0.0031509,0.0602112,0.0046768
			c-0.0070419-0.0208435-0.0144501-0.0411682-0.0213089-0.0620575c-0.1613464-0.4887772-0.3097305-0.9849243-0.4477463-1.484169
			c-1.0814819-3.909584-1.4762497-7.8950806-1.4979172-8.1223297c-0.0081558-0.0603027-0.0101929-0.121521-0.017601-0.1819611
			c-0.1724701-1.4275742-0.1309738-2.8911819,0.0326004-4.2897186c0.2052612-1.7535629,0.5955811-3.3957977,0.9866409-4.7243118
			c-0.0968857-0.1239777-0.1934052-0.2446213-0.2895508-0.3659134
			C90.1987839,65.4317245,90.0900421,65.2929764,89.9800034,65.1551971z M82.2684631,64.2613678
			c-0.0729904-0.1092911-0.1530228-0.2127533-0.2204514-0.3264542c-0.3060303-0.4937782-0.5379639-1.0592499-0.7161713-1.5985565
			c-0.0533524-0.1641769-0.1126328-0.3199272-0.1759872-0.4714127c-0.1022568-0.2450371-0.2234116-0.4720612-0.3712387-0.6795845
			c-0.0513153-0.0720634-0.1015167-0.1447754-0.1602402-0.2118797c-0.3173294-0.3957863-0.7272873-0.6804199-1.208931-0.895031
			c-0.2558289-0.1175842-0.5375977-0.2277184-0.8226929-0.3430786c-0.2461929-0.0995712-0.4949875-0.2025261-0.7306213-0.3237724
			c-0.5501862-0.2613373-1.0772247-0.5644989-1.5823975-0.8985481c-0.4481125-0.2963066-0.8793793-0.6163712-1.2889633-0.9602394
			c0.2587967,0.1218033,0.5181427,0.2327194,0.7771225,0.3491478c0.7222824,0.3248825,1.4464264,0.6325798,2.1757507,0.9071655
			c0.0494614,0.0186653,0.0985489,0.0407562,0.1480103,0.0591393c0.5255508,0.1929398,1.0383224,0.3410454,1.6051788,0.5513954
			c0.0166779,0.0063896,0.032608,0.0158386,0.0490952,0.0225067c0.5424118,0.2191505,1.0712967,0.5790901,1.4597626,1.0444794
			c0.4058762,0.4816475,0.6572647,1.080143,0.8117599,1.6354256c0.137085,0.5443993,0.3252945,1.0323448,0.5527802,1.5336304
			c0.4705353,0.9832535,1.1042709,1.9085693,1.8163681,2.7954025C83.5746536,65.8539124,82.8427277,65.121994,82.2684631,64.2613678
			z M84.2413635,61.7416611c-0.3060303-0.493782-0.5379639-1.0592537-0.716362-1.5985603
			c-0.1689453-0.5218925-0.3753128-0.9830208-0.7074661-1.3628769c-0.3173294-0.3957825-0.7272873-0.6804161-1.208931-0.8950272
			c-0.4766464-0.219059-1.0448074-0.4051399-1.5533142-0.666851c-1.0379486-0.4931335-1.9999466-1.127285-2.87117-1.8587875
			c1.0296097,0.4846115,2.0595932,0.9292564,3.1008759,1.3154526c0.5255585,0.1929359,1.0381393,0.3410416,1.6051865,0.5513916
			c0.559639,0.2167892,1.108345,0.5874252,1.5088501,1.0669899c0.4058838,0.4816475,0.6570816,1.0801392,0.8117599,1.635376
			c0.1369019,0.5444489,0.3251114,1.0323944,0.552597,1.5336761c0.4707184,0.9832535,1.104454,1.9085732,1.8163681,2.7954063
			C85.6648102,63.5848427,84.8387909,62.7508507,84.2413635,61.7416611z"/>
		<path class="st4" d="M99.1162949,83.9712067c-0.2032166-0.4634476-0.3899536-0.8780823-0.558342-1.2447357
			c-0.1795044-0.3911057-0.3384476-0.7301102-0.4647903-0.9940872c-0.0459442-0.0964279-0.0818787-0.1922913-0.1244888-0.2885742
			c-0.1696854-0.3855972-0.3182526-0.7700806-0.4268112-1.1459961c-1.1491013-3.9682159-1.528862-7.0281143-1.5547943-9.325386
			c-0.0050049-0.4483948,0.0042572-0.8632584,0.0235291-1.2536697c0.0222244-0.4480743,0.0551987-0.8647919,0.1007767-1.2391739
			c0.0779877-0.6405487,0.1815414-1.1748047,0.2919464-1.6107864c-0.8538132-0.3943481-1.6972504-0.8072281-2.5190125-1.2527008
			c-0.0590973,0.1747818-0.1224518,0.3773041-0.1848755,0.5746841c-0.1276398,0.403244-0.2578659,0.8374176-0.3862457,1.3188858
			c-0.0514984,0.1930695-0.0998535,0.4006882-0.149498,0.6039124c-0.0596466,0.2446671-0.116333,0.4918823-0.1713562,0.749054
			c-0.3929138,1.8353043-0.6459579,3.9511719-0.3817978,5.9225464c0.0014801,0.0146332,0.0133362,0.1299057,0.0335312,0.3115387
			c0.136528,1.2176895,0.7172852,5.8400192,2.0216217,9.3927689c0.0112991,0.0307083,0.0235291,0.0597458,0.0350113,0.0902634
			c0.1380081,0.3702164,0.2850952,0.7245102,0.4392242,1.064949c0.0572433,0.1263885,0.1118927,0.2582397,0.1715393,0.3795319
			c0.0981827,0.1999283,0.2037735,0.4189835,0.3110352,0.6469803c0.3634567,0.7723923,0.7600784,1.6887741,1.0753708,2.6682281
			c1.0292435,3.1979523,2.4102707,8.2074127,2.7500229,12.9098129c1.341011-1.1844788,2.6233063-2.4331512,3.8322449-3.7516098
			c-0.0485382-1.9141769-0.3475342-3.814415-0.8958664-5.6799698
			C101.3726273,89.3738556,100.0803299,86.1699753,99.1162949,83.9712067z"/>
		<path class="st4" d="M99.2531891,68.0771713c-0.0724258,0.3801804-0.1363373,0.8578415-0.1778336,1.4236374
			c-0.0257492,0.3478546-0.0446472,0.7207565-0.0468674,1.1421585c-0.0018539,0.3554916,0.0098114,0.7446976,0.0303802,1.1542358
			c0.0748367,1.4864807,0.3210373,3.3381882,0.8558502,5.583725c0.1320801,0.5547333,0.280838,1.1309967,0.4507065,1.7348099
			c0.0324173,0.115181,0.0576172,0.2210999,0.0915146,0.3380814c0.0896606,0.3112183,0.2156296,0.6365128,0.3749466,0.969223
			c0.0272293,0.0568695,0.0592728,0.1249924,0.0891037,0.1878891c0.8884506,1.8734207,2.9100723,6.3632507,4.3753891,11.3516388
			c0.3177032,1.0807419,0.5533447,2.1726913,0.723587,3.2710266c5.1021271-6.5953217,8.6200027-14.4761353,9.9673157-23.0815048
			C110.6635971,71.4519424,104.7680511,70.2193909,99.2531891,68.0771713z"/>
		<path class="st4" d="M35.0633316,104.4729385c-0.0603905-0.6816254-0.136528-1.3875656-0.2330437-2.1216125
			c-0.4597893-3.4997253-0.1874733-6.9950027,0.8099098-10.3887558c1.5149651-5.1573334,3.6268005-9.788559,4.4644966-11.5402679
			c0.138382-0.2890396,0.2474937-0.5738068,0.3351173-0.8521042c0.0120392-0.0384827,0.0283432-0.0781708,0.0394554-0.1163788
			c0.1878433-0.6483688,0.3475266-1.2605743,0.4925766-1.8530884c0.4479332-1.828598,0.7028351-3.3902893,0.8325119-4.7156982
			c0.0687256-0.7027435,0.1031837-1.3366623,0.1107788-1.90728c0.0168571-1.2785416-0.0902176-2.238266-0.2202644-2.9057159
			c-8.9249191,3.4689178-18.8516693,4.5578613-25.7301464,4.8542099
			C18.1738167,85.7262115,25.1751137,96.8793488,35.0633316,104.4729385z"/>
		<path class="st4" d="M41.7808266,108.1822205c-1.2604332-5.7931061,0.9681129-14.2145157,2.4575119-18.8427811
			c0.4027328-1.2495499,0.9375458-2.3991547,1.3651009-3.2709808c0.006855-0.0138016,0.0146332-0.030571,0.0213013-0.0442276
			c0.1674652-0.3409042,0.3223343-0.7084885,0.4718323-1.0857468c0.0585365-0.1476898,0.11726-0.2948227,0.1732063-0.4468231
			c0.0946617-0.2580032,0.1848793-0.5219345,0.271946-0.7895737c1.1329803-3.4763794,1.6394539-7.6010895,1.7511559-8.6129608
			c0.0157471-0.1429214,0.0257492-0.2396698,0.0264931-0.2468948c0.2478638-1.8537827,0.0461273-3.8218689-0.2976952-5.5717773
			c-0.0716934-0.3650818-0.1470871-0.7184448-0.2289696-1.0605927c-0.0196342-0.0819778-0.0396423-0.1615829-0.0596504-0.2420273
			c-0.1104088-0.4440002-0.2234077-0.8643723-0.3382645-1.2527008c-0.1178169-0.3981476-0.2347107-0.7746658-0.3440056-1.098671
			c-0.821579,0.4452515-1.6646461,0.8579407-2.5182724,1.2520981c0.1411591,0.5569077,0.272316,1.2741928,0.3501205,2.1680603
			c0.0324173,0.3741608,0.0552025,0.7771225,0.0648346,1.2139893c0.008709,0.4006424,0.002594,0.8345413-0.0133362,1.28965
			c-0.0774345,2.189827-0.4734955,5.0136261-1.4908829,8.5762863c-0.0177841,0.0624771-0.0307541,0.119072-0.0489082,0.1820068
			c-0.0996628,0.3429413-0.2326698,0.6907501-0.3808708,1.0381851c-0.0564995,0.1322174-0.1080017,0.2646255-0.1711693,0.3963852
			c-0.0935516,0.1956177-0.2050705,0.4322281-0.3290024,0.6989899c-0.9419899,2.0301895-2.6766624,6.0138702-3.9609909,10.3855591
			c-0.8773422,2.9862137-1.117054,6.0606079-0.712841,9.1379623c0.2289696,1.7424011,0.3593826,3.3266983,0.4018059,4.7678452
			c1.0233154,0.6678696,2.0692291,1.3034058,3.1418228,1.8975525
			C41.5392609,108.4570389,41.6728287,108.3084717,41.7808266,108.1822205z"/>
		<g>
			<path class="st5" d="M67.0095062,66.6819534c-0.1876221,1.6317673-0.5197983,3.1264038-1.1108932,4.4463043
				c-0.5707779,1.3246918-1.4023361,2.4310913-2.4391937,3.3399048c-1.0436974,0.8957291-2.2830238,1.567894-3.6616287,1.9764404
				c-1.3820229,0.4191971-2.8819313,0.5513458-4.5323524,0.4655914c1.3330917,0.9926147,3.0947571,1.4238281,4.8379593,1.298027
				c1.7460365-0.1277542,3.4864082-0.8390808,4.8445015-2.0185318c0.6811447-0.5856323,1.2498779-1.2997894,1.7166367-2.0640488
				c0.4575882-0.7739334,0.7636795-1.6233673,0.9407578-2.4784622
				C67.940979,69.9332733,67.7604904,68.1670227,67.0095062,66.6819534z"/>
			<path class="st5" d="M70.090004,72.5101852c0.2454376-0.4108963,0.408844-0.8687668,0.4524002-1.3352356
				c0.0459061-0.4630508,0.0031281-0.9373398-0.1887894-1.3609314c-0.2419281,0.8772659-0.489624,1.6368484-0.9102859,2.3000183
				c-0.1989517,0.3350067-0.439415,0.6448135-0.7232361,0.9321594c-0.2751389,0.301796-0.6055527,0.5538864-0.9464188,0.8730698
				c0.4555283-0.0245209,0.9173126-0.1520767,1.3132629-0.4082642C69.499588,73.2766953,69.8348923,72.913559,70.090004,72.5101852z
				"/>
			<path class="st5" d="M70.0620651,74.6401596c-0.416069,0.0143585-0.8236465-0.0060501-1.22155-0.0550842
				c-0.3986893-0.0575256-0.7860413-0.1448441-1.1922531-0.3814011c0.1601791,0.4486008,0.5905151,0.776474,1.0325623,0.9515991
				c0.4483032,0.1880112,0.9269867,0.2448502,1.3880768,0.2431946c0.46315-0.0135803,0.9189758-0.0721817,1.355072-0.2043228
				c0.4355087-0.1274643,0.8595886-0.3019943,1.2401047-0.5745926
				C71.7418823,74.5661316,70.8962631,74.641037,70.0620651,74.6401596z"/>
			<path class="st5" d="M84.2107544,59.9287987c-0.1546097-0.5552521-0.4058151-1.1537704-0.8117294-1.635376
				c-0.4005432-0.479557-0.9492493-0.8502121-1.5087967-1.0670395c-0.56707-0.2102814-1.0796356-0.358448-1.6051941-0.5513458
				c-1.0413513-0.3861847-2.0712814-0.8308716-3.100914-1.3155098c0.8712158,0.7315445,1.8332596,1.365715,2.8711929,1.8588448
				c0.5084686,0.2616577,1.0766068,0.4477196,1.5533371,0.66679c0.4816055,0.2146797,0.8915253,0.4992867,1.2088547,0.8950424
				c0.3321686,0.379837,0.5385437,0.8410339,0.7075119,1.3628807c0.1783447,0.5393295,0.4103088,1.1048355,0.7163086,1.5985565
				c0.5974426,1.0092163,1.4235306,1.8432159,2.3384018,2.5162544c-0.7119141-0.886837-1.3455887-1.8121567-1.8163605-2.7954903
				C84.5358963,60.9611664,84.3476868,60.4732094,84.2107544,59.9287987z"/>
			<path class="st5" d="M82.0174942,62.1220627c-0.1545181-0.5552483-0.4059143-1.1537666-0.8118286-1.635376
				c-0.3884354-0.4653969-0.9173126-0.8254051-1.4597702-1.0444756c-0.0165024-0.0067406-0.0324249-0.0161171-0.0490265-0.0225639
				c-0.5668793-0.2103806-1.0796432-0.358448-1.6052017-0.551342c-0.0495148-0.0184593-0.0985489-0.040535-0.1480637-0.0591888
				c-0.7293015-0.2745476-1.4534225-0.5823059-2.1756897-0.9071541c-0.2590179-0.1164207-0.5183258-0.227375-0.777153-0.3491669
				c0.4096222,0.3438911,0.8408356,0.6639557,1.2889404,0.9602852c0.505249,0.3340302,1.0322723,0.6371956,1.5824432,0.8985596
				c0.2355804,0.1212082,0.4844437,0.2241516,0.7305679,0.3237724c0.2850952,0.1153488,0.5668716,0.2254219,0.8227692,0.3430176
				c0.4816055,0.2146759,0.8915253,0.4992828,1.2088547,0.8950424c0.0587921,0.0670967,0.1090012,0.1398621,0.1602707,0.2118454
				c0.1478729,0.2075462,0.2689819,0.4346275,0.3712463,0.6795807c0.063385,0.1514854,0.122673,0.3072701,0.1760025,0.4714508
				c0.1782455,0.5393333,0.4101105,1.1047401,0.7162094,1.5985565c0.0673904,0.1136856,0.147377,0.2171173,0.2204361,0.3265076
				c0.5741959,0.8605652,1.3061371,1.5924988,2.1180573,2.1896515c-0.7121048-0.8868408-1.345787-1.8121567-1.8163528-2.7953949
				C82.3427277,63.1544304,82.1545181,62.6664734,82.0174942,62.1220627z"/>
			<path class="st5" d="M99.2532196,68.0771637c5.5148087,2.142189,11.4104309,3.3747711,16.7340927,4.0749664
				c0.1570587-1.0039444,0.2818756-2.0181427,0.3793488-3.040741c-7.3542175-0.9639969-15.788559-2.9551849-22.4934692-6.9968452
				c-0.0078125-0.0046883-0.0167007-0.0068359-0.0244141-0.0113297c-0.020607-0.0120125-0.0431671-0.0190468-0.0643616-0.0299835
				c-0.1027527-0.0532303-0.210968-0.0934715-0.3225098-0.1218948c-0.0359421-0.0090828-0.0716858-0.0180664-0.1081161-0.0245132
				c-0.1323471-0.0234413-0.267128-0.0354538-0.4023972-0.0231476c-0.004982,0.0004883-0.009964,0.0016594-0.0151443,0.0021477
				c-0.1032333,0.0104523-0.2060776,0.0304756-0.3064804,0.0623131c-0.0310593,0.009964-0.0585098,0.0273476-0.0888824,0.0391655
				c-0.0167007,0.0064468-0.0344772,0.0059586-0.051178,0.0130882c-0.522728,0.2251282-1.0032578,0.4968452-1.4507828,0.8037224
				c-1.0948715-1.4039993-2.4297256-3.2375488-4.5712204-6.7742538c-1.3990173-2.3100777-2.7557449-2.852829-4.6334381-3.6041985
				c-1.5694504-0.6284065-3.7190628-1.4882889-7.0409927-3.892128C65.2555618,41.6519165,59.632534,36.330101,59.5509796,36.2522583
				c-0.7768631-0.7387695-2.5931244-2.4730873-4.4003983-1.8198738c-1.5767746,0.5676575-2.583847,2.9180717-2.1122017,4.9313316
				c0.053524,0.228447,0.126873,0.4527969,0.2189751,0.6714783c-0.1045036,0.2681999-0.1674042,0.537571-0.2030525,0.8097763
				c-0.0105476,0.0813599-0.0225639,0.1625214-0.0283241,0.2444649l0.0005836,0.0000992
				c-0.1181793,1.0976105,0.1795197,2.011795,0.3582535,2.5431175c0.3615723,1.0747528,0.987339,2.0828972,1.8139153,2.9235382
				l3.3145103,4.9778214c0.0846825,0.441761,0.206768,0.8988533,0.3795433,1.3746986
				c-0.4464455,0.4357033-0.8552895,0.9161377-1.2083664,1.4475594c-2.1229401,3.1941795-4.4876175,6.218708-7.0509529,9.0308075
				c-0.639637-0.5502701-1.3645363-1.0125389-2.1870117-1.3666878c-0.0167007-0.0071297-0.0344772-0.0066414-0.0510826-0.0130882
				c-0.0304718-0.0118179-0.0578194-0.0292015-0.0889778-0.0391655c-0.0985451-0.0310593-0.1993408-0.0501022-0.3006248-0.0607491
				c-0.0053711-0.0005875-0.0107422-0.0028343-0.0163116-0.0033226c-0.1376152-0.0128899-0.2747421-0.0008774-0.409626,0.0235405
				c-0.0320358,0.0056648-0.0634842,0.0136719-0.0952263,0.0214882c-0.1213074,0.0303726-0.2398758,0.0727615-0.3512192,0.132534
				c-0.0114288,0.0061531-0.0238304,0.009964-0.0351601,0.0164108c-0.011528,0.0064468-0.0243225,0.0096703-0.035553,0.0165062
				c-9.72612,5.8634834-23.1080055,7.4115486-31.5344353,7.7647209c0.1133947,1.0259171,0.2627306,2.0404129,0.4364843,3.0469894
				c6.8784695-0.2963257,16.8052006-1.3853378,25.730135-4.8542633c0.1300964,0.6674728,0.2371445,1.6272659,0.2202454,2.9057617
				c-0.0075188,0.5705872-0.041996,1.2045593-0.1107559,1.9072876c-0.1297035,1.3253784-0.3845253,2.8871078-0.8325348,4.7156754
				c-0.1450386,0.5925598-0.3047295,1.2047577-0.4925461,1.8530807c-0.0111351,0.0381927-0.0274467,0.0779419-0.0394592,0.1164246
				c-0.0876083,0.2782593-0.1967049,0.5630646-0.3351021,0.852066c-0.8377113,1.7517014-2.9495201,6.3829956-4.4644737,11.5402374
				c-0.9973984,3.3938141-1.2697029,6.8891144-0.8099709,10.3888016c0.0964966,0.7340851,0.1726799,1.4399414,0.2330399,2.1215744
				c1.0289459,0.7900467,2.0890503,1.539856,3.1779671,2.2506027c-0.0423889-1.4412155-0.1727753-3.0255127-0.4018097-4.7678375
				c-0.4041595-3.0773697-0.1644783-6.1518021,0.7128868-9.1379547c1.284256-4.3716812,3.0189629-8.355423,3.9609833-10.385582
				c0.1239433-0.2667313,0.2353859-0.5033875,0.3289528-0.6990204c0.0631905-0.131752,0.1146622-0.2641907,0.1712151-0.3963394
				c0.1481628-0.3475113,0.281189-0.6953125,0.3808136-1.0382233c0.0181656-0.0629044,0.0311546-0.1195526,0.0489311-0.1819611
				c1.0174217-3.5626907,1.4134712-6.3865051,1.4909248-8.576355c0.0159187-0.45504,0.0219765-0.8889847,0.0132828-1.2896271
				c-0.0095711-0.4368744-0.0324249-0.839859-0.0648537-1.2139359c-0.0777435-0.8938675-0.2089157-1.6111526-0.3500481-2.1680603
				c0.8536339-0.3941956,1.6967163-0.8068466,2.5182114-1.2521286c0.1092949,0.3239746,0.2262039,0.7004852,0.3439941,1.0986862
				c0.1148567,0.3883362,0.2278633,0.8087006,0.3383255,1.2527084c0.0200233,0.0803833,0.0400467,0.1599808,0.0596771,0.2420273
				c0.0818481,0.3421326,0.1572456,0.6955032,0.2289352,1.0605927c0.3437996,1.7498474,0.5455818,3.7179794,0.297699,5.5717468
				c-0.000782,0.007225-0.010746,0.10392-0.0264702,0.2469101c-0.1117325,1.0118561-0.618248,5.1365356-1.7512131,8.6129761
				c-0.0870247,0.2676163-0.177269,0.531517-0.2719116,0.7895584c-0.0559654,0.1519775-0.1146622,0.2990646-0.1732635,0.4468384
				c-0.149437,0.3772049-0.3043404,0.7448273-0.4717445,1.0856934c-0.0067406,0.0136795-0.0144539,0.0304794-0.021389,0.0442505
				c-0.4275017,0.8717957-0.9623375,2.0214615-1.3650284,3.2709503c-1.48946,4.6282578-3.7179832,13.0497055-2.4575577,18.8427734
				c-0.1080246,0.1262894-0.241539,0.2748413-0.3977127,0.4388351c0.9131126,0.5056305,1.8415565,0.9857712,2.7877808,1.4356384
				c0.329731-0.3953629,0.5038757-0.6532135,0.5298576-0.6925735c0.0423851-0.0645599,0.072567-0.1346817,0.1045036-0.2040329
				c1.206707-0.9050064,2.6597366-2.6627579,4.2047691-5.9840088c0.4419518-0.9499359,0.7594757-1.9665756,0.9447556-3.0217972
				c0.2704468-1.5434723,0.91399-4.5200424,2.1855507-7.1113129c0.6542854-1.3330917,1.1240768-2.6675491,1.3967705-3.9665527
				c0.0460014-0.2186813,0.0925903-0.4474182,0.1400566-0.6847534c3.4862137-0.1411362,7.2577171-1.3259659,10.2479668-3.5544891
				c1.7895012-1.3330917,3.2755394-3.0381012,4.4330177-5.0825195c0.2619553,0.2846069,0.5398254,0.5542755,0.8328323,0.8069458
				c1.1289597,0.9736633,2.1152267,1.8043442,3.3986053,1.7806091c1.5072327-0.0407257,2.2266617-1.1900024,3.3167496-2.9298859
				c0.1668243-0.2667389,0.3549347-0.5643387,0.5541763-0.8761978c0.146019,0.1694565,0.2807083,0.3240738,0.3949814,0.4545593
				l0.1836166,0.2120361c0.4673462,0.5956879,0.955307,1.1491776,1.4616241,1.6594086
				c0.9714203,1.0491638,2.125679,2.1204987,3.7284317,3.0406418c1.9123688,1.0977097,3.5919876,1.8533783,4.6183014,2.2426834
				c0.1834183,1.0938034,0.3749542,2.0852432,0.5524139,2.9309616c0.2719116,1.3004684,0.742485,2.635025,1.3967743,3.9665527
				c1.2722397,2.5927353,1.914711,5.5686264,2.1851578,7.1120987c0.1845932,1.0551224,0.5031967,2.0717621,0.9448547,3.0210114
				c0.6485214,1.3941345,1.2790756,2.4991684,1.8837509,3.3948898c0.8441544-0.5578842,1.6756134-1.1334534,2.4836349-1.7393951
				c-0.4809265-0.7189407-1.0207443-1.6571579-1.6153564-2.9359436c-0.330513-0.7090759-0.5683365-1.4709015-0.7077103-2.2644653
				c-0.2977982-1.7020874-1.012146-4.9950104-2.4504318-7.9256821c-0.54245-1.1048355-0.9299088-2.1993179-1.1507416-3.2515106
				c-0.0891724-0.4250565-0.1917191-0.9377213-0.299942-1.5209122c0.7289124,0.107048,1.4647522,0.1630173,2.2035217,0.1846008
				c0.0696411,0.007225,0.1474838,0.0167007,0.2132111,0.0227585c0.0344772,0.0728607,0.065834,0.1506042,0.1009903,0.2220993
				c0.3853073,0.7846756,0.8721924,1.8242645,1.2203827,2.9061508c0.9401627,2.9204178,2.7665863,9.3115158,2.6742859,14.4149399
				c1.0207443-0.773056,2.0074005-1.5878143,2.9656372-2.4343185c-0.3396988-4.7023926-1.7207413-9.711853-2.7499847-12.9098434
				c-0.3152771-0.9794312-0.7119141-1.8957672-1.0754395-2.6682358c-0.1072388-0.2279587-0.212822-0.4470291-0.3109741-0.646965
				c-0.0596771-0.1212997-0.1142731-0.2531586-0.1715088-0.3795395c-0.1541214-0.3403778-0.3012161-0.694725-0.4392242-1.064888
				c-0.0115204-0.030571-0.0237274-0.0595779-0.0350571-0.0903473c-1.3043747-3.5527267-1.8851242-8.1750336-2.0216599-9.3926773
				c-0.0201263-0.1816635-0.0320358-0.2969131-0.0335007-0.3115616c-0.2641983-1.9713593-0.0111389-4.0872726,0.3817902-5.9225769
				c0.0550842-0.257164,0.1117325-0.504364,0.1714096-0.7490311c0.049614-0.2032471,0.0979614-0.4108963,0.1494293-0.6038895
				c0.1284409-0.4815063,0.2586288-0.9156494,0.3862839-1.318924c0.0624084-0.1973953,0.1258011-0.3998642,0.1848907-0.5746918
				c0.8217926,0.4454727,1.6651611,0.8583221,2.5189896,1.2527084c-0.1103668,0.435997-0.2139893,0.970253-0.2919312,1.6107635
				c-0.0456161,0.3743668-0.0785294,0.7911224-0.1007996,1.2392349c-0.0192337,0.3903809-0.0285187,0.8052826-0.0235367,1.2535858
				c0.0259781,2.2972794,0.4057236,5.3571701,1.5548019,9.3254776c0.1086044,0.3758316,0.257164,0.7603531,0.4268188,1.1459579
				c0.0425797,0.0962982,0.0785217,0.1921158,0.124527,0.2886124c0.1262817,0.2639008,0.2852936,0.6029129,0.4647064,0.9940796
				c0.1684799,0.3666458,0.3551254,0.7812576,0.5583801,1.2446976c0.9639969,2.1987381,2.2563553,5.4026871,3.2680206,8.8465042
				c0.548317,1.8654938,0.8472824,3.7657471,0.8958206,5.6799698c0.9599915-1.0469208,1.8696899-2.1391525,2.7398224-3.2641144
				c-0.1702347-1.0982895-0.4059143-2.190239-0.7235336-3.2710419c-1.465332-4.9883728-3.4869919-9.4781418-4.3753967-11.3516312
				c-0.0298843-0.0629044-0.0619202-0.1309814-0.0891724-0.1878204c-0.1592941-0.3327637-0.2852936-0.6579971-0.3749542-0.9692764
				c-0.0338898-0.1170044-0.0590897-0.2228775-0.0915146-0.338028c-0.1698456-0.6038895-0.3185959-1.1801453-0.4506454-1.7348099
				c-0.5348358-2.2456131-0.7810593-4.097229-0.8558807-5.5837631c-0.0205078-0.409523-0.0322266-0.7987366-0.0303726-1.1542511
				c0.0022507-0.4213486,0.0210953-0.7942505,0.0468826-1.1421509
				C99.1168747,68.9349976,99.180748,68.4573898,99.2532196,68.0771637z M50.5664635,88.4532547
				c-0.2204399,1.0514145-0.6076012,2.1458969-1.1507378,3.2528839c-1.4372063,2.927742-2.1522446,6.222229-2.4505272,7.9242172
				c-0.1392784,0.793663-0.3772011,1.5561676-0.707325,2.2652435c-0.669426,1.4395523-1.2740974,2.4647903-1.7977982,3.2100067
				c-0.2057915-5.1660309,1.7016945-11.8354874,2.66745-14.8361816c0.3132248-0.9727936,0.7350578-1.9004517,1.0979004-2.649971
				c0.7397499,0.2802124,1.5405426,0.4860992,2.3848915,0.6185379
				C50.5960579,88.3072433,50.5801392,88.3879166,50.5664635,88.4532547z M73.9767532,78.2037277
				c-0.6491089,1.0366669-1.1618729,1.8555222-1.4487305,1.8636322c-0.0036087,0-0.0073242,0-0.0118179,0
				c-0.4142151,0-1.1059113-0.5972519-1.8380356-1.2292709c-0.6028214-0.5201874-1.1248627-1.1330643-1.5508957-1.821434
				l-1.1352081-1.8324738l-0.2260132,0.510025c-0.1941681-0.2398758-0.3877487-0.4770126-0.5838623-0.7195282
				c0.0144501,0.6340714,0.0289078,1.2771301,0.0505905,1.9233093l-0.1139832,0.2572632
				c-1.0811005,2.4400711-2.6131439,4.4103546-4.5537376,5.8560638c-2.4201508,1.8049316-5.5574913,2.8396378-8.4650116,3.0695496
				c-0.5251694,0.0415115-1.0436974,0.0631943-1.5480614,0.0512772c-0.5246811-0.0123062-1.0289459-0.0620193-1.5187607-0.1328278
				c-0.6744041-0.0974731-1.3069115-0.2510071-1.8868752-0.4608994c-0.0078125-0.0028381-0.0157242-0.0056686-0.0233421-0.0084991
				c1.6357689-4.4655457,2.1907272-10.1197281,2.2111397-10.341629c0.011425-0.0860519,0.0151367-0.173172,0.0250015-0.2595139
				c0.1667213-1.4430618,0.1213074-2.9160156-0.0456123-4.320015c-0.1657448-1.3926697-0.4443932-2.7105255-0.748539-3.8566742
				c0.1770744-0.1815643,0.3506355-0.3666534,0.5258522-0.5501709c0.3549309-0.371727,0.7170906-0.7348633,1.0651855-1.1143112
				c2.7015343-2.946003,5.1940613-6.1162567,7.4242439-9.4715919c0.1070442-0.1610565,0.2215157-0.3153763,0.340477-0.465004
				c0.3028717,0.5568123,0.643055,1.1163635,0.9977913,1.6723938c-0.1604729,0.1165199-0.2968178,0.2463226-0.3972244,0.3788605
				c-0.2710304,0.3728027-0.3745613,0.7041969-0.55476,0.9967155c-0.6730423,1.2161789-1.4609413,2.386261-2.3028526,3.5193253
				c1.0317802-0.9640007,2.0252762-1.9795647,2.9350662-3.0901642c0.2243462-0.2813873,0.457386-0.576252,0.6691322-0.7185555
				c0.1229668-0.0895615,0.2152634-0.1130028,0.292717-0.1137848c2.2626114,3.310215,4.9857292,6.2440071,5.4726143,6.7596016
				l0.6883774,0.7172852c1.1393127,1.1815109,1.8917542,1.961792,2.7739029,3.3711624
				c0.572052,0.9139862,0.8005981,1.4575195,1.0903854,2.1458969c0.2604828,0.6198044,0.5561295,1.3222427,1.1437073,2.3978806
				c0.7499084,1.3750839,1.5290146,2.5323715,2.2315521,3.4775162
				C74.5825043,77.2399292,74.2573624,77.7558136,73.9767532,78.2037277z M91.5021744,84.794754
				c-0.6144409-0.0488358-1.2253647-0.1236496-1.8302307-0.2400665c-0.5018234-0.0965958-1.0005264-0.2103806-1.4932709-0.3532715
				c-0.0259781-0.0076218-0.0689545-0.0230484-0.1005936-0.0331116c-0.3082504-0.0985489-0.8682861-0.3134232-1.6196518-0.6520386
				c-0.8462143-0.3813019-1.9173508-0.9114532-3.0955429-1.5875244c-1.3978424-0.8024521-2.3782501-1.7195663-3.2716293-2.6965561
				c-0.3373489-0.3688965-0.6635666-0.7457047-0.9934921-1.1291504l-0.3416519-0.3945847l-0.1882095-0.217514
				c-0.2174072-0.2482758-0.4857101-0.555542-0.7865295-0.9170151c-0.2274704-0.2733765-0.4768219-0.5852356-0.7376938-0.9251251
				c-0.228157-0.2972107-0.4634476-0.6133652-0.7083969-0.9623413c-0.5212631-0.7436523-1.0703659-1.6037292-1.607933-2.5892181
				c-0.0253983-0.0465851-0.0429764-0.0829163-0.0671997-0.1278458c-0.1800995-0.3344193-0.3269958-0.6250839-0.453186-0.8886948
				c-0.2122345-0.4428329-0.3729019-0.8171005-0.5229187-1.1738892c-0.3030701-0.7206039-0.5898285-1.4008713-1.2589645-2.4708405
				c-0.7835999-1.2513428-1.5073318-2.0990143-2.3297043-2.9737396c-0.2361679-0.2511139-0.4790726-0.5038795-0.7354507-0.7697372
				l-0.6743088-0.7028275c-1.2703934-1.3460808-3.8094025-4.2865181-5.6934471-7.163662
				c-0.4942093-0.7547913-0.9382133-1.5017662-1.3071098-2.2178802c-0.1833267-0.356102-0.344677-0.7021446-0.4840508-1.0377388
				c-0.0192413-0.046196-0.0409241-0.0936623-0.0592842-0.1394691c-0.0326233-0.0779419-0.0632896-0.1570549-0.094059-0.2362633
				c-0.0906372-0.244175-0.1681862-0.4817047-0.2280579-0.7090797c-0.0600662-0.2288399-0.1057739-0.4495735-0.1311684-0.6582947
				c-0.0037117-0.0311546-0.0064468-0.0621147-0.009964-0.0933685c-0.0030251-0.0283241-0.0061531-0.0565529-0.0088882-0.0847778
				c-0.0656319-0.6484299-0.0592842-1.2603264-0.0589905-1.2671661l-0.0425835-0.0005836
				c0.0100594-0.0814552,0.0181656-0.1641846,0.0342827-0.2421227c0.0502014-0.2340164,0.1261864-0.4423447,0.2291298-0.5916824
				c0.0528412-0.0728607,0.1063652-0.1400566,0.1671143-0.1954346c0.0931778-0.0888824,0.1630096-0.1383972,0.2141876-0.1697502
				c0.1060715-0.0574303,0.1551971-0.0721779,0.2421227-0.0530357c0.0948372,0.0209999,0.2876358,0.1404495,0.4821968,0.338131
				c0.396244,0.3982964,0.8003998,0.9502258,1.2067032,1.4970779c0.1433792,0.1937752,0.2985764,0.389019,0.4452744,0.5845528
				c0.2527695,0.3370552,0.5020256,0.674408,0.7674904,1.0076561c0.0185547,0.023243,0.0350647,0.0471725,0.0538101,0.0704193
				c0.27211,0.3399849,0.5545731,0.6701088,0.842308,0.9951515c0.6485214,0.7325211,1.3374786,1.4282227,2.0912933,2.0747948
				l-0.0348663-0.033989c1.1277924,1.1116714,2.2615356,2.2169991,3.411499,3.3090401
				c1.1626511,1.0829582,2.2954254,2.1844749,3.6025314,3.1562843c0.0972824,0.0713959,0.2005157,0.1316605,0.3014145,0.196022
				c0.595192,0.3862839,1.2477264,0.6631775,1.9030838,0.8789291c0.3883362,0.1262856,0.7689514,0.2011986,1.04702,0.3868675
				c0.2845078,0.1900673,0.5337601,0.4881516,0.7346649,0.7987404c0.3939056,0.6363144,0.6647415,1.4124985,1.1113815,2.082901
				c0.2181931,0.3375473,0.4671555,0.652916,0.7367249,0.9462204l0.2289352,0.2057877l0.0640717,0.0576248
				c0.1897736,0.1870422,0.385498,0.3673401,0.5930481,0.5328903l-0.6433487-0.7147522l-0.1470871-0.1633987
				c-0.2410507-0.3091202-0.4575806-0.6349487-0.6415939-0.9772797c-0.385498-0.6789017-0.5580826-1.4438477-0.9588242-2.175293
				c-0.2109604-0.3590317-0.4567947-0.6993141-0.8166122-0.9700546c-0.3766098-0.270153-0.7892685-0.3605957-1.1406784-0.4991875
				c-0.6126785-0.2367516-1.2031937-0.5229225-1.7226944-0.8981667c-0.0876083-0.0645599-0.1778564-0.1258965-0.260582-0.1960258
				c-1.1680298-0.9961281-2.2350693-2.1764641-3.3080673-3.3223228c-1.066452-1.1593361-2.1194229-2.3345909-3.165657-3.515316
				l-0.0350647-0.0342827c-0.3434067-0.337059-0.6714783-0.695797-0.9921265-1.0630341
				c-0.3445816-0.3949776-0.6791916-0.8010864-0.9955444-1.2210655c-0.1912384-0.2539406-0.3778839-0.5110054-0.5583801-0.7710991
				c-0.0814514-0.1173019-0.1580276-0.2424164-0.2382126-0.3609848c-0.2956467-0.4372673-0.5872879-0.876194-0.8784409-1.3313332
				c-0.3764191-0.5781059-0.7360344-1.1726189-1.2645264-1.7895012c-0.2710304-0.3009186-0.6123848-0.6435432-1.1616783-0.8695488
				c-0.5559349-0.2339211-1.2482147-0.1834259-1.755806,0.0600662c-0.2574539,0.1180801-0.4729118,0.2650757-0.6381721,0.4007378
				c-0.2045174,0.1636925-0.380127,0.3520966-0.5354233,0.5524178c-0.1422043,0.1881104-0.2546234,0.3850136-0.3483849,0.5846481
				l-1.8052254-2.7383575l-0.1478729-0.1797104c-0.6253777-0.6168823-1.0767059-1.3282089-1.3408051-2.1148376
				c-0.1678925-0.4975281-0.3972206-1.1792603-0.196022-1.9191055c0.0429726-0.1593971,0.1033325-0.3145943,0.1793213-0.4612961
				l0.0419006-0.0812607c0.0110359-0.0079117,0.0173836-0.0174828,0.0299835-0.0253944
				c0.2715225-0.1184731,0.4384384-0.1616402,0.894165,0.1313667c0.4362869,0.2908592,0.9238548,0.7711983,1.4084892,1.2426491
				c0.487957,0.4771156,0.9895859,0.9684906,1.5103607,1.4415016l1.6264915,1.3451042l0.8129997,0.6677666l0.8238411,0.614048
				l3.2990799,2.4472046l3.3019104,2.4494514c0.0425797,0.0306702,0.0820389,0.0652466,0.1244278,0.0961075
				c0.5121765,0.3732948,1.0125427,0.7570381,1.5023499,1.1616821c0.5447998,0.4271088,1.0953674,0.8426895,1.6543274,1.2444038
				c1.7094116,1.2324944,3.4630661,2.3898773,5.2310791,3.5229378c0.5419693,0.3473129,1.0788574,0.7028313,1.6244354,1.0441856
				c-0.6856384-0.4981155-1.3603363-1.0107803-2.0383606-1.5189552c-1.5154343-1.1357994-3.0162277-2.289959-4.4673996-3.4972496
				c-0.3853073-0.3193817-0.7582092-0.650383-1.1316986-0.9806023c-0.1361465-0.1204262-0.2780609-0.2360687-0.4127502-0.357666
				c-0.495575-0.4709625-1.0092163-0.9294205-1.5358505-1.3673706l-3.1289368-2.6754608l-3.131382-2.6776085l-0.7806702-0.6706963
				l-0.7296867-0.6910095l-1.4527359-1.378994c-0.4621735-0.4822922-0.9069595-0.98246-1.364933-1.4969826
				c-0.4664688-0.5121765-0.9108658-1.048481-1.5762863-1.5769691c-0.3332481-0.256382-0.7687569-0.5284882-1.3329926-0.6383667
				c-0.3939018-0.0696373-0.76231-0.0578194-1.1244698,0.0246124c0.0010757-0.8429871,0.4164658-1.6422157,0.7183609-1.7509193
				c0.0796967-0.0303764,0.5594521-0.1000137,2.0863152,1.3527222c0.0562592,0.0537148,5.7782249,5.4718323,15.4512138,12.4713135
				c3.5494003,2.5683136,5.8494186,3.4885559,7.5285492,4.1610107c1.7360764,0.6943321,2.5282745,1.0114632,3.5323181,2.6697922
				c2.2787247,3.7629128,3.6742249,5.6572113,4.8276978,7.1283073c0.217514,0.2773819,0.4274063,0.5413818,0.6319275,0.7981567
				c0.1100693,0.1378098,0.2187805,0.2765045,0.3274841,0.4137268c0.0962067,0.1213074,0.1927032,0.2419281,0.2895889,0.3659668
				c-0.3910675,1.3284988-0.7813568,2.9707108-0.9866562,4.7242737c-0.1635971,1.3985291-0.2050095,2.8621979-0.0326233,4.2897339
				c0.0074234,0.060463,0.0094757,0.1216965,0.0176773,0.1819611c0.0215836,0.2272797,0.4163666,4.2127762,1.4978638,8.1222916
				c0.1380005,0.4992828,0.2863617,0.9954453,0.4478149,1.4841843c0.0068359,0.0208969,0.0142593,0.041214,0.021286,0.0621185
				C91.5424118,84.7978821,91.5221939,84.7963181,91.5021744,84.794754z"/>
		</g>
	</g>
	<g>
		<g>
			<polygon class="st3" points="164.8534088,48.8621292 149.8721771,48.8621292 149.8721771,34.4053726 139.1488342,34.4053726 
				139.1488342,73.8769073 149.8721771,73.8769073 149.8721771,58.1781197 164.8534088,58.1781197 164.8534088,73.8769073 
				175.5767517,73.8769073 175.5767517,34.4053726 164.8534088,34.4053726 			"/>
			<path class="st3" d="M213.2381287,65.0975037c0.423233-1.9226646,0.6296997-5.0789375,0.6296997-9.6494637V35.0393791h-9.2700958
				v21.4487076c0,2.8749657-0.1066742,4.9490395-0.3148499,6.1645775c-0.1840973,1.0598335-0.7209015,1.9338531-1.6379242,2.6719513
				c-0.9153137,0.737236-2.3519287,1.1114426-4.266861,1.1114426c-1.8891144,0-3.3773499-0.4043198-4.4234161-1.2009125
				c-1.0460815-0.7974548-1.6895447-1.8263168-1.9665527-3.1339035c-0.1187134-0.6099205-0.2615051-2.1532135-0.2615051-6.0441437
				V35.0393791h-9.2683868v20.713192c0,4.2677155,0.247757,7.4179649,0.7587433,9.6365585
				c0.3681946,1.5613632,1.1338196,3.066803,2.2796783,4.4750443c1.147583,1.4125366,2.7201233,2.5712967,4.6728973,3.4435959
				c1.9682617,0.8791733,4.727951,1.3067245,8.4373779,1.3067245c3.0418549,0,5.5606689-0.401741,7.4876404-1.1948929
				c1.9441681-0.8008957,3.5270386-1.9011612,4.7055817-3.2706833
				C211.9821472,68.7750931,212.8028412,67.0752258,213.2381287,65.0975037"/>
			<path class="st3" d="M237.3149109,60.3110542h8.5973663v3.3954201c-0.9927368,0.7157288-2.1712799,1.3419952-3.5081177,1.8641739
				c-1.4710236,0.574646-2.9541016,0.8654099-4.411377,0.8654099c-2.9420624,0-5.2492676-0.9858475-7.0506439-3.0134659
				c-1.8048096-2.030201-2.7201233-5.174427-2.7201233-9.3440781c0-3.8418922,0.8981171-6.7547112,2.6685181-8.6558723
				c1.7772827-1.9106216,4.1257782-2.8396988,7.1796722-2.8396988c1.9631042,0,3.6096191,0.4765816,4.8948517,1.4159813
				c1.293808,0.9454155,2.1523438,2.2065506,2.6272125,3.8556557l0.2219391,0.769928l9.1358948-1.7084656l-0.1944122-0.8869209
				c-0.7879944-3.6130676-2.5842133-6.4880333-5.3421783-8.5457611c-2.7390442-2.0422401-6.55513-3.0779877-11.3433075-3.0779877
				c-3.6784515,0-6.8097687,0.6563721-9.3045044,1.9484749c-3.2758484,1.681797-5.798111,4.1343803-7.4996948,7.288929
				c-1.6843719,3.1235809-2.5394592,6.7375069-2.5394592,10.7402687c0,3.6853256,0.7621765,7.1452675,2.2658997,10.283474
				c1.5278168,3.1881027,3.8418884,5.6733704,6.8803101,7.387001c3.0108948,1.6989975,6.5774994,2.5609741,10.6034851,2.5609741
				c3.1554108,0,6.3125458-0.6047592,9.3836517-1.7962112c3.0797119-1.1948929,5.4780884-2.6108704,7.129776-4.2083588
				l0.2684021-0.2597961V52.2848854h-17.943161V60.3110542z"/>
			<path class="st3" d="M277.7141418,60.3110542h8.5973816v3.3954201c-0.9927368,0.7157288-2.1712952,1.3419952-3.5081177,1.8641739
				c-1.4710388,0.574646-2.9541016,0.8654099-4.411377,0.8654099c-2.9420776,0-5.2492676-0.9858475-7.0506592-3.0134659
				c-1.8048096-2.030201-2.7201233-5.174427-2.7201233-9.3440781c0-3.8418922,0.8981018-6.7547112,2.6685181-8.6558723
				c1.7772827-1.9106216,4.1257629-2.8396988,7.1796875-2.8396988c1.9631042,0,3.6096191,0.4765816,4.8948364,1.4159813
				c1.2938232,0.9454155,2.1523438,2.2065506,2.6272278,3.8556557l0.2219238,0.769928l9.1358948-1.7084656l-0.194397-0.8869209
				c-0.7879944-3.6130676-2.5842285-6.4880333-5.3421936-8.5457611c-2.7390442-2.0422401-6.5551147-3.0779877-11.3432922-3.0779877
				c-3.6784668,0-6.8097839,0.6563721-9.3045044,1.9484749c-3.2758484,1.681797-5.7981262,4.1343803-7.4996948,7.288929
				c-1.6843872,3.1235809-2.5394897,6.7375069-2.5394897,10.7402687c0,3.6853256,0.762207,7.1452675,2.2659302,10.283474
				c1.5278015,3.1881027,3.8418884,5.6733704,6.8803101,7.387001c3.0108948,1.6989975,6.5774841,2.5609741,10.6034851,2.5609741
				c3.1553955,0,6.3125305-0.6047592,9.3836365-1.7962112c3.0797119-1.1948929,5.4780884-2.6108704,7.1297913-4.2083588
				l0.2684021-0.2597961V52.2848854h-17.9431763V60.3110542z"/>
			<rect x="300.5917358" y="35.0393791" class="st3" width="9.2683735" height="38.9411049"/>
			<polygon class="st3" points="337.8458862,57.6253433 324.0043945,35.0393791 315.3261414,35.0393791 315.3261414,73.980484 
				324.0611572,73.980484 324.0611572,51.9545479 337.6789856,73.980484 346.5826111,73.980484 346.5826111,35.0393791 
				337.8458862,35.0393791 			"/>
			<path class="st3" d="M370.0555115,60.3110542h8.5973511v3.3954201c-0.9927368,0.7157288-2.1712646,1.3419952-3.5081177,1.8641739
				c-1.4710083,0.574646-2.9541016,0.8654099-4.411377,0.8654099c-2.9420471,0-5.2492676-0.9858475-7.0506287-3.0134659
				c-1.8048096-2.030201-2.7201233-5.174427-2.7201233-9.3440781c0-3.8418922,0.8981018-6.7547112,2.6685181-8.6558723
				c1.7772827-1.9106216,4.1257629-2.8396988,7.179657-2.8396988c1.9631042,0,3.6096191,0.4765816,4.8948669,1.4159813
				c1.2937927,0.9454155,2.1523438,2.2065506,2.6271973,3.8556557l0.2219543,0.769928l9.1358948-1.7084656l-0.1944275-0.8869209
				c-0.7879944-3.6130676-2.584198-6.4880333-5.3421631-8.5457611c-2.7390442-2.0422401-6.5551453-3.0779877-11.3433228-3.0779877
				c-3.6784363,0-6.8097534,0.6563721-9.3045044,1.9484749c-3.2758484,1.681797-5.7980957,4.1343803-7.4996948,7.288929
				c-1.6843567,3.1235809-2.5394592,6.7375069-2.5394592,10.7402687c0,3.6853256,0.7621765,7.1452675,2.2658997,10.283474
				c1.527832,3.1881027,3.8418884,5.6733704,6.8803101,7.387001c3.0108948,1.6989975,6.5775146,2.5609741,10.6034851,2.5609741
				c3.155426,0,6.312561-0.6047592,9.383667-1.7962112c3.0797119-1.1948929,5.4780884-2.6108704,7.1297607-4.2083588
				l0.2684021-0.2597961V52.2848854h-17.9431458V60.3110542z"/>
			<polygon class="st3" points="407.6416931,73.980484 416.9100647,73.980484 416.9100647,58.1802063 432.4307861,58.1802063 
				432.4307861,50.1290894 416.9100647,50.1290894 416.9100647,43.0904961 434.8911133,43.0904961 434.8911133,35.0393791 
				407.6416931,35.0393791 			"/>
			<rect x="439.0891418" y="35.0393791" class="st3" width="9.2683735" height="38.9411049"/>
			<path class="st3" d="M477.7764587,51.7902412c-1.8340454-0.9652061-4.5524597-1.8658905-8.3100281-2.7536736
				c-4.3632202-1.0305824-5.9615784-1.8202972-6.5344849-2.3020401c-0.5471497-0.4593735-0.8017578-0.9626236-0.8017578-1.5828667
				c0-0.6804581,0.2632141-1.187149,0.8275452-1.5949097c1.0753174-0.7811089,2.6254883-1.1768265,4.6058044-1.1768265
				c1.8994446,0,3.3154297,0.3587265,4.208374,1.0658531c0.8739929,0.6925049,1.4624329,1.8959999,1.7445679,3.5769348
				l0.1290588,0.7682076l9.1565247-0.4034576l-0.0292358-0.8714371c-0.1256104-3.6534996-1.4779053-6.6230927-4.019104-8.8270645
				c-2.5119324-2.1790237-6.2523193-3.2835884-11.1144714-3.2835884c-2.962738,0-5.5417786,0.4585152-7.661438,1.3635025
				c-2.1747131,0.928215-3.8694153,2.3063393-5.0342102,4.0956688c-1.1630554,1.7858849-1.7531738,3.7352219-1.7531738,5.793808
				c0,3.1906815,1.2507935,5.9288673,3.7162781,8.1371384c1.7480469,1.5673828,4.6419373,2.8353996,8.8451233,3.8771667
				c3.0900574,0.7682037,5.0875549,1.3067245,5.930603,1.5983505c1.1114502,0.3948555,1.913208,0.8602524,2.3192444,1.3437157
				c0.381958,0.4593773,0.5677795,1.009079,0.5677795,1.6809349c0,1.1054268-0.4972534,2.0577278-1.5209351,2.9128227
				c-1.0581055,0.8817596-2.7063599,1.3290863-4.9017334,1.3290863c-2.0559998,0-3.6939392-0.5092697-4.8673096-1.5123215
				c-1.1785583-1.009079-1.9803162-2.6538849-2.3811951-4.8888245l-0.1445312-0.8000336l-9.0068359,0.8757362l0.1066589,0.8929443
				c0.5144348,4.3675117,2.1334229,7.7526054,4.8139954,10.0615273c2.6702271,2.305481,6.506958,3.4737015,11.4035034,3.4737015
				c3.3291931,0,6.1645813-0.4800186,8.428772-1.4254379c2.3244019-0.9703674,4.1498718-2.4801102,5.4264832-4.4870834
				c1.2697449-1.9975052,1.913208-4.1696472,1.913208-6.4570656c0-2.5050583-0.5436707-4.6531105-1.6172791-6.3856621
				C481.1538391,54.1593781,479.6586914,52.7812538,477.7764587,51.7902412z"/>
			<polygon class="st3" points="485.7286682,43.0904961 496.7605591,43.0904961 496.7605591,73.980484 506.0289307,73.980484 
				506.0289307,43.0904961 517.0350342,43.0904961 517.0350342,35.0393791 485.7286682,35.0393791 			"/>
			<path class="st3" d="M548.5925293,55.8850479c-1.0684204-1.7256699-2.5635376-3.1037941-4.4457397-4.0948067
				c-1.8341064-0.9652061-4.5524902-1.8658905-8.3100586-2.7536736c-4.3632202-1.0305824-5.9615479-1.8202972-6.5344849-2.3020401
				c-0.5471191-0.4593735-0.8017578-0.9626236-0.8017578-1.5828667c0-0.6804581,0.2632446-1.187149,0.8275757-1.5949097
				c1.0753174-0.7811089,2.6254883-1.1768265,4.6057739-1.1768265c1.8994141,0,3.3154297,0.3587265,4.208374,1.0658531
				c0.8740234,0.6925049,1.4624023,1.8959999,1.7445679,3.5769348l0.1290283,0.7682076l9.1565552-0.4034576l-0.0292358-0.8714371
				c-0.1256104-3.6534996-1.4779053-6.6230927-4.019104-8.8270645c-2.5119629-2.1790237-6.2523193-3.2835884-11.114502-3.2835884
				c-2.9627075,0-5.541748,0.4585152-7.661377,1.3635025c-2.1747437,0.928215-3.8694458,2.3063393-5.0342407,4.0956688
				c-1.1630859,1.7858849-1.7531738,3.7352219-1.7531738,5.793808c0,3.1906815,1.2507935,5.9288673,3.7163086,8.1371384
				c1.7479858,1.5673828,4.6419067,2.8353996,8.8450928,3.8771667c3.0900269,0.7682037,5.0875244,1.3067245,5.930603,1.5983505
				c1.1114502,0.3948555,1.913208,0.8602524,2.3192139,1.3437157c0.381958,0.4593773,0.5678101,1.009079,0.5678101,1.6809349
				c0,1.1054268-0.4972534,2.0577278-1.5209351,2.9128227c-1.0581055,0.8817596-2.7063599,1.3290863-4.9017334,1.3290863
				c-2.0560303,0-3.6939087-0.5092697-4.8673096-1.5123215c-1.1785278-1.009079-1.9802856-2.6538849-2.3811646-4.8888245
				l-0.1445312-0.8000336l-9.006897,0.8757362l0.1066895,0.8929443c0.5144043,4.3675117,2.1334229,7.7526054,4.8139648,10.0615273
				c2.6702271,2.305481,6.506958,3.4737015,11.4035645,3.4737015c3.3291626,0,6.1645508-0.4800186,8.428772-1.4254379
				c2.3244019-0.9703674,4.1498413-2.4801102,5.4264526-4.4870834c1.2697144-1.9975052,1.913208-4.1696472,1.913208-6.4570656
				C550.2098389,59.7656517,549.6661377,57.6175995,548.5925293,55.8850479z"/>
		</g>
		<g>
			<g>
				<g>
					<g>
						<path class="st3" d="M187.1092529,102.2664185h-12.0632477v-3.6158371h12.0632477
							c0.6956177,0,1.2612915-0.5656738,1.2612915-1.2612991s-0.5656738-1.2613068-1.2612915-1.2613068h-7.1861267
							c-2.68927,0-4.877121-2.1878586-4.877121-4.8771362c0-2.7118759,2.187851-4.8997345,4.877121-4.8997345h12.0632629v3.6158295
							h-12.0632629c-0.6956177,0-1.2612915,0.5656815-1.2612915,1.2609558c0,0.7185745,0.5656738,1.284256,1.2612915,1.284256
							h7.1861267c2.68927,0,4.8771362,2.1878586,4.8771362,4.8771362
							C191.9863892,100.0785522,189.7985229,102.2664185,187.1092529,102.2664185z"/>
					</g>
					<g>
						<g>
							<path class="st3" d="M212.4267731,102.2664185h-13.6903076c-1.7947693,0-3.2497253-1.4549561-3.2497253-3.2497253v-9.415863
								c0-1.7947769,1.4549561-3.2497253,3.2497253-3.2497253h13.6903076v3.6158295h-12.5117645
								c-0.4487,0-0.8124237,0.363739-0.8124237,0.8124313V97.83815c0,0.4487,0.3637238,0.8124313,0.8124237,0.8124313h12.5117645
								V102.2664185z"/>
						</g>
						<g>
							<rect x="202.1852112" y="92.5008469" class="st3" width="8.1317377" height="3.6158319"/>
						</g>
					</g>
					<g>
						<g>
							<path class="st3" d="M273.7490234,102.2664185h-13.6906738c-1.7947693,0-3.2496948-1.4549561-3.2496948-3.2497253v-9.415863
								c0-1.7947769,1.4549255-3.2497253,3.2496948-3.2497253h13.6906738v3.6158295H261.236908
								c-0.4487,0-0.812439,0.363739-0.812439,0.8124313V97.83815c0,0.4487,0.363739,0.8124313,0.812439,0.8124313h12.5121155
								V102.2664185z"/>
						</g>
						<g>
							<rect x="263.5071106" y="92.5008469" class="st3" width="8.1317377" height="3.6158319"/>
						</g>
					</g>
					<g>
						<g>
							<path class="st3" d="M294.1894226,102.2664185H280.499115c-1.7947693,0-3.2497253-1.4549561-3.2497253-3.2497253v-9.415863
								c0-1.7947769,1.4549561-3.2497253,3.2497253-3.2497253h13.6903076v3.6158295h-12.5117798
								c-0.4486694,0-0.8124084,0.363739-0.8124084,0.8124313V97.83815c0,0.4487,0.363739,0.8124313,0.8124084,0.8124313h12.5117798
								V102.2664185z"/>
						</g>
						<g>
							<rect x="283.9478455" y="92.5008469" class="st3" width="8.1317377" height="3.6158319"/>
						</g>
					</g>
					<g>
						<path class="st3" d="M249.7877502,102.2664185h-9.8993225c-1.9443359,0-3.5205383-1.5761948-3.5205383-3.5205307v-8.8742523
							c0-1.9443359,1.5762024-3.5205307,3.5205383-3.5205307h13.4198456v3.6158295h-12.5121155
							c-0.4487,0-0.812439,0.363739-0.812439,0.8124313V97.83815c0,0.4487,0.363739,0.8124313,0.812439,0.8124313h8.0838623
							c0.4486847,0,0.8124237-0.3637314,0.8124237-0.8124313v-1.7214737h-6.6260834v-3.6158295h10.2419128v6.2450409
							C253.3082733,100.6902237,251.7320862,102.2664185,249.7877502,102.2664185z"/>
					</g>
					<g>
						<path class="st3" d="M229.2517242,86.3510895v12.0286789c0,0.149559-0.1212463,0.2708054-0.270813,0.2708054h-1.015564
							c-0.116272,0-0.2195587-0.0742111-0.2566528-0.1844025l-3.7062988-11.008667
							c-0.2225952-0.6611328-0.8423309-1.1064148-1.5399323-1.1064148h-3.8272247
							c-1.4956512,0-2.7080994,1.2124634-2.7080994,2.7080994v13.2072372h3.6158447V90.2377548
							c0-0.1495667,0.1212463-0.270813,0.270813-0.270813h1.0157776c0.1161346,0,0.2193451,0.0740585,0.256546,0.1840897
							l3.7221527,11.0108795c0.2231598,0.6601639,0.8424377,1.1045151,1.5392914,1.1045151h3.8118591
							c1.495636,0,2.7080994-1.2124557,2.7080994-2.7080994V86.3510895H229.2517242z"/>
					</g>
				</g>
			</g>
			<g>
				<g>
					<path class="st3" d="M142.9926605,99.3662567h-0.1008759l-0.354126,1.3650055h-3.3888245V83.132431h4.350296v4.0970612
						l-0.1008759,1.8199997c0.8832397-0.8091125,1.9970551-1.2641144,3.1088257-1.2641144
						c2.9832306,0,4.9308777,2.5282364,4.9308777,6.3967667c0,4.375-2.5797119,6.8517609-5.2602997,6.8517609
						C145.0659027,101.033905,143.9541321,100.4780273,142.9926605,99.3662567z M146.9888458,94.258316
						c0-2.0732346-0.6073608-2.9338226-1.7705994-2.9338226c-0.6588135,0-1.1632233,0.2532349-1.7191162,0.912056v4.6508865
						c0.5044098,0.4550018,1.0603027,0.6073532,1.6182404,0.6073532
						C146.1282501,97.4947891,146.9888458,96.6856689,146.9888458,94.258316z"/>
					<path class="st3" d="M153.7726593,105.2318497l0.7576447-3.285881c0.2285309,0.049408,0.5558929,0.1502914,0.8091278,0.1502914
						c1.1632385,0,1.7191162-0.5044098,1.9723511-1.264122l0.152359-0.5558777l-4.8052979-12.1882401h4.350296l1.5173492,4.8547058
						c0.3541107,1.1632385,0.6052856,2.3264771,0.9100037,3.5905914h0.1008759
						c0.2532349-1.2126465,0.5044098-2.375885,0.8091125-3.5905914l1.2641296-4.8547058h4.1464691l-4.2473602,12.4414749
						c-1.3155823,3.4135284-2.6805878,4.9555893-5.8161774,4.9555893
						C154.835022,105.4850845,154.3285522,105.384201,153.7726593,105.2318497z"/>
				</g>
			</g>
		</g>
	</g>
</g>
</svg>
