<?xml version="1.0" encoding="utf-8"?>
<!-- Generator: Adobe Illustrator 25.4.1, SVG Export Plug-In . SVG Version: 6.00 Build 0)  -->
<svg version="1.1" id="图层_1" xmlns="http://www.w3.org/2000/svg" xmlns:xlink="http://www.w3.org/1999/xlink" x="0px" y="0px"
	 viewBox="0 0 249.448822 42.5196838" style="enable-background:new 0 0 249.448822 42.5196838;" xml:space="preserve">
<style type="text/css">
	.st0{fill:#fff;stroke:#fff;stroke-miterlimit:10;}
</style>
<g>
	<path class="st0" d="M13.9242535,9.713151h27.2087383V2.9178016H13.9142437
		c-6.0031128,0-10.8695679,4.8664551-10.8695679,10.8695679s4.8664551,10.8695669,10.8695679,10.8695669h4.9551392
		l-0.000061,0.0003052l11.3826904,0.0001831c2.2500591,0,4.0741558,1.8240967,4.0741558,4.0742188
		s-1.8240967,4.0742188-4.0741558,4.0742188H3.0441263v6.7953491H30.262022c6.0031109,0,10.869566-4.8664551,10.869566-10.8695679
		s-4.8664551-10.8695679-10.869566-10.8695679h-4.9345093c0,0,0.000061-0.0003052,0.0001221-0.0004883H13.9242535
		c-2.250061,0-4.0741577-1.8240967-4.0741577-4.0742178S11.6741924,9.713151,13.9242535,9.713151z"/>
	<g>
		<path class="st0" d="M60.5923653,32.7995148c-2.2938843,0-4.1535034-1.8595581-4.1535034-4.1534424V13.8726358
			c0-2.2938843,1.8596191-4.1534424,4.1535034-4.1534424H79.33358V2.9178016H58.3044014
			c-4.7891846,0-8.6716309,3.8824461-8.6716309,8.6716309v19.3398438c0,4.7891846,3.8824463,8.6716309,8.6716309,8.6716309H79.33358
			v-6.8013916H60.5923653z"/>
		<rect x="61.2978325" y="17.8616943" class="st0" width="15.1595459" height="6.7953491"/>
	</g>
	<g>
		<path class="st0" d="M189.472168,32.7995148c-2.2938843,0-4.1535034-1.8595581-4.1535034-4.1534424V13.8726358
			c0-2.2938843,1.8596191-4.1534424,4.1535034-4.1534424h18.7412109V2.9178016h-21.0291748
			c-4.7891846,0-8.6716309,3.8824461-8.6716309,8.6716309v19.3398438c0,4.7891846,3.8824463,8.6716309,8.6716309,8.6716309
			h21.0291748v-6.8013916H189.472168z"/>
		<rect x="190.9869843" y="17.8616943" class="st0" width="15.1595459" height="6.7953491"/>
	</g>
	<g>
		<path class="st0" d="M227.6634827,32.7995148c-2.2938843,0-4.1535034-1.8595581-4.1535034-4.1534424V13.8726358
			c0-2.2938843,1.8596191-4.1534424,4.1535034-4.1534424h18.7412109V2.9178016h-21.0291748
			c-4.7891846,0-8.6716309,3.8824461-8.6716309,8.6716309v19.3398438c0,4.7891846,3.8824463,8.6716309,8.6716309,8.6716309
			h21.0291748v-6.8013916H227.6634827z"/>
		<rect x="229.1744843" y="17.8616943" class="st0" width="15.1595459" height="6.7953491"/>
	</g>
	<g>
		<path class="st0" d="M142.8852386,32.7995148c-2.2938843,0-4.1535034-1.8595581-4.1535034-4.1534424V13.8726358
			c0-2.2938843,1.8596191-4.1534424,4.1535034-4.1534424h27.1320496V2.9178016h-29.4200134
			c-4.7891846,0-8.6716309,3.8824461-8.6716309,8.6716309v19.3398438c0,4.7891846,3.8824463,8.6716309,8.6716309,8.6716309
			h21.0291748v-6.8013916H142.8852386z"/>
		<rect x="150.1056061" y="17.8616943" class="st0" width="19.9116859" height="6.7953491"/>
		<path class="st0" d="M163.2111969,28.6460724V20.810318h6.8060913v10.1189575
			c0,4.7891846-3.8824463,8.6716309-8.6716309,8.6716309h-8.0158691v-6.8013916h5.7279053
			C161.3515778,32.7995148,163.2111969,30.9399567,163.2111969,28.6460724z"/>
	</g>
	<polygon class="st0" points="116.6238174,2.9187171 116.6238174,28.673172 95.361908,2.9178016 87.8451233,2.9187171 
		87.8451233,39.6018829 94.6404724,39.6018829 94.6404724,13.8456583 115.9023209,39.6009674 123.4191666,39.6018829 
		123.4191666,39.6009674 123.4191666,2.9187171 	"/>
</g>
</svg>
