<?xml version="1.0" encoding="utf-8"?>
<!-- Generator: Adobe Illustrator 25.0.1, SVG Export Plug-In . SVG Version: 6.00 Build 0)  -->
<svg version="1.1" id="图层_1" xmlns="http://www.w3.org/2000/svg" xmlns:xlink="http://www.w3.org/1999/xlink" x="0px" y="0px"
	 viewBox="0 0 29.8274307 29.7999992" style="enable-background:new 0 0 29.8274307 29.7999992;" xml:space="preserve">
<style type="text/css">
	.st0{fill:#2B858B;}
</style>
<g>
	<path class="st0" d="M0.9156689,8.6182919c0.331543,0,0.6000977-0.2685547,0.6000977-0.5996094V3.898077
		c0-1.3232422,1.0766602-2.3999023,2.3999023-2.3999023h4.1196284c0.3310547,0,0.5996094-0.2685547,0.5996094-0.6000977
		S8.3663521,0.2979794,8.0352974,0.2979794H3.915669c-1.9848633,0-3.6000977,1.6152344-3.6000977,3.6000977v4.1206055
		C0.3155713,8.3497372,0.5841259,8.6182919,0.9156689,8.6182919z"/>
	<path class="st0" d="M25.9161568,0.2979794h-4.1201172c-0.3310547,0-0.5996094,0.2685547-0.5996094,0.6000977
		s0.2685547,0.6000977,0.5996094,0.6000977h4.1201172c1.3232422,0,2.4003906,1.0766602,2.4003906,2.3999023v4.1206055
		c0,0.3310547,0.2685547,0.5996094,0.5996094,0.5996094s0.5996094-0.2685547,0.5996094-0.5996094V3.898077
		C29.5157661,1.9132137,27.9015083,0.2979794,25.9161568,0.2979794z"/>
	<path class="st0" d="M28.9161568,21.1787777c-0.3310547,0-0.5996094,0.2685547-0.5996094,0.5996094v4.1201172
		c0,1.3232422-1.0771484,2.4003906-2.4003906,2.4003906h-4.1201172c-0.3310547,0-0.5996094,0.2685547-0.5996094,0.5996094
		s0.2685547,0.5996094,0.5996094,0.5996094h4.1201172c1.9853516,0,3.5996094-1.6142578,3.5996094-3.5996094v-4.1201172
		C29.5157661,21.4473324,29.2472115,21.1787777,28.9161568,21.1787777z"/>
	<path class="st0" d="M8.0352974,28.2988949H3.915669c-1.3232422,0-2.3999023-1.0771484-2.3999023-2.4003906v-4.1201172
		c0-0.3310547-0.2685547-0.5996094-0.6000977-0.5996094s-0.6000977,0.2685547-0.6000977,0.5996094v4.1201172
		c0,1.9853516,1.6152344,3.5996094,3.6000977,3.5996094h4.1196284c0.3310547,0,0.5996094-0.2685547,0.5996094-0.5996094
		S8.3663521,28.2988949,8.0352974,28.2988949z"/>
	<path class="st0" d="M11.2120552,1.4923153c0.1601562,0,0.3095703-0.0600586,0.4199219-0.1699219
		c0.1201172-0.1098633,0.1796875-0.2602539,0.1796875-0.4199219c0-0.1601562-0.0703125-0.3203125-0.1796875-0.4301758
		c-0.1699219-0.1699219-0.4306641-0.2197266-0.6503906-0.1298828c-0.0693359,0.0297852-0.1396484,0.0800781-0.2001953,0.1298828
		c-0.109375,0.1098633-0.1699219,0.2700195-0.1699219,0.4301758c0,0.159668,0.0605469,0.3100586,0.1806641,0.4199219
		C10.9015083,1.4322567,11.051899,1.4923153,11.2120552,1.4923153z"/>
	<path class="st0" d="M13.6817818,1.4923153c0.3300781,0,0.5996094-0.2597656,0.5996094-0.5898438
		c0-0.340332-0.2695312-0.6000977-0.5996094-0.6000977s-0.5996094,0.2597656-0.5996094,0.6000977
		C13.0821724,1.2325497,13.3517036,1.4923153,13.6817818,1.4923153z"/>
	<path class="st0" d="M16.1515083,1.4923153c0.3300781,0,0.6005859-0.2597656,0.6005859-0.5898438
		c0-0.340332-0.2705078-0.6000977-0.6005859-0.6000977S15.551899,0.5621395,15.551899,0.9024715
		C15.551899,1.2325497,15.8214302,1.4923153,16.1515083,1.4923153z"/>
	<path class="st0" d="M18.6222115,1.5025692c0.1591797,0,0.3095703-0.0703125,0.4199219-0.1801758
		c0.1201172-0.1098633,0.1796875-0.2602539,0.1796875-0.4199219c0-0.1601562-0.0703125-0.3203125-0.1796875-0.4301758
		c-0.2304688-0.2197266-0.6298828-0.2197266-0.8505859,0c-0.109375,0.1098633-0.1699219,0.2700195-0.1699219,0.4301758
		c0,0.159668,0.0605469,0.3100586,0.1699219,0.4199219C18.3116646,1.4322567,18.4620552,1.5025692,18.6222115,1.5025692z"/>
	<path class="st0" d="M11.6319771,28.472723c-0.0498047-0.0507812-0.1201172-0.1005859-0.1904297-0.1308594
		c-0.2197266-0.0898438-0.4902344-0.0400391-0.6601562,0.1308594c-0.0498047,0.0595703-0.0898438,0.1191406-0.1298828,0.1992188
		c-0.0195312,0.0703125-0.0400391,0.1503906-0.0400391,0.2304688c0,0.1601562,0.0605469,0.3095703,0.1806641,0.4199219
		c0.109375,0.1103516,0.2597656,0.1796875,0.4199219,0.1796875c0.0800781,0,0.1601562-0.0195312,0.2294922-0.0498047
		c0.0703125-0.0302734,0.140625-0.0703125,0.1904297-0.1298828c0.1201172-0.1103516,0.1796875-0.2597656,0.1796875-0.4199219
		c0-0.0800781-0.0195312-0.1601562-0.0498047-0.2304688C11.7315865,28.5918636,11.6915474,28.5322933,11.6319771,28.472723z"/>
	<path class="st0" d="M16.1515083,28.3018246c-0.3300781,0-0.5996094,0.2607422-0.5996094,0.6005859
		c0,0.3300781,0.2695312,0.5996094,0.5996094,0.5996094s0.6005859-0.2695312,0.6005859-0.5996094
		C16.7520943,28.5625668,16.4815865,28.3018246,16.1515083,28.3018246z"/>
	<path class="st0" d="M13.6817818,28.3018246c-0.3300781,0-0.5996094,0.2607422-0.5996094,0.6005859
		c0,0.3300781,0.2695312,0.5996094,0.5996094,0.5996094s0.5996094-0.2695312,0.5996094-0.5996094
		C14.2813911,28.5625668,14.0118599,28.3018246,13.6817818,28.3018246z"/>
	<path class="st0" d="M19.0421333,28.472723c-0.1699219-0.1708984-0.4306641-0.2207031-0.6503906-0.1308594
		c-0.0703125,0.0302734-0.1396484,0.0800781-0.2001953,0.1308594c-0.0498047,0.0595703-0.0996094,0.1191406-0.1298828,0.1992188
		c-0.0302734,0.0703125-0.0400391,0.1503906-0.0400391,0.2304688c0,0.1601562,0.0605469,0.3095703,0.1796875,0.4199219
		c0.0507812,0.0595703,0.1201172,0.0996094,0.1904297,0.1298828s0.1503906,0.0498047,0.2304688,0.0498047
		c0.1591797,0,0.3095703-0.0693359,0.4199219-0.1796875c0.1201172-0.1103516,0.1796875-0.2705078,0.1796875-0.4199219
		c0-0.0800781-0.0205078-0.1601562-0.0498047-0.2304688C19.1417427,28.5918636,19.1017036,28.5322933,19.0421333,28.472723z"/>
	<path class="st0" d="M29.341938,10.7725887c-0.0605469-0.0605469-0.1201172-0.1005859-0.2001953-0.1298828
		c-0.2197266-0.0908203-0.4794922-0.0400391-0.6503906,0.1298828c-0.109375,0.109375-0.1796875,0.2597656-0.1796875,0.4199219
		s0.0703125,0.3095703,0.1796875,0.4199219c0.1103516,0.1201172,0.2607422,0.1796875,0.4208984,0.1796875
		c0.0791016,0,0.1591797-0.0195312,0.2294922-0.0498047s0.1396484-0.0703125,0.2001953-0.1298828
		c0.109375-0.1103516,0.1699219-0.2597656,0.1699219-0.4199219S29.451313,10.8819637,29.341938,10.7725887z"/>
	<path class="st0" d="M28.9122505,15.5323544c-0.3300781,0-0.5908203,0.2695312-0.5908203,0.5996094
		s0.2607422,0.6005859,0.5908203,0.6005859c0.3291016,0,0.5996094-0.2705078,0.5996094-0.6005859
		S29.2413521,15.5323544,28.9122505,15.5323544z"/>
	<path class="st0" d="M28.9122505,13.0626278c-0.3300781,0-0.5908203,0.2695312-0.5908203,0.5996094
		s0.2607422,0.5996094,0.5908203,0.5996094c0.3291016,0,0.5996094-0.2695312,0.5996094-0.5996094
		S29.2413521,13.0626278,28.9122505,13.0626278z"/>
	<path class="st0" d="M28.4913521,19.0323544c0.1103516,0.1103516,0.2607422,0.1699219,0.4208984,0.1699219
		c0.0791016,0,0.1591797-0.0195312,0.2294922-0.0400391c0.0703125-0.0302734,0.1396484-0.0800781,0.2001953-0.1298828
		c0.109375-0.1201172,0.1699219-0.2705078,0.1699219-0.4296875c0-0.1601562-0.0605469-0.3105469-0.1699219-0.4199219
		c-0.0605469-0.0605469-0.1201172-0.1005859-0.2001953-0.1308594c-0.2197266-0.0996094-0.4794922-0.0400391-0.6503906,0.1308594
		c-0.109375,0.109375-0.1796875,0.2597656-0.1796875,0.4199219C28.3116646,18.7618465,28.3819771,18.9122372,28.4913521,19.0323544z
		"/>
	<path class="st0" d="M0.6817822,11.7520809C0.7618603,11.7823544,0.8316845,11.79212,0.9117627,11.79212
		c0.1601563,0,0.3100587-0.0595703,0.4301758-0.1699219c0.1098633-0.1201172,0.1699219-0.2695312,0.1699219-0.4296875
		s-0.0600586-0.3105469-0.1699219-0.4199219C1.1720166,10.6026669,0.901997,10.54212,0.6817822,10.6427059
		c-0.0698242,0.0292969-0.1401367,0.0693359-0.1899414,0.1298828c-0.0600586,0.0498047-0.1000977,0.1201172-0.1298828,0.1894531
		c-0.0302734,0.0800781-0.050293,0.1503906-0.050293,0.2304688c0,0.1601562,0.0703125,0.3095703,0.1801758,0.4296875
		C0.5518994,11.6720028,0.611958,11.722784,0.6817822,11.7520809z"/>
	<circle class="st0" cx="0.9117627" cy="13.6622372" r="0.5998535"/>
	<path class="st0" d="M0.9117627,16.7325497c0.3300782,0,0.6000977-0.2705078,0.6000977-0.6005859
		s-0.2700195-0.5996094-0.6000977-0.5996094S0.311665,15.8018856,0.311665,16.1319637S0.5816845,16.7325497,0.9117627,16.7325497z"
		/>
	<path class="st0" d="M0.9117627,19.2022762c0.1601563,0,0.3198243-0.0595703,0.4301758-0.1699219
		c0.1098633-0.1201172,0.1699219-0.2705078,0.1699219-0.4296875c0-0.1601562-0.0600586-0.3105469-0.1699219-0.4199219
		c-0.2202148-0.2207031-0.6201172-0.2304688-0.8500977,0C0.3819775,18.29212,0.311665,18.4425106,0.311665,18.6026669
		c0,0.1591797,0.0703125,0.3095703,0.1801758,0.4296875C0.6017041,19.1427059,0.7516064,19.2022762,0.9117627,19.2022762z"/>
	<path class="st0" d="M7.8897901,7.88587h5.3603511c0.3310547,0,0.5996094-0.2685547,0.5996094-0.5996094
		s-0.2685547-0.5996094-0.5996094-0.5996094H7.8897901c-0.3310547,0-0.5996094,0.2685547-0.5996094,0.5996094
		S7.5587354,7.88587,7.8897901,7.88587z"/>
	<path class="st0" d="M11.5001411,8.7345028H7.8897901c-0.3310547,0-0.5996094,0.2685547-0.5996094,0.5996094
		s0.2685547,0.5996094,0.5996094,0.5996094h3.6103511c0.3310547,0,0.5996094-0.2685547,0.5996094-0.5996094
		S11.8311958,8.7345028,11.5001411,8.7345028z"/>
	<path class="st0" d="M13.2501411,18.2081356H7.8897901c-0.3310547,0-0.5996094,0.2685547-0.5996094,0.5996094
		s0.2685547,0.5996094,0.5996094,0.5996094h5.3603511c0.3310547,0,0.5996094-0.2685547,0.5996094-0.5996094
		S13.5811958,18.2081356,13.2501411,18.2081356z"/>
	<path class="st0" d="M11.5001411,20.2569027H7.8897901c-0.3310547,0-0.5996094,0.2685547-0.5996094,0.5996094
		s0.2685547,0.5996094,0.5996094,0.5996094h3.6103511c0.3310547,0,0.5996094-0.2685547,0.5996094-0.5996094
		S11.8311958,20.2569027,11.5001411,20.2569027z"/>
	<path class="st0" d="M22.5323677,18.0255184h1.4238281c0.9375,0,1.7001953-0.7626953,1.7001953-1.7001953V11.51087
		c0-0.9375-0.7626953-1.7001953-1.7001953-1.7001953h-6.9921875V5.800909c0-0.9375-0.7626953-1.7006836-1.7001953-1.7006836
		H5.8756299c-0.9375,0-1.7006836,0.7631836-1.7006836,1.7006836v4.8144531c0,0.9375,0.7631836,1.7001953,1.7006836,1.7001953
		h1.4243164l1.1298823,1.6044922c0.1123047,0.1591797,0.2949219,0.2539062,0.4902344,0.2539062
		s0.3779297-0.0947266,0.4902344-0.2539062l1.1298828-1.6044922h2.3271484v3.3066406H5.8756299
		c-0.9375,0-1.7006836,0.7626953-1.7006836,1.7001953v4.8143921c0,0.9375,0.7631836,1.7001953,1.7006836,1.7001953h1.4243164
		l1.1298823,1.6044922c0.1123047,0.1591797,0.2949219,0.2539062,0.4902344,0.2539062s0.3779297-0.0947266,0.4902344-0.2539062
		l1.1298828-1.6044922h4.7236328c0.9375,0,1.7001953-0.7626953,1.7001953-1.7001953v-4.1112671h2.328125l1.1298828,1.6044312
		c0.1123047,0.1591797,0.2949219,0.2539062,0.4902344,0.2539062s0.3779297-0.0947266,0.4902344-0.2539062L22.5323677,18.0255184z
		 M10.2286568,11.1163387c-0.1953125,0-0.3779297,0.0947266-0.4902344,0.2539062L8.920063,12.5323544L8.1017036,11.370245
		c-0.1123042-0.1591797-0.2949214-0.2539062-0.4902339-0.2539062H5.8756299c-0.2758789,0-0.5004883-0.2246094-0.5004883-0.5009766
		V5.800909c0-0.2758789,0.2246094-0.5004883,0.5004883-0.5004883h9.3881836c0.2763672,0,0.5009766,0.2246094,0.5009766,0.5004883
		v4.0097656H14.567524c-0.8010864,0-1.4702759,0.5586548-1.649292,1.3056641H10.2286568z M15.7647896,22.1367855
		c0,0.2763672-0.2246094,0.5009766-0.5009766,0.5009766h-5.0351562c-0.1953125,0-0.3779297,0.0947266-0.4902344,0.2539062
		L8.920063,24.0537777l-0.8183594-1.1621094c-0.1123042-0.1591797-0.2949214-0.2539062-0.4902339-0.2539062H5.8756299
		c-0.2758789,0-0.5004883-0.2246094-0.5004883-0.5009766v-4.8143921c0-0.2763672,0.2246094-0.5009766,0.5004883-0.5009766h9.3881836
		c0.2763672,0,0.5009766,0.2246094,0.5009766,0.5009766V22.1367855z M20.0938911,17.0802059
		c-0.1123047-0.1591797-0.2949219-0.2539062-0.4902344-0.2539062h-2.7221069
		c-0.2138672-0.6945801-0.8539429-1.2041016-1.6177368-1.2041016h-1.1972656V11.51087
		c0-0.2763672,0.2246094-0.5009766,0.5009766-0.5009766h9.3886719c0.2763672,0,0.5009766,0.2246094,0.5009766,0.5009766v4.8144531
		c0,0.2763672-0.2246094,0.5009766-0.5009766,0.5009766h-1.7353516c-0.1953125,0-0.3779297,0.0947266-0.4902344,0.2539062
		l-0.8183594,1.1621094L20.0938911,17.0802059z"/>
	<path class="st0" d="M22.5421333,12.9962215c0-0.3310547-0.2685547-0.5996094-0.5996094-0.5996094h-5.3613281
		c-0.3310547,0-0.5996094,0.2685547-0.5996094,0.5996094s0.2685547,0.5996094,0.5996094,0.5996094h5.3613281
		C22.2735786,13.5958309,22.5421333,13.3272762,22.5421333,12.9962215z"/>
	<path class="st0" d="M22.5421333,15.0450497c0-0.3310547-0.2685547-0.5996094-0.5996094-0.5996094h-3.6113281
		c-0.3310547,0-0.5996094,0.2685547-0.5996094,0.5996094s0.2685547,0.5996094,0.5996094,0.5996094h3.6113281
		C22.2735786,15.644659,22.5421333,15.3761044,22.5421333,15.0450497z"/>
</g>
</svg>
