<?xml version="1.0" encoding="utf-8"?>
<!-- Generator: Adobe Illustrator 25.0.1, SVG Export Plug-In . SVG Version: 6.00 Build 0)  -->
<svg version="1.1" id="图层_1" xmlns="http://www.w3.org/2000/svg" xmlns:xlink="http://www.w3.org/1999/xlink" x="0px" y="0px"
	 viewBox="0 0 29.8274307 29.7999992" style="enable-background:new 0 0 29.8274307 29.7999992;" xml:space="preserve">
<style type="text/css">
	.st0{fill:#2B858B;}
</style>
<g>
	<path class="st0" d="M0.9156689,8.6182919c0.3310547,0,0.5996094-0.2685547,0.5996094-0.6000977V3.898077
		c0-1.3232422,1.0771484-2.3999023,2.4003906-2.3999023h4.1201167c0.3310547,0,0.5996094-0.2685547,0.5996094-0.6000977
		S8.3668404,0.2979794,8.0357857,0.2979794H3.915669c-1.9853516,0-3.5996094,1.6152344-3.5996094,3.6000977v4.1201172
		C0.3160596,8.3497372,0.5846142,8.6182919,0.9156689,8.6182919z"/>
	<path class="st0" d="M25.9156685,0.2979794h-4.1191406c-0.3310547,0-0.5996094,0.2685547-0.5996094,0.6000977
		s0.2685547,0.6000977,0.5996094,0.6000977h4.1191406c1.3232422,0,2.4003906,1.0766602,2.4003906,2.3999023v4.1201172
		c0,0.331543,0.2685547,0.6000977,0.5996094,0.6000977s0.5996094-0.2685547,0.5996094-0.6000977V3.898077
		C29.5152779,1.9132137,27.9010201,0.2979794,25.9156685,0.2979794z"/>
	<path class="st0" d="M28.9156685,21.1788387c-0.3310547,0-0.5996094,0.2685547-0.5996094,0.5996094v4.1201172
		c0,1.3231812-1.0771484,2.4003296-2.4003906,2.4003296h-4.1191406c-0.3310547,0-0.5996094,0.2685547-0.5996094,0.5996094
		s0.2685547,0.5996094,0.5996094,0.5996094h4.1191406c1.9853516,0,3.5996094-1.6142578,3.5996094-3.5995483v-4.1201172
		C29.5152779,21.4473934,29.2467232,21.1788387,28.9156685,21.1788387z"/>
	<path class="st0" d="M8.0357857,28.2988949H3.915669c-1.3232422,0-2.4003906-1.0771484-2.4003906-2.4003296v-4.1201172
		c0-0.3310547-0.2685547-0.5996094-0.5996094-0.5996094s-0.5996094,0.2685547-0.5996094,0.5996094v4.1201172
		c0,1.9852905,1.6142578,3.5995483,3.5996094,3.5995483h4.1201167c0.3310547,0,0.5996094-0.2685547,0.5996094-0.5996094
		S8.3668404,28.2988949,8.0357857,28.2988949z"/>
	<path class="st0" d="M11.2115669,1.5020809c0.1601562,0,0.3105469-0.0698242,0.4199219-0.1796875
		c0.1201172-0.1103516,0.1806641-0.2700195,0.1806641-0.4204102c0-0.159668-0.0703125-0.3198242-0.1806641-0.4296875
		c-0.0498047-0.050293-0.1201172-0.1000977-0.1894531-0.1298828c-0.2197266-0.090332-0.4902344-0.0302734-0.6601562,0.1298828
		c-0.1103516,0.1098633-0.1699219,0.2700195-0.1699219,0.4296875c0,0.1601562,0.0595703,0.3100586,0.1699219,0.4204102
		C10.9019966,1.4322567,11.0514107,1.5020809,11.2115669,1.5020809z"/>
	<path class="st0" d="M13.6822701,1.5020809c0.3291016,0,0.5996094-0.2700195,0.5996094-0.6000977
		c0-0.3398438-0.2705078-0.5996094-0.5996094-0.5996094c-0.3300781,0-0.6005859,0.2597656-0.6005859,0.5996094
		C13.0816841,1.2320614,13.3521919,1.5020809,13.6822701,1.5020809z"/>
	<path class="st0" d="M16.1519966,1.5020809c0.3300781,0,0.5996094-0.2700195,0.5996094-0.6000977
		c0-0.3398438-0.2695312-0.5996094-0.5996094-0.5996094s-0.6005859,0.2597656-0.6005859,0.5996094
		C15.5514107,1.2320614,15.8219185,1.5020809,16.1519966,1.5020809z"/>
	<path class="st0" d="M18.6217232,1.5020809c0.1601562,0,0.3105469-0.0698242,0.4199219-0.1796875
		c0.1201172-0.1103516,0.1806641-0.2602539,0.1806641-0.4204102c0-0.159668-0.0703125-0.3198242-0.1806641-0.4296875
		c-0.2197266-0.2299805-0.6201172-0.2202148-0.8496094,0c-0.1103516,0.1098633-0.1699219,0.2700195-0.1699219,0.4296875
		c0,0.1503906,0.0595703,0.3100586,0.1699219,0.4204102C18.3121529,1.4322567,18.4615669,1.5020809,18.6217232,1.5020809z"/>
	<path class="st0" d="M10.7818794,28.4717464c-0.1103516,0.1103516-0.1699219,0.2705078-0.1699219,0.4306641
		s0.0595703,0.3095703,0.1699219,0.4199219c0.0595703,0.0595703,0.1298828,0.0996094,0.2001953,0.1298828
		c0.0693359,0.0302734,0.1494141,0.0400391,0.2294922,0.0400391c0.1601562,0,0.3105469-0.0605469,0.4199219-0.1699219
		c0.1201172-0.1103516,0.1806641-0.2597656,0.1806641-0.4199219s-0.0703125-0.3203125-0.1806641-0.4306641
		C11.4117622,28.2520199,11.001606,28.2520199,10.7818794,28.4717464z"/>
	<path class="st0" d="M13.6822701,28.3018246c-0.3300781,0-0.6005859,0.2607422-0.6005859,0.6005859
		c0,0.3300781,0.2705078,0.5996094,0.6005859,0.5996094c0.3291016,0,0.5996094-0.2695312,0.5996094-0.5996094
		C14.2818794,28.5625668,14.0113716,28.3018246,13.6822701,28.3018246z"/>
	<path class="st0" d="M16.1519966,28.3018246c-0.3300781,0-0.6005859,0.2607422-0.6005859,0.6005859
		c0,0.3300781,0.2705078,0.5996094,0.6005859,0.5996094s0.5996094-0.2695312,0.5996094-0.5996094
		C16.751606,28.5625668,16.4820747,28.3018246,16.1519966,28.3018246z"/>
	<path class="st0" d="M18.1920357,28.4717464c-0.1103516,0.1103516-0.1699219,0.2705078-0.1699219,0.4306641
		c0,0.1494141,0.0595703,0.3095703,0.1699219,0.4199219c0.0595703,0.0595703,0.1298828,0.0996094,0.2001953,0.1298828
		c0.0693359,0.0302734,0.1494141,0.0498047,0.2294922,0.0498047c0.1601562,0,0.3105469-0.0703125,0.4199219-0.1796875
		c0.1201172-0.1103516,0.1806641-0.2597656,0.1806641-0.4199219s-0.0703125-0.3203125-0.1806641-0.4306641
		C18.8219185,28.2520199,18.4215279,28.2520199,18.1920357,28.4717464z"/>
	<path class="st0" d="M28.9117622,11.79212c0.1601562,0,0.3105469-0.0600586,0.4296875-0.1796875
		c0.0507812-0.050293,0.1005859-0.1201172,0.1308594-0.1904297c0.0292969-0.0698242,0.0390625-0.1499023,0.0390625-0.2299805
		c0-0.159668-0.0595703-0.3095703-0.1699219-0.4199219c-0.2294922-0.2299805-0.6298828-0.2299805-0.8496094,0
		c-0.0595703,0.050293-0.0996094,0.1201172-0.1298828,0.1899414c-0.0302734,0.0703125-0.0498047,0.1503906-0.0498047,0.2299805
		c0,0.0800781,0.0195312,0.1601562,0.0498047,0.2299805c0.0302734,0.0703125,0.0703125,0.1401367,0.1298828,0.1904297
		C28.6021919,11.7320614,28.751606,11.79212,28.9117622,11.79212z"/>
	<circle class="st0" cx="28.9117622" cy="13.6622372" r="0.5996094"/>
	<path class="st0" d="M28.9117622,16.7325497c0.3398438,0,0.5996094-0.2705078,0.5996094-0.6005859
		s-0.2597656-0.5996094-0.5996094-0.5996094c-0.3300781,0-0.5996094,0.2695312-0.5996094,0.5996094
		S28.5816841,16.7325497,28.9117622,16.7325497z"/>
	<path class="st0" d="M28.4918404,19.0323544c0.1103516,0.109375,0.2597656,0.1699219,0.4199219,0.1699219
		c0.0800781,0,0.1601562-0.0097656,0.2304688-0.0400391c0.0800781-0.0302734,0.1396484-0.0800781,0.1992188-0.1298828
		c0.1103516-0.1201172,0.1699219-0.2705078,0.1699219-0.4296875c0-0.0800781-0.0097656-0.1601562-0.0390625-0.2304688
		c-0.0302734-0.0703125-0.0800781-0.1396484-0.1308594-0.1904297c-0.0595703-0.0595703-0.1298828-0.0996094-0.1992188-0.1298828
		c-0.2207031-0.0898438-0.4804688-0.0400391-0.6503906,0.1298828c-0.0595703,0.0507812-0.0996094,0.1201172-0.1298828,0.1904297
		s-0.0498047,0.1503906-0.0498047,0.2304688C28.3121529,18.7618465,28.3814888,18.9122372,28.4918404,19.0323544z"/>
	<path class="st0" d="M0.6822705,11.7520809C0.761372,11.7823544,0.8316845,11.79212,0.9117627,11.79212
		s0.1601563-0.0097656,0.2304688-0.0400391c0.0693359-0.0297852,0.1396484-0.0800781,0.1992188-0.1298828
		c0.1103516-0.1201172,0.1699219-0.2700195,0.1699219-0.4301758c0-0.159668-0.0595703-0.3095703-0.1699219-0.4199219
		c-0.0595703-0.0600586-0.1191406-0.1000977-0.1992188-0.1298828c-0.1503907-0.0600586-0.3105469-0.0600586-0.459961,0
		c-0.0703125,0.0297852-0.140625,0.0698242-0.1904297,0.1298828c-0.1103516,0.1103516-0.1796875,0.2602539-0.1796875,0.4199219
		c0,0.1601562,0.0693359,0.3100586,0.1796875,0.4301758C0.5514111,11.6720028,0.611958,11.7222958,0.6822705,11.7520809z"/>
	<path class="st0" d="M0.9117627,16.7325497c0.3300782,0,0.5996094-0.2705078,0.5996094-0.6005859
		s-0.2695312-0.5996094-0.5996094-0.5996094s-0.5996094,0.2695312-0.5996094,0.5996094S0.5816845,16.7325497,0.9117627,16.7325497z"
		/>
	<circle class="st0" cx="0.9117627" cy="13.6622372" r="0.5996094"/>
	<path class="st0" d="M0.6822705,19.1622372c0.0791016,0.0302734,0.1494141,0.0400391,0.2294922,0.0400391
		s0.1601563-0.0097656,0.2304688-0.0400391c0.0693359-0.0302734,0.1396484-0.0800781,0.1992188-0.1298828
		c0.1103516-0.1201172,0.1699219-0.2705078,0.1699219-0.4296875c0-0.0800781-0.0097656-0.1601562-0.0390625-0.2304688
		c-0.0302734-0.0703125-0.0800781-0.1396484-0.1308594-0.1904297c-0.0595703-0.0595703-0.1191406-0.0996094-0.1992188-0.1298828
		c-0.140625-0.0595703-0.3105469-0.0595703-0.459961,0c-0.0703125,0.0302734-0.140625,0.0703125-0.1904297,0.1298828
		c-0.0595703,0.0507812-0.0996094,0.1201172-0.1298828,0.1904297s-0.0498047,0.1503906-0.0498047,0.2304688
		c0,0.1591797,0.0693359,0.3095703,0.1796875,0.4296875C0.5514111,19.082159,0.611958,19.1319637,0.6822705,19.1622372z"/>
	<path class="st0" d="M23.8971138,18.3692684V8.7388973c0-1.2084961-0.9824219-2.1914062-2.1914062-2.1914062H8.126606
		c-1.2089839,0-2.1914058,0.9829102-2.1914058,2.1914062v9.6303711c0,1.2089844,0.9824219,2.1914062,2.1914058,2.1914062h2.1982422
		l1.7138672,2.4335938c0.1123047,0.1591797,0.2949219,0.2539062,0.4902344,0.2539062s0.3779297-0.0947266,0.4902344-0.2539062
		l1.7138672-2.4335938h6.9726562C22.9146919,20.5606747,23.8971138,19.5782528,23.8971138,18.3692684z M14.4215279,19.3614559
		c-0.1953125,0-0.3779297,0.0947266-0.4902344,0.2539062l-1.4023438,1.9912109l-1.4023438-1.9912109
		c-0.1123047-0.1591797-0.2949219-0.2539062-0.4902344-0.2539062H8.126606c-0.5468745,0-0.992187-0.4453125-0.992187-0.9921875
		V8.7388973c0-0.5463867,0.4453125-0.9912109,0.992187-0.9912109h13.5791016c0.546875,0,0.9921875,0.4448242,0.9921875,0.9912109
		v9.6303711c0,0.546875-0.4453125,0.9921875-0.9921875,0.9921875H14.4215279z"/>
	<path class="st0" d="M20.2389107,9.991827H9.5924263c-0.3310547,0-0.5996094,0.2685547-0.5996094,0.6000977
		s0.2685547,0.6000977,0.5996094,0.6000977h10.6464844c0.3310547,0,0.5996094-0.2685547,0.5996094-0.6000977
		S20.5699654,9.991827,20.2389107,9.991827z"/>
	<path class="st0" d="M20.2389107,12.9542294H9.5924263c-0.3310547,0-0.5996094,0.2685547-0.5996094,0.5996094
		s0.2685547,0.5996094,0.5996094,0.5996094h10.6464844c0.3310547,0,0.5996094-0.2685547,0.5996094-0.5996094
		S20.5699654,12.9542294,20.2389107,12.9542294z"/>
	<path class="st0" d="M17.7076607,15.91712H9.5924263c-0.3310547,0-0.5996094,0.2685547-0.5996094,0.5996094
		s0.2685547,0.5996094,0.5996094,0.5996094h8.1152344c0.3310547,0,0.5996094-0.2685547,0.5996094-0.5996094
		S18.0387154,15.91712,17.7076607,15.91712z"/>
</g>
</svg>
