<?xml version="1.0" encoding="utf-8"?>
<!-- Generator: Adobe Illustrator 25.0.1, SVG Export Plug-In . SVG Version: 6.00 Build 0)  -->
<svg version="1.1" id="图层_1" xmlns="http://www.w3.org/2000/svg" xmlns:xlink="http://www.w3.org/1999/xlink" x="0px" y="0px"
	 viewBox="0 0 492.7430115 142.1191406" style="enable-background:new 0 0 492.7430115 142.1191406;" xml:space="preserve">
<style type="text/css">
	.st0{fill:#033883;}
</style>
<g>
	<path class="st0" d="M68.9629135,42.7131348c-15.6304321,0-28.3463135,12.7161255-28.3463135,28.3463135
		c0,15.6304321,12.7158813,28.3465576,28.3463135,28.3465576c11.5283203,0,21.4643555-6.9213257,25.8892822-16.8234863H81.7846298
		c-3.159729,3.5122681-7.7365723,5.7254639-12.8217163,5.7254639c-9.5109253,0-17.248291-7.7376099-17.248291-17.2485352
		c0-9.5106812,7.7373657-17.248291,17.248291-17.248291c7.6343384,0,14.1161499,4.9901733,16.3807983,11.8762817H66.4753647
		l-5.9349976,11.0980225h24.6902466h3.2201538h8.2772827c0.3809814-1.8499756,0.581665-3.7649536,0.581665-5.7260132
		C97.3097153,55.4292603,84.5933456,42.7131348,68.9629135,42.7131348z"/>
	<rect x="109.929039" y="65.4312134" class="st0" width="28.3095093" height="11.2567139"/>
	<polygon class="st0" points="147.4417267,54.0023804 170.7694244,54.0023804 170.7694244,99.4060059 182.05867,99.4060059 
		182.05867,54.0023804 205.3863678,54.0023804 205.3863678,42.7131348 147.4417267,42.7131348 	"/>
	<polygon class="st0" points="286.0895081,99.4060059 297.3787537,99.4060059 297.3787537,42.7131348 286.0895081,53.9649658 	"/>
	<polygon class="st0" points="247.4273224,42.7233887 247.4320831,42.7131348 247.4225616,42.7131348 236.1428375,42.7131348 
		236.1333771,42.7131348 236.1380768,42.7233276 209.8384552,99.4060059 221.1277008,99.4060059 241.7827301,54.8889771 
		250.595047,73.881897 234.8613434,83.9083862 255.2471466,83.9083862 262.9666443,76.2144775 	"/>
	<polygon class="st0" points="257.6730652,89.1367798 262.4377747,99.4059448 273.7270203,99.4059448 265.3924866,81.4429321 	"/>
	<path class="st0" d="M382.3760681,42.7131348h-39.694397v0.0195923h-0.1205444v26.28479h0.1206055h7.5391235h32.1552124h7.5391846
		h0.1206055V42.7131348h-0.1205444H382.3760681z M350.2208557,49.194458h32.1552124v3.4301758h-32.1552124V49.194458z
		 M350.2208557,62.5361328v-3.4301147h32.1552124v3.4301147H350.2208557z"/>
	<path class="st0" d="M382.2554626,73.1414185h-31.3425293l0.012207-0.0202026h-8.2434082l-7.9262695,13.142395h8.2435303
		l4.0050659-6.6408081h7.3300171l-10.7128906,19.7832031h8.2435303l10.7128296-19.7832031h6.5098877l-10.7128296,19.7832031
		h8.2434692l10.7128296-19.7832031h4.9245605v9.4752197c0,2.0968018-1.6998291,3.7966309-3.7966309,3.7966309h-2.6705322v6.4813232
		l4.4848633,0.0095215c5.3218994,0.0113525,9.6420898-4.2997437,9.6420898-9.621582V79.6228027v-6.4813843v-0.0397949h-7.65979
		V73.1414185z"/>
	<rect x="424.927948" y="74.4260864" class="st0" width="7.2740479" height="24.9799194"/>
	<path class="st0" d="M452.1264343,50.8551025v-5.595459h-22.1866455c0.1168213-0.9465942,0.1940918-1.8024902,0.2431641-2.5465088
		h-7.2271118c-0.0455322,0.7253418-0.1243896,1.5852051-0.2505493,2.5465088h-17.7017822v5.595459h16.5736084
		c-0.317627,1.164917-0.7042236,2.3829346-1.1727295,3.633606h-15.4008789v5.595459h12.7902222
		c-0.6930542,1.2173462-1.4831543,2.4338379-2.3693848,3.633606h-10.4208374v5.5953979h5.2792358
		c-1.5633545,1.3729248-3.3118896,2.6743774-5.2792358,3.8647461v7.9292603
		c6.4914551-3.2425537,11.3181763-7.3855591,14.9120483-11.7940063h17.757019
		c3.5424194,4.4446411,8.2360229,8.6881104,14.4538574,11.7940063v-7.9292603
		c-1.857666-1.1240234-3.5224609-2.4418335-5.0182495-3.8647461h5.0182495v-5.5953979h-9.8139648
		c-0.8702393-1.2263184-1.6463623-2.4498291-2.3430176-3.633606h12.1569824v-5.595459h-24.2323608
		c0.4055176-1.2560425,0.7427979-2.4716797,1.0231323-3.633606H452.1264343z M431.8460388,60.0841675
		c0.5881348,1.1844482,1.2445068,2.4001465,1.9779663,3.633606h-10.0313721
		c0.7088623-1.2154541,1.3356323-2.4299316,1.8991089-3.633606H431.8460388z"/>
	<path class="st0" d="M421.0136414,84.6647339c-0.1783447-1.302063-1.2907104-2.2723999-2.6048584-2.2723999h-11.1671753v5.595459
		h8.1636963c-0.1792603,1.1518555-0.6032715,2.5075684-1.557373,3.5878296
		c-1.3103027,1.4830322-3.4763794,2.2349243-6.4390869,2.2349243v5.595459c4.6676025,0,8.2609253-1.4060059,10.6783447-4.1785889
		c3.7386475-4.2861938,2.9802246-10.1696167,2.9463501-10.4176636L421.0136414,84.6647339z"/>
	<path class="st0" d="M436.1163025,84.6647339l-0.0198364,0.1450195c-0.0338745,0.2480469-0.7923584,6.1309204,2.9463501,10.4176636
		c2.418457,2.772583,6.0107422,4.1785889,10.6794434,4.1785889v-5.595459c-2.9627686,0-5.1298828-0.7518921-6.4402466-2.2349243
		c-0.9541016-1.0808105-1.3781128-2.4376221-1.557312-3.5878296h8.1636353v-5.595459h-11.1671753
		C437.4070129,82.392334,436.2946472,83.3626709,436.1163025,84.6647339z"/>
</g>
</svg>
