<?xml version="1.0" encoding="utf-8"?>
<!-- Generator: Adobe Illustrator 25.2.1, SVG Export Plug-In . SVG Version: 6.00 Build 0)  -->
<svg version="1.1" id="图层_1" xmlns="http://www.w3.org/2000/svg" xmlns:xlink="http://www.w3.org/1999/xlink" x="0px" y="0px"
	 viewBox="0 0 145 30" style="enable-background:new 0 0 145 30;" xml:space="preserve">
<style type="text/css">
	.st0{fill:#FFFFFF;}
</style>
<g>
	<g>
		<path class="st0" d="M5.3234701,17.6618652v5.4424534c0,2.459507,2.3295465,3.2138844,4.1045208,3.2138844h10.8404913
			c0.7170105,0,1.2982635,0.5812531,1.2982635,1.2982635l0,0h10.9386749l0,0c0-0.9143867,0.6589203-1.695715,1.5601921-1.850029
			l0.8373871-0.1433754c0.9012718-0.154314,1.5601883-0.9356422,1.5601883-1.850029v-3.8918304
			c0-1.5771503-1.2785301-2.8556843-2.8556824-2.8556843h-0.0101891c-0.4840965,0-0.8765335-0.392437-0.8765335-0.8765335V3.2581859
			c0-0.4830577-0.3915977-0.8746533-0.8746548-0.8746533h-14.397644c-0.2749634,0-0.5365429,0.1186955-0.7176094,0.3256257
			L6.5849977,14.3043041C5.7717462,15.2337751,5.3234701,16.4268398,5.3234701,17.6618652z M11.2401781,17.9376011
			c0-0.2071304,0.0748081-0.4072952,0.2107792-0.5635662l9.4436598-10.858263
			c0.3751869-0.4312677,0.9188805-0.6788549,1.4905319-0.6788549h3.1747646c0.7192631,0,1.3023663,0.5831022,1.3023663,1.3023667
			v0.9127731c0,0.719264-0.5831032,1.3023663-1.3023663,1.3023663h-2.4727707l-1.7462521,2.0663824h4.2190228
			c0.7192631,0,1.3023663,0.5831022,1.3023663,1.3023663v0.9127731c0,0.719264-0.5831032,1.3023663-1.3023663,1.3023663h-7.1915951
			l-1.4763145,1.7470179c-0.1593494,0.1885929-0.0252857,0.4773769,0.2215614,0.4773769h8.4463482
			c0.7192631,0,1.3023663,0.5831032,1.3023663,1.3023682v0.9127712c0,0.719265-0.5831032,1.3023682-1.3023663,1.3023682H12.202569
			c-0.5314808,0-0.9623909-0.4308624-0.9623909-0.962368V17.9376011z"/>
		<path class="st0" d="M2.4134934,27.6164665h1.1175408l-1.0823314-1.9510212
			c-0.2030506-0.3658333-0.3103011-0.7805214-0.3103011-1.199028v-7.9016018c0-1.2644863,0.4465585-2.4950027,1.2574246-3.4650269
			l8.9649458-10.7162561h-1.2742176L2.646219,12.4728899c-0.9576198,1.1457844-1.4849021,2.5988169-1.4849021,4.0919256v7.9016018
			c0,0.5839615,0.1496161,1.1625786,0.4328181,1.6730671L2.4134934,27.6164665z"/>
		<path class="st0" d="M35.7749367,14.3785877l0.5459824,0.1282415c0.0337791,0.0148859,3.3770523,1.516963,3.3770523,4.4218836
			v5.6796875c0,0.2532406-0.0368309,0.4965572-0.1091576,0.7228909c-0.1021004,0.3188877-0.2389297,0.6253719-0.4066734,0.9110546
			c-0.3123055,0.5324345-0.7405434,1.0011311-1.2479782,1.3741207h1.4456825
			c0.2436981-0.272419,0.4612541-0.5663548,0.645031-0.8794708c0.2040024-0.3477058,0.370224-0.7202187,0.494648-1.1078091
			c0.103241-0.3230858,0.1555328-0.6665936,0.1555328-1.0207863v-5.7773972c0-3.0068264-2.7277298-4.7515049-3.6494713-5.232605
			V2.8991263c0-0.2847526-0.2308159-0.5155938-0.5155449-0.5155938h-0.8458862v0.5263851h0.1107826V14.3785877z"/>
	</g>
	<g>
		<g>
			<rect x="48.0676193" y="21.5313835" class="st0" width="1.0127138" height="4.9220133"/>
			<path class="st0" d="M53.1931953,22.6354771c-0.5201263,0-0.9101143,0.2661819-1.2454453,0.5853958h-0.0273323
				l-0.0683289-0.4921818h-0.8211861v3.7247066h0.9990501v-2.5608501c0.2873917-0.2727089,0.4858551-0.4189568,0.8005829-0.4189568
				c0.3763275,0,0.5405235,0.2062149,0.5405235,0.7781487v2.2016582h1.0059814v-2.3213882
				C54.3770409,23.1941528,54.0211105,22.6354771,53.1931953,22.6354771z"/>
			<path class="st0" d="M58.3671112,22.6354771c-0.5201225,0-0.9101143,0.2661819-1.2454414,0.5853958h-0.0273323
				l-0.0683327-0.4921818h-0.8211823v3.7247066h0.9990463v-2.5608501c0.2873955-0.2727089,0.4858589-0.4189568,0.8005829-0.4189568
				c0.3763275,0,0.5405235,0.2062149,0.5405235,0.7781487v2.2016582h1.0059814v-2.3213882
				C59.5509567,23.1941528,59.1950302,22.6354771,58.3671112,22.6354771z"/>
			<path class="st0" d="M62.8221931,22.542263c-0.9578476,0-1.8406296,0.7183838-1.8406296,1.9621964
				c0,1.2305546,0.882782,1.9489384,1.8406296,1.9489384c0.9580498,0,1.8406258-0.7183838,1.8406258-1.9489384
				C64.6628189,23.2606468,63.7802429,22.542263,62.8221931,22.542263z M62.8221931,25.655056
				c-0.5199203,0-0.8142509-0.4522018-0.8142509-1.1505966c0-0.7051258,0.2943306-1.1640606,0.8142509-1.1640606
				c0.5201225,0,0.8142509,0.4589348,0.8142509,1.1640606C63.6364441,25.2028542,63.3423157,25.655056,62.8221931,25.655056z"/>
			<path class="st0" d="M67.8585892,24.5844154c-0.1026001,0.3657188-0.2121277,0.7516308-0.3077927,1.1306095h-0.0342712
				c-0.1025925-0.3789787-0.2121277-0.7648907-0.307991-1.1306095l-0.5609207-1.8557243H65.634903l1.306839,3.7247066h1.1632385
				l1.2795105-3.7247066h-0.9647827L67.8585892,24.5844154z"/>
			<path class="st0" d="M72.3444977,22.542263c-0.6021271,0-1.1495819,0.219471-1.6011734,0.4921799l0.3626633,0.6451588
				c0.3557205-0.199482,0.6979828-0.3524609,1.0537109-0.3524609c0.4721909,0,0.6363907,0.2794399,0.6500549,0.6451588
				c-1.5395737,0.1597099-2.2032928,0.5786648-2.2032928,1.3768005c0,0.6319008,0.4515915,1.1042976,1.13591,1.1042976
				c0.4379272,0,0.8209839-0.2129459,1.156311-0.4923859h0.0205994l0.0752716,0.3991718h0.8209763v-2.1749382
				C73.8155289,23.1076679,73.3160095,22.542263,72.3444977,22.542263z M72.8097534,25.3225842
				c-0.2394638,0.2327309-0.4515915,0.3657188-0.7389832,0.3657188c-0.2943344,0-0.5064621-0.1262569-0.5064621-0.4189548
				c0-0.3324718,0.3149338-0.5786648,1.2454453-0.6983948V25.3225842z"/>
			<path class="st0" d="M77.0679016,25.681776c-0.3422623,0-0.5201263-0.199482-0.5201263-0.6251698v-1.6497135h0.9443817
				v-0.7714157h-0.9443817v-0.9978237H75.706192l-0.1162643,0.9978237l-0.5886612,0.046505v0.7249107h0.5407257v1.6497135
				c0,0.8379116,0.348999,1.3967915,1.2589111,1.3967915c0.3353271,0,0.6021194-0.073225,0.807518-0.1397209l-0.1641998-0.7116528
				C77.341629,25.641798,77.1908951,25.681776,77.0679016,25.681776z"/>
			<path class="st0" d="M79.3969345,20.9725056c-0.348999,0-0.6021271,0.212944-0.6021271,0.5321579
				c0,0.3059559,0.2531281,0.5321598,0.6021271,0.5321598c0.3420563,0,0.5951843-0.2262039,0.5951843-0.5321598
				C79.9921188,21.1854496,79.7389908,20.9725056,79.3969345,20.9725056z"/>
			<rect x="78.8904724" y="22.7286911" class="st0" width="0.9990477" height="3.7247062"/>
			<path class="st0" d="M83.5371246,24.5844154c-0.1025925,0.3657188-0.2121277,0.7516308-0.3077927,1.1306095h-0.0342636
				c-0.1026001-0.3789787-0.2121277-0.7648907-0.3079987-1.1306095l-0.5609131-1.8557243h-1.0127182l1.306839,3.7247066h1.1632462
				l1.2795029-3.7247066h-0.9647751L83.5371246,24.5844154z"/>
			<path class="st0" d="M87.9789963,22.542263c-0.9168549,0-1.7859726,0.7516308-1.7859726,1.9621964
				c0,1.2238235,0.8348541,1.9489384,1.9022293,1.9489384c0.4789276,0,0.9647827-0.1597099,1.3411102-0.4124279
				l-0.3420563-0.5986538c-0.273735,0.166235-0.5474625,0.259449-0.8621902,0.259449
				c-0.5678482,0-0.978447-0.319418-1.0606461-0.9313278h2.3607559c0.0273361-0.0864849,0.0479355-0.2659779,0.0479355-0.4454727
				C89.580162,23.2938938,89.0327072,22.542263,87.9789963,22.542263z M87.1578064,24.1252785
				c0.075264-0.5454178,0.4311981-0.8246536,0.8348541-0.8246536c0.4925842,0,0.7253189,0.3192139,0.7253189,0.8246536H87.1578064z"
				/>
			<path class="st0" d="M94.9588013,22.542263c-0.6021194,0-1.1495819,0.219471-1.6011734,0.4921799l0.3626633,0.6451588
				c0.3557205-0.199482,0.6979904-0.3524609,1.0537109-0.3524609c0.4721909,0,0.6363907,0.2794399,0.6500549,0.6451588
				c-1.5395737,0.1597099-2.2032928,0.5786648-2.2032928,1.3768005c0,0.6319008,0.4515915,1.1042976,1.1359177,1.1042976
				c0.4379196,0,0.8209763-0.2129459,1.1563034-0.4923859h0.020607l0.075264,0.3991718h0.8209763v-2.1749382
				C96.4298325,23.1076679,95.9303131,22.542263,94.9588013,22.542263z M95.424057,25.3225842
				c-0.2394638,0.2327309-0.4515915,0.3657188-0.7389832,0.3657188c-0.2943344,0-0.5064621-0.1262569-0.5064621-0.4189548
				c0-0.3324718,0.3149338-0.5786648,1.2454453-0.6983948V25.3225842z"/>
			<path class="st0" d="M100.1131668,22.6354771c-0.5201263,0-0.9101181,0.2661819-1.2454453,0.5853958h-0.0273285
				l-0.0683289-0.4921818h-0.8211899v3.7247066h0.9990463v-2.5608501c0.2873993-0.2727089,0.4858627-0.4189568,0.8005905-0.4189568
				c0.3763199,0,0.5405197,0.2062149,0.5405197,0.7781487v2.2016582h1.0059814v-2.3213882
				C101.2970123,23.1941528,100.9410858,22.6354771,100.1131668,22.6354771z"/>
			<path class="st0" d="M105.2527924,22.3627682l0.0410004,0.5851917c-0.2737274-0.2459888-0.5405273-0.4056969-0.9717178-0.4056969
				c-0.827919,0-1.6079025,0.7448997-1.6079025,1.9621964c0,1.2170925,0.6157913,1.9489384,1.5669022,1.9489384
				c0.3969269,0,0.7799835-0.2129459,1.0606461-0.4789238h0.020401l0.0821991,0.3857098h0.8142471v-5.3077221h-1.0057755V22.3627682
				z M105.2527924,25.2626171c-0.2190628,0.2794399-0.4448624,0.3859119-0.7116547,0.3859119
				c-0.5064545,0-0.7938538-0.3859119-0.7938538-1.1573277c0-0.7449017,0.3626633-1.1440716,0.7938538-1.1440716
				c0.2394638,0,0.4789276,0.073225,0.7116547,0.2794399V25.2626171z"/>
			<path class="st0" d="M112.2627792,22.542263c-0.9168472,0-1.785965,0.7516308-1.785965,1.9621964
				c0,1.2238235,0.8348465,1.9489384,1.9022293,1.9489384c0.47892,0,0.9647751-0.1597099,1.3411026-0.4124279l-0.3420563-0.5986538
				c-0.2737274,0.166235-0.5474625,0.259449-0.8621826,0.259449c-0.5678558,0-0.978447-0.319418-1.0606461-0.9313278h2.3607483
				c0.0273361-0.0864849,0.0479355-0.2659779,0.0479355-0.4454727
				C113.863945,23.2938938,113.3164902,22.542263,112.2627792,22.542263z M111.4415894,24.1252785
				c0.075264-0.5454178,0.4311981-0.8246536,0.8348541-0.8246536c0.4925919,0,0.7253189,0.3192139,0.7253189,0.8246536H111.4415894z
				"/>
			<path class="st0" d="M117.7904358,22.4292622v0.2994289h-1.382309v-0.2527199
				c0-0.3859119,0.1984634-0.5786648,0.4927902-0.5786648c0.1984634,0,0.328392,0.0332489,0.4652557,0.0930119l0.1847992-0.7249107
				c-0.1847992-0.0732269-0.4654617-0.1397209-0.7732544-0.1397209c-0.9717102,0-1.3753738,0.5853958-1.3753738,1.3502846v0.2592468
				l-0.5131836,0.039978v0.7249126h0.5131836v2.953289h1.0057831v-2.953289h1.382309v2.953289h0.9990463v-2.953289h0.7253189
				v-0.7714176h-0.7253189v-0.319418c0-0.4122238,0.1641922-0.5851917,0.4652557-0.5851917
				c0.1299286,0,0.2737274,0.033247,0.4105911,0.0797539l0.1845932-0.7183857
				c-0.1709213-0.066494-0.4309845-0.132988-0.732048-0.132988
				C118.1598282,21.0524616,117.7904358,21.6511154,117.7904358,22.4292622z"/>
			<path class="st0" d="M122.286087,22.542263c-0.9168472,0-1.7859726,0.7516308-1.7859726,1.9621964
				c0,1.2238235,0.8348541,1.9489384,1.9022293,1.9489384c0.4789276,0,0.9647827-0.1597099,1.3411102-0.4124279
				l-0.3420563-0.5986538c-0.273735,0.166235-0.5474625,0.259449-0.8621826,0.259449
				c-0.5678558,0-0.978447-0.319418-1.0606537-0.9313278h2.3607559c0.0273361-0.0864849,0.0479355-0.2659779,0.0479355-0.4454727
				C123.8872528,23.2938938,123.339798,22.542263,122.286087,22.542263z M121.4648972,24.1252785
				c0.075264-0.5454178,0.4311981-0.8246536,0.8348541-0.8246536c0.4925842,0,0.7253189,0.3192139,0.7253189,0.8246536H121.4648972z
				"/>
			<path class="st0" d="M127.0381012,25.655056c-0.554184,0-0.9511108-0.4522018-0.9511108-1.1505966
				c0-0.7051258,0.3969269-1.1640606,0.978447-1.1640606c0.2190628,0,0.3969269,0.086483,0.5884552,0.2461929l0.4791183-0.6319008
				c-0.2806549-0.2327309-0.6433182-0.4124279-1.115509-0.4124279c-1.0400467,0-1.9568939,0.7183838-1.9568939,1.9621964
				c0,1.2305546,0.807518,1.9489384,1.8679657,1.9489384c0.4242554,0,0.8895111-0.1397209,1.2521667-0.4524078l-0.3967209-0.6451588
				C127.5718918,25.5287991,127.3118286,25.655056,127.0381012,25.655056z"/>
			<path class="st0" d="M131.2812958,25.681776c-0.3422546,0-0.5201263-0.199482-0.5201263-0.6251698v-1.6497135h0.944397
				v-0.7714157h-0.944397v-0.9978237h-0.841568l-0.116272,0.9978237l-0.5886536,0.046505v0.7249107h0.5407257v1.6497135
				c0,0.8379116,0.3489838,1.3967915,1.2588959,1.3967915c0.3353271,0,0.6021271-0.073225,0.8075256-0.1397209l-0.1641998-0.7116528
				C131.5550232,25.641798,131.4042969,25.681776,131.2812958,25.681776z"/>
			<rect x="133.2129669" y="22.7286911" class="st0" width="0.9990477" height="3.7247062"/>
			<path class="st0" d="M133.7159576,21.1642628c-0.3489838,0-0.6021118,0.2129459-0.6021118,0.5321598
				c0,0.3059559,0.2531281,0.5321579,0.6021118,0.5321579c0.3420715,0,0.5951843-0.226202,0.5951843-0.5321579
				C134.311142,21.3772087,134.0580292,21.1642628,133.7159576,21.1642628z"/>
			<path class="st0" d="M137.897171,24.5844154c-0.1026001,0.3657188-0.2121277,0.7516308-0.3078003,1.1306095h-0.034256
				c-0.1026001-0.3789787-0.2121429-0.7648907-0.3079987-1.1306095l-0.5609283-1.8557243h-1.0127106l1.306839,3.7247066h1.1632538
				l1.2794952-3.7247066h-0.9647827L137.897171,24.5844154z"/>
			<path class="st0" d="M142.2375183,22.542263c-0.9168549,0-1.785965,0.7516308-1.785965,1.9621964
				c0,1.2238235,0.8348389,1.9489384,1.9022217,1.9489384c0.4789276,0,0.9647827-0.1597099,1.3411102-0.4124279
				l-0.3420563-0.5986538c-0.2737274,0.166235-0.5474548,0.259449-0.8621826,0.259449
				c-0.5678558,0-0.9784546-0.319418-1.0606537-0.9313278h2.3607635c0.0273285-0.0864849,0.0479279-0.2659779,0.0479279-0.4454727
				C143.8386841,23.2938938,143.2912292,22.542263,142.2375183,22.542263z M141.4163361,24.1252785
				c0.0752563-0.5454178,0.4311829-0.8246536,0.8348389-0.8246536c0.4925995,0,0.7253265,0.3192139,0.7253265,0.8246536H141.4163361
				z"/>
		</g>
		<g>
			<path class="st0" d="M51.8426018,13.7512417c-0.7298431,1.7522917-1.9471359,3.5204353-3.1148911,4.6234608
				c-0.3566666-0.3401546-1.1519012-0.957056-1.6221733-1.2324829c1.1677551-0.9412041,2.2225647-2.4497728,2.8229523-3.9259787
				L51.8426018,13.7512417z M56.0281563,12.242672v4.2991581c0,0.9894218-0.1948471,1.5085697-0.8599625,1.8328724
				c-0.6327553,0.3249626-1.5574455,0.3731804-2.7252007,0.3731804c-0.0977516-0.5673656-0.4379082-1.42733-0.729847-1.9788418
				c0.8434525,0.0323639,1.7192688,0.0482159,1.9953537,0.0323639c0.275425,0,0.3566666-0.0647278,0.3566666-0.3084507V12.242672
				h-3.3255882c-0.8764763,0-1.7357788,0.0970936-1.898262,0.2595749c-0.0970917-0.4055433-0.4379082-1.3956251-0.6974831-1.9629898
				c0.4702721-0.1301174,0.8110886-0.5191488,1.3460884-1.1842661c0.2437248-0.2919388,0.6657791-0.9088402,1.1684151-1.7199278
				h-3.3421021V5.7856789h4.3638878c0.3731804-0.7139945,0.7305069-1.4603534,1.0382957-2.222564l2.141983,0.7622106
				c-0.243721,0.5032969-0.4867821,0.9735689-0.746357,1.4603534h7.1055984v1.8493843h-8.1762619
				c-0.6327515,0.9894209-1.2820168,1.914113-1.8982582,2.7417126h2.9200439V8.3166933h1.9629898v2.0600824h4.4292755
				l-0.01651,1.8658962H56.0281563z M58.5102959,13.2162409c1.1360512,1.200119,2.5310135,2.8553171,3.1637688,3.9907084
				l-1.7522926,0.9088402c-0.5838776-1.1036873-1.9141121-2.855978-3.0501633-4.1208248L58.5102959,13.2162409z"/>
			<path class="st0" d="M76.9328079,16.0550461c-0.210701,0.4055443-0.4220581,0.7622108-0.6003952,1.1030254h1.4768677v1.3143845
				h-7.5606766v-1.3143845h0.8764725c-0.0977478-0.3408146-0.2595749-0.7463589-0.4379044-1.0706615l1.0706635-0.2919378h-1.363266
				v-1.1030254h2.6446228v-0.5680256H71.432869v-0.3731794c-0.2595749,0.0977535-0.5350037,0.1948462-0.8110886,0.2919388
				c-0.2106934-0.3566675-0.5515137-0.8269396-0.8758163-1.1353903l-0.4702682,0.8599634
				c-0.1301193-0.0977526-0.2919388-0.2113581-0.470932-0.3243027v0.6809702h-1.3302383v0.5356607h2.3203201v1.1030254h-1.3467484
				l1.0871735,0.243063c-0.1789932,0.3408146-0.3249664,0.6492653-0.470932,0.9412041l0.7628708-0.0647278v1.2331429
				c-2.3038101,0.2430611-4.7212143,0.4702721-6.4735107,0.6486053l-0.1941833-1.3143845
				c0.8110886-0.0482159,1.8170166-0.1294575,2.9200439-0.2265491v-1.4603539h-2.5475235v-1.1030254h2.5475235v-0.5356607
				h-1.5250778v-0.4220562c-0.2430649,0.0977535-0.4867859,0.1948462-0.729847,0.2760868
				c-0.178997-0.3566666-0.5356636-0.8434515-0.8764763-1.1677542c1.3632584-0.3573275,2.7740784-0.9577169,3.6505508-1.7846556
				h-2.2390747V9.7440224h2.4986496c-0.0812378-0.1948462-0.1783371-0.3890314-0.2760849-0.5673647l1.0871735-0.2437229h-2.3685379
				V7.797545h4.234436V7.2942481h-2.1743469V6.7916117c-0.9894257,0.356667-2.0442352,0.6486058-3.0336533,0.8758159
				c-0.210701-0.4379077-0.6162415-1.0382972-1.0059357-1.443841c2.6604767-0.4702721,5.7430038-1.3791122,7.3493195-2.6769838
				l1.3949661,0.7628708c-0.0970917,0.0812411-0.1941833,0.1618214-0.2919388,0.22721
				c2.336174,0.9081802,4.4127655,1.2489953,5.8731155,1.443841c-0.4055405,0.3731794-0.8434448,0.9894209-1.0548096,1.5085692
				c-0.8269348-0.1624813-1.8170166-0.4055433-2.9847717-0.7945747v0.5997291h-2.2549286V7.797545h4.2179184v1.1353898h-2.2872925
				l1.200119,0.2437229c-0.1459732,0.2106972-0.2919388,0.3890305-0.4213943,0.5673647h2.6928329v1.2820196h-2.4821396
				l0.7787247,0.2919378c-0.0812378,0.1136055-0.1783295,0.2106981-0.2760849,0.3243027
				c1.0548096,0.5838776,2.1902008,0.9246931,3.1802826,1.1519032c-0.3408203,0.2919378-0.7463608,0.7787228-0.9412079,1.1684141
				c-0.2760849-0.0977526-0.5680237-0.2113581-0.8758163-0.3408146v0.502636H74.56427v0.5680256h2.9200516v1.1030254h-1.6869049
				L76.9328079,16.0550461z M65.0736313,15.7954721c0.2106934,0.3731794,0.4379044,0.8758154,0.4867783,1.2331438
				l-1.1195374,0.2919369c-0.0488739-0.3566666-0.2430573-0.8758144-0.4544182-1.2655067L65.0736313,15.7954721z
				 M68.285614,13.1184883c-0.4537582-0.2754269-0.9570541-0.5350008-1.42733-0.7622108
				c-0.3243027,0.2754259-0.7139969,0.5350008-1.1195374,0.7622108H68.285614z M69.729454,12.9077902
				c1.4768677-0.3731794,3.0177994-1.0059328,3.9101257-1.8817482h-6.3110199l0.6327515,0.243062
				c-0.0647278,0.0812407-0.1136093,0.1459684-0.1783371,0.22721c0.7787247,0.3566666,1.6221771,0.7952347,2.0924454,1.1519022
				L69.729454,12.9077902z M67.4745255,15.7631073v1.3302364l0.4055405-0.0323639
				c0.1783371-0.4220562,0.3896942-0.9246922,0.5033035-1.2978725H67.4745255z M68.0914307,8.9329348
				c0.1618195,0.2595739,0.3243027,0.5680256,0.4055405,0.8110876h1.0382996V8.9329348H68.0914307z M72.3417053,6.2235866
				c-0.5680237-0.22721-1.2007751-0.5026364-1.8493805-0.8110871c-0.5032959,0.2760868-1.0706635,0.5515127-1.6551971,0.8110871
				H72.3417053z M71.3522873,8.9329348v0.8110876h1.1353912c0.1301193-0.2754269,0.2760849-0.5673647,0.3566666-0.8110876
				H71.3522873z M71.887291,15.7954721c0.243721,0.3731794,0.4544144,0.8599634,0.5356598,1.1684141l-0.6169052,0.1941853h1.2331467
				v-1.3625994H71.887291z M75.0669098,13.1184883c-0.3725204-0.2106981-0.7787247-0.4379082-1.1677551-0.7133341
				c-0.3243027,0.258914-0.6974792,0.502636-1.1030273,0.7133341H75.0669098z M74.56427,15.7954721v1.3625994h0.5191498
				c0.210701-0.4379082,0.4220581-0.972908,0.5515137-1.3625994H74.56427z"/>
			<path class="st0" d="M85.0903778,16.2498913c-0.2437286-0.2106972-0.6492691-0.5191479-1.0871735-0.8599625v3.357954h-1.8170242
				v-2.9035339c-0.6816254,0.8434505-1.44384,1.6056614-2.2549286,2.0765934
				c-0.1459656-0.5032959-0.4867859-1.2820187-0.7628708-1.7688026c1.0548096-0.5515137,2.1743469-1.5244217,2.8876801-2.4979906
				h-2.3685303v-1.6875629h2.4986496v-1.5732985h1.8170242v1.5732985h2.3038025v1.6875629h-2.3038025v0.0482159
				c0.6486053,0.3731794,2.1736832,1.3143845,2.5792313,1.6063223L85.0903778,16.2498913z M85.8202209,7.5379705
				c-1.4114761,1.5250816-3.3744659,2.7575645-5.4352112,3.4715586c-0.2430573-0.4702721-0.7780609-1.1677542-1.1842651-1.5085688
				c1.7364426-0.5032969,3.4398575-1.3626003,4.6888504-2.4174099h-3.6016769V5.3801351h5.5323029V3.7090843h1.9306259v1.6710508
				h5.5805206v1.7034154h-3.7958679c1.3137283,1.0059328,3.0825272,1.8170204,4.8506775,2.2714405
				c-0.4055481,0.3731794-0.9570618,1.1030254-1.2331467,1.5898094c-2.0277176-0.6816301-3.9748535-1.8817482-5.4021835-3.3744655
				v3.4233422h-1.9306259V7.5379705z M91.271286,13.7023649c0.8599625,1.0713224,2.1901932,2.1901999,3.3255844,2.7747374
				c-0.4379044,0.3731785-1.0541458,1.0541496-1.3626022,1.5250816c-0.7298431-0.5521736-1.5085678-1.4114761-2.2060471-2.3203173
				v3.2119856h-1.8335342v-3.2119856c-0.8434525,0.9735689-1.8658981,1.8170214-2.8718262,2.3685331
				c-0.2595749-0.4055443-0.7945786-1.0541496-1.200119-1.3791122c1.42733-0.5838776,2.9035339-1.7516308,3.7800064-2.9689226
				h-2.0442276v-1.6703901h2.3361664v-1.6386871h1.8335342v1.6386871h2.9524078v1.6703901H91.271286z"/>
			<path class="st0" d="M97.511795,11.6099186c-0.4055405-0.6327534-1.2978668-1.6386862-2.0277176-2.3361683l1.2331467-0.957057
				c0.7298431,0.6486053,1.6545334,1.5732975,2.0765915,2.2060518L97.511795,11.6099186z M98.7773056,13.199729
				c-0.3566666,1.8011684-0.8434525,3.7800093-1.3137283,5.4021845l-1.6551971-0.7622108
				c0.4702759-1.3467484,1.0706635-3.4880714,1.4927216-5.4345484L98.7773056,13.199729z M108.3003159,4.0822635
				c-0.0482178,0.1624818-0.1136093,0.3408151-0.1618271,0.5026364c0.8758163,1.6551991,1.8328781,2.5633788,2.8876877,3.2450089
				c-0.3731842,0.2919383-0.7787247,0.7139945-1.0382996,1.1195378h0.2919388v8.1927729
				c0,0.6974831-0.1136093,1.1030254-0.5680237,1.3460884c-0.437912,0.2595749-1.0865173,0.2760868-1.9788437,0.2760868
				c-0.0488739-0.4055443-0.227211-1.0382977-0.4055405-1.4438419c0.551506,0.0323658,1.1188736,0.0323658,1.2978668,0.015852
				c0.1783371,0,0.2265549-0.0482159,0.2265549-0.2265491V15.09799c-0.5026398,0.502636-1.0052795,1.0217838-1.5244217,1.5085697
				l-0.3573303-0.713995v1.2978706c0,0.698143-0.0970917,1.0871754-0.5350037,1.3308964
				c-0.4220505,0.243063-1.0382919,0.2595749-1.8982544,0.2595749c-0.0323715-0.3896923-0.227211-1.0059338-0.4055481-1.3956242
				c0.5515137,0.0165119,1.0865173,0.0165119,1.2489929,0.0165119c0.1783371,0,0.227211-0.0488758,0.227211-0.2437229v-1.6380253
				c-0.4055405,0.4055433-0.8275986,0.8110867-1.216629,1.1842651l-0.4220581-0.7628698v0.2760859h-1.6868973v2.3361702H100.65905
				v-2.3361702h-1.9464722v-1.6228342h1.9464722v-1.0382977h-1.5244217V7.9917302h1.5244217V7.0023093h-1.6545334V6.4342842
				l-1.1684189,0.9253526C97.4794312,6.694519,96.6518326,5.7368021,95.9708633,5.03932l1.216629-0.8758154
				c0.6486053,0.6003895,1.4114761,1.4273281,1.8170242,2.04423V5.4290118h1.6545334V4.0822635h1.6386871v1.3467484h1.5898132
				v1.5732975h-1.5898132v0.9894209h1.3143845l-0.1136017-0.0970926c1.4762039-0.8923283,2.6928329-2.3850455,3.3097382-4.2502818
				L108.3003159,4.0822635z M100.5943222,10.1337137h1.6386871V9.354991h-1.6386871V10.1337137z M100.5943222,12.1937962h1.6386871
				v-0.7945747h-1.6386871V12.1937962z M103.9687881,15.1950827c0.4702759-0.3566675,1.0224457-0.8599644,1.6386871-1.3949642
				v-0.5191488l-0.7139893,0.3084507c-0.1618271-0.5521727-0.6003952-1.5092297-0.9570618-2.2067118l0.9412079-0.3731794
				c0.2430573,0.4544201,0.5191498,0.9894209,0.7298431,1.4603529v-2.0442295h-1.4279861V8.9494467h0.2925949
				c-0.1948395-0.2919378-0.4544144-0.5845375-0.7139893-0.8275995v5.4345484h-1.4762039v1.0382977h1.6868973V15.1950827z
				 M106.9700775,15.0491133c0.5356598-0.4213953,1.2007751-0.9894209,1.881752-1.6056623v-0.3896914l-0.7945786,0.3243027
				c-0.1624832-0.5191488-0.5515137-1.4114761-0.8923264-2.0765944l0.9412003-0.3243027
				c0.2430649,0.4544201,0.5350037,1.0217848,0.7457047,1.5085688v-2.0600815h-1.5574493V8.9494467h2.2067108
				c-0.7787247-0.6651173-1.4927139-1.4603529-2.1578369-2.6281071c-0.6003876,1.0382972-1.3302307,1.930625-2.2060471,2.6281071
				h1.8328705V15.0491133z"/>
			<path class="st0" d="M117.272728,14.0755444c-0.1948471-0.4537592-0.5845413-1.1353903-0.9735718-1.7839956v6.5864515h-1.8658981
				v-5.8407526c-0.534996,1.2496548-1.1353836,2.401557-1.7681427,3.2126436
				c-0.1783295-0.5515118-0.6003876-1.3467474-0.8923264-1.8335314c0.9081802-1.0382977,1.8170242-2.7740774,2.4009018-4.3480349
				H111.98349V8.2678165h2.4497681V6.4342842c-0.6327515,0.097753-1.233139,0.1948462-1.8328705,0.2602348
				c-0.0653839-0.4385681-0.3084488-1.071322-0.5191498-1.4927173c1.8493881-0.2760868,3.8771057-0.7787232,5.2238541-1.330236
				l1.0865097,1.573298c-0.6327515,0.2437224-1.3460846,0.4379077-2.0924454,0.6003895v2.2225633h2.1413269v1.8005085h-2.1413269
				v0.1301174c0.4702759,0.4544201,1.8005066,1.9795017,2.108963,2.3526812L117.272728,14.0755444z M125.2706528,14.7736874
				v4.0877991h-1.898262V15.113842l-4.8995438,0.8441114l-0.3077927-1.8335323l5.2073364-0.8923283V3.7255967h1.898262v9.1821938
				l1.6063232-0.2760868l0.3077927,1.8011684L125.2706528,14.7736874z M121.1987076,12.5180988
				c-0.5032959-0.7133341-1.6386871-1.7516317-2.579895-2.4821386l1.2331467-1.1030254
				c0.9246902,0.6492662,2.125473,1.6545382,2.6604691,2.3526812L121.1987076,12.5180988z M121.6201019,8.2354527
				c-0.4537582-0.6974821-1.5085678-1.7357793-2.416748-2.4332614l1.2648468-1.1036863
				c0.8764725,0.6651177,2.0118637,1.6228347,2.4986496,2.3361688L121.6201019,8.2354527z"/>
			<path class="st0" d="M133.8744659,12.3886414c-0.5680237,0.1624823-1.1519012,0.3243027-1.7357788,0.4702721v3.8777637
				c0,0.9405441-0.1790009,1.3949642-0.7305145,1.7034149c-0.5350037,0.2919388-1.3137207,0.3408146-2.4497681,0.3408146
				c-0.0805817-0.486784-0.3243103-1.2496548-0.5515137-1.7522907c0.6327515,0.0158501,1.2978668,0.0158501,1.5092316,0.0158501
				c0.2430573,0,0.307785-0.0805798,0.307785-0.3243027v-3.3421011l-1.5733032,0.3896914l-0.5032959-1.8335323
				c0.6003876-0.1136045,1.2978821-0.2754259,2.0765991-0.4702721v-2.87183h-1.8652344V6.8074636h1.8652344v-3.081867h1.9147797
				v3.081867h1.589798v1.7846556h-1.589798v2.4015579l1.4920502-0.3731794L133.8744659,12.3886414z M142.8618011,10.1984425
				c-0.6162415,2.2549276-1.6545258,4.0230713-3.0171356,5.3863316c1.0541534,0.7463589,2.3038025,1.2813587,3.7476501,1.6386871
				c-0.4055481,0.3890305-0.9570618,1.1677532-1.233139,1.6703911c-1.5739594-0.4702721-2.9200439-1.1353912-4.0395813-2.0435715
				c-1.2655182,0.8758163-2.6928406,1.5244217-4.2667999,1.9953537c-0.2106934-0.5191479-0.6816254-1.3302345-1.0382996-1.7522907
				c1.4279938-0.3408146,2.7417145-0.8599644,3.8777618-1.5898104c-0.9577179-1.0871735-1.7199249-2.3685331-2.3038025-3.8612509
				l0.4861298-0.1459684h-0.8434601V9.7605343h3.1961365V7.8133969h-3.4880676v-1.784656h3.4880676V3.7090843h1.9141083v2.3196566
				h3.6340485v1.784656h-3.6340485v1.9471374h1.9471436l0.3408051-0.0812407L142.8618011,10.1984425z M136.4701996,11.496314
				c0.454422,1.0706615,1.1030273,2.0442295,1.9141235,2.871829c0.8434448-0.8117476,1.5415802-1.7688036,2.0283661-2.871829
				H136.4701996z"/>
		</g>
	</g>
</g>
</svg>
