<?xml version="1.0" encoding="utf-8"?>
<!-- Generator: Adobe Illustrator 28.2.0, SVG Export Plug-In . SVG Version: 6.00 Build 0)  -->
<svg version="1.1" id="图层_1" xmlns="http://www.w3.org/2000/svg" xmlns:xlink="http://www.w3.org/1999/xlink" x="0px" y="0px"
	 viewBox="0 0 35.6523514 29.7999992" style="enable-background:new 0 0 35.6523514 29.7999992;" xml:space="preserve">
<style type="text/css">
	.st0{fill:#2B858B;}
	.st1{opacity:0.1;}
	.st2{fill:#2A8B92;}
	.st3{opacity:0.2;}
</style>
<g>
	<path class="st0" d="M35.0726357,16.1283321c-0.0079956-0.020874-0.0192261-0.0386963-0.0293579-0.0584106
		c-0.0228271-0.0445557-0.0496826-0.085144-0.0827026-0.1226196c-0.0153198-0.0172729-0.0300293-0.0332642-0.0471802-0.048645
		c-0.0385132-0.0348511-0.0817871-0.0628662-0.1290894-0.0870361c-0.0170288-0.008667-0.0318604-0.0195923-0.0498657-0.0266724
		c-0.0079956-0.0031738-0.0140991-0.0090332-0.0222778-0.0119019l-7.940918-2.7422485V3.7818356
		c0-0.0745239-0.0172729-0.1449585-0.0427856-0.211792c-0.0081177-0.0213623-0.0195923-0.0396118-0.0300903-0.0597534
		c-0.022522-0.0435791-0.0488892-0.0834961-0.0812378-0.1203613c-0.0159302-0.0180664-0.0314331-0.034668-0.0493774-0.0507202
		c-0.0375977-0.0337524-0.0795898-0.0608521-0.1253662-0.0845337c-0.0183105-0.0094604-0.0342407-0.0210571-0.0535278-0.0285645
		c-0.0078125-0.0031128-0.013916-0.0088501-0.0219116-0.0116577l-8.3447266-2.8818359
		c-0.1269531-0.0429688-0.2646484-0.0429688-0.3916016,0L9.2858925,3.2144527
		C9.2778969,3.2172604,9.2717934,3.2229977,9.2639809,3.2261105C9.2446938,3.2336178,9.2287636,3.2452145,9.210453,3.2546749
		C9.1646767,3.2783566,9.1226845,3.3054562,9.0850868,3.3392086C9.0671425,3.3552608,9.0516396,3.3718624,9.0357094,3.3899288
		C9.0033607,3.4267941,8.9769936,3.466711,8.9544716,3.5102901c-0.010498,0.0201416-0.0219727,0.0383911-0.0300903,0.0597534
		c-0.0255127,0.0668335-0.0427856,0.1372681-0.0427856,0.211792v9.2490234L0.941166,15.7730465
		c-0.0079956,0.0028076-0.0140991,0.0085449-0.0219116,0.0116577c-0.0192871,0.0075073-0.0352173,0.019104-0.0535278,0.0285645
		c-0.0457764,0.0236816-0.0877686,0.0507812-0.1253662,0.0845337c-0.0179443,0.0160522-0.0334473,0.0326538-0.0493774,0.0507202
		c-0.0323486,0.0368652-0.0587158,0.0767822-0.0812378,0.1203613c-0.010498,0.0201416-0.0219727,0.0383911-0.0300903,0.0597534
		c-0.0255127,0.0668335-0.0427856,0.1372681-0.0427856,0.211792v9.6767578c0,0.2558594,0.1621094,0.4833984,0.4042969,0.5673828
		l8.3447266,2.8828125C9.349369,29.4888668,9.415287,29.499609,9.4816933,29.499609s0.1323242-0.0107422,0.1958008-0.0322266
		l8.1489258-2.8151855l8.1489258,2.8151855c0.0634766,0.0214844,0.1293945,0.0322266,0.1958008,0.0322266
		s0.1323242-0.0107422,0.1958008-0.0322266l8.3452148-2.8828125c0.2412109-0.0839844,0.4033203-0.3115234,0.4033203-0.5673828
		v-9.6767578C35.1154823,16.2657833,35.0981483,16.1952877,35.0726357,16.1283321z M26.1711464,18.5884762l-6.5064087-2.2479248
		l6.5067749-2.2470703l6.5064697,2.2469482L26.1711464,18.5884762z M10.0817909,19.6509762l7.1445312-2.4682007v8.4066772
		l-7.1445312,2.4684448V19.6509762z M25.5710487,13.030859l-7.1445312,2.4673462V7.0914059l7.1445312-2.4673462V13.030859z
		 M17.2263222,15.4982052l-7.1445312-2.4673462V4.6240597l7.1445312,2.4673462V15.4982052z M17.8264198,1.5347652
		l6.5068359,2.2470703l-6.5068359,2.2470703l-6.5068359-2.2470703L17.8264198,1.5347652z M9.4813271,14.0934811l6.5067749,2.2470703
		l-6.5064087,2.2479248l-6.5068359-2.2480469L9.4813271,14.0934811z M1.7370644,17.1827755l7.1445312,2.4682007v8.4069214
		l-7.1445312-2.4684448V17.1827755z M18.4265175,17.1827755l7.1445312,2.4682007v8.4069214l-7.1445312-2.4684448V17.1827755z
		 M26.771244,28.0578976v-8.4069214l7.1450195-2.4682007v8.4066772L26.771244,28.0578976z"/>
	<g class="st1">
		<polygon class="st2" points="17.8263817,0.8997421 9.4816599,3.7818696 17.8263817,6.6639872 26.1711597,3.7818696 		"/>
	</g>
	<g class="st1">
		<polygon class="st2" points="9.4816313,13.4587936 1.1369101,16.3409214 9.4816313,19.2230377 17.8264103,16.3409214 		"/>
	</g>
	<g class="st1">
		<polygon class="st2" points="26.1711311,13.4587936 17.8264103,16.3409214 26.1711311,19.2230377 34.5159111,16.3409214 		"/>
	</g>
	<g class="st3">
		<polygon class="st2" points="9.4816599,28.8997421 1.1369101,26.0168133 1.1369101,16.3406906 9.4816599,19.2230377 		"/>
	</g>
	<g class="st3">
		<polygon class="st2" points="26.1711597,28.8997421 17.8264103,26.0168133 17.8264103,16.3406906 26.1711597,19.2230377 		"/>
	</g>
	<g class="st3">
		<polygon class="st2" points="17.8264103,16.3408031 9.4816599,13.4578743 9.4816599,3.7817521 17.8264103,6.6640997 		"/>
	</g>
</g>
</svg>
