<?xml version="1.0" encoding="utf-8"?>
<!-- Generator: Adobe Illustrator 25.4.1, SVG Export Plug-In . SVG Version: 6.00 Build 0)  -->
<svg version="1.1" id="图层_1" xmlns="http://www.w3.org/2000/svg" xmlns:xlink="http://www.w3.org/1999/xlink" x="0px" y="0px"
	 viewBox="0 0 28.3465004 28.3465004" style="enable-background:new 0 0 28.3465004 28.3465004;" xml:space="preserve">
<style type="text/css">
	.st0{fill:url(#SVGID_1_);}
	.st1{fill:url(#SVGID_00000160912897483497314150000014769257934314795424_);}
</style>
<g>
	
		<linearGradient id="SVGID_1_" gradientUnits="userSpaceOnUse" x1="1.224826" y1="16.9921474" x2="27.1216736" y2="16.9921474" gradientTransform="matrix(1 0 0 -1 0 31.1653976)">
		<stop  offset="0" style="stop-color:#56C1E6"/>
		<stop  offset="1" style="stop-color:#3799D5"/>
	</linearGradient>
	<path class="st0" d="M25.3521652,13.3483381c-0.9965458-0.9965429-2.2548656-1.5719366-3.5532303-1.7267389
		c-0.5553741-0.0660057-1.1179943-0.0554008-1.6708279,0.032465c0.0852547-0.5477514,0.0954857-1.1048727,0.0298557-1.6547213
		c-0.1547337-1.2987833-0.7302189-2.5566158-1.7267399-3.5536485c-2.3592777-2.3592811-6.1844053-2.3592811-8.5436859,0
		c-1.4198122,1.4198136-1.9850454,3.3703189-1.6960659,5.2130103c-0.7484455-0.1155081-1.5144396-0.0898952-2.2552395,0.0767469
		h-0.000443c-0.0617862,0.0140772-0.1231995,0.0285282-0.184123,0.0443516
		c-1.0101767,0.2608023-1.9662602,0.7864132-2.7573802,1.5775328c-2.3592792,2.3592777-2.3592792,6.1843987,0,8.5436859
		c1.3289897,1.328989,3.1235268,1.9095306,4.8587513,1.7407227c1.2220583-0.1184921,2.4146786-0.6082096,3.395093-1.4692497
		l0.5613174-0.5613384l3.2722931-3.2722931l3.3494825-3.3494854l0.0093689-0.0093689
		c1.457737-1.4577093,3.8217258-1.4577093,5.2798786,0c1.1577091,1.1581516,1.3959942,2.8874207,0.7148113,4.2803745
		c-0.1240139,0.2536144-0.2787457,0.4965572-0.4641724,0.7225075c-0.0779858,0.09548-0.161562,0.1879768-0.250639,0.2770672
		c-1.4581528,1.4581528-3.8221416,1.4581528-5.2798786,0l-0.0062447,0.0062428
		c-0.2109928-0.2303066-0.5073624-0.380022-0.8442593-0.380022c-0.63727,0-1.153862,0.5165939-1.153862,1.153862
		c0,0.3369064,0.1496964,0.6332054,0.3800144,0.8441982l-0.007761,0.007761c2.3592777,2.3592796,6.1844063,2.3592796,8.5436859,0
		c0.2949905-0.29492,0.5528088-0.6129398,0.7740593-0.9479446C27.6747608,18.5993023,27.4165001,15.4126749,25.3521652,13.3483381z
		 M11.5196066,8.0773888c1.4577789-1.4581547,3.8216972-1.4581547,5.2799463,0
		c1.4547272,1.4552402,1.4577122,3.8127718,0.0089264,5.2709494c0.0183659-0.0183182,0.0371037-0.0366125,0.0553989-0.0549803
		l-0.1103573,0.1104507c0.0153122-0.0154066,0.0306244-0.0311604,0.046032-0.0464725
		c-1.3990021,1.3989077-3.6320782,1.4556131-5.0983658,0.1696005c-0.0004416-0.0004406-0.0008612-0.0008612-0.001235-0.001235
		c-0.0614138-0.0532799-0.1215429-0.1095629-0.1803455-0.1683655c-0.0562859-0.0562859-0.1103811-0.1138525-0.161561-0.1726551
		C10.063549,11.7183933,10.1177139,9.4793501,11.5196066,8.0773888z M9.9058561,20.2693272
		c-0.0724812,0.0724602-0.1474848,0.1415081-0.2242069,0.206274c-1.4671764,1.2480335-3.6699748,1.1789761-5.0556688-0.206274
		c-1.4582467-1.4582291-1.4582467-3.8221416,0-5.2799492c0.5011849-0.501276,1.1094875-0.8303194,1.750978-0.9867287
		c1.1500168-0.2809162,2.4070354-0.0081339,3.348598,0.8183641c0.061368,0.0532789,0.1214762,0.1095619,0.1802998,0.1683645
		c0.0562649,0.0562649,0.1104269,0.1138535,0.1615391,0.1726561c1.2275572,1.3904257,1.2425222,3.4756041,0.0447264,4.8830824
		C10.0473518,20.1218605,9.9783182,20.1968651,9.9058561,20.2693272z"/>
	
		<linearGradient id="SVGID_00000023972609552064503200000007642538995344402329_" gradientUnits="userSpaceOnUse" x1="8.1126242" y1="17.9264393" x2="20.1951828" y2="17.9264393" gradientTransform="matrix(1 0 0 -1 0 31.1653976)">
		<stop  offset="0" style="stop-color:#EC797F"/>
		<stop  offset="1" style="stop-color:#E74667"/>
	</linearGradient>
	<path style="fill:url(#SVGID_00000023972609552064503200000007642538995344402329_);" d="M20.1950684,10.8762302
		c0-0.6372004-0.5173836-1.1537924-1.1555195-1.1537924c-0.6381569,0-1.1554699,0.516592-1.1554699,1.1537924l0.0007915,0.0334692
		c-0.0891476,1.4313755-1.0274467,2.3764801-1.0274467,2.3764801l-0.0042915,0.0038462l-0.1103554,0.1104507
		c0.0153122-0.0154066,0.0306473-0.0311632,0.04603-0.0464754c-1.3989763,1.3989801-3.6320524,1.4556131-5.09834,0.1696739
		c-0.0004444-0.0004196-0.000886-0.000864-0.001236-0.0013056c-0.0614347-0.0532799-0.121542-0.1095657-0.1803694-0.1683683
		c-0.056262-0.0562611-0.1103563-0.1137829-0.1615362-0.1726551c0,0-0.8721581-0.9035254-0.9269743-2.3051157
		c0-0.6372004-0.516592-1.1537924-1.1538649-1.1537924c-0.6372004,0-1.153862,0.516592-1.153862,1.1537924
		c0,0.0426989,0.0198345,0.078846,0.024332,0.1203804l-0.0178747,0.0009556c0,0,0.0424166,0.5137463,0.0664463,0.6589689
		c-0.0016098-0.0002098-0.0031948-0.000885-0.0048018-0.0010948c0.1799288,1.1474075,0.6913681,2.2531195,1.5341101,3.1623106
		c0.0613432,0.0533009,0.1214752,0.1094923,0.1802778,0.1683655c0.056262,0.0562859,0.1104269,0.1137829,0.161561,0.1725855
		c0.9108438,0.8405743,2.0182323,1.349103,3.1665745,1.525979c0.0690575,0.0106716,0.1380901,0.0200367,0.2071476,0.0281677
		c0.5553713,0.0660725,1.1176443,0.0553989,1.670454-0.0324554c1.215229-0.1930523,2.3831711-0.7574224,3.3196507-1.6942768
		l0.0093708-0.0093699c0.9347324-0.9394407,1.4973564-2.1090593,1.6875153-3.3260145
		c0.0841579-0.2590761,0.0776806-0.7410326,0.0776806-0.7410326h-0.0067368
		C20.1886806,10.8979292,20.1950684,10.8881397,20.1950684,10.8762302z"/>
</g>
</svg>
