<?xml version="1.0" encoding="utf-8"?>
<!-- Generator: Adobe Illustrator 25.2.1, SVG Export Plug-In . SVG Version: 6.00 Build 0)  -->
<svg version="1.1" id="图层_1" xmlns="http://www.w3.org/2000/svg" xmlns:xlink="http://www.w3.org/1999/xlink" x="0px" y="0px"
	 viewBox="0 0 28.3464565 28.3464565" style="enable-background:new 0 0 28.3464565 28.3464565;" xml:space="preserve">
<style type="text/css">
	.st0{fill:#EF5C55;}
</style>
<g>
	<path class="st0" d="M14.1255779,0.7029918c-1.8520975,0-3.6471281,0.3622301-5.3404169,1.0785632
		C7.1540785,2.4692383,5.6725612,3.4679012,4.4232459,4.7218566C3.1705735,5.9723544,2.171782,7.4536109,1.4820589,9.0837717
		c-0.7145623,1.6895704-1.0810306,3.5059137-1.0776777,5.340416c0,1.0580044,0.119771,2.1126852,0.3590077,3.1357241
		c0.2332177,0.9958344,0.5774529,1.962328,1.0261282,2.8814526c0.8261017,1.6900635,2.166667,3.3770351,3.6820941,4.6415157
		c0.9879742-0.5401859,1.547173-1.1374092,1.6647358-1.7727909c0.1175661-0.6131783-0.1524963-1.2707958-0.8450785-2.0713062
		c-1.6425343-1.8839417-2.5446875-4.3047466-2.5446875-6.8145952c0-5.7216244,4.6541471-10.3789616,10.3789968-10.3789616h0.0953255
		c5.7216606,0,10.3790951,4.6573377,10.3790951,10.3789616c0,2.5098486-0.9054775,4.9306536-2.5447826,6.8113718
		c-0.6861382,0.7974167-0.962513,1.4835873-0.8450813,2.0999546c0.1239777,0.638607,0.6862679,1.2263241,1.6647358,1.747366
		c1.515461-1.2612877,2.856123-2.9482613,3.6820946-4.6415157c0.4479179-0.9182053,0.7941914-1.8871632,1.0261288-2.8814526
		c0.2382202-1.0230389,0.359005-2.0777197,0.359005-3.1357241c0-1.8490076-0.3622284-3.6471291-1.0801086-5.340416
		c-0.6887035-1.6300325-1.6867085-3.1114173-2.938755-4.3619151c-1.2504673-1.252538-2.7317524-2.2510724-4.3619156-2.9403014
		c-1.6894398-0.7149197-3.5057831-1.0817535-5.340416-1.0785632H14.1255779z"/>
	<path class="st0" d="M14.1255779,6.2531066c-0.3875246,0-0.7752142,0.0317435-1.1532316,0.0794063
		c-1.1150446,0.1589451-2.2080126,0.5591989-3.1642456,1.1532011C8.8893728,8.0608664,8.0927114,8.8111134,7.4635124,9.6937275
		c-0.645052,0.9128094-1.0979714,1.9471951-1.3310566,3.0403967c-0.247858,1.1786594-0.2319412,2.4175816,0.0444379,3.5867357
		c0.2573624,1.0738258,0.7402487,2.1094608,1.4010892,2.9895096c0.1778297,0.2382183,0.3748283,0.4574242,0.584528,0.6861362
		l0.212759,0.2319355l0.0318747,0.0318756c0.72752,0.8449497,1.0991201,1.7567387,1.0991201,2.706686
		c0,1.4360218-0.7972832,2.7543507-2.052289,3.4311466c0.7275486,0.4034462,1.4964428,0.7433052,2.2842255,1.0069847
		c0.2637787,0.0858212,0.530549,0.1684513,0.7974157,0.2383518c0.1589489-0.0985508,0.702095-0.5050888,1.2358322-1.2422771
		c0.5083437-0.7020588,1.1087608-1.868021,1.0770473-3.4309826c-0.0317421-0.9372501-0.2096996-1.8554535-0.5622873-2.7195473
		c-0.3495035-0.8546219-0.8515272-1.6393089-1.4932261-2.331892l-0.142992-0.1620369
		c-0.2414408-0.2794685-0.4891663-0.568573-0.6893578-0.9085674c-0.247757-0.4161739-0.4257154-0.8545866-0.530549-1.3025055
		c-0.1644697-0.6966963-0.1753922-1.4208918-0.031745-2.1221933c0.1386509-0.6454134,0.4066696-1.2559929,0.7879105-1.7950287
		c0.3685122-0.5178175,0.848175-0.9689589,1.3882284-1.3056288c0.5624228-0.3526917,1.2073107-0.587719,1.868022-0.6798573
		c0.2192087-0.0318384,0.4511414-0.0476608,0.679986-0.0476608h0.0984173c0.2319365,0,0.4606495,0.0317411,0.6830816,0.0476608
		c0.6608362,0.0921383,1.3057261,0.3271656,1.8680182,0.6798573c0.5400581,0.3366699,1.019846,0.7878113,1.3883591,1.3056288
		c0.3802204,0.539134,0.6470928,1.1497469,0.784687,1.7950287c0.1493397,0.695775,0.139801,1.4296093-0.0318413,2.1221933
		c-0.104866,0.4479189-0.2859154,0.8863316-0.5305462,1.3025055c-0.2000637,0.3399944-0.4479179,0.6290989-0.6893616,0.9085674
		l-0.1430244,0.1620369c-0.641695,0.6925831-1.1435947,1.4772701-1.4930935,2.331892
		c-0.354497,0.863863-0.5451832,1.7859154-0.5622568,2.7195473c-0.0318737,1.5629616,0.568574,2.7289238,1.0768824,3.4309826
		c0.5305538,0.7371883,1.0770187,1.1437263,1.2358322,1.2422771c0.266901-0.0699005,0.5337715-0.1525307,0.7974148-0.2383518
		c0.7879467-0.2636795,1.5567131-0.6035385,2.2842331-1.0069847c-1.2548771-0.676796-2.0522957-1.9951248-2.0522957-3.4311466
		c0-0.9372177,0.359005-1.8203564,1.0960636-2.7035942c0-0.031744,0.0317097-0.031744,0.0317097-0.0349674l0.212923-0.2319355
		c0.2096996-0.2287121,0.4066696-0.4479179,0.584528-0.6861362c0.6608086-0.8800488,1.1436901-1.9156837,1.4010563-2.9895096
		c0.2764091-1.1691542,0.2921982-2.4080763,0.0444736-3.5867357c-0.228714-1.083333-0.6893597-2.1348906-1.3311901-3.0403967
		c-0.6290989-0.8826141-1.4257622-1.6328611-2.3445911-2.2080135c-0.9640903-0.5978513-2.0413723-0.99054-3.1641426-1.1532011
		c-0.3821325-0.0535836-0.7674856-0.0801954-1.153203-0.0794063h-0.1017742H14.1255779z"/>
	<path class="st0" d="M14.176465,11.847662c-1.4932261,0-2.7099123,1.2135916-2.7099123,2.7068195
		c0,1.4962845,1.2166862,2.7099094,2.7099123,2.7099094c1.4930611,0,2.706687-1.213625,2.706687-2.7099094
		C16.883152,13.0612535,15.6695261,11.847662,14.176465,11.847662L14.176465,11.847662z"/>
</g>
</svg>
