<?xml version="1.0" encoding="utf-8"?>
<!-- Generator: Adobe Illustrator 25.4.1, SVG Export Plug-In . SVG Version: 6.00 Build 0)  -->
<svg version="1.1" id="图层_1" xmlns="http://www.w3.org/2000/svg" xmlns:xlink="http://www.w3.org/1999/xlink" x="0px" y="0px"
	 viewBox="0 0 28.3464565 28.3464565" style="enable-background:new 0 0 28.3464565 28.3464565;" xml:space="preserve">
<style type="text/css">
	.st0{fill:#00A3FF;}
	.st1{fill:#00C8DC;}
	.st2{fill:#006EFF;}
</style>
<g id="XMLID_00000169540134337882730610000004122783905746573209_">
	<path id="XMLID_00000096766008623792161570000010226796336844872355_" class="st0" d="M23.8560677,20.2383041
		c-0.4256191,0.4256191-1.2768574,1.0640469-2.7665253,1.0640469c-0.6384296,0-1.3832626,0-1.7024784,0
		c-0.4256191,0-3.6177635,0-7.4483366,0c2.7665243-2.66012,5.1074324-4.8946209,5.320241-5.1074314
		c0.2128105-0.2128096,0.7448349-0.7448339,1.2768574-1.1704521c1.0640488-0.9576445,1.915287-1.0640488,2.6601219-1.0640488
		c1.0640488,0,1.9152851,0.4256191,2.66012,1.0640488C25.3457355,16.4077301,25.3457355,18.8550396,23.8560677,20.2383041
		 M25.6649513,13.3219891c-1.0640488-1.1704531-2.6601219-1.9152861-4.3625984-1.9152861
		c-1.4896679,0-2.7665272,0.5320234-3.9369793,1.3832626c-0.4256191,0.4256191-1.0640488,0.8512383-1.5960732,1.4896679
		c-0.4256191,0.4256191-9.5764351,9.3636236-9.5764351,9.3636236c0.5320244,0.1064053,1.1704531,0.1064053,1.7024775,0.1064053
		s11.1725063,0,11.5981255,0c0.8512402,0,1.4896679,0,2.1280975-0.1064053
		c1.3832626-0.1064053,2.7665253-0.6384277,3.9369793-1.7024765C28.0058556,19.5998745,28.0058556,15.6628952,25.6649513,13.3219891
		z"/>
	<path id="XMLID_00000163759974057442546480000017282988893009592214_" class="st1" d="M10.7682734,12.6835604
		c-1.1704521-0.8512383-2.3409061-1.2768574-3.7241693-1.2768574c-1.702477,0-3.2985497,0.744833-4.3625979,1.9152861
		C0.3406,15.7693005,0.3406,19.5998745,2.7879112,22.0471859c1.0640483,0.9576435,2.1280963,1.489666,3.4049547,1.5960712
		l2.4473109-2.3409061c-0.4256191,0-0.957643,0-1.3832626,0c-1.3832631-0.1064034-2.2345014-0.5320225-2.7665253-1.0640469
		c-1.4896679-1.4896679-1.4896679-3.830574-0.1064053-5.3202419c0.7448339-0.7448339,1.5960722-1.0640488,2.6601205-1.0640488
		c0.6384296,0,1.5960727,0.1064053,2.5537171,1.0640488c0.4256182,0.4256201,1.5960722,1.2768574,2.0216913,1.7024765h0.1064053
		l1.5960722-1.5960712v-0.1064053C12.5771551,14.1732283,11.406703,13.2155848,10.7682734,12.6835604"/>
	<path id="XMLID_00000165212136705233617740000012511389217781064122_" class="st2" d="M21.9407825,10.0234394
		c-1.170454-3.1921449-4.2561932-5.4266462-7.7675543-5.4266462c-4.1497889,0-7.448338,3.0857406-8.0867672,6.9163141
		c0.3192143,0,0.6384292-0.1064043,1.0640483-0.1064043s0.957643,0.1064043,1.3832631,0.1064043l0,0
		c0.5320244-2.660121,2.8729305-4.5754075,5.6394558-4.5754075c2.3409071,0,4.3625975,1.3832622,5.320241,3.4049544
		c0,0,0.1064053,0.1064053,0.1064053,0C20.3447094,10.2362499,21.1959476,10.0234394,21.9407825,10.0234394
		C21.9407825,10.1298447,21.9407825,10.1298447,21.9407825,10.0234394"/>
</g>
</svg>
