<?xml version="1.0" encoding="utf-8"?>
<!-- Generator: Adobe Illustrator 25.4.1, SVG Export Plug-In . SVG Version: 6.00 Build 0)  -->
<svg version="1.1" id="图层_1" xmlns="http://www.w3.org/2000/svg" xmlns:xlink="http://www.w3.org/1999/xlink" x="0px" y="0px"
	 viewBox="0 0 28.3464565 28.3464565" style="enable-background:new 0 0 28.3464565 28.3464565;" xml:space="preserve">
<style type="text/css">
	.st0{fill:#14903B;}
</style>
<g>
	<g>
		<path class="st0" d="M6.0633612,8.258234H1.4173228v11.8392563h4.6460385c1.3868136,0,3.207098-1.2862873,3.207098-4.4204779
			v-2.9983101C9.2704592,9.5445156,7.4501748,8.258234,6.0633612,8.258234z M6.8885603,14.5628386v0.8428202
			c0,1.8348713-0.6536193,2.5326729-1.1066804,2.7959595c-0.1819124,0.1057186-0.3901544,0.1570606-0.6005569,0.1570606H3.8359008
			V9.9793167h1.3454223c0.2104025,0,0.4186444,0.051342,0.6005569,0.1570559
			c0.4530611,0.2632875,1.1066804,0.9610929,1.1066804,2.7959642V14.5628386z"/>
		<path class="st0" d="M16.0964317,13.7838211h-0.0135765c1.2456894,0,2.2555256-1.0098352,2.2555256-2.2555285v-0.5389719
			c0-1.508338-1.2227535-2.7310867-2.7310915-2.7310867h-2.3596992h-0.9222889h-1.3875942v11.8392563h1.6955786h0.6143045h2.3370562
			c1.690937,0,3.0617142-1.3707809,3.0617142-3.0617237V16.333746
			C18.6463604,14.9254608,17.5047131,13.7838211,16.0964317,13.7838211z M13.2928848,9.9793167h1.2953405
			c0.7454119,0,1.3496866,0.6042786,1.3496866,1.3496904v0.45292c0,0.7454119-0.6042747,1.3496904-1.3496866,1.3496904h-1.2953405
			V9.9793167z M16.2187328,16.7911911c0,0.8954964-0.725955,1.6214466-1.6214571,1.6214466h-1.3043909v-3.6505146h1.3043909
			c0.8955021,0,1.6214571,0.7259407,1.6214571,1.6214428V16.7911911z"/>
		<path class="st0" d="M22.4613113,18.2784958c0.086935-0.220108,0.2083855-0.4746933,0.3798485-0.7416229
			c0.2880878-0.4484921,0.6119232-0.7677441,0.8682365-0.9812927c0.2521801-0.2483139,0.6526222-0.6418982,1.1486225-1.1260004
			c1.014698-0.9903641,1.0494423-1.0128031,1.1667042-1.1757498c0.6862316-0.9536276,0.7892876-1.9820204,0.8289051-2.4309025
			c0.0280552-0.3178682,0.0541039-0.6395035-0.0239754-1.0601482c-0.0523129-0.2818756-0.1974869-1.0112858-0.7868385-1.6008224
			c-0.5840607-0.5842485-1.2827148-0.709362-1.9173775-0.8230209c-0.3399029-0.0608759-0.9715137-0.1676722-1.7636147,0
			c-0.4912529,0.1039877-1.6073475,0.3402357-2.2430573,1.3357286c-0.379921,0.5949621-0.4267941,1.2082424-0.424984,1.5403204
			v1.0219955h2.3062763c-0.0244541-0.1610794-0.0473442-0.3964806-0.0271339-0.6783123
			c0.0343742-0.4795065,0.0797672-1.1125593,0.542654-1.447073c0.4961777-0.3585806,1.3262348-0.2687225,1.6886482,0.165103
			c0.1851921,0.2216578,0.2081718,0.4810638,0.2377529,0.9111538c0.0069561,0.1010647,0.042572,0.6787472-0.1136417,1.2234678
			c-0.2195797,0.765686-0.6888657,1.2043819-1.7132778,2.1500149c-0.5023899,0.4637623-1.4995899,1.3956108-2.2067795,2.6047268
			c-0.3967686,0.6783657-0.6115589,1.2889481-0.7269115,1.6731758c0,0.4163322,0,0.8326569,0,1.2489891h7.2477665v-1.8097305
			H22.4613113z"/>
	</g>
</g>
</svg>
