<?xml version="1.0" encoding="utf-8"?>
<!-- Generator: Adobe Illustrator 25.4.1, SVG Export Plug-In . SVG Version: 6.00 Build 0)  -->
<svg version="1.1" id="图层_1" xmlns="http://www.w3.org/2000/svg" xmlns:xlink="http://www.w3.org/1999/xlink" x="0px" y="0px"
	 viewBox="0 0 28.3464565 28.3464565" style="enable-background:new 0 0 28.3464565 28.3464565;" xml:space="preserve">
<style type="text/css">
	.st0{fill:#5168AB;}
	.st1{fill:#52CAA4;}
	.st2{fill:#15AACC;}
</style>
<g>
	<g>
		<path class="st0" d="M4.1399031,14.3629427V7.8583951c0-0.6172385,0.7435951-0.9293137,1.1840987-0.4969473l2.9745784,2.9196343
			l3.7350426,3.3747025c0.3957109,0.388402,0.3957109,1.0259132,0,1.4143152l-3.7350426,3.3747034l-2.9745784,2.9196339
			c-0.4405036,0.4323673-1.1840987,0.1202908-1.1840987-0.4969482V14.3629427z"/>
		<path class="st1" d="M23.085577,16.9585266l-9.5640383,9.5640392c-1.4869719,1.4869728-3.897831,1.4869728-5.3848028,0
			l-0.0000057-0.0000057c-1.4869709-1.4869709-1.4869709-3.8978271,0-5.384798l9.7798786-9.7798786
			c0.2898502-0.373579,0.6226482-0.8725729,0.9130898-1.4998636c0.347765-0.751091,0.5195732-1.4372234,0.6087761-1.9591436
			c1.2157001,1.2157011,2.4314003,2.4314013,3.6471024,3.6471014C24.5802116,13.0406103,24.5802116,15.463892,23.085577,16.9585266z
			"/>
		<path class="st2" d="M13.2522402,12.59161L7.7753401,7.1147084c-1.3920593-1.3920588-1.3920593-3.6490335,0-5.0410929
			l0.3209095-0.3209099c1.3920593-1.3920593,3.6490335-1.3920593,5.0410929,0l3.5123901,3.5123901
			c1.3396606,1.3396592,1.3396606,3.5116773,0,4.851336L14.1745567,12.59161
			C13.9198656,12.8463001,13.5069313,12.8463001,13.2522402,12.59161z"/>
	</g>
</g>
</svg>
