<?xml version="1.0" encoding="utf-8"?>
<!-- Generator: Adobe Illustrator 25.4.1, SVG Export Plug-In . SVG Version: 6.00 Build 0)  -->
<svg version="1.1" id="图层_1" xmlns="http://www.w3.org/2000/svg" xmlns:xlink="http://www.w3.org/1999/xlink" x="0px" y="0px"
	 viewBox="0 0 28.3464565 28.3464565" style="enable-background:new 0 0 28.3464565 28.3464565;" xml:space="preserve">
<style type="text/css">
	.st0{fill:#FFFFFF;}
	.st1{fill:#FED10A;}
	.st2{fill:#24BBB1;}
	.st3{fill:#EF5098;}
	.st4{fill:#17A8E0;}
	.st5{fill:#93C83E;}
	.st6{fill:#0779A1;}
</style>
<g>
	<path class="st0" d="M27.6949444,14.8247375c0-2.2631426-1.4058933-4.2519693-3.5204487-5.0177784
		c0.0914421-0.4800625,0.1371613-0.9601212,0.1371613-1.4516144c0-4.2176771-3.4290047-7.6466832-7.6352558-7.6466832
		c-2.4688826,0-4.7548876,1.1772909-6.1950703,3.1661177c-0.7086601-0.54864-1.577343-0.8458214-2.4803143-0.8458214
		c-2.2402835,0-4.0576572,1.8173726-4.0576572,4.0576582c0,0.4914889,0.0914407,0.9715519,0.2514601,1.4173212
		c-2.1031232,0.7543821-3.5433066,2.7774944-3.5433066,5.0292101c0,2.2745762,1.4173219,4.2633963,3.5318768,5.0292101
		C4.091949,19.030983,4.0462294,19.52248,4.0462294,20.0139713c0,4.2062454,3.4175768,7.6238232,7.6238241,7.6238232
		c2.4688854,0,4.7548885-1.1887245,6.1836414-3.1775417c0.708662,0.5600719,1.5773449,0.8686771,2.4803143,0.8686771
		c2.240284,0,4.0576591-1.8173771,4.0576591-4.0576572c0-0.4914894-0.0914402-0.9715519-0.2514629-1.4173241
		C26.2433319,19.0995693,27.6949444,17.0764542,27.6949444,14.8247375"/>
	<path class="st1" d="M11.2814331,12.310133l5.9207516,2.6974859l5.9664707-5.2349491
		c0.0914402-0.4343386,0.1257305-0.8572512,0.1257305-1.3144512c0-3.680469-2.9946671-6.6751328-6.6751347-6.6751328
		c-2.2059927,0-4.2519665,1.0858523-5.497839,2.9032249l-0.9944115,5.1549397L11.2814331,12.310133z"/>
	<path class="st2" d="M5.1549416,18.5737839c-0.0914407,0.4343376-0.12573,0.8801136-0.12573,1.3373146
		c0,3.6918945,3.0060964,6.6865616,6.6979928,6.6865616c2.2174234,0,4.2862577-1.0972805,5.5321302-2.9260826l0.9829807-5.132082
		l-1.3144531-2.5146046l-5.9436092-2.7089176L5.1549416,18.5737839z"/>
	<path class="st3" d="M5.1206512,8.3324862l4.0576582,0.9601221l0.8915415-4.6062975
		C9.5212097,4.2633986,8.8354082,4.0347981,8.1267471,4.0347981c-1.7602234,0-3.2004061,1.4287524-3.2004061,3.2004061
		C4.9263411,7.6123972,4.9949207,7.9895864,5.1206512,8.3324862"/>
	<path class="st4" d="M4.7663202,9.304038c-1.8059433,0.5943632-3.0746746,2.3317251-3.0746746,4.2405396
		c0,1.8630924,1.1544327,3.5204477,2.8803649,4.1833887l5.6921506-5.1435099l-1.0401316-2.2288551L4.7663202,9.304038z"/>
	<path class="st5" d="M18.2880363,23.6715775c0.56007,0.4229126,1.2344418,0.6629391,1.931673,0.6629391
		c1.7602234,0,3.200407-1.4287529,3.200407-3.2004051c0-0.3886242-0.0685806-0.7658119-0.1943111-1.1087132l-4.0462284-0.9486904
		L18.2880363,23.6715775z"/>
	<path class="st6" d="M19.1109982,18.0137157l4.4577084,1.0401306c1.8173733-0.5943623,3.0746765-2.331728,3.0746765-4.2519703
		c0-1.8516645-1.1544342-3.5204449-2.8803654-4.171958l-5.8293133,5.1092215L19.1109982,18.0137157z"/>
</g>
</svg>
