<?xml version="1.0" encoding="utf-8"?>
<!-- Generator: Adobe Illustrator 25.4.1, SVG Export Plug-In . SVG Version: 6.00 Build 0)  -->
<svg version="1.1" id="图层_1" xmlns="http://www.w3.org/2000/svg" xmlns:xlink="http://www.w3.org/1999/xlink" x="0px" y="0px"
	 viewBox="0 0 28.3465004 28.3465004" style="enable-background:new 0 0 28.3465004 28.3465004;" xml:space="preserve">
<style type="text/css">
	.st0{fill:#2A8B92;}
</style>
<g>
	<g>
		<g>
			<path class="st0" d="M0.93895,8.8959007h7.2573161v2.2688751H3.8867538v1.8412943h3.6806605v2.1321259H3.8867538v4.3124037
				H0.93895V8.8959007z"/>
			<path class="st0" d="M9.1092091,8.8959007h8.9223785v2.6059322h-2.9930649v7.9487667h-2.9352846V11.501833h-2.994029V8.8959007z"
				/>
			<path class="st0" d="M19.3470726,8.8959007h4.8786602c1.0631733,0,1.8586273,0.2812023,2.3882885,0.8426428
				s0.7935295,1.3607473,0.7935295,2.3969564c0,1.0650997-0.2889061,1.8990755-0.8647919,2.4980736
				c-0.5758858,0.6009245-1.4580135,0.8994608-2.6406021,0.8994608h-1.6063156v3.9175653h-2.9487686V8.8959007z
				 M22.2958412,13.3951302h0.7184124c0.5662556,0,0.9630203-0.1078587,1.1922188-0.3274269
				c0.2291985-0.2176428,0.3428345-0.4969187,0.3428345-0.8378277c0-0.3312788-0.0982285-0.6124802-0.2966099-0.8416796
				c-0.2003078-0.2311239-0.5739594-0.3466864-1.1209545-0.3466864h-0.8359013V13.3951302z"/>
		</g>
	</g>
</g>
</svg>
