<?xml version="1.0" encoding="utf-8"?>
<!-- Generator: Adobe Illustrator 25.4.1, SVG Export Plug-In . SVG Version: 6.00 Build 0)  -->
<svg version="1.1" id="图层_1" xmlns="http://www.w3.org/2000/svg" xmlns:xlink="http://www.w3.org/1999/xlink" x="0px" y="0px"
	 viewBox="0 0 41.1737099 31.1811028" style="enable-background:new 0 0 41.1737099 31.1811028;" xml:space="preserve">
<style type="text/css">
	.st0{fill:#D9F4F2;}
	.st1{fill:#2A8B92;}
	.st2{fill:#EBF7F6;}
</style>
<g>
	<path class="st0" d="M35.4164467,10.6300907V3.975806c0-0.6300094-0.5107231-1.1407328-1.1407318-1.1407328H6.8981695
		c-0.6300092,0-1.1407328,0.5107234-1.1407328,1.1407328v6.6542845"/>
	<path class="st1" d="M35.4160995,11.2299557c-0.3310547,0-0.5996094-0.2685547-0.5996094-0.6000977V3.9760492
		c0-0.2983398-0.2431641-0.5410156-0.5410156-0.5410156H6.8980317c-0.2983398,0-0.5405273,0.2426758-0.5405273,0.5410156v6.6538086
		c0,0.331543-0.2685547,0.6000977-0.6000977,0.6000977S5.1573091,10.961401,5.1573091,10.629858V3.9760492
		c0-0.9599609,0.7807617-1.7412109,1.7407227-1.7412109h27.3774433c0.9599609,0,1.7402344,0.78125,1.7402344,1.7412109v6.6538086
		C36.0157089,10.961401,35.7471542,11.2299557,35.4160995,11.2299557z"/>
</g>
<g>
	<path class="st2" d="M34.4997673,28.3468838H6.6741171c-0.5354061,0-0.9987655-0.3723583-1.1139989-0.895216l-3.2806015-15.218379
		c-0.1568925-0.7118816,0.3850336-1.3862486,1.1139987-1.3862486h34.3868523c0.7289658,0,1.2708893,0.674367,1.1139984,1.3862486
		l-3.2806015,15.218379C35.4985313,27.9745255,35.0351715,28.3468838,34.4997673,28.3468838z"/>
	<path class="st1" d="M34.5000839,28.9462643H6.6739106c-0.8105469,0-1.5253906-0.5742188-1.699707-1.3652344L1.6929538,12.3598385
		c-0.1137695-0.5151367,0.0117188-1.0493164,0.34375-1.4624023s0.8266602-0.6503906,1.3569336-0.6503906h34.3867188
		c0.5292969,0,1.0244141,0.2368164,1.3564453,0.6499023s0.4580078,0.9472656,0.34375,1.4648438l-3.2802734,15.2163086
		C36.0215683,28.3847408,35.3233261,28.9462643,34.5000839,28.9462643z M3.3936374,11.4472408
		c-0.1645508,0-0.3183594,0.0737305-0.4213867,0.2021484c-0.1035156,0.128418-0.1420898,0.2939453-0.1069336,0.4550781
		l3.2812498,15.2216797c0.0537109,0.2421875,0.2758789,0.4208984,0.5273438,0.4208984h27.8261738
		c0.2558594,0,0.4726562-0.1748047,0.5273438-0.4238281l3.2802734-15.2163086
		c0.0361328-0.1630859-0.0029297-0.3291016-0.1064453-0.4580078c-0.1025391-0.1279297-0.2568359-0.2016602-0.4208984-0.2016602
		H3.3936374z"/>
</g>
<g>
	<g>
		<g>
			<path d="M15.6659155,18.0975037c-0.0300827-0.1217251-0.0838995-0.1782093-0.2501764-0.1270561
				c-0.6592712,0.391325-1.0616369,1.0974312-1.0357437,1.8468189l1.4389973-1.2204227
				C15.7561636,18.4631882,15.7496901,18.2758389,15.6659155,18.0975037z"/>
		</g>
		<g>
			<path d="M20.2879162,21.3918247c-0.3602276-0.1298504-0.7467251-0.0841541-1.0703964,0.0953255
				c-0.4691277,0.2749271-0.919981,0.7044544-1.4820232,0.7237492c-0.0891056,0.0420113-0.145462,0.0957031-0.1808739,0.1939468
				c-0.0118065,0.0326195,0.06283,0.1336575,0.1281986,0.1572647c0.5305634,0.3762169,1.1409645,0.6331234,1.7776432,0.7147388
				c0.8868523,0.2086716,1.814579,0.0990047,2.5746307-0.3670788c0.1898861-0.1165218,0.3590832-0.2775936,0.4954052-0.45047
				c0.1453323-0.0955791,0.0826302-0.2292366-0.0812359-0.2882576L20.2879162,21.3918247z"/>
		</g>
		<g>
			<path d="M27.5820255,23.0221043c-0.1637344-0.0590248-0.2265682-0.1926785-0.2330418-0.3800259
				c-0.2013073-0.7756672-0.500988-1.5867424-0.824276-2.3323231c-0.6048183-1.4020634-1.7676163-2.4874325-3.1850338-3.0723248
				c-0.7741413-0.3160515-1.6164436-0.5456657-2.4378033-0.7307301c-0.3510857-0.0525475-0.6195412-0.3343315-0.6770401-0.6882095
				c-0.0182762-0.1544743-0.0483589-0.2763233-0.0338898-0.4192486c0.0670185-0.4938793,0.1248989-1.0650606,0.2128601-1.5143909
				c0.0262737-0.1755428,0.0171356-0.2528429-0.2147636-0.2254257c-0.2973957,0.0038071-0.5765133,0.1622143-0.7036953,0.4123926
				c-0.1481266,0.2056255-0.2753105,0.455802-0.3906879,0.673233c-0.200676,0.5567122-0.3686008,1.125226-0.5039082,1.7055464
				c-0.0406189,0.3183365-0.2451019,0.5776539-0.5452881,0.691637c-0.3682232,0.2001686-0.6382008,0.4358749-0.9618702,0.6152248
				c-1.196434,0.7528191-2.2645435,1.6630287-3.1389589,2.7539825c-0.4862642,0.5277729-0.8324003,1.1800632-1.0029936,1.8586254
				c-0.0498838,0.2410374-0.0997667,0.4820766-0.1823978,0.7113094c-0.0526752,0.3510876,0.1477451,0.7194366,0.463419,0.8701
				c0.3274765,0.1180439,0.6694241,0.09342,0.9812899-0.0533104c0.5437632-0.1740189,1.1294155-0.2588081,1.7032633-0.310976
				c0.6958237-0.0822487,1.3822575-0.2419262,2.006115-0.5351334l0.1336555-0.0627022
				c-0.2383728-0.160059-0.3903065-0.2516994-0.595932-0.3999519c-0.2383728-0.1599331-0.2002945-0.3682232,0.0434093-0.4282608
				c0.0563564-0.0536919,0.1664047-0.0511532,0.2227612-0.1047153c0.2227612-0.1047192,0.4782696-0.1976299,0.656477-0.2815304
				c0.2227612-0.1047153,0.4245796-0.2539864,0.5936489-0.4150581c0.335474-0.2120991,0.7547207-0.245863,1.1476936-0.104208
				l0.7204494,0.2596951c0.1637383,0.0590248,0.3510876,0.0524216,0.5174904,0.001524
				c0.4338436-0.1766834,0.9003086-0.341568,1.3877163-0.461895c0.6420078-0.1386051,1.2904892-0.0898666,1.8890877,0.199913
				c1.0780087,0.4995918,1.6187286,1.3605537,2.0114479,2.4272671c0.0208149,0.0445538,0.0090084,0.0772991-0.0027924,0.1100464
				c-0.003809,0.0104084-0.0134563,0.0140896-0.0243702,0.0156155c0.0189095,0.025259,0.039856,0.0500069,0.0662556,0.0734901
				c0.0536919,0.0563564,0.1520634,0.0917683,0.261982,0.0944366c0.0563564-0.0536919,0.0917683-0.1519337,0.0944328-0.2621098
				c-0.0182743-0.1544743-0.0811043-0.2881298-0.1321316-0.4546623c-0.0418854-0.0891037-0.039093-0.199152-0.1229954-0.3772316
				c0.7886143,0.17313,1.5924568,1.5360947,1.2373085,2.1110859c-0.1321335-0.4546604-0.4505997-0.4954052-0.8108234-0.6252556
				l-0.2947292-0.1062374c-0.1754169-0.0262756-0.3038692-0.1835384-0.2775974-0.3590832
				c-0.0125656-0.0269108-0.02145-0.0646057-0.0332546-0.0936737c-0.0204334-0.0006351-0.0412521-0.0073605-0.0412521-0.0073605
				l-0.0145969-0.0326214c-0.0159931,0.0050755-0.0288124,0.0170097-0.0510254,0.0090141
				c-0.2490349,0.2803841-0.5228214,0.2185688-0.850296,0.1005249c-0.1519375-0.0916405-0.3510876-0.0524235-0.475605,0.0877094
				c-0.0118046,0.0326195-0.1218529,0.0300808-0.1218529,0.0300808c-0.0209427-0.0446796-0.0418854-0.0892296-0.0182762-0.154726
				c0.0799637-0.1191864,0.180872-0.193821,0.2935867-0.3010769c0.326334-0.2063847,0.5578537-0.3425789,0.8789825-0.5450344
				l-0.1318779-0.2958717c-0.1900139,0.1165218-0.3472767,0.2448483-0.4809361,0.307806
				c-0.2226334,0.1045876-0.457325,0.2420521-0.6591415,0.391449c-0.3472786,0.2447205-0.4024944,0.7059784-0.202198,1.0741997
				c0.0445518-0.0210686,0.0891037-0.0418873,0.1009083-0.0747604c0.0917702-0.1518059,0.1389866-0.2829247,0.335474-0.2120991
				c0.0654945,0.0236111,0.068161-0.0863113,0.199152-0.039093c0.0327473,0.0118046,0.0209427,0.044426,0.0864391,0.0680332
				c0.0327473,0.0118046,0.0891037-0.0417595,0.1336555-0.0627022c0.1100483,0.0026646,0.2082901,0.0380783,0.3065319,0.0734901
				c0.1637402,0.0590248,0.285593,0.0288143,0.3210068-0.0693016c0.0236073-0.0656223,0.068161-0.0864372,0.1599293-0.2383709
				c-0.049881,0.2410336,0.1085262,0.520153,0.3495636,0.5700359l0.3603535,0.1298504
				c0.1637383,0.0590191,0.3037395,0.1835365,0.4111233,0.2962532c0.2057495,0.1481247,0.343214,0.3826904,0.3259525,0.6355343
				c0.0327473,0.0118008,0.0656204,0.0236073,0.1219807-0.0300846c0.1218491-0.0300808,0.2345657-0.1374645,0.2935848-0.3012009
				C28.6479797,24.4795036,28.3601036,23.6356792,27.5820255,23.0221043z M15.5473633,22.5322838
				c0.1009102-0.0746346,0.2345648-0.1374645,0.3892918-0.1557426c0.0653687,0.0236111,0.053565,0.0564842,0.0299559,0.1218529
				c-0.0236092,0.0654926-0.3235435,0.1794758-0.4428549,0.0993843
				C15.4582605,22.5741692,15.5355597,22.565033,15.5473633,22.5322838z M17.7141705,23.0914078
				c-0.3564167,0.1674194-0.7665234,0.2787342-1.1530228,0.3244286c-0.3091984,0.0364304-0.5975828,0.1175385-0.8949776,0.1213474
				c-0.4428568,0.0995121-0.873908,0.1660213-1.3613157,0.2863483c-0.3328094,0.1020508-0.6956997,0.0822525-1.0467854,0.0297031
				l0.0236092-0.0654945c0.4074421-0.0011444,0.7848034-0.1241398,1.1530237-0.3243046
				c0.2555084-0.0930386,0.4992132-0.153204,0.7638607-0.1688175c0.5201569-0.1085224,0.9985504-0.3060265,1.4466114-0.6255054
				c0.3474064-0.2449722,0.3474064-0.2449722,0.5385609,0.045948
				C17.3893604,22.8631859,17.4876041,22.8985996,17.7141705,23.0914078z M17.5694714,21.3371162
				c-0.0445518,0.0208187-0.0563545,0.0535679-0.0799637,0.1190605c-0.1507912,0.3156738-0.4535179,0.5397034-0.7745228,0.608881
				c-0.199152,0.0392189-0.3656826,0.0902462-0.5437641,0.1740189c-0.1101742-0.0026646-0.2647753,0.0156116-0.3510847-0.0524216
				c-0.0210714-0.0446796-0.0420151-0.0892296-0.0184059-0.1547279c0.0027924-0.1100464,0.0500097-0.2410374,0.1298475-0.3602238
				c0.3317928-0.5093689,0.9437199-0.7699528,1.5685921-0.6557178
				C17.7294044,21.0986176,17.7503471,21.1431713,17.5694714,21.3371162z M24.4793701,20.645607
				c0.3274765,0.1180458,0.6104012,0.2569046,0.9142723,0.4405727c0.1728745,0.1363201,0.33395,0.3053913,0.3613663,0.5372887
				c-0.3575592-0.239893-0.5303097-0.3762169-0.867054-0.5715599c-0.7505322-0.3815479-1.586359-0.4238167-2.3646908-0.1123333
				c-0.344738,0.1348-0.6892242,0.2694721-1.0010891,0.4162025c-0.1783371,0.0837727-0.1901398,0.1165199-0.5176163-0.001524
				c0.4601173-0.352356,0.8873615-0.7163887,1.3146038-1.0802937c1.3826408-1.1668587,3.461359-0.1584072,3.8959637,0.997282
				c0.0209446,0.0445538,0.0090141,0.0772991,0.01828,0.1546001c-0.2895279-0.3263378-0.6680298-0.6107845-1.0491982-0.7851849
				c-0.1963596-0.0708256-0.4047775-0.1089058-0.6130676-0.1469841c-0.0327473-0.0118046-0.1546001,0.01828-0.1780815,0.0837727
				C24.2828846,20.5747814,24.4138756,20.6219997,24.4793701,20.645607z"/>
		</g>
		<g>
			<path d="M26.5729389,23.7685738c0.0130768,0.0046978,0.0218315,0.0208149,0.0295753,0.0399818
				c0.0040627,0.0001278,0.0077419-0.0002537,0.0115528-0.0007591c-0.0812378-0.1087818-0.1039562-0.2308846-0.1549816-0.3394089
				c-0.0836468-0.1780853-0.1793499-0.3236713-0.2303772-0.4899502c-0.0091381,0.0057144-0.0175152,0.0109177-0.0265293,0.0166283
				l0.3444862,0.7735081C26.5542831,23.7660351,26.5624046,23.7647648,26.5729389,23.7685738z"/>
		</g>
	</g>
</g>
</svg>
