<?xml version="1.0" encoding="utf-8"?>
<!-- Generator: Adobe Illustrator 25.4.1, SVG Export Plug-In . SVG Version: 6.00 Build 0)  -->
<svg version="1.1" id="图层_1" xmlns="http://www.w3.org/2000/svg" xmlns:xlink="http://www.w3.org/1999/xlink" x="0px" y="0px"
	 viewBox="0 0 28.3465004 28.3465004" style="enable-background:new 0 0 28.3465004 28.3465004;" xml:space="preserve">
<g>
	<g>
		<g>
			<path d="M5.8622279,11.6242132c-0.050807-0.2055826-0.1416988-0.3009796-0.4225254-0.2145863
				c-1.1134496,0.6609125-1.793009,1.8534622-1.7492778,3.1191101l2.4303367-2.0611839
				C6.0146484,12.2418213,6.0037155,11.9254055,5.8622279,11.6242132z"/>
		</g>
		<g>
			<path d="M13.6683693,17.1880245c-0.6083918-0.2193069-1.2611513-0.1421299-1.8078032,0.1609955
				c-0.7923136,0.4643269-1.5537643,1.1897602-2.5030031,1.2223473c-0.1504908,0.0709534-0.2456722,0.1616344-0.305479,0.3275585
				c-0.0199404,0.0550919,0.1061134,0.2257347,0.2165155,0.2656059c0.8960733,0.635397,1.9269857,1.0692883,3.0022783,1.2071285
				c1.4978142,0.3524284,3.0646601,0.1672115,4.34832-0.6199627c0.3206997-0.1967945,0.6064587-0.4688301,0.8366947-0.7608032
				c0.2454529-0.1614246,0.1395531-0.3871593-0.1372013-0.4868412L13.6683693,17.1880245z"/>
		</g>
		<g>
			<path d="M25.9874611,19.9414196c-0.2765331-0.0996876-0.3826523-0.3254166-0.3935871-0.6418304
				c-0.3399887-1.3100319-0.8461227-2.6798649-1.3921261-3.9390831c-1.0214844-2.3679581-2.9853458-4.2010489-5.3792343-5.188879
				c-1.3074551-0.533782-2.7300282-0.9215803-4.1172304-1.2341366c-0.5929518-0.088748-1.0463486-0.5646563-1.1434593-1.162324
				c-0.0308666-0.2608929-0.0816736-0.4666853-0.0572367-0.7080731c0.1131878-0.8341174,0.2109423-1.7987909,0.3595009-2.5576696
				c0.0443745-0.2964759,0.0289412-0.4270287-0.3627157-0.3807235c-0.5022745,0.0064297-0.9736795,0.2739654-1.1884785,0.6964941
				c-0.2501717,0.3472829-0.4649744,0.7698083-0.6598368,1.1370296c-0.3389235,0.9402366-0.6225328,1.9004049-0.8510551,2.8805141
				c-0.0686016,0.5376415-0.4139547,0.975605-0.9209423,1.1681118c-0.6218958,0.3380671-1.0778637,0.7361536-1.6245117,1.0390596
				c-2.020669,1.2714434-3.8246093,2.8087053-5.3014183,4.651228c-0.8212564,0.8913612-1.405849,1.9930191-1.6939656,3.1390495
				c-0.0842494,0.4070911-0.1684971,0.8141842-0.3080536,1.2013378c-0.0889637,0.5929546,0.2495282,1.2150631,0.7826728,1.4695206
				c0.5530782,0.1993656,1.1305966,0.1577778,1.65731-0.0900364c0.9183669-0.2939014,1.9074807-0.4371033,2.876658-0.5252113
				c1.1751833-0.1389103,2.3345079-0.4085903,3.3881464-0.9037914l0.2257328-0.1058979
				C9.48104,19.6157837,9.2244377,19.46101,8.8771553,19.2106247c-0.4025908-0.2701111-0.3382797-0.6218948,0.0733147-0.7232933
				c0.0951805-0.0906811,0.2810421-0.0863934,0.3762236-0.1768551c0.3762226-0.1768608,0.8077536-0.3337784,1.1087303-0.4754791
				c0.3762226-0.1768551,0.7170763-0.4289589,1.0026188-0.7009945c0.5665855-0.3582172,1.2746553-0.4152412,1.9383507-0.1759987
				l1.216774,0.4386024c0.2765398,0.0996876,0.5929556,0.0885353,0.8739948,0.002573
				c0.7327223-0.2984028,1.5205393-0.5768776,2.3437281-0.7800999c1.0842934-0.2340908,2.1795197-0.1517754,3.1904984,0.337635
				c1.8206596,0.8437672,2.7338867,2.2978535,3.3971539,4.0994358c0.0351543,0.0752468,0.0152149,0.1305504-0.0047169,0.1858578
				c-0.0064335,0.01758-0.0227261,0.0237961-0.0411587,0.0263729c0.0319366,0.0426617,0.0673122,0.0844574,0.1119003,0.1241188
				c0.0906811,0.0951805,0.2568207,0.1549892,0.4424629,0.1594944c0.0951805-0.0906792,0.1549892-0.2566013,0.1594887-0.4426785
				c-0.0308628-0.2608929-0.1369781-0.4866257-0.2231579-0.7678833c-0.0707417-0.1504898-0.0660248-0.3363514-0.2077274-0.6371117
				c1.3318977,0.2924023,2.6895142,2.594326,2.0897007,3.5654335c-0.2231617-0.7678795-0.7610207-0.8366947-1.3694077-1.0559998
				l-0.4977703-0.1794243c-0.2962627-0.0443783-0.5132084-0.3099804-0.4688377-0.6064606
				c-0.0212212-0.0454502-0.0362263-0.1091118-0.0561638-0.158205c-0.0345097-0.0010738-0.0696697-0.0124321-0.0696697-0.0124321
				l-0.0246544-0.0550938c-0.02701,0.0085716-0.0486603,0.0287266-0.0861759,0.0152225
				c-0.420599,0.4735451-0.8829994,0.3691444-1.4360733,0.1697788c-0.256609-0.1547737-0.5929565-0.0885391-0.8032551,0.1481323
				c-0.0199356,0.0550919-0.2057972,0.0508041-0.2057972,0.0508041c-0.0353718-0.0754604-0.0707417-0.1507015-0.0308666-0.2613182
				c0.1350498-0.2012959,0.3054752-0.3273468,0.4958401-0.5084915c0.5511494-0.3485661,0.9421654-0.5785847,1.4845219-0.9205132
				l-0.2227287-0.4997025c-0.3209171,0.1967964-0.5865192,0.4135284-0.8122578,0.5198574
				c-0.3760071,0.1766396-0.7723808,0.4088039-1.1132317,0.6611214c-0.5865211,0.413311-0.6797752,1.1923351-0.3414936,1.8142262
				c0.0752449-0.0355816,0.1504879-0.0707436,0.1704254-0.1262627c0.1549911-0.2563858,0.2347355-0.4778347,0.5665855-0.3582172
				c0.1106148,0.0398769,0.115118-0.145771,0.3363495-0.0660229c0.0553074,0.0199356,0.0353699,0.0750313,0.1459885,0.1149006
				c0.0553074,0.0199375,0.1504879-0.070528,0.2257309-0.1058979c0.1858616,0.0044994,0.3517838,0.0643101,0.5177059,0.1241188
				c0.2765408,0.0996876,0.4823399,0.0486641,0.5421505-0.1170444c0.0398712-0.1108303,0.115118-0.1459846,0.2701073-0.4025879
				c-0.0842457,0.4070854,0.1832905,0.8784924,0.5903797,0.9627399l0.6086044,0.219305
				c0.2765408,0.099678,0.512989,0.3099766,0.6943512,0.5003452c0.3474922,0.2501698,0.5796566,0.6463299,0.5505047,1.0733604
				c0.0553074,0.0199299,0.1108265,0.0398712,0.2060146-0.0508099c0.2057915-0.0508041,0.3961601-0.2321663,0.4958382-0.5087013
				C27.7877617,22.4028339,27.3015652,20.9776917,25.9874611,19.9414196z M5.662004,19.1141567
				c0.1704278-0.1260509,0.3961587-0.2321663,0.6574783-0.2630367c0.1104016,0.0398769,0.0904665,0.0953979,0.0505929,0.2057991
				c-0.0398736,0.110611-0.5464358,0.3031178-0.747942,0.1678505C5.511517,19.1848965,5.6420684,19.169466,5.662004,19.1141567z
				 M9.3215456,20.058466c-0.6019554,0.2827568-1.294589,0.4707565-1.9473515,0.5479298
				c-0.5222082,0.0615292-1.0092635,0.198513-1.5115366,0.2049465c-0.7479448,0.168066-1.4759517,0.2803936-2.299139,0.4836159
				c-0.5620852,0.1723537-1.174974,0.138916-1.767926,0.0501652l0.0398737-0.1106129
				c0.6881329-0.0019341,1.325462-0.2096615,1.947353-0.5477219c0.4315305-0.1571331,0.8431258-0.2587471,1.2900915-0.2851181
				c0.8784981-0.1832848,1.6864614-0.5168514,2.4431963-1.0564213c0.5867381-0.4137363,0.5867381-0.4137363,0.9095807,0.0776024
				C8.7729702,19.6730194,8.9388952,19.73283,9.3215456,20.058466z M9.0771618,17.0956268
				c-0.0752439,0.0351601-0.0951777,0.0904713-0.1350517,0.2010822c-0.2546721,0.533144-0.7659502,0.9115105-1.3080988,1.0283451
				c-0.33635,0.0662365-0.6176047,0.1524162-0.9183683,0.2939014c-0.1860743-0.0044994-0.4471817,0.0263672-0.5929503-0.0885353
				c-0.0355878-0.0754604-0.07096-0.1507015-0.031086-0.261322c0.0047159-0.1858578,0.0844617-0.4070892,0.2193007-0.6083851
				c0.5603681-0.8602772,1.5938573-1.3003807,2.64921-1.1074486C9.3472738,16.6928234,9.3826447,16.7680702,9.0771618,17.0956268z
				 M20.7473564,15.9277296c0.5530777,0.1993685,1.0309124,0.4338884,1.5441227,0.7440882
				c0.2919693,0.2302322,0.5640125,0.5157776,0.6103153,0.9074306c-0.6038857-0.4051571-0.8956451-0.6353951-1.4643745-0.965313
				c-1.2675819-0.6443996-2.6792183-0.7157879-3.9937496-0.1897202c-0.5822315,0.2276649-1.1640377,0.4551144-1.6907492,0.7029285
				c-0.3011951,0.1414852-0.3211288,0.1967907-0.8742075-0.0025749c0.7770967-0.5950966,1.4986744-1.2099152,2.2202473-1.8245173
				c2.3351555-1.9707193,5.8459225-0.2675362,6.5799313,1.6843195c0.0353737,0.0752468,0.0152225,0.1305504,0.0308723,0.2611046
				c-0.488987-0.5511551-1.1282425-1.031559-1.7720013-1.3261061c-0.3316326-0.1196175-0.6836319-0.1839314-1.0354156-0.2482424
				c-0.0553074-0.0199366-0.2611046,0.0308733-0.3007622,0.1414843
				C20.4155102,15.8081112,20.6367416,15.8878593,20.7473564,15.9277296z"/>
		</g>
		<g>
			<path d="M24.283205,21.2021389c0.0220852,0.0079327,0.036871,0.0351543,0.0499496,0.0675259
				c0.0068626,0.0002155,0.0130768-0.0004292,0.0195122-0.0012836c-0.1372032-0.1837215-0.1755733-0.3899422-0.2617493-0.5732307
				c-0.1412716-0.3007698-0.302906-0.5466518-0.3890877-0.8274803c-0.0154324,0.0096512-0.0295811,0.0184383-0.0448055,0.0280838
				l0.5818062,1.306385C24.2516975,21.1978512,24.2654133,21.1957054,24.283205,21.2021389z"/>
		</g>
	</g>
</g>
</svg>
