<?xml version="1.0" encoding="utf-8"?>
<!-- Generator: Adobe Illustrator 25.4.1, SVG Export Plug-In . SVG Version: 6.00 Build 0)  -->
<svg version="1.1" id="图层_1" xmlns="http://www.w3.org/2000/svg" xmlns:xlink="http://www.w3.org/1999/xlink" x="0px" y="0px"
	 viewBox="0 0 28.3465004 28.3465004" style="enable-background:new 0 0 28.3465004 28.3465004;" xml:space="preserve">
<style type="text/css">
	.st0{fill:none;}
	.st1{fill:#CCCC00;}
	.st2{fill:#FFFFCC;}
	.st3{fill:#FFFF00;}
</style>
<g>
	<g>
		<path class="st0" d="M20.8813972,14.8738003L20.8813972,14.8738003L20.8813972,14.8738003z"/>
	</g>
	<g>
		<path class="st0" d="M20.2483044,14.4517412L20.2483044,14.4517412L20.2483044,14.4517412z"/>
	</g>
	<g>
		<path class="st1" d="M22.9917107,13.6076164c0.4220638-0.4220648,0.633091-0.8441248,0.4220638-1.4772205
			c0-0.2110329-0.211031-0.4220648-0.211031-0.6330929c-0.2110329,0-0.2110329,0-0.4220657,0.2110319
			c0,0.4220648,0.2110329,0.4220648,0.2110329,0.6330919c0,0.4220648-0.2110329,0.8441248-0.8441257,1.0551567
			c-0.2110329,0-0.4220638,0-0.4220638,0c0.211031,0.2110329,0.211031,0.2110329,0.4220638,0
			c0.2110329,0,0.4220657-0.2110319,0.6330929-0.4220638c-0.211031,0.2110319-0.211031,0.2110319-0.211031,0.4220638
			C22.9917107,13.6076164,22.9917107,13.6076164,22.9917107,13.6076164z"/>
	</g>
	<g>
		<path class="st1" d="M20.8813972,10.6531744c0,0.2110319-0.2110329,0.4220648-0.4220657,0.6330919
			c-0.2110271,0.2110319-0.2110271,0.2110319-0.2110271,0.4220648c0,0.2110319,0,0.4220648,0.2110271,0.6330919
			C20.4593372,11.7083311,20.4593372,11.2862701,20.8813972,10.6531744L20.8813972,10.6531744L20.8813972,10.6531744z"/>
	</g>
	<g>
		<path class="st1" d="M20.4593372,12.5524597L20.4593372,12.5524597
			C20.4593372,12.3414268,20.4593372,12.3414268,20.4593372,12.5524597
			C20.4593372,12.3414268,20.4593372,12.3414268,20.4593372,12.5524597z"/>
	</g>
	<g>
		<path class="st1" d="M22.3586178,3.2670858c0.4220638-0.6330945,0.6330929-1.2661889,0.4220638-1.8992811
			c0,0.2110322-0.211031,0.2110322-0.211031,0.4220623c0,0.4220622,0,0.8441243-0.2110329,1.0551567
			c-0.2110329,0.2110322-0.2110329,0.4220622-0.4220657,0.4220622c-0.211031,0.2110322-0.211031,0.2110322-0.211031,0.2110322
			C21.936552,3.478116,22.1475849,3.478116,22.3586178,3.2670858z"/>
	</g>
	<g>
		<path class="st1" d="M22.7806816,1.1567724L22.7806816,1.1567724L22.7806816,1.1567724L22.7806816,1.1567724z"/>
	</g>
	<g>
		<path class="st1" d="M23.4137745,1.3678025l-0.4220638-0.2110323c0.8441238,0.8441246,1.6882496,1.688251,2.1103134,2.743408
			c0.8441238,1.477217,1.4772205,3.376498,0.633091,4.8537188c-0.8441238,1.6882448-2.5323753,2.1103096-4.4316578,2.7434015
			h0.211031c1.6882515-0.4220648,3.5875359-0.8441238,4.4316597-2.3213406c0.6330929-1.2661896,0.6330929-2.9544382,0-4.2206268
			C25.5240879,3.6891479,24.4689312,2.2119291,23.4137745,1.3678025z"/>
	</g>
	<g>
		<path class="st1" d="M19.8262444,4.5332704c0.2110271,0.2110319,0.2110271,0.4220624,0.42206,0.4220624c0,0,0,0,0-0.2110324
			c0,0,0,0-0.2110329,0l0,0l0,0l0,0C20.2483044,4.7443023,20.0372715,4.5332704,19.8262444,4.5332704
			c0-0.2110319,0-0.2110319,0-0.4220624l0,0c0,0-0.211031,0.2110324-0.4220638,0.2110324l0,0l0,0
			C19.6152134,4.5332704,19.6152134,4.5332704,19.8262444,4.5332704z"/>
	</g>
	<g>
		<path class="st1" d="M21.5144939,4.7443023L21.5144939,4.7443023L21.5144939,4.7443023L21.5144939,4.7443023
			c0-0.2110319,0-0.2110319,0-0.4220619c-0.4220638,0.2110324-0.6330929,0.2110324-0.8441257,0.4220619
			c0.2110329-0.2110319,0.4220657-0.2110319,0.6330929-0.4220619C21.3034611,4.5332704,21.3034611,4.7443023,21.5144939,4.7443023z"
			/>
	</g>
	<g>
		<path class="st1" d="M16.8718071,2.6339912C17.2938709,2.8450236,17.5049,2.8450236,17.2938709,3.478116
			c0.4220638-0.4220624,0.4220638-0.4220624,0.8441257-0.6330948c0.633091-0.2110322,1.6882477,0.2110324,2.1103077,0.8441246l0,0
			h0.2110329h0.211031c0,0,0.2110329,0,0.4220657,0c-0.4220657-0.2110322-0.6330929-0.4220622-1.0551586-0.6330943
			c-0.4220619-0.2110322-0.633091-0.2110322-1.055151-0.2110322h-0.2110329c-0.2110329,0-0.633091,0.2110322-0.633091,0.4220622
			c0.2110329-0.2110322,0.2110329-0.2110322,0.4220619-0.4220622c-0.633091,0-1.2661877-0.2110324-1.8992805-0.2110324
			c-0.4220638,0-0.8441238-0.2110322-1.0551558-0.2110322C15.8166494,2.2119291,16.4497452,2.4229591,16.8718071,2.6339912z"/>
	</g>
	<g>
		<path class="st1" d="M21.0924301,3.6891479L21.0924301,3.6891479C21.0924301,3.478116,20.8813972,3.478116,21.0924301,3.6891479
			c-0.2110329-0.2110319-0.2110329-0.2110319-0.2110329,0C20.8813972,3.478116,20.8813972,3.478116,21.0924301,3.6891479z"/>
	</g>
	<g>
		<path class="st1" d="M17.5049038,8.1208048c-0.2110329,0-0.2110329,0-0.4220657-0.2110319l-0.211031-0.2110324
			c0,0.2110324-0.2110329,0.4220643-0.4220657,0.6330924l0,0c0,0,0,0-0.211031,0
			c0.211031,0,0.4220638-0.2110329,0.4220638-0.2110329c0.2110329,0.2110329,0.4220638,0.2110329,0.8441257,0.2110329
			C17.7159309,8.3318367,17.7159309,8.1208048,17.5049038,8.1208048L17.5049038,8.1208048z"/>
	</g>
	<g>
		<path class="st1" d="M18.1379967,6.4325519l0.211031,0.2110319l0.211031-0.2110319
			c-0.211031-0.2110324-0.4220619-0.4220648-0.8441238-0.4220648c0-0.2110319,0-0.2110319,0-0.2110319l0,0
			c0,0.2110319-0.211031,0.4220643-0.211031,0.4220643C17.7159309,6.4325519,17.9269638,6.4325519,18.1379967,6.4325519z"/>
	</g>
	<g>
		<path class="st1" d="M18.9821205,6.2215233L18.9821205,6.2215233L18.9821205,6.2215233L18.9821205,6.2215233z"/>
	</g>
	<g>
		<path class="st1" d="M17.7159309,8.7538967c0,0.2110329,0.2110329,0.4220648,0.2110329,0.6330929
			c0-1.0551567,0.4220638-2.1103134,1.0551567-2.9544377C18.3490276,6.8546162,17.9269638,7.6987405,17.7159309,8.7538967z"/>
	</g>
	<g>
		<path class="st1" d="M15.3945894,5.3773971c-0.4220648,0.8441262-0.4220648,1.4772191-0.2110319,2.110311
			c0.2110319,0.2110324,0.2110319,0.4220648,0.4220648,0.6330919C15.1835575,7.2766805,14.9725246,6.2215233,15.3945894,5.3773971z"
			/>
	</g>
	<g>
		<path d="M22.3586178,3.2670858c0.4220638-0.6330945,0.6330929-1.2661889,0.4220638-2.1103134l0,0l0,0l0,0
			C22.7806816,2.0008969,22.5696507,2.6339912,22.3586178,3.2670858c-0.4220657,0.2110322-0.6330929,0.2110322-0.8441238,0.4220622
			l0,0C21.936552,3.6891479,22.1475849,3.6891479,22.3586178,3.2670858z"/>
	</g>
	<g>
		<path d="M18.9821205,6.2215233c-0.2110329,0-0.2110329,0.2110324-0.4220657,0.2110324l-0.2110329,0.2110324l-0.211031-0.2110324
			c-0.2110329-0.2110324-0.4220638-0.2110324-0.633091-0.2110324c0-0.2110319,0.211031-0.4220643,0.211031-0.4220643l0,0
			c-0.211031,0.4220643-0.6330929,0.6330929-0.8441238,1.0551572c-0.2110329,0.4220643-0.2110329,1.2661886-0.4220657,1.6882486l0,0
			c0.2110329-0.2110319,0.2110329-0.4220648,0.4220657-0.6330919c0.211031,0,0.211031,0,0.4220638,0
			c0,0,0.2110329,0.2110319,0.4220638,0.2110319c0,0,0,0-0.211031,0c-0.2110329-0.2110319-0.2110329-0.4220643,0-0.4220643
			c0.211031-0.2110324,0.4220638-0.2110324,0.4220638,0l0,0c0,0.2110324-0.2110329,0.4220643-0.2110329,0.6330924l0,0
			c0,0.2110319,0,0.2110319,0,0.4220638v0.2110329l0,0C17.9269638,7.6987405,18.3490276,6.8546162,18.9821205,6.2215233
			L18.9821205,6.2215233L18.9821205,6.2215233L18.9821205,6.2215233z"/>
	</g>
	<g>
		<path d="M20.4593372,11.2862701c0-0.211031,0.211031-0.4220638,0.4220638-0.6330919l0,0
			C20.6703682,10.8642063,20.4593372,10.8642063,20.4593372,11.2862701
			c-0.4220657,0.2110329-0.4220657,0.2110329-0.2110329,0.6330929c0,0.2110329,0.2110329,0.4220638,0.2110329,0.6330919l0,0l0,0l0,0
			c0-0.2110319,0-0.4220638-0.2110329-0.6330919C20.2483044,11.497303,20.2483044,11.497303,20.4593372,11.2862701z"/>
	</g>
	<g>
		<path d="M20.2483044,4.7443023L20.2483044,4.7443023L20.2483044,4.7443023L20.2483044,4.7443023L20.2483044,4.7443023z"/>
	</g>
	<g>
		<path d="M15.3945894,5.3773971L15.3945894,5.3773971c-0.8441248,0.8441262-0.8441248,1.4772191-0.2110319,2.110311l0,0
			C14.9725246,6.8546162,14.9725246,6.2215233,15.3945894,5.3773971z"/>
	</g>
	<g>
		<path class="st2" d="M17.7159309,8.1208048c0-0.2110319,0-0.4220643,0.2110329-0.6330919l0,0
			c-0.2110329-0.2110324-0.4220638,0-0.4220638,0c-0.2110329,0.2110319,0,0.4220643,0,0.4220643
			C17.5049038,8.1208048,17.5049038,8.1208048,17.7159309,8.1208048
			C17.5049038,8.1208048,17.5049038,8.1208048,17.7159309,8.1208048L17.7159309,8.1208048z"/>
	</g>
	<g>
		<path class="st2" d="M20.4593372,4.7443023c0.211031-0.2110319,0.211031-0.2110319,0.211031-0.2110319l0,0
			c0-0.2110319-0.211031-0.2110319-0.4220638-0.2110319C20.2483044,4.3222404,20.0372715,4.5332704,20.4593372,4.7443023
			C20.2483044,4.7443023,20.2483044,4.7443023,20.4593372,4.7443023L20.4593372,4.7443023
			C20.2483044,4.7443023,20.2483044,4.7443023,20.4593372,4.7443023z"/>
	</g>
	<g>
		<path class="st0" d="M19.8262444,4.5332704c0.2110271,0.2110319,0.2110271,0.4220624,0.42206,0.4220624c0,0,0,0,0-0.2110324
			c0.2110329-0.2110319,0.2110329-0.2110319,0.2110329-0.2110319l0,0c0-0.2110324-0.2110329-0.2110324-0.4220657-0.2110324
			c-0.2110271,0-0.2110271,0.2110324-0.2110271,0.4220624l0,0C20.2483044,4.7443023,20.0372715,4.5332704,19.8262444,4.5332704
			c0-0.2110319,0-0.2110319,0-0.4220624l0,0c0,0-0.211031,0.2110324-0.4220638,0.2110324l0,0l0,0
			C19.6152134,4.5332704,19.6152134,4.5332704,19.8262444,4.5332704z"/>
	</g>
	<g>
		<path class="st0" d="M16.8718071,2.6339912C17.2938709,2.8450236,17.5049,2.8450236,17.2938709,3.478116
			c0.4220638-0.4220624,0.4220638-0.4220624,0.8441257-0.6330948c0.633091-0.2110322,1.6882477,0.2110324,2.1103077,0.8441246l0,0
			h0.2110329h0.211031c0,0,0.2110329,0,0.4220657,0c-0.4220657-0.2110322-0.6330929-0.4220622-1.0551586-0.6330943
			c-0.4220619-0.2110322-0.633091-0.2110322-1.055151-0.2110322h-0.2110329c-0.2110329,0-0.633091,0.2110322-0.633091,0.4220622
			c0.2110329-0.2110322,0.2110329-0.2110322,0.4220619-0.4220622c-0.633091,0-1.2661877-0.2110324-1.8992805-0.2110324
			c-0.4220638,0-0.8441238-0.2110322-1.0551558-0.2110322C15.8166494,2.2119291,16.4497452,2.4229591,16.8718071,2.6339912z"/>
	</g>
	<g>
		<path class="st0" d="M22.9917107,13.6076164c0.4220638-0.4220648,0.633091-0.8441248,0.4220638-1.4772205
			c0-0.2110329-0.211031-0.4220648-0.211031-0.6330929c-0.2110329,0-0.2110329,0-0.4220657,0.2110319
			c0,0.4220648,0.2110329,0.4220648,0.2110329,0.6330919c0,0.4220648-0.2110329,0.8441248-0.8441257,1.0551567
			c-0.2110329,0-0.4220638,0-0.4220638,0c0.211031,0.2110329,0.211031,0.2110329,0.4220638,0
			c0.2110329,0,0.4220657-0.2110319,0.6330929-0.4220638c-0.211031,0.2110319-0.211031,0.2110319-0.211031,0.4220638
			C22.9917107,13.6076164,22.9917107,13.6076164,22.9917107,13.6076164z"/>
	</g>
	<g>
		<path class="st0" d="M21.5144939,4.7443023L21.5144939,4.7443023L21.5144939,4.7443023L21.5144939,4.7443023
			c0-0.2110319,0-0.2110319,0-0.4220619c-0.4220638,0.2110324-0.6330929,0.2110324-0.8441257,0.4220619
			c0.2110329-0.2110319,0.4220657-0.2110319,0.6330929-0.4220619C21.3034611,4.5332704,21.3034611,4.7443023,21.5144939,4.7443023z"
			/>
	</g>
	<g>
		<path class="st0" d="M15.3945894,5.3773971L15.3945894,5.3773971c-0.8441248,0.8441262-0.8441248,1.4772191-0.2110319,2.110311
			l0,0c0.2110319,0.2110324,0.2110319,0.4220648,0.4220648,0.6330919
			C15.1835575,7.2766805,14.9725246,6.2215233,15.3945894,5.3773971z"/>
	</g>
	<g>
		<path class="st0" d="M22.3586178,3.2670858c0.4220638-0.6330945,0.6330929-1.2661889,0.4220638-2.1103134l0,0l0,0l0,0l0,0
			c0,0.2110323-0.211031,0.2110323-0.211031,0.4220623c0,0.4220623,0,0.8441244-0.2110329,1.0551566
			c-0.2110329,0.2110324-0.2110329,0.4220624-0.4220657,0.4220624c-0.211031,0.2110322-0.211031,0.2110322-0.211031,0.2110322l0,0
			C21.936552,3.6891479,22.1475849,3.6891479,22.3586178,3.2670858z"/>
	</g>
	<g>
		<path class="st0" d="M20.2483044,14.4517412L20.2483044,14.4517412L20.2483044,14.4517412z"/>
	</g>
	<g>
		<path class="st0" d="M21.0924301,3.6891479L21.0924301,3.6891479C21.0924301,3.478116,20.8813972,3.478116,21.0924301,3.6891479
			c-0.2110329-0.2110319-0.2110329-0.2110319-0.2110329,0C20.8813972,3.478116,20.8813972,3.478116,21.0924301,3.6891479z"/>
	</g>
	<g>
		<path class="st0" d="M20.4593372,20.14958L20.4593372,20.14958L20.4593372,20.14958z"/>
	</g>
	<g>
		<path class="st0" d="M4.2099347,18.0392666L4.2099347,18.0392666L4.2099347,18.0392666z"/>
	</g>
	<g>
		<path class="st0" d="M20.8813972,14.8738003L20.8813972,14.8738003L20.8813972,14.8738003z"/>
	</g>
	<g>
		<path class="st0" d="M20.4593372,11.0752392c-0.2110329,0.211031-0.2110329,0.4220638-0.2110329,0.8441238
			c0,0.2110329,0.2110329,0.4220638,0.2110329,0.6330919l0,0l0,0l0,0l0,0c0-0.6330919,0.211031-1.0551567,0.4220638-1.6882486l0,0
			C20.6703682,10.8642063,20.4593372,11.0752392,20.4593372,11.0752392z"/>
	</g>
	<g>
		<path class="st0" d="M23.4137745,1.3678025l-0.4220638-0.2110323c0.8441238,0.8441246,1.6882496,1.688251,2.1103134,2.743408
			c0.8441238,1.477217,1.4772205,3.376498,0.633091,4.8537188c-0.8441238,1.6882448-2.5323753,2.1103096-4.4316578,2.7434015
			h0.211031c1.6882515-0.4220648,3.5875359-0.8441238,4.4316597-2.3213406c0.6330929-1.2661896,0.6330929-2.9544382,0-4.2206268
			C25.5240879,3.6891479,24.4689312,2.2119291,23.4137745,1.3678025z"/>
	</g>
	<g>
		<path class="st0" d="M18.9821205,6.2215233L18.9821205,6.2215233c-0.2110329,0-0.2110329,0.2110324-0.4220657,0.4220648
			c-0.2110329-0.2110324-0.4220638-0.4220648-0.8441238-0.4220648c0-0.2110319,0-0.2110319,0-0.2110319l0,0l0,0
			c-0.211031,0.4220643-0.6330929,0.6330924-0.8441238,1.0551572c-0.2110329,0.4220643-0.2110329,1.2661881-0.4220657,1.6882482
			c0,0,0,0-0.211031,0c0.211031,0,0.4220638-0.2110319,0.4220638-0.2110319
			c0.2110329,0.2110319,0.4220638,0.2110319,0.8441257,0.2110319v0.2110329l0,0c0,0.2110319,0.211031,0.42206,0.211031,0.6330919
			C17.7159309,8.1208048,18.3490276,7.2766805,18.9821205,6.2215233L18.9821205,6.2215233L18.9821205,6.2215233
			L18.9821205,6.2215233z"/>
	</g>
	<g>
		<path class="st3" d="M3.1547759,16.7730865C3.1547759,16.5620537,3.1547759,16.5620537,3.1547759,16.7730865
			c0-0.4220657-0.2110322-0.4220657-0.2110322-0.6330929c-0.4220603,0.6330929-0.8441224,1.8992786,0.2110322,2.3213406
			C2.7327135,17.6172066,2.9437456,17.4061756,3.1547759,16.7730865z"/>
	</g>
	<g>
		<g>
			<path class="st3" d="M13.0732431,9.1759615L13.0732431,9.1759615L13.0732431,9.1759615L13.0732431,9.1759615z"/>
		</g>
		<g>
			<path class="st3" d="M21.5144939,3.6891479L21.5144939,3.6891479L21.5144939,3.6891479z"/>
		</g>
		<g>
			<path class="st3" d="M21.936552,3.2670858c0.2110329-0.2110322,0.2110329-0.2110322,0.4220657-0.4220622
				c0.2110329-0.4220622,0.2110329-0.8441246,0.2110329-1.0551567s0.211031-0.4220623,0.211031-0.4220623l0,0
				c-0.211031,0-0.4220638,0-0.4220638,0.2110322c0,0.4220623-0.2110329,0.8441247-0.2110329,1.2661887
				c-0.2110329,0.4220624-0.633091,0.6330924-0.633091,1.0551546l0,0C21.7255249,3.478116,21.7255249,3.478116,21.936552,3.2670858z
				"/>
		</g>
		<g>
			<path class="st3" d="M22.7806816,1.1567724L22.7806816,1.1567724L22.7806816,1.1567724L22.7806816,1.1567724
				L22.7806816,1.1567724z"/>
		</g>
		<g>
			<path class="st3" d="M25.1020241,3.9001782c-0.6330929-1.0551546-1.4772224-1.8992791-2.1103134-2.7434058l0,0
				c0.2110329,0.6330945,0.2110329,1.4772189-0.4220638,2.1103134c-0.4220619,0.4220622-0.6330948,0.4220622-1.0551529,0.4220622
				c0,0.2110302,0,0.2110302,0.211031,0.42206c0.4220638,0.4220624,0.6330929,0.8441248,0.8441257,1.4772196
				c0.211031,0.4220638,0.4220638,1.0551562,0.4220638,1.477221c0-0.2110324-0.4220638-1.0551572-0.6330929-1.4772191
				c-0.2110329-0.2110324-0.2110329-0.4220624-0.4220638-0.8441248h-0.2110329c-0.211031,0-0.211031,0.4220624-0.4220638,0.8441248
				c0,0.6330938,0.2110329,1.0551586,0.2110329,1.4772191c0-0.6330929-0.4220638-1.0551572-0.6330929-1.4772191
				c0-0.2110324,0-0.4220624,0.2110329-0.6330948c-0.2110329,0-0.2110329,0.2110324-0.2110329,0.2110324
				c-0.6330929,0.6330919-0.2110329,1.0551562-0.4220638,1.6882491c0-0.8441248-0.4220657-1.2661886,0.211031-1.8992815
				c0.2110329-0.2110324,0.4220657-0.4220619,0.6330929-0.4220619c0-0.2110324-0.211031-0.2110324-0.211031-0.2110324
				c-0.2110329,0-0.4220657,0.2110324-0.6330929,0.4220619l-0.2110329,0.2110324l0,0
				c-0.2110329,0-0.42206-0.4220619-0.42206-0.4220619c-0.211031,0-0.211031,0-0.4220638,0l0,0
				c0.2110329-0.2110324,0.4220638-0.4220624,0.4220638-0.6330945c0,0,0-0.2110302,0.2110271-0.2110302
				c-0.4220581-0.6330943-1.4772167-1.0551567-2.1103077-0.8441243C17.5049,3.0560558,17.5049,3.0560558,17.0828381,3.4781179
				c0.2110329-0.6330943-0.211031-0.6330943-0.4220638-0.8441246c-0.4220638-0.2110319-1.0551567-0.4220622-1.6882496-0.4220622
				c-0.8441238,0-1.6882486,0.2110322-2.3213453,0.6330943c-0.6330872,0.6330924-1.4772158,1.2661867-1.0551519,2.110311
				c0.2110319,0.6330948,0.6330919,1.0551591,1.4772158,1.4772191c-0.8441238-0.2110324-1.2661839-0.2110324-1.6882439,0
				c-0.4220648,0.4220643-0.8441238,0.8441248-1.2661886,1.0551572C9.9077778,7.6987448,9.6967459,7.6987448,9.6967459,7.9097772
				C9.485714,9.3869944,9.274682,10.2311182,9.274682,11.7083349c0,1.0551567,0,2.1103134,0,3.1654701
				c0,0.4220638,0.2110319,0.8441248,0.2110319,1.2661886c0.4220638,0.2110329,0.8441248,0.2110329,1.0551558,0.6330929
				c0-0.8441238,0.2110329-1.6882486,0.4220648-2.5323782c0,0.8441248,0,1.6882486,0,2.5323782
				c0,0.6330891,0,0.84412,0.2110329,1.2661858c0.6330919,0.211031,1.0551519,0.4220619,1.4772167,0.211031
				s0.8441238-0.4220638,1.0551567-0.8441238c0.6330919-1.0551529,1.0551567-2.1103106,2.1103134-2.7434025
				c0-1.2661886-0.8441248-2.3213444-1.6882486-3.1654692c-0.6330929-0.8441257-1.0551567-1.4772215-1.2661896-2.5323744
				c0,0,0,0.2110281,0.2110329,0.2110281c1.0551567,1.2661896,2.3213444,2.3213463,3.376502,3.798563
				c0.6330929,0.8441238,1.0551567,1.2661877,0.8441238,2.3213444c-0.6330929,0.2110329-0.8441238,0.4220648-1.2661877,1.0551577
				c-1.4772224,1.6882458-2.1103144,3.1654663-4.0095949,2.5323734c-0.42206,0-0.844121-0.2110329-1.4772167-0.2110329
				c0-0.2110329-0.2110329-0.4220638-0.2110329-0.633091c-0.4220648-0.2110329-0.8441238-0.4220657-1.2661886-0.8441257
				c-0.4220638-0.211031-0.4220638-0.4220638-0.6330929-0.8441238c-0.6330919-0.42206-0.8441238-0.6330881-0.8441238-1.4772167
				c0-0.6330919,0-1.0551567,0-1.6882496c-1.0551572,1.0551577-1.4772215,1.8992815-1.8992815,3.3764992
				c-0.4220643,2.3213444,0.8441243,4.009594,2.1103134,5.6978455c0.8441248,0.6330929,1.4772205,1.0551586,2.3213453,1.4772186
				c0.2110319,0.8441238,0.4220648,1.2661896,0.6330919,1.8992825c0,0.4220619,0.6330929,0.4220619,1.0551529,0.4220619
				c0.6330919-0.2110329,1.2661896-0.633091,1.0551567-1.0551548c0-0.2110329-0.2110319-0.4220657-0.4220648-0.4220657
				c0.4220648-0.4220638,0.6330919-1.0551548,0.6330919-1.4772167c0-1.0551548-0.4220638-1.6882477-0.8441238-2.7434044
				c0,0.211031,0.2110319,0.211031,0.2110319,0.4220619c0.2110329,0.2110329,0.4220648,0.4220657,0.6330919,0.8441257
				c0.8441257-0.4220638,1.8992815-1.0551567,2.3213463-1.8992805c0-0.4220657,0-0.8441257,0.2110329-1.4772205
				c0,0.4220619,0,0.633091,0.2110319,0.8441238c0,0.211031,0.2110329,0.4220638,0.2110329,0.6330929
				c0.211031,0.211031,0.211031,0.4220638,0.4220638,0.633091c0,0.2110329,0.211031,0.2110329,0.211031,0.4220638
				c-0.211031,0-0.211031-0.211031-0.4220638-0.211031c-0.211031,0.4220638-0.4220638,0.8441238-0.6330919,1.2661896
				c-0.2110329,0.4220619,0.4220648,0.8441238,0.8441248,1.0551548c0.4220638,0,0.8441238,0.2110329,1.0551567-0.211031
				c0.2110329-0.4220657,0.2110329-0.4220657,0.2110329-0.8441238c0.4220638-0.2110329,0.6330929-0.2110329,0.8441219-0.6330929
				c0.2110329-0.6330929,0.4220619-1.2661896,0.6330929-1.8992825c0-0.4220638,0.2110291-0.6330929,0-1.0551548
				c-0.211031-0.8441257-0.4220638-2.1103153-0.8441219-2.9544344c-0.6330929-0.4220648-0.8441257-0.4220648-1.2661896-0.8441248
				l0,0c0.8441238,0,1.4772186,0,2.1103115-0.2110319c0.4220619,0,0.6330891,0.2110319,1.0551529,0.2110319
				c0.6330929,0.2110329,1.0551567,0.2110329,1.4772224,0c0.2110329,0,0.2110329-0.2110319,0.2110329-0.2110319
				l-0.2110329-0.2110329c0,0-0.2110329,0.2110329-0.4220657,0.2110329
				c-0.8441238,0.2110319-1.0551567-0.6330919-1.0551567-1.2661896c0-0.4220638-0.2110329-0.6330919-0.633091-1.0551567
				c0.2110329,0,0.4220638,0,0.8441238,0c1.8992805-0.6330919,3.587534-1.2661886,4.4316597-2.9544373
				C26.5792446,7.2766805,25.7351189,5.3773971,25.1020241,3.9001782z M12.0180922,11.0752392
				c-0.2110329-0.2110329-0.4220648-0.6330938-0.6330929-0.8441248c-0.4220648,0-0.2110319,0.4220638-0.2110319,0.8441248
				c0,1.0551567,0,1.8992805-0.2110329,2.9544373c0-0.8441248,0-1.4772215-0.2110319-2.1103134
				c-0.2110329-0.6330929-0.6330919-2.3213415-0.4220638-2.9544334c0.211031-0.4220648,0.211031-0.4220648,0.6330919-0.8441248
				c0.4220638-0.2110319,0.8441248-0.6330919,1.2661886-0.8441243c0,0,0,0,0,0.2110324
				c0.2110281-0.2110324,0.42206-0.2110324,0.6330881-0.4220643C11.3849945,8.5428648,11.1739674,9.3869896,12.0180922,11.0752392z
				 M15.1835575,7.4877081c-0.6330929-0.6330919-0.6330929-1.2661886,0.4220648-2.1103129c0,0,0,0,0,0.2110324
				c-0.4220648,0.8441243-0.2110329,1.8992805,0.2110319,2.7434053C15.3945894,7.9097729,15.1835575,7.6987405,15.1835575,7.4877081
				z M17.9269638,9.1759615c0-0.2110319-0.2110329-0.4220648-0.2110329-0.6330919l0,0V8.3318367
				c-0.4220638,0-0.4220638,0-0.8441238-0.2110319c-0.2110329,0.2110319-0.2110329,0.2110319-0.4220657,0.2110319
				c0,0,0,0,0.2110329,0c0.2110329-0.4220638,0.2110329-1.2661881,0.4220638-1.6882486
				c0.2110329-0.4220648,0.6330929-0.6330924,0.8441257-1.0551567l0,0l0,0v0.2110324
				c0.4220638,0,0.633091,0.2110319,0.8441238,0.4220643c0.2110329-0.2110324,0.2110329-0.2110324,0.4220638-0.4220643
				C18.3490276,7.2766805,17.7159309,8.1208048,17.9269638,9.1759615z M20.4593372,12.3414268
				c0-0.211031-0.2110329-0.4220638-0.2110329-0.6330919c-0.2110329-0.4220648-0.2110329-0.4220648,0.2110329-0.8441248
				c0.211031-0.2110319,0.4220638-0.2110319,0.4220638-0.4220648
				C20.4593372,11.2862701,20.4593372,11.7083311,20.4593372,12.3414268z"/>
		</g>
	</g>
	<g>
		<path class="st3" d="M9.0636539,23.737114c-0.6330929-0.4220619-1.0551567-0.633091-1.6882491-1.2661877
			c0,0.4220638-0.2110319,0.6330929-0.2110319,1.0551548c0,0.2110329-0.2110324,0.2110329,0,0.6330929
			c0.2110319,0.4220657,0.6330919,0.6330929,1.0551562,0.6330929c0.2110319-0.211031,0.4220648-0.211031,0.8441248-0.4220638
			C9.0636539,24.1591778,9.0636539,23.9481468,9.0636539,23.737114z"/>
	</g>
	<g>
		<path class="st2" d="M6.1092114,16.5620537c0.2110324-1.4772205,0.8441243-2.3213453,1.899281-3.376502
			c0-0.2110319,0-0.2110319,0-0.4220638c0.2110319-0.8441248,0.2110319-1.4772215,0.4220648-2.1103134
			c-1.4772215,1.2661886-2.3213458,2.1103134-2.7434063,3.798562c-0.4220638,1.2661886-0.4220638,2.3213463-0.2110319,3.5875301
			c0.2110319,0.8441257,0.4220643,1.4772224,1.2661891,2.5323772c0.4220648,0.6330929,1.0551567,1.2661896,1.6882491,1.6882496
			C6.9533405,20.5716438,5.687151,18.8833961,6.1092114,16.5620537z"/>
	</g>
	<g>
		<path class="st2" d="M9.274682,11.7083311c0-1.4772215,0-2.3213415,0.4220638-3.7985582
			C9.485714,8.1208048,9.274682,8.3318367,9.274682,8.7538967c-0.4220648,1.2661858-0.6330919,2.7434015-0.8441248,4.0095911
			c-0.2110329,0.8441248,0,1.4772205,0,2.1103125c0,0.6330929,0.2110329,0.8441248,0.8441248,1.0551567
			c0.2110319,0,0.2110319,0,0.2110319,0.2110329C9.274682,15.7179251,9.274682,15.5068979,9.274682,14.8738003
			C9.274682,13.8186445,9.274682,12.7634878,9.274682,11.7083311z"/>
	</g>
	<g>
		<path class="st2" d="M13.284276,6.4325519c-0.8441248-0.4220648-1.0551567-0.6330948-1.4772167-1.4772191
			c-0.4220648-0.8441248,0.42206-1.4772167,1.0551529-2.1103115c-0.6330929,0.4220624-1.2661848,1.0551569-1.8992777,1.8992791
			c-0.6330919,0.8441243-0.6330919,1.4772191-0.8441238,2.3213434l0,0c0.6330919-0.2110324,1.0551567-0.6330919,1.4772215-1.0551567
			l-0.2110329,0.2110324C12.0180922,6.2215233,12.4401474,6.2215233,13.284276,6.4325519z"/>
	</g>
	<g>
		<path class="st1" d="M11.1739674,8.3318367c0,0.6330929-0.2110329,1.0551529,0.2110319,1.6882458
			c-0.6330967-0.422061-0.6330967-0.6330929-0.6330967-1.2661858c0,0,0,0.2110329-0.2110329,0.4220648
			c-0.211031,0.6330881,0,2.1103086,0.2110329,2.7434015l0,0c0.2110319,0.6330919,0.2110319,1.4772205,0.2110319,2.1103134
			c0.2110329-1.0551567,0.2110329-1.8992805,0.2110329-2.9544373c0-0.4220648-0.2110329-0.8441248,0.2110319-0.8441248
			c0.2110329,0.211031,0.42206,0.6330919,0.6330929,0.8441248c-0.6330929-1.6882496-0.4220648-2.7434025,0.6330872-4.0095906
			c-0.2110319,0.2110319-0.42206,0.2110319-0.6330872,0.4220643C11.8070593,7.6987405,11.3849945,8.1208048,11.1739674,8.3318367z"
			/>
	</g>
	<g>
		<path class="st1" d="M16.2387142,16.3510208c0.4220638-0.4220638,0.6330929-0.633091,1.2661896-1.0551558
			c0-1.0551567-0.2110329-1.4772205-0.8441257-2.3213453c-1.0551558-1.2661886-2.3213453-2.5323782-3.376502-3.7985582l0,0
			c0.4220648,0.844121,1.0551567,1.4772167,1.4772215,2.1103086c1.0551567,1.0551567,1.6882477,2.1103134,1.8992805,3.5875349
			c-1.0551558,0.6330929-1.6882486,1.8992815-2.3213453,2.9544344c-0.4220638,0.4220638-0.6330919,0.633091-1.2661896,0.8441238
			c-0.211031,0-0.4220638,0-0.6330919,0C14.3394327,19.3054562,14.9725246,17.8282394,16.2387142,16.3510208z"/>
	</g>
	<g>
		<path class="st1" d="M20.4593372,15.0848331c0.211031,0.6330919,0.211031,1.0551567,0.4220638,1.6882496
			s0.2110329,2.3213406,0,2.9544315c0.2110329,0,0.2110329,0,0.6330929-0.2110291
			c0.211031-0.2110329,1.0551567-0.6330929,1.2661877-0.6330929c0.4220657-0.2110329,0.6330929-0.4220657,0.4220657-0.8441257
			c-0.2110329-0.2110329-0.2110329-0.2110329-0.4220657-0.4220638c-0.211031-0.42206-0.4220638-0.84412-0.6330929-1.0551529
			c-0.211031-0.4220638-0.4220638-0.4220638-0.8441238-0.8441248
			C20.8813972,15.2958651,20.6703682,15.2958651,20.4593372,15.0848331z"/>
	</g>
	<g>
		<path class="st1" d="M19.8262444,17.6172066c0,0.4220657,0,0.633091,0,1.0551567
			c-0.211031,0.6330929-0.4220638,1.2661877-0.6330929,1.8992805c-0.211031,0.4220657-0.4220638,0.4220657-0.8441238,0.6330929
			c0,0.4220657,0,0.633091-0.211031,0.8441238c-0.2110329,0.4220657-0.6330929,0.4220657-1.0551586,0.2110329
			c0,0,0.2110329,0,0.2110329,0.2110329c0.8441257,0.4220638,1.6882496,0.8441257,2.1103134,0
			c0.2110291-0.2110329,0.2110291-0.6330929,0.2110291-0.8441238c0.211031-0.2110329,0.633091-1.8992825,0.8441238-2.1103134
			c0.211031-0.2110329,0.211031-2.3213425,0.211031-2.7434025c-0.211031-1.0551567-0.211031-1.6882486-0.6330929-2.7434053
			c-0.633091,0-1.055151,0-1.8992748-0.2110329c0.4220619,0.4220638,0.633091,0.4220638,1.2661839,0.8441248
			C19.4041843,15.5068979,19.6152134,16.7730865,19.8262444,17.6172066z"/>
	</g>
	<g>
		<path class="st1" d="M17.9269638,13.8186445L17.9269638,13.8186445L17.9269638,13.8186445L17.9269638,13.8186445z"/>
	</g>
	<g>
		<path class="st1" d="M16.0276814,19.3054562c-0.6330919,0.8441238-1.4772205,1.4772205-2.3213444,1.8992805l0,0
			c1.0551567-0.4220638,1.8992805-0.8441238,2.7434044-1.6882477v-0.2110329c0-0.2110329,0-0.4220638-0.211031-0.8441257
			c0,0,0,0,0,0.2110329c0-0.2110329,0-0.4220657-0.2110329-0.8441238
			C16.2387142,18.2502975,16.0276814,18.6723633,16.0276814,19.3054562z"/>
	</g>
	<g>
		<path class="st1" d="M13.4953041,22.6819572c-0.2110319,0.6330948-0.2110319,1.0551567-0.6330919,1.4772205
			c0.211031,0.2110329,0.211031,0.4220619,0.4220638,0.4220619c0.2110319,0.4220638-0.4220638,0.8441238-1.0551567,1.0551548
			c0.2110319,0,0.4220648,0,0.6330929-0.211031c0.4220638,0,1.8992815-0.4220638,1.8992815-1.0551529
			c0-0.4220638-0.2110329-0.4220638-0.4220648-0.8441238c0-0.6330929,0-0.6330929,0-1.0551567
			c0-0.4220657,0-0.4220657-0.2110329-0.8441238c-0.2110319-0.4220638-0.6330919-1.2661896-0.8441238-1.4772224l0,0
			c0-0.2110329-0.2110329-0.2110329-0.2110329-0.4220638C13.0732431,20.9937096,13.4953041,21.6268024,13.4953041,22.6819572z"/>
	</g>
	<g>
		<path class="st1" d="M9.485714,17.1951466c0.4220638,0.2110291,0.8441248,0.42206,1.2661886,0.84412
			c0-0.2110329,0-0.4220638,0-0.633091c-0.4220638-0.4220619-0.8441248-0.6330891-1.6882486-0.8441219H8.8526211
			C9.0636539,16.7730865,9.0636539,16.9841137,9.485714,17.1951466z"/>
	</g>
	<g>
		<path class="st1" d="M7.3754005,22.4709263L7.3754005,22.4709263c0.6330919,0.6330929,1.0551567,0.8441257,1.6882486,1.2661877
			c0,0.2110329,0,0.4220638,0,0.6330929c-0.2110319,0.2110329-0.6330919,0.2110329-0.8441248,0.4220657l0,0
			c0.4220657,0.2110271,1.8992815,0.4220581,1.8992815-0.4220657c0-0.2110329,0-0.2110329,0-0.4220638l0,0
			c-1.0551567-0.4220657-2.1103134-1.2661896-2.9544377-1.8992825C7.1643682,22.0488644,7.1643682,22.2598934,7.3754005,22.4709263z
			"/>
	</g>
	<g>
		<path class="st1" d="M3.3658078,16.1399899C3.3658078,16.3510208,3.3658078,16.3510208,3.3658078,16.1399899
			c0,0.211031,0,0.211031,0.2110324,0.211031c0.2110322,0,0.2110322,0,0.2110322,0
			C3.5768402,16.3510208,3.5768402,16.1399899,3.3658078,16.1399899z"/>
	</g>
	<g>
		<path class="st1" d="M5.0540552,18.2502975c0-0.211031,0-0.4220638-0.2110324-0.633091
			c0,0.2110329-0.2110281,0.4220657-0.4220605,0.633091c-0.4220598,0.4220657-0.4220598,0.4220657-1.0551565,0
			c0.2110322-0.633091-0.2110322-0.8441219-0.2110322-1.4772148c-0.21103,0.6330929-0.4220603,0.84412,0,1.4772148l0,0
			c0.2110322,0.2110329,0.4220622,0.4220657,0.6330943,0.4220657C4.2099347,19.0944233,4.6319947,18.6723633,5.0540552,18.2502975
			L5.0540552,18.2502975z"/>
	</g>
	<g>
		<path d="M8.8526211,4.5332704C8.4305573,4.9553328,8.2195292,5.1663647,8.4305573,5.799459
			C8.4305573,5.3773971,8.6415901,5.1663647,8.8526211,4.5332704z"/>
	</g>
	<g>
		<path d="M1.2554967,18.2502975c-0.2110323-0.633091-0.2110323-0.8441219,0-1.4772148
			C0.8334344,17.6172066,0.8334344,17.6172066,1.2554967,18.2502975z"/>
	</g>
	<g>
		<path d="M2.0996213,19.0944233c-0.6330945-1.2661896-0.6330945-1.6882477-0.2110323-3.1654663
			C1.0444646,17.1951466,1.0444646,17.6172066,2.0996213,19.0944233z"/>
	</g>
	<g>
		<path d="M9.6967459,3.9001782c-1.0551558,1.0551565-1.2661886,1.2661889-0.8441248,2.954438
			C8.8526211,5.5884275,9.0636539,4.9553347,9.6967459,3.9001782z"/>
	</g>
	<g>
		<path d="M10.5408697,9.1759615c0-0.2110319,0-0.2110319,0.2110329-0.4220648c0,0.6330929,0,0.8441248,0.6330919,1.2661858
			c-0.211031-0.6330929-0.211031-1.0551529-0.211031-1.6882458c0.211031-0.2110319,0.6330919-0.6330919,0.8441238-0.8441238
			c0,0,0,0,0-0.2110324c-0.4220648,0.2110324-0.8441238,0.6330924-1.2661886,0.8441243s-0.4220648,0.2110319-0.6330929,0.8441248
			c-0.2110319,0.6330919,0.2110329,2.1103096,0.4220638,2.9544334l0,0
			C10.5408697,11.2862701,10.3298388,9.5980215,10.5408697,9.1759615z"/>
	</g>
	<g>
		<g>
			<path class="st0" d="M7.3754005,22.4709263L7.3754005,22.4709263c0,0.4220638-0.2110324,0.8441257-0.2110324,1.0551548
				c0,0.2110329,0,0.4220657,0,0.6330929c0.2110324,0.2110329,0.6330919,0.6330929,1.0551562,0.6330929
				c0.4220657,0.2110329,1.8992815,0.42206,1.8992815-0.4220638c0-0.2110329,0-0.2110329,0-0.4220657
				c-1.0551567-0.4220638-2.1103134-1.2661877-2.9544377-2.1103134C7.1643682,22.0488644,7.1643682,22.2598934,7.3754005,22.4709263
				z"/>
		</g>
		<g>
			<path class="st0" d="M21.0924301,3.6891479C21.0924301,3.6891479,21.0924301,3.478116,21.0924301,3.6891479
				C21.0924301,3.478116,20.8813972,3.478116,21.0924301,3.6891479c-0.2110329-0.2110319-0.2110329-0.2110319-0.2110329,0
				C20.8813972,3.478116,21.0924301,3.478116,21.0924301,3.6891479z"/>
		</g>
		<g>
			<path class="st0" d="M26.1571808,4.7443023c-0.4220657-1.0551543-1.6882496-2.7434056-2.7434063-3.5875299
				c0,0-0.211031-0.2110322-0.4220638-0.2110322s-0.4220638,0-0.4220638,0.2110322c0,0.4220623,0,0.8441243-0.2110329,1.2661891
				c-0.2110329,0.6330943-0.8441257,0.8441243-0.4220657,1.4772167c0.4220657,0.4220622,0.6330929,0.8441241,0.8441257,1.4772189
				c0.2110329,0.4220619,0.4220657,1.0551548,0.4220657,1.4772191c0-0.2110324-0.4220657-1.0551572-0.6330929-1.4772191
				c0-0.2110324-0.2110329-0.4220624-0.4220657-0.8441243h-0.2110329c-0.211031,0.2110319-0.4220638,0.6330943-0.4220638,0.8441243
				c0,0.6330943,0.2110329,1.0551548,0.2110329,1.4772191c0-0.6330929-0.4220657-1.0551572-0.6330929-1.4772191
				c0-0.2110324,0-0.4220624,0.2110329-0.6330948c-0.2110329,0-0.2110329,0.2110324-0.2110329,0.2110324
				c-0.6330929,0.6330948-0.211031,1.0551567-0.4220638,1.6882491c0-0.8441248-0.42206-1.2661886,0.2110329-1.8992815
				c0.211031-0.2110319,0.4220638-0.4220619,0.633091-0.4220619l0,0h0.2110329
				c-0.2110329-0.2110324-0.2110329-0.2110324-0.2110329-0.4220622c-0.4220657,0.2110322-0.633091,0.2110322-0.8441238,0.4220622
				l-0.2110291,0.2110324l0,0V4.3222404l0.2110291-0.2110324l0,0c0-0.2110298-0.2110291-0.2110298-0.42206-0.2110298
				c-0.2110329,0-0.2110329,0.2110298-0.2110329,0.4220603l0,0c-0.2110329,0-0.2110329-0.2110305-0.2110329-0.2110305
				c0-0.2110322,0-0.2110322,0-0.2110322l0,0c0,0-0.2110329,0.2110322-0.4220638,0.2110322
				c0.211031-0.2110322,0.4220638-0.4220622,0.4220638-0.6330943c0,0,0-0.2110322,0.2110329-0.2110322h0.2110329h0.211031
				c0,0,0.2110291,0,0.4220619,0c-0.4220619-0.2110322-0.6330891-0.4220622-1.0551548-0.6330945
				c-0.4220619-0.2110322-0.633091-0.2110322-1.0551548-0.2110322H18.560051
				c-0.2110329,0.2110322-0.6330929,0.2110322-0.6330929,0.4220622c0.2110329-0.2110322,0.2110329-0.2110322,0.4220638-0.4220622
				c-0.633091,0-1.2661877-0.2110322-1.8992805-0.2110322c-0.4220638,0-0.8441238-0.2110322-1.0551558-0.2110322
				c-0.8441248,0-1.6882486,0.2110322-2.3213463,0.6330943c-0.6330919,0.4220624-1.2661839,1.0551567-1.8992758,1.8992813
				c-0.6330938,0.8441224-0.6330938,1.4772167-0.8441248,2.3213415c0.6330919-0.2110324,1.0551558-0.6330929,1.4772205-1.0551572
				c0,0,0,0-0.2110319,0.2110324c-0.4220638,0.4220643-0.8441248,0.8441248-1.2661886,1.0551572
				C10.1188059,7.2766719,9.907774,7.2766719,9.907774,7.4877043C9.6967421,7.6987362,9.4857092,7.9097681,9.4857092,8.3318281
				c-0.4220638,1.2661896-0.6330919,2.7434015-0.8441248,4.0095911c-0.2110319,0.8441238,0,1.4772205,0,2.1103134
				c0,0.6330919,0.2110329,0.8441248,0.8441248,1.0551558c0.2110329,0,0.2110329,0,0.2110329,0.2110329
				c0.4220638,0.2110319,0.8441238,0.4220648,1.0551567,0.6330919c0-0.8441248,0.2110319-1.6882496,0.4220648-2.5323772
				c0,0.8441238,0,1.6882486,0,2.5323772c0,0.6330929,0,0.8441257,0.211031,1.2661896
				c0.6330929,0.211031,1.0551529,0.42206,1.4772177,0.211031c0.4220638-0.211031,0.8441248-0.4220638,1.0551567-0.8441238
				c0.6330919-1.0551567,1.0551558-2.1103134,2.1103125-2.7434053c0-1.2661896-0.8441238-2.3213463-1.6882486-3.1654711
				c-0.6330919-0.8441238-1.0551567-1.4772158-1.2661896-2.5323725c0,0.2110319,0,0.2110319,0.2110329,0.2110319
				c0.4220648,0.6330919,1.0551567,1.4772167,1.4772215,2.1103096c0.8441248,1.0551558,1.6882477,2.1103125,1.8992805,3.587534
				c-1.0551558,0.6330919-1.6882486,1.8992805-2.3213453,2.9544392c-0.2110319,0.4220581-0.6330919,0.6330872-1.2661896,0.8441181
				c-0.211031,0-0.4220638,0-0.6330919,0c-0.4220591,0-0.8441191-0.211031-1.4772167-0.211031
				c0-0.2110291-0.2110319-0.42206-0.2110319-0.6330872c0-0.2110329,0-0.4220657,0-0.6330929
				c-0.4220638-0.4220657-0.8441248-0.6330929-1.6882486-0.8441257H8.8526211
				c-0.6330919-0.4220638-0.8441238-0.6330919-0.8441238-1.4772205c0-0.6330919,0-1.0551567,0-1.6882486
				c0-0.2110329,0-0.2110329,0-0.4220648c0.2110319-0.8441248,0.2110319-1.4772205,0.4220638-2.1103134
				c-1.4772205,1.2661886-2.3213453,2.1103134-2.7434053,3.798562c-0.4220643,1.2661896-0.4220643,2.3213453-0.2110324,3.5875311
				c0.2110324,0.8441238,0.4220648,1.4772205,1.2661891,2.5323772c0.4220643,0.6330929,1.0551567,1.2661896,1.6882486,1.6882477
				c0.8441248,0.6330948,1.4772215,1.0551586,2.3213453,1.4772243c0.2110329,0.8441219,0.4220648,1.2661877,0.6330929,1.8992748
				c0,0.4220638,0.6330929,0.4220638,1.0551519,0.4220638c0.2110329,0,0.4220648,0,0.6330919-0.211031
				c0.4220648,0,1.8992815-0.42206,1.8992815-1.0551529c0-0.4220638-0.211031-0.6330929-0.4220638-0.8441257
				c0-0.633091,0-0.633091,0-1.0551548c0-0.4220657,0-0.6330929-0.2110319-0.8441238
				c-0.2110329-0.4220657-0.8441248-1.2661896-0.8441248-1.4772224c0.2110329,0.2110329,0.4220648,0.4220638,0.6330919,0.8441257
				l0,0c1.0551567-0.4220657,1.8992815-0.8441257,2.7434072-1.6882496v-0.2110329c0-0.211031,0-0.6330929-0.2110329-0.8441257
				c0,0,0,0,0,0.2110329s0.2110329,0.4220657,0.2110329,0.6330929c0.211031,0.2110329,0.211031,0.4220657,0.4220638,0.633091
				c0,0.2110329,0.2110329,0.2110329,0.2110329,0.4220657c-0.2110329,0-0.2110329-0.2110329-0.4220657-0.2110329
				c-0.211031,0.4220657-0.4220638,0.8441257-0.6330929,1.2661896c-0.211031,0.4220657,0.4220657,0.8441238,0.8441257,1.0551567
				L17.5049,22.4709263c0.8441219,0.4220638,1.6882477,0.8441257,2.1103134,0
				c0.211031-0.2110329,0.211031-0.6330929,0.211031-0.8441238c0.2110271-0.2110329,0.6330872-1.8992825,0.84412-2.1103134
				c0.2110329-0.2110329,0.2110329-2.3213425,0.2110329-2.7434025c-0.2110329-1.0551567-0.2110329-1.6882486-0.6330929-2.7434053
				c-0.633091,0-1.0551529,0-1.8992767-0.2110329l0,0c0.8441238,0,1.4772167,0,2.3213406-0.2110319
				c0.4220657,0,0.6330929,0.2110319,1.0551567,0.2110319c0.4220638,0.2110329,1.0551567,0.2110329,1.4772224,0
				c0.2110329,0,0.2110329-0.2110319,0.2110329-0.2110319c0.4220619-0.4220648,0.633091-0.8441248,0.4220619-1.4772205
				c0-0.2110329-0.211031-0.4220648-0.211031-0.6330929c-0.211031,0-0.211031,0-0.4220638,0.2110319
				c0,0.4220648,0,0.4220648,0.2110329,0.6330919c0.211031,0.4220648-0.2110329,0.8441248-0.8441257,1.0551567
				c-0.2110329,0-0.4220657,0-0.4220657,0c0.2110329,0.2110329,0.2110329,0.2110329,0.4220657,0
				c0.2110329,0,0.4220638-0.2110319,0.6330929-0.4220638c-0.2110329,0.2110319-0.2110329,0.2110319-0.2110329,0.4220638
				c0,0-0.2110329,0.2110329-0.4220638,0.2110329c-0.8441257,0.2110319-1.0551567-0.6330919-1.0551567-1.2661896
				c0-0.4220638-0.2110329-0.6330919-0.6330929-1.0551567c0.2110329,0,0.4220638,0,0.8441238,0h0.2110329
				c1.6882477-0.4220638,3.5875359-0.8441248,4.4316597-2.3213406C26.7902775,7.9097729,26.5792446,6.2215233,26.1571808,4.7443023z
				"/>
		</g>
		<g>
			<path class="st0" d="M20.4593372,15.0848331c0.211031,0.6330919,0.211031,1.0551567,0.4220638,1.6882496
				s0.2110329,2.3213406,0,2.9544315c0.2110329,0,0.2110329,0,0.6330929-0.2110291
				c0.211031,0,1.0551567-0.6330929,1.2661877-0.6330929c0.4220657-0.2110329,0.6330929-0.4220657,0.4220657-0.8441257
				c-0.2110329-0.2110329-0.2110329-0.2110329-0.4220657-0.4220638c-0.211031-0.42206-0.4220638-0.84412-0.6330929-1.0551529
				c-0.211031-0.4220638-0.4220638-0.4220638-0.8441238-0.8441248
				C20.8813972,15.5068979,20.6703682,15.2958651,20.4593372,15.0848331z"/>
		</g>
		<g>
			<path class="st0" d="M4.8430266,18.2502975c0-0.211031,0-0.4220638-0.2110319-0.633091
				c-0.2110276,0.2110329-0.2110276,0.4220657-0.42206,0.633091c-0.4220624,0.4220657-0.4220624,0.4220657-1.0551567,0
				c0.2110322-0.633091-0.2110324-0.8441219-0.2110324-1.4772148v-0.2110329c0-0.2110329,0-0.2110329,0-0.4220638
				c-0.2110322,0.6330929-0.6330924,1.8992767,0.2110324,2.3213406l0,0
				c0.2110322,0.2110329,0.4220622,0.4220657,0.6330943,0.4220657C4.2099347,19.0944233,4.6319947,18.6723633,4.8430266,18.2502975
				C4.8430266,18.2502975,5.0540552,18.2502975,4.8430266,18.2502975z"/>
		</g>
		<g>
			<path class="st0" d="M3.3658078,16.1399899C3.3658078,16.3510208,3.3658078,16.3510208,3.3658078,16.1399899
				c0,0.211031,0,0.211031,0,0.4220638h0.2110324C3.7878702,16.3510208,3.5768402,16.1399899,3.3658078,16.1399899z"/>
		</g>
		<g>
			<path class="st0" d="M26.7902775,9.1759615C26.7902775,9.1759615,26.7902775,9.3869896,26.7902775,9.1759615
				C26.7902775,9.3869896,26.7902775,9.1759615,26.7902775,9.1759615z"/>
		</g>
		<g>
			<path d="M20.8813972,14.8738003L20.8813972,14.8738003L20.8813972,14.8738003
				C21.0924301,14.8738003,21.0924301,14.8738003,20.8813972,14.8738003L20.8813972,14.8738003z"/>
		</g>
		<g>
			<path d="M26.7902775,9.1759615c0.2110329-0.2110319,0.2110329-0.4220648,0.4220581-0.8441248
				c0.6330929-1.899281-0.4220581-3.376502-1.055151-4.6426888c-0.4220657-0.6330922-1.0551567-1.6882489-2.1103134-2.5323734
				c-0.2110329-0.2110322-0.2110329-0.2110322-0.4220657-0.4220623h-0.211031c-0.211031,0-0.4220638,0-0.6330929,0
				c-0.211031,0-0.4220638,0.2110323-0.6330929,0.4220623c0,0,0,0,0,0.2110322s0,0.4220624,0,0.6330944
				s0,0.4220622-0.211031,0.6330943c0,0.2110324-0.2110329,0.4220622-0.4220638,0.6330945
				c-0.2110329-0.2110324-0.4220638-0.2110324-0.6330929-0.4220622c-0.2110329-0.2110324-0.4220638-0.2110324-0.8441257-0.4220622
				c-0.211031,0-0.4220619,0-0.633091-0.2110324c-0.2110291,0-0.42206,0-0.6330891,0
				c-0.633091,0-1.0551548-0.2110322-1.6882477-0.2110322c-0.2110329,0-0.4220657,0-0.8441257-0.2110322
				c-1.2661877-0.2110323-2.3213444,0-3.1654692,0.4220622s-1.6882486,1.2661867-2.5323734,2.3213437
				c-0.4220648,0.4220619-0.6330919,1.0551567-0.8441248,1.477221C9.4857225,6.4325604,9.4857225,7.0656524,9.4857225,7.6987448
				c-0.2110329,0-0.2110329,0.2110324-0.4220648,0.4220648C8.8526258,8.3318415,8.8526258,8.5428734,8.6415939,8.7539015
				c0,0.2110319-0.2110329,0.42206-0.2110329,0.6330881c0,0.2110319,0,0.4220638-0.2110319,0.6330929
				c-0.8441243,0.6330919-1.6882491,1.2661877-2.1103134,2.1103134c-0.6330924,0.6330919-1.0551567,1.4772205-1.2661891,2.5323772
				c-0.2110319,0.4220648-0.2110319,0.8441248-0.2110319,1.2661896c0,0.4220638,0,0.8441238,0,1.055151
				c0,0.2110329-0.2110276,0.4220657-0.2110276,0.6330929c0,0.2110329-0.2110324,0.4220657-0.2110324,0.633091v0.2110329l0,0
				c0-0.4220638,0-0.633091-0.2110322-1.0551548h0.2110322h0.2110324l0.2110276,0.211031v-0.211031
				c0-0.2110291-0.2110276-0.6330891-0.42206-0.8441219c-0.2110322-0.2110329-0.2110322-0.2110329-0.4220624-0.2110329
				c0,0,0,0,0-0.211031V15.928957v-0.2110319L3.5768402,15.928957c-0.2110324,0.2110329-0.6330945,0.8441257-0.8441246,1.4772186
				c0,0.211031,0,0.4220638,0,0.8441219c0,0.2110329,0,0.4220657,0.2110324,0.6330948
				c0.2110322,0.211031,0.2110322,0.211031,0.6330943,0.4220638l0.2110322,0.2110329l0.2110324,0.211031
				c0.2110322,0.211031,0.6330922,0.211031,0.8441246,0.211031s0.4220643-0.211031,0.6330919-0.4220619
				c0,0.211031,0.2110324,0.4220619,0.4220648,0.8441238C6.10922,20.7826767,6.3202524,20.9937057,6.53128,21.4157696
				c0,0.2110329,0.2110324,0.2110329,0.2110324,0.2110329c0,0.211031,0.2110319,0.211031,0.2110319,0.211031
				c0,0.211031,0,0.211031,0,0.4220638s0,0.4220657,0,0.6330929c0,0.2110329,0,0.4220657-0.2110319,0.633091
				c0,0.2110329,0,0.4220657-0.2110324,0.6330929c0,0,0,0,0,0.2110329c0,0.4220657-0.2110324,0.4220657,0.2110324,0.84412
				c0.2110319,0.2110329,0.4220643,0.4220638,0.6330924,0.6330929c0.2110324,0.2110329,0.6330924,0.2110329,0.8441243,0.4220638
				c0.4220648,0,1.0551567,0.2110329,1.4772215,0.2110329c0.2110319,0,0.6330919-0.2110329,0.8441248-0.4220638c0,0,0,0,0,0.211031
				c0,0.2110329,0,0.2110329,0,0.4220657c0,0.8441238,0.6330919,1.0551548,1.2661839,0.8441238
				c0.2110329,0,0.6330919-0.2110329,0.8441248-0.2110329h0.2110319c0.4220648-0.2110329,1.0551567-0.2110329,1.4772205-0.4220657
				c0.6330929-0.2110291,1.0551567-0.633091,0.8441248-1.2661877c0-0.2110271-0.2110319-0.42206-0.2110319-0.6330872
				c0-0.2110329-0.2110319-0.2110329-0.2110319-0.4220638c0-0.4220657,0-0.6330929,0-0.8441257c0,0,0,0,0-0.2110329
				s0-0.4220619,0-0.633091c0-0.2110329-0.2110329-0.2110329-0.4220648-0.4220638c0,0,0,0,0-0.2110329
				c0.4220648-0.2110329,0.6330919-0.2110329,1.0551567-0.4220657c0.2110329,0,0.4220648-0.211031,0.4220648-0.211031
				s0,0,0,0.211031l0,0c-0.2110319,0.4220657,0,0.8441257,0.2110329,1.2661915
				c0.4220638,0.4220619,0.8441238,0.633091,1.0551567,0.633091c0.633091,0.211031,1.0551567,0.6330929,1.6882477,0.6330929
				c0.6330929,0,1.0551529-0.2110329,1.2661839-0.8441257c0.2110329-0.2110329,0.2110329-0.633091,0.2110329-0.8441238v-0.2110329
				c0-0.211031,0.2110329-0.6330929,0.4220638-1.0551567c0-0.2110329,0.2110329-0.2110329,0.2110329-0.4220657
				c0.2110329,0,0.2110329,0,0.4220657,0c0.211031,0,0.4220638-0.2110291,0.6330929-0.2110291
				s0.633091-0.4220657,1.0551548-0.6330929c0.2110329,0,0.2110329,0,0.2110329-0.2110329
				c0.4220638-0.2110329,0.633091-0.4220657,0.633091-0.6330929c0.2110329-0.211031,0.2110329-0.633091,0-1.0551529
				c0-0.211031-0.211031-0.211031-0.211031-0.4220638c0,0-0.211031-0.2110329-0.4220638-0.2110329
				c0-0.211031-0.2110329-0.4220619-0.2110329-0.633091c0-0.2110329-0.2110329-0.4220638-0.2110329-0.6330929
				c-0.211031-0.2110329-0.211031-0.4220638-0.4220638-0.4220638c0,0-0.2110329-0.2110329-0.4220657-0.2110329
				c-0.211031,0-0.211031-0.2110319-0.4220638-0.2110319l0,0l0,0v-0.2110329l0,0l0,0
				c-0.211031-0.211031-0.4220638-0.211031-0.633091-0.4220638c0,0,0,0,0-0.2110319c0.2110329,0,0.2110329,0,0.2110329,0
				l0.4220638,0.2110319c0.4220638,0,0.633091,0.2110329,0.8441238,0.2110329c0.4220638,0,0.6330929,0,1.0551567-0.2110329
				c0.4220638-0.2110319,0.6330929-0.6330929,0.8441238-1.0551567c0.2110329-0.4220648,0.2110329-0.8441238,0.2110329-1.2661886
				c0-0.2110329,0-0.2110329,0-0.4220638v-0.2110329c0.6330929-0.2110281,1.0551567-0.42206,1.6882496-0.84412
				c0.4220638-0.2110329,0.8441257-0.6330919,1.0551548-1.2661896C26.5792446,9.3869896,26.5792446,9.3869896,26.7902775,9.1759615
				C26.7902775,9.3869896,26.7902775,9.1759615,26.7902775,9.1759615z M3.3658078,16.3510208L3.3658078,16.3510208
				c0.2110324-0.211031,0.2110324,0,0.4220624,0.2110329C3.5768402,16.5620537,3.5768402,16.3510208,3.3658078,16.3510208
				C3.3658078,16.5620537,3.3658078,16.3510208,3.3658078,16.3510208z M3.7878702,18.6723633
				c-0.2110322-0.2110329-0.4220624-0.2110329-0.6330943-0.4220657l0,0
				c-0.8441226-0.4220638-0.4220624-1.6882439-0.2110322-2.3213406c0,0.2110329,0,0.4220638,0,0.4220638v0.2110329
				c0.2110322,0.42206,0.6330943,0.8441219,0.2110322,1.4772186c0.4220622,0.4220619,0.6330943,0.4220619,1.0551589,0
				c0.2110324-0.2110329,0.2110324-0.4220657,0.42206-0.6330929c0,0.211031,0,0.4220638,0.2110319,0.6330929c0,0,0,0,0,0.211031
				C4.6319947,18.6723633,4.2099347,19.0944233,3.7878702,18.6723633z M10.1188107,24.3702068
				c0,0.84412-1.4772205,0.6330929-1.8992815,0.4220657c-0.4220643-0.2110329-0.8441243-0.4220657-1.0551562-0.6330948
				c-0.2110324-0.211031-0.2110324-0.211031,0-0.633091c0-0.4220638,0.2110319-0.6330929,0.2110319-1.0551567l0,0
				c0-0.2110329,0-0.4220657,0-0.633091c0.8441243,0.8441238,1.899281,1.4772205,2.9544377,2.1103115
				C10.1188107,24.1591778,10.1188107,24.1591778,10.1188107,24.3702068z M21.7255249,16.3510208
				c0.2110329,0.4220657,0.4220638,0.8441257,0.6330929,1.0551548c0.2110329,0.211031,0.2110329,0.211031,0.4220638,0.4220638
				c0.2110329,0.4220638,0,0.633091-0.4220638,0.8441238c-0.2110329,0.2110329-1.0551567,0.6330929-1.2661877,0.6330929
				c-0.2110329,0.2110329-0.4220657,0.2110329-0.6330929,0.2110329c0.211031-0.6330929,0.211031-2.3213425,0-2.9544353
				c-0.2110329-0.633091-0.2110329-1.0551558-0.4220657-1.6882486c0.2110329,0.2110329,0.4220657,0.4220638,0.4220657,0.4220638
				C21.3034611,15.7179298,21.5144939,15.928957,21.7255249,16.3510208z M21.7255249,11.2862701h-0.211031
				c-0.2110329,0-0.4220638,0-0.8441257,0c0.2110329,0.2110329,0.4220657,0.6330929,0.6330929,1.0551567
				c0.2110329,0.6330929,0.4220638,1.4772215,1.0551567,1.2661896c0.2110329,0,0.2110329-0.2110329,0.4220638-0.2110329
				c0,0,0.2110329-0.2110319,0.2110329-0.4220638c-0.2110329,0.2110319-0.4220638,0.2110319-0.6330929,0.4220638
				c-0.2110329,0-0.4220638,0-0.4220638,0s0.211031,0,0.4220638,0c0.6330929-0.2110319,0.8441257-0.6330919,0.8441257-1.0551567
				c0-0.211031-0.2110329-0.4220638-0.2110329-0.6330919c0.2110329,0,0.2110329,0,0.4220657-0.2110319
				c0,0.2110319,0.211031,0.4220648,0.211031,0.6330929c0,0.4220638,0,1.0551558-0.4220638,1.4772205l-0.2110329,0.2110319
				c-0.4220638,0.2110329-1.0551567,0.2110329-1.4772205,0c-0.4220638,0-0.6330929-0.2110319-1.0551567-0.2110319
				c-0.8441238,0.2110319-1.4772167,0.2110319-2.3213406,0.2110319l0,0c0.633091,0.2110329,1.0551548,0.4220638,1.8992748,0.2110329
				c0.4220657,0.8441238,0.4220657,1.6882486,0.6330929,2.7434053c0.2110329,0.42206,0,2.5323734-0.2110329,2.7434025
				c-0.2110271,0.211031-0.6330872,1.8992805-0.8441181,2.1103134c0,0.211031,0,0.633091-0.2110329,0.8441238
				c-0.4220657,0.8441257-1.4772224,0.4220638-2.1103134,0c0,0-0.2110329,0-0.2110329-0.2110329
				c-0.4220638-0.2110329-1.0551567-0.633091-0.8441238-1.0551567c0.211031-0.4220638,0.4220638-0.6330929,0.6330929-1.2661896
				c0.211031,0,0.211031,0.2110329,0.4220638,0.2110329c0-0.2110329-0.2110329-0.2110329-0.2110329-0.4220657
				c-0.211031-0.2110291-0.211031-0.4220619-0.4220638-0.633091c0-0.211031-0.2110329-0.4220638-0.2110329-0.6330929
				c0,0,0,0,0-0.2110329c0,0.2110329,0,0.4220657,0.2110329,0.8441257v0.2110329
				c-0.8441248,0.633091-1.6882496,1.2661877-2.7434063,1.6882496l0,0
				c-0.2110329-0.2110329-0.4220638-0.6330929-0.6330919-0.8441257c0.2110319,0.2110329,0.6330919,1.0551567,0.8441238,1.4772224
				c0.2110329,0.4220619,0.2110329,0.4220619,0.2110329,0.8441238c0,0.4220638,0,0.4220638,0,1.0551548
				c0.2110319,0.2110329,0.4220648,0.4220657,0.4220648,0.8441257c0.211031,0.6330929-1.4772215,0.84412-1.8992815,1.0551529
				c-0.2110329,0-0.4220648,0.211031-0.6330929,0.211031c-0.42206,0-1.0551519,0.2110329-1.0551519-0.4220638
				c0-0.6330872-0.2110329-1.2661839-0.6330919-1.8992748c-0.6330929-0.4220657-1.4772215-0.8441257-2.3213463-1.4772243
				C7.5864372,21.4157639,6.9533405,20.7826729,6.53128,20.14958c-0.6330919-1.0551567-1.0551567-1.6882496-1.2661886-2.5323772
				C5.054059,16.351017,5.054059,15.2958612,5.4761233,14.0296717c0.6330924-1.6882486,1.2661891-2.5323772,2.7434058-3.798562
				c-0.2110319,0.6330929-0.2110319,1.2661886-0.4220643,2.1103134c0,0.2110319,0,0.2110319,0,0.4220648
				c0,0.6330919,0,1.0551567,0,1.6882486c0,0.8441248,0.2110324,1.2661886,0.8441253,1.4772205h0.211031
				c0.8441248,0.4220638,1.0551567,0.4220638,1.6882486,0.8441257c0,0.211031,0,0.4220638,0,0.6330929
				c0,0.2110271,0.2110329,0.4220581,0.2110329,0.6330872c0.6330919,0.211031,1.0551567,0.211031,1.4772167,0.211031
				c0.2110319,0,0.4220648,0,0.6330929,0c0.6330919-0.211031,1.0551567-0.42206,1.2661886-0.8441181
				c0.6330929-1.0551586,1.2661886-2.3213472,2.3213444-2.9544392c-0.211031-1.4772215-0.8441229-2.5323782-1.8992805-3.587534
				c-0.6330919-0.6330929-1.0551567-1.2661848-1.4772215-2.1103096c0,0,0-0.2110319-0.211031-0.2110319
				c0.211031,1.0551567,0.6330919,1.8992767,1.2661886,2.5323725c0.8441238,1.0551577,1.6882486,2.1103144,1.6882486,3.1654711
				c-0.8441248,0.6330919-1.4772205,1.6882486-2.1103125,2.7434053c-0.2110329,0.4220657-0.6330938,0.6330929-1.0551577,0.8441238
				c-0.42206,0.2110291-0.84412,0-1.4772158-0.211031c-0.2110329-0.4220638-0.2110329-0.6330929-0.2110329-1.2661896
				c0-0.8441248,0-1.6882496,0-2.5323772c-0.2110319,0.8441238-0.4220648,1.6882486-0.4220648,2.5323772
				c-0.4220648-0.2110329-0.6330919-0.4220638-1.0551567-0.6330919c0,0-0.2110319,0-0.2110319-0.2110329
				c-0.6330929-0.211031-0.8441248-0.4220638-0.8441248-1.0551558c0-0.6330929-0.2110319-1.2661896,0-2.1103134
				c0.2110319-1.2661896,0.4220648-2.7434015,0.8441248-4.0095911c0.2110319-0.4220638,0.2110319-0.6330919,0.4220648-0.8441238
				C9.907774,7.2766719,9.907774,7.2766719,10.1188059,7.06564c0.4220638-0.4220648,0.8441248-0.8441253,1.2661886-1.0551572
				l0.2110329-0.2110324c-0.6330929,0.4220643-1.0551577,0.6330929-1.4772215,1.0551572
				c0.2110329-1.0551572,0.2110329-1.4772191,0.8441248-2.3213439s1.2661886-1.4772186,1.8992767-1.899281
				c0.6330929-0.4220622,1.4772215-0.6330943,2.3213453-0.6330943c0.4220648,0,0.6330929,0,1.0551577,0.2110322
				C16.8718033,2.4229527,17.5049,2.4229527,18.137991,2.4229527c-0.2110329,0-0.2110329,0.2110322-0.4220638,0.4220624
				c0.211031-0.2110324,0.4220638-0.2110324,0.633091-0.4220624h0.2110329c0.4220638,0,0.6330929,0,1.0551586,0.2110322
				c0.4220619,0.2110322,0.633091,0.4220624,1.055151,0.6330945c-0.2110291,0-0.2110291,0-0.42206,0h-0.2110329h-0.2110329
				L19.615202,3.4781115C19.404171,3.6891437,19.19314,3.9001739,19.19314,4.1112061
				c0.211031,0,0.211031-0.2110322,0.4220619-0.2110322l0,0v0.2110322c0,0.21103,0.2110329,0.21103,0.2110329,0.21103l0,0
				c0-0.21103,0-0.4220603,0.2110329-0.4220603s0.4220638,0,0.4220638,0.2110322l0,0l-0.211031,0.2110305c0,0,0,0,0,0.2110319l0,0
				l0.211031-0.2110319c0.2110291-0.2110305,0.6330872-0.4220603,0.84412-0.4220603c0,0,0.2110329,0.2110298,0.2110329,0.4220603
				h-0.2110329l0,0c-0.2110329,0-0.4220581,0-0.633091,0.4220619c-0.8441219,0.6330948-0.2110291,1.0551567-0.2110291,1.8992834
				c0-0.6330924-0.211031-1.2661886,0.4220619-1.688251c0.211031-0.2110324,0.211031-0.2110324,0.211031-0.2110324
				c-0.211031,0.2110324-0.211031,0.4220624-0.211031,0.6330948c0.211031,0.6330919,0.4220638,1.0551567,0.633091,1.477221
				c0-0.6330929-0.2110329-1.0551572-0.2110329-1.4772191c0-0.2110324,0.2110329-0.6330948,0.4220657-0.8441243h0.211031
				c0.2110329,0.2110319,0.4220657,0.4220619,0.4220657,0.8441243c0.2110329,0.4220619,0.4220638,1.0551548,0.6330929,1.4772191
				c0-0.4220643-0.2110329-1.0551572-0.4220657-1.4772191c-0.211031-0.4220624-0.4220638-1.0551567-0.8441238-1.4772189
				c-0.4220657-0.6330924,0.211031-0.8441224,0.4220638-1.4772167c0.2110329-0.4220624,0.2110329-0.8441247,0.2110329-1.2661891
				c0-0.2110322,0.2110329-0.2110322,0.4220638-0.2110322c0.2110329,0,0.4220657,0,0.4220657,0.2110322
				c1.0551548,0.8441243,2.3213444,2.3213456,2.7434044,3.5875299c0.4220638,1.2661891,0.6330929,2.9544382,0,4.2206273
				C25.1020241,10.6531744,23.4137745,11.0752392,21.7255249,11.2862701z M21.0924301,3.478116
				C21.0924301,3.478116,21.0924301,3.6891479,21.0924301,3.478116h-0.2110329
				C20.8813972,3.478116,20.8813972,3.478116,21.0924301,3.478116C20.8813972,3.478116,21.0924301,3.478116,21.0924301,3.478116z"/>
		</g>
		<g>
			<path d="M26.5792446,9.3869896L26.5792446,9.3869896L26.5792446,9.3869896L26.5792446,9.3869896z"/>
		</g>
	</g>
</g>
</svg>
