<?xml version="1.0" encoding="utf-8"?>
<!-- Generator: Adobe Illustrator 25.4.1, SVG Export Plug-In . SVG Version: 6.00 Build 0)  -->
<svg version="1.1" id="图层_1" xmlns="http://www.w3.org/2000/svg" xmlns:xlink="http://www.w3.org/1999/xlink" x="0px" y="0px"
	 viewBox="0 0 28.3465004 28.3465004" style="enable-background:new 0 0 28.3465004 28.3465004;" xml:space="preserve">
<style type="text/css">
	.st0{opacity:0.4;}
	.st1{fill:#6DC6C6;}
	.st2{opacity:0.2;}
	.st3{fill:#2B858B;}
</style>
<g>
	<g class="st0">
		<path class="st1" d="M21.037941,6.4245462L18.0318565,6.426075c-0.3597908,0.0001826-0.6543159-0.2940421-0.6544991-0.6538334
			l-0.0013351-2.6253755c-0.0000172-0.0328426,0.0387955-0.0502698,0.0633297-0.0284357l3.6280098,3.2287438
			C21.097765,6.3742313,21.07864,6.4245253,21.037941,6.4245462z"/>
	</g>
	<g>
		<g class="st2">
			<path class="st1" d="M3.8519888,17.5834827v-6.9313316c0-0.6102142,0.4946756-1.1048899,1.1048889-1.1048899h2.0693774v8.0362215
				"/>
		</g>
		<g class="st2">
			<path class="st1" d="M24.4863873,17.5834827v-6.9313316c0-0.6102142-0.4946747-1.1048899-1.1048889-1.1048899h-2.0693779
				v8.0362215"/>
		</g>
		<g>
			<path class="st3" d="M24.4434471,18.1698895c-0.2587833,0-0.4687119-0.2099266-0.4687119-0.4687099v-7.1497526
				c0-0.2301579-0.1877899-0.4175653-0.4175644-0.4175653H21.357893c-0.2587833,0-0.4687119-0.2099276-0.4687119-0.4690933
				c0-0.2591648,0.2099285-0.4690924,0.4687119-0.4690924h2.1992779c0.7473412,0,1.3549862,0.608408,1.3549862,1.355751v7.1497526
				C24.9121571,17.9599628,24.7022305,18.1698895,24.4434471,18.1698895z"/>
		</g>
		<g>
			<path class="st3" d="M3.901839,18.1698895c-0.2591653,0-0.4690928-0.2099266-0.4690928-0.4687099v-7.1497526
				c0-0.7473431,0.6080267-1.355751,1.3553689-1.355751h2.1992784c0.2587833,0,0.4687109,0.2099276,0.4687109,0.4690924
				c0,0.2591658-0.2099276,0.4690933-0.4687109,0.4690933H4.788115c-0.2301569,0-0.4171834,0.1874075-0.4171834,0.4175653v7.1497526
				C4.3709316,17.9599628,4.1610041,18.1698895,3.901839,18.1698895z"/>
		</g>
	</g>
	<g>
		<g>
			<g>
				<g>
					<path class="st3" d="M21.357893,18.361496c-0.2587833,0-0.4687119-0.2099266-0.4687119-0.4687099V6.8734946
						c0-0.0351152-0.0137405-0.0675583-0.037405-0.0916047l-3.816103-3.3947203
						c-0.0442753-0.0431306-0.0771008-0.0564895-0.112215-0.0564895H8.159934c-0.3877931,0-0.7038298,0.3156548-0.7038298,0.7034481
						V17.892786c0,0.2587833-0.2099276,0.4687099-0.4687109,0.4687099c-0.2591653,0-0.4690928-0.2099266-0.4690928-0.4687099
						V4.0341282c0-0.9049788,0.7362733-1.6416337,1.6416335-1.6416337h8.7635241
						c0.2855015,0,0.5534458,0.1110709,0.7549763,0.3126013l3.8161011,3.3947201
						c0.2213783,0.2202334,0.3320675,0.4881773,0.3320675,0.7736788V17.892786
						C21.8266029,18.1515694,21.6166763,18.361496,21.357893,18.361496z"/>
				</g>
				<g>
					<path class="st3" d="M18.0318756,6.8952508c-0.6190948,0-1.122921-0.5038261-1.122921-1.1229219l-0.0015278-2.6252401
						c-0.0007629-0.185118,0.130537-0.3870301,0.299242-0.4629858c0.1664162-0.0744288,0.4061146-0.0389321,0.5450497,0.083971
						l3.6267853,3.2286868c0.1458035,0.1293917,0.2084007,0.3839765,0.1389332,0.566041
						c-0.0763378,0.200767-0.2641277,0.3309221-0.4793987,0.3309221L18.0318756,6.8952508z M17.8456116,4.1077938
						l0.0007648,1.6641536c0,0.1003833,0.0854969,0.1851177,0.1854992,0.1851177l1.8901119-0.0007634L17.8456116,4.1077938z"/>
				</g>
			</g>
		</g>
		<g>
			<g>
				<path class="st3" d="M13.8127127,6.5498247h-3.7741175c-0.2587833,0-0.4687109-0.209928-0.4687109-0.4690928
					c0-0.2591653,0.2099276-0.4690928,0.4687109-0.4690928h3.7741175c0.2587833,0,0.4687109,0.2099276,0.4687109,0.4690928
					C14.2814236,6.3398967,14.071496,6.5498247,13.8127127,6.5498247z"/>
			</g>
			<g>
				<path class="st3" d="M18.103632,9.307128h-8.0650368c-0.2587833,0-0.4687109-0.2099276-0.4687109-0.4690924
					c0-0.2591658,0.2099276-0.4690933,0.4687109-0.4690933h8.0650368c0.2587833,0,0.4687119,0.2099276,0.4687119,0.4690933
					C18.5723438,9.0972004,18.3624153,9.307128,18.103632,9.307128z"/>
			</g>
			<g>
				<path class="st3" d="M18.103632,12.0648136h-8.0650368c-0.2587833,0-0.4687109-0.2099276-0.4687109-0.4690924
					c0-0.2591658,0.2099276-0.4690933,0.4687109-0.4690933h8.0650368c0.2587833,0,0.4687119,0.2099276,0.4687119,0.4690933
					C18.5723438,11.8548861,18.3624153,12.0648136,18.103632,12.0648136z"/>
			</g>
			<g>
				<path class="st3" d="M18.103632,14.8217354h-8.0650368c-0.2587833,0-0.4687109-0.2099276-0.4687109-0.4687109
					c0-0.2591648,0.2099276-0.4690924,0.4687109-0.4690924h8.0650368c0.2587833,0,0.4687119,0.2099276,0.4687119,0.4690924
					C18.5723438,14.6118078,18.3624153,14.8217354,18.103632,14.8217354z"/>
			</g>
		</g>
	</g>
	<g>
		<path class="st3" d="M18.8723869,17.0231438l-0.1978188,0.7190609c-0.1379032,0.5012798-0.5937309,0.8486404-1.1136322,0.8486404
			h-6.997858c-0.5199022,0-0.975729-0.3473606-1.1136341-0.8486404L9.251627,17.0231438
			c-0.1379042-0.5012798-0.5937309-0.8486404-1.1136341-0.8486404H2.91313c-0.5114853,0-0.9168094,0.4317341-0.8845675,0.9422016
			l0.7704246,7.5427742c0.0317452,0.4649925,0.4181962,0.8259602,0.8842721,0.8259602h20.9790764
			c0.4660759,0,0.8525276-0.3609676,0.8842716-0.8259602l0.7704258-7.5427742
			c0.0322418-0.5104675-0.3730831-0.9422016-0.8845673-0.9422016h-5.4464474
			C19.4661179,16.1745033,19.0102901,16.5218639,18.8723869,17.0231438z"/>
		<path class="st3" d="M24.6625347,25.9540062H3.6831326c-0.7099371,0-1.3038414-0.5542088-1.3519337-1.262619L1.5621004,17.163765
			c-0.0251913-0.3900833,0.1080173-0.7587929,0.3629839-1.0305538c0.2553482-0.2717609,0.6156604-0.4274893,0.9881864-0.4274893
			h5.2245255c0.7282581,0,1.3725452,0.4900846,1.5656786,1.1931524l0.1977139,0.7190971
			c0.0816803,0.2961884,0.3542051,0.5038261,0.6618443,0.5038261h6.9978418c0.3076382,0,0.580162-0.2076378,0.6618443-0.5038261
			l0.1977139-0.7190971l0,0c0.1931324-0.7030678,0.8374195-1.1931524,1.5656776-1.1931524h5.4466667
			c0.3732891,0,0.7336025,0.1557283,0.9885693,0.4282522c0.2549667,0.2717609,0.3870296,0.6404705,0.3633652,1.0122318
			l-0.7717705,7.5604477C25.9671383,25.3990345,25.3732357,25.9540062,24.6625347,25.9540062z M2.9132707,16.6431446
			c-0.1164143,0-0.2244315,0.0473289-0.304204,0.1320629S2.489217,16.9706306,2.496469,17.0866642l0.7690985,7.5253315
			c0.0164125,0.233593,0.1992404,0.4045887,0.4175651,0.4045887h20.9794025c0.2183247,0,0.4015331-0.1709957,0.4160385-0.3885574
			l0.7717705-7.5589199c0.0061054-0.0984764-0.0335884-0.2091656-0.1137428-0.2938995
			c-0.0793915-0.084734-0.187027-0.1320629-0.3038235-0.1320629h-5.4466667c-0.3076401,0-0.579401,0.2076359-0.6618443,0.5045891
			l-0.1977139,0.7190971c-0.1931343,0.7023029-0.8374195,1.1923885-1.5656776,1.1923885h-6.9978418
			c-0.7282581,0-1.3725452-0.4900856-1.5656786-1.1923885l-0.1977139-0.7190971
			c-0.0824442-0.2969532-0.3542051-0.5045891-0.6618443-0.5045891H2.9132707z"/>
	</g>
</g>
</svg>
