<?xml version="1.0" encoding="utf-8"?>
<!-- Generator: Adobe Illustrator 25.4.1, SVG Export Plug-In . SVG Version: 6.00 Build 0)  -->
<svg version="1.1" id="图层_1" xmlns="http://www.w3.org/2000/svg" xmlns:xlink="http://www.w3.org/1999/xlink" x="0px" y="0px"
	 viewBox="0 0 28.3464565 28.3464565" style="enable-background:new 0 0 28.3464565 28.3464565;" xml:space="preserve">
<style type="text/css">
	.st0{fill:#13AA52;}
	.st1{fill:#B8C4C2;}
	.st2{fill:#12924F;}
</style>
<g>
	<path class="st0" d="M19.9946861,11.4210033c-1.41782-6.2550383-4.3738976-7.9230561-5.1337633-9.099926
		c-0.3150711-0.5189377-0.5838032-1.056411-0.8247385-1.6124154c-0.0370684,0.5560044-0.1112041,0.9081378-0.5838099,1.3251423
		C12.5071688,2.8770761,8.47614,6.1667733,8.1425371,13.2743349c-0.3150692,6.6350012,4.8743057,10.7216311,5.5600424,11.1386309
		c0.5282021,0.2594604,1.1676283,0.0092907,1.4826975-0.2316589C17.6872635,22.4669991,21.1067257,17.8891811,19.9946861,11.4210033
		z"/>
	<path class="st1" d="M14.258606,20.8916435c-0.1297312,1.6401863-0.2224016,2.5946884-0.5559998,3.5306129
		c0,0,0.213131,1.5660629,0.3706665,3.215538h0.5374718c0.1297388-1.1675777,0.3243608-2.3259354,0.5930471-3.4657784
		C14.508811,23.8291416,14.2864094,22.3279762,14.258606,20.8916435z"/>
	<path class="st2" d="M15.2037916,24.1720161c-0.7042637-0.3242931-0.9081316-1.8626194-0.9452-3.2896633
		c0.1760702-2.3537407,0.2224016-4.7167721,0.1575356-7.0798035c-0.0370684-1.2417698,0.0185347-11.462945-0.3058004-12.9641552
		c0.2224016,0.509671,0.4726,1.0008057,0.759881,1.4734122c0.7505808,1.1768773,3.715951,2.8448882,5.133769,9.0999069
		C21.1067257,17.8798904,17.7058449,22.4484196,15.2037916,24.1720161z"/>
</g>
</svg>
