<?xml version="1.0" encoding="utf-8"?>
<!-- Generator: Adobe Illustrator 25.4.1, SVG Export Plug-In . SVG Version: 6.00 Build 0)  -->
<svg version="1.1" id="图层_1" xmlns="http://www.w3.org/2000/svg" xmlns:xlink="http://www.w3.org/1999/xlink" x="0px" y="0px"
	 viewBox="0 0 28.3465004 28.3465004" style="enable-background:new 0 0 28.3465004 28.3465004;" xml:space="preserve">
<style type="text/css">
	.st0{fill:#2A8B92;}
</style>
<g>
	<g>
		<path class="st0" d="M0.93895,15.4655647l2.0208762-0.1407642c0.043205,0.3651505,0.1324022,0.642498,0.2668951,0.833437
			c0.2188122,0.3094025,0.5316997,0.4641037,0.9379654,0.4641037c0.3031316,0,0.5365777-0.0794411,0.701035-0.2369308
			c0.1637607-0.1588821,0.2459893-0.3414574,0.2459893-0.5505133c0-0.1979065-0.0780478-0.3749075-0.2341428-0.531002
			c-0.1567922-0.1560955-0.519156-0.3038282-1.0877891-0.4431992c-0.9316936-0.232749-1.5957954-0.5407581-1.9930021-0.926815
			c-0.3999941-0.3860569-0.5999912-0.8766413-0.5999912-1.4745417c0-0.3930254,0.1024375-0.763751,0.3073126-1.1121778
			c0.2041782-0.349124,0.5121876-0.6229868,0.9233314-0.8229837s0.9742017-0.2996473,1.6905677-0.2996473
			c0.8780355,0,1.5477123,0.181879,2.0090294,0.5442429c0.4606204,0.36306,0.7351809,0.940752,0.8229847,1.7323771
			l-2.0020614,0.1310091c-0.0536575-0.3442459-0.1651545-0.5937195-0.3351865-0.7512083
			c-0.1707292-0.1560955-0.4055691-0.2341423-0.7059131-0.2341423c-0.2473831,0-0.4327464,0.0585356-0.5581801,0.1742125
			c-0.1247368,0.1170721-0.1874537,0.2592297-0.1874537,0.4250813c0,0.1212521,0.0515673,0.2313547,0.1547017,0.3275204
			c0.1003468,0.1017408,0.3379741,0.1951189,0.7128813,0.2815294c0.9282093,0.2229929,1.593008,0.4473801,1.9950929,0.6745539
			c0.4013877,0.2285681,0.6940665,0.5100965,0.8766422,0.847374c0.1825757,0.3372765,0.2745605,0.7135773,0.2745605,1.1302958
			c0,0.4891911-0.1219497,0.940752-0.3658485,1.3546829c-0.2438989,0.4125366-0.5846601,0.7261219-1.0222845,0.940752
			c-0.4376245,0.2132378-0.9895325,0.3191586-1.6550279,0.3191586c-1.1693211,0-1.9790652-0.2494736-2.4292328-0.7498131
			C1.253231,16.8718147,0.9981826,16.2362843,0.93895,15.4655647z"/>
		<path class="st0" d="M8.2531271,10.3548422h5.2514906v1.6417866h-3.1184206v1.3323832h2.6633749v1.5428333h-2.6633749v3.1205101
			h-2.13307V10.3548422z"/>
		<path class="st0" d="M14.1659327,10.3548422h6.4570475v1.885685h-2.1672153v5.7518282h-2.1233139v-5.7518282h-2.1665182
			V10.3548422z"/>
		<path class="st0" d="M21.5748825,10.3548422h3.530262c0.7693272,0,1.3449287,0.2034807,1.7281971,0.6097469
			c0.3832703,0.4062653,0.5742092,0.9846535,0.5742092,1.7344675c0,0.7707195-0.2090569,1.3741951-0.6257763,1.8076382
			c-0.4167175,0.4348364-1.0550365,0.6508608-1.9107723,0.6508608h-1.1623535v2.8347998h-2.1337662V10.3548422z
			 M23.7086487,13.6105413h0.5198536c0.40975,0,0.6968536-0.0780478,0.8627052-0.2369308
			c0.1658516-0.1574888,0.2480793-0.3595762,0.2480793-0.6062622c0-0.2397175-0.0710773-0.4431982-0.2146301-0.6090498
			c-0.1449451-0.1672449-0.4153252-0.2508669-0.8111382-0.2508669h-0.6048698V13.6105413z"/>
	</g>
</g>
</svg>
