<?xml version="1.0" encoding="utf-8"?>
<!-- Generator: Adobe Illustrator 25.0.1, SVG Export Plug-In . SVG Version: 6.00 Build 0)  -->
<svg version="1.1" id="图层_1" xmlns="http://www.w3.org/2000/svg" xmlns:xlink="http://www.w3.org/1999/xlink" x="0px" y="0px"
	 viewBox="0 0 20.9991779 21.0269566" style="enable-background:new 0 0 20.9991779 21.0269566;" xml:space="preserve">
<style type="text/css">
	.st0{fill:#2A8B92;}
	.st1{opacity:0.1;}
</style>
<g>
	<g>
		<path class="st0" d="M14.03125,14.6446466H6.9677734c-0.331543,0-0.6000977-0.2685547-0.6000977-0.5996094V6.982049
			c0-0.331543,0.2685547-0.6000977,0.6000977-0.6000977H14.03125c0.3310547,0,0.5996094,0.2685547,0.5996094,0.6000977v7.0629883
			C14.6308594,14.376092,14.3623047,14.6446466,14.03125,14.6446466z M7.5678711,13.4454279h5.8637695V7.5821466H7.5678711
			V13.4454279z"/>
	</g>
	<g class="st1">
		<rect x="6.9679971" y="6.9818864" class="st0" width="7.0631838" height="7.0631838"/>
	</g>
	<g>
		<path class="st0" d="M6.9677734,7.5821466H4.0371094c-1.8193359,0-3.2998047-1.4804688-3.2998047-3.2998047V4.0508966
			c0-1.8193359,1.4804688-3.2998047,3.2998047-3.2998047h0.2314453c1.8193359,0,3.2993164,1.4804688,3.2993164,3.2998047V6.982049
			C7.5678711,7.313592,7.2993164,7.5821466,6.9677734,7.5821466z M4.0371094,1.9512873
			c-1.1577148,0-2.0996094,0.9418945-2.0996094,2.0996094V4.282342c0,1.1577148,0.9418945,2.0996094,2.0996094,2.0996094h2.3305664
			V4.0508966c0-1.1577148-0.9414062-2.0996094-2.0991211-2.0996094H4.0371094z"/>
	</g>
	<g>
		<path class="st0" d="M16.9619141,7.5821466H14.03125c-0.3310547,0-0.5996094-0.2685547-0.5996094-0.6000977V4.0508966
			c0-1.8193359,1.4794922-3.2998047,3.2988281-3.2998047h0.2314453c1.8193359,0,3.2998047,1.4804688,3.2998047,3.2998047V4.282342
			C20.2617188,6.1016779,18.78125,7.5821466,16.9619141,7.5821466z M14.6308594,6.3819513h2.3310547
			c1.1582031,0,2.1005859-0.9418945,2.1005859-2.0996094V4.0508966c0-1.1577148-0.9423828-2.0996094-2.1005859-2.0996094h-0.2314453
			c-1.1572266,0-2.0996094,0.9418945-2.0996094,2.0996094V6.3819513z"/>
	</g>
	<g>
		<path class="st0" d="M4.2685547,20.2755051H4.0371094c-1.8193359,0-3.2998047-1.4804688-3.2998047-3.2998047v-0.2314453
			c0-1.819335,1.4804688-3.2988272,3.2998047-3.2988272h2.9306641c0.331543,0,0.6000977,0.2685547,0.6000977,0.5996094v2.9306631
			C7.5678711,18.7950363,6.0878906,20.2755051,4.2685547,20.2755051z M4.0371094,14.6446466
			c-1.1577148,0-2.0996094,0.9423828-2.0996094,2.0996084v0.2314453c0,1.1582031,0.9418945,2.1005859,2.0996094,2.1005859h0.2314453
			c1.1577148,0,2.0991211-0.9423828,2.0991211-2.1005859v-2.3310537H4.0371094z"/>
	</g>
	<g>
		<path class="st0" d="M16.9619141,20.2755051h-0.2314453c-1.8193359,0-3.2988281-1.4804688-3.2988281-3.2998047v-2.9306631
			c0-0.3310547,0.2685547-0.5996094,0.5996094-0.5996094h2.9306641c1.8193359,0,3.2998047,1.4794922,3.2998047,3.2988272v0.2314453
			C20.2617188,18.7950363,18.78125,20.2755051,16.9619141,20.2755051z M14.6308594,14.6446466v2.3310537
			c0,1.1582031,0.9423828,2.1005859,2.0996094,2.1005859h0.2314453c1.1582031,0,2.1005859-0.9423828,2.1005859-2.1005859v-0.2314453
			c0-1.1572256-0.9423828-2.0996084-2.1005859-2.0996084H14.6308594z"/>
	</g>
</g>
</svg>
