<?xml version="1.0" encoding="utf-8"?>
<!-- Generator: Adobe Illustrator 25.0.1, SVG Export Plug-In . SVG Version: 6.00 Build 0)  -->
<svg version="1.1" id="图层_1" xmlns="http://www.w3.org/2000/svg" xmlns:xlink="http://www.w3.org/1999/xlink" x="0px" y="0px"
	 viewBox="0 0 20.8334351 21.0269566" style="enable-background:new 0 0 20.8334351 21.0269566;" xml:space="preserve">
<style type="text/css">
	.st0{fill:#2A8B92;}
</style>
<g>
	<g>
		<g>
			<g>
				<g>
					<path class="st0" d="M17.582655,10.4064083c-0.3310547,0-0.5996094-0.2685547-0.5996094-0.5996094V7.0948844
						c0-0.0712891-0.0585938-0.1298828-0.1298828-0.1298828H13.926404c-0.3310547,0-0.5996094-0.2685547-0.5996094-0.5996094
						s0.2685547-0.5996094,0.5996094-0.5996094h2.9267588c0.7333984,0,1.3291016,0.5957031,1.3291016,1.3291016v2.7119145
						C18.1822643,10.1378536,17.9137096,10.4064083,17.582655,10.4064083z"/>
				</g>
				<g>
					<path class="st0" d="M3.250623,10.4064083c-0.3310547,0-0.5996094-0.2685547-0.5996094-0.5996094V7.0948844
						c0-0.7333984,0.5957031-1.3291016,1.3291016-1.3291016h2.9267581c0.3310547,0,0.5996094,0.2685547,0.5996094,0.5996094
						S7.2379279,6.9650016,6.9068732,6.9650016H3.9801152c-0.0712891,0-0.1298828,0.0585938-0.1298828,0.1298828v2.7119145
						C3.8502324,10.1378536,3.5816777,10.4064083,3.250623,10.4064083z"/>
				</g>
			</g>
			<g>
				<path class="st0" d="M17.2594128,20.424963H3.5738652c-0.6523438,0-1.2148438-0.4638672-1.3378906-1.1044922
					l-1.642578-8.4921875c-0.0771484-0.4013672,0.0273438-0.8115234,0.2871094-1.1259766
					C1.1402715,9.3868771,1.523084,9.2071896,1.9312872,9.2071896h16.9707031c0.4082031,0,0.7910156,0.1796875,1.0507812,0.4951172
					c0.2597656,0.3144531,0.3642578,0.7246094,0.2871094,1.125l-1.6425781,8.4941406
					C18.4742565,19.9610958,17.9117565,20.424963,17.2594128,20.424963z M1.9312872,10.4064083
					c-0.0634766,0-0.1035156,0.0322266-0.1259766,0.0595703c-0.0214844,0.0273438-0.0458984,0.0722656-0.0341797,0.1347656
					l1.642578,8.4921875c0.0146484,0.0771484,0.0820312,0.1328125,0.1601562,0.1328125h13.6855478
					c0.078125,0,0.1455078-0.0556641,0.1601562-0.1318359l1.6425781-8.4941406
					c0.0117188-0.0615234-0.0126953-0.1064453-0.0341797-0.1337891c-0.0224609-0.0273438-0.0625-0.0595703-0.1259766-0.0595703
					H1.9312872z"/>
			</g>
			<g>
				<g>
					<g>
						<g>
							<path class="st0" d="M13.9117556,4.6944938c-0.1660156,0-0.3310547-0.0683594-0.4501953-0.203125
								c-0.21875-0.2480469-0.1953125-0.6269529,0.0537109-0.8466794L14.645154,2.647619l-1.1298828-0.9960938
								c-0.2490234-0.2197266-0.2724609-0.5986328-0.0537109-0.8466797
								c0.2207031-0.2490234,0.6005859-0.2714844,0.8466797-0.0537109l1.3828125,1.2197266
								c0.1953125,0.1728516,0.3066406,0.4199219,0.3056641,0.6796875c0,0.2587891-0.1123047,0.5048828-0.3056641,0.6757812
								l-1.3828125,1.2187498C14.1949587,4.6456656,14.0533571,4.6944938,13.9117556,4.6944938z M14.8980837,2.4249628
								c-0.0009766,0-0.0009766,0.0009766-0.0009766,0.0009766L14.8980837,2.4249628z"/>
						</g>
					</g>
				</g>
				<g>
					<path class="st0" d="M10.4703493,8.0460567c-0.3310547,0-0.5996094-0.2685552-0.5996094-0.5996099V3.6798456
						c0-0.8964844,0.7285156-1.625,1.625-1.625h3.5537109c0.3310547,0,0.5996094,0.2685547,0.5996094,0.5996094
						s-0.2685547,0.5996094-0.5996094,0.5996094h-3.5537109c-0.234375,0-0.4257812,0.1914062-0.4257812,0.4257812v3.7666013
						C11.0699587,7.7775016,10.801404,8.0460567,10.4703493,8.0460567z"/>
				</g>
			</g>
		</g>
	</g>
</g>
</svg>
