<?xml version="1.0" encoding="utf-8"?>
<!-- Generator: Adobe Illustrator 25.0.1, SVG Export Plug-In . SVG Version: 6.00 Build 0)  -->
<svg version="1.1" id="图层_1" xmlns="http://www.w3.org/2000/svg" xmlns:xlink="http://www.w3.org/1999/xlink" x="0px" y="0px"
	 viewBox="0 0 20.8334351 21.0269566" style="enable-background:new 0 0 20.8334351 21.0269566;" xml:space="preserve">
<style type="text/css">
	.st0{fill:#2A8B92;}
</style>
<g>
	<g>
		<g>
			<g>
				<g>
					<g>
						<path class="st0" d="M10.4156618,7.6984c-0.2226562,0-0.4355469-0.0957031-0.5839844-0.2636719L8.7096071,6.1622672
							C8.5269899,5.955236,8.5465212,5.6388297,8.7535524,5.4562125c0.2089844-0.1826172,0.5244141-0.1611328,0.7060547,0.0439453
							l0.9560547,1.0849609l0.9570312-1.0849609c0.1826172-0.2070312,0.4980469-0.2265625,0.7060547-0.0439453
							c0.2070312,0.1826172,0.2265625,0.4990234,0.0439453,0.7060547l-1.1230469,1.2724609
							C10.8531618,7.6007438,10.6412477,7.6974235,10.4176149,7.6984C10.4176149,7.6984,10.4166384,7.6984,10.4156618,7.6984z
							 M10.2496462,6.7726188c0,0.0009766-0.0009766,0.0009766-0.0009766,0.0019531L10.2496462,6.7726188z"/>
					</g>
				</g>
			</g>
			<g>
				<path class="st0" d="M10.410779,7.3175406c-0.2763672,0-0.5-0.2236328-0.5-0.5V2.5948846
					c0-0.2880859-0.234375-0.5224609-0.5224609-0.5224609H6.4390998c-0.2763672,0-0.5-0.2236328-0.5-0.5s0.2236328-0.5,0.5-0.5
					h2.9492183c0.8398438,0,1.5224609,0.6826172,1.5224609,1.5224609v4.2226562
					C10.910779,7.0939078,10.6871462,7.3175406,10.410779,7.3175406z"/>
			</g>
		</g>
		<g>
			<g>
				<path class="st0" d="M17.582655,9.9366817c-0.2763672,0-0.5-0.2236328-0.5-0.5V5.4259391
					c0-0.1269531-0.1025391-0.2294922-0.2294922-0.2294922h-2.243165c-0.2763672,0-0.5-0.2236328-0.5-0.5s0.2236328-0.5,0.5-0.5
					h2.243165c0.6777344,0,1.2294922,0.5517578,1.2294922,1.2294922v4.0107427
					C18.082655,9.7130489,17.8590221,9.9366817,17.582655,9.9366817z"/>
			</g>
			<g>
				<path class="st0" d="M3.250623,9.9366817c-0.2763672,0-0.5-0.2236328-0.5-0.5V5.4259391
					c0-0.6777344,0.5517578-1.2294922,1.2304688-1.2294922h2.2421877c0.2763672,0,0.5,0.2236328,0.5,0.5s-0.2236328,0.5-0.5,0.5
					H3.9810917c-0.1269531,0-0.2304688,0.1025391-0.2304688,0.2294922v4.0107427
					C3.750623,9.7130489,3.5269902,9.9366817,3.250623,9.9366817z"/>
			</g>
		</g>
	</g>
	<g>
		<path class="st0" d="M17.2594128,19.9552364H3.5738652c-0.6035156,0-1.1240234-0.4306641-1.2392578-1.0234375l-1.642578-8.4931641
			c-0.0722656-0.3701172,0.0244141-0.75,0.2646484-1.0419922c0.2412109-0.2919922,0.5957031-0.4599609,0.9746094-0.4599609
			h16.9707031c0.3779297,0,0.7333984,0.1669922,0.9736328,0.4589844c0.2412109,0.2910156,0.3378906,0.671875,0.2666016,1.0429688
			l-1.6425781,8.4931641C18.3844128,19.5245724,17.8629284,19.9552364,17.2594128,19.9552364z M1.9312872,9.9366817
			c-0.1074219,0-0.1728516,0.0595703-0.2021484,0.0957031c-0.0292969,0.0351562-0.0751953,0.1103516-0.0546875,0.2158203
			l1.642578,8.4941406c0.0234375,0.1230469,0.1318359,0.2128906,0.2568359,0.2128906h13.6855478
			c0.1259766,0,0.234375-0.0898438,0.2578125-0.2128906l1.6425781-8.4931641
			c0.0205078-0.1054688-0.0253906-0.1816406-0.0546875-0.2167969c-0.0292969-0.0361328-0.0947266-0.0957031-0.203125-0.0957031
			H1.9312872z"/>
	</g>
</g>
</svg>
