<?xml version="1.0" encoding="utf-8"?>
<!-- Generator: Adobe Illustrator 25.0.1, SVG Export Plug-In . SVG Version: 6.00 Build 0)  -->
<svg version="1.1" id="图层_1" xmlns="http://www.w3.org/2000/svg" xmlns:xlink="http://www.w3.org/1999/xlink" x="0px" y="0px"
	 viewBox="0 0 20.9991779 21.0269566" style="enable-background:new 0 0 20.9991779 21.0269566;" xml:space="preserve">
<style type="text/css">
	.st0{fill:#2A8B92;}
	.st1{opacity:0.15;}
</style>
<g>
	<g>
		<path class="st0" d="M14.1865234,15.838006H6.8125c-0.902832,0-1.6376953-0.734375-1.6376953-1.6376953V6.8267756
			c0-0.9033203,0.7348633-1.6381836,1.6376953-1.6381836h7.3740234c0.9033203,0,1.6376953,0.7348633,1.6376953,1.6381836v7.3735352
			C15.8242188,15.103631,15.0898438,15.838006,14.1865234,15.838006z M6.8125,6.3887873
			c-0.2412109,0-0.4375,0.1962891-0.4375,0.4379883v7.3735352c0,0.2412109,0.1962891,0.4384766,0.4375,0.4384766h7.3740234
			c0.2412109,0,0.4384766-0.1972656,0.4384766-0.4384766V6.8267756c0-0.2416992-0.1972656-0.4379883-0.4384766-0.4379883H6.8125z"/>
	</g>
	<g class="st1">
		<path class="st0" d="M14.1865292,15.2380257H6.8126488c-0.5730543,0-1.0376067-0.4645529-1.0376067-1.0376072V6.8265381
			c0-0.5730543,0.4645524-1.0376067,1.0376067-1.0376067h7.3738804c0.5730543,0,1.0376072,0.4645524,1.0376072,1.0376067v7.3738804
			C15.2241364,14.7734728,14.7595835,15.2380257,14.1865292,15.2380257z"/>
	</g>
	<g>
		<g>
			<g>
				<g>
					<path class="st0" d="M8.1103516,4.157342c-1.0126953,0-1.8364258-0.8242188-1.8364258-1.8369141
						s0.8237305-1.8369141,1.8364258-1.8369141s1.8369141,0.8242188,1.8369141,1.8369141S9.1230469,4.157342,8.1103516,4.157342z
						 M8.1103516,1.6837091c-0.3510742,0-0.6362305,0.2856445-0.6362305,0.6367188s0.2851562,0.6367188,0.6362305,0.6367188
						s0.6367188-0.2856445,0.6367188-0.6367188S8.4614258,1.6837091,8.1103516,1.6837091z"/>
				</g>
				<g>
					<path class="st0" d="M8.1103516,6.1910334c-0.331543,0-0.6000977-0.2685547-0.6000977-0.6000977V3.5572443
						c0-0.331543,0.2685547-0.6000977,0.6000977-0.6000977s0.6000977,0.2685547,0.6000977,0.6000977v2.0336914
						C8.7104492,5.9224787,8.4418945,6.1910334,8.1103516,6.1910334z"/>
				</g>
			</g>
			<g>
				<g>
					<path class="st0" d="M12.8886719,4.157342c-1.0126953,0-1.8359375-0.8242188-1.8359375-1.8369141
						s0.8232422-1.8369141,1.8359375-1.8369141s1.8359375,0.8242188,1.8359375,1.8369141S13.9013672,4.157342,12.8886719,4.157342z
						 M12.8886719,1.6837091c-0.3505859,0-0.6367188,0.2856445-0.6367188,0.6367188s0.2861328,0.6367188,0.6367188,0.6367188
						s0.6367188-0.2856445,0.6367188-0.6367188S13.2392578,1.6837091,12.8886719,1.6837091z"/>
				</g>
				<g>
					<path class="st0" d="M12.8886719,6.1910334c-0.3310547,0-0.5996094-0.2685547-0.5996094-0.6000977V3.5572443
						c0-0.331543,0.2685547-0.6000977,0.5996094-0.6000977s0.5996094,0.2685547,0.5996094,0.6000977v2.0336914
						C13.4882812,5.9224787,13.2197266,6.1910334,12.8886719,6.1910334z"/>
				</g>
			</g>
		</g>
		<g>
			<g>
				<g>
					<path class="st0" d="M12.8886719,20.5430832c-1.0126953,0-1.8359375-0.8242188-1.8359375-1.8369141
						s0.8232422-1.8359375,1.8359375-1.8359375s1.8359375,0.8232422,1.8359375,1.8359375
						S13.9013672,20.5430832,12.8886719,20.5430832z M12.8886719,18.0694504c-0.3505859,0-0.6367188,0.2861328-0.6367188,0.6367188
						c0,0.3515625,0.2861328,0.6376953,0.6367188,0.6376953s0.6367188-0.2861328,0.6367188-0.6376953
						C13.5253906,18.3555832,13.2392578,18.0694504,12.8886719,18.0694504z"/>
				</g>
				<g>
					<path class="st0" d="M12.8886719,18.0694504c-0.3310547,0-0.5996094-0.2685547-0.5996094-0.5996094v-2.0341787
						c0-0.3310547,0.2685547-0.5996094,0.5996094-0.5996094s0.5996094,0.2685547,0.5996094,0.5996094v2.0341787
						C13.4882812,17.8008957,13.2197266,18.0694504,12.8886719,18.0694504z"/>
				</g>
			</g>
			<g>
				<g>
					<path class="st0" d="M8.1103516,20.5430832c-1.0126953,0-1.8364258-0.8242188-1.8364258-1.8369141
						s0.8237305-1.8359375,1.8364258-1.8359375s1.8369141,0.8232422,1.8369141,1.8359375S9.1230469,20.5430832,8.1103516,20.5430832
						z M8.1103516,18.0694504c-0.3510742,0-0.6362305,0.2861328-0.6362305,0.6367188
						c0,0.3515625,0.2851562,0.6376953,0.6362305,0.6376953s0.6367188-0.2861328,0.6367188-0.6376953
						C8.7470703,18.3555832,8.4614258,18.0694504,8.1103516,18.0694504z"/>
				</g>
				<g>
					<path class="st0" d="M8.1103516,18.0694504c-0.331543,0-0.6000977-0.2685547-0.6000977-0.5996094v-2.0341787
						c0-0.3310547,0.2685547-0.5996094,0.6000977-0.5996094s0.6000977,0.2685547,0.6000977,0.5996094v2.0341787
						C8.7104492,17.8008957,8.4418945,18.0694504,8.1103516,18.0694504z"/>
				</g>
			</g>
		</g>
	</g>
	<g>
		<g>
			<g>
				<g>
					<path class="st0" d="M18.6923828,9.9610529c-1.0126953,0-1.8359375-0.8242188-1.8359375-1.8369141
						s0.8232422-1.8364258,1.8359375-1.8364258s1.8369141,0.8237305,1.8369141,1.8364258S19.7050781,9.9610529,18.6923828,9.9610529
						z M18.6923828,7.4879084c-0.3505859,0-0.6367188,0.2851562-0.6367188,0.6362305s0.2861328,0.6367188,0.6367188,0.6367188
						c0.3515625,0,0.6376953-0.2856445,0.6376953-0.6367188S19.0439453,7.4879084,18.6923828,7.4879084z"/>
				</g>
				<g>
					<path class="st0" d="M17.4560547,8.7242365H15.421875c-0.3310547,0-0.5996094-0.2685547-0.5996094-0.6000977
						s0.2685547-0.6000977,0.5996094-0.6000977h2.0341797c0.3310547,0,0.5996094,0.2685547,0.5996094,0.6000977
						S17.7871094,8.7242365,17.4560547,8.7242365z"/>
				</g>
			</g>
			<g>
				<g>
					<path class="st0" d="M18.6923828,14.7383966c-1.0126953,0-1.8359375-0.8232422-1.8359375-1.8359375
						s0.8232422-1.8364258,1.8359375-1.8364258s1.8369141,0.8237305,1.8369141,1.8364258
						S19.7050781,14.7383966,18.6923828,14.7383966z M18.6923828,12.2657404c-0.3505859,0-0.6367188,0.2861328-0.6367188,0.6367188
						s0.2861328,0.6367188,0.6367188,0.6367188c0.3515625,0,0.6376953-0.2861328,0.6376953-0.6367188
						S19.0439453,12.2657404,18.6923828,12.2657404z"/>
				</g>
				<g>
					<path class="st0" d="M17.4560547,13.5020685H15.421875c-0.3310547,0-0.5996094-0.2685547-0.5996094-0.5996094
						s0.2685547-0.5996094,0.5996094-0.5996094h2.0341797c0.3310547,0,0.5996094,0.2685547,0.5996094,0.5996094
						S17.7871094,13.5020685,17.4560547,13.5020685z"/>
				</g>
			</g>
		</g>
		<g>
			<g>
				<g>
					<path class="st0" d="M2.3066406,14.7383966c-1.0126953,0-1.8369141-0.8232422-1.8369141-1.8359375
						s0.8242188-1.8364258,1.8369141-1.8364258s1.8364258,0.8237305,1.8364258,1.8364258S3.3193359,14.7383966,2.3066406,14.7383966
						z M2.3066406,12.2657404c-0.3510742,0-0.6367188,0.2861328-0.6367188,0.6367188s0.2856445,0.6367188,0.6367188,0.6367188
						s0.6362305-0.2861328,0.6362305-0.6367188S2.6577148,12.2657404,2.3066406,12.2657404z"/>
				</g>
				<g>
					<path class="st0" d="M5.5771484,13.5020685H3.5429688c-0.331543,0-0.6000977-0.2685547-0.6000977-0.5996094
						s0.2685547-0.5996094,0.6000977-0.5996094h2.0341797c0.331543,0,0.6000977,0.2685547,0.6000977,0.5996094
						S5.9086914,13.5020685,5.5771484,13.5020685z"/>
				</g>
			</g>
			<g>
				<g>
					<path class="st0" d="M2.3066406,9.9610529c-1.0126953,0-1.8369141-0.8242188-1.8369141-1.8369141
						s0.8242188-1.8364258,1.8369141-1.8364258s1.8364258,0.8237305,1.8364258,1.8364258S3.3193359,9.9610529,2.3066406,9.9610529z
						 M2.3066406,7.4879084c-0.3510742,0-0.6367188,0.2851562-0.6367188,0.6362305s0.2856445,0.6367188,0.6367188,0.6367188
						s0.6362305-0.2856445,0.6362305-0.6367188S2.6577148,7.4879084,2.3066406,7.4879084z"/>
				</g>
				<g>
					<path class="st0" d="M5.5771484,8.7242365H3.5429688c-0.331543,0-0.6000977-0.2685547-0.6000977-0.6000977
						s0.2685547-0.6000977,0.6000977-0.6000977h2.0341797c0.331543,0,0.6000977,0.2685547,0.6000977,0.6000977
						S5.9086914,8.7242365,5.5771484,8.7242365z"/>
				</g>
			</g>
		</g>
	</g>
	<g>
		<path class="st0" d="M10.5,13.3585138c-1.5688477,0-2.8457031-1.2763672-2.8457031-2.8452148S8.9311523,7.6680841,10.5,7.6680841
			c1.5683594,0,2.8447266,1.2763672,2.8447266,2.8452148S12.0683594,13.3585138,10.5,13.3585138z M10.5,8.8682795
			c-0.9072266,0-1.6455078,0.737793-1.6455078,1.6450195S9.5927734,12.1592951,10.5,12.1592951
			s1.6455078-0.7387695,1.6455078-1.6459961S11.4072266,8.8682795,10.5,8.8682795z"/>
	</g>
	<g class="st1">
		<circle class="st0" cx="10.499589" cy="10.5134783" r="2.2453425"/>
	</g>
</g>
</svg>
