<?xml version="1.0" encoding="utf-8"?>
<!-- Generator: Adobe Illustrator 25.0.1, SVG Export Plug-In . SVG Version: 6.00 Build 0)  -->
<svg version="1.1" id="图层_1" xmlns="http://www.w3.org/2000/svg" xmlns:xlink="http://www.w3.org/1999/xlink" x="0px" y="0px"
	 viewBox="0 0 17.249218 21.0269566" style="enable-background:new 0 0 17.249218 21.0269566;" xml:space="preserve">
<style type="text/css">
	.st0{opacity:0.2;}
	.st1{fill:#2A8B92;}
</style>
<g>
	<g>
		<g class="st0">
			<path class="st1" d="M11.8547602,1.3232703v2.9805751c0,0.3193102,0.258852,0.5781627,0.5781622,0.5781627h3.3978195"/>
		</g>
		<g>
			<path class="st1" d="M15.8307533,5.3816428h-3.3974609c-0.5947266,0-1.078125-0.4833984-1.078125-1.078125V1.3230489
				c0-0.2763672,0.2236328-0.5,0.5-0.5s0.5,0.2236328,0.5,0.5v2.9804688c0,0.0429688,0.0351562,0.078125,0.078125,0.078125
				h3.3974609c0.2763672,0,0.5,0.2236328,0.5,0.5S16.1071205,5.3816428,15.8307533,5.3816428z"/>
		</g>
		<g>
			<path class="st1" d="M15.090519,20.4685574H2.1491132c-0.8359375,0-1.5166016-0.6806641-1.5166016-1.5166016V2.075002
				c0-0.8359374,0.6806641-1.5166014,1.5166016-1.5166014h9.3378906c0.2958984,0,0.5859375,0.1201172,0.7949219,0.3291016
				l3.9746094,3.5371094c0.2304688,0.2265625,0.3505859,0.5166016,0.3505859,0.8134766v1.2412109c0,0.2763672-0.2236328,0.5-0.5,0.5
				s-0.5-0.2236328-0.5-0.5V5.2380881l-4.1201172-3.6796875H2.1491132c-0.2851562,0-0.5166016,0.2314453-0.5166016,0.5166014
				v16.8769531c0,0.2851562,0.2314453,0.5166016,0.5166016,0.5166016H15.090519
				c0.2851562,0,0.5166016-0.2314453,0.5166016-0.5166016v-5.4677744c0-0.2763672,0.2236328-0.5,0.5-0.5s0.5,0.2236328,0.5,0.5
				v5.4677744C16.6071205,19.7878933,15.9264565,20.4685574,15.090519,20.4685574z"/>
		</g>
	</g>
	<g>
		<g>
			<path class="st1" d="M9.240695,11.4833212l3.4605227,0.0000019c0.0600843,0,0.1087923,0.0488586,0.1087923,0.109128
				l-0.000001,0.6282043c0,0.4082527,0.4696722,0.6363411,0.788928,0.3831301l2.8355818-2.2489758
				c0.242918-0.1926641,0.242918-0.5622797,0.0000019-0.7549438l-2.8284321-2.24331
				c-0.3221483-0.2555056-0.7960758-0.0253515-0.7960758,0.3866l-0.000001,0.6190867
				c0,0.0602703-0.048708,0.109128-0.1087923,0.109128L9.2406969,8.4713688c-0.180253,0-0.3263779,0.146575-0.3263779,0.327384
				l-0.000001,2.3571835C8.9143171,11.3367462,9.060442,11.4833202,9.240695,11.4833212z"/>
		</g>
	</g>
	<g>
		<g>
			<path class="st1" d="M8.215519,4.5203147H3.5260663c-0.2763672,0-0.5-0.2236328-0.5-0.5s0.2236328-0.5000002,0.5-0.5000002
				H8.215519c0.2763672,0,0.5,0.2236328,0.5,0.5000002S8.4918861,4.5203147,8.215519,4.5203147z"/>
		</g>
		<g>
			<path class="st1" d="M6.4801679,7.7390647H3.5260663c-0.2763672,0-0.5-0.2236328-0.5-0.5s0.2236328-0.5,0.5-0.5h2.9541016
				c0.2763672,0,0.5,0.2236328,0.5,0.5S6.7565351,7.7390647,6.4801679,7.7390647z"/>
		</g>
		<g>
			<path class="st1" d="M6.4801679,10.9568377H3.5260663c-0.2763672,0-0.5-0.2236328-0.5-0.5s0.2236328-0.5,0.5-0.5h2.9541016
				c0.2763672,0,0.5,0.2236328,0.5,0.5S6.7565351,10.9568377,6.4801679,10.9568377z"/>
		</g>
		<g>
			<path class="st1" d="M9.7653236,14.1746111H3.5260663c-0.2763672,0-0.5-0.2236328-0.5-0.5s0.2236328-0.5,0.5-0.5h6.2392573
				c0.2763672,0,0.5,0.2236328,0.5,0.5S10.0416908,14.1746111,9.7653236,14.1746111z"/>
		</g>
		<g>
			<path class="st1" d="M13.7008705,17.393362H3.5260663c-0.2763672,0-0.5-0.2236328-0.5-0.5s0.2236328-0.5,0.5-0.5h10.1748047
				c0.2763672,0,0.5,0.2236328,0.5,0.5S13.9772377,17.393362,13.7008705,17.393362z"/>
		</g>
	</g>
</g>
</svg>
