<?xml version="1.0" encoding="utf-8"?>
<!-- Generator: Adobe Illustrator 25.4.1, SVG Export Plug-In . SVG Version: 6.00 Build 0)  -->
<svg version="1.1" id="图层_1" xmlns="http://www.w3.org/2000/svg" xmlns:xlink="http://www.w3.org/1999/xlink" x="0px" y="0px"
	 viewBox="0 0 46.2231522 57.6185799" style="enable-background:new 0 0 46.2231522 57.6185799;" xml:space="preserve">
<style type="text/css">
	.st0{opacity:0.1;}
	.st1{fill:#2A7C81;}
	.st2{fill:#2a8b92;}
	.st3{opacity:0.3;}
</style>
<g class="st0">
	<path class="st1" d="M35.2182579,55.857357h6.3095016c1.5943604,0,2.8867569-1.2964554,2.8867569-2.8956757V13.9056187
		c0-0.4713478-0.1865997-0.9233685-0.518898-1.2565536L32.5469933,2.5195673
		c-0.3321762-0.3331857-0.7828236-0.5204781-1.2527409-0.5204781H4.7817159c-1.5943623,0-2.8868837,1.2964569-2.8868837,2.8956738
		v48.0669174c0,1.5992203,1.2925214,2.8956757,2.8868837,2.8956757h6.3095021H35.2182579z"/>
</g>
<g>
	<g>
		<path class="st2" d="M22.3901958,13.9257908H11.2241812c-0.5522461,0-1-0.4477539-1-1s0.4477539-1,1-1h11.1660147
			c0.5522461,0,1,0.4477539,1,1S22.9424419,13.9257908,22.3901958,13.9257908z"/>
	</g>
	<g>
		<path class="st2" d="M35.0855103,24.5942478H11.2241812c-0.5522461,0-1-0.4477539-1-1s0.4477539-1,1-1h23.8613281
			c0.5527344,0,1,0.4477539,1,1S35.6382446,24.5942478,35.0855103,24.5942478z"/>
	</g>
	<g>
		<path class="st2" d="M35.0855103,35.2622147H11.2241812c-0.5522461,0-1-0.4472656-1-1s0.4477539-1,1-1h23.8613281
			c0.5527344,0,1,0.4472656,1,1S35.6382446,35.2622147,35.0855103,35.2622147z"/>
	</g>
	<g>
		<path class="st2" d="M26.8618755,45.9301834H11.2241812c-0.5522461,0-1-0.4472656-1-1s0.4477539-1,1-1h15.6376944
			c0.5527344,0,1,0.4472656,1,1S27.4146099,45.9301834,26.8618755,45.9301834z"/>
	</g>
</g>
<g class="st3">
	<path class="st1" d="M43.4668579,12.5731277l-8.8942299,0.0045366c-1.0645294,0.0005426-1.9359512-0.8726435-1.9364929-1.9404144
		l-0.0039482-7.7914581c-0.0000496-0.0974689,0.1147842-0.1491885,0.1873741-0.0843906l10.7343445,9.5821056
		C43.6438599,12.4238062,43.5872765,12.5730658,43.4668579,12.5731277z"/>
</g>
<g>
	<path class="st2" d="M34.5718384,13.5776463c-0.7822266,0-1.5185547-0.3066406-2.0742188-0.8632812
		c-0.555666-0.5561523-0.86133-1.2939453-0.86133-2.0771484l-0.0039062-7.7910156
		c0-0.4370117,0.2568359-0.8349609,0.6542988-1.0146484c0.3994141-0.1811523,0.8652344-0.1098633,1.1933594,0.1791992
		l10.7402344,9.5864258c0.3535156,0.3173828,0.4716797,0.8071289,0.3027344,1.2490234
		c-0.1689453,0.4414062-0.5830078,0.7270508-1.0556641,0.7270508l-8.8935547,0.0043945
		C34.5728149,13.5776463,34.5728149,13.5776463,34.5718384,13.5776463z M42.8862915,13.0879002h0.0107422H42.8862915z
		 M33.6333618,4.8276458l0.0029297,5.8090825c0,0.25,0.0986328,0.4858398,0.2763672,0.6650391
		c0.1777344,0.1777344,0.4121094,0.2758789,0.6591797,0.2758789c0,0,0,0,0.0009766,0l6.6181641-0.003418L33.6333618,4.8276458z"/>
</g>
<g>
	<path class="st2" d="M41.5278931,56.8569412H4.7817984c-2.1435549,0-3.8872073-1.7470703-3.8872073-3.8955078V4.8945403
		c0-2.147949,1.7436523-3.8955076,3.8872073-3.8955076h26.5126953c0.7392597,0,1.4355488,0.2890625,1.9599628,0.8134766
		l11.3076172,10.090332c0.5644531,0.5649414,0.8525391,1.262207,0.8525391,2.0029297v39.0556641
		C45.4146118,55.1098709,43.6714478,56.8569412,41.5278931,56.8569412z M4.7817984,2.9990327
		c-1.0405276,0-1.8872073,0.8500977-1.8872073,1.8955076v48.0668945c0,1.0449219,0.8466797,1.8955078,1.8872073,1.8955078
		h36.7460938c1.0400391,0,1.8867188-0.8505859,1.8867188-1.8955078V13.9057713c0-0.2084961-0.0810547-0.4042969-0.2275391-0.5512695
		L31.8814068,3.2656343c-0.1875-0.1855469-0.3818359-0.2666016-0.5869141-0.2666016H4.7817984z"/>
</g>
</svg>
