<?xml version="1.0" encoding="utf-8"?>
<!-- Generator: Adobe Illustrator 25.0.1, SVG Export Plug-In . SVG Version: 6.00 Build 0)  -->
<svg version="1.1" id="图层_1" xmlns="http://www.w3.org/2000/svg" xmlns:xlink="http://www.w3.org/1999/xlink" x="0px" y="0px"
	 viewBox="0 0 38.414093 38.2907829" style="enable-background:new 0 0 38.414093 38.2907829;" xml:space="preserve">
<style type="text/css">
	.st0{fill:#B78465;}
	.st1{opacity:0.15;}
</style>
<g>
	<g>
		<g>
			<path class="st0" d="M17.128418,16.9356613c-0.5522461,0-1-0.4477539-1-0.999999V8.3785334c0-0.5522461,0.4477539-1,1-1
				s1,0.4477539,1,1v7.5571289C18.128418,16.4879074,17.6806641,16.9356613,17.128418,16.9356613z"/>
		</g>
		<g>
			<path class="st0" d="M30.6972656,16.9356613c-0.5527344,0-1-0.4477539-1-0.999999V8.3785334c0-0.5522461,0.4472656-1,1-1
				s1,0.4477539,1,1v7.5571289C31.6972656,16.4879074,31.25,16.9356613,30.6972656,16.9356613z"/>
		</g>
		<g>
			<path class="st0" d="M10.7402344,17.1964035h-0.980957c-1.6772461,0-3.0419922-1.3647451-3.0419922-3.0419912v-3.9951172
				c0-1.6772461,1.3647461-3.0419922,3.0419922-3.0419922h0.980957c1.6772461,0,3.0419922,1.3647461,3.0419922,3.0419922v3.9951172
				C13.7822266,15.8316584,12.4174805,17.1964035,10.7402344,17.1964035z M9.7592773,9.1173029
				c-0.574707,0-1.0419922,0.4672852-1.0419922,1.0419922v3.9951172c0,0.574707,0.4672852,1.0419922,1.0419922,1.0419922h0.980957
				c0.574707,0,1.0419922-0.4672852,1.0419922-1.0419922v-3.9951172c0-0.574707-0.4672852-1.0419922-1.0419922-1.0419922H9.7592773z
				"/>
		</g>
		<g>
			<path class="st0" d="M24.3476562,17.1964035h-0.9814453c-1.6777344,0-3.0419922-1.3647451-3.0419922-3.0419912v-3.9951172
				c0-1.6772461,1.3642578-3.0419922,3.0419922-3.0419922h0.9814453c1.6777344,0,3.0419922,1.3647461,3.0419922,3.0419922v3.9951172
				C27.3896484,15.8316584,26.0253906,17.1964035,24.3476562,17.1964035z M23.3662109,9.1173029
				c-0.5742188,0-1.0419922,0.4672852-1.0419922,1.0419922v3.9951172c0,0.574707,0.4677734,1.0419922,1.0419922,1.0419922h0.9814453
				c0.5742188,0,1.0419922-0.4672852,1.0419922-1.0419922v-3.9951172c0-0.574707-0.4677734-1.0419922-1.0419922-1.0419922
				H23.3662109z"/>
		</g>
		<g>
			<path class="st0" d="M21.2158203,30.9122238c-0.5527344,0-1-0.4472656-1-1v-7.5566406c0-0.5527344,0.4472656-1,1-1
				s1,0.4472656,1,1v7.5566406C22.2158203,30.4649582,21.7685547,30.9122238,21.2158203,30.9122238z"/>
		</g>
		<g>
			<path class="st0" d="M7.7172852,30.9122238c-0.5522461,0-1-0.4472656-1-1v-7.5566406c0-0.5527344,0.4477539-1,1-1
				s1,0.4472656,1,1v7.5566406C8.7172852,30.4649582,8.2695312,30.9122238,7.7172852,30.9122238z"/>
		</g>
		<g>
			<path class="st0" d="M28.6542969,31.172966h-0.9804688c-1.6777344,0-3.0419922-1.3642578-3.0419922-3.0419922v-3.9951172
				c0-1.6777344,1.3642578-3.0419922,3.0419922-3.0419922h0.9804688c1.6777344,0,3.0429688,1.3642578,3.0429688,3.0419922v3.9951172
				C31.6972656,29.8087082,30.3320312,31.172966,28.6542969,31.172966z M27.6738281,23.0938644
				c-0.5742188,0-1.0419922,0.4677734-1.0419922,1.0419922v3.9951172c0,0.5742188,0.4677734,1.0419922,1.0419922,1.0419922
				h0.9804688c0.5751953,0,1.0429688-0.4677734,1.0429688-1.0419922v-3.9951172
				c0-0.5742188-0.4677734-1.0419922-1.0429688-1.0419922H27.6738281z"/>
		</g>
		<g>
			<path class="st0" d="M14.9072266,31.172966h-0.980957c-1.6772461,0-3.0419922-1.3642578-3.0419922-3.0419922v-3.9951172
				c0-1.6777344,1.3647461-3.0419922,3.0419922-3.0419922h0.980957c1.6772461,0,3.0419922,1.3642578,3.0419922,3.0419922v3.9951172
				C17.9492188,29.8087082,16.5844727,31.172966,14.9072266,31.172966z M13.9262695,23.0938644
				c-0.574707,0-1.0419922,0.4677734-1.0419922,1.0419922v3.9951172c0,0.5742188,0.4672852,1.0419922,1.0419922,1.0419922h0.980957
				c0.574707,0,1.0419922-0.4677734,1.0419922-1.0419922v-3.9951172c0-0.5742188-0.4672852-1.0419922-1.0419922-1.0419922
				H13.9262695z"/>
		</g>
		<g class="st1">
			<path class="st0" d="M10.7402887,16.196537H9.7593384c-1.1277905,0-2.0420461-0.9142561-2.0420461-2.0420465v-3.9949789
				c0-1.1277914,0.9142556-2.0420465,2.0420461-2.0420465h0.9809504c1.1277914,0,2.0420465,0.9142551,2.0420465,2.0420465v3.9949789
				C12.7823353,15.2822809,11.8680801,16.196537,10.7402887,16.196537z"/>
		</g>
		<g class="st1">
			<path class="st0" d="M24.347168,16.196537h-0.9809494c-1.1277905,0-2.0420475-0.9142561-2.0420475-2.0420465v-3.9949789
				c0-1.1277914,0.914257-2.0420465,2.0420475-2.0420465h0.9809494c1.1277924,0,2.0420475,0.9142551,2.0420475,2.0420465v3.9949789
				C26.3892155,15.2822809,25.4749603,16.196537,24.347168,16.196537z"/>
		</g>
		<g class="st1">
			<path class="st0" d="M27.6738033,22.0942459h0.9809513c1.1277905,0,2.0420456,0.9142551,2.0420456,2.0420475v3.994978
				c0,1.1277924-0.9142551,2.0420475-2.0420456,2.0420475h-0.9809513c-1.1277905,0-2.0420456-0.9142551-2.0420456-2.0420475
				v-3.994978C25.6317577,23.0085011,26.5460129,22.0942459,27.6738033,22.0942459z"/>
		</g>
		<g class="st1">
			<path class="st0" d="M13.9263048,22.0942459h0.9809504c1.1277905,0,2.0420456,0.9142551,2.0420456,2.0420475v3.994978
				c0,1.1277924-0.9142551,2.0420475-2.0420456,2.0420475h-0.9809504c-1.1277914,0-2.0420465-0.9142551-2.0420465-2.0420475
				v-3.994978C11.8842583,23.0085011,12.7985134,22.0942459,13.9263048,22.0942459z"/>
		</g>
	</g>
	<g>
		<path class="st0" d="M33.9003906,37.7227707H4.5141602c-2.1420898,0-3.8847656-1.7431641-3.8847656-3.8847656V4.4522638
			c0-2.1416016,1.7426758-3.8842773,3.8847656-3.8842773h29.3862305c2.1416016,0,3.8837891,1.7426758,3.8837891,3.8842773
			v29.3857422C37.7841797,35.9796066,36.0419922,37.7227707,33.9003906,37.7227707z M4.5141602,2.5679865
			c-1.0390625,0-1.8847656,0.8452148-1.8847656,1.8842773v29.3857422c0,1.0390625,0.8457031,1.8847656,1.8847656,1.8847656
			h29.3862305c1.0390625,0,1.8837891-0.8457031,1.8837891-1.8847656V4.4522638c0-1.0390625-0.8447266-1.8842773-1.8837891-1.8842773
			H4.5141602z"/>
	</g>
</g>
</svg>
