<?xml version="1.0" encoding="utf-8"?>
<!-- Generator: Adobe Illustrator 25.0.1, SVG Export Plug-In . SVG Version: 6.00 Build 0)  -->
<svg version="1.1" id="图层_1" xmlns="http://www.w3.org/2000/svg" xmlns:xlink="http://www.w3.org/1999/xlink" x="0px" y="0px"
	 viewBox="0 0 38.414093 38.2907829" style="enable-background:new 0 0 38.414093 38.2907829;" xml:space="preserve">
<style type="text/css">
	.st0{opacity:0.15;}
	.st1{fill:#6FAAB8;}
</style>
<g>
	<g class="st0">
		<path class="st1" d="M11.724225,16.9612789c-5.3295274,0-9.665802,4.3362732-9.665802,9.6668396
			c0,5.3295269,4.3362741,9.6658001,9.665802,9.6658001c5.3305655,0,9.6668406-4.3362732,9.6668406-9.6658001
			C21.3910656,21.2975521,17.0547905,16.9612789,11.724225,16.9612789z"/>
	</g>
	<g>
		<path class="st1" d="M36.7848015,2.5675409H1.6295294c-0.5527344,0-1-0.4472656-1-1s0.4472656-1,1-1h35.1552734
			c0.5527344,0,1,0.4472657,1,1S37.3375359,2.5675409,36.7848015,2.5675409z"/>
	</g>
	<g>
		<path class="st1" d="M36.7848015,11.3566036H1.6295294c-0.5527344,0-1-0.4472656-1-1s0.4472656-1,1-1h35.1552734
			c0.5527344,0,1,0.4472656,1,1S37.3375359,11.3566036,36.7848015,11.3566036z"/>
	</g>
	<g>
		<path class="st1" d="M36.7848015,20.1456661h-9.0361309c-0.5527344,0-1-0.4472656-1-1s0.4472656-1,1-1h9.0361309
			c0.5527344,0,1,0.4472656,1,1S37.3375359,20.1456661,36.7848015,20.1456661z"/>
	</g>
	<g>
		<path class="st1" d="M36.7848015,28.9337521h-9.0361309c-0.5527344,0-1-0.4472656-1-1s0.4472656-1,1-1h9.0361309
			c0.5527344,0,1,0.4472656,1,1S37.3375359,28.9337521,36.7848015,28.9337521z"/>
	</g>
	<g>
		<path class="st1" d="M36.7848015,37.7228127H23.9703503c-0.5527344,0-1-0.4472656-1-1s0.4472656-1,1-1h12.8144512
			c0.5527344,0,1,0.4472656,1,1S37.3375359,37.7228127,36.7848015,37.7228127z"/>
	</g>
	<g>
		<g>
			<path class="st1" d="M11.7242556,37.7228127c-6.117187,0-11.0947266-4.9775391-11.0947266-11.0947247
				c0-6.1181641,4.9775391-11.0957031,11.0947266-11.0957031c6.118165,0,11.0957041,4.9775391,11.0957041,11.0957031
				C22.8199596,32.7452736,17.8424206,37.7228127,11.7242556,37.7228127z M11.7242556,17.5323849
				c-5.014648,0-9.0947266,4.0800781-9.0947266,9.0957031c0,5.0146484,4.0800781,9.0947247,9.0947266,9.0947247
				c5.015626,0,9.0957041-4.0800762,9.0957041-9.0947247C20.8199596,21.612463,16.7398815,17.5323849,11.7242556,17.5323849z"/>
		</g>
		<g>
			<path class="st1" d="M16.0533581,27.628088h-4.3291025c-0.5527344,0-1-0.4472656-1-1s0.4472656-1,1-1h4.3291025
				c0.5527344,0,1,0.4472656,1,1S16.6060925,27.628088,16.0533581,27.628088z"/>
		</g>
		<g>
			<path class="st1" d="M11.7242556,27.628088c-0.5527344,0-1-0.4472656-1-1v-4.8671875c0-0.5527344,0.4472656-1,1-1
				s1,0.4472656,1,1v4.8671875C12.7242556,27.1808224,12.2769899,27.628088,11.7242556,27.628088z"/>
		</g>
	</g>
</g>
</svg>
